<?xml version="1.0" encoding="UTF-8" standalone="no"?>
<!DOCTYPE svg PUBLIC "-//W3C//DTD SVG 1.1//EN"
 "http://www.w3.org/Graphics/SVG/1.1/DTD/svg11.dtd">
<!-- Generated by graphviz version 2.43.0 (0)
 -->
<!-- Title: src/utils/assertion.hpp Pages: 1 -->
<svg width="1420pt" height="498pt"
 viewBox="0.00 0.00 1419.50 498.00" xmlns="http://www.w3.org/2000/svg" xmlns:xlink="http://www.w3.org/1999/xlink">
<g id="graph0" class="graph" transform="scale(1 1) rotate(0) translate(4 494)">
<title>src/utils/assertion.hpp</title>
<polygon fill="white" stroke="transparent" points="-4,4 -4,-494 1415.5,-494 1415.5,4 -4,4"/>
<!-- Node1 -->
<g id="node1" class="node">
<title>Node1</title>
<g id="a_node1"><a xlink:title=" ">
<polygon fill="#bfbfbf" stroke="black" points="541.5,-470.5 541.5,-489.5 665.5,-489.5 665.5,-470.5 541.5,-470.5"/>
<text text-anchor="middle" x="603.5" y="-477.5" font-family="Helvetica,sans-Serif" font-size="10.00">src/utils/assertion.hpp</text>
</a>
</g>
</g>
<!-- Node2 -->
<g id="node2" class="node">
<title>Node2</title>
<g id="a_node2"><a xlink:title=" ">
<polygon fill="white" stroke="#bfbfbf" points="0,-409 0,-428 49,-428 49,-409 0,-409"/>
<text text-anchor="middle" x="24.5" y="-416" font-family="Helvetica,sans-Serif" font-size="10.00">cstdlib</text>
</a>
</g>
</g>
<!-- Node1&#45;&gt;Node2 -->
<g id="edge1" class="edge">
<title>Node1&#45;&gt;Node2</title>
<path fill="none" stroke="midnightblue" d="M541.19,-476.36C418.23,-470.75 148.47,-456.28 58.5,-434 56.13,-433.41 53.72,-432.68 51.33,-431.86"/>
<polygon fill="midnightblue" stroke="midnightblue" points="52.36,-428.51 41.78,-428.13 49.82,-435.03 52.36,-428.51"/>
</g>
<!-- Node3 -->
<g id="node3" class="node">
<title>Node3</title>
<g id="a_node3"><a xlink:title=" ">
<polygon fill="white" stroke="#bfbfbf" points="67.5,-409 67.5,-428 127.5,-428 127.5,-409 67.5,-409"/>
<text text-anchor="middle" x="97.5" y="-416" font-family="Helvetica,sans-Serif" font-size="10.00">iostream</text>
</a>
</g>
</g>
<!-- Node1&#45;&gt;Node3 -->
<g id="edge2" class="edge">
<title>Node1&#45;&gt;Node3</title>
<path fill="none" stroke="midnightblue" d="M541.19,-477.3C451.81,-473.87 282.45,-463.71 141.5,-434 137.63,-433.18 133.62,-432.15 129.66,-431"/>
<polygon fill="midnightblue" stroke="midnightblue" points="130.66,-427.65 120.07,-428 128.57,-434.33 130.66,-427.65"/>
</g>
<!-- Node4 -->
<g id="node4" class="node">
<title>Node4</title>
<g id="a_node4"><a xlink:title=" ">
<polygon fill="white" stroke="#bfbfbf" points="669,-112.5 669,-131.5 742,-131.5 742,-112.5 669,-112.5"/>
<text text-anchor="middle" x="705.5" y="-119.5" font-family="Helvetica,sans-Serif" font-size="10.00">string_view</text>
</a>
</g>
</g>
<!-- Node1&#45;&gt;Node4 -->
<g id="edge3" class="edge">
<title>Node1&#45;&gt;Node4</title>
<path fill="none" stroke="midnightblue" d="M541.25,-475.82C464.19,-470.86 338.38,-459.12 299.5,-434 246.71,-399.9 161.09,-214.38 203.5,-168 233.88,-134.78 539.81,-125.89 658.65,-123.68"/>
<polygon fill="midnightblue" stroke="midnightblue" points="658.95,-127.18 668.88,-123.5 658.82,-120.18 658.95,-127.18"/>
</g>
<!-- Node5 -->
<g id="node5" class="node">
<title>Node5</title>
<g id="a_node5"><a xlink:href="fmt_8hpp.html" target="_top" xlink:title=" ">
<polygon fill="white" stroke="black" points="924,-174 924,-193 1003,-193 1003,-174 924,-174"/>
<text text-anchor="middle" x="963.5" y="-181" font-family="Helvetica,sans-Serif" font-size="10.00">utils/fmt.hpp</text>
</a>
</g>
</g>
<!-- Node1&#45;&gt;Node5 -->
<g id="edge4" class="edge">
<title>Node1&#45;&gt;Node5</title>
<path fill="none" stroke="midnightblue" d="M665.67,-477.2C720.47,-473.58 801.34,-463.21 865.5,-434 885.34,-424.97 883.73,-412.17 903.5,-403 982.65,-366.28 1022.92,-413.9 1096.5,-367 1122.29,-350.56 1127.17,-340.13 1136.5,-311 1147.74,-275.93 1131.85,-258.5 1103.5,-235 1077.61,-213.54 1041.86,-200.84 1012.96,-193.55"/>
<polygon fill="midnightblue" stroke="midnightblue" points="1013.6,-190.1 1003.06,-191.19 1011.97,-196.91 1013.6,-190.1"/>
</g>
<!-- Node20 -->
<g id="node20" class="node">
<title>Node20</title>
<g id="a_node20"><a xlink:title=" ">
<polygon fill="white" stroke="#bfbfbf" points="913,-409 913,-428 1060,-428 1060,-409 913,-409"/>
<text text-anchor="middle" x="986.5" y="-416" font-family="Helvetica,sans-Serif" font-size="10.00">boost/current_function.hpp</text>
</a>
</g>
</g>
<!-- Node1&#45;&gt;Node20 -->
<g id="edge23" class="edge">
<title>Node1&#45;&gt;Node20</title>
<path fill="none" stroke="midnightblue" d="M660.64,-470.49C720.09,-461.59 815.86,-447.11 898.5,-434 907.17,-432.63 916.31,-431.15 925.29,-429.68"/>
<polygon fill="midnightblue" stroke="midnightblue" points="926.03,-433.11 935.33,-428.04 924.9,-426.2 926.03,-433.11"/>
</g>
<!-- Node21 -->
<g id="node21" class="node">
<title>Node21</title>
<g id="a_node21"><a xlink:title=" ">
<polygon fill="white" stroke="#bfbfbf" points="1078,-403.5 1078,-433.5 1213,-433.5 1213,-403.5 1078,-403.5"/>
<text text-anchor="start" x="1086" y="-421.5" font-family="Helvetica,sans-Serif" font-size="10.00">boost/preprocessor</text>
<text text-anchor="middle" x="1145.5" y="-410.5" font-family="Helvetica,sans-Serif" font-size="10.00">/comparison/greater.hpp</text>
</a>
</g>
</g>
<!-- Node1&#45;&gt;Node21 -->
<g id="edge24" class="edge">
<title>Node1&#45;&gt;Node21</title>
<path fill="none" stroke="midnightblue" d="M665.76,-474.76C753.16,-468.41 917.38,-455.04 1067.62,-434.03"/>
<polygon fill="midnightblue" stroke="midnightblue" points="1068.54,-437.44 1077.95,-432.57 1067.56,-430.51 1068.54,-437.44"/>
</g>
<!-- Node22 -->
<g id="node22" class="node">
<title>Node22</title>
<g id="a_node22"><a xlink:title=" ">
<polygon fill="white" stroke="#bfbfbf" points="212.5,-168.5 212.5,-198.5 322.5,-198.5 322.5,-168.5 212.5,-168.5"/>
<text text-anchor="start" x="220.5" y="-186.5" font-family="Helvetica,sans-Serif" font-size="10.00">boost/preprocessor</text>
<text text-anchor="middle" x="267.5" y="-175.5" font-family="Helvetica,sans-Serif" font-size="10.00">/control/if.hpp</text>
</a>
</g>
</g>
<!-- Node1&#45;&gt;Node22 -->
<g id="edge25" class="edge">
<title>Node1&#45;&gt;Node22</title>
<path fill="none" stroke="midnightblue" d="M543.75,-470.49C445.48,-454.79 260.5,-417.36 260.5,-358 260.5,-358 260.5,-358 260.5,-300 260.5,-268.44 263.14,-232.11 265.17,-208.76"/>
<polygon fill="midnightblue" stroke="midnightblue" points="268.67,-208.98 266.08,-198.71 261.7,-208.35 268.67,-208.98"/>
</g>
<!-- Node23 -->
<g id="node23" class="node">
<title>Node23</title>
<g id="a_node23"><a xlink:title=" ">
<polygon fill="white" stroke="#bfbfbf" points="757.5,-168.5 757.5,-198.5 867.5,-198.5 867.5,-168.5 757.5,-168.5"/>
<text text-anchor="start" x="765.5" y="-186.5" font-family="Helvetica,sans-Serif" font-size="10.00">boost/preprocessor</text>
<text text-anchor="middle" x="812.5" y="-175.5" font-family="Helvetica,sans-Serif" font-size="10.00">/stringize.hpp</text>
</a>
</g>
</g>
<!-- Node1&#45;&gt;Node23 -->
<g id="edge26" class="edge">
<title>Node1&#45;&gt;Node23</title>
<path fill="none" stroke="midnightblue" d="M602.74,-470.32C601.2,-448.21 599.62,-388.58 622.5,-347 658.82,-281.01 733.21,-229.81 777.37,-203.68"/>
<polygon fill="midnightblue" stroke="midnightblue" points="779.15,-206.69 786.04,-198.64 775.64,-200.63 779.15,-206.69"/>
</g>
<!-- Node24 -->
<g id="node24" class="node">
<title>Node24</title>
<g id="a_node24"><a xlink:title=" ">
<polygon fill="white" stroke="#bfbfbf" points="1231.5,-403.5 1231.5,-433.5 1341.5,-433.5 1341.5,-403.5 1231.5,-403.5"/>
<text text-anchor="start" x="1239.5" y="-421.5" font-family="Helvetica,sans-Serif" font-size="10.00">boost/preprocessor</text>
<text text-anchor="middle" x="1286.5" y="-410.5" font-family="Helvetica,sans-Serif" font-size="10.00">/variadic/size.hpp</text>
</a>
</g>
</g>
<!-- Node1&#45;&gt;Node24 -->
<g id="edge27" class="edge">
<title>Node1&#45;&gt;Node24</title>
<path fill="none" stroke="midnightblue" d="M665.78,-477.56C776.01,-474.35 1012.73,-464.4 1221.52,-433.99"/>
<polygon fill="midnightblue" stroke="midnightblue" points="1222.06,-437.45 1231.44,-432.53 1221.04,-430.52 1222.06,-437.45"/>
</g>
<!-- Node25 -->
<g id="node25" class="node">
<title>Node25</title>
<g id="a_node25"><a xlink:href="ArgumentFormatter_8hpp.html" target="_top" xlink:title=" ">
<polygon fill="white" stroke="black" points="472,-235.5 472,-254.5 629,-254.5 629,-235.5 472,-235.5"/>
<text text-anchor="middle" x="550.5" y="-242.5" font-family="Helvetica,sans-Serif" font-size="10.00">utils/ArgumentFormatter.hpp</text>
</a>
</g>
</g>
<!-- Node1&#45;&gt;Node25 -->
<g id="edge28" class="edge">
<title>Node1&#45;&gt;Node25</title>
<path fill="none" stroke="midnightblue" d="M600.57,-470.44C597.54,-461.44 592.82,-446.83 589.5,-434 573.6,-372.53 559.77,-298.46 553.73,-264.57"/>
<polygon fill="midnightblue" stroke="midnightblue" points="557.17,-263.93 551.99,-254.69 550.28,-265.14 557.17,-263.93"/>
</g>
<!-- Node29 -->
<g id="node29" class="node">
<title>Node29</title>
<g id="a_node29"><a xlink:href="Parallel_8hpp.html" target="_top" xlink:title=" ">
<polygon fill="white" stroke="black" points="758.5,-409 758.5,-428 856.5,-428 856.5,-409 758.5,-409"/>
<text text-anchor="middle" x="807.5" y="-416" font-family="Helvetica,sans-Serif" font-size="10.00">utils/Parallel.hpp</text>
</a>
</g>
</g>
<!-- Node1&#45;&gt;Node29 -->
<g id="edge35" class="edge">
<title>Node1&#45;&gt;Node29</title>
<path fill="none" stroke="midnightblue" d="M632.73,-470.48C668.4,-460.07 728.86,-442.44 768.48,-430.88"/>
<polygon fill="midnightblue" stroke="midnightblue" points="769.71,-434.17 778.33,-428.01 767.75,-427.45 769.71,-434.17"/>
</g>
<!-- Node38 -->
<g id="node38" class="node">
<title>Node38</title>
<g id="a_node38"><a xlink:href="stacktrace_8hpp.html" target="_top" xlink:title=" ">
<polygon fill="white" stroke="black" points="52,-291.5 52,-310.5 165,-310.5 165,-291.5 52,-291.5"/>
<text text-anchor="middle" x="108.5" y="-298.5" font-family="Helvetica,sans-Serif" font-size="10.00">utils/stacktrace.hpp</text>
</a>
</g>
</g>
<!-- Node1&#45;&gt;Node38 -->
<g id="edge51" class="edge">
<title>Node1&#45;&gt;Node38</title>
<path fill="none" stroke="midnightblue" d="M541.46,-479.37C438.32,-478.87 237.18,-472.75 179.5,-434 139.47,-407.11 120.19,-349.98 112.59,-320.48"/>
<polygon fill="midnightblue" stroke="midnightblue" points="115.97,-319.56 110.24,-310.65 109.16,-321.19 115.97,-319.56"/>
</g>
<!-- Node39 -->
<g id="node39" class="node">
<title>Node39</title>
<g id="a_node39"><a xlink:title=" ">
<polygon fill="white" stroke="#bfbfbf" points="1359.5,-409 1359.5,-428 1411.5,-428 1411.5,-409 1359.5,-409"/>
<text text-anchor="middle" x="1385.5" y="-416" font-family="Helvetica,sans-Serif" font-size="10.00">cassert</text>
</a>
</g>
</g>
<!-- Node1&#45;&gt;Node39 -->
<g id="edge53" class="edge">
<title>Node1&#45;&gt;Node39</title>
<path fill="none" stroke="midnightblue" d="M665.74,-477.9C820.76,-474.74 1220.89,-463.86 1350.5,-434 1353.17,-433.38 1355.9,-432.58 1358.6,-431.68"/>
<polygon fill="midnightblue" stroke="midnightblue" points="1359.98,-434.9 1368.07,-428.06 1357.48,-428.36 1359.98,-434.9"/>
</g>
<!-- Node5&#45;&gt;Node4 -->
<g id="edge6" class="edge">
<title>Node5&#45;&gt;Node4</title>
<path fill="none" stroke="midnightblue" d="M932.72,-173.98C925.15,-171.95 917.04,-169.84 909.5,-168 855.63,-154.83 793.34,-141.34 751.91,-132.61"/>
<polygon fill="midnightblue" stroke="midnightblue" points="752.6,-129.18 742.1,-130.55 751.16,-136.03 752.6,-129.18"/>
</g>
<!-- Node6 -->
<g id="node6" class="node">
<title>Node6</title>
<g id="a_node6"><a xlink:title=" ">
<polygon fill="white" stroke="#bfbfbf" points="124.5,-112.5 124.5,-131.5 168.5,-131.5 168.5,-112.5 124.5,-112.5"/>
<text text-anchor="middle" x="146.5" y="-119.5" font-family="Helvetica,sans-Serif" font-size="10.00">string</text>
</a>
</g>
</g>
<!-- Node5&#45;&gt;Node6 -->
<g id="edge5" class="edge">
<title>Node5&#45;&gt;Node6</title>
<path fill="none" stroke="midnightblue" d="M923.78,-174.99C908.98,-172.43 892.02,-169.77 876.5,-168 607.82,-137.41 280.98,-126.57 178.68,-123.79"/>
<polygon fill="midnightblue" stroke="midnightblue" points="178.76,-120.3 168.67,-123.53 178.58,-127.29 178.76,-120.3"/>
</g>
<!-- Node7 -->
<g id="node7" class="node">
<title>Node7</title>
<g id="a_node7"><a xlink:title=" ">
<polygon fill="white" stroke="#bfbfbf" points="864,-56.5 864,-75.5 943,-75.5 943,-56.5 864,-56.5"/>
<text text-anchor="middle" x="903.5" y="-63.5" font-family="Helvetica,sans-Serif" font-size="10.00">fmt/format.h</text>
</a>
</g>
</g>
<!-- Node5&#45;&gt;Node7 -->
<g id="edge7" class="edge">
<title>Node5&#45;&gt;Node7</title>
<path fill="none" stroke="midnightblue" d="M958.99,-173.82C949.22,-155.01 925.91,-110.15 912.83,-84.96"/>
<polygon fill="midnightblue" stroke="midnightblue" points="915.78,-83.04 908.06,-75.78 909.57,-86.27 915.78,-83.04"/>
</g>
<!-- Node8 -->
<g id="node8" class="node">
<title>Node8</title>
<g id="a_node8"><a xlink:title=" ">
<polygon fill="white" stroke="#bfbfbf" points="1063.5,-112.5 1063.5,-131.5 1149.5,-131.5 1149.5,-112.5 1063.5,-112.5"/>
<text text-anchor="middle" x="1106.5" y="-119.5" font-family="Helvetica,sans-Serif" font-size="10.00">fmt/ostream.h</text>
</a>
</g>
</g>
<!-- Node5&#45;&gt;Node8 -->
<g id="edge8" class="edge">
<title>Node5&#45;&gt;Node8</title>
<path fill="none" stroke="midnightblue" d="M983.99,-173.98C1008.31,-163.86 1049.05,-146.9 1076.82,-135.35"/>
<polygon fill="midnightblue" stroke="midnightblue" points="1078.16,-138.58 1086.05,-131.51 1075.47,-132.12 1078.16,-138.58"/>
</g>
<!-- Node9 -->
<g id="node9" class="node">
<title>Node9</title>
<g id="a_node9"><a xlink:href="fmtEigen_8hpp.html" target="_top" xlink:title=" ">
<polygon fill="white" stroke="black" points="760.5,-112.5 760.5,-131.5 866.5,-131.5 866.5,-112.5 760.5,-112.5"/>
<text text-anchor="middle" x="813.5" y="-119.5" font-family="Helvetica,sans-Serif" font-size="10.00">utils/fmtEigen.hpp</text>
</a>
</g>
</g>
<!-- Node5&#45;&gt;Node9 -->
<g id="edge9" class="edge">
<title>Node5&#45;&gt;Node9</title>
<path fill="none" stroke="midnightblue" d="M942.01,-173.98C916.39,-163.81 873.39,-146.76 844.26,-135.2"/>
<polygon fill="midnightblue" stroke="midnightblue" points="845.54,-131.94 834.95,-131.51 842.96,-138.45 845.54,-131.94"/>
</g>
<!-- Node14 -->
<g id="node14" class="node">
<title>Node14</title>
<g id="a_node14"><a xlink:href="fmtSTL_8hpp.html" target="_top" xlink:title=" ">
<polygon fill="white" stroke="black" points="949.5,-112.5 949.5,-131.5 1045.5,-131.5 1045.5,-112.5 949.5,-112.5"/>
<text text-anchor="middle" x="997.5" y="-119.5" font-family="Helvetica,sans-Serif" font-size="10.00">utils/fmtSTL.hpp</text>
</a>
</g>
</g>
<!-- Node5&#45;&gt;Node14 -->
<g id="edge16" class="edge">
<title>Node5&#45;&gt;Node14</title>
<path fill="none" stroke="midnightblue" d="M968.37,-173.98C973.37,-165.23 981.29,-151.37 987.61,-140.31"/>
<polygon fill="midnightblue" stroke="midnightblue" points="990.72,-141.93 992.64,-131.51 984.64,-138.46 990.72,-141.93"/>
</g>
<!-- Node9&#45;&gt;Node7 -->
<g id="edge12" class="edge">
<title>Node9&#45;&gt;Node7</title>
<path fill="none" stroke="midnightblue" d="M827.96,-112.32C842,-103.9 863.55,-90.97 880.04,-81.07"/>
<polygon fill="midnightblue" stroke="midnightblue" points="882.3,-83.8 889.08,-75.65 878.7,-77.8 882.3,-83.8"/>
</g>
<!-- Node10 -->
<g id="node10" class="node">
<title>Node10</title>
<g id="a_node10"><a xlink:title=" ">
<polygon fill="white" stroke="#bfbfbf" points="640,-0.5 640,-19.5 709,-19.5 709,-0.5 640,-0.5"/>
<text text-anchor="middle" x="674.5" y="-7.5" font-family="Helvetica,sans-Serif" font-size="10.00">Eigen/Core</text>
</a>
</g>
</g>
<!-- Node9&#45;&gt;Node10 -->
<g id="edge10" class="edge">
<title>Node9&#45;&gt;Node10</title>
<path fill="none" stroke="midnightblue" d="M760.15,-112.92C719.14,-105.49 667.39,-93.05 654.5,-76 643.87,-61.94 652.44,-42.17 661.43,-28.14"/>
<polygon fill="midnightblue" stroke="midnightblue" points="664.35,-30.06 667.2,-19.86 658.61,-26.06 664.35,-30.06"/>
</g>
<!-- Node11 -->
<g id="node11" class="node">
<title>Node11</title>
<g id="a_node11"><a xlink:title=" ">
<polygon fill="white" stroke="#bfbfbf" points="781.5,-56.5 781.5,-75.5 845.5,-75.5 845.5,-56.5 781.5,-56.5"/>
<text text-anchor="middle" x="813.5" y="-63.5" font-family="Helvetica,sans-Serif" font-size="10.00">algorithm</text>
</a>
</g>
</g>
<!-- Node9&#45;&gt;Node11 -->
<g id="edge11" class="edge">
<title>Node9&#45;&gt;Node11</title>
<path fill="none" stroke="midnightblue" d="M813.5,-112.08C813.5,-105.01 813.5,-94.86 813.5,-85.99"/>
<polygon fill="midnightblue" stroke="midnightblue" points="817,-85.75 813.5,-75.75 810,-85.75 817,-85.75"/>
</g>
<!-- Node12 -->
<g id="node12" class="node">
<title>Node12</title>
<g id="a_node12"><a xlink:title=" ">
<polygon fill="white" stroke="#bfbfbf" points="551.5,-56.5 551.5,-75.5 607.5,-75.5 607.5,-56.5 551.5,-56.5"/>
<text text-anchor="middle" x="579.5" y="-63.5" font-family="Helvetica,sans-Serif" font-size="10.00">sstream</text>
</a>
</g>
</g>
<!-- Node9&#45;&gt;Node12 -->
<g id="edge13" class="edge">
<title>Node9&#45;&gt;Node12</title>
<path fill="none" stroke="midnightblue" d="M776.42,-112.44C732.99,-102.42 661.43,-85.91 617.58,-75.79"/>
<polygon fill="midnightblue" stroke="midnightblue" points="618.12,-72.32 607.59,-73.48 616.55,-79.14 618.12,-72.32"/>
</g>
<!-- Node13 -->
<g id="node13" class="node">
<title>Node13</title>
<g id="a_node13"><a xlink:href="EigenIO_8hpp.html" target="_top" xlink:title=" ">
<polygon fill="white" stroke="black" points="664,-56.5 664,-75.5 763,-75.5 763,-56.5 664,-56.5"/>
<text text-anchor="middle" x="713.5" y="-63.5" font-family="Helvetica,sans-Serif" font-size="10.00">utils/EigenIO.hpp</text>
</a>
</g>
</g>
<!-- Node9&#45;&gt;Node13 -->
<g id="edge14" class="edge">
<title>Node9&#45;&gt;Node13</title>
<path fill="none" stroke="midnightblue" d="M797.43,-112.32C781.54,-103.74 756.99,-90.49 738.54,-80.52"/>
<polygon fill="midnightblue" stroke="midnightblue" points="739.99,-77.33 729.53,-75.65 736.66,-83.49 739.99,-77.33"/>
</g>
<!-- Node13&#45;&gt;Node10 -->
<g id="edge15" class="edge">
<title>Node13&#45;&gt;Node10</title>
<path fill="none" stroke="midnightblue" d="M707.06,-56.08C701.55,-48.46 693.47,-37.26 686.74,-27.94"/>
<polygon fill="midnightblue" stroke="midnightblue" points="689.51,-25.81 680.82,-19.75 683.84,-29.91 689.51,-25.81"/>
</g>
<!-- Node14&#45;&gt;Node7 -->
<g id="edge19" class="edge">
<title>Node14&#45;&gt;Node7</title>
<path fill="none" stroke="midnightblue" d="M982.4,-112.32C967.6,-103.82 944.81,-90.73 927.52,-80.8"/>
<polygon fill="midnightblue" stroke="midnightblue" points="928.98,-77.6 918.57,-75.65 925.49,-83.67 928.98,-77.6"/>
</g>
<!-- Node15 -->
<g id="node15" class="node">
<title>Node15</title>
<g id="a_node15"><a xlink:title=" ">
<polygon fill="white" stroke="#bfbfbf" points="1132.5,-56.5 1132.5,-75.5 1174.5,-75.5 1174.5,-56.5 1132.5,-56.5"/>
<text text-anchor="middle" x="1153.5" y="-63.5" font-family="Helvetica,sans-Serif" font-size="10.00">array</text>
</a>
</g>
</g>
<!-- Node14&#45;&gt;Node15 -->
<g id="edge17" class="edge">
<title>Node14&#45;&gt;Node15</title>
<path fill="none" stroke="midnightblue" d="M1022.22,-112.44C1049.42,-103.03 1093.2,-87.87 1122.63,-77.68"/>
<polygon fill="midnightblue" stroke="midnightblue" points="1124.09,-80.88 1132.4,-74.3 1121.8,-74.27 1124.09,-80.88"/>
</g>
<!-- Node16 -->
<g id="node16" class="node">
<title>Node16</title>
<g id="a_node16"><a xlink:title=" ">
<polygon fill="white" stroke="#bfbfbf" points="961,-56.5 961,-75.5 1008,-75.5 1008,-56.5 961,-56.5"/>
<text text-anchor="middle" x="984.5" y="-63.5" font-family="Helvetica,sans-Serif" font-size="10.00">deque</text>
</a>
</g>
</g>
<!-- Node14&#45;&gt;Node16 -->
<g id="edge18" class="edge">
<title>Node14&#45;&gt;Node16</title>
<path fill="none" stroke="midnightblue" d="M995.35,-112.08C993.63,-104.93 991.15,-94.64 989,-85.69"/>
<polygon fill="midnightblue" stroke="midnightblue" points="992.35,-84.65 986.61,-75.75 985.54,-86.29 992.35,-84.65"/>
</g>
<!-- Node17 -->
<g id="node17" class="node">
<title>Node17</title>
<g id="a_node17"><a xlink:title=" ">
<polygon fill="white" stroke="#bfbfbf" points="1026.5,-56.5 1026.5,-75.5 1064.5,-75.5 1064.5,-56.5 1026.5,-56.5"/>
<text text-anchor="middle" x="1045.5" y="-63.5" font-family="Helvetica,sans-Serif" font-size="10.00">map</text>
</a>
</g>
</g>
<!-- Node14&#45;&gt;Node17 -->
<g id="edge20" class="edge">
<title>Node14&#45;&gt;Node17</title>
<path fill="none" stroke="midnightblue" d="M1005.43,-112.08C1012.35,-104.3 1022.57,-92.8 1030.95,-83.37"/>
<polygon fill="midnightblue" stroke="midnightblue" points="1033.69,-85.55 1037.72,-75.75 1028.46,-80.9 1033.69,-85.55"/>
</g>
<!-- Node18 -->
<g id="node18" class="node">
<title>Node18</title>
<g id="a_node18"><a xlink:title=" ">
<polygon fill="white" stroke="#bfbfbf" points="1082.5,-56.5 1082.5,-75.5 1114.5,-75.5 1114.5,-56.5 1082.5,-56.5"/>
<text text-anchor="middle" x="1098.5" y="-63.5" font-family="Helvetica,sans-Serif" font-size="10.00">set</text>
</a>
</g>
</g>
<!-- Node14&#45;&gt;Node18 -->
<g id="edge21" class="edge">
<title>Node14&#45;&gt;Node18</title>
<path fill="none" stroke="midnightblue" d="M1013.73,-112.32C1029.85,-103.7 1054.8,-90.36 1073.46,-80.39"/>
<polygon fill="midnightblue" stroke="midnightblue" points="1075.14,-83.46 1082.31,-75.65 1071.84,-77.28 1075.14,-83.46"/>
</g>
<!-- Node19 -->
<g id="node19" class="node">
<title>Node19</title>
<g id="a_node19"><a xlink:title=" ">
<polygon fill="white" stroke="#bfbfbf" points="1193,-56.5 1193,-75.5 1240,-75.5 1240,-56.5 1193,-56.5"/>
<text text-anchor="middle" x="1216.5" y="-63.5" font-family="Helvetica,sans-Serif" font-size="10.00">vector</text>
</a>
</g>
</g>
<!-- Node14&#45;&gt;Node19 -->
<g id="edge22" class="edge">
<title>Node14&#45;&gt;Node19</title>
<path fill="none" stroke="midnightblue" d="M1034.28,-112.43C1069.8,-104.08 1125.36,-90.84 1182.75,-76.14"/>
<polygon fill="midnightblue" stroke="midnightblue" points="1183.92,-79.45 1192.73,-73.57 1182.17,-72.67 1183.92,-79.45"/>
</g>
<!-- Node25&#45;&gt;Node5 -->
<g id="edge34" class="edge">
<title>Node25&#45;&gt;Node5</title>
<path fill="none" stroke="midnightblue" d="M616.14,-235.49C682.03,-226.81 786.41,-212.72 876.5,-199 888.56,-197.16 901.55,-195.06 913.71,-193.05"/>
<polygon fill="midnightblue" stroke="midnightblue" points="914.41,-196.48 923.69,-191.38 913.25,-189.57 914.41,-196.48"/>
</g>
<!-- Node25&#45;&gt;Node22 -->
<g id="edge29" class="edge">
<title>Node25&#45;&gt;Node22</title>
<path fill="none" stroke="midnightblue" d="M507.64,-235.46C465.53,-227.01 399.17,-213.53 332.48,-199.19"/>
<polygon fill="midnightblue" stroke="midnightblue" points="333.16,-195.75 322.64,-197.07 331.68,-202.6 333.16,-195.75"/>
</g>
<!-- Node25&#45;&gt;Node23 -->
<g id="edge31" class="edge">
<title>Node25&#45;&gt;Node23</title>
<path fill="none" stroke="midnightblue" d="M588.04,-235.48C629.56,-226.05 697.21,-210.68 747.41,-199.28"/>
<polygon fill="midnightblue" stroke="midnightblue" points="748.23,-202.69 757.2,-197.06 746.68,-195.86 748.23,-202.69"/>
</g>
<!-- Node26 -->
<g id="node26" class="node">
<title>Node26</title>
<g id="a_node26"><a xlink:title=" ">
<polygon fill="white" stroke="#bfbfbf" points="495,-168.5 495,-198.5 606,-198.5 606,-168.5 495,-168.5"/>
<text text-anchor="start" x="503" y="-186.5" font-family="Helvetica,sans-Serif" font-size="10.00">boost/preprocessor</text>
<text text-anchor="middle" x="550.5" y="-175.5" font-family="Helvetica,sans-Serif" font-size="10.00">/seq/for_each_i.hpp</text>
</a>
</g>
</g>
<!-- Node25&#45;&gt;Node26 -->
<g id="edge30" class="edge">
<title>Node25&#45;&gt;Node26</title>
<path fill="none" stroke="midnightblue" d="M550.5,-235.48C550.5,-228.47 550.5,-218.19 550.5,-208.7"/>
<polygon fill="midnightblue" stroke="midnightblue" points="554,-208.52 550.5,-198.52 547,-208.52 554,-208.52"/>
</g>
<!-- Node27 -->
<g id="node27" class="node">
<title>Node27</title>
<g id="a_node27"><a xlink:title=" ">
<polygon fill="white" stroke="#bfbfbf" points="624,-168.5 624,-198.5 739,-198.5 739,-168.5 624,-168.5"/>
<text text-anchor="start" x="632" y="-186.5" font-family="Helvetica,sans-Serif" font-size="10.00">boost/preprocessor</text>
<text text-anchor="middle" x="681.5" y="-175.5" font-family="Helvetica,sans-Serif" font-size="10.00">/variadic/to_seq.hpp</text>
</a>
</g>
</g>
<!-- Node25&#45;&gt;Node27 -->
<g id="edge32" class="edge">
<title>Node25&#45;&gt;Node27</title>
<path fill="none" stroke="midnightblue" d="M569.27,-235.48C588.01,-226.96 617.39,-213.62 641.39,-202.72"/>
<polygon fill="midnightblue" stroke="midnightblue" points="642.97,-205.85 650.63,-198.52 640.07,-199.47 642.97,-205.85"/>
</g>
<!-- Node28 -->
<g id="node28" class="node">
<title>Node28</title>
<g id="a_node28"><a xlink:title=" ">
<polygon fill="white" stroke="#bfbfbf" points="340.5,-174 340.5,-193 476.5,-193 476.5,-174 340.5,-174"/>
<text text-anchor="middle" x="408.5" y="-181" font-family="Helvetica,sans-Serif" font-size="10.00">boost/vmd/is_empty.hpp</text>
</a>
</g>
</g>
<!-- Node25&#45;&gt;Node28 -->
<g id="edge33" class="edge">
<title>Node25&#45;&gt;Node28</title>
<path fill="none" stroke="midnightblue" d="M530.15,-235.48C506.11,-225.4 465.9,-208.55 438.34,-197"/>
<polygon fill="midnightblue" stroke="midnightblue" points="439.38,-193.65 428.81,-193.01 436.68,-200.1 439.38,-193.65"/>
</g>
<!-- Node29&#45;&gt;Node6 -->
<g id="edge39" class="edge">
<title>Node29&#45;&gt;Node6</title>
<path fill="none" stroke="midnightblue" d="M771.32,-408.93C733.76,-399.73 673.47,-384.11 622.5,-367 432.3,-303.14 362.7,-321.11 203.5,-199 182.71,-183.06 165.78,-157.64 155.92,-140.65"/>
<polygon fill="midnightblue" stroke="midnightblue" points="158.88,-138.77 150.95,-131.75 152.77,-142.19 158.88,-138.77"/>
</g>
<!-- Node29&#45;&gt;Node19 -->
<g id="edge40" class="edge">
<title>Node29&#45;&gt;Node19</title>
<path fill="none" stroke="midnightblue" d="M856.59,-409.79C936.3,-397.16 1086.11,-372.84 1096.5,-367 1158.82,-331.96 1202.5,-317.49 1202.5,-246 1202.5,-246 1202.5,-246 1202.5,-182.5 1202.5,-148.11 1208.69,-108.38 1212.84,-85.63"/>
<polygon fill="midnightblue" stroke="midnightblue" points="1216.31,-86.13 1214.73,-75.65 1209.43,-84.82 1216.31,-86.13"/>
</g>
<!-- Node30 -->
<g id="node30" class="node">
<title>Node30</title>
<g id="a_node30"><a xlink:title=" ">
<polygon fill="white" stroke="#bfbfbf" points="815.5,-347.5 815.5,-366.5 863.5,-366.5 863.5,-347.5 815.5,-347.5"/>
<text text-anchor="middle" x="839.5" y="-354.5" font-family="Helvetica,sans-Serif" font-size="10.00">iosfwd</text>
</a>
</g>
</g>
<!-- Node29&#45;&gt;Node30 -->
<g id="edge36" class="edge">
<title>Node29&#45;&gt;Node30</title>
<path fill="none" stroke="midnightblue" d="M812.08,-408.98C816.74,-400.32 824.09,-386.65 830.01,-375.65"/>
<polygon fill="midnightblue" stroke="midnightblue" points="833.27,-376.97 834.92,-366.51 827.1,-373.66 833.27,-376.97"/>
</g>
<!-- Node31 -->
<g id="node31" class="node">
<title>Node31</title>
<g id="a_node31"><a xlink:title=" ">
<polygon fill="white" stroke="#bfbfbf" points="1069.5,-291.5 1069.5,-310.5 1127.5,-310.5 1127.5,-291.5 1069.5,-291.5"/>
<text text-anchor="middle" x="1098.5" y="-298.5" font-family="Helvetica,sans-Serif" font-size="10.00">memory</text>
</a>
</g>
</g>
<!-- Node29&#45;&gt;Node31 -->
<g id="edge37" class="edge">
<title>Node29&#45;&gt;Node31</title>
<path fill="none" stroke="midnightblue" d="M843.08,-408.97C852.01,-406.93 861.59,-404.81 870.5,-403 960.72,-384.67 1003.84,-426.02 1074.5,-367 1088.18,-355.57 1094.07,-335.59 1096.6,-320.79"/>
<polygon fill="midnightblue" stroke="midnightblue" points="1100.09,-321.08 1097.95,-310.7 1093.15,-320.15 1100.09,-321.08"/>
</g>
<!-- Node32 -->
<g id="node32" class="node">
<title>Node32</title>
<g id="a_node32"><a xlink:title=" ">
<polygon fill="white" stroke="#bfbfbf" points="1009.5,-347.5 1009.5,-366.5 1065.5,-366.5 1065.5,-347.5 1009.5,-347.5"/>
<text text-anchor="middle" x="1037.5" y="-354.5" font-family="Helvetica,sans-Serif" font-size="10.00">optional</text>
</a>
</g>
</g>
<!-- Node29&#45;&gt;Node32 -->
<g id="edge38" class="edge">
<title>Node29&#45;&gt;Node32</title>
<path fill="none" stroke="midnightblue" d="M840.45,-408.98C882.51,-398.09 955.13,-379.31 999.49,-367.83"/>
<polygon fill="midnightblue" stroke="midnightblue" points="1000.51,-371.19 1009.31,-365.29 998.75,-364.41 1000.51,-371.19"/>
</g>
<!-- Node33 -->
<g id="node33" class="node">
<title>Node33</title>
<g id="a_node33"><a xlink:href="Logger_8hpp.html" target="_top" xlink:title=" ">
<polygon fill="white" stroke="black" points="882,-347.5 882,-366.5 991,-366.5 991,-347.5 882,-347.5"/>
<text text-anchor="middle" x="936.5" y="-354.5" font-family="Helvetica,sans-Serif" font-size="10.00">logging/Logger.hpp</text>
</a>
</g>
</g>
<!-- Node29&#45;&gt;Node33 -->
<g id="edge41" class="edge">
<title>Node29&#45;&gt;Node33</title>
<path fill="none" stroke="midnightblue" d="M825.98,-408.98C847.63,-398.99 883.71,-382.35 908.73,-370.81"/>
<polygon fill="midnightblue" stroke="midnightblue" points="910.44,-373.88 918.05,-366.51 907.51,-367.52 910.44,-373.88"/>
</g>
<!-- Node36 -->
<g id="node36" class="node">
<title>Node36</title>
<g id="a_node36"><a xlink:href="types_8hpp.html" target="_top" xlink:title=" ">
<polygon fill="white" stroke="black" points="632,-347.5 632,-366.5 735,-366.5 735,-347.5 632,-347.5"/>
<text text-anchor="middle" x="683.5" y="-354.5" font-family="Helvetica,sans-Serif" font-size="10.00">precice/types.hpp</text>
</a>
</g>
</g>
<!-- Node29&#45;&gt;Node36 -->
<g id="edge49" class="edge">
<title>Node29&#45;&gt;Node36</title>
<path fill="none" stroke="midnightblue" d="M789.73,-408.98C769.02,-399.03 734.55,-382.49 710.51,-370.96"/>
<polygon fill="midnightblue" stroke="midnightblue" points="711.76,-367.68 701.23,-366.51 708.73,-373.99 711.76,-367.68"/>
</g>
<!-- Node37 -->
<g id="node37" class="node">
<title>Node37</title>
<g id="a_node37"><a xlink:title=" ">
<polygon fill="white" stroke="#bfbfbf" points="753.5,-347.5 753.5,-366.5 797.5,-366.5 797.5,-347.5 753.5,-347.5"/>
<text text-anchor="middle" x="775.5" y="-354.5" font-family="Helvetica,sans-Serif" font-size="10.00">mpi.h</text>
</a>
</g>
</g>
<!-- Node29&#45;&gt;Node37 -->
<g id="edge50" class="edge">
<title>Node29&#45;&gt;Node37</title>
<path fill="none" stroke="midnightblue" d="M802.92,-408.98C798.26,-400.32 790.91,-386.65 784.99,-375.65"/>
<polygon fill="midnightblue" stroke="midnightblue" points="787.9,-373.66 780.08,-366.51 781.73,-376.97 787.9,-373.66"/>
</g>
<!-- Node33&#45;&gt;Node4 -->
<g id="edge43" class="edge">
<title>Node33&#45;&gt;Node4</title>
<path fill="none" stroke="midnightblue" d="M931.59,-347.26C926.74,-338.35 919.37,-324.04 914.5,-311 891.5,-249.39 923.06,-214.44 876.5,-168 867.57,-159.09 799.66,-143.08 752.16,-132.76"/>
<polygon fill="midnightblue" stroke="midnightblue" points="752.87,-129.33 742.36,-130.64 751.4,-136.17 752.87,-129.33"/>
</g>
<!-- Node33&#45;&gt;Node31 -->
<g id="edge42" class="edge">
<title>Node33&#45;&gt;Node31</title>
<path fill="none" stroke="midnightblue" d="M962.17,-347.44C989.42,-338.36 1032.68,-323.94 1063.15,-313.78"/>
<polygon fill="midnightblue" stroke="midnightblue" points="1064.57,-317 1072.95,-310.52 1062.36,-310.36 1064.57,-317"/>
</g>
<!-- Node34 -->
<g id="node34" class="node">
<title>Node34</title>
<g id="a_node34"><a xlink:href="LogMacros_8hpp.html" target="_top" xlink:title=" ">
<polygon fill="white" stroke="black" points="923.5,-291.5 923.5,-310.5 1013.5,-310.5 1013.5,-291.5 923.5,-291.5"/>
<text text-anchor="middle" x="968.5" y="-298.5" font-family="Helvetica,sans-Serif" font-size="10.00">LogMacros.hpp</text>
</a>
</g>
</g>
<!-- Node33&#45;&gt;Node34 -->
<g id="edge44" class="edge">
<title>Node33&#45;&gt;Node34</title>
<path fill="none" stroke="midnightblue" d="M941.78,-347.08C946.21,-339.61 952.66,-328.72 958.12,-319.52"/>
<polygon fill="midnightblue" stroke="midnightblue" points="961.23,-321.14 963.31,-310.75 955.21,-317.57 961.23,-321.14"/>
</g>
<!-- Node34&#45;&gt;Node5 -->
<g id="edge45" class="edge">
<title>Node34&#45;&gt;Node5</title>
<path fill="none" stroke="midnightblue" d="M968.12,-291.32C967.32,-272.76 965.42,-228.84 964.32,-203.47"/>
<polygon fill="midnightblue" stroke="midnightblue" points="967.81,-203.12 963.88,-193.28 960.82,-203.42 967.81,-203.12"/>
</g>
<!-- Node34&#45;&gt;Node25 -->
<g id="edge46" class="edge">
<title>Node34&#45;&gt;Node25</title>
<path fill="none" stroke="midnightblue" d="M923.37,-294.17C852.2,-284.98 713.07,-267 626.35,-255.8"/>
<polygon fill="midnightblue" stroke="midnightblue" points="626.67,-252.31 616.31,-254.5 625.78,-259.25 626.67,-252.31"/>
</g>
<!-- Node35 -->
<g id="node35" class="node">
<title>Node35</title>
<g id="a_node35"><a xlink:href="Tracer_8hpp.html" target="_top" xlink:title=" ">
<polygon fill="white" stroke="black" points="990,-235.5 990,-254.5 1095,-254.5 1095,-235.5 990,-235.5"/>
<text text-anchor="middle" x="1042.5" y="-242.5" font-family="Helvetica,sans-Serif" font-size="10.00">logging/Tracer.hpp</text>
</a>
</g>
</g>
<!-- Node34&#45;&gt;Node35 -->
<g id="edge47" class="edge">
<title>Node34&#45;&gt;Node35</title>
<path fill="none" stroke="midnightblue" d="M980.39,-291.32C991.65,-283.11 1008.79,-270.6 1022.21,-260.81"/>
<polygon fill="midnightblue" stroke="midnightblue" points="1024.38,-263.56 1030.39,-254.83 1020.25,-257.9 1024.38,-263.56"/>
</g>
<!-- Node35&#45;&gt;Node33 -->
<g id="edge48" class="edge">
<title>Node35&#45;&gt;Node33</title>
<path fill="none" stroke="midnightblue" d="M1041.94,-254.57C1040.64,-268.02 1036.39,-294.3 1022.5,-311 1010.16,-325.84 991.65,-336.41 974.96,-343.56"/>
<polygon fill="midnightblue" stroke="midnightblue" points="973.39,-340.41 965.4,-347.38 975.99,-346.91 973.39,-340.41"/>
</g>
<!-- Node38&#45;&gt;Node6 -->
<g id="edge52" class="edge">
<title>Node38&#45;&gt;Node6</title>
<path fill="none" stroke="midnightblue" d="M109.71,-291.27C112.74,-270.02 121.23,-213.92 132.5,-168 134.7,-159.05 137.67,-149.26 140.31,-141.11"/>
<polygon fill="midnightblue" stroke="midnightblue" points="143.66,-142.13 143.5,-131.54 137.02,-139.92 143.66,-142.13"/>
</g>
</g>
</svg>
