<?xml version="1.0" encoding="UTF-8" standalone="no"?>
<!DOCTYPE svg PUBLIC "-//W3C//DTD SVG 1.1//EN"
 "http://www.w3.org/Graphics/SVG/1.1/DTD/svg11.dtd">
<!-- Generated by graphviz version 2.43.0 (0)
 -->
<!-- Title: src/math/barycenter.cpp Pages: 1 -->
<!--zoomable 722 -->
<svg id="main" version="1.1" xmlns="http://www.w3.org/2000/svg" xmlns:xlink="http://www.w3.org/1999/xlink" xml:space="preserve" onload="init(evt)">
<style type="text/css"><![CDATA[
.edge:hover path { stroke: red; }
.edge:hover polygon { stroke: red; fill: red; }
]]></style>
<script type="text/javascript"><![CDATA[
var edges = document.getElementsByTagName('g');
if (edges && edges.length) {
  for (var i=0;i<edges.length;i++) {
    if (edges[i].id.substr(0,4)=='edge') {
      edges[i].setAttribute('class','edge');
    }
  }
}
]]></script>
        <defs>
                <circle id="rim" cx="0" cy="0" r="7"/>
                <circle id="rim2" cx="0" cy="0" r="3.5"/>
                <g id="zoomPlus">
                        <use xlink:href="#rim" fill="#404040">
                                <set attributeName="fill" to="#808080" begin="zoomplus.mouseover" end="zoomplus.mouseout"/>
                        </use>
                        <path d="M-4,0h8M0,-4v8" fill="none" stroke="white" stroke-width="1.5" pointer-events="none"/>
                </g>
                <g id="zoomMin">
                        <use xlink:href="#rim" fill="#404040">
                                <set attributeName="fill" to="#808080" begin="zoomminus.mouseover" end="zoomminus.mouseout"/>
                        </use>
                        <path d="M-4,0h8" fill="none" stroke="white" stroke-width="1.5" pointer-events="none"/>
                </g>
                <g id="dirArrow">
                        <path fill="none" stroke="white" stroke-width="1.5" d="M0,-3.0v7 M-2.5,-0.5L0,-3.0L2.5,-0.5"/>
                </g>
               <g id="resetDef">
                       <use xlink:href="#rim2" fill="#404040">
                               <set attributeName="fill" to="#808080" begin="reset.mouseover" end="reset.mouseout"/>
                       </use>
               </g>
        </defs>

<script type="text/javascript">
var viewWidth = 1759;
var viewHeight = 722;
var sectionId = 'dynsection-0';
</script>
<script xlink:href="svgpan.js"/>
<svg id="graph" class="graph">
<g id="viewport">
<title>src/math/barycenter.cpp</title>
<polygon fill="white" stroke="transparent" points="-4,4 -4,-718 1754.5,-718 1754.5,4 -4,4"/>
<!-- Node1 -->
<g id="node1" class="node">
<title>Node1</title>
<g id="a_node1"><a xlink:title=" ">
<polygon fill="#bfbfbf" stroke="black" points="1459,-694.5 1459,-713.5 1593,-713.5 1593,-694.5 1459,-694.5"/>
<text text-anchor="middle" x="1526" y="-701.5" font-family="Helvetica,sans-Serif" font-size="10.00">src/math/barycenter.cpp</text>
</a>
</g>
</g>
<!-- Node2 -->
<g id="node2" class="node">
<title>Node2</title>
<g id="a_node2"><a xlink:href="barycenter_8hpp.html" target="_top" xlink:title=" ">
<polygon fill="white" stroke="black" points="1371,-638.5 1371,-657.5 1489,-657.5 1489,-638.5 1371,-638.5"/>
<text text-anchor="middle" x="1430" y="-645.5" font-family="Helvetica,sans-Serif" font-size="10.00">math/barycenter.hpp</text>
</a>
</g>
</g>
<!-- Node1&#45;&gt;Node2 -->
<g id="edge1" class="edge">
<title>Node1&#45;&gt;Node2</title>
<path fill="none" stroke="midnightblue" d="M1510.58,-694.32C1495.46,-685.82 1472.18,-672.73 1454.53,-662.8"/>
<polygon fill="midnightblue" stroke="midnightblue" points="1455.82,-659.51 1445.39,-657.65 1452.39,-665.61 1455.82,-659.51"/>
</g>
<!-- Node3 -->
<g id="node3" class="node">
<title>Node3</title>
<g id="a_node3"><a xlink:title=" ">
<polygon fill="white" stroke="#bfbfbf" points="118.5,-0.5 118.5,-19.5 187.5,-19.5 187.5,-0.5 118.5,-0.5"/>
<text text-anchor="middle" x="153" y="-7.5" font-family="Helvetica,sans-Serif" font-size="10.00">Eigen/Core</text>
</a>
</g>
</g>
<!-- Node1&#45;&gt;Node3 -->
<g id="edge64" class="edge">
<title>Node1&#45;&gt;Node3</title>
<path fill="none" stroke="midnightblue" d="M1531.28,-694.23C1541.73,-676.04 1564,-632.6 1564,-593 1564,-593 1564,-593 1564,-121 1564,-102.79 1921.97,-134.77 1256,-56 1045.83,-31.14 377.38,-15.68 197.78,-11.91"/>
<polygon fill="midnightblue" stroke="midnightblue" points="197.71,-8.4 187.64,-11.69 197.57,-15.4 197.71,-8.4"/>
</g>
<!-- Node5 -->
<g id="node5" class="node">
<title>Node5</title>
<g id="a_node5"><a xlink:href="geometry_8hpp.html" target="_top" xlink:title=" ">
<polygon fill="white" stroke="black" points="663,-582.5 663,-601.5 775,-601.5 775,-582.5 663,-582.5"/>
<text text-anchor="middle" x="719" y="-589.5" font-family="Helvetica,sans-Serif" font-size="10.00">math/geometry.hpp</text>
</a>
</g>
</g>
<!-- Node1&#45;&gt;Node5 -->
<g id="edge68" class="edge">
<title>Node1&#45;&gt;Node5</title>
<path fill="none" stroke="midnightblue" d="M1463.35,-694.46C1314.02,-674.11 938.21,-622.88 785.28,-602.03"/>
<polygon fill="midnightblue" stroke="midnightblue" points="785.48,-598.53 775.1,-600.65 784.54,-605.47 785.48,-598.53"/>
</g>
<!-- Node7 -->
<g id="node7" class="node">
<title>Node7</title>
<g id="a_node7"><a xlink:href="differences_8hpp.html" target="_top" xlink:title=" ">
<polygon fill="white" stroke="black" points="615,-526.5 615,-545.5 735,-545.5 735,-526.5 615,-526.5"/>
<text text-anchor="middle" x="675" y="-533.5" font-family="Helvetica,sans-Serif" font-size="10.00">math/differences.hpp</text>
</a>
</g>
</g>
<!-- Node1&#45;&gt;Node7 -->
<g id="edge67" class="edge">
<title>Node1&#45;&gt;Node7</title>
<path fill="none" stroke="midnightblue" d="M1482.33,-694.48C1339.31,-666.58 885.13,-577.99 728.62,-547.46"/>
<polygon fill="midnightblue" stroke="midnightblue" points="729.23,-544.01 718.75,-545.53 727.89,-550.88 729.23,-544.01"/>
</g>
<!-- Node8 -->
<g id="node8" class="node">
<title>Node8</title>
<g id="a_node8"><a xlink:href="assertion_8hpp.html" target="_top" xlink:title=" ">
<polygon fill="white" stroke="black" points="665.5,-470.5 665.5,-489.5 772.5,-489.5 772.5,-470.5 665.5,-470.5"/>
<text text-anchor="middle" x="719" y="-477.5" font-family="Helvetica,sans-Serif" font-size="10.00">utils/assertion.hpp</text>
</a>
</g>
</g>
<!-- Node1&#45;&gt;Node8 -->
<g id="edge69" class="edge">
<title>Node1&#45;&gt;Node8</title>
<path fill="none" stroke="midnightblue" d="M1524.85,-694.44C1521.31,-671.71 1508.3,-609.67 1469,-582 1358.75,-504.38 943.2,-486.3 782.75,-482.18"/>
<polygon fill="midnightblue" stroke="midnightblue" points="782.64,-478.68 772.56,-481.93 782.47,-485.68 782.64,-478.68"/>
</g>
<!-- Node45 -->
<g id="node45" class="node">
<title>Node45</title>
<g id="a_node45"><a xlink:title=" ">
<polygon fill="white" stroke="#bfbfbf" points="1592.5,-638.5 1592.5,-657.5 1687.5,-657.5 1687.5,-638.5 1592.5,-638.5"/>
<text text-anchor="middle" x="1640" y="-645.5" font-family="Helvetica,sans-Serif" font-size="10.00">Eigen/Geometry</text>
</a>
</g>
</g>
<!-- Node1&#45;&gt;Node45 -->
<g id="edge65" class="edge">
<title>Node1&#45;&gt;Node45</title>
<path fill="none" stroke="midnightblue" d="M1544.06,-694.44C1562.57,-685.68 1591.58,-671.94 1612.86,-661.86"/>
<polygon fill="midnightblue" stroke="midnightblue" points="1614.48,-664.96 1622.02,-657.52 1611.49,-658.63 1614.48,-664.96"/>
</g>
<!-- Node46 -->
<g id="node46" class="node">
<title>Node46</title>
<g id="a_node46"><a xlink:title=" ">
<polygon fill="white" stroke="#bfbfbf" points="1705.5,-638.5 1705.5,-657.5 1750.5,-657.5 1750.5,-638.5 1705.5,-638.5"/>
<text text-anchor="middle" x="1728" y="-645.5" font-family="Helvetica,sans-Serif" font-size="10.00">utility</text>
</a>
</g>
</g>
<!-- Node1&#45;&gt;Node46 -->
<g id="edge66" class="edge">
<title>Node1&#45;&gt;Node46</title>
<path fill="none" stroke="midnightblue" d="M1559.49,-694.45C1591.99,-686.1 1642.95,-672.85 1695.5,-658.37"/>
<polygon fill="midnightblue" stroke="midnightblue" points="1696.63,-661.69 1705.33,-655.65 1694.76,-654.94 1696.63,-661.69"/>
</g>
<!-- Node2&#45;&gt;Node3 -->
<g id="edge2" class="edge">
<title>Node2&#45;&gt;Node3</title>
<path fill="none" stroke="midnightblue" d="M1439.85,-638.34C1448.79,-629.93 1461.67,-616.37 1469,-602 1519.61,-502.8 1526,-469.36 1526,-358 1526,-358 1526,-358 1526,-121 1526,-52.78 434.6,-18.77 197.93,-12.19"/>
<polygon fill="midnightblue" stroke="midnightblue" points="197.72,-8.69 187.63,-11.91 197.53,-15.68 197.72,-8.69"/>
</g>
<!-- Node4 -->
<g id="node4" class="node">
<title>Node4</title>
<g id="a_node4"><a xlink:title=" ">
<polygon fill="white" stroke="#bfbfbf" points="1382.5,-582.5 1382.5,-601.5 1459.5,-601.5 1459.5,-582.5 1382.5,-582.5"/>
<text text-anchor="middle" x="1421" y="-589.5" font-family="Helvetica,sans-Serif" font-size="10.00">Eigen/Dense</text>
</a>
</g>
</g>
<!-- Node2&#45;&gt;Node4 -->
<g id="edge3" class="edge">
<title>Node2&#45;&gt;Node4</title>
<path fill="none" stroke="midnightblue" d="M1428.51,-638.08C1427.32,-630.93 1425.61,-620.64 1424.12,-611.69"/>
<polygon fill="midnightblue" stroke="midnightblue" points="1427.55,-611.04 1422.46,-601.75 1420.65,-612.19 1427.55,-611.04"/>
</g>
<!-- Node2&#45;&gt;Node5 -->
<g id="edge4" class="edge">
<title>Node2&#45;&gt;Node5</title>
<path fill="none" stroke="midnightblue" d="M1370.91,-642.51C1239.41,-632.52 923.34,-608.52 785.34,-598.04"/>
<polygon fill="midnightblue" stroke="midnightblue" points="785.56,-594.55 775.32,-597.28 785.03,-601.52 785.56,-594.55"/>
</g>
<!-- Node5&#45;&gt;Node3 -->
<g id="edge5" class="edge">
<title>Node5&#45;&gt;Node3</title>
<path fill="none" stroke="midnightblue" d="M662.71,-589.37C536.01,-585.28 231.83,-572.88 133,-546 69.51,-528.73 0,-546.79 0,-481 0,-481 0,-481 0,-121 0,-67.05 63.48,-36.96 108.66,-22.38"/>
<polygon fill="midnightblue" stroke="midnightblue" points="109.76,-25.71 118.28,-19.42 107.69,-19.02 109.76,-25.71"/>
</g>
<!-- Node6 -->
<g id="node6" class="node">
<title>Node6</title>
<g id="a_node6"><a xlink:title=" ">
<polygon fill="white" stroke="#bfbfbf" points="513,-56.5 513,-75.5 555,-75.5 555,-56.5 513,-56.5"/>
<text text-anchor="middle" x="534" y="-63.5" font-family="Helvetica,sans-Serif" font-size="10.00">array</text>
</a>
</g>
</g>
<!-- Node5&#45;&gt;Node6 -->
<g id="edge6" class="edge">
<title>Node5&#45;&gt;Node6</title>
<path fill="none" stroke="midnightblue" d="M662.98,-587.84C500.08,-577.9 38,-544.14 38,-481 38,-481 38,-481 38,-356 38,-246.57 103.54,-224.93 197,-168 258.14,-130.76 285.32,-152.19 354,-132 407.47,-116.28 468.14,-93.26 503.63,-79.25"/>
<polygon fill="midnightblue" stroke="midnightblue" points="504.94,-82.49 512.94,-75.55 502.35,-75.99 504.94,-82.49"/>
</g>
<!-- Node5&#45;&gt;Node7 -->
<g id="edge7" class="edge">
<title>Node5&#45;&gt;Node7</title>
<path fill="none" stroke="midnightblue" d="M711.73,-582.08C705.46,-574.38 696.21,-563.03 688.57,-553.65"/>
<polygon fill="midnightblue" stroke="midnightblue" points="691.16,-551.29 682.13,-545.75 685.73,-555.71 691.16,-551.29"/>
</g>
<!-- Node5&#45;&gt;Node8 -->
<g id="edge63" class="edge">
<title>Node5&#45;&gt;Node8</title>
<path fill="none" stroke="midnightblue" d="M726.05,-582.38C735.2,-570.12 749.4,-546.83 744,-526 741.45,-516.18 736.25,-506.21 731.24,-498.17"/>
<polygon fill="midnightblue" stroke="midnightblue" points="734.08,-496.11 725.63,-489.73 728.25,-499.99 734.08,-496.11"/>
</g>
<!-- Node7&#45;&gt;Node3 -->
<g id="edge8" class="edge">
<title>Node7&#45;&gt;Node3</title>
<path fill="none" stroke="midnightblue" d="M614.82,-529.69C462.92,-515.49 76,-473.98 76,-419.5 76,-419.5 76,-419.5 76,-121 76,-80.93 110.71,-45.08 133.53,-25.84"/>
<polygon fill="midnightblue" stroke="midnightblue" points="135.74,-28.55 141.31,-19.53 131.33,-23.11 135.74,-28.55"/>
</g>
<!-- Node7&#45;&gt;Node8 -->
<g id="edge9" class="edge">
<title>Node7&#45;&gt;Node8</title>
<path fill="none" stroke="midnightblue" d="M682.27,-526.08C688.54,-518.38 697.79,-507.03 705.43,-497.65"/>
<polygon fill="midnightblue" stroke="midnightblue" points="708.27,-499.71 711.87,-489.75 702.84,-495.29 708.27,-499.71"/>
</g>
<!-- Node9 -->
<g id="node9" class="node">
<title>Node9</title>
<g id="a_node9"><a xlink:title=" ">
<polygon fill="white" stroke="#bfbfbf" points="1448.5,-409 1448.5,-428 1497.5,-428 1497.5,-409 1448.5,-409"/>
<text text-anchor="middle" x="1473" y="-416" font-family="Helvetica,sans-Serif" font-size="10.00">cstdlib</text>
</a>
</g>
</g>
<!-- Node8&#45;&gt;Node9 -->
<g id="edge10" class="edge">
<title>Node8&#45;&gt;Node9</title>
<path fill="none" stroke="midnightblue" d="M772.67,-477.65C916.43,-473.73 1307.78,-460.83 1434,-434 1437.25,-433.31 1440.59,-432.4 1443.89,-431.37"/>
<polygon fill="midnightblue" stroke="midnightblue" points="1445.2,-434.62 1453.49,-428.03 1442.9,-428.01 1445.2,-434.62"/>
</g>
<!-- Node10 -->
<g id="node10" class="node">
<title>Node10</title>
<g id="a_node10"><a xlink:title=" ">
<polygon fill="white" stroke="#bfbfbf" points="104,-409 104,-428 164,-428 164,-409 104,-409"/>
<text text-anchor="middle" x="134" y="-416" font-family="Helvetica,sans-Serif" font-size="10.00">iostream</text>
</a>
</g>
</g>
<!-- Node8&#45;&gt;Node10 -->
<g id="edge11" class="edge">
<title>Node8&#45;&gt;Node10</title>
<path fill="none" stroke="midnightblue" d="M665.18,-479.41C566.41,-479.09 350.09,-473.43 173,-434 169.93,-433.32 166.77,-432.44 163.64,-431.47"/>
<polygon fill="midnightblue" stroke="midnightblue" points="164.52,-428.07 153.92,-428.1 162.23,-434.68 164.52,-428.07"/>
</g>
<!-- Node11 -->
<g id="node11" class="node">
<title>Node11</title>
<g id="a_node11"><a xlink:title=" ">
<polygon fill="white" stroke="#bfbfbf" points="950.5,-112.5 950.5,-131.5 1023.5,-131.5 1023.5,-112.5 950.5,-112.5"/>
<text text-anchor="middle" x="987" y="-119.5" font-family="Helvetica,sans-Serif" font-size="10.00">string_view</text>
</a>
</g>
</g>
<!-- Node8&#45;&gt;Node11 -->
<g id="edge12" class="edge">
<title>Node8&#45;&gt;Node11</title>
<path fill="none" stroke="midnightblue" d="M757.63,-470.36C779,-463.73 804.5,-452.48 821,-434 882.69,-364.89 820.8,-303.65 883,-235 910.55,-204.6 941.33,-230.18 968,-199 981.65,-183.04 985.74,-158.7 986.85,-141.88"/>
<polygon fill="midnightblue" stroke="midnightblue" points="990.35,-141.75 987.21,-131.63 983.36,-141.5 990.35,-141.75"/>
</g>
<!-- Node12 -->
<g id="node12" class="node">
<title>Node12</title>
<g id="a_node12"><a xlink:href="fmt_8hpp.html" target="_top" xlink:title=" ">
<polygon fill="white" stroke="black" points="334.5,-174 334.5,-193 413.5,-193 413.5,-174 334.5,-174"/>
<text text-anchor="middle" x="374" y="-181" font-family="Helvetica,sans-Serif" font-size="10.00">utils/fmt.hpp</text>
</a>
</g>
</g>
<!-- Node8&#45;&gt;Node12 -->
<g id="edge13" class="edge">
<title>Node8&#45;&gt;Node12</title>
<path fill="none" stroke="midnightblue" d="M665.31,-472.96C637.01,-467.21 603.58,-455.97 581,-434 513.69,-368.52 575.97,-301.83 510,-235 502.69,-227.6 448.16,-208.71 410.41,-196.25"/>
<polygon fill="midnightblue" stroke="midnightblue" points="411.33,-192.87 400.74,-193.08 409.15,-199.52 411.33,-192.87"/>
</g>
<!-- Node25 -->
<g id="node25" class="node">
<title>Node25</title>
<g id="a_node25"><a xlink:title=" ">
<polygon fill="white" stroke="#bfbfbf" points="182.5,-409 182.5,-428 329.5,-428 329.5,-409 182.5,-409"/>
<text text-anchor="middle" x="256" y="-416" font-family="Helvetica,sans-Serif" font-size="10.00">boost/current_function.hpp</text>
</a>
</g>
</g>
<!-- Node8&#45;&gt;Node25 -->
<g id="edge32" class="edge">
<title>Node8&#45;&gt;Node25</title>
<path fill="none" stroke="midnightblue" d="M665.24,-473.63C591.34,-466.03 454.3,-451.14 338,-434 329.37,-432.73 320.26,-431.25 311.37,-429.74"/>
<polygon fill="midnightblue" stroke="midnightblue" points="311.92,-426.28 301.47,-428.02 310.72,-433.18 311.92,-426.28"/>
</g>
<!-- Node26 -->
<g id="node26" class="node">
<title>Node26</title>
<g id="a_node26"><a xlink:title=" ">
<polygon fill="white" stroke="#bfbfbf" points="347.5,-403.5 347.5,-433.5 482.5,-433.5 482.5,-403.5 347.5,-403.5"/>
<text text-anchor="start" x="355.5" y="-421.5" font-family="Helvetica,sans-Serif" font-size="10.00">boost/preprocessor</text>
<text text-anchor="middle" x="415" y="-410.5" font-family="Helvetica,sans-Serif" font-size="10.00">/comparison/greater.hpp</text>
</a>
</g>
</g>
<!-- Node8&#45;&gt;Node26 -->
<g id="edge33" class="edge">
<title>Node8&#45;&gt;Node26</title>
<path fill="none" stroke="midnightblue" d="M675.44,-470.48C627.8,-461.15 550.49,-446.02 492.45,-434.66"/>
<polygon fill="midnightblue" stroke="midnightblue" points="493.07,-431.21 482.58,-432.73 491.72,-438.08 493.07,-431.21"/>
</g>
<!-- Node27 -->
<g id="node27" class="node">
<title>Node27</title>
<g id="a_node27"><a xlink:title=" ">
<polygon fill="white" stroke="#bfbfbf" points="206,-168.5 206,-198.5 316,-198.5 316,-168.5 206,-168.5"/>
<text text-anchor="start" x="214" y="-186.5" font-family="Helvetica,sans-Serif" font-size="10.00">boost/preprocessor</text>
<text text-anchor="middle" x="261" y="-175.5" font-family="Helvetica,sans-Serif" font-size="10.00">/control/if.hpp</text>
</a>
</g>
</g>
<!-- Node8&#45;&gt;Node27 -->
<g id="edge34" class="edge">
<title>Node8&#45;&gt;Node27</title>
<path fill="none" stroke="midnightblue" d="M665.48,-470.44C632.31,-463.68 589.59,-452.26 555,-434 436.64,-371.51 323.83,-254.45 280.1,-206.17"/>
<polygon fill="midnightblue" stroke="midnightblue" points="282.5,-203.6 273.21,-198.5 277.29,-208.28 282.5,-203.6"/>
</g>
<!-- Node28 -->
<g id="node28" class="node">
<title>Node28</title>
<g id="a_node28"><a xlink:title=" ">
<polygon fill="white" stroke="#bfbfbf" points="432,-168.5 432,-198.5 542,-198.5 542,-168.5 432,-168.5"/>
<text text-anchor="start" x="440" y="-186.5" font-family="Helvetica,sans-Serif" font-size="10.00">boost/preprocessor</text>
<text text-anchor="middle" x="487" y="-175.5" font-family="Helvetica,sans-Serif" font-size="10.00">/stringize.hpp</text>
</a>
</g>
</g>
<!-- Node8&#45;&gt;Node28 -->
<g id="edge35" class="edge">
<title>Node8&#45;&gt;Node28</title>
<path fill="none" stroke="midnightblue" d="M672.21,-470.43C649.37,-464 623.19,-452.91 606,-434 544.04,-365.83 598.6,-311.99 548,-235 540.24,-223.19 528.87,-212.72 518.05,-204.42"/>
<polygon fill="midnightblue" stroke="midnightblue" points="520.09,-201.58 509.95,-198.51 515.97,-207.23 520.09,-201.58"/>
</g>
<!-- Node29 -->
<g id="node29" class="node">
<title>Node29</title>
<g id="a_node29"><a xlink:title=" ">
<polygon fill="white" stroke="#bfbfbf" points="615,-403.5 615,-433.5 725,-433.5 725,-403.5 615,-403.5"/>
<text text-anchor="start" x="623" y="-421.5" font-family="Helvetica,sans-Serif" font-size="10.00">boost/preprocessor</text>
<text text-anchor="middle" x="670" y="-410.5" font-family="Helvetica,sans-Serif" font-size="10.00">/variadic/size.hpp</text>
</a>
</g>
</g>
<!-- Node8&#45;&gt;Node29 -->
<g id="edge36" class="edge">
<title>Node8&#45;&gt;Node29</title>
<path fill="none" stroke="midnightblue" d="M711.98,-470.48C705.72,-462.87 696.27,-451.4 687.92,-441.26"/>
<polygon fill="midnightblue" stroke="midnightblue" points="690.61,-439.02 681.55,-433.52 685.2,-443.47 690.61,-439.02"/>
</g>
<!-- Node30 -->
<g id="node30" class="node">
<title>Node30</title>
<g id="a_node30"><a xlink:href="ArgumentFormatter_8hpp.html" target="_top" xlink:title=" ">
<polygon fill="white" stroke="black" points="638.5,-235.5 638.5,-254.5 795.5,-254.5 795.5,-235.5 638.5,-235.5"/>
<text text-anchor="middle" x="717" y="-242.5" font-family="Helvetica,sans-Serif" font-size="10.00">utils/ArgumentFormatter.hpp</text>
</a>
</g>
</g>
<!-- Node8&#45;&gt;Node30 -->
<g id="edge37" class="edge">
<title>Node8&#45;&gt;Node30</title>
<path fill="none" stroke="midnightblue" d="M752.8,-470.39C771.39,-463.74 792.89,-452.45 804,-434 811.11,-422.2 808.31,-416.09 804,-403 788.09,-354.71 758.59,-356.55 736,-311 728.65,-296.19 723.64,-278.04 720.62,-264.68"/>
<polygon fill="midnightblue" stroke="midnightblue" points="724.02,-263.84 718.54,-254.77 717.17,-265.28 724.02,-263.84"/>
</g>
<!-- Node34 -->
<g id="node34" class="node">
<title>Node34</title>
<g id="a_node34"><a xlink:href="Parallel_8hpp.html" target="_top" xlink:title=" ">
<polygon fill="white" stroke="black" points="1100,-409 1100,-428 1198,-428 1198,-409 1100,-409"/>
<text text-anchor="middle" x="1149" y="-416" font-family="Helvetica,sans-Serif" font-size="10.00">utils/Parallel.hpp</text>
</a>
</g>
</g>
<!-- Node8&#45;&gt;Node34 -->
<g id="edge44" class="edge">
<title>Node8&#45;&gt;Node34</title>
<path fill="none" stroke="midnightblue" d="M772.59,-471.58C853.31,-460.42 1005.57,-439.35 1089.58,-427.72"/>
<polygon fill="midnightblue" stroke="midnightblue" points="1090.3,-431.16 1099.73,-426.32 1089.34,-424.22 1090.3,-431.16"/>
</g>
<!-- Node43 -->
<g id="node43" class="node">
<title>Node43</title>
<g id="a_node43"><a xlink:href="stacktrace_8hpp.html" target="_top" xlink:title=" ">
<polygon fill="white" stroke="black" points="1384.5,-291.5 1384.5,-310.5 1497.5,-310.5 1497.5,-291.5 1384.5,-291.5"/>
<text text-anchor="middle" x="1441" y="-298.5" font-family="Helvetica,sans-Serif" font-size="10.00">utils/stacktrace.hpp</text>
</a>
</g>
</g>
<!-- Node8&#45;&gt;Node43 -->
<g id="edge60" class="edge">
<title>Node8&#45;&gt;Node43</title>
<path fill="none" stroke="midnightblue" d="M772.53,-477.33C862.82,-473.79 1050.83,-463.29 1207,-434 1313.33,-414.06 1375.88,-453.38 1441,-367 1450.86,-353.92 1449.54,-334.77 1446.54,-320.64"/>
<polygon fill="midnightblue" stroke="midnightblue" points="1449.84,-319.41 1443.97,-310.6 1443.06,-321.15 1449.84,-319.41"/>
</g>
<!-- Node44 -->
<g id="node44" class="node">
<title>Node44</title>
<g id="a_node44"><a xlink:title=" ">
<polygon fill="white" stroke="#bfbfbf" points="743,-409 743,-428 795,-428 795,-409 743,-409"/>
<text text-anchor="middle" x="769" y="-416" font-family="Helvetica,sans-Serif" font-size="10.00">cassert</text>
</a>
</g>
</g>
<!-- Node8&#45;&gt;Node44 -->
<g id="edge62" class="edge">
<title>Node8&#45;&gt;Node44</title>
<path fill="none" stroke="midnightblue" d="M726.16,-470.48C733.74,-461.46 745.87,-447.02 755.29,-435.81"/>
<polygon fill="midnightblue" stroke="midnightblue" points="758.1,-437.92 761.85,-428.01 752.74,-433.41 758.1,-437.92"/>
</g>
<!-- Node12&#45;&gt;Node11 -->
<g id="edge15" class="edge">
<title>Node12&#45;&gt;Node11</title>
<path fill="none" stroke="midnightblue" d="M399.19,-173.96C406.76,-171.68 415.15,-169.46 423,-168 612.62,-132.78 843.15,-125.11 940.29,-123.45"/>
<polygon fill="midnightblue" stroke="midnightblue" points="940.42,-126.95 950.37,-123.3 940.31,-119.95 940.42,-126.95"/>
</g>
<!-- Node13 -->
<g id="node13" class="node">
<title>Node13</title>
<g id="a_node13"><a xlink:title=" ">
<polygon fill="white" stroke="#bfbfbf" points="1334,-112.5 1334,-131.5 1378,-131.5 1378,-112.5 1334,-112.5"/>
<text text-anchor="middle" x="1356" y="-119.5" font-family="Helvetica,sans-Serif" font-size="10.00">string</text>
</a>
</g>
</g>
<!-- Node12&#45;&gt;Node13 -->
<g id="edge14" class="edge">
<title>Node12&#45;&gt;Node13</title>
<path fill="none" stroke="midnightblue" d="M398.66,-173.95C406.36,-171.62 414.95,-169.36 423,-168 513.17,-152.71 1168.9,-129.42 1323.44,-124.11"/>
<polygon fill="midnightblue" stroke="midnightblue" points="1323.81,-127.6 1333.69,-123.76 1323.57,-120.6 1323.81,-127.6"/>
</g>
<!-- Node14 -->
<g id="node14" class="node">
<title>Node14</title>
<g id="a_node14"><a xlink:title=" ">
<polygon fill="white" stroke="#bfbfbf" points="416.5,-56.5 416.5,-75.5 495.5,-75.5 495.5,-56.5 416.5,-56.5"/>
<text text-anchor="middle" x="456" y="-63.5" font-family="Helvetica,sans-Serif" font-size="10.00">fmt/format.h</text>
</a>
</g>
</g>
<!-- Node12&#45;&gt;Node14 -->
<g id="edge16" class="edge">
<title>Node12&#45;&gt;Node14</title>
<path fill="none" stroke="midnightblue" d="M380.16,-173.82C393.7,-154.76 426.22,-108.95 443.96,-83.96"/>
<polygon fill="midnightblue" stroke="midnightblue" points="446.83,-85.96 449.77,-75.78 441.12,-81.91 446.83,-85.96"/>
</g>
<!-- Node15 -->
<g id="node15" class="node">
<title>Node15</title>
<g id="a_node15"><a xlink:title=" ">
<polygon fill="white" stroke="#bfbfbf" points="627,-112.5 627,-131.5 713,-131.5 713,-112.5 627,-112.5"/>
<text text-anchor="middle" x="670" y="-119.5" font-family="Helvetica,sans-Serif" font-size="10.00">fmt/ostream.h</text>
</a>
</g>
</g>
<!-- Node12&#45;&gt;Node15 -->
<g id="edge17" class="edge">
<title>Node12&#45;&gt;Node15</title>
<path fill="none" stroke="midnightblue" d="M400.82,-174C407.98,-171.88 415.75,-169.73 423,-168 441.53,-163.58 549.89,-144.22 616.78,-132.38"/>
<polygon fill="midnightblue" stroke="midnightblue" points="617.5,-135.81 626.74,-130.62 616.28,-128.92 617.5,-135.81"/>
</g>
<!-- Node16 -->
<g id="node16" class="node">
<title>Node16</title>
<g id="a_node16"><a xlink:href="fmtEigen_8hpp.html" target="_top" xlink:title=" ">
<polygon fill="white" stroke="black" points="239,-112.5 239,-131.5 345,-131.5 345,-112.5 239,-112.5"/>
<text text-anchor="middle" x="292" y="-119.5" font-family="Helvetica,sans-Serif" font-size="10.00">utils/fmtEigen.hpp</text>
</a>
</g>
</g>
<!-- Node12&#45;&gt;Node16 -->
<g id="edge18" class="edge">
<title>Node12&#45;&gt;Node16</title>
<path fill="none" stroke="midnightblue" d="M362.25,-173.98C349.22,-164.52 327.96,-149.1 312.24,-137.69"/>
<polygon fill="midnightblue" stroke="midnightblue" points="313.88,-134.55 303.73,-131.51 309.77,-140.21 313.88,-134.55"/>
</g>
<!-- Node20 -->
<g id="node20" class="node">
<title>Node20</title>
<g id="a_node20"><a xlink:href="fmtSTL_8hpp.html" target="_top" xlink:title=" ">
<polygon fill="white" stroke="black" points="513,-112.5 513,-131.5 609,-131.5 609,-112.5 513,-112.5"/>
<text text-anchor="middle" x="561" y="-119.5" font-family="Helvetica,sans-Serif" font-size="10.00">utils/fmtSTL.hpp</text>
</a>
</g>
</g>
<!-- Node12&#45;&gt;Node20 -->
<g id="edge25" class="edge">
<title>Node12&#45;&gt;Node20</title>
<path fill="none" stroke="midnightblue" d="M400.79,-173.98C433.29,-163.64 488.21,-146.16 524.54,-134.6"/>
<polygon fill="midnightblue" stroke="midnightblue" points="525.79,-137.88 534.26,-131.51 523.67,-131.21 525.79,-137.88"/>
</g>
<!-- Node16&#45;&gt;Node3 -->
<g id="edge19" class="edge">
<title>Node16&#45;&gt;Node3</title>
<path fill="none" stroke="midnightblue" d="M238.65,-112.92C197.64,-105.49 145.89,-93.05 133,-76 122.37,-61.94 130.94,-42.17 139.93,-28.14"/>
<polygon fill="midnightblue" stroke="midnightblue" points="142.85,-30.06 145.7,-19.86 137.11,-26.06 142.85,-30.06"/>
</g>
<!-- Node16&#45;&gt;Node14 -->
<g id="edge21" class="edge">
<title>Node16&#45;&gt;Node14</title>
<path fill="none" stroke="midnightblue" d="M317.99,-112.44C345.7,-103.32 389.75,-88.81 420.62,-78.65"/>
<polygon fill="midnightblue" stroke="midnightblue" points="421.73,-81.97 430.14,-75.52 419.54,-75.32 421.73,-81.97"/>
</g>
<!-- Node17 -->
<g id="node17" class="node">
<title>Node17</title>
<g id="a_node17"><a xlink:title=" ">
<polygon fill="white" stroke="#bfbfbf" points="260,-56.5 260,-75.5 324,-75.5 324,-56.5 260,-56.5"/>
<text text-anchor="middle" x="292" y="-63.5" font-family="Helvetica,sans-Serif" font-size="10.00">algorithm</text>
</a>
</g>
</g>
<!-- Node16&#45;&gt;Node17 -->
<g id="edge20" class="edge">
<title>Node16&#45;&gt;Node17</title>
<path fill="none" stroke="midnightblue" d="M292,-112.08C292,-105.01 292,-94.86 292,-85.99"/>
<polygon fill="midnightblue" stroke="midnightblue" points="295.5,-85.75 292,-75.75 288.5,-85.75 295.5,-85.75"/>
</g>
<!-- Node18 -->
<g id="node18" class="node">
<title>Node18</title>
<g id="a_node18"><a xlink:title=" ">
<polygon fill="white" stroke="#bfbfbf" points="342,-56.5 342,-75.5 398,-75.5 398,-56.5 342,-56.5"/>
<text text-anchor="middle" x="370" y="-63.5" font-family="Helvetica,sans-Serif" font-size="10.00">sstream</text>
</a>
</g>
</g>
<!-- Node16&#45;&gt;Node18 -->
<g id="edge22" class="edge">
<title>Node16&#45;&gt;Node18</title>
<path fill="none" stroke="midnightblue" d="M304.53,-112.32C316.59,-103.98 335.03,-91.21 349.27,-81.35"/>
<polygon fill="midnightblue" stroke="midnightblue" points="351.27,-84.22 357.5,-75.65 347.28,-78.47 351.27,-84.22"/>
</g>
<!-- Node19 -->
<g id="node19" class="node">
<title>Node19</title>
<g id="a_node19"><a xlink:href="EigenIO_8hpp.html" target="_top" xlink:title=" ">
<polygon fill="white" stroke="black" points="142.5,-56.5 142.5,-75.5 241.5,-75.5 241.5,-56.5 142.5,-56.5"/>
<text text-anchor="middle" x="192" y="-63.5" font-family="Helvetica,sans-Serif" font-size="10.00">utils/EigenIO.hpp</text>
</a>
</g>
</g>
<!-- Node16&#45;&gt;Node19 -->
<g id="edge23" class="edge">
<title>Node16&#45;&gt;Node19</title>
<path fill="none" stroke="midnightblue" d="M275.93,-112.32C260.04,-103.74 235.49,-90.49 217.04,-80.52"/>
<polygon fill="midnightblue" stroke="midnightblue" points="218.49,-77.33 208.03,-75.65 215.16,-83.49 218.49,-77.33"/>
</g>
<!-- Node19&#45;&gt;Node3 -->
<g id="edge24" class="edge">
<title>Node19&#45;&gt;Node3</title>
<path fill="none" stroke="midnightblue" d="M185.56,-56.08C180.05,-48.46 171.97,-37.26 165.24,-27.94"/>
<polygon fill="midnightblue" stroke="midnightblue" points="168.01,-25.81 159.32,-19.75 162.34,-29.91 168.01,-25.81"/>
</g>
<!-- Node20&#45;&gt;Node6 -->
<g id="edge26" class="edge">
<title>Node20&#45;&gt;Node6</title>
<path fill="none" stroke="midnightblue" d="M556.54,-112.08C552.85,-104.69 547.48,-93.95 542.91,-84.81"/>
<polygon fill="midnightblue" stroke="midnightblue" points="545.98,-83.13 538.38,-75.75 539.72,-86.26 545.98,-83.13"/>
</g>
<!-- Node20&#45;&gt;Node14 -->
<g id="edge28" class="edge">
<title>Node20&#45;&gt;Node14</title>
<path fill="none" stroke="midnightblue" d="M544.13,-112.32C527.29,-103.66 501.19,-90.24 481.76,-80.25"/>
<polygon fill="midnightblue" stroke="midnightblue" points="483.32,-77.12 472.83,-75.65 480.12,-83.34 483.32,-77.12"/>
</g>
<!-- Node21 -->
<g id="node21" class="node">
<title>Node21</title>
<g id="a_node21"><a xlink:title=" ">
<polygon fill="white" stroke="#bfbfbf" points="623.5,-56.5 623.5,-75.5 670.5,-75.5 670.5,-56.5 623.5,-56.5"/>
<text text-anchor="middle" x="647" y="-63.5" font-family="Helvetica,sans-Serif" font-size="10.00">deque</text>
</a>
</g>
</g>
<!-- Node20&#45;&gt;Node21 -->
<g id="edge27" class="edge">
<title>Node20&#45;&gt;Node21</title>
<path fill="none" stroke="midnightblue" d="M574.82,-112.32C588.23,-103.9 608.82,-90.97 624.59,-81.07"/>
<polygon fill="midnightblue" stroke="midnightblue" points="626.61,-83.94 633.22,-75.65 622.89,-78.01 626.61,-83.94"/>
</g>
<!-- Node22 -->
<g id="node22" class="node">
<title>Node22</title>
<g id="a_node22"><a xlink:title=" ">
<polygon fill="white" stroke="#bfbfbf" points="689,-56.5 689,-75.5 727,-75.5 727,-56.5 689,-56.5"/>
<text text-anchor="middle" x="708" y="-63.5" font-family="Helvetica,sans-Serif" font-size="10.00">map</text>
</a>
</g>
</g>
<!-- Node20&#45;&gt;Node22 -->
<g id="edge29" class="edge">
<title>Node20&#45;&gt;Node22</title>
<path fill="none" stroke="midnightblue" d="M584.29,-112.44C609.96,-103.01 651.28,-87.84 679.02,-77.65"/>
<polygon fill="midnightblue" stroke="midnightblue" points="680.39,-80.87 688.57,-74.14 677.98,-74.3 680.39,-80.87"/>
</g>
<!-- Node23 -->
<g id="node23" class="node">
<title>Node23</title>
<g id="a_node23"><a xlink:title=" ">
<polygon fill="white" stroke="#bfbfbf" points="573,-56.5 573,-75.5 605,-75.5 605,-56.5 573,-56.5"/>
<text text-anchor="middle" x="589" y="-63.5" font-family="Helvetica,sans-Serif" font-size="10.00">set</text>
</a>
</g>
</g>
<!-- Node20&#45;&gt;Node23 -->
<g id="edge30" class="edge">
<title>Node20&#45;&gt;Node23</title>
<path fill="none" stroke="midnightblue" d="M565.62,-112.08C569.46,-104.69 575.02,-93.95 579.76,-84.81"/>
<polygon fill="midnightblue" stroke="midnightblue" points="582.97,-86.24 584.46,-75.75 576.75,-83.02 582.97,-86.24"/>
</g>
<!-- Node24 -->
<g id="node24" class="node">
<title>Node24</title>
<g id="a_node24"><a xlink:title=" ">
<polygon fill="white" stroke="#bfbfbf" points="892.5,-56.5 892.5,-75.5 939.5,-75.5 939.5,-56.5 892.5,-56.5"/>
<text text-anchor="middle" x="916" y="-63.5" font-family="Helvetica,sans-Serif" font-size="10.00">vector</text>
</a>
</g>
</g>
<!-- Node20&#45;&gt;Node24 -->
<g id="edge31" class="edge">
<title>Node20&#45;&gt;Node24</title>
<path fill="none" stroke="midnightblue" d="M609.2,-113.37C612.18,-112.9 615.13,-112.44 618,-112 713.94,-97.18 827.35,-80.2 882.51,-71.98"/>
<polygon fill="midnightblue" stroke="midnightblue" points="883.05,-75.44 892.43,-70.5 882.02,-68.52 883.05,-75.44"/>
</g>
<!-- Node30&#45;&gt;Node12 -->
<g id="edge43" class="edge">
<title>Node30&#45;&gt;Node12</title>
<path fill="none" stroke="midnightblue" d="M642.78,-235.47C583.02,-227.93 497.08,-215.55 423,-199 418.86,-198.08 414.56,-196.99 410.3,-195.84"/>
<polygon fill="midnightblue" stroke="midnightblue" points="411.11,-192.43 400.53,-193.07 409.2,-199.16 411.11,-192.43"/>
</g>
<!-- Node30&#45;&gt;Node27 -->
<g id="edge38" class="edge">
<title>Node30&#45;&gt;Node27</title>
<path fill="none" stroke="midnightblue" d="M638.18,-237.48C561.02,-230.53 439.98,-218.09 326.03,-199.06"/>
<polygon fill="midnightblue" stroke="midnightblue" points="326.53,-195.59 316.08,-197.38 325.36,-202.5 326.53,-195.59"/>
</g>
<!-- Node30&#45;&gt;Node28 -->
<g id="edge40" class="edge">
<title>Node30&#45;&gt;Node28</title>
<path fill="none" stroke="midnightblue" d="M684.05,-235.48C649.48,-226.53 594.26,-212.25 551.07,-201.07"/>
<polygon fill="midnightblue" stroke="midnightblue" points="551.76,-197.64 541.21,-198.52 550.01,-204.42 551.76,-197.64"/>
</g>
<!-- Node31 -->
<g id="node31" class="node">
<title>Node31</title>
<g id="a_node31"><a xlink:title=" ">
<polygon fill="white" stroke="#bfbfbf" points="714.5,-168.5 714.5,-198.5 825.5,-198.5 825.5,-168.5 714.5,-168.5"/>
<text text-anchor="start" x="722.5" y="-186.5" font-family="Helvetica,sans-Serif" font-size="10.00">boost/preprocessor</text>
<text text-anchor="middle" x="770" y="-175.5" font-family="Helvetica,sans-Serif" font-size="10.00">/seq/for_each_i.hpp</text>
</a>
</g>
</g>
<!-- Node30&#45;&gt;Node31 -->
<g id="edge39" class="edge">
<title>Node30&#45;&gt;Node31</title>
<path fill="none" stroke="midnightblue" d="M724.59,-235.48C731.37,-227.87 741.59,-216.4 750.61,-206.26"/>
<polygon fill="midnightblue" stroke="midnightblue" points="753.47,-208.32 757.51,-198.52 748.24,-203.66 753.47,-208.32"/>
</g>
<!-- Node32 -->
<g id="node32" class="node">
<title>Node32</title>
<g id="a_node32"><a xlink:title=" ">
<polygon fill="white" stroke="#bfbfbf" points="843.5,-168.5 843.5,-198.5 958.5,-198.5 958.5,-168.5 843.5,-168.5"/>
<text text-anchor="start" x="851.5" y="-186.5" font-family="Helvetica,sans-Serif" font-size="10.00">boost/preprocessor</text>
<text text-anchor="middle" x="901" y="-175.5" font-family="Helvetica,sans-Serif" font-size="10.00">/variadic/to_seq.hpp</text>
</a>
</g>
</g>
<!-- Node30&#45;&gt;Node32 -->
<g id="edge41" class="edge">
<title>Node30&#45;&gt;Node32</title>
<path fill="none" stroke="midnightblue" d="M743.36,-235.48C770.5,-226.7 813.52,-212.79 847.77,-201.71"/>
<polygon fill="midnightblue" stroke="midnightblue" points="849.2,-204.93 857.63,-198.52 847.04,-198.27 849.2,-204.93"/>
</g>
<!-- Node33 -->
<g id="node33" class="node">
<title>Node33</title>
<g id="a_node33"><a xlink:title=" ">
<polygon fill="white" stroke="#bfbfbf" points="560,-174 560,-193 696,-193 696,-174 560,-174"/>
<text text-anchor="middle" x="628" y="-181" font-family="Helvetica,sans-Serif" font-size="10.00">boost/vmd/is_empty.hpp</text>
</a>
</g>
</g>
<!-- Node30&#45;&gt;Node33 -->
<g id="edge42" class="edge">
<title>Node30&#45;&gt;Node33</title>
<path fill="none" stroke="midnightblue" d="M704.25,-235.48C689.97,-225.93 666.6,-210.31 649.49,-198.87"/>
<polygon fill="midnightblue" stroke="midnightblue" points="650.99,-195.66 640.73,-193.01 647.1,-201.48 650.99,-195.66"/>
</g>
<!-- Node34&#45;&gt;Node13 -->
<g id="edge48" class="edge">
<title>Node34&#45;&gt;Node13</title>
<path fill="none" stroke="midnightblue" d="M1179.46,-408.93C1187.12,-406.88 1195.34,-404.78 1203,-403 1284.18,-384.18 1334.04,-431.33 1387,-367 1396.54,-355.41 1376.69,-314.37 1376,-311 1363.56,-250.01 1358.57,-176.21 1356.83,-142.05"/>
<polygon fill="midnightblue" stroke="midnightblue" points="1360.31,-141.53 1356.34,-131.71 1353.31,-141.86 1360.31,-141.53"/>
</g>
<!-- Node34&#45;&gt;Node24 -->
<g id="edge49" class="edge">
<title>Node34&#45;&gt;Node24</title>
<path fill="none" stroke="midnightblue" d="M1109.18,-408.97C1086.45,-401.84 1059.8,-389.14 1046,-367 1041.3,-359.46 1045.26,-355.86 1046,-347 1049.79,-301.64 1063,-291.52 1063,-246 1063,-246 1063,-246 1063,-182.5 1063,-148.45 1057.5,-135.65 1033,-112 1010.16,-89.95 975.35,-78.41 949.63,-72.57"/>
<polygon fill="midnightblue" stroke="midnightblue" points="950.08,-69.09 939.58,-70.47 948.65,-75.94 950.08,-69.09"/>
</g>
<!-- Node35 -->
<g id="node35" class="node">
<title>Node35</title>
<g id="a_node35"><a xlink:title=" ">
<polygon fill="white" stroke="#bfbfbf" points="1055,-347.5 1055,-366.5 1103,-366.5 1103,-347.5 1055,-347.5"/>
<text text-anchor="middle" x="1079" y="-354.5" font-family="Helvetica,sans-Serif" font-size="10.00">iosfwd</text>
</a>
</g>
</g>
<!-- Node34&#45;&gt;Node35 -->
<g id="edge45" class="edge">
<title>Node34&#45;&gt;Node35</title>
<path fill="none" stroke="midnightblue" d="M1138.97,-408.98C1127.95,-399.61 1110.04,-384.38 1096.66,-373.01"/>
<polygon fill="midnightblue" stroke="midnightblue" points="1098.9,-370.32 1089.01,-366.51 1094.36,-375.65 1098.9,-370.32"/>
</g>
<!-- Node36 -->
<g id="node36" class="node">
<title>Node36</title>
<g id="a_node36"><a xlink:title=" ">
<polygon fill="white" stroke="#bfbfbf" points="1169,-291.5 1169,-310.5 1227,-310.5 1227,-291.5 1169,-291.5"/>
<text text-anchor="middle" x="1198" y="-298.5" font-family="Helvetica,sans-Serif" font-size="10.00">memory</text>
</a>
</g>
</g>
<!-- Node34&#45;&gt;Node36 -->
<g id="edge46" class="edge">
<title>Node34&#45;&gt;Node36</title>
<path fill="none" stroke="midnightblue" d="M1198.21,-413.28C1256.66,-407.12 1348.93,-393.43 1370,-367 1407.06,-320.52 1299.18,-307.27 1237.63,-303.49"/>
<polygon fill="midnightblue" stroke="midnightblue" points="1237.62,-299.99 1227.44,-302.93 1237.23,-306.98 1237.62,-299.99"/>
</g>
<!-- Node37 -->
<g id="node37" class="node">
<title>Node37</title>
<g id="a_node37"><a xlink:title=" ">
<polygon fill="white" stroke="#bfbfbf" points="1121,-347.5 1121,-366.5 1177,-366.5 1177,-347.5 1121,-347.5"/>
<text text-anchor="middle" x="1149" y="-354.5" font-family="Helvetica,sans-Serif" font-size="10.00">optional</text>
</a>
</g>
</g>
<!-- Node34&#45;&gt;Node37 -->
<g id="edge47" class="edge">
<title>Node34&#45;&gt;Node37</title>
<path fill="none" stroke="midnightblue" d="M1149,-408.98C1149,-400.58 1149,-387.48 1149,-376.66"/>
<polygon fill="midnightblue" stroke="midnightblue" points="1152.5,-376.51 1149,-366.51 1145.5,-376.51 1152.5,-376.51"/>
</g>
<!-- Node38 -->
<g id="node38" class="node">
<title>Node38</title>
<g id="a_node38"><a xlink:href="Logger_8hpp.html" target="_top" xlink:title=" ">
<polygon fill="white" stroke="black" points="889.5,-347.5 889.5,-366.5 998.5,-366.5 998.5,-347.5 889.5,-347.5"/>
<text text-anchor="middle" x="944" y="-354.5" font-family="Helvetica,sans-Serif" font-size="10.00">logging/Logger.hpp</text>
</a>
</g>
</g>
<!-- Node34&#45;&gt;Node38 -->
<g id="edge50" class="edge">
<title>Node34&#45;&gt;Node38</title>
<path fill="none" stroke="midnightblue" d="M1119.63,-408.98C1083.7,-398.55 1022.77,-380.86 982.96,-369.31"/>
<polygon fill="midnightblue" stroke="midnightblue" points="983.9,-365.94 973.32,-366.51 981.95,-372.66 983.9,-365.94"/>
</g>
<!-- Node41 -->
<g id="node41" class="node">
<title>Node41</title>
<g id="a_node41"><a xlink:href="types_8hpp.html" target="_top" xlink:title=" ">
<polygon fill="white" stroke="black" points="1195.5,-347.5 1195.5,-366.5 1298.5,-366.5 1298.5,-347.5 1195.5,-347.5"/>
<text text-anchor="middle" x="1247" y="-354.5" font-family="Helvetica,sans-Serif" font-size="10.00">precice/types.hpp</text>
</a>
</g>
</g>
<!-- Node34&#45;&gt;Node41 -->
<g id="edge58" class="edge">
<title>Node34&#45;&gt;Node41</title>
<path fill="none" stroke="midnightblue" d="M1163.04,-408.98C1179.05,-399.25 1205.45,-383.23 1224.37,-371.74"/>
<polygon fill="midnightblue" stroke="midnightblue" points="1226.25,-374.69 1232.99,-366.51 1222.62,-368.71 1226.25,-374.69"/>
</g>
<!-- Node42 -->
<g id="node42" class="node">
<title>Node42</title>
<g id="a_node42"><a xlink:title=" ">
<polygon fill="white" stroke="#bfbfbf" points="1317,-347.5 1317,-366.5 1361,-366.5 1361,-347.5 1317,-347.5"/>
<text text-anchor="middle" x="1339" y="-354.5" font-family="Helvetica,sans-Serif" font-size="10.00">mpi.h</text>
</a>
</g>
</g>
<!-- Node34&#45;&gt;Node42 -->
<g id="edge59" class="edge">
<title>Node34&#45;&gt;Node42</title>
<path fill="none" stroke="midnightblue" d="M1176.22,-408.98C1210.83,-398.14 1270.48,-379.46 1307.16,-367.97"/>
<polygon fill="midnightblue" stroke="midnightblue" points="1308.36,-371.26 1316.86,-364.93 1306.27,-364.58 1308.36,-371.26"/>
</g>
<!-- Node38&#45;&gt;Node11 -->
<g id="edge52" class="edge">
<title>Node38&#45;&gt;Node11</title>
<path fill="none" stroke="midnightblue" d="M951.67,-347.35C965.76,-330.82 995.26,-293.02 1006,-255 1017.23,-215.23 1003.56,-166.74 994.26,-141.03"/>
<polygon fill="midnightblue" stroke="midnightblue" points="997.46,-139.6 990.62,-131.5 990.92,-142.09 997.46,-139.6"/>
</g>
<!-- Node38&#45;&gt;Node36 -->
<g id="edge51" class="edge">
<title>Node38&#45;&gt;Node36</title>
<path fill="none" stroke="midnightblue" d="M984.25,-347.44C1032.08,-337.28 1111.35,-320.42 1158.74,-310.35"/>
<polygon fill="midnightblue" stroke="midnightblue" points="1159.58,-313.75 1168.63,-308.24 1158.12,-306.9 1159.58,-313.75"/>
</g>
<!-- Node39 -->
<g id="node39" class="node">
<title>Node39</title>
<g id="a_node39"><a xlink:href="LogMacros_8hpp.html" target="_top" xlink:title=" ">
<polygon fill="white" stroke="black" points="745,-291.5 745,-310.5 835,-310.5 835,-291.5 745,-291.5"/>
<text text-anchor="middle" x="790" y="-298.5" font-family="Helvetica,sans-Serif" font-size="10.00">LogMacros.hpp</text>
</a>
</g>
</g>
<!-- Node38&#45;&gt;Node39 -->
<g id="edge53" class="edge">
<title>Node38&#45;&gt;Node39</title>
<path fill="none" stroke="midnightblue" d="M919.6,-347.44C893.8,-338.4 852.92,-324.06 823.98,-313.92"/>
<polygon fill="midnightblue" stroke="midnightblue" points="824.88,-310.52 814.29,-310.52 822.57,-317.13 824.88,-310.52"/>
</g>
<!-- Node39&#45;&gt;Node12 -->
<g id="edge54" class="edge">
<title>Node39&#45;&gt;Node12</title>
<path fill="none" stroke="midnightblue" d="M758.03,-291.42C694.23,-274.26 546.59,-234.29 423,-199 419.47,-197.99 415.79,-196.93 412.11,-195.86"/>
<polygon fill="midnightblue" stroke="midnightblue" points="413.06,-192.48 402.47,-193.03 411.08,-199.2 413.06,-192.48"/>
</g>
<!-- Node39&#45;&gt;Node30 -->
<g id="edge55" class="edge">
<title>Node39&#45;&gt;Node30</title>
<path fill="none" stroke="midnightblue" d="M778.27,-291.32C767.16,-283.11 750.26,-270.6 737.02,-260.81"/>
<polygon fill="midnightblue" stroke="midnightblue" points="739.06,-257.97 728.94,-254.83 734.9,-263.59 739.06,-257.97"/>
</g>
<!-- Node40 -->
<g id="node40" class="node">
<title>Node40</title>
<g id="a_node40"><a xlink:href="Tracer_8hpp.html" target="_top" xlink:title=" ">
<polygon fill="white" stroke="black" points="891.5,-235.5 891.5,-254.5 996.5,-254.5 996.5,-235.5 891.5,-235.5"/>
<text text-anchor="middle" x="944" y="-242.5" font-family="Helvetica,sans-Serif" font-size="10.00">logging/Tracer.hpp</text>
</a>
</g>
</g>
<!-- Node39&#45;&gt;Node40 -->
<g id="edge56" class="edge">
<title>Node39&#45;&gt;Node40</title>
<path fill="none" stroke="midnightblue" d="M814.4,-291.44C840.2,-282.4 881.08,-268.06 910.02,-257.92"/>
<polygon fill="midnightblue" stroke="midnightblue" points="911.43,-261.13 919.71,-254.52 909.12,-254.52 911.43,-261.13"/>
</g>
<!-- Node40&#45;&gt;Node38 -->
<g id="edge57" class="edge">
<title>Node40&#45;&gt;Node38</title>
<path fill="none" stroke="midnightblue" d="M944,-254.59C944,-272.31 944,-313.25 944,-337.35"/>
<polygon fill="midnightblue" stroke="midnightblue" points="940.5,-337.37 944,-347.37 947.5,-337.37 940.5,-337.37"/>
</g>
<!-- Node43&#45;&gt;Node13 -->
<g id="edge61" class="edge">
<title>Node43&#45;&gt;Node13</title>
<path fill="none" stroke="midnightblue" d="M1436.9,-291.46C1423.81,-264.19 1382.79,-178.78 1364.71,-141.13"/>
<polygon fill="midnightblue" stroke="midnightblue" points="1367.74,-139.37 1360.26,-131.87 1361.43,-142.4 1367.74,-139.37"/>
</g>
</g>
</svg>
        <g id="navigator" transform="translate(0 0)" fill="#404254">
                <rect fill="#f2f5e9" fill-opacity="0.5" stroke="#606060" stroke-width=".5" x="0" y="0" width="60" height="60"/>
                <use id="zoomplus" xlink:href="#zoomPlus" x="17" y="9" onmousedown="handleZoom(evt,'in')"/>
                <use id="zoomminus" xlink:href="#zoomMin" x="42" y="9" onmousedown="handleZoom(evt,'out')"/>
                <use id="reset" xlink:href="#resetDef" x="30" y="36" onmousedown="handleReset()"/>
                <g id="arrowUp" xlink:href="#dirArrow" transform="translate(30 24)" onmousedown="handlePan(0,-1)">
                  <use xlink:href="#rim" fill="#404040">
                        <set attributeName="fill" to="#808080" begin="arrowUp.mouseover" end="arrowUp.mouseout"/>
                  </use>
                  <path fill="none" stroke="white" stroke-width="1.5" d="M0,-3.0v7 M-2.5,-0.5L0,-3.0L2.5,-0.5"/>
                </g>
                <g id="arrowRight" xlink:href="#dirArrow" transform="rotate(90) translate(36 -43)" onmousedown="handlePan(1,0)">
                  <use xlink:href="#rim" fill="#404040">
                        <set attributeName="fill" to="#808080" begin="arrowRight.mouseover" end="arrowRight.mouseout"/>
                  </use>
                  <path fill="none" stroke="white" stroke-width="1.5" d="M0,-3.0v7 M-2.5,-0.5L0,-3.0L2.5,-0.5"/>
                </g>
                <g id="arrowDown" xlink:href="#dirArrow" transform="rotate(180) translate(-30 -48)" onmousedown="handlePan(0,1)">
                  <use xlink:href="#rim" fill="#404040">
                        <set attributeName="fill" to="#808080" begin="arrowDown.mouseover" end="arrowDown.mouseout"/>
                  </use>
                  <path fill="none" stroke="white" stroke-width="1.5" d="M0,-3.0v7 M-2.5,-0.5L0,-3.0L2.5,-0.5"/>
                </g>
                <g id="arrowLeft" xlink:href="#dirArrow" transform="rotate(270) translate(-36 17)" onmousedown="handlePan(-1,0)">
                  <use xlink:href="#rim" fill="#404040">
                        <set attributeName="fill" to="#808080" begin="arrowLeft.mouseover" end="arrowLeft.mouseout"/>
                  </use>
                  <path fill="none" stroke="white" stroke-width="1.5" d="M0,-3.0v7 M-2.5,-0.5L0,-3.0L2.5,-0.5"/>
                </g>
        </g>
        <svg viewBox="0 0 15 15" width="100%" height="30px" preserveAspectRatio="xMaxYMin meet">
         <g id="arrow_out" transform="scale(0.3 0.3)">
          <a xlink:href="barycenter_8cpp__incl_org.svg" target="_base">
           <rect id="button" ry="5" rx="5" y="6" x="6" height="38" width="38"
                fill="#f2f5e9" fill-opacity="0.5" stroke="#606060" stroke-width="1.0"/>
           <path id="arrow"
             d="M 11.500037,31.436501 C 11.940474,20.09759 22.043105,11.32322 32.158766,21.979434 L 37.068811,17.246167 C 37.068811,17.246167 37.088388,32 37.088388,32 L 22.160133,31.978069 C 22.160133,31.978069 26.997745,27.140456 26.997745,27.140456 C 18.528582,18.264221 13.291696,25.230495 11.500037,31.436501 z"
             style="fill:#404040;"/>
          </a>
         </g>
        </svg>
</svg>
