<?xml version="1.0" encoding="UTF-8" standalone="no"?>
<!DOCTYPE svg PUBLIC "-//W3C//DTD SVG 1.1//EN"
 "http://www.w3.org/Graphics/SVG/1.1/DTD/svg11.dtd">
<!-- Generated by graphviz version 2.43.0 (0)
 -->
<!-- Title: src/math/barycenter.hpp Pages: 1 -->
<!--zoomable 666 -->
<svg id="main" version="1.1" xmlns="http://www.w3.org/2000/svg" xmlns:xlink="http://www.w3.org/1999/xlink" xml:space="preserve" onload="init(evt)">
<style type="text/css"><![CDATA[
.edge:hover path { stroke: red; }
.edge:hover polygon { stroke: red; fill: red; }
]]></style>
<script type="text/javascript"><![CDATA[
var edges = document.getElementsByTagName('g');
if (edges && edges.length) {
  for (var i=0;i<edges.length;i++) {
    if (edges[i].id.substr(0,4)=='edge') {
      edges[i].setAttribute('class','edge');
    }
  }
}
]]></script>
        <defs>
                <circle id="rim" cx="0" cy="0" r="7"/>
                <circle id="rim2" cx="0" cy="0" r="3.5"/>
                <g id="zoomPlus">
                        <use xlink:href="#rim" fill="#404040">
                                <set attributeName="fill" to="#808080" begin="zoomplus.mouseover" end="zoomplus.mouseout"/>
                        </use>
                        <path d="M-4,0h8M0,-4v8" fill="none" stroke="white" stroke-width="1.5" pointer-events="none"/>
                </g>
                <g id="zoomMin">
                        <use xlink:href="#rim" fill="#404040">
                                <set attributeName="fill" to="#808080" begin="zoomminus.mouseover" end="zoomminus.mouseout"/>
                        </use>
                        <path d="M-4,0h8" fill="none" stroke="white" stroke-width="1.5" pointer-events="none"/>
                </g>
                <g id="dirArrow">
                        <path fill="none" stroke="white" stroke-width="1.5" d="M0,-3.0v7 M-2.5,-0.5L0,-3.0L2.5,-0.5"/>
                </g>
               <g id="resetDef">
                       <use xlink:href="#rim2" fill="#404040">
                               <set attributeName="fill" to="#808080" begin="reset.mouseover" end="reset.mouseout"/>
                       </use>
               </g>
        </defs>

<script type="text/javascript">
var viewWidth = 1310;
var viewHeight = 666;
var sectionId = 'dynsection-0';
</script>
<script xlink:href="svgpan.js"/>
<svg id="graph" class="graph">
<g id="viewport">
<title>src/math/barycenter.hpp</title>
<polygon fill="white" stroke="transparent" points="-4,4 -4,-662 1306,-662 1306,4 -4,4"/>
<!-- Node1 -->
<g id="node1" class="node">
<title>Node1</title>
<g id="a_node1"><a xlink:title=" ">
<polygon fill="#bfbfbf" stroke="black" points="1125.5,-638.5 1125.5,-657.5 1260.5,-657.5 1260.5,-638.5 1125.5,-638.5"/>
<text text-anchor="middle" x="1193" y="-645.5" font-family="Helvetica,sans-Serif" font-size="10.00">src/math/barycenter.hpp</text>
</a>
</g>
</g>
<!-- Node2 -->
<g id="node2" class="node">
<title>Node2</title>
<g id="a_node2"><a xlink:title=" ">
<polygon fill="white" stroke="#bfbfbf" points="1191.5,-0.5 1191.5,-19.5 1260.5,-19.5 1260.5,-0.5 1191.5,-0.5"/>
<text text-anchor="middle" x="1226" y="-7.5" font-family="Helvetica,sans-Serif" font-size="10.00">Eigen/Core</text>
</a>
</g>
</g>
<!-- Node1&#45;&gt;Node2 -->
<g id="edge1" class="edge">
<title>Node1&#45;&gt;Node2</title>
<path fill="none" stroke="midnightblue" d="M1212.24,-638.42C1243.53,-622.99 1302,-587.41 1302,-537 1302,-537 1302,-537 1302,-121 1302,-81.28 1268.04,-45.5 1245.52,-26.15"/>
<polygon fill="midnightblue" stroke="midnightblue" points="1247.48,-23.24 1237.54,-19.57 1243.02,-28.63 1247.48,-23.24"/>
</g>
<!-- Node3 -->
<g id="node3" class="node">
<title>Node3</title>
<g id="a_node3"><a xlink:title=" ">
<polygon fill="white" stroke="#bfbfbf" points="1154.5,-582.5 1154.5,-601.5 1231.5,-601.5 1231.5,-582.5 1154.5,-582.5"/>
<text text-anchor="middle" x="1193" y="-589.5" font-family="Helvetica,sans-Serif" font-size="10.00">Eigen/Dense</text>
</a>
</g>
</g>
<!-- Node1&#45;&gt;Node3 -->
<g id="edge2" class="edge">
<title>Node1&#45;&gt;Node3</title>
<path fill="none" stroke="midnightblue" d="M1193,-638.08C1193,-631.01 1193,-620.86 1193,-611.99"/>
<polygon fill="midnightblue" stroke="midnightblue" points="1196.5,-611.75 1193,-601.75 1189.5,-611.75 1196.5,-611.75"/>
</g>
<!-- Node4 -->
<g id="node4" class="node">
<title>Node4</title>
<g id="a_node4"><a xlink:href="geometry_8hpp.html" target="_top" xlink:title=" ">
<polygon fill="white" stroke="black" points="949,-582.5 949,-601.5 1061,-601.5 1061,-582.5 949,-582.5"/>
<text text-anchor="middle" x="1005" y="-589.5" font-family="Helvetica,sans-Serif" font-size="10.00">math/geometry.hpp</text>
</a>
</g>
</g>
<!-- Node1&#45;&gt;Node4 -->
<g id="edge3" class="edge">
<title>Node1&#45;&gt;Node4</title>
<path fill="none" stroke="midnightblue" d="M1163.21,-638.44C1131.17,-629.24 1080.07,-614.56 1044.65,-604.39"/>
<polygon fill="midnightblue" stroke="midnightblue" points="1045.23,-600.91 1034.65,-601.52 1043.29,-607.64 1045.23,-600.91"/>
</g>
<!-- Node4&#45;&gt;Node2 -->
<g id="edge4" class="edge">
<title>Node4&#45;&gt;Node2</title>
<path fill="none" stroke="midnightblue" d="M1061.2,-590.87C1137.37,-587.38 1264,-568.45 1264,-481 1264,-481 1264,-481 1264,-121 1264,-86.81 1247.4,-49.76 1236.14,-28.57"/>
<polygon fill="midnightblue" stroke="midnightblue" points="1239.18,-26.83 1231.28,-19.77 1233.05,-30.22 1239.18,-26.83"/>
</g>
<!-- Node5 -->
<g id="node5" class="node">
<title>Node5</title>
<g id="a_node5"><a xlink:title=" ">
<polygon fill="white" stroke="#bfbfbf" points="0,-56.5 0,-75.5 42,-75.5 42,-56.5 0,-56.5"/>
<text text-anchor="middle" x="21" y="-63.5" font-family="Helvetica,sans-Serif" font-size="10.00">array</text>
</a>
</g>
</g>
<!-- Node4&#45;&gt;Node5 -->
<g id="edge5" class="edge">
<title>Node4&#45;&gt;Node5</title>
<path fill="none" stroke="midnightblue" d="M948.94,-590.7C739.51,-588.87 15,-575.68 15,-481 15,-481 15,-481 15,-182.5 15,-148.32 17.65,-108.52 19.43,-85.69"/>
<polygon fill="midnightblue" stroke="midnightblue" points="22.92,-85.93 20.24,-75.69 15.95,-85.37 22.92,-85.93"/>
</g>
<!-- Node6 -->
<g id="node6" class="node">
<title>Node6</title>
<g id="a_node6"><a xlink:href="differences_8hpp.html" target="_top" xlink:title=" ">
<polygon fill="white" stroke="black" points="945,-526.5 945,-545.5 1065,-545.5 1065,-526.5 945,-526.5"/>
<text text-anchor="middle" x="1005" y="-533.5" font-family="Helvetica,sans-Serif" font-size="10.00">math/differences.hpp</text>
</a>
</g>
</g>
<!-- Node4&#45;&gt;Node6 -->
<g id="edge6" class="edge">
<title>Node4&#45;&gt;Node6</title>
<path fill="none" stroke="midnightblue" d="M1005,-582.08C1005,-575.01 1005,-564.86 1005,-555.99"/>
<polygon fill="midnightblue" stroke="midnightblue" points="1008.5,-555.75 1005,-545.75 1001.5,-555.75 1008.5,-555.75"/>
</g>
<!-- Node7 -->
<g id="node7" class="node">
<title>Node7</title>
<g id="a_node7"><a xlink:href="assertion_8hpp.html" target="_top" xlink:title=" ">
<polygon fill="white" stroke="black" points="807.5,-470.5 807.5,-489.5 914.5,-489.5 914.5,-470.5 807.5,-470.5"/>
<text text-anchor="middle" x="861" y="-477.5" font-family="Helvetica,sans-Serif" font-size="10.00">utils/assertion.hpp</text>
</a>
</g>
</g>
<!-- Node4&#45;&gt;Node7 -->
<g id="edge62" class="edge">
<title>Node4&#45;&gt;Node7</title>
<path fill="none" stroke="midnightblue" d="M990.61,-582.41C976.38,-573.73 954.16,-559.69 936,-546 915.1,-530.25 892.6,-510.31 877.76,-496.69"/>
<polygon fill="midnightblue" stroke="midnightblue" points="880.08,-494.07 870.36,-489.85 875.32,-499.21 880.08,-494.07"/>
</g>
<!-- Node6&#45;&gt;Node2 -->
<g id="edge7" class="edge">
<title>Node6&#45;&gt;Node2</title>
<path fill="none" stroke="midnightblue" d="M1065.1,-529.27C1130.54,-519.32 1226,-492.34 1226,-419.5 1226,-419.5 1226,-419.5 1226,-121 1226,-88.95 1226,-51.64 1226,-29.75"/>
<polygon fill="midnightblue" stroke="midnightblue" points="1229.5,-29.56 1226,-19.56 1222.5,-29.56 1229.5,-29.56"/>
</g>
<!-- Node6&#45;&gt;Node7 -->
<g id="edge8" class="edge">
<title>Node6&#45;&gt;Node7</title>
<path fill="none" stroke="midnightblue" d="M982.18,-526.44C958.17,-517.44 920.17,-503.19 893.13,-493.05"/>
<polygon fill="midnightblue" stroke="midnightblue" points="894.3,-489.75 883.71,-489.52 891.84,-496.3 894.3,-489.75"/>
</g>
<!-- Node8 -->
<g id="node8" class="node">
<title>Node8</title>
<g id="a_node8"><a xlink:title=" ">
<polygon fill="white" stroke="#bfbfbf" points="43.5,-409 43.5,-428 92.5,-428 92.5,-409 43.5,-409"/>
<text text-anchor="middle" x="68" y="-416" font-family="Helvetica,sans-Serif" font-size="10.00">cstdlib</text>
</a>
</g>
</g>
<!-- Node7&#45;&gt;Node8 -->
<g id="edge9" class="edge">
<title>Node7&#45;&gt;Node8</title>
<path fill="none" stroke="midnightblue" d="M807.49,-478.21C657.7,-475.61 236.35,-465.62 102,-434 99.49,-433.41 96.92,-432.64 94.39,-431.78"/>
<polygon fill="midnightblue" stroke="midnightblue" points="95.5,-428.45 84.91,-428.06 92.94,-434.97 95.5,-428.45"/>
</g>
<!-- Node9 -->
<g id="node9" class="node">
<title>Node9</title>
<g id="a_node9"><a xlink:title=" ">
<polygon fill="white" stroke="#bfbfbf" points="111,-409 111,-428 171,-428 171,-409 111,-409"/>
<text text-anchor="middle" x="141" y="-416" font-family="Helvetica,sans-Serif" font-size="10.00">iostream</text>
</a>
</g>
</g>
<!-- Node7&#45;&gt;Node9 -->
<g id="edge10" class="edge">
<title>Node7&#45;&gt;Node9</title>
<path fill="none" stroke="midnightblue" d="M807.32,-477.17C669.18,-472.19 303.91,-457.17 185,-434 181.11,-433.24 177.1,-432.24 173.14,-431.12"/>
<polygon fill="midnightblue" stroke="midnightblue" points="174.13,-427.76 163.55,-428.14 172.06,-434.45 174.13,-427.76"/>
</g>
<!-- Node10 -->
<g id="node10" class="node">
<title>Node10</title>
<g id="a_node10"><a xlink:title=" ">
<polygon fill="white" stroke="#bfbfbf" points="280.5,-112.5 280.5,-131.5 353.5,-131.5 353.5,-112.5 280.5,-112.5"/>
<text text-anchor="middle" x="317" y="-119.5" font-family="Helvetica,sans-Serif" font-size="10.00">string_view</text>
</a>
</g>
</g>
<!-- Node7&#45;&gt;Node10 -->
<g id="edge11" class="edge">
<title>Node7&#45;&gt;Node10</title>
<path fill="none" stroke="midnightblue" d="M807.35,-479.13C705.58,-478.43 477.97,-472.25 291,-434 268.14,-429.32 110.18,-381.63 92,-367 65.75,-345.88 53,-335.69 53,-302 53,-302 53,-302 53,-244 53,-149.62 194.16,-128.57 270.04,-124.07"/>
<polygon fill="midnightblue" stroke="midnightblue" points="270.49,-127.55 280.29,-123.54 270.12,-120.56 270.49,-127.55"/>
</g>
<!-- Node11 -->
<g id="node11" class="node">
<title>Node11</title>
<g id="a_node11"><a xlink:href="fmt_8hpp.html" target="_top" xlink:title=" ">
<polygon fill="white" stroke="black" points="1094.5,-174 1094.5,-193 1173.5,-193 1173.5,-174 1094.5,-174"/>
<text text-anchor="middle" x="1134" y="-181" font-family="Helvetica,sans-Serif" font-size="10.00">utils/fmt.hpp</text>
</a>
</g>
</g>
<!-- Node7&#45;&gt;Node11 -->
<g id="edge12" class="edge">
<title>Node7&#45;&gt;Node11</title>
<path fill="none" stroke="midnightblue" d="M914.71,-479.63C998.8,-477.48 1152,-459.63 1152,-358 1152,-358 1152,-358 1152,-300 1152,-265.45 1144.04,-225.78 1138.71,-203.07"/>
<polygon fill="midnightblue" stroke="midnightblue" points="1142.05,-202.01 1136.28,-193.12 1135.25,-203.67 1142.05,-202.01"/>
</g>
<!-- Node24 -->
<g id="node24" class="node">
<title>Node24</title>
<g id="a_node24"><a xlink:title=" ">
<polygon fill="white" stroke="#bfbfbf" points="448.5,-409 448.5,-428 595.5,-428 595.5,-409 448.5,-409"/>
<text text-anchor="middle" x="522" y="-416" font-family="Helvetica,sans-Serif" font-size="10.00">boost/current_function.hpp</text>
</a>
</g>
</g>
<!-- Node7&#45;&gt;Node24 -->
<g id="edge31" class="edge">
<title>Node7&#45;&gt;Node24</title>
<path fill="none" stroke="midnightblue" d="M812.43,-470.48C751.26,-459.74 646.24,-441.31 580.66,-429.79"/>
<polygon fill="midnightblue" stroke="midnightblue" points="580.93,-426.29 570.48,-428.01 579.72,-433.19 580.93,-426.29"/>
</g>
<!-- Node25 -->
<g id="node25" class="node">
<title>Node25</title>
<g id="a_node25"><a xlink:title=" ">
<polygon fill="white" stroke="#bfbfbf" points="652.5,-403.5 652.5,-433.5 787.5,-433.5 787.5,-403.5 652.5,-403.5"/>
<text text-anchor="start" x="660.5" y="-421.5" font-family="Helvetica,sans-Serif" font-size="10.00">boost/preprocessor</text>
<text text-anchor="middle" x="720" y="-410.5" font-family="Helvetica,sans-Serif" font-size="10.00">/comparison/greater.hpp</text>
</a>
</g>
</g>
<!-- Node7&#45;&gt;Node25 -->
<g id="edge32" class="edge">
<title>Node7&#45;&gt;Node25</title>
<path fill="none" stroke="midnightblue" d="M840.8,-470.48C820.45,-461.89 788.44,-448.38 762.49,-437.43"/>
<polygon fill="midnightblue" stroke="midnightblue" points="763.8,-434.19 753.23,-433.52 761.08,-440.64 763.8,-434.19"/>
</g>
<!-- Node26 -->
<g id="node26" class="node">
<title>Node26</title>
<g id="a_node26"><a xlink:title=" ">
<polygon fill="white" stroke="#bfbfbf" points="383,-168.5 383,-198.5 493,-198.5 493,-168.5 383,-168.5"/>
<text text-anchor="start" x="391" y="-186.5" font-family="Helvetica,sans-Serif" font-size="10.00">boost/preprocessor</text>
<text text-anchor="middle" x="438" y="-175.5" font-family="Helvetica,sans-Serif" font-size="10.00">/control/if.hpp</text>
</a>
</g>
</g>
<!-- Node7&#45;&gt;Node26 -->
<g id="edge33" class="edge">
<title>Node7&#45;&gt;Node26</title>
<path fill="none" stroke="midnightblue" d="M807.34,-475.33C749.79,-470.17 663.84,-458.51 643,-434 601.8,-385.54 661.77,-349.59 637,-291 623.66,-259.44 612.8,-253.58 584,-235 559.52,-219.21 529.53,-207.72 503.11,-199.74"/>
<polygon fill="midnightblue" stroke="midnightblue" points="503.76,-196.28 493.18,-196.85 501.8,-203 503.76,-196.28"/>
</g>
<!-- Node27 -->
<g id="node27" class="node">
<title>Node27</title>
<g id="a_node27"><a xlink:title=" ">
<polygon fill="white" stroke="#bfbfbf" points="928,-168.5 928,-198.5 1038,-198.5 1038,-168.5 928,-168.5"/>
<text text-anchor="start" x="936" y="-186.5" font-family="Helvetica,sans-Serif" font-size="10.00">boost/preprocessor</text>
<text text-anchor="middle" x="983" y="-175.5" font-family="Helvetica,sans-Serif" font-size="10.00">/stringize.hpp</text>
</a>
</g>
</g>
<!-- Node7&#45;&gt;Node27 -->
<g id="edge34" class="edge">
<title>Node7&#45;&gt;Node27</title>
<path fill="none" stroke="midnightblue" d="M884.28,-470.36C901.87,-462.9 925.69,-450.68 942,-434 968.68,-406.71 982,-396.17 982,-358 982,-358 982,-358 982,-300 982,-268.49 982.38,-232.15 982.67,-208.78"/>
<polygon fill="midnightblue" stroke="midnightblue" points="986.17,-208.77 982.8,-198.72 979.17,-208.68 986.17,-208.77"/>
</g>
<!-- Node28 -->
<g id="node28" class="node">
<title>Node28</title>
<g id="a_node28"><a xlink:title=" ">
<polygon fill="white" stroke="#bfbfbf" points="806,-403.5 806,-433.5 916,-433.5 916,-403.5 806,-403.5"/>
<text text-anchor="start" x="814" y="-421.5" font-family="Helvetica,sans-Serif" font-size="10.00">boost/preprocessor</text>
<text text-anchor="middle" x="861" y="-410.5" font-family="Helvetica,sans-Serif" font-size="10.00">/variadic/size.hpp</text>
</a>
</g>
</g>
<!-- Node7&#45;&gt;Node28 -->
<g id="edge35" class="edge">
<title>Node7&#45;&gt;Node28</title>
<path fill="none" stroke="midnightblue" d="M861,-470.48C861,-463.47 861,-453.19 861,-443.7"/>
<polygon fill="midnightblue" stroke="midnightblue" points="864.5,-443.52 861,-433.52 857.5,-443.52 864.5,-443.52"/>
</g>
<!-- Node29 -->
<g id="node29" class="node">
<title>Node29</title>
<g id="a_node29"><a xlink:href="ArgumentFormatter_8hpp.html" target="_top" xlink:title=" ">
<polygon fill="white" stroke="black" points="729.5,-235.5 729.5,-254.5 886.5,-254.5 886.5,-235.5 729.5,-235.5"/>
<text text-anchor="middle" x="808" y="-242.5" font-family="Helvetica,sans-Serif" font-size="10.00">utils/ArgumentFormatter.hpp</text>
</a>
</g>
</g>
<!-- Node7&#45;&gt;Node29 -->
<g id="edge36" class="edge">
<title>Node7&#45;&gt;Node29</title>
<path fill="none" stroke="midnightblue" d="M882.48,-470.36C897.39,-463.09 916.11,-451.12 925,-434 931.35,-421.77 929.34,-416.08 925,-403 905.13,-343.09 852.54,-287.5 825.14,-261.47"/>
<polygon fill="midnightblue" stroke="midnightblue" points="827.52,-258.91 817.82,-254.65 822.75,-264.03 827.52,-258.91"/>
</g>
<!-- Node33 -->
<g id="node33" class="node">
<title>Node33</title>
<g id="a_node33"><a xlink:href="Parallel_8hpp.html" target="_top" xlink:title=" ">
<polygon fill="white" stroke="black" points="300,-409 300,-428 398,-428 398,-409 300,-409"/>
<text text-anchor="middle" x="349" y="-416" font-family="Helvetica,sans-Serif" font-size="10.00">utils/Parallel.hpp</text>
</a>
</g>
</g>
<!-- Node7&#45;&gt;Node33 -->
<g id="edge43" class="edge">
<title>Node7&#45;&gt;Node33</title>
<path fill="none" stroke="midnightblue" d="M807.26,-474.2C726.97,-466.81 571,-451.66 439,-434 429.12,-432.68 418.65,-431.13 408.48,-429.54"/>
<polygon fill="midnightblue" stroke="midnightblue" points="408.87,-426.06 398.44,-427.95 407.77,-432.98 408.87,-426.06"/>
</g>
<!-- Node42 -->
<g id="node42" class="node">
<title>Node42</title>
<g id="a_node42"><a xlink:href="stacktrace_8hpp.html" target="_top" xlink:title=" ">
<polygon fill="white" stroke="black" points="1010.5,-291.5 1010.5,-310.5 1123.5,-310.5 1123.5,-291.5 1010.5,-291.5"/>
<text text-anchor="middle" x="1067" y="-298.5" font-family="Helvetica,sans-Serif" font-size="10.00">utils/stacktrace.hpp</text>
</a>
</g>
</g>
<!-- Node7&#45;&gt;Node42 -->
<g id="edge59" class="edge">
<title>Node7&#45;&gt;Node42</title>
<path fill="none" stroke="midnightblue" d="M914.62,-470.79C941.46,-464.44 973.03,-453.33 996,-434 1032.56,-403.24 1053.2,-348.69 1061.95,-320.31"/>
<polygon fill="midnightblue" stroke="midnightblue" points="1065.37,-321.09 1064.82,-310.51 1058.65,-319.12 1065.37,-321.09"/>
</g>
<!-- Node43 -->
<g id="node43" class="node">
<title>Node43</title>
<g id="a_node43"><a xlink:title=" ">
<polygon fill="white" stroke="#bfbfbf" points="1048,-409 1048,-428 1100,-428 1100,-409 1048,-409"/>
<text text-anchor="middle" x="1074" y="-416" font-family="Helvetica,sans-Serif" font-size="10.00">cassert</text>
</a>
</g>
</g>
<!-- Node7&#45;&gt;Node43 -->
<g id="edge61" class="edge">
<title>Node7&#45;&gt;Node43</title>
<path fill="none" stroke="midnightblue" d="M897.73,-470.5C932.94,-462.1 987.47,-448.45 1034,-434 1036.62,-433.19 1039.32,-432.3 1042.03,-431.39"/>
<polygon fill="midnightblue" stroke="midnightblue" points="1043.42,-434.61 1051.7,-428 1041.1,-428 1043.42,-434.61"/>
</g>
<!-- Node11&#45;&gt;Node10 -->
<g id="edge14" class="edge">
<title>Node11&#45;&gt;Node10</title>
<path fill="none" stroke="midnightblue" d="M1094.28,-174.99C1079.48,-172.43 1062.52,-169.77 1047,-168 913.74,-152.83 503.33,-132.05 363.91,-125.25"/>
<polygon fill="midnightblue" stroke="midnightblue" points="363.73,-121.74 353.58,-124.75 363.39,-128.73 363.73,-121.74"/>
</g>
<!-- Node12 -->
<g id="node12" class="node">
<title>Node12</title>
<g id="a_node12"><a xlink:title=" ">
<polygon fill="white" stroke="#bfbfbf" points="558,-112.5 558,-131.5 602,-131.5 602,-112.5 558,-112.5"/>
<text text-anchor="middle" x="580" y="-119.5" font-family="Helvetica,sans-Serif" font-size="10.00">string</text>
</a>
</g>
</g>
<!-- Node11&#45;&gt;Node12 -->
<g id="edge13" class="edge">
<title>Node11&#45;&gt;Node12</title>
<path fill="none" stroke="midnightblue" d="M1106.19,-173.97C1097.84,-171.7 1088.61,-169.47 1080,-168 877.16,-133.29 818.52,-168.22 612.16,-131.83"/>
<polygon fill="midnightblue" stroke="midnightblue" points="612.68,-128.37 602.22,-130.05 611.44,-135.26 612.68,-128.37"/>
</g>
<!-- Node13 -->
<g id="node13" class="node">
<title>Node13</title>
<g id="a_node13"><a xlink:title=" ">
<polygon fill="white" stroke="#bfbfbf" points="806.5,-56.5 806.5,-75.5 885.5,-75.5 885.5,-56.5 806.5,-56.5"/>
<text text-anchor="middle" x="846" y="-63.5" font-family="Helvetica,sans-Serif" font-size="10.00">fmt/format.h</text>
</a>
</g>
</g>
<!-- Node11&#45;&gt;Node13 -->
<g id="edge15" class="edge">
<title>Node11&#45;&gt;Node13</title>
<path fill="none" stroke="midnightblue" d="M1110.17,-173.84C1083.29,-163.99 1038.33,-147.3 1000,-132 956.23,-114.52 906.01,-93.06 875.14,-79.7"/>
<polygon fill="midnightblue" stroke="midnightblue" points="876.4,-76.43 865.83,-75.66 873.61,-82.85 876.4,-76.43"/>
</g>
<!-- Node14 -->
<g id="node14" class="node">
<title>Node14</title>
<g id="a_node14"><a xlink:title=" ">
<polygon fill="white" stroke="#bfbfbf" points="620,-112.5 620,-131.5 706,-131.5 706,-112.5 620,-112.5"/>
<text text-anchor="middle" x="663" y="-119.5" font-family="Helvetica,sans-Serif" font-size="10.00">fmt/ostream.h</text>
</a>
</g>
</g>
<!-- Node11&#45;&gt;Node14 -->
<g id="edge16" class="edge">
<title>Node11&#45;&gt;Node14</title>
<path fill="none" stroke="midnightblue" d="M1105.61,-173.94C1097.41,-171.72 1088.4,-169.53 1080,-168 922.92,-139.36 878.35,-153.31 716.42,-132.09"/>
<polygon fill="midnightblue" stroke="midnightblue" points="716.47,-128.56 706.09,-130.71 715.54,-135.5 716.47,-128.56"/>
</g>
<!-- Node15 -->
<g id="node15" class="node">
<title>Node15</title>
<g id="a_node15"><a xlink:href="fmtEigen_8hpp.html" target="_top" xlink:title=" ">
<polygon fill="white" stroke="black" points="1009,-112.5 1009,-131.5 1115,-131.5 1115,-112.5 1009,-112.5"/>
<text text-anchor="middle" x="1062" y="-119.5" font-family="Helvetica,sans-Serif" font-size="10.00">utils/fmtEigen.hpp</text>
</a>
</g>
</g>
<!-- Node11&#45;&gt;Node15 -->
<g id="edge17" class="edge">
<title>Node11&#45;&gt;Node15</title>
<path fill="none" stroke="midnightblue" d="M1123.68,-173.98C1112.35,-164.61 1093.93,-149.38 1080.16,-138.01"/>
<polygon fill="midnightblue" stroke="midnightblue" points="1082.23,-135.18 1072.3,-131.51 1077.78,-140.58 1082.23,-135.18"/>
</g>
<!-- Node19 -->
<g id="node19" class="node">
<title>Node19</title>
<g id="a_node19"><a xlink:href="fmtSTL_8hpp.html" target="_top" xlink:title=" ">
<polygon fill="white" stroke="black" points="724,-112.5 724,-131.5 820,-131.5 820,-112.5 724,-112.5"/>
<text text-anchor="middle" x="772" y="-119.5" font-family="Helvetica,sans-Serif" font-size="10.00">utils/fmtSTL.hpp</text>
</a>
</g>
</g>
<!-- Node11&#45;&gt;Node19 -->
<g id="edge24" class="edge">
<title>Node11&#45;&gt;Node19</title>
<path fill="none" stroke="midnightblue" d="M1104.72,-173.97C1096.75,-171.83 1088.08,-169.67 1080,-168 993.65,-150.16 892.25,-136.78 830.07,-129.42"/>
<polygon fill="midnightblue" stroke="midnightblue" points="830.39,-125.94 820.05,-128.25 829.58,-132.89 830.39,-125.94"/>
</g>
<!-- Node15&#45;&gt;Node2 -->
<g id="edge18" class="edge">
<title>Node15&#45;&gt;Node2</title>
<path fill="none" stroke="midnightblue" d="M1092,-112.44C1114.55,-105.08 1145.46,-92.97 1169,-76 1187.38,-62.75 1203.9,-42.53 1214.37,-28.16"/>
<polygon fill="midnightblue" stroke="midnightblue" points="1217.43,-29.89 1220.33,-19.7 1211.71,-25.86 1217.43,-29.89"/>
</g>
<!-- Node15&#45;&gt;Node13 -->
<g id="edge20" class="edge">
<title>Node15&#45;&gt;Node13</title>
<path fill="none" stroke="midnightblue" d="M1027.77,-112.44C990.49,-103.12 930.73,-88.18 889.99,-78"/>
<polygon fill="midnightblue" stroke="midnightblue" points="890.62,-74.55 880.07,-75.52 888.92,-81.34 890.62,-74.55"/>
</g>
<!-- Node16 -->
<g id="node16" class="node">
<title>Node16</title>
<g id="a_node16"><a xlink:title=" ">
<polygon fill="white" stroke="#bfbfbf" points="904,-56.5 904,-75.5 968,-75.5 968,-56.5 904,-56.5"/>
<text text-anchor="middle" x="936" y="-63.5" font-family="Helvetica,sans-Serif" font-size="10.00">algorithm</text>
</a>
</g>
</g>
<!-- Node15&#45;&gt;Node16 -->
<g id="edge19" class="edge">
<title>Node15&#45;&gt;Node16</title>
<path fill="none" stroke="midnightblue" d="M1042.03,-112.44C1021.39,-103.6 988.94,-89.69 965.37,-79.59"/>
<polygon fill="midnightblue" stroke="midnightblue" points="966.44,-76.24 955.87,-75.52 963.68,-82.67 966.44,-76.24"/>
</g>
<!-- Node17 -->
<g id="node17" class="node">
<title>Node17</title>
<g id="a_node17"><a xlink:title=" ">
<polygon fill="white" stroke="#bfbfbf" points="986,-56.5 986,-75.5 1042,-75.5 1042,-56.5 986,-56.5"/>
<text text-anchor="middle" x="1014" y="-63.5" font-family="Helvetica,sans-Serif" font-size="10.00">sstream</text>
</a>
</g>
</g>
<!-- Node15&#45;&gt;Node17 -->
<g id="edge21" class="edge">
<title>Node15&#45;&gt;Node17</title>
<path fill="none" stroke="midnightblue" d="M1054.07,-112.08C1047.15,-104.3 1036.93,-92.8 1028.55,-83.37"/>
<polygon fill="midnightblue" stroke="midnightblue" points="1031.04,-80.9 1021.78,-75.75 1025.81,-85.55 1031.04,-80.9"/>
</g>
<!-- Node18 -->
<g id="node18" class="node">
<title>Node18</title>
<g id="a_node18"><a xlink:href="EigenIO_8hpp.html" target="_top" xlink:title=" ">
<polygon fill="white" stroke="black" points="1060.5,-56.5 1060.5,-75.5 1159.5,-75.5 1159.5,-56.5 1060.5,-56.5"/>
<text text-anchor="middle" x="1110" y="-63.5" font-family="Helvetica,sans-Serif" font-size="10.00">utils/EigenIO.hpp</text>
</a>
</g>
</g>
<!-- Node15&#45;&gt;Node18 -->
<g id="edge22" class="edge">
<title>Node15&#45;&gt;Node18</title>
<path fill="none" stroke="midnightblue" d="M1069.93,-112.08C1076.85,-104.3 1087.07,-92.8 1095.45,-83.37"/>
<polygon fill="midnightblue" stroke="midnightblue" points="1098.19,-85.55 1102.22,-75.75 1092.96,-80.9 1098.19,-85.55"/>
</g>
<!-- Node18&#45;&gt;Node2 -->
<g id="edge23" class="edge">
<title>Node18&#45;&gt;Node2</title>
<path fill="none" stroke="midnightblue" d="M1128.38,-56.44C1147.22,-47.68 1176.73,-33.94 1198.38,-23.86"/>
<polygon fill="midnightblue" stroke="midnightblue" points="1200.12,-26.91 1207.71,-19.52 1197.16,-20.56 1200.12,-26.91"/>
</g>
<!-- Node19&#45;&gt;Node5 -->
<g id="edge25" class="edge">
<title>Node19&#45;&gt;Node5</title>
<path fill="none" stroke="midnightblue" d="M723.84,-113.08C720.85,-112.68 717.89,-112.32 715,-112 459.96,-83.66 150.06,-71.36 52.17,-68"/>
<polygon fill="midnightblue" stroke="midnightblue" points="52.18,-64.5 42.07,-67.66 51.95,-71.49 52.18,-64.5"/>
</g>
<!-- Node19&#45;&gt;Node13 -->
<g id="edge27" class="edge">
<title>Node19&#45;&gt;Node13</title>
<path fill="none" stroke="midnightblue" d="M783.89,-112.32C795.15,-104.11 812.29,-91.6 825.71,-81.81"/>
<polygon fill="midnightblue" stroke="midnightblue" points="827.88,-84.56 833.89,-75.83 823.75,-78.9 827.88,-84.56"/>
</g>
<!-- Node20 -->
<g id="node20" class="node">
<title>Node20</title>
<g id="a_node20"><a xlink:title=" ">
<polygon fill="white" stroke="#bfbfbf" points="634.5,-56.5 634.5,-75.5 681.5,-75.5 681.5,-56.5 634.5,-56.5"/>
<text text-anchor="middle" x="658" y="-63.5" font-family="Helvetica,sans-Serif" font-size="10.00">deque</text>
</a>
</g>
</g>
<!-- Node19&#45;&gt;Node20 -->
<g id="edge26" class="edge">
<title>Node19&#45;&gt;Node20</title>
<path fill="none" stroke="midnightblue" d="M753.94,-112.44C735.43,-103.68 706.42,-89.94 685.14,-79.86"/>
<polygon fill="midnightblue" stroke="midnightblue" points="686.51,-76.63 675.98,-75.52 683.52,-82.96 686.51,-76.63"/>
</g>
<!-- Node21 -->
<g id="node21" class="node">
<title>Node21</title>
<g id="a_node21"><a xlink:title=" ">
<polygon fill="white" stroke="#bfbfbf" points="700,-56.5 700,-75.5 738,-75.5 738,-56.5 700,-56.5"/>
<text text-anchor="middle" x="719" y="-63.5" font-family="Helvetica,sans-Serif" font-size="10.00">map</text>
</a>
</g>
</g>
<!-- Node19&#45;&gt;Node21 -->
<g id="edge28" class="edge">
<title>Node19&#45;&gt;Node21</title>
<path fill="none" stroke="midnightblue" d="M763.25,-112.08C755.53,-104.22 744.1,-92.57 734.78,-83.08"/>
<polygon fill="midnightblue" stroke="midnightblue" points="737.09,-80.44 727.59,-75.75 732.1,-85.34 737.09,-80.44"/>
</g>
<!-- Node22 -->
<g id="node22" class="node">
<title>Node22</title>
<g id="a_node22"><a xlink:title=" ">
<polygon fill="white" stroke="#bfbfbf" points="756,-56.5 756,-75.5 788,-75.5 788,-56.5 756,-56.5"/>
<text text-anchor="middle" x="772" y="-63.5" font-family="Helvetica,sans-Serif" font-size="10.00">set</text>
</a>
</g>
</g>
<!-- Node19&#45;&gt;Node22 -->
<g id="edge29" class="edge">
<title>Node19&#45;&gt;Node22</title>
<path fill="none" stroke="midnightblue" d="M772,-112.08C772,-105.01 772,-94.86 772,-85.99"/>
<polygon fill="midnightblue" stroke="midnightblue" points="775.5,-85.75 772,-75.75 768.5,-85.75 775.5,-85.75"/>
</g>
<!-- Node23 -->
<g id="node23" class="node">
<title>Node23</title>
<g id="a_node23"><a xlink:title=" ">
<polygon fill="white" stroke="#bfbfbf" points="318.5,-56.5 318.5,-75.5 365.5,-75.5 365.5,-56.5 318.5,-56.5"/>
<text text-anchor="middle" x="342" y="-63.5" font-family="Helvetica,sans-Serif" font-size="10.00">vector</text>
</a>
</g>
</g>
<!-- Node19&#45;&gt;Node23 -->
<g id="edge30" class="edge">
<title>Node19&#45;&gt;Node23</title>
<path fill="none" stroke="midnightblue" d="M723.82,-113.27C720.83,-112.83 717.88,-112.4 715,-112 590.16,-94.62 441.25,-77.84 375.75,-70.65"/>
<polygon fill="midnightblue" stroke="midnightblue" points="375.93,-67.15 365.6,-69.54 375.17,-74.11 375.93,-67.15"/>
</g>
<!-- Node29&#45;&gt;Node11 -->
<g id="edge42" class="edge">
<title>Node29&#45;&gt;Node11</title>
<path fill="none" stroke="midnightblue" d="M854.71,-235.48C915.58,-224.36 1021.6,-205.01 1084.04,-193.62"/>
<polygon fill="midnightblue" stroke="midnightblue" points="1084.83,-197.03 1094.04,-191.79 1083.58,-190.15 1084.83,-197.03"/>
</g>
<!-- Node29&#45;&gt;Node26 -->
<g id="edge37" class="edge">
<title>Node29&#45;&gt;Node26</title>
<path fill="none" stroke="midnightblue" d="M739.69,-235.48C679.82,-227.67 590.24,-215.14 503.16,-199.13"/>
<polygon fill="midnightblue" stroke="midnightblue" points="503.57,-195.65 493.1,-197.27 502.3,-202.53 503.57,-195.65"/>
</g>
<!-- Node29&#45;&gt;Node27 -->
<g id="edge39" class="edge">
<title>Node29&#45;&gt;Node27</title>
<path fill="none" stroke="midnightblue" d="M833.07,-235.48C858.77,-226.74 899.45,-212.91 931.96,-201.86"/>
<polygon fill="midnightblue" stroke="midnightblue" points="933.41,-205.06 941.76,-198.52 931.16,-198.43 933.41,-205.06"/>
</g>
<!-- Node30 -->
<g id="node30" class="node">
<title>Node30</title>
<g id="a_node30"><a xlink:title=" ">
<polygon fill="white" stroke="#bfbfbf" points="665.5,-168.5 665.5,-198.5 776.5,-198.5 776.5,-168.5 665.5,-168.5"/>
<text text-anchor="start" x="673.5" y="-186.5" font-family="Helvetica,sans-Serif" font-size="10.00">boost/preprocessor</text>
<text text-anchor="middle" x="721" y="-175.5" font-family="Helvetica,sans-Serif" font-size="10.00">/seq/for_each_i.hpp</text>
</a>
</g>
</g>
<!-- Node29&#45;&gt;Node30 -->
<g id="edge38" class="edge">
<title>Node29&#45;&gt;Node30</title>
<path fill="none" stroke="midnightblue" d="M795.54,-235.48C783.64,-227.34 765.29,-214.79 749.77,-204.18"/>
<polygon fill="midnightblue" stroke="midnightblue" points="751.73,-201.28 741.5,-198.52 747.78,-207.06 751.73,-201.28"/>
</g>
<!-- Node31 -->
<g id="node31" class="node">
<title>Node31</title>
<g id="a_node31"><a xlink:title=" ">
<polygon fill="white" stroke="#bfbfbf" points="794.5,-168.5 794.5,-198.5 909.5,-198.5 909.5,-168.5 794.5,-168.5"/>
<text text-anchor="start" x="802.5" y="-186.5" font-family="Helvetica,sans-Serif" font-size="10.00">boost/preprocessor</text>
<text text-anchor="middle" x="852" y="-175.5" font-family="Helvetica,sans-Serif" font-size="10.00">/variadic/to_seq.hpp</text>
</a>
</g>
</g>
<!-- Node29&#45;&gt;Node31 -->
<g id="edge40" class="edge">
<title>Node29&#45;&gt;Node31</title>
<path fill="none" stroke="midnightblue" d="M814.3,-235.48C819.87,-227.94 828.24,-216.63 835.68,-206.57"/>
<polygon fill="midnightblue" stroke="midnightblue" points="838.5,-208.64 841.63,-198.52 832.87,-204.48 838.5,-208.64"/>
</g>
<!-- Node32 -->
<g id="node32" class="node">
<title>Node32</title>
<g id="a_node32"><a xlink:title=" ">
<polygon fill="white" stroke="#bfbfbf" points="511,-174 511,-193 647,-193 647,-174 511,-174"/>
<text text-anchor="middle" x="579" y="-181" font-family="Helvetica,sans-Serif" font-size="10.00">boost/vmd/is_empty.hpp</text>
</a>
</g>
</g>
<!-- Node29&#45;&gt;Node32 -->
<g id="edge41" class="edge">
<title>Node29&#45;&gt;Node32</title>
<path fill="none" stroke="midnightblue" d="M775.19,-235.48C734.8,-224.98 666.12,-207.14 621.67,-195.59"/>
<polygon fill="midnightblue" stroke="midnightblue" points="622.31,-192.14 611.75,-193.01 620.55,-198.91 622.31,-192.14"/>
</g>
<!-- Node33&#45;&gt;Node12 -->
<g id="edge47" class="edge">
<title>Node33&#45;&gt;Node12</title>
<path fill="none" stroke="midnightblue" d="M398.28,-409.18C469.29,-396.97 592.63,-374.79 599,-367 633.97,-324.25 565.41,-333.34 529,-311 456.56,-266.55 412.68,-274.68 374,-199 339.73,-131.96 480.95,-123.13 547.28,-122.59"/>
<polygon fill="midnightblue" stroke="midnightblue" points="547.63,-126.09 557.62,-122.57 547.61,-119.09 547.63,-126.09"/>
</g>
<!-- Node33&#45;&gt;Node23 -->
<g id="edge48" class="edge">
<title>Node33&#45;&gt;Node23</title>
<path fill="none" stroke="midnightblue" d="M299.74,-413.02C238.04,-406.44 137.1,-392.11 110,-367 87.92,-346.54 91,-332.1 91,-302 91,-302 91,-302 91,-182.5 91,-88.02 239.58,-70.55 308.11,-67.52"/>
<polygon fill="midnightblue" stroke="midnightblue" points="308.52,-71.01 318.39,-67.15 308.27,-64.01 308.52,-71.01"/>
</g>
<!-- Node34 -->
<g id="node34" class="node">
<title>Node34</title>
<g id="a_node34"><a xlink:title=" ">
<polygon fill="white" stroke="#bfbfbf" points="119,-347.5 119,-366.5 167,-366.5 167,-347.5 119,-347.5"/>
<text text-anchor="middle" x="143" y="-354.5" font-family="Helvetica,sans-Serif" font-size="10.00">iosfwd</text>
</a>
</g>
</g>
<!-- Node33&#45;&gt;Node34 -->
<g id="edge44" class="edge">
<title>Node33&#45;&gt;Node34</title>
<path fill="none" stroke="midnightblue" d="M319.49,-408.98C281.72,-398.07 216.46,-379.22 176.76,-367.75"/>
<polygon fill="midnightblue" stroke="midnightblue" points="177.58,-364.35 167,-364.93 175.64,-371.07 177.58,-364.35"/>
</g>
<!-- Node35 -->
<g id="node35" class="node">
<title>Node35</title>
<g id="a_node35"><a xlink:title=" ">
<polygon fill="white" stroke="#bfbfbf" points="199,-291.5 199,-310.5 257,-310.5 257,-291.5 199,-291.5"/>
<text text-anchor="middle" x="228" y="-298.5" font-family="Helvetica,sans-Serif" font-size="10.00">memory</text>
</a>
</g>
</g>
<!-- Node33&#45;&gt;Node35 -->
<g id="edge45" class="edge">
<title>Node33&#45;&gt;Node35</title>
<path fill="none" stroke="midnightblue" d="M299.94,-412.92C269.74,-407.28 233.25,-394.76 214,-367 204.36,-353.11 210.34,-333.84 217.21,-319.89"/>
<polygon fill="midnightblue" stroke="midnightblue" points="220.44,-321.28 222.17,-310.83 214.3,-317.92 220.44,-321.28"/>
</g>
<!-- Node36 -->
<g id="node36" class="node">
<title>Node36</title>
<g id="a_node36"><a xlink:title=" ">
<polygon fill="white" stroke="#bfbfbf" points="223,-347.5 223,-366.5 279,-366.5 279,-347.5 223,-347.5"/>
<text text-anchor="middle" x="251" y="-354.5" font-family="Helvetica,sans-Serif" font-size="10.00">optional</text>
</a>
</g>
</g>
<!-- Node33&#45;&gt;Node36 -->
<g id="edge46" class="edge">
<title>Node33&#45;&gt;Node36</title>
<path fill="none" stroke="midnightblue" d="M334.96,-408.98C318.95,-399.25 292.55,-383.23 273.63,-371.74"/>
<polygon fill="midnightblue" stroke="midnightblue" points="275.38,-368.71 265.01,-366.51 271.75,-374.69 275.38,-368.71"/>
</g>
<!-- Node37 -->
<g id="node37" class="node">
<title>Node37</title>
<g id="a_node37"><a xlink:href="Logger_8hpp.html" target="_top" xlink:title=" ">
<polygon fill="white" stroke="black" points="418.5,-347.5 418.5,-366.5 527.5,-366.5 527.5,-347.5 418.5,-347.5"/>
<text text-anchor="middle" x="473" y="-354.5" font-family="Helvetica,sans-Serif" font-size="10.00">logging/Logger.hpp</text>
</a>
</g>
</g>
<!-- Node33&#45;&gt;Node37 -->
<g id="edge49" class="edge">
<title>Node33&#45;&gt;Node37</title>
<path fill="none" stroke="midnightblue" d="M366.77,-408.98C387.48,-399.03 421.95,-382.49 445.99,-370.96"/>
<polygon fill="midnightblue" stroke="midnightblue" points="447.77,-373.99 455.27,-366.51 444.74,-367.68 447.77,-373.99"/>
</g>
<!-- Node40 -->
<g id="node40" class="node">
<title>Node40</title>
<g id="a_node40"><a xlink:href="types_8hpp.html" target="_top" xlink:title=" ">
<polygon fill="white" stroke="black" points="297.5,-347.5 297.5,-366.5 400.5,-366.5 400.5,-347.5 297.5,-347.5"/>
<text text-anchor="middle" x="349" y="-354.5" font-family="Helvetica,sans-Serif" font-size="10.00">precice/types.hpp</text>
</a>
</g>
</g>
<!-- Node33&#45;&gt;Node40 -->
<g id="edge57" class="edge">
<title>Node33&#45;&gt;Node40</title>
<path fill="none" stroke="midnightblue" d="M349,-408.98C349,-400.58 349,-387.48 349,-376.66"/>
<polygon fill="midnightblue" stroke="midnightblue" points="352.5,-376.51 349,-366.51 345.5,-376.51 352.5,-376.51"/>
</g>
<!-- Node41 -->
<g id="node41" class="node">
<title>Node41</title>
<g id="a_node41"><a xlink:title=" ">
<polygon fill="white" stroke="#bfbfbf" points="546,-347.5 546,-366.5 590,-366.5 590,-347.5 546,-347.5"/>
<text text-anchor="middle" x="568" y="-354.5" font-family="Helvetica,sans-Serif" font-size="10.00">mpi.h</text>
</a>
</g>
</g>
<!-- Node33&#45;&gt;Node41 -->
<g id="edge58" class="edge">
<title>Node33&#45;&gt;Node41</title>
<path fill="none" stroke="midnightblue" d="M381.12,-408.93C418.4,-398.97 481.7,-381.97 536,-367 536.1,-366.97 536.2,-366.94 536.3,-366.92"/>
<polygon fill="midnightblue" stroke="midnightblue" points="537.28,-370.28 545.97,-364.23 535.4,-363.53 537.28,-370.28"/>
</g>
<!-- Node37&#45;&gt;Node10 -->
<g id="edge51" class="edge">
<title>Node37&#45;&gt;Node10</title>
<path fill="none" stroke="midnightblue" d="M458.72,-347.28C434.47,-331.73 385.19,-296.9 358,-255 334.57,-218.89 323.84,-168.58 319.52,-141.69"/>
<polygon fill="midnightblue" stroke="midnightblue" points="322.97,-141.1 318.04,-131.72 316.05,-142.12 322.97,-141.1"/>
</g>
<!-- Node37&#45;&gt;Node35 -->
<g id="edge50" class="edge">
<title>Node37&#45;&gt;Node35</title>
<path fill="none" stroke="midnightblue" d="M434.18,-347.44C388.39,-337.35 312.73,-320.68 266.91,-310.58"/>
<polygon fill="midnightblue" stroke="midnightblue" points="267.57,-307.14 257.05,-308.4 266.06,-313.97 267.57,-307.14"/>
</g>
<!-- Node38 -->
<g id="node38" class="node">
<title>Node38</title>
<g id="a_node38"><a xlink:href="LogMacros_8hpp.html" target="_top" xlink:title=" ">
<polygon fill="white" stroke="black" points="538,-291.5 538,-310.5 628,-310.5 628,-291.5 538,-291.5"/>
<text text-anchor="middle" x="583" y="-298.5" font-family="Helvetica,sans-Serif" font-size="10.00">LogMacros.hpp</text>
</a>
</g>
</g>
<!-- Node37&#45;&gt;Node38 -->
<g id="edge52" class="edge">
<title>Node37&#45;&gt;Node38</title>
<path fill="none" stroke="midnightblue" d="M490.67,-347.32C508.39,-338.62 535.9,-325.12 556.29,-315.11"/>
<polygon fill="midnightblue" stroke="midnightblue" points="557.94,-318.2 565.37,-310.65 554.85,-311.92 557.94,-318.2"/>
</g>
<!-- Node38&#45;&gt;Node11 -->
<g id="edge53" class="edge">
<title>Node38&#45;&gt;Node11</title>
<path fill="none" stroke="midnightblue" d="M628.05,-295.56C689.04,-289.08 801.03,-275.52 895,-255 969.03,-238.83 1053.63,-211.79 1099.69,-196.32"/>
<polygon fill="midnightblue" stroke="midnightblue" points="1100.84,-199.62 1109.19,-193.11 1098.59,-192.99 1100.84,-199.62"/>
</g>
<!-- Node38&#45;&gt;Node29 -->
<g id="edge54" class="edge">
<title>Node38&#45;&gt;Node29</title>
<path fill="none" stroke="midnightblue" d="M618.65,-291.44C657.66,-282.08 720.27,-267.06 762.72,-256.87"/>
<polygon fill="midnightblue" stroke="midnightblue" points="763.61,-260.25 772.51,-254.52 761.97,-253.45 763.61,-260.25"/>
</g>
<!-- Node39 -->
<g id="node39" class="node">
<title>Node39</title>
<g id="a_node39"><a xlink:href="Tracer_8hpp.html" target="_top" xlink:title=" ">
<polygon fill="white" stroke="black" points="470.5,-235.5 470.5,-254.5 575.5,-254.5 575.5,-235.5 470.5,-235.5"/>
<text text-anchor="middle" x="523" y="-242.5" font-family="Helvetica,sans-Serif" font-size="10.00">logging/Tracer.hpp</text>
</a>
</g>
</g>
<!-- Node38&#45;&gt;Node39 -->
<g id="edge55" class="edge">
<title>Node38&#45;&gt;Node39</title>
<path fill="none" stroke="midnightblue" d="M573.36,-291.32C564.49,-283.34 551.13,-271.31 540.39,-261.65"/>
<polygon fill="midnightblue" stroke="midnightblue" points="542.59,-258.92 532.82,-254.83 537.91,-264.13 542.59,-258.92"/>
</g>
<!-- Node39&#45;&gt;Node37 -->
<g id="edge56" class="edge">
<title>Node39&#45;&gt;Node37</title>
<path fill="none" stroke="midnightblue" d="M519.09,-254.59C510.97,-272.47 492.09,-314 481.18,-338"/>
<polygon fill="midnightblue" stroke="midnightblue" points="477.88,-336.82 476.92,-347.37 484.25,-339.71 477.88,-336.82"/>
</g>
<!-- Node42&#45;&gt;Node12 -->
<g id="edge60" class="edge">
<title>Node42&#45;&gt;Node12</title>
<path fill="none" stroke="midnightblue" d="M1068.87,-291.29C1073.41,-267.48 1082.23,-200.91 1047,-168 1013.21,-136.44 692.49,-140.33 612.56,-131.5"/>
<polygon fill="midnightblue" stroke="midnightblue" points="612.62,-127.97 602.22,-130.03 611.63,-134.9 612.62,-127.97"/>
</g>
</g>
</svg>
        <g id="navigator" transform="translate(0 0)" fill="#404254">
                <rect fill="#f2f5e9" fill-opacity="0.5" stroke="#606060" stroke-width=".5" x="0" y="0" width="60" height="60"/>
                <use id="zoomplus" xlink:href="#zoomPlus" x="17" y="9" onmousedown="handleZoom(evt,'in')"/>
                <use id="zoomminus" xlink:href="#zoomMin" x="42" y="9" onmousedown="handleZoom(evt,'out')"/>
                <use id="reset" xlink:href="#resetDef" x="30" y="36" onmousedown="handleReset()"/>
                <g id="arrowUp" xlink:href="#dirArrow" transform="translate(30 24)" onmousedown="handlePan(0,-1)">
                  <use xlink:href="#rim" fill="#404040">
                        <set attributeName="fill" to="#808080" begin="arrowUp.mouseover" end="arrowUp.mouseout"/>
                  </use>
                  <path fill="none" stroke="white" stroke-width="1.5" d="M0,-3.0v7 M-2.5,-0.5L0,-3.0L2.5,-0.5"/>
                </g>
                <g id="arrowRight" xlink:href="#dirArrow" transform="rotate(90) translate(36 -43)" onmousedown="handlePan(1,0)">
                  <use xlink:href="#rim" fill="#404040">
                        <set attributeName="fill" to="#808080" begin="arrowRight.mouseover" end="arrowRight.mouseout"/>
                  </use>
                  <path fill="none" stroke="white" stroke-width="1.5" d="M0,-3.0v7 M-2.5,-0.5L0,-3.0L2.5,-0.5"/>
                </g>
                <g id="arrowDown" xlink:href="#dirArrow" transform="rotate(180) translate(-30 -48)" onmousedown="handlePan(0,1)">
                  <use xlink:href="#rim" fill="#404040">
                        <set attributeName="fill" to="#808080" begin="arrowDown.mouseover" end="arrowDown.mouseout"/>
                  </use>
                  <path fill="none" stroke="white" stroke-width="1.5" d="M0,-3.0v7 M-2.5,-0.5L0,-3.0L2.5,-0.5"/>
                </g>
                <g id="arrowLeft" xlink:href="#dirArrow" transform="rotate(270) translate(-36 17)" onmousedown="handlePan(-1,0)">
                  <use xlink:href="#rim" fill="#404040">
                        <set attributeName="fill" to="#808080" begin="arrowLeft.mouseover" end="arrowLeft.mouseout"/>
                  </use>
                  <path fill="none" stroke="white" stroke-width="1.5" d="M0,-3.0v7 M-2.5,-0.5L0,-3.0L2.5,-0.5"/>
                </g>
        </g>
        <svg viewBox="0 0 15 15" width="100%" height="30px" preserveAspectRatio="xMaxYMin meet">
         <g id="arrow_out" transform="scale(0.3 0.3)">
          <a xlink:href="barycenter_8hpp__incl_org.svg" target="_base">
           <rect id="button" ry="5" rx="5" y="6" x="6" height="38" width="38"
                fill="#f2f5e9" fill-opacity="0.5" stroke="#606060" stroke-width="1.0"/>
           <path id="arrow"
             d="M 11.500037,31.436501 C 11.940474,20.09759 22.043105,11.32322 32.158766,21.979434 L 37.068811,17.246167 C 37.068811,17.246167 37.088388,32 37.088388,32 L 22.160133,31.978069 C 22.160133,31.978069 26.997745,27.140456 26.997745,27.140456 C 18.528582,18.264221 13.291696,25.230495 11.500037,31.436501 z"
             style="fill:#404040;"/>
          </a>
         </g>
        </svg>
</svg>
