<?xml version="1.0" encoding="UTF-8" standalone="no"?>
<!DOCTYPE svg PUBLIC "-//W3C//DTD SVG 1.1//EN"
 "http://www.w3.org/Graphics/SVG/1.1/DTD/svg11.dtd">
<!-- Generated by graphviz version 2.43.0 (0)
 -->
<!-- Title: src/mapping/impl/BasisFunctions.hpp Pages: 1 -->
<svg width="1228pt" height="666pt"
 viewBox="0.00 0.00 1228.00 666.00" xmlns="http://www.w3.org/2000/svg" xmlns:xlink="http://www.w3.org/1999/xlink">
<g id="graph0" class="graph" transform="scale(1 1) rotate(0) translate(4 662)">
<title>src/mapping/impl/BasisFunctions.hpp</title>
<polygon fill="white" stroke="transparent" points="-4,4 -4,-662 1224,-662 1224,4 -4,4"/>
<!-- Node1 -->
<g id="node1" class="node">
<title>Node1</title>
<g id="a_node1"><a xlink:title=" ">
<polygon fill="#bfbfbf" stroke="black" points="90,-638.5 90,-657.5 288,-657.5 288,-638.5 90,-638.5"/>
<text text-anchor="middle" x="189" y="-645.5" font-family="Helvetica,sans-Serif" font-size="10.00">src/mapping/impl/BasisFunctions.hpp</text>
</a>
</g>
</g>
<!-- Node2 -->
<g id="node2" class="node">
<title>Node2</title>
<g id="a_node2"><a xlink:href="Logger_8hpp.html" target="_top" xlink:title=" ">
<polygon fill="white" stroke="black" points="475.5,-347.5 475.5,-366.5 584.5,-366.5 584.5,-347.5 475.5,-347.5"/>
<text text-anchor="middle" x="530" y="-354.5" font-family="Helvetica,sans-Serif" font-size="10.00">logging/Logger.hpp</text>
</a>
</g>
</g>
<!-- Node1&#45;&gt;Node2 -->
<g id="edge1" class="edge">
<title>Node1&#45;&gt;Node2</title>
<path fill="none" stroke="midnightblue" d="M184.01,-638.49C173.91,-620.44 152,-576.69 152,-537 152,-537 152,-537 152,-479 152,-436.51 173.32,-424.46 210,-403 252.08,-378.38 384.54,-366.45 465.25,-361.32"/>
<polygon fill="midnightblue" stroke="midnightblue" points="465.54,-364.81 475.31,-360.7 465.11,-357.83 465.54,-364.81"/>
</g>
<!-- Node28 -->
<g id="node28" class="node">
<title>Node28</title>
<g id="a_node28"><a xlink:href="math_8hpp.html" target="_top" xlink:title=" ">
<polygon fill="white" stroke="black" points="232,-582.5 232,-601.5 324,-601.5 324,-582.5 232,-582.5"/>
<text text-anchor="middle" x="278" y="-589.5" font-family="Helvetica,sans-Serif" font-size="10.00">math/math.hpp</text>
</a>
</g>
</g>
<!-- Node1&#45;&gt;Node28 -->
<g id="edge33" class="edge">
<title>Node1&#45;&gt;Node28</title>
<path fill="none" stroke="midnightblue" d="M203.3,-638.32C217.18,-629.9 238.49,-616.97 254.8,-607.07"/>
<polygon fill="midnightblue" stroke="midnightblue" points="257,-609.83 263.74,-601.65 253.37,-603.85 257,-609.83"/>
</g>
<!-- Node3 -->
<g id="node3" class="node">
<title>Node3</title>
<g id="a_node3"><a xlink:title=" ">
<polygon fill="white" stroke="#bfbfbf" points="696,-291.5 696,-310.5 754,-310.5 754,-291.5 696,-291.5"/>
<text text-anchor="middle" x="725" y="-298.5" font-family="Helvetica,sans-Serif" font-size="10.00">memory</text>
</a>
</g>
</g>
<!-- Node2&#45;&gt;Node3 -->
<g id="edge2" class="edge">
<title>Node2&#45;&gt;Node3</title>
<path fill="none" stroke="midnightblue" d="M560.9,-347.44C594.76,-338.07 649.17,-323 685.96,-312.81"/>
<polygon fill="midnightblue" stroke="midnightblue" points="687.14,-316.12 695.84,-310.08 685.27,-309.37 687.14,-316.12"/>
</g>
<!-- Node4 -->
<g id="node4" class="node">
<title>Node4</title>
<g id="a_node4"><a xlink:title=" ">
<polygon fill="white" stroke="#bfbfbf" points="295.5,-112.5 295.5,-131.5 368.5,-131.5 368.5,-112.5 295.5,-112.5"/>
<text text-anchor="middle" x="332" y="-119.5" font-family="Helvetica,sans-Serif" font-size="10.00">string_view</text>
</a>
</g>
</g>
<!-- Node2&#45;&gt;Node4 -->
<g id="edge3" class="edge">
<title>Node2&#45;&gt;Node4</title>
<path fill="none" stroke="midnightblue" d="M498.4,-347.45C457.48,-334.62 387.24,-306.23 352,-255 328.32,-220.58 328.07,-169.19 330,-141.79"/>
<polygon fill="midnightblue" stroke="midnightblue" points="333.5,-141.91 330.89,-131.64 326.53,-141.29 333.5,-141.91"/>
</g>
<!-- Node5 -->
<g id="node5" class="node">
<title>Node5</title>
<g id="a_node5"><a xlink:href="LogMacros_8hpp.html" target="_top" xlink:title=" ">
<polygon fill="white" stroke="black" points="491,-291.5 491,-310.5 581,-310.5 581,-291.5 491,-291.5"/>
<text text-anchor="middle" x="536" y="-298.5" font-family="Helvetica,sans-Serif" font-size="10.00">LogMacros.hpp</text>
</a>
</g>
</g>
<!-- Node2&#45;&gt;Node5 -->
<g id="edge4" class="edge">
<title>Node2&#45;&gt;Node5</title>
<path fill="none" stroke="midnightblue" d="M530.99,-347.08C531.79,-339.93 532.93,-329.64 533.92,-320.69"/>
<polygon fill="midnightblue" stroke="midnightblue" points="537.4,-321.08 535.03,-310.75 530.44,-320.3 537.4,-321.08"/>
</g>
<!-- Node6 -->
<g id="node6" class="node">
<title>Node6</title>
<g id="a_node6"><a xlink:href="fmt_8hpp.html" target="_top" xlink:title=" ">
<polygon fill="white" stroke="black" points="776.5,-174 776.5,-193 855.5,-193 855.5,-174 776.5,-174"/>
<text text-anchor="middle" x="816" y="-181" font-family="Helvetica,sans-Serif" font-size="10.00">utils/fmt.hpp</text>
</a>
</g>
</g>
<!-- Node5&#45;&gt;Node6 -->
<g id="edge5" class="edge">
<title>Node5&#45;&gt;Node6</title>
<path fill="none" stroke="midnightblue" d="M537.4,-291.25C540.16,-277.04 547.7,-249.13 566,-235 638.19,-179.28 679.31,-220.22 768,-199 771.89,-198.07 775.93,-197.01 779.94,-195.89"/>
<polygon fill="midnightblue" stroke="midnightblue" points="781.12,-199.19 789.74,-193.04 779.16,-192.47 781.12,-199.19"/>
</g>
<!-- Node21 -->
<g id="node21" class="node">
<title>Node21</title>
<g id="a_node21"><a xlink:href="ArgumentFormatter_8hpp.html" target="_top" xlink:title=" ">
<polygon fill="white" stroke="black" points="360.5,-235.5 360.5,-254.5 517.5,-254.5 517.5,-235.5 360.5,-235.5"/>
<text text-anchor="middle" x="439" y="-242.5" font-family="Helvetica,sans-Serif" font-size="10.00">utils/ArgumentFormatter.hpp</text>
</a>
</g>
</g>
<!-- Node5&#45;&gt;Node21 -->
<g id="edge24" class="edge">
<title>Node5&#45;&gt;Node21</title>
<path fill="none" stroke="midnightblue" d="M520.42,-291.32C505,-282.74 481.19,-269.49 463.29,-259.52"/>
<polygon fill="midnightblue" stroke="midnightblue" points="464.99,-256.46 454.55,-254.65 461.58,-262.58 464.99,-256.46"/>
</g>
<!-- Node27 -->
<g id="node27" class="node">
<title>Node27</title>
<g id="a_node27"><a xlink:href="Tracer_8hpp.html" target="_top" xlink:title=" ">
<polygon fill="white" stroke="black" points="574.5,-235.5 574.5,-254.5 679.5,-254.5 679.5,-235.5 574.5,-235.5"/>
<text text-anchor="middle" x="627" y="-242.5" font-family="Helvetica,sans-Serif" font-size="10.00">logging/Tracer.hpp</text>
</a>
</g>
</g>
<!-- Node5&#45;&gt;Node27 -->
<g id="edge31" class="edge">
<title>Node5&#45;&gt;Node27</title>
<path fill="none" stroke="midnightblue" d="M550.62,-291.32C564.95,-282.82 587.01,-269.73 603.75,-259.8"/>
<polygon fill="midnightblue" stroke="midnightblue" points="605.6,-262.77 612.42,-254.65 602.03,-256.75 605.6,-262.77"/>
</g>
<!-- Node6&#45;&gt;Node4 -->
<g id="edge7" class="edge">
<title>Node6&#45;&gt;Node4</title>
<path fill="none" stroke="midnightblue" d="M790.82,-173.91C783.53,-171.69 775.51,-169.51 768,-168 628.05,-139.91 459.11,-128.82 378.8,-124.9"/>
<polygon fill="midnightblue" stroke="midnightblue" points="378.68,-121.4 368.53,-124.42 378.35,-128.39 378.68,-121.4"/>
</g>
<!-- Node7 -->
<g id="node7" class="node">
<title>Node7</title>
<g id="a_node7"><a xlink:title=" ">
<polygon fill="white" stroke="#bfbfbf" points="965,-112.5 965,-131.5 1009,-131.5 1009,-112.5 965,-112.5"/>
<text text-anchor="middle" x="987" y="-119.5" font-family="Helvetica,sans-Serif" font-size="10.00">string</text>
</a>
</g>
</g>
<!-- Node6&#45;&gt;Node7 -->
<g id="edge6" class="edge">
<title>Node6&#45;&gt;Node7</title>
<path fill="none" stroke="midnightblue" d="M840.5,-173.98C870.71,-163.46 922.13,-145.57 955.32,-134.02"/>
<polygon fill="midnightblue" stroke="midnightblue" points="956.69,-137.25 964.99,-130.66 954.39,-130.64 956.69,-137.25"/>
</g>
<!-- Node8 -->
<g id="node8" class="node">
<title>Node8</title>
<g id="a_node8"><a xlink:title=" ">
<polygon fill="white" stroke="#bfbfbf" points="756.5,-56.5 756.5,-75.5 835.5,-75.5 835.5,-56.5 756.5,-56.5"/>
<text text-anchor="middle" x="796" y="-63.5" font-family="Helvetica,sans-Serif" font-size="10.00">fmt/format.h</text>
</a>
</g>
</g>
<!-- Node6&#45;&gt;Node8 -->
<g id="edge8" class="edge">
<title>Node6&#45;&gt;Node8</title>
<path fill="none" stroke="midnightblue" d="M814.5,-173.82C811.28,-155.26 803.68,-111.34 799.29,-85.97"/>
<polygon fill="midnightblue" stroke="midnightblue" points="802.68,-85.04 797.52,-75.78 795.78,-86.23 802.68,-85.04"/>
</g>
<!-- Node9 -->
<g id="node9" class="node">
<title>Node9</title>
<g id="a_node9"><a xlink:title=" ">
<polygon fill="white" stroke="#bfbfbf" points="553,-112.5 553,-131.5 639,-131.5 639,-112.5 553,-112.5"/>
<text text-anchor="middle" x="596" y="-119.5" font-family="Helvetica,sans-Serif" font-size="10.00">fmt/ostream.h</text>
</a>
</g>
</g>
<!-- Node6&#45;&gt;Node9 -->
<g id="edge9" class="edge">
<title>Node6&#45;&gt;Node9</title>
<path fill="none" stroke="midnightblue" d="M788.39,-173.96C781.72,-171.96 774.62,-169.87 768,-168 724.6,-155.77 674.73,-142.85 639.9,-134"/>
<polygon fill="midnightblue" stroke="midnightblue" points="640.6,-130.57 630.04,-131.51 638.88,-137.35 640.6,-130.57"/>
</g>
<!-- Node10 -->
<g id="node10" class="node">
<title>Node10</title>
<g id="a_node10"><a xlink:href="fmtEigen_8hpp.html" target="_top" xlink:title=" ">
<polygon fill="white" stroke="black" points="657,-112.5 657,-131.5 763,-131.5 763,-112.5 657,-112.5"/>
<text text-anchor="middle" x="710" y="-119.5" font-family="Helvetica,sans-Serif" font-size="10.00">utils/fmtEigen.hpp</text>
</a>
</g>
</g>
<!-- Node6&#45;&gt;Node10 -->
<g id="edge10" class="edge">
<title>Node6&#45;&gt;Node10</title>
<path fill="none" stroke="midnightblue" d="M800.81,-173.98C783.34,-164.17 754.42,-147.93 733.92,-136.42"/>
<polygon fill="midnightblue" stroke="midnightblue" points="735.59,-133.35 725.16,-131.51 732.17,-139.46 735.59,-133.35"/>
</g>
<!-- Node15 -->
<g id="node15" class="node">
<title>Node15</title>
<g id="a_node15"><a xlink:href="fmtSTL_8hpp.html" target="_top" xlink:title=" ">
<polygon fill="white" stroke="black" points="851,-112.5 851,-131.5 947,-131.5 947,-112.5 851,-112.5"/>
<text text-anchor="middle" x="899" y="-119.5" font-family="Helvetica,sans-Serif" font-size="10.00">utils/fmtSTL.hpp</text>
</a>
</g>
</g>
<!-- Node6&#45;&gt;Node15 -->
<g id="edge17" class="edge">
<title>Node6&#45;&gt;Node15</title>
<path fill="none" stroke="midnightblue" d="M827.89,-173.98C841.2,-164.43 863,-148.81 878.96,-137.37"/>
<polygon fill="midnightblue" stroke="midnightblue" points="881.04,-140.18 887.13,-131.51 876.96,-134.49 881.04,-140.18"/>
</g>
<!-- Node10&#45;&gt;Node8 -->
<g id="edge13" class="edge">
<title>Node10&#45;&gt;Node8</title>
<path fill="none" stroke="midnightblue" d="M723.82,-112.32C737.23,-103.9 757.82,-90.97 773.59,-81.07"/>
<polygon fill="midnightblue" stroke="midnightblue" points="775.61,-83.94 782.22,-75.65 771.89,-78.01 775.61,-83.94"/>
</g>
<!-- Node11 -->
<g id="node11" class="node">
<title>Node11</title>
<g id="a_node11"><a xlink:title=" ">
<polygon fill="white" stroke="#bfbfbf" points="458.5,-0.5 458.5,-19.5 527.5,-19.5 527.5,-0.5 458.5,-0.5"/>
<text text-anchor="middle" x="493" y="-7.5" font-family="Helvetica,sans-Serif" font-size="10.00">Eigen/Core</text>
</a>
</g>
</g>
<!-- Node10&#45;&gt;Node11 -->
<g id="edge11" class="edge">
<title>Node10&#45;&gt;Node11</title>
<path fill="none" stroke="midnightblue" d="M656.98,-112.63C589.2,-101.69 479.85,-83.07 474,-76 462.69,-62.33 471.32,-42.18 480.31,-27.95"/>
<polygon fill="midnightblue" stroke="midnightblue" points="483.28,-29.8 486.06,-19.58 477.52,-25.84 483.28,-29.8"/>
</g>
<!-- Node12 -->
<g id="node12" class="node">
<title>Node12</title>
<g id="a_node12"><a xlink:title=" ">
<polygon fill="white" stroke="#bfbfbf" points="600,-56.5 600,-75.5 664,-75.5 664,-56.5 600,-56.5"/>
<text text-anchor="middle" x="632" y="-63.5" font-family="Helvetica,sans-Serif" font-size="10.00">algorithm</text>
</a>
</g>
</g>
<!-- Node10&#45;&gt;Node12 -->
<g id="edge12" class="edge">
<title>Node10&#45;&gt;Node12</title>
<path fill="none" stroke="midnightblue" d="M697.47,-112.32C685.41,-103.98 666.97,-91.21 652.73,-81.35"/>
<polygon fill="midnightblue" stroke="midnightblue" points="654.72,-78.47 644.5,-75.65 650.73,-84.22 654.72,-78.47"/>
</g>
<!-- Node13 -->
<g id="node13" class="node">
<title>Node13</title>
<g id="a_node13"><a xlink:title=" ">
<polygon fill="white" stroke="#bfbfbf" points="682,-56.5 682,-75.5 738,-75.5 738,-56.5 682,-56.5"/>
<text text-anchor="middle" x="710" y="-63.5" font-family="Helvetica,sans-Serif" font-size="10.00">sstream</text>
</a>
</g>
</g>
<!-- Node10&#45;&gt;Node13 -->
<g id="edge14" class="edge">
<title>Node10&#45;&gt;Node13</title>
<path fill="none" stroke="midnightblue" d="M710,-112.08C710,-105.01 710,-94.86 710,-85.99"/>
<polygon fill="midnightblue" stroke="midnightblue" points="713.5,-85.75 710,-75.75 706.5,-85.75 713.5,-85.75"/>
</g>
<!-- Node14 -->
<g id="node14" class="node">
<title>Node14</title>
<g id="a_node14"><a xlink:href="EigenIO_8hpp.html" target="_top" xlink:title=" ">
<polygon fill="white" stroke="black" points="482.5,-56.5 482.5,-75.5 581.5,-75.5 581.5,-56.5 482.5,-56.5"/>
<text text-anchor="middle" x="532" y="-63.5" font-family="Helvetica,sans-Serif" font-size="10.00">utils/EigenIO.hpp</text>
</a>
</g>
</g>
<!-- Node10&#45;&gt;Node14 -->
<g id="edge15" class="edge">
<title>Node10&#45;&gt;Node14</title>
<path fill="none" stroke="midnightblue" d="M681.8,-112.44C651.59,-103.28 603.49,-88.69 569.97,-78.52"/>
<polygon fill="midnightblue" stroke="midnightblue" points="570.66,-75.07 560.07,-75.52 568.63,-81.77 570.66,-75.07"/>
</g>
<!-- Node14&#45;&gt;Node11 -->
<g id="edge16" class="edge">
<title>Node14&#45;&gt;Node11</title>
<path fill="none" stroke="midnightblue" d="M525.56,-56.08C520.05,-48.46 511.97,-37.26 505.24,-27.94"/>
<polygon fill="midnightblue" stroke="midnightblue" points="508.01,-25.81 499.32,-19.75 502.34,-29.91 508.01,-25.81"/>
</g>
<!-- Node15&#45;&gt;Node8 -->
<g id="edge20" class="edge">
<title>Node15&#45;&gt;Node8</title>
<path fill="none" stroke="midnightblue" d="M882.45,-112.32C866.01,-103.7 840.57,-90.36 821.53,-80.39"/>
<polygon fill="midnightblue" stroke="midnightblue" points="822.99,-77.2 812.51,-75.65 819.74,-83.4 822.99,-77.2"/>
</g>
<!-- Node16 -->
<g id="node16" class="node">
<title>Node16</title>
<g id="a_node16"><a xlink:title=" ">
<polygon fill="white" stroke="#bfbfbf" points="904,-56.5 904,-75.5 946,-75.5 946,-56.5 904,-56.5"/>
<text text-anchor="middle" x="925" y="-63.5" font-family="Helvetica,sans-Serif" font-size="10.00">array</text>
</a>
</g>
</g>
<!-- Node15&#45;&gt;Node16 -->
<g id="edge18" class="edge">
<title>Node15&#45;&gt;Node16</title>
<path fill="none" stroke="midnightblue" d="M903.29,-112.08C906.85,-104.69 912.02,-93.95 916.42,-84.81"/>
<polygon fill="midnightblue" stroke="midnightblue" points="919.6,-86.28 920.79,-75.75 913.29,-83.24 919.6,-86.28"/>
</g>
<!-- Node17 -->
<g id="node17" class="node">
<title>Node17</title>
<g id="a_node17"><a xlink:title=" ">
<polygon fill="white" stroke="#bfbfbf" points="964.5,-56.5 964.5,-75.5 1011.5,-75.5 1011.5,-56.5 964.5,-56.5"/>
<text text-anchor="middle" x="988" y="-63.5" font-family="Helvetica,sans-Serif" font-size="10.00">deque</text>
</a>
</g>
</g>
<!-- Node15&#45;&gt;Node17 -->
<g id="edge19" class="edge">
<title>Node15&#45;&gt;Node17</title>
<path fill="none" stroke="midnightblue" d="M913.3,-112.32C927.18,-103.9 948.49,-90.97 964.8,-81.07"/>
<polygon fill="midnightblue" stroke="midnightblue" points="967,-83.83 973.74,-75.65 963.37,-77.85 967,-83.83"/>
</g>
<!-- Node18 -->
<g id="node18" class="node">
<title>Node18</title>
<g id="a_node18"><a xlink:title=" ">
<polygon fill="white" stroke="#bfbfbf" points="1030,-56.5 1030,-75.5 1068,-75.5 1068,-56.5 1030,-56.5"/>
<text text-anchor="middle" x="1049" y="-63.5" font-family="Helvetica,sans-Serif" font-size="10.00">map</text>
</a>
</g>
</g>
<!-- Node15&#45;&gt;Node18 -->
<g id="edge21" class="edge">
<title>Node15&#45;&gt;Node18</title>
<path fill="none" stroke="midnightblue" d="M922.77,-112.44C949.11,-102.96 991.6,-87.67 1019.9,-77.47"/>
<polygon fill="midnightblue" stroke="midnightblue" points="1021.41,-80.65 1029.64,-73.97 1019.04,-74.07 1021.41,-80.65"/>
</g>
<!-- Node19 -->
<g id="node19" class="node">
<title>Node19</title>
<g id="a_node19"><a xlink:title=" ">
<polygon fill="white" stroke="#bfbfbf" points="854,-56.5 854,-75.5 886,-75.5 886,-56.5 854,-56.5"/>
<text text-anchor="middle" x="870" y="-63.5" font-family="Helvetica,sans-Serif" font-size="10.00">set</text>
</a>
</g>
</g>
<!-- Node15&#45;&gt;Node19 -->
<g id="edge22" class="edge">
<title>Node15&#45;&gt;Node19</title>
<path fill="none" stroke="midnightblue" d="M894.21,-112.08C890.24,-104.69 884.47,-93.95 879.57,-84.81"/>
<polygon fill="midnightblue" stroke="midnightblue" points="882.51,-82.91 874.7,-75.75 876.35,-86.22 882.51,-82.91"/>
</g>
<!-- Node20 -->
<g id="node20" class="node">
<title>Node20</title>
<g id="a_node20"><a xlink:title=" ">
<polygon fill="white" stroke="#bfbfbf" points="1086.5,-56.5 1086.5,-75.5 1133.5,-75.5 1133.5,-56.5 1086.5,-56.5"/>
<text text-anchor="middle" x="1110" y="-63.5" font-family="Helvetica,sans-Serif" font-size="10.00">vector</text>
</a>
</g>
</g>
<!-- Node15&#45;&gt;Node20 -->
<g id="edge23" class="edge">
<title>Node15&#45;&gt;Node20</title>
<path fill="none" stroke="midnightblue" d="M933.51,-112.48C967.37,-104.07 1020.73,-90.7 1076.21,-76.17"/>
<polygon fill="midnightblue" stroke="midnightblue" points="1077.44,-79.47 1086.22,-73.54 1075.66,-72.7 1077.44,-79.47"/>
</g>
<!-- Node21&#45;&gt;Node6 -->
<g id="edge30" class="edge">
<title>Node21&#45;&gt;Node6</title>
<path fill="none" stroke="midnightblue" d="M511.04,-235.49C592.65,-225.62 720.47,-209.36 768,-199 772.16,-198.09 776.49,-197 780.76,-195.83"/>
<polygon fill="midnightblue" stroke="midnightblue" points="781.9,-199.15 790.54,-193.01 779.96,-192.42 781.9,-199.15"/>
</g>
<!-- Node22 -->
<g id="node22" class="node">
<title>Node22</title>
<g id="a_node22"><a xlink:title=" ">
<polygon fill="white" stroke="#bfbfbf" points="66,-168.5 66,-198.5 176,-198.5 176,-168.5 66,-168.5"/>
<text text-anchor="start" x="74" y="-186.5" font-family="Helvetica,sans-Serif" font-size="10.00">boost/preprocessor</text>
<text text-anchor="middle" x="121" y="-175.5" font-family="Helvetica,sans-Serif" font-size="10.00">/control/if.hpp</text>
</a>
</g>
</g>
<!-- Node21&#45;&gt;Node22 -->
<g id="edge25" class="edge">
<title>Node21&#45;&gt;Node22</title>
<path fill="none" stroke="midnightblue" d="M386.81,-235.5C337.58,-227.31 261.47,-214.22 186.25,-199.2"/>
<polygon fill="midnightblue" stroke="midnightblue" points="186.62,-195.7 176.12,-197.16 185.24,-202.57 186.62,-195.7"/>
</g>
<!-- Node23 -->
<g id="node23" class="node">
<title>Node23</title>
<g id="a_node23"><a xlink:title=" ">
<polygon fill="white" stroke="#bfbfbf" points="514.5,-168.5 514.5,-198.5 625.5,-198.5 625.5,-168.5 514.5,-168.5"/>
<text text-anchor="start" x="522.5" y="-186.5" font-family="Helvetica,sans-Serif" font-size="10.00">boost/preprocessor</text>
<text text-anchor="middle" x="570" y="-175.5" font-family="Helvetica,sans-Serif" font-size="10.00">/seq/for_each_i.hpp</text>
</a>
</g>
</g>
<!-- Node21&#45;&gt;Node23 -->
<g id="edge26" class="edge">
<title>Node21&#45;&gt;Node23</title>
<path fill="none" stroke="midnightblue" d="M457.77,-235.48C476.51,-226.96 505.89,-213.62 529.89,-202.72"/>
<polygon fill="midnightblue" stroke="midnightblue" points="531.47,-205.85 539.13,-198.52 528.57,-199.47 531.47,-205.85"/>
</g>
<!-- Node24 -->
<g id="node24" class="node">
<title>Node24</title>
<g id="a_node24"><a xlink:title=" ">
<polygon fill="white" stroke="#bfbfbf" points="194,-168.5 194,-198.5 304,-198.5 304,-168.5 194,-168.5"/>
<text text-anchor="start" x="202" y="-186.5" font-family="Helvetica,sans-Serif" font-size="10.00">boost/preprocessor</text>
<text text-anchor="middle" x="249" y="-175.5" font-family="Helvetica,sans-Serif" font-size="10.00">/stringize.hpp</text>
</a>
</g>
</g>
<!-- Node21&#45;&gt;Node24 -->
<g id="edge27" class="edge">
<title>Node21&#45;&gt;Node24</title>
<path fill="none" stroke="midnightblue" d="M411.78,-235.48C383.64,-226.66 338.95,-212.67 303.51,-201.57"/>
<polygon fill="midnightblue" stroke="midnightblue" points="304.37,-198.17 293.78,-198.52 302.28,-204.85 304.37,-198.17"/>
</g>
<!-- Node25 -->
<g id="node25" class="node">
<title>Node25</title>
<g id="a_node25"><a xlink:title=" ">
<polygon fill="white" stroke="#bfbfbf" points="643.5,-168.5 643.5,-198.5 758.5,-198.5 758.5,-168.5 643.5,-168.5"/>
<text text-anchor="start" x="651.5" y="-186.5" font-family="Helvetica,sans-Serif" font-size="10.00">boost/preprocessor</text>
<text text-anchor="middle" x="701" y="-175.5" font-family="Helvetica,sans-Serif" font-size="10.00">/variadic/to_seq.hpp</text>
</a>
</g>
</g>
<!-- Node21&#45;&gt;Node25 -->
<g id="edge28" class="edge">
<title>Node21&#45;&gt;Node25</title>
<path fill="none" stroke="midnightblue" d="M476.54,-235.48C517.39,-226.2 583.56,-211.17 633.49,-199.83"/>
<polygon fill="midnightblue" stroke="midnightblue" points="634.27,-203.24 643.25,-197.62 632.72,-196.42 634.27,-203.24"/>
</g>
<!-- Node26 -->
<g id="node26" class="node">
<title>Node26</title>
<g id="a_node26"><a xlink:title=" ">
<polygon fill="white" stroke="#bfbfbf" points="360,-174 360,-193 496,-193 496,-174 360,-174"/>
<text text-anchor="middle" x="428" y="-181" font-family="Helvetica,sans-Serif" font-size="10.00">boost/vmd/is_empty.hpp</text>
</a>
</g>
</g>
<!-- Node21&#45;&gt;Node26 -->
<g id="edge29" class="edge">
<title>Node21&#45;&gt;Node26</title>
<path fill="none" stroke="midnightblue" d="M437.42,-235.48C435.87,-227.08 433.45,-213.98 431.45,-203.16"/>
<polygon fill="midnightblue" stroke="midnightblue" points="434.83,-202.21 429.57,-193.01 427.95,-203.48 434.83,-202.21"/>
</g>
<!-- Node27&#45;&gt;Node2 -->
<g id="edge32" class="edge">
<title>Node27&#45;&gt;Node2</title>
<path fill="none" stroke="midnightblue" d="M623.43,-254.71C617.73,-267.9 605.63,-293.27 590,-311 579.43,-322.99 565.21,-333.82 553.26,-341.86"/>
<polygon fill="midnightblue" stroke="midnightblue" points="551.16,-339.05 544.67,-347.43 554.97,-344.92 551.16,-339.05"/>
</g>
<!-- Node29 -->
<g id="node29" class="node">
<title>Node29</title>
<g id="a_node29"><a xlink:href="constants_8hpp.html" target="_top" xlink:title=" ">
<polygon fill="white" stroke="black" points="273.5,-526.5 273.5,-545.5 386.5,-545.5 386.5,-526.5 273.5,-526.5"/>
<text text-anchor="middle" x="330" y="-533.5" font-family="Helvetica,sans-Serif" font-size="10.00">math/constants.hpp</text>
</a>
</g>
</g>
<!-- Node28&#45;&gt;Node29 -->
<g id="edge34" class="edge">
<title>Node28&#45;&gt;Node29</title>
<path fill="none" stroke="midnightblue" d="M286.59,-582.08C294.16,-574.22 305.38,-562.57 314.51,-553.08"/>
<polygon fill="midnightblue" stroke="midnightblue" points="317.16,-555.38 321.57,-545.75 312.12,-550.53 317.16,-555.38"/>
</g>
<!-- Node30 -->
<g id="node30" class="node">
<title>Node30</title>
<g id="a_node30"><a xlink:href="differences_8hpp.html" target="_top" xlink:title=" ">
<polygon fill="white" stroke="black" points="405,-526.5 405,-545.5 525,-545.5 525,-526.5 405,-526.5"/>
<text text-anchor="middle" x="465" y="-533.5" font-family="Helvetica,sans-Serif" font-size="10.00">math/differences.hpp</text>
</a>
</g>
</g>
<!-- Node28&#45;&gt;Node30 -->
<g id="edge35" class="edge">
<title>Node28&#45;&gt;Node30</title>
<path fill="none" stroke="midnightblue" d="M307.63,-582.44C339.5,-573.24 390.33,-558.56 425.56,-548.39"/>
<polygon fill="midnightblue" stroke="midnightblue" points="426.87,-551.65 435.51,-545.52 424.93,-544.93 426.87,-551.65"/>
</g>
<!-- Node44 -->
<g id="node44" class="node">
<title>Node44</title>
<g id="a_node44"><a xlink:href="la_8hpp.html" target="_top" xlink:title=" ">
<polygon fill="white" stroke="black" points="180.5,-526.5 180.5,-545.5 255.5,-545.5 255.5,-526.5 180.5,-526.5"/>
<text text-anchor="middle" x="218" y="-533.5" font-family="Helvetica,sans-Serif" font-size="10.00">math/la.hpp</text>
</a>
</g>
</g>
<!-- Node28&#45;&gt;Node44 -->
<g id="edge60" class="edge">
<title>Node28&#45;&gt;Node44</title>
<path fill="none" stroke="midnightblue" d="M268.36,-582.32C259.49,-574.34 246.13,-562.31 235.39,-552.65"/>
<polygon fill="midnightblue" stroke="midnightblue" points="237.59,-549.92 227.82,-545.83 232.91,-555.13 237.59,-549.92"/>
</g>
<!-- Node30&#45;&gt;Node11 -->
<g id="edge36" class="edge">
<title>Node30&#45;&gt;Node11</title>
<path fill="none" stroke="midnightblue" d="M525.19,-532.12C704.06,-522.75 1220,-489.65 1220,-419.5 1220,-419.5 1220,-419.5 1220,-121 1220,-76.21 1184.51,-72.82 1143,-56 1033,-11.41 666.57,-9.69 538.03,-10.51"/>
<polygon fill="midnightblue" stroke="midnightblue" points="537.74,-7.02 527.77,-10.59 537.79,-14.01 537.74,-7.02"/>
</g>
<!-- Node31 -->
<g id="node31" class="node">
<title>Node31</title>
<g id="a_node31"><a xlink:href="assertion_8hpp.html" target="_top" xlink:title=" ">
<polygon fill="white" stroke="black" points="384.5,-470.5 384.5,-489.5 491.5,-489.5 491.5,-470.5 384.5,-470.5"/>
<text text-anchor="middle" x="438" y="-477.5" font-family="Helvetica,sans-Serif" font-size="10.00">utils/assertion.hpp</text>
</a>
</g>
</g>
<!-- Node30&#45;&gt;Node31 -->
<g id="edge37" class="edge">
<title>Node30&#45;&gt;Node31</title>
<path fill="none" stroke="midnightblue" d="M460.54,-526.08C456.85,-518.69 451.48,-507.95 446.91,-498.81"/>
<polygon fill="midnightblue" stroke="midnightblue" points="449.98,-497.13 442.38,-489.75 443.72,-500.26 449.98,-497.13"/>
</g>
<!-- Node31&#45;&gt;Node4 -->
<g id="edge40" class="edge">
<title>Node31&#45;&gt;Node4</title>
<path fill="none" stroke="midnightblue" d="M384.28,-477.65C298.24,-474.59 134.32,-464.79 86,-434 52.31,-412.53 38,-397.95 38,-358 38,-358 38,-358 38,-244 38,-209.18 31.38,-191.58 57,-168 89.5,-138.08 215.58,-127.95 285.19,-124.6"/>
<polygon fill="midnightblue" stroke="midnightblue" points="285.61,-128.08 295.44,-124.13 285.29,-121.09 285.61,-128.08"/>
</g>
<!-- Node31&#45;&gt;Node6 -->
<g id="edge41" class="edge">
<title>Node31&#45;&gt;Node6</title>
<path fill="none" stroke="midnightblue" d="M491.65,-477.97C622.43,-474.98 949.75,-464.5 988,-434 1015.69,-411.91 1012,-393.42 1012,-358 1012,-358 1012,-358 1012,-300 1012,-232.19 923.84,-203.38 865.77,-191.77"/>
<polygon fill="midnightblue" stroke="midnightblue" points="866.14,-188.27 855.66,-189.85 864.84,-195.15 866.14,-188.27"/>
</g>
<!-- Node31&#45;&gt;Node21 -->
<g id="edge47" class="edge">
<title>Node31&#45;&gt;Node21</title>
<path fill="none" stroke="midnightblue" d="M384.4,-476.07C324.08,-471.51 231.65,-460.34 210,-434 144.77,-354.64 320.68,-284.69 401.19,-257.76"/>
<polygon fill="midnightblue" stroke="midnightblue" points="402.57,-260.99 410.97,-254.54 400.38,-254.34 402.57,-260.99"/>
</g>
<!-- Node31&#45;&gt;Node22 -->
<g id="edge44" class="edge">
<title>Node31&#45;&gt;Node22</title>
<path fill="none" stroke="midnightblue" d="M384.29,-476.21C307.66,-471.38 171.6,-459.45 130,-434 94.65,-412.38 76,-399.44 76,-358 76,-358 76,-358 76,-300 76,-266.11 93.03,-230.2 106.14,-207.59"/>
<polygon fill="midnightblue" stroke="midnightblue" points="109.3,-209.13 111.46,-198.75 103.3,-205.52 109.3,-209.13"/>
</g>
<!-- Node31&#45;&gt;Node24 -->
<g id="edge45" class="edge">
<title>Node31&#45;&gt;Node24</title>
<path fill="none" stroke="midnightblue" d="M384.02,-477.94C332.38,-474.95 253.61,-465.08 193,-434 149.65,-411.77 114,-406.72 114,-358 114,-358 114,-358 114,-300 114,-253.08 161.66,-221.14 200.35,-202.95"/>
<polygon fill="midnightblue" stroke="midnightblue" points="202.27,-205.92 209.95,-198.61 199.4,-199.53 202.27,-205.92"/>
</g>
<!-- Node32 -->
<g id="node32" class="node">
<title>Node32</title>
<g id="a_node32"><a xlink:title=" ">
<polygon fill="white" stroke="#bfbfbf" points="218.5,-409 218.5,-428 267.5,-428 267.5,-409 218.5,-409"/>
<text text-anchor="middle" x="243" y="-416" font-family="Helvetica,sans-Serif" font-size="10.00">cstdlib</text>
</a>
</g>
</g>
<!-- Node31&#45;&gt;Node32 -->
<g id="edge38" class="edge">
<title>Node31&#45;&gt;Node32</title>
<path fill="none" stroke="midnightblue" d="M402.41,-470.48C369.51,-462.26 319.44,-448.91 277,-434 275.14,-433.35 273.23,-432.64 271.32,-431.9"/>
<polygon fill="midnightblue" stroke="midnightblue" points="272.47,-428.59 261.89,-428.07 269.84,-435.08 272.47,-428.59"/>
</g>
<!-- Node33 -->
<g id="node33" class="node">
<title>Node33</title>
<g id="a_node33"><a xlink:title=" ">
<polygon fill="white" stroke="#bfbfbf" points="286,-409 286,-428 346,-428 346,-409 286,-409"/>
<text text-anchor="middle" x="316" y="-416" font-family="Helvetica,sans-Serif" font-size="10.00">iostream</text>
</a>
</g>
</g>
<!-- Node31&#45;&gt;Node33 -->
<g id="edge39" class="edge">
<title>Node31&#45;&gt;Node33</title>
<path fill="none" stroke="midnightblue" d="M420.52,-470.48C400.14,-460.53 366.22,-443.99 342.58,-432.46"/>
<polygon fill="midnightblue" stroke="midnightblue" points="343.97,-429.25 333.45,-428.01 340.9,-435.54 343.97,-429.25"/>
</g>
<!-- Node34 -->
<g id="node34" class="node">
<title>Node34</title>
<g id="a_node34"><a xlink:title=" ">
<polygon fill="white" stroke="#bfbfbf" points="364.5,-409 364.5,-428 511.5,-428 511.5,-409 364.5,-409"/>
<text text-anchor="middle" x="438" y="-416" font-family="Helvetica,sans-Serif" font-size="10.00">boost/current_function.hpp</text>
</a>
</g>
</g>
<!-- Node31&#45;&gt;Node34 -->
<g id="edge42" class="edge">
<title>Node31&#45;&gt;Node34</title>
<path fill="none" stroke="midnightblue" d="M438,-470.48C438,-462.08 438,-448.98 438,-438.16"/>
<polygon fill="midnightblue" stroke="midnightblue" points="441.5,-438.01 438,-428.01 434.5,-438.01 441.5,-438.01"/>
</g>
<!-- Node35 -->
<g id="node35" class="node">
<title>Node35</title>
<g id="a_node35"><a xlink:title=" ">
<polygon fill="white" stroke="#bfbfbf" points="529.5,-403.5 529.5,-433.5 664.5,-433.5 664.5,-403.5 529.5,-403.5"/>
<text text-anchor="start" x="537.5" y="-421.5" font-family="Helvetica,sans-Serif" font-size="10.00">boost/preprocessor</text>
<text text-anchor="middle" x="597" y="-410.5" font-family="Helvetica,sans-Serif" font-size="10.00">/comparison/greater.hpp</text>
</a>
</g>
</g>
<!-- Node31&#45;&gt;Node35 -->
<g id="edge43" class="edge">
<title>Node31&#45;&gt;Node35</title>
<path fill="none" stroke="midnightblue" d="M460.78,-470.48C483.93,-461.81 520.45,-448.15 549.86,-437.14"/>
<polygon fill="midnightblue" stroke="midnightblue" points="551.39,-440.31 559.53,-433.52 548.93,-433.75 551.39,-440.31"/>
</g>
<!-- Node36 -->
<g id="node36" class="node">
<title>Node36</title>
<g id="a_node36"><a xlink:title=" ">
<polygon fill="white" stroke="#bfbfbf" points="683,-403.5 683,-433.5 793,-433.5 793,-403.5 683,-403.5"/>
<text text-anchor="start" x="691" y="-421.5" font-family="Helvetica,sans-Serif" font-size="10.00">boost/preprocessor</text>
<text text-anchor="middle" x="738" y="-410.5" font-family="Helvetica,sans-Serif" font-size="10.00">/variadic/size.hpp</text>
</a>
</g>
</g>
<!-- Node31&#45;&gt;Node36 -->
<g id="edge46" class="edge">
<title>Node31&#45;&gt;Node36</title>
<path fill="none" stroke="midnightblue" d="M485.56,-470.43C531.14,-462.1 602.14,-448.84 672.89,-434.19"/>
<polygon fill="midnightblue" stroke="midnightblue" points="673.79,-437.58 682.87,-432.12 672.36,-430.73 673.79,-437.58"/>
</g>
<!-- Node37 -->
<g id="node37" class="node">
<title>Node37</title>
<g id="a_node37"><a xlink:href="Parallel_8hpp.html" target="_top" xlink:title=" ">
<polygon fill="white" stroke="black" points="881,-409 881,-428 979,-428 979,-409 881,-409"/>
<text text-anchor="middle" x="930" y="-416" font-family="Helvetica,sans-Serif" font-size="10.00">utils/Parallel.hpp</text>
</a>
</g>
</g>
<!-- Node31&#45;&gt;Node37 -->
<g id="edge48" class="edge">
<title>Node31&#45;&gt;Node37</title>
<path fill="none" stroke="midnightblue" d="M491.79,-475.88C574.14,-470.55 736.22,-457.89 872,-434 877.56,-433.02 883.37,-431.81 889.08,-430.5"/>
<polygon fill="midnightblue" stroke="midnightblue" points="890.27,-433.81 899.17,-428.07 888.63,-427 890.27,-433.81"/>
</g>
<!-- Node42 -->
<g id="node42" class="node">
<title>Node42</title>
<g id="a_node42"><a xlink:href="stacktrace_8hpp.html" target="_top" xlink:title=" ">
<polygon fill="white" stroke="black" points="1078.5,-291.5 1078.5,-310.5 1191.5,-310.5 1191.5,-291.5 1078.5,-291.5"/>
<text text-anchor="middle" x="1135" y="-298.5" font-family="Helvetica,sans-Serif" font-size="10.00">utils/stacktrace.hpp</text>
</a>
</g>
</g>
<!-- Node31&#45;&gt;Node42 -->
<g id="edge57" class="edge">
<title>Node31&#45;&gt;Node42</title>
<path fill="none" stroke="midnightblue" d="M491.67,-477.28C627.83,-472.59 979.25,-458.25 1026,-434 1075.32,-408.42 1110.74,-349.8 1126.25,-320.04"/>
<polygon fill="midnightblue" stroke="midnightblue" points="1129.53,-321.33 1130.9,-310.82 1123.28,-318.18 1129.53,-321.33"/>
</g>
<!-- Node43 -->
<g id="node43" class="node">
<title>Node43</title>
<g id="a_node43"><a xlink:title=" ">
<polygon fill="white" stroke="#bfbfbf" points="811,-409 811,-428 863,-428 863,-409 811,-409"/>
<text text-anchor="middle" x="837" y="-416" font-family="Helvetica,sans-Serif" font-size="10.00">cassert</text>
</a>
</g>
</g>
<!-- Node31&#45;&gt;Node43 -->
<g id="edge59" class="edge">
<title>Node31&#45;&gt;Node43</title>
<path fill="none" stroke="midnightblue" d="M491.59,-476.89C563.35,-473.04 694.1,-462.46 802,-434 804.45,-433.35 806.95,-432.57 809.44,-431.72"/>
<polygon fill="midnightblue" stroke="midnightblue" points="810.71,-434.98 818.79,-428.13 808.2,-428.44 810.71,-434.98"/>
</g>
<!-- Node37&#45;&gt;Node2 -->
<g id="edge54" class="edge">
<title>Node37&#45;&gt;Node2</title>
<path fill="none" stroke="midnightblue" d="M898.54,-408.93C889.98,-406.79 880.67,-404.64 872,-403 752.69,-380.44 719.16,-383.5 594.72,-367.07"/>
<polygon fill="midnightblue" stroke="midnightblue" points="595.18,-363.6 584.81,-365.75 594.26,-370.54 595.18,-363.6"/>
</g>
<!-- Node37&#45;&gt;Node3 -->
<g id="edge50" class="edge">
<title>Node37&#45;&gt;Node3</title>
<path fill="none" stroke="midnightblue" d="M906.39,-408.83C882.63,-399.72 845.28,-384.32 815,-367 788.93,-352.09 761.25,-331.24 743.58,-317.22"/>
<polygon fill="midnightblue" stroke="midnightblue" points="745.3,-314.11 735.31,-310.57 740.91,-319.56 745.3,-314.11"/>
</g>
<!-- Node37&#45;&gt;Node7 -->
<g id="edge52" class="edge">
<title>Node37&#45;&gt;Node7</title>
<path fill="none" stroke="midnightblue" d="M935.75,-408.94C947.68,-390.34 974,-344.49 974,-302 974,-302 974,-302 974,-244 974,-207.69 979.86,-165.59 983.71,-141.85"/>
<polygon fill="midnightblue" stroke="midnightblue" points="987.2,-142.21 985.41,-131.77 980.3,-141.05 987.2,-142.21"/>
</g>
<!-- Node37&#45;&gt;Node20 -->
<g id="edge53" class="edge">
<title>Node37&#45;&gt;Node20</title>
<path fill="none" stroke="midnightblue" d="M950.9,-408.89C985.28,-393.17 1050,-356.36 1050,-302 1050,-302 1050,-302 1050,-182.5 1050,-143.57 1077.17,-104.74 1094.94,-83.49"/>
<polygon fill="midnightblue" stroke="midnightblue" points="1097.74,-85.61 1101.66,-75.76 1092.46,-81.02 1097.74,-85.61"/>
</g>
<!-- Node38 -->
<g id="node38" class="node">
<title>Node38</title>
<g id="a_node38"><a xlink:title=" ">
<polygon fill="white" stroke="#bfbfbf" points="824,-347.5 824,-366.5 872,-366.5 872,-347.5 824,-347.5"/>
<text text-anchor="middle" x="848" y="-354.5" font-family="Helvetica,sans-Serif" font-size="10.00">iosfwd</text>
</a>
</g>
</g>
<!-- Node37&#45;&gt;Node38 -->
<g id="edge49" class="edge">
<title>Node37&#45;&gt;Node38</title>
<path fill="none" stroke="midnightblue" d="M918.25,-408.98C905.22,-399.52 883.96,-384.1 868.24,-372.69"/>
<polygon fill="midnightblue" stroke="midnightblue" points="869.88,-369.55 859.73,-366.51 865.77,-375.21 869.88,-369.55"/>
</g>
<!-- Node39 -->
<g id="node39" class="node">
<title>Node39</title>
<g id="a_node39"><a xlink:title=" ">
<polygon fill="white" stroke="#bfbfbf" points="890,-347.5 890,-366.5 946,-366.5 946,-347.5 890,-347.5"/>
<text text-anchor="middle" x="918" y="-354.5" font-family="Helvetica,sans-Serif" font-size="10.00">optional</text>
</a>
</g>
</g>
<!-- Node37&#45;&gt;Node39 -->
<g id="edge51" class="edge">
<title>Node37&#45;&gt;Node39</title>
<path fill="none" stroke="midnightblue" d="M928.28,-408.98C926.57,-400.49 923.89,-387.2 921.7,-376.32"/>
<polygon fill="midnightblue" stroke="midnightblue" points="925.12,-375.62 919.72,-366.51 918.26,-377 925.12,-375.62"/>
</g>
<!-- Node40 -->
<g id="node40" class="node">
<title>Node40</title>
<g id="a_node40"><a xlink:href="types_8hpp.html" target="_top" xlink:title=" ">
<polygon fill="white" stroke="black" points="602.5,-347.5 602.5,-366.5 705.5,-366.5 705.5,-347.5 602.5,-347.5"/>
<text text-anchor="middle" x="654" y="-354.5" font-family="Helvetica,sans-Serif" font-size="10.00">precice/types.hpp</text>
</a>
</g>
</g>
<!-- Node37&#45;&gt;Node40 -->
<g id="edge55" class="edge">
<title>Node37&#45;&gt;Node40</title>
<path fill="none" stroke="midnightblue" d="M896.93,-408.98C888.8,-406.96 880.1,-404.85 872,-403 816.25,-390.28 752.11,-377.23 707.91,-368.48"/>
<polygon fill="midnightblue" stroke="midnightblue" points="708.45,-365.02 697.96,-366.52 707.09,-371.89 708.45,-365.02"/>
</g>
<!-- Node41 -->
<g id="node41" class="node">
<title>Node41</title>
<g id="a_node41"><a xlink:title=" ">
<polygon fill="white" stroke="#bfbfbf" points="724,-347.5 724,-366.5 768,-366.5 768,-347.5 724,-347.5"/>
<text text-anchor="middle" x="746" y="-354.5" font-family="Helvetica,sans-Serif" font-size="10.00">mpi.h</text>
</a>
</g>
</g>
<!-- Node37&#45;&gt;Node41 -->
<g id="edge56" class="edge">
<title>Node37&#45;&gt;Node41</title>
<path fill="none" stroke="midnightblue" d="M903.64,-408.98C870.54,-398.27 813.78,-379.92 778.16,-368.4"/>
<polygon fill="midnightblue" stroke="midnightblue" points="778.86,-364.95 768.27,-365.2 776.71,-371.61 778.86,-364.95"/>
</g>
<!-- Node42&#45;&gt;Node7 -->
<g id="edge58" class="edge">
<title>Node42&#45;&gt;Node7</title>
<path fill="none" stroke="midnightblue" d="M1127.86,-291.46C1104.77,-263.85 1031.8,-176.58 1000.97,-139.71"/>
<polygon fill="midnightblue" stroke="midnightblue" points="1003.52,-137.29 994.42,-131.87 998.14,-141.79 1003.52,-137.29"/>
</g>
<!-- Node44&#45;&gt;Node11 -->
<g id="edge61" class="edge">
<title>Node44&#45;&gt;Node11</title>
<path fill="none" stroke="midnightblue" d="M188.6,-526.43C129.09,-507.08 0,-454.04 0,-358 0,-358 0,-358 0,-121 0,-29.61 326.79,-14.12 448.25,-11.52"/>
<polygon fill="midnightblue" stroke="midnightblue" points="448.4,-15.01 458.33,-11.32 448.27,-8.02 448.4,-15.01"/>
</g>
<!-- Node44&#45;&gt;Node31 -->
<g id="edge62" class="edge">
<title>Node44&#45;&gt;Node31</title>
<path fill="none" stroke="midnightblue" d="M252.86,-526.44C290.92,-517.1 351.96,-502.12 393.46,-491.93"/>
<polygon fill="midnightblue" stroke="midnightblue" points="394.43,-495.3 403.3,-489.52 392.76,-488.5 394.43,-495.3"/>
</g>
</g>
</svg>
