<?xml version="1.0" encoding="UTF-8" standalone="no"?>
<!DOCTYPE svg PUBLIC "-//W3C//DTD SVG 1.1//EN"
 "http://www.w3.org/Graphics/SVG/1.1/DTD/svg11.dtd">
<!-- Generated by graphviz version 2.43.0 (0)
 -->
<!-- Title: src/mesh/BoundingBox.hpp Pages: 1 -->
<!--zoomable 666 -->
<svg id="main" version="1.1" xmlns="http://www.w3.org/2000/svg" xmlns:xlink="http://www.w3.org/1999/xlink" xml:space="preserve" onload="init(evt)">
<style type="text/css"><![CDATA[
.edge:hover path { stroke: red; }
.edge:hover polygon { stroke: red; fill: red; }
]]></style>
<script type="text/javascript"><![CDATA[
var edges = document.getElementsByTagName('g');
if (edges && edges.length) {
  for (var i=0;i<edges.length;i++) {
    if (edges[i].id.substr(0,4)=='edge') {
      edges[i].setAttribute('class','edge');
    }
  }
}
]]></script>
        <defs>
                <circle id="rim" cx="0" cy="0" r="7"/>
                <circle id="rim2" cx="0" cy="0" r="3.5"/>
                <g id="zoomPlus">
                        <use xlink:href="#rim" fill="#404040">
                                <set attributeName="fill" to="#808080" begin="zoomplus.mouseover" end="zoomplus.mouseout"/>
                        </use>
                        <path d="M-4,0h8M0,-4v8" fill="none" stroke="white" stroke-width="1.5" pointer-events="none"/>
                </g>
                <g id="zoomMin">
                        <use xlink:href="#rim" fill="#404040">
                                <set attributeName="fill" to="#808080" begin="zoomminus.mouseover" end="zoomminus.mouseout"/>
                        </use>
                        <path d="M-4,0h8" fill="none" stroke="white" stroke-width="1.5" pointer-events="none"/>
                </g>
                <g id="dirArrow">
                        <path fill="none" stroke="white" stroke-width="1.5" d="M0,-3.0v7 M-2.5,-0.5L0,-3.0L2.5,-0.5"/>
                </g>
               <g id="resetDef">
                       <use xlink:href="#rim2" fill="#404040">
                               <set attributeName="fill" to="#808080" begin="reset.mouseover" end="reset.mouseout"/>
                       </use>
               </g>
        </defs>

<script type="text/javascript">
var viewWidth = 1384;
var viewHeight = 666;
var sectionId = 'dynsection-0';
</script>
<script xlink:href="svgpan.js"/>
<svg id="graph" class="graph">
<g id="viewport">
<title>src/mesh/BoundingBox.hpp</title>
<polygon fill="white" stroke="transparent" points="-4,4 -4,-662 1379.78,-662 1379.78,4 -4,4"/>
<!-- Node1 -->
<g id="node1" class="node">
<title>Node1</title>
<g id="a_node1"><a xlink:title=" ">
<polygon fill="#bfbfbf" stroke="black" points="20.5,-638.5 20.5,-657.5 169.5,-657.5 169.5,-638.5 20.5,-638.5"/>
<text text-anchor="middle" x="95" y="-645.5" font-family="Helvetica,sans-Serif" font-size="10.00">src/mesh/BoundingBox.hpp</text>
</a>
</g>
</g>
<!-- Node2 -->
<g id="node2" class="node">
<title>Node2</title>
<g id="a_node2"><a xlink:title=" ">
<polygon fill="white" stroke="#bfbfbf" points="627.5,-0.5 627.5,-19.5 696.5,-19.5 696.5,-0.5 627.5,-0.5"/>
<text text-anchor="middle" x="662" y="-7.5" font-family="Helvetica,sans-Serif" font-size="10.00">Eigen/Core</text>
</a>
</g>
</g>
<!-- Node1&#45;&gt;Node2 -->
<g id="edge1" class="edge">
<title>Node1&#45;&gt;Node2</title>
<path fill="none" stroke="midnightblue" d="M79.31,-638.4C52.33,-622.31 0,-584.94 0,-537 0,-537 0,-537 0,-121 0,-47.53 80.74,-73.9 152,-56 319.92,-13.83 527.57,-9.78 617.27,-10.25"/>
<polygon fill="midnightblue" stroke="midnightblue" points="617.33,-13.76 627.36,-10.33 617.39,-6.76 617.33,-13.76"/>
</g>
<!-- Node3 -->
<g id="node3" class="node">
<title>Node3</title>
<g id="a_node3"><a xlink:title=" ">
<polygon fill="white" stroke="#bfbfbf" points="218,-112.5 218,-131.5 304,-131.5 304,-112.5 218,-112.5"/>
<text text-anchor="middle" x="261" y="-119.5" font-family="Helvetica,sans-Serif" font-size="10.00">fmt/ostream.h</text>
</a>
</g>
</g>
<!-- Node1&#45;&gt;Node3 -->
<g id="edge2" class="edge">
<title>Node1&#45;&gt;Node3</title>
<path fill="none" stroke="midnightblue" d="M97.56,-638.25C102.75,-619.74 114,-575.18 114,-537 114,-537 114,-537 114,-300 114,-223.87 195.47,-162.99 237.11,-136.85"/>
<polygon fill="midnightblue" stroke="midnightblue" points="239.12,-139.73 245.82,-131.53 235.46,-133.76 239.12,-139.73"/>
</g>
<!-- Node4 -->
<g id="node4" class="node">
<title>Node4</title>
<g id="a_node4"><a xlink:title=" ">
<polygon fill="white" stroke="#bfbfbf" points="180,-347.5 180,-366.5 228,-366.5 228,-347.5 180,-347.5"/>
<text text-anchor="middle" x="204" y="-354.5" font-family="Helvetica,sans-Serif" font-size="10.00">iosfwd</text>
</a>
</g>
</g>
<!-- Node1&#45;&gt;Node4 -->
<g id="edge3" class="edge">
<title>Node1&#45;&gt;Node4</title>
<path fill="none" stroke="midnightblue" d="M92.44,-638.25C87.25,-619.74 76,-575.18 76,-537 76,-537 76,-537 76,-479 76,-425.58 135.61,-388.72 173.47,-370.7"/>
<polygon fill="midnightblue" stroke="midnightblue" points="174.94,-373.87 182.58,-366.52 172.03,-367.51 174.94,-373.87"/>
</g>
<!-- Node5 -->
<g id="node5" class="node">
<title>Node5</title>
<g id="a_node5"><a xlink:title=" ">
<polygon fill="white" stroke="#bfbfbf" points="180.5,-56.5 180.5,-75.5 227.5,-75.5 227.5,-56.5 180.5,-56.5"/>
<text text-anchor="middle" x="204" y="-63.5" font-family="Helvetica,sans-Serif" font-size="10.00">vector</text>
</a>
</g>
</g>
<!-- Node1&#45;&gt;Node5 -->
<g id="edge4" class="edge">
<title>Node1&#45;&gt;Node5</title>
<path fill="none" stroke="midnightblue" d="M86.83,-638.38C71.07,-620.81 38,-578.94 38,-537 38,-537 38,-537 38,-182.5 38,-118.58 121.95,-87.16 170.45,-74.34"/>
<polygon fill="midnightblue" stroke="midnightblue" points="171.37,-77.72 180.22,-71.89 169.66,-70.93 171.37,-77.72"/>
</g>
<!-- Node6 -->
<g id="node6" class="node">
<title>Node6</title>
<g id="a_node6"><a xlink:href="Logger_8hpp.html" target="_top" xlink:title=" ">
<polygon fill="white" stroke="black" points="406.5,-347.5 406.5,-366.5 515.5,-366.5 515.5,-347.5 406.5,-347.5"/>
<text text-anchor="middle" x="461" y="-354.5" font-family="Helvetica,sans-Serif" font-size="10.00">logging/Logger.hpp</text>
</a>
</g>
</g>
<!-- Node1&#45;&gt;Node6 -->
<g id="edge5" class="edge">
<title>Node1&#45;&gt;Node6</title>
<path fill="none" stroke="midnightblue" d="M101.31,-638.48C132.9,-595.79 272.72,-407.15 279,-403 313.76,-380.05 359.25,-368.8 396.05,-363.29"/>
<polygon fill="midnightblue" stroke="midnightblue" points="396.76,-366.72 406.18,-361.88 395.8,-359.79 396.76,-366.72"/>
</g>
<!-- Node29 -->
<g id="node29" class="node">
<title>Node29</title>
<g id="a_node29"><a xlink:href="Vertex_8hpp.html" target="_top" xlink:title=" ">
<polygon fill="white" stroke="black" points="1088.5,-582.5 1088.5,-601.5 1187.5,-601.5 1187.5,-582.5 1088.5,-582.5"/>
<text text-anchor="middle" x="1138" y="-589.5" font-family="Helvetica,sans-Serif" font-size="10.00">mesh/Vertex.hpp</text>
</a>
</g>
</g>
<!-- Node1&#45;&gt;Node29 -->
<g id="edge37" class="edge">
<title>Node1&#45;&gt;Node29</title>
<path fill="none" stroke="midnightblue" d="M169.59,-643.14C366.83,-632.93 899.25,-605.36 1078.31,-596.09"/>
<polygon fill="midnightblue" stroke="midnightblue" points="1078.53,-599.58 1088.34,-595.57 1078.17,-592.59 1078.53,-599.58"/>
</g>
<!-- Node7 -->
<g id="node7" class="node">
<title>Node7</title>
<g id="a_node7"><a xlink:title=" ">
<polygon fill="white" stroke="#bfbfbf" points="632,-291.5 632,-310.5 690,-310.5 690,-291.5 632,-291.5"/>
<text text-anchor="middle" x="661" y="-298.5" font-family="Helvetica,sans-Serif" font-size="10.00">memory</text>
</a>
</g>
</g>
<!-- Node6&#45;&gt;Node7 -->
<g id="edge6" class="edge">
<title>Node6&#45;&gt;Node7</title>
<path fill="none" stroke="midnightblue" d="M492.69,-347.44C527.63,-338.01 583.87,-322.83 621.61,-312.63"/>
<polygon fill="midnightblue" stroke="midnightblue" points="622.99,-315.89 631.74,-309.9 621.17,-309.13 622.99,-315.89"/>
</g>
<!-- Node8 -->
<g id="node8" class="node">
<title>Node8</title>
<g id="a_node8"><a xlink:title=" ">
<polygon fill="white" stroke="#bfbfbf" points="322.5,-112.5 322.5,-131.5 395.5,-131.5 395.5,-112.5 322.5,-112.5"/>
<text text-anchor="middle" x="359" y="-119.5" font-family="Helvetica,sans-Serif" font-size="10.00">string_view</text>
</a>
</g>
</g>
<!-- Node6&#45;&gt;Node8 -->
<g id="edge7" class="edge">
<title>Node6&#45;&gt;Node8</title>
<path fill="none" stroke="midnightblue" d="M444.96,-347.49C408.99,-327.38 322.51,-272.98 290,-199 284.46,-186.39 283.44,-180.11 290,-168 297.75,-153.7 312.23,-143.22 325.94,-135.99"/>
<polygon fill="midnightblue" stroke="midnightblue" points="327.74,-139.01 335.21,-131.5 324.69,-132.71 327.74,-139.01"/>
</g>
<!-- Node9 -->
<g id="node9" class="node">
<title>Node9</title>
<g id="a_node9"><a xlink:href="LogMacros_8hpp.html" target="_top" xlink:title=" ">
<polygon fill="white" stroke="black" points="514,-291.5 514,-310.5 604,-310.5 604,-291.5 514,-291.5"/>
<text text-anchor="middle" x="559" y="-298.5" font-family="Helvetica,sans-Serif" font-size="10.00">LogMacros.hpp</text>
</a>
</g>
</g>
<!-- Node6&#45;&gt;Node9 -->
<g id="edge8" class="edge">
<title>Node6&#45;&gt;Node9</title>
<path fill="none" stroke="midnightblue" d="M476.75,-347.32C492.32,-338.74 516.38,-325.49 534.46,-315.52"/>
<polygon fill="midnightblue" stroke="midnightblue" points="536.22,-318.55 543.29,-310.65 532.85,-312.42 536.22,-318.55"/>
</g>
<!-- Node10 -->
<g id="node10" class="node">
<title>Node10</title>
<g id="a_node10"><a xlink:href="fmt_8hpp.html" target="_top" xlink:title=" ">
<polygon fill="white" stroke="black" points="1005.5,-174 1005.5,-193 1084.5,-193 1084.5,-174 1005.5,-174"/>
<text text-anchor="middle" x="1045" y="-181" font-family="Helvetica,sans-Serif" font-size="10.00">utils/fmt.hpp</text>
</a>
</g>
</g>
<!-- Node9&#45;&gt;Node10 -->
<g id="edge9" class="edge">
<title>Node9&#45;&gt;Node10</title>
<path fill="none" stroke="midnightblue" d="M604.23,-291.59C649.2,-283.04 720.08,-269.1 781,-255 877.2,-232.74 900.87,-225.46 996,-199 999.59,-198 1003.32,-196.94 1007.04,-195.87"/>
<polygon fill="midnightblue" stroke="midnightblue" points="1008.18,-199.18 1016.8,-193.02 1006.22,-192.46 1008.18,-199.18"/>
</g>
<!-- Node22 -->
<g id="node22" class="node">
<title>Node22</title>
<g id="a_node22"><a xlink:href="ArgumentFormatter_8hpp.html" target="_top" xlink:title=" ">
<polygon fill="white" stroke="black" points="615.5,-235.5 615.5,-254.5 772.5,-254.5 772.5,-235.5 615.5,-235.5"/>
<text text-anchor="middle" x="694" y="-242.5" font-family="Helvetica,sans-Serif" font-size="10.00">utils/ArgumentFormatter.hpp</text>
</a>
</g>
</g>
<!-- Node9&#45;&gt;Node22 -->
<g id="edge28" class="edge">
<title>Node9&#45;&gt;Node22</title>
<path fill="none" stroke="midnightblue" d="M580.39,-291.44C602.71,-282.52 637.9,-268.44 663.21,-258.32"/>
<polygon fill="midnightblue" stroke="midnightblue" points="664.72,-261.48 672.71,-254.52 662.12,-254.98 664.72,-261.48"/>
</g>
<!-- Node28 -->
<g id="node28" class="node">
<title>Node28</title>
<g id="a_node28"><a xlink:href="Tracer_8hpp.html" target="_top" xlink:title=" ">
<polygon fill="white" stroke="black" points="417.5,-235.5 417.5,-254.5 522.5,-254.5 522.5,-235.5 417.5,-235.5"/>
<text text-anchor="middle" x="470" y="-242.5" font-family="Helvetica,sans-Serif" font-size="10.00">logging/Tracer.hpp</text>
</a>
</g>
</g>
<!-- Node9&#45;&gt;Node28 -->
<g id="edge35" class="edge">
<title>Node9&#45;&gt;Node28</title>
<path fill="none" stroke="midnightblue" d="M544.7,-291.32C530.82,-282.9 509.51,-269.97 493.2,-260.07"/>
<polygon fill="midnightblue" stroke="midnightblue" points="494.63,-256.85 484.26,-254.65 491,-262.83 494.63,-256.85"/>
</g>
<!-- Node10&#45;&gt;Node3 -->
<g id="edge13" class="edge">
<title>Node10&#45;&gt;Node3</title>
<path fill="none" stroke="midnightblue" d="M1020.34,-173.97C1012.63,-171.64 1004.04,-169.38 996,-168 699.63,-117.07 616.84,-164.93 314.02,-131.96"/>
<polygon fill="midnightblue" stroke="midnightblue" points="314.4,-128.48 304.07,-130.86 313.63,-135.44 314.4,-128.48"/>
</g>
<!-- Node10&#45;&gt;Node8 -->
<g id="edge11" class="edge">
<title>Node10&#45;&gt;Node8</title>
<path fill="none" stroke="midnightblue" d="M1020.07,-173.99C1012.43,-171.69 1003.94,-169.44 996,-168 777.72,-128.48 511.52,-123.25 405.65,-122.85"/>
<polygon fill="midnightblue" stroke="midnightblue" points="405.62,-119.35 395.61,-122.82 405.6,-126.35 405.62,-119.35"/>
</g>
<!-- Node11 -->
<g id="node11" class="node">
<title>Node11</title>
<g id="a_node11"><a xlink:title=" ">
<polygon fill="white" stroke="#bfbfbf" points="1111,-112.5 1111,-131.5 1155,-131.5 1155,-112.5 1111,-112.5"/>
<text text-anchor="middle" x="1133" y="-119.5" font-family="Helvetica,sans-Serif" font-size="10.00">string</text>
</a>
</g>
</g>
<!-- Node10&#45;&gt;Node11 -->
<g id="edge10" class="edge">
<title>Node10&#45;&gt;Node11</title>
<path fill="none" stroke="midnightblue" d="M1057.61,-173.98C1071.72,-164.43 1094.83,-148.81 1111.75,-137.37"/>
<polygon fill="midnightblue" stroke="midnightblue" points="1114.09,-140.01 1120.42,-131.51 1110.17,-134.21 1114.09,-140.01"/>
</g>
<!-- Node12 -->
<g id="node12" class="node">
<title>Node12</title>
<g id="a_node12"><a xlink:title=" ">
<polygon fill="white" stroke="#bfbfbf" points="924.5,-56.5 924.5,-75.5 1003.5,-75.5 1003.5,-56.5 924.5,-56.5"/>
<text text-anchor="middle" x="964" y="-63.5" font-family="Helvetica,sans-Serif" font-size="10.00">fmt/format.h</text>
</a>
</g>
</g>
<!-- Node10&#45;&gt;Node12 -->
<g id="edge12" class="edge">
<title>Node10&#45;&gt;Node12</title>
<path fill="none" stroke="midnightblue" d="M1032,-173.89C1019.22,-164.82 999.94,-149.46 988,-132 978.25,-117.74 971.89,-99.02 968.18,-85.34"/>
<polygon fill="midnightblue" stroke="midnightblue" points="971.57,-84.48 965.76,-75.62 964.78,-86.17 971.57,-84.48"/>
</g>
<!-- Node13 -->
<g id="node13" class="node">
<title>Node13</title>
<g id="a_node13"><a xlink:href="fmtEigen_8hpp.html" target="_top" xlink:title=" ">
<polygon fill="white" stroke="black" points="809,-112.5 809,-131.5 915,-131.5 915,-112.5 809,-112.5"/>
<text text-anchor="middle" x="862" y="-119.5" font-family="Helvetica,sans-Serif" font-size="10.00">utils/fmtEigen.hpp</text>
</a>
</g>
</g>
<!-- Node10&#45;&gt;Node13 -->
<g id="edge14" class="edge">
<title>Node10&#45;&gt;Node13</title>
<path fill="none" stroke="midnightblue" d="M1018.78,-173.98C986.98,-163.64 933.23,-146.16 897.68,-134.6"/>
<polygon fill="midnightblue" stroke="midnightblue" points="898.76,-131.27 888.17,-131.51 896.6,-137.93 898.76,-131.27"/>
</g>
<!-- Node17 -->
<g id="node17" class="node">
<title>Node17</title>
<g id="a_node17"><a xlink:href="fmtSTL_8hpp.html" target="_top" xlink:title=" ">
<polygon fill="white" stroke="black" points="997,-112.5 997,-131.5 1093,-131.5 1093,-112.5 997,-112.5"/>
<text text-anchor="middle" x="1045" y="-119.5" font-family="Helvetica,sans-Serif" font-size="10.00">utils/fmtSTL.hpp</text>
</a>
</g>
</g>
<!-- Node10&#45;&gt;Node17 -->
<g id="edge21" class="edge">
<title>Node10&#45;&gt;Node17</title>
<path fill="none" stroke="midnightblue" d="M1045,-173.98C1045,-165.58 1045,-152.48 1045,-141.66"/>
<polygon fill="midnightblue" stroke="midnightblue" points="1048.5,-141.51 1045,-131.51 1041.5,-141.51 1048.5,-141.51"/>
</g>
<!-- Node13&#45;&gt;Node2 -->
<g id="edge15" class="edge">
<title>Node13&#45;&gt;Node2</title>
<path fill="none" stroke="midnightblue" d="M868.08,-112.39C876.81,-98.88 890.44,-72.54 877,-56 856,-30.16 763.61,-18.63 706.99,-13.92"/>
<polygon fill="midnightblue" stroke="midnightblue" points="707.11,-10.41 696.86,-13.11 706.55,-17.39 707.11,-10.41"/>
</g>
<!-- Node13&#45;&gt;Node12 -->
<g id="edge17" class="edge">
<title>Node13&#45;&gt;Node12</title>
<path fill="none" stroke="midnightblue" d="M878.39,-112.32C894.67,-103.7 919.87,-90.36 938.72,-80.39"/>
<polygon fill="midnightblue" stroke="midnightblue" points="940.45,-83.43 947.65,-75.65 937.18,-77.24 940.45,-83.43"/>
</g>
<!-- Node14 -->
<g id="node14" class="node">
<title>Node14</title>
<g id="a_node14"><a xlink:title=" ">
<polygon fill="white" stroke="#bfbfbf" points="730,-56.5 730,-75.5 794,-75.5 794,-56.5 730,-56.5"/>
<text text-anchor="middle" x="762" y="-63.5" font-family="Helvetica,sans-Serif" font-size="10.00">algorithm</text>
</a>
</g>
</g>
<!-- Node13&#45;&gt;Node14 -->
<g id="edge16" class="edge">
<title>Node13&#45;&gt;Node14</title>
<path fill="none" stroke="midnightblue" d="M845.93,-112.32C830.04,-103.74 805.49,-90.49 787.04,-80.52"/>
<polygon fill="midnightblue" stroke="midnightblue" points="788.49,-77.33 778.03,-75.65 785.16,-83.49 788.49,-77.33"/>
</g>
<!-- Node15 -->
<g id="node15" class="node">
<title>Node15</title>
<g id="a_node15"><a xlink:title=" ">
<polygon fill="white" stroke="#bfbfbf" points="812,-56.5 812,-75.5 868,-75.5 868,-56.5 812,-56.5"/>
<text text-anchor="middle" x="840" y="-63.5" font-family="Helvetica,sans-Serif" font-size="10.00">sstream</text>
</a>
</g>
</g>
<!-- Node13&#45;&gt;Node15 -->
<g id="edge18" class="edge">
<title>Node13&#45;&gt;Node15</title>
<path fill="none" stroke="midnightblue" d="M858.37,-112.08C855.39,-104.77 851.07,-94.18 847.38,-85.1"/>
<polygon fill="midnightblue" stroke="midnightblue" points="850.58,-83.69 843.57,-75.75 844.1,-86.33 850.58,-83.69"/>
</g>
<!-- Node16 -->
<g id="node16" class="node">
<title>Node16</title>
<g id="a_node16"><a xlink:href="EigenIO_8hpp.html" target="_top" xlink:title=" ">
<polygon fill="white" stroke="black" points="612.5,-56.5 612.5,-75.5 711.5,-75.5 711.5,-56.5 612.5,-56.5"/>
<text text-anchor="middle" x="662" y="-63.5" font-family="Helvetica,sans-Serif" font-size="10.00">utils/EigenIO.hpp</text>
</a>
</g>
</g>
<!-- Node13&#45;&gt;Node16 -->
<g id="edge19" class="edge">
<title>Node13&#45;&gt;Node16</title>
<path fill="none" stroke="midnightblue" d="M830.31,-112.44C795.93,-103.16 740.92,-88.31 703.21,-78.13"/>
<polygon fill="midnightblue" stroke="midnightblue" points="704.11,-74.74 693.54,-75.52 702.28,-81.5 704.11,-74.74"/>
</g>
<!-- Node16&#45;&gt;Node2 -->
<g id="edge20" class="edge">
<title>Node16&#45;&gt;Node2</title>
<path fill="none" stroke="midnightblue" d="M662,-56.08C662,-49.01 662,-38.86 662,-29.99"/>
<polygon fill="midnightblue" stroke="midnightblue" points="665.5,-29.75 662,-19.75 658.5,-29.75 665.5,-29.75"/>
</g>
<!-- Node17&#45;&gt;Node5 -->
<g id="edge27" class="edge">
<title>Node17&#45;&gt;Node5</title>
<path fill="none" stroke="midnightblue" d="M996.73,-117.28C974.57,-115.6 947.96,-113.64 924,-112 659.71,-93.91 340.64,-74.99 237.73,-68.97"/>
<polygon fill="midnightblue" stroke="midnightblue" points="237.81,-65.46 227.62,-68.37 237.4,-72.45 237.81,-65.46"/>
</g>
<!-- Node17&#45;&gt;Node12 -->
<g id="edge24" class="edge">
<title>Node17&#45;&gt;Node12</title>
<path fill="none" stroke="midnightblue" d="M1031.99,-112.32C1019.47,-103.98 1000.32,-91.21 985.53,-81.35"/>
<polygon fill="midnightblue" stroke="midnightblue" points="987.24,-78.29 976.98,-75.65 983.36,-84.11 987.24,-78.29"/>
</g>
<!-- Node18 -->
<g id="node18" class="node">
<title>Node18</title>
<g id="a_node18"><a xlink:title=" ">
<polygon fill="white" stroke="#bfbfbf" points="1238,-56.5 1238,-75.5 1280,-75.5 1280,-56.5 1238,-56.5"/>
<text text-anchor="middle" x="1259" y="-63.5" font-family="Helvetica,sans-Serif" font-size="10.00">array</text>
</a>
</g>
</g>
<!-- Node17&#45;&gt;Node18 -->
<g id="edge22" class="edge">
<title>Node17&#45;&gt;Node18</title>
<path fill="none" stroke="midnightblue" d="M1078.91,-112.44C1119.91,-102.1 1188.35,-84.83 1228,-74.82"/>
<polygon fill="midnightblue" stroke="midnightblue" points="1229.06,-78.16 1237.9,-72.32 1227.35,-71.38 1229.06,-78.16"/>
</g>
<!-- Node19 -->
<g id="node19" class="node">
<title>Node19</title>
<g id="a_node19"><a xlink:title=" ">
<polygon fill="white" stroke="#bfbfbf" points="1021.5,-56.5 1021.5,-75.5 1068.5,-75.5 1068.5,-56.5 1021.5,-56.5"/>
<text text-anchor="middle" x="1045" y="-63.5" font-family="Helvetica,sans-Serif" font-size="10.00">deque</text>
</a>
</g>
</g>
<!-- Node17&#45;&gt;Node19 -->
<g id="edge23" class="edge">
<title>Node17&#45;&gt;Node19</title>
<path fill="none" stroke="midnightblue" d="M1045,-112.08C1045,-105.01 1045,-94.86 1045,-85.99"/>
<polygon fill="midnightblue" stroke="midnightblue" points="1048.5,-85.75 1045,-75.75 1041.5,-85.75 1048.5,-85.75"/>
</g>
<!-- Node20 -->
<g id="node20" class="node">
<title>Node20</title>
<g id="a_node20"><a xlink:title=" ">
<polygon fill="white" stroke="#bfbfbf" points="1087,-56.5 1087,-75.5 1125,-75.5 1125,-56.5 1087,-56.5"/>
<text text-anchor="middle" x="1106" y="-63.5" font-family="Helvetica,sans-Serif" font-size="10.00">map</text>
</a>
</g>
</g>
<!-- Node17&#45;&gt;Node20 -->
<g id="edge25" class="edge">
<title>Node17&#45;&gt;Node20</title>
<path fill="none" stroke="midnightblue" d="M1054.8,-112.32C1063.82,-104.34 1077.41,-92.31 1088.32,-82.65"/>
<polygon fill="midnightblue" stroke="midnightblue" points="1090.85,-85.08 1096.02,-75.83 1086.21,-79.84 1090.85,-85.08"/>
</g>
<!-- Node21 -->
<g id="node21" class="node">
<title>Node21</title>
<g id="a_node21"><a xlink:title=" ">
<polygon fill="white" stroke="#bfbfbf" points="1143,-56.5 1143,-75.5 1175,-75.5 1175,-56.5 1143,-56.5"/>
<text text-anchor="middle" x="1159" y="-63.5" font-family="Helvetica,sans-Serif" font-size="10.00">set</text>
</a>
</g>
</g>
<!-- Node17&#45;&gt;Node21 -->
<g id="edge26" class="edge">
<title>Node17&#45;&gt;Node21</title>
<path fill="none" stroke="midnightblue" d="M1063.06,-112.44C1082.12,-103.42 1112.3,-89.12 1133.71,-78.98"/>
<polygon fill="midnightblue" stroke="midnightblue" points="1135.33,-82.09 1142.86,-74.64 1132.33,-75.76 1135.33,-82.09"/>
</g>
<!-- Node22&#45;&gt;Node10 -->
<g id="edge34" class="edge">
<title>Node22&#45;&gt;Node10</title>
<path fill="none" stroke="midnightblue" d="M771.5,-235.48C832.83,-228.01 920.43,-215.72 996,-199 1000.19,-198.07 1004.55,-196.98 1008.86,-195.81"/>
<polygon fill="midnightblue" stroke="midnightblue" points="1010.07,-199.11 1018.73,-193.01 1008.15,-192.37 1010.07,-199.11"/>
</g>
<!-- Node23 -->
<g id="node23" class="node">
<title>Node23</title>
<g id="a_node23"><a xlink:title=" ">
<polygon fill="white" stroke="#bfbfbf" points="749,-168.5 749,-198.5 859,-198.5 859,-168.5 749,-168.5"/>
<text text-anchor="start" x="757" y="-186.5" font-family="Helvetica,sans-Serif" font-size="10.00">boost/preprocessor</text>
<text text-anchor="middle" x="804" y="-175.5" font-family="Helvetica,sans-Serif" font-size="10.00">/control/if.hpp</text>
</a>
</g>
</g>
<!-- Node22&#45;&gt;Node23 -->
<g id="edge29" class="edge">
<title>Node22&#45;&gt;Node23</title>
<path fill="none" stroke="midnightblue" d="M709.76,-235.48C725.22,-227.12 749.3,-214.09 769.25,-203.3"/>
<polygon fill="midnightblue" stroke="midnightblue" points="770.94,-206.36 778.08,-198.52 767.61,-200.2 770.94,-206.36"/>
</g>
<!-- Node24 -->
<g id="node24" class="node">
<title>Node24</title>
<g id="a_node24"><a xlink:title=" ">
<polygon fill="white" stroke="#bfbfbf" points="332.5,-168.5 332.5,-198.5 443.5,-198.5 443.5,-168.5 332.5,-168.5"/>
<text text-anchor="start" x="340.5" y="-186.5" font-family="Helvetica,sans-Serif" font-size="10.00">boost/preprocessor</text>
<text text-anchor="middle" x="388" y="-175.5" font-family="Helvetica,sans-Serif" font-size="10.00">/seq/for_each_i.hpp</text>
</a>
</g>
</g>
<!-- Node22&#45;&gt;Node24 -->
<g id="edge30" class="edge">
<title>Node22&#45;&gt;Node24</title>
<path fill="none" stroke="midnightblue" d="M644.76,-235.42C597.98,-227.15 525.43,-213.97 453.9,-199.35"/>
<polygon fill="midnightblue" stroke="midnightblue" points="454.32,-195.87 443.82,-197.28 452.91,-202.72 454.32,-195.87"/>
</g>
<!-- Node25 -->
<g id="node25" class="node">
<title>Node25</title>
<g id="a_node25"><a xlink:title=" ">
<polygon fill="white" stroke="#bfbfbf" points="877,-168.5 877,-198.5 987,-198.5 987,-168.5 877,-168.5"/>
<text text-anchor="start" x="885" y="-186.5" font-family="Helvetica,sans-Serif" font-size="10.00">boost/preprocessor</text>
<text text-anchor="middle" x="932" y="-175.5" font-family="Helvetica,sans-Serif" font-size="10.00">/stringize.hpp</text>
</a>
</g>
</g>
<!-- Node22&#45;&gt;Node25 -->
<g id="edge31" class="edge">
<title>Node22&#45;&gt;Node25</title>
<path fill="none" stroke="midnightblue" d="M728.1,-235.48C764.19,-226.45 822.01,-212 866.88,-200.78"/>
<polygon fill="midnightblue" stroke="midnightblue" points="867.97,-204.12 876.82,-198.29 866.27,-197.32 867.97,-204.12"/>
</g>
<!-- Node26 -->
<g id="node26" class="node">
<title>Node26</title>
<g id="a_node26"><a xlink:title=" ">
<polygon fill="white" stroke="#bfbfbf" points="461.5,-168.5 461.5,-198.5 576.5,-198.5 576.5,-168.5 461.5,-168.5"/>
<text text-anchor="start" x="469.5" y="-186.5" font-family="Helvetica,sans-Serif" font-size="10.00">boost/preprocessor</text>
<text text-anchor="middle" x="519" y="-175.5" font-family="Helvetica,sans-Serif" font-size="10.00">/variadic/to_seq.hpp</text>
</a>
</g>
</g>
<!-- Node22&#45;&gt;Node26 -->
<g id="edge32" class="edge">
<title>Node22&#45;&gt;Node26</title>
<path fill="none" stroke="midnightblue" d="M668.93,-235.48C643.23,-226.74 602.55,-212.91 570.04,-201.86"/>
<polygon fill="midnightblue" stroke="midnightblue" points="570.84,-198.43 560.24,-198.52 568.59,-205.06 570.84,-198.43"/>
</g>
<!-- Node27 -->
<g id="node27" class="node">
<title>Node27</title>
<g id="a_node27"><a xlink:title=" ">
<polygon fill="white" stroke="#bfbfbf" points="595,-174 595,-193 731,-193 731,-174 595,-174"/>
<text text-anchor="middle" x="663" y="-181" font-family="Helvetica,sans-Serif" font-size="10.00">boost/vmd/is_empty.hpp</text>
</a>
</g>
</g>
<!-- Node22&#45;&gt;Node27 -->
<g id="edge33" class="edge">
<title>Node22&#45;&gt;Node27</title>
<path fill="none" stroke="midnightblue" d="M689.56,-235.48C685.05,-226.82 677.93,-213.15 672.19,-202.15"/>
<polygon fill="midnightblue" stroke="midnightblue" points="675.16,-200.26 667.43,-193.01 668.95,-203.49 675.16,-200.26"/>
</g>
<!-- Node28&#45;&gt;Node6 -->
<g id="edge36" class="edge">
<title>Node28&#45;&gt;Node6</title>
<path fill="none" stroke="midnightblue" d="M469.3,-254.59C467.85,-272.31 464.5,-313.25 462.53,-337.35"/>
<polygon fill="midnightblue" stroke="midnightblue" points="459.03,-337.12 461.71,-347.37 466.01,-337.69 459.03,-337.12"/>
</g>
<!-- Node29&#45;&gt;Node2 -->
<g id="edge38" class="edge">
<title>Node29&#45;&gt;Node2</title>
<path fill="none" stroke="midnightblue" d="M1187.6,-586.66C1244.16,-580.73 1331.92,-568.2 1356,-546 1378.12,-525.59 1375,-511.1 1375,-481 1375,-481 1375,-481 1375,-121 1375,-73.09 1333.85,-72.85 1289,-56 1182.29,-15.9 832.19,-11.28 707.01,-10.94"/>
<polygon fill="midnightblue" stroke="midnightblue" points="706.65,-7.44 696.65,-10.92 706.64,-14.44 706.65,-7.44"/>
</g>
<!-- Node29&#45;&gt;Node18 -->
<g id="edge39" class="edge">
<title>Node29&#45;&gt;Node18</title>
<path fill="none" stroke="midnightblue" d="M1150.55,-582.46C1189.39,-554.91 1305,-464.01 1305,-358 1305,-358 1305,-358 1305,-182.5 1305,-145.27 1284.12,-105.78 1270.49,-83.97"/>
<polygon fill="midnightblue" stroke="midnightblue" points="1273.39,-82.01 1265.01,-75.52 1267.52,-85.81 1273.39,-82.01"/>
</g>
<!-- Node30 -->
<g id="node30" class="node">
<title>Node30</title>
<g id="a_node30"><a xlink:title=" ">
<polygon fill="white" stroke="#bfbfbf" points="1217,-409 1217,-428 1277,-428 1277,-409 1217,-409"/>
<text text-anchor="middle" x="1247" y="-416" font-family="Helvetica,sans-Serif" font-size="10.00">iostream</text>
</a>
</g>
</g>
<!-- Node29&#45;&gt;Node30 -->
<g id="edge40" class="edge">
<title>Node29&#45;&gt;Node30</title>
<path fill="none" stroke="midnightblue" d="M1143.56,-582.26C1160.76,-555.19 1213.37,-472.41 1236.22,-436.46"/>
<polygon fill="midnightblue" stroke="midnightblue" points="1239.18,-438.34 1241.59,-428.02 1233.27,-434.58 1239.18,-438.34"/>
</g>
<!-- Node31 -->
<g id="node31" class="node">
<title>Node31</title>
<g id="a_node31"><a xlink:title=" ">
<polygon fill="white" stroke="#bfbfbf" points="1301.5,-526.5 1301.5,-545.5 1346.5,-545.5 1346.5,-526.5 1301.5,-526.5"/>
<text text-anchor="middle" x="1324" y="-533.5" font-family="Helvetica,sans-Serif" font-size="10.00">utility</text>
</a>
</g>
</g>
<!-- Node29&#45;&gt;Node31 -->
<g id="edge41" class="edge">
<title>Node29&#45;&gt;Node31</title>
<path fill="none" stroke="midnightblue" d="M1167.47,-582.44C1201.32,-572.62 1256.66,-556.55 1291.66,-546.39"/>
<polygon fill="midnightblue" stroke="midnightblue" points="1292.77,-549.71 1301.39,-543.56 1290.81,-542.99 1292.77,-549.71"/>
</g>
<!-- Node32 -->
<g id="node32" class="node">
<title>Node32</title>
<g id="a_node32"><a xlink:href="differences_8hpp.html" target="_top" xlink:title=" ">
<polygon fill="white" stroke="black" points="801,-526.5 801,-545.5 921,-545.5 921,-526.5 801,-526.5"/>
<text text-anchor="middle" x="861" y="-533.5" font-family="Helvetica,sans-Serif" font-size="10.00">math/differences.hpp</text>
</a>
</g>
</g>
<!-- Node29&#45;&gt;Node32 -->
<g id="edge42" class="edge">
<title>Node29&#45;&gt;Node32</title>
<path fill="none" stroke="midnightblue" d="M1094.11,-582.44C1045.48,-572.96 967.05,-557.67 914.78,-547.48"/>
<polygon fill="midnightblue" stroke="midnightblue" points="915.17,-543.99 904.69,-545.52 913.83,-550.87 915.17,-543.99"/>
</g>
<!-- Node33 -->
<g id="node33" class="node">
<title>Node33</title>
<g id="a_node33"><a xlink:href="assertion_8hpp.html" target="_top" xlink:title=" ">
<polygon fill="white" stroke="black" points="807.5,-470.5 807.5,-489.5 914.5,-489.5 914.5,-470.5 807.5,-470.5"/>
<text text-anchor="middle" x="861" y="-477.5" font-family="Helvetica,sans-Serif" font-size="10.00">utils/assertion.hpp</text>
</a>
</g>
</g>
<!-- Node29&#45;&gt;Node33 -->
<g id="edge68" class="edge">
<title>Node29&#45;&gt;Node33</title>
<path fill="none" stroke="midnightblue" d="M1116.26,-582.37C1067.42,-562.97 948.81,-515.87 892.14,-493.37"/>
<polygon fill="midnightblue" stroke="midnightblue" points="893.22,-490.03 882.63,-489.59 890.64,-496.54 893.22,-490.03"/>
</g>
<!-- Node40 -->
<g id="node40" class="node">
<title>Node40</title>
<g id="a_node40"><a xlink:href="types_8hpp.html" target="_top" xlink:title=" ">
<polygon fill="white" stroke="black" points="246.5,-347.5 246.5,-366.5 349.5,-366.5 349.5,-347.5 246.5,-347.5"/>
<text text-anchor="middle" x="298" y="-354.5" font-family="Helvetica,sans-Serif" font-size="10.00">precice/types.hpp</text>
</a>
</g>
</g>
<!-- Node29&#45;&gt;Node40 -->
<g id="edge67" class="edge">
<title>Node29&#45;&gt;Node40</title>
<path fill="none" stroke="midnightblue" d="M1088.24,-585.88C1020.83,-578.64 896.89,-564.24 792,-546 562.08,-506.03 425.36,-615.77 279,-434 265.45,-417.18 276.03,-391.97 286.01,-375.26"/>
<polygon fill="midnightblue" stroke="midnightblue" points="289.16,-376.84 291.63,-366.54 283.27,-373.05 289.16,-376.84"/>
</g>
<!-- Node32&#45;&gt;Node2 -->
<g id="edge43" class="edge">
<title>Node32&#45;&gt;Node2</title>
<path fill="none" stroke="midnightblue" d="M800.78,-532.11C692.88,-525.3 460.87,-503.2 279,-434 202.91,-405.05 152,-383.41 152,-302 152,-302 152,-302 152,-121 152,-90.9 147.77,-75.13 171,-56 205.04,-27.97 502.42,-15.91 617.13,-12.27"/>
<polygon fill="midnightblue" stroke="midnightblue" points="617.44,-15.76 627.33,-11.95 617.22,-8.76 617.44,-15.76"/>
</g>
<!-- Node32&#45;&gt;Node33 -->
<g id="edge44" class="edge">
<title>Node32&#45;&gt;Node33</title>
<path fill="none" stroke="midnightblue" d="M861,-526.08C861,-519.01 861,-508.86 861,-499.99"/>
<polygon fill="midnightblue" stroke="midnightblue" points="864.5,-499.75 861,-489.75 857.5,-499.75 864.5,-499.75"/>
</g>
<!-- Node33&#45;&gt;Node8 -->
<g id="edge47" class="edge">
<title>Node33&#45;&gt;Node8</title>
<path fill="none" stroke="midnightblue" d="M848.21,-470.18C836.33,-461.67 818.49,-448.02 805,-434 750.16,-376.98 763.05,-337.44 699,-291 683.07,-279.45 550.08,-239.8 531,-235 485.51,-223.55 353.21,-234.89 323,-199 307.73,-180.86 326.33,-155.14 341.96,-138.77"/>
<polygon fill="midnightblue" stroke="midnightblue" points="344.6,-141.08 349.24,-131.55 339.68,-136.11 344.6,-141.08"/>
</g>
<!-- Node33&#45;&gt;Node10 -->
<g id="edge48" class="edge">
<title>Node33&#45;&gt;Node10</title>
<path fill="none" stroke="midnightblue" d="M868.45,-470.26C883.9,-451.22 918,-403.98 918,-358 918,-358 918,-358 918,-300 918,-248.84 975.1,-214.36 1012.73,-197.19"/>
<polygon fill="midnightblue" stroke="midnightblue" points="1014.54,-200.22 1022.29,-193 1011.73,-193.81 1014.54,-200.22"/>
</g>
<!-- Node33&#45;&gt;Node22 -->
<g id="edge54" class="edge">
<title>Node33&#45;&gt;Node22</title>
<path fill="none" stroke="midnightblue" d="M854.53,-470.48C847.77,-461.5 836.92,-446.91 828,-434 784.9,-371.63 781.35,-351 735,-291 727.17,-280.86 717.56,-270.23 709.61,-261.85"/>
<polygon fill="midnightblue" stroke="midnightblue" points="712.07,-259.36 702.61,-254.59 707.03,-264.22 712.07,-259.36"/>
</g>
<!-- Node33&#45;&gt;Node23 -->
<g id="edge51" class="edge">
<title>Node33&#45;&gt;Node23</title>
<path fill="none" stroke="midnightblue" d="M859.29,-470.19C851.68,-430.82 820.61,-270.34 808.69,-208.74"/>
<polygon fill="midnightblue" stroke="midnightblue" points="812.1,-207.91 806.76,-198.76 805.22,-209.24 812.1,-207.91"/>
</g>
<!-- Node33&#45;&gt;Node25 -->
<g id="edge52" class="edge">
<title>Node33&#45;&gt;Node25</title>
<path fill="none" stroke="midnightblue" d="M863.33,-470.27C868.4,-450.46 880,-400.53 880,-358 880,-358 880,-358 880,-300 880,-265.21 899.86,-229.31 915.03,-206.96"/>
<polygon fill="midnightblue" stroke="midnightblue" points="918.07,-208.72 920.97,-198.53 912.35,-204.69 918.07,-208.72"/>
</g>
<!-- Node33&#45;&gt;Node30 -->
<g id="edge46" class="edge">
<title>Node33&#45;&gt;Node30</title>
<path fill="none" stroke="midnightblue" d="M914.57,-475.08C982.37,-469.4 1102.44,-456.97 1203,-434 1206.67,-433.16 1210.46,-432.15 1214.21,-431.05"/>
<polygon fill="midnightblue" stroke="midnightblue" points="1215.44,-434.33 1223.94,-428 1213.35,-427.65 1215.44,-434.33"/>
</g>
<!-- Node34 -->
<g id="node34" class="node">
<title>Node34</title>
<g id="a_node34"><a xlink:title=" ">
<polygon fill="white" stroke="#bfbfbf" points="946.5,-409 946.5,-428 995.5,-428 995.5,-409 946.5,-409"/>
<text text-anchor="middle" x="971" y="-416" font-family="Helvetica,sans-Serif" font-size="10.00">cstdlib</text>
</a>
</g>
</g>
<!-- Node33&#45;&gt;Node34 -->
<g id="edge45" class="edge">
<title>Node33&#45;&gt;Node34</title>
<path fill="none" stroke="midnightblue" d="M876.76,-470.48C894.98,-460.62 925.17,-444.29 946.47,-432.77"/>
<polygon fill="midnightblue" stroke="midnightblue" points="948.14,-435.85 955.27,-428.01 944.81,-429.69 948.14,-435.85"/>
</g>
<!-- Node35 -->
<g id="node35" class="node">
<title>Node35</title>
<g id="a_node35"><a xlink:title=" ">
<polygon fill="white" stroke="#bfbfbf" points="1013.5,-409 1013.5,-428 1160.5,-428 1160.5,-409 1013.5,-409"/>
<text text-anchor="middle" x="1087" y="-416" font-family="Helvetica,sans-Serif" font-size="10.00">boost/current_function.hpp</text>
</a>
</g>
</g>
<!-- Node33&#45;&gt;Node35 -->
<g id="edge49" class="edge">
<title>Node33&#45;&gt;Node35</title>
<path fill="none" stroke="midnightblue" d="M893.38,-470.48C933.24,-459.98 1001.02,-442.14 1044.89,-430.59"/>
<polygon fill="midnightblue" stroke="midnightblue" points="1045.9,-433.94 1054.68,-428.01 1044.12,-427.17 1045.9,-433.94"/>
</g>
<!-- Node36 -->
<g id="node36" class="node">
<title>Node36</title>
<g id="a_node36"><a xlink:title=" ">
<polygon fill="white" stroke="#bfbfbf" points="404.5,-403.5 404.5,-433.5 539.5,-433.5 539.5,-403.5 404.5,-403.5"/>
<text text-anchor="start" x="412.5" y="-421.5" font-family="Helvetica,sans-Serif" font-size="10.00">boost/preprocessor</text>
<text text-anchor="middle" x="472" y="-410.5" font-family="Helvetica,sans-Serif" font-size="10.00">/comparison/greater.hpp</text>
</a>
</g>
</g>
<!-- Node33&#45;&gt;Node36 -->
<g id="edge50" class="edge">
<title>Node33&#45;&gt;Node36</title>
<path fill="none" stroke="midnightblue" d="M807.34,-471.97C747.16,-463.93 646.4,-449.99 549.54,-434.05"/>
<polygon fill="midnightblue" stroke="midnightblue" points="550.01,-430.58 539.58,-432.4 548.87,-437.48 550.01,-430.58"/>
</g>
<!-- Node37 -->
<g id="node37" class="node">
<title>Node37</title>
<g id="a_node37"><a xlink:title=" ">
<polygon fill="white" stroke="#bfbfbf" points="558,-403.5 558,-433.5 668,-433.5 668,-403.5 558,-403.5"/>
<text text-anchor="start" x="566" y="-421.5" font-family="Helvetica,sans-Serif" font-size="10.00">boost/preprocessor</text>
<text text-anchor="middle" x="613" y="-410.5" font-family="Helvetica,sans-Serif" font-size="10.00">/variadic/size.hpp</text>
</a>
</g>
</g>
<!-- Node33&#45;&gt;Node37 -->
<g id="edge53" class="edge">
<title>Node33&#45;&gt;Node37</title>
<path fill="none" stroke="midnightblue" d="M825.47,-470.48C787.08,-461.27 725.09,-446.39 677.95,-435.08"/>
<polygon fill="midnightblue" stroke="midnightblue" points="678.67,-431.66 668.13,-432.73 677.04,-438.46 678.67,-431.66"/>
</g>
<!-- Node38 -->
<g id="node38" class="node">
<title>Node38</title>
<g id="a_node38"><a xlink:href="Parallel_8hpp.html" target="_top" xlink:title=" ">
<polygon fill="white" stroke="black" points="288,-409 288,-428 386,-428 386,-409 288,-409"/>
<text text-anchor="middle" x="337" y="-416" font-family="Helvetica,sans-Serif" font-size="10.00">utils/Parallel.hpp</text>
</a>
</g>
</g>
<!-- Node33&#45;&gt;Node38 -->
<g id="edge55" class="edge">
<title>Node33&#45;&gt;Node38</title>
<path fill="none" stroke="midnightblue" d="M807.19,-476.41C720.08,-471.63 542.98,-459.5 395,-434 389.23,-433.01 383.19,-431.75 377.28,-430.39"/>
<polygon fill="midnightblue" stroke="midnightblue" points="378.06,-426.98 367.52,-428.03 376.42,-433.78 378.06,-426.98"/>
</g>
<!-- Node42 -->
<g id="node42" class="node">
<title>Node42</title>
<g id="a_node42"><a xlink:href="stacktrace_8hpp.html" target="_top" xlink:title=" ">
<polygon fill="white" stroke="black" points="1123.5,-291.5 1123.5,-310.5 1236.5,-310.5 1236.5,-291.5 1123.5,-291.5"/>
<text text-anchor="middle" x="1180" y="-298.5" font-family="Helvetica,sans-Serif" font-size="10.00">utils/stacktrace.hpp</text>
</a>
</g>
</g>
<!-- Node33&#45;&gt;Node42 -->
<g id="edge64" class="edge">
<title>Node33&#45;&gt;Node42</title>
<path fill="none" stroke="midnightblue" d="M914.77,-478.94C993.97,-477.62 1136.29,-470.12 1170,-434 1198.66,-403.3 1191.5,-349.16 1185.05,-320.7"/>
<polygon fill="midnightblue" stroke="midnightblue" points="1188.41,-319.7 1182.61,-310.83 1181.62,-321.38 1188.41,-319.7"/>
</g>
<!-- Node43 -->
<g id="node43" class="node">
<title>Node43</title>
<g id="a_node43"><a xlink:title=" ">
<polygon fill="white" stroke="#bfbfbf" points="686,-409 686,-428 738,-428 738,-409 686,-409"/>
<text text-anchor="middle" x="712" y="-416" font-family="Helvetica,sans-Serif" font-size="10.00">cassert</text>
</a>
</g>
</g>
<!-- Node33&#45;&gt;Node43 -->
<g id="edge66" class="edge">
<title>Node33&#45;&gt;Node43</title>
<path fill="none" stroke="midnightblue" d="M839.65,-470.48C814.31,-460.36 771.86,-443.4 742.93,-431.85"/>
<polygon fill="midnightblue" stroke="midnightblue" points="743.89,-428.47 733.31,-428.01 741.3,-434.97 743.89,-428.47"/>
</g>
<!-- Node38&#45;&gt;Node4 -->
<g id="edge56" class="edge">
<title>Node38&#45;&gt;Node4</title>
<path fill="none" stroke="midnightblue" d="M317.94,-408.98C295.53,-398.95 258.09,-382.2 232.29,-370.65"/>
<polygon fill="midnightblue" stroke="midnightblue" points="233.58,-367.4 223.02,-366.51 230.72,-373.79 233.58,-367.4"/>
</g>
<!-- Node38&#45;&gt;Node5 -->
<g id="edge60" class="edge">
<title>Node38&#45;&gt;Node5</title>
<path fill="none" stroke="midnightblue" d="M342.99,-408.79C351.4,-395.46 364.94,-369.18 358,-347 323.31,-236.04 247.92,-241.55 209,-132 203.72,-117.15 202.71,-99.23 202.88,-85.97"/>
<polygon fill="midnightblue" stroke="midnightblue" points="206.39,-85.83 203.26,-75.71 199.39,-85.57 206.39,-85.83"/>
</g>
<!-- Node38&#45;&gt;Node6 -->
<g id="edge61" class="edge">
<title>Node38&#45;&gt;Node6</title>
<path fill="none" stroke="midnightblue" d="M354.77,-408.98C375.48,-399.03 409.95,-382.49 433.99,-370.96"/>
<polygon fill="midnightblue" stroke="midnightblue" points="435.77,-373.99 443.27,-366.51 432.74,-367.68 435.77,-373.99"/>
</g>
<!-- Node38&#45;&gt;Node7 -->
<g id="edge57" class="edge">
<title>Node38&#45;&gt;Node7</title>
<path fill="none" stroke="midnightblue" d="M368.47,-408.96C377.03,-406.82 386.34,-404.66 395,-403 453.58,-391.75 621.75,-411.92 661,-367 671.89,-354.54 670.3,-335.03 666.96,-320.63"/>
<polygon fill="midnightblue" stroke="midnightblue" points="670.29,-319.52 664.24,-310.82 663.54,-321.39 670.29,-319.52"/>
</g>
<!-- Node38&#45;&gt;Node11 -->
<g id="edge59" class="edge">
<title>Node38&#45;&gt;Node11</title>
<path fill="none" stroke="midnightblue" d="M368.15,-408.99C376.8,-406.82 386.23,-404.65 395,-403 520.05,-379.53 555.89,-399.14 679,-367 871.53,-316.74 947.15,-333.27 1094,-199 1111.06,-183.4 1121.8,-158.63 1127.6,-141.63"/>
<polygon fill="midnightblue" stroke="midnightblue" points="1131.04,-142.35 1130.71,-131.76 1124.36,-140.24 1131.04,-142.35"/>
</g>
<!-- Node39 -->
<g id="node39" class="node">
<title>Node39</title>
<g id="a_node39"><a xlink:title=" ">
<polygon fill="white" stroke="#bfbfbf" points="534,-347.5 534,-366.5 590,-366.5 590,-347.5 534,-347.5"/>
<text text-anchor="middle" x="562" y="-354.5" font-family="Helvetica,sans-Serif" font-size="10.00">optional</text>
</a>
</g>
</g>
<!-- Node38&#45;&gt;Node39 -->
<g id="edge58" class="edge">
<title>Node38&#45;&gt;Node39</title>
<path fill="none" stroke="midnightblue" d="M369.24,-408.98C410.07,-398.18 480.35,-379.59 523.82,-368.1"/>
<polygon fill="midnightblue" stroke="midnightblue" points="524.96,-371.42 533.73,-365.47 523.17,-364.65 524.96,-371.42"/>
</g>
<!-- Node38&#45;&gt;Node40 -->
<g id="edge62" class="edge">
<title>Node38&#45;&gt;Node40</title>
<path fill="none" stroke="midnightblue" d="M331.41,-408.98C325.62,-400.14 316.41,-386.09 309.13,-374.98"/>
<polygon fill="midnightblue" stroke="midnightblue" points="311.99,-372.95 303.58,-366.51 306.13,-376.79 311.99,-372.95"/>
</g>
<!-- Node41 -->
<g id="node41" class="node">
<title>Node41</title>
<g id="a_node41"><a xlink:title=" ">
<polygon fill="white" stroke="#bfbfbf" points="608,-347.5 608,-366.5 652,-366.5 652,-347.5 608,-347.5"/>
<text text-anchor="middle" x="630" y="-354.5" font-family="Helvetica,sans-Serif" font-size="10.00">mpi.h</text>
</a>
</g>
</g>
<!-- Node38&#45;&gt;Node41 -->
<g id="edge63" class="edge">
<title>Node38&#45;&gt;Node41</title>
<path fill="none" stroke="midnightblue" d="M369.42,-408.97C377.73,-406.9 386.68,-404.77 395,-403 481.97,-384.48 507.59,-387.62 597.89,-367.05"/>
<polygon fill="midnightblue" stroke="midnightblue" points="598.77,-370.44 607.72,-364.78 597.19,-363.62 598.77,-370.44"/>
</g>
<!-- Node42&#45;&gt;Node11 -->
<g id="edge65" class="edge">
<title>Node42&#45;&gt;Node11</title>
<path fill="none" stroke="midnightblue" d="M1177.73,-291.46C1170.52,-264.31 1148.01,-179.51 1137.94,-141.62"/>
<polygon fill="midnightblue" stroke="midnightblue" points="1141.3,-140.64 1135.35,-131.87 1134.54,-142.43 1141.3,-140.64"/>
</g>
</g>
</svg>
        <g id="navigator" transform="translate(0 0)" fill="#404254">
                <rect fill="#f2f5e9" fill-opacity="0.5" stroke="#606060" stroke-width=".5" x="0" y="0" width="60" height="60"/>
                <use id="zoomplus" xlink:href="#zoomPlus" x="17" y="9" onmousedown="handleZoom(evt,'in')"/>
                <use id="zoomminus" xlink:href="#zoomMin" x="42" y="9" onmousedown="handleZoom(evt,'out')"/>
                <use id="reset" xlink:href="#resetDef" x="30" y="36" onmousedown="handleReset()"/>
                <g id="arrowUp" xlink:href="#dirArrow" transform="translate(30 24)" onmousedown="handlePan(0,-1)">
                  <use xlink:href="#rim" fill="#404040">
                        <set attributeName="fill" to="#808080" begin="arrowUp.mouseover" end="arrowUp.mouseout"/>
                  </use>
                  <path fill="none" stroke="white" stroke-width="1.5" d="M0,-3.0v7 M-2.5,-0.5L0,-3.0L2.5,-0.5"/>
                </g>
                <g id="arrowRight" xlink:href="#dirArrow" transform="rotate(90) translate(36 -43)" onmousedown="handlePan(1,0)">
                  <use xlink:href="#rim" fill="#404040">
                        <set attributeName="fill" to="#808080" begin="arrowRight.mouseover" end="arrowRight.mouseout"/>
                  </use>
                  <path fill="none" stroke="white" stroke-width="1.5" d="M0,-3.0v7 M-2.5,-0.5L0,-3.0L2.5,-0.5"/>
                </g>
                <g id="arrowDown" xlink:href="#dirArrow" transform="rotate(180) translate(-30 -48)" onmousedown="handlePan(0,1)">
                  <use xlink:href="#rim" fill="#404040">
                        <set attributeName="fill" to="#808080" begin="arrowDown.mouseover" end="arrowDown.mouseout"/>
                  </use>
                  <path fill="none" stroke="white" stroke-width="1.5" d="M0,-3.0v7 M-2.5,-0.5L0,-3.0L2.5,-0.5"/>
                </g>
                <g id="arrowLeft" xlink:href="#dirArrow" transform="rotate(270) translate(-36 17)" onmousedown="handlePan(-1,0)">
                  <use xlink:href="#rim" fill="#404040">
                        <set attributeName="fill" to="#808080" begin="arrowLeft.mouseover" end="arrowLeft.mouseout"/>
                  </use>
                  <path fill="none" stroke="white" stroke-width="1.5" d="M0,-3.0v7 M-2.5,-0.5L0,-3.0L2.5,-0.5"/>
                </g>
        </g>
        <svg viewBox="0 0 15 15" width="100%" height="30px" preserveAspectRatio="xMaxYMin meet">
         <g id="arrow_out" transform="scale(0.3 0.3)">
          <a xlink:href="BoundingBox_8hpp__incl_org.svg" target="_base">
           <rect id="button" ry="5" rx="5" y="6" x="6" height="38" width="38"
                fill="#f2f5e9" fill-opacity="0.5" stroke="#606060" stroke-width="1.0"/>
           <path id="arrow"
             d="M 11.500037,31.436501 C 11.940474,20.09759 22.043105,11.32322 32.158766,21.979434 L 37.068811,17.246167 C 37.068811,17.246167 37.088388,32 37.088388,32 L 22.160133,31.978069 C 22.160133,31.978069 26.997745,27.140456 26.997745,27.140456 C 18.528582,18.264221 13.291696,25.230495 11.500037,31.436501 z"
             style="fill:#404040;"/>
          </a>
         </g>
        </svg>
</svg>
