<?xml version="1.0" encoding="UTF-8" standalone="no"?>
<!DOCTYPE svg PUBLIC "-//W3C//DTD SVG 1.1//EN"
 "http://www.w3.org/Graphics/SVG/1.1/DTD/svg11.dtd">
<!-- Generated by graphviz version 2.43.0 (0)
 -->
<!-- Title: src/math/Bspline.cpp Pages: 1 -->
<!--zoomable 610 -->
<svg id="main" version="1.1" xmlns="http://www.w3.org/2000/svg" xmlns:xlink="http://www.w3.org/1999/xlink" xml:space="preserve" onload="init(evt)">
<style type="text/css"><![CDATA[
.edge:hover path { stroke: red; }
.edge:hover polygon { stroke: red; fill: red; }
]]></style>
<script type="text/javascript"><![CDATA[
var edges = document.getElementsByTagName('g');
if (edges && edges.length) {
  for (var i=0;i<edges.length;i++) {
    if (edges[i].id.substr(0,4)=='edge') {
      edges[i].setAttribute('class','edge');
    }
  }
}
]]></script>
        <defs>
                <circle id="rim" cx="0" cy="0" r="7"/>
                <circle id="rim2" cx="0" cy="0" r="3.5"/>
                <g id="zoomPlus">
                        <use xlink:href="#rim" fill="#404040">
                                <set attributeName="fill" to="#808080" begin="zoomplus.mouseover" end="zoomplus.mouseout"/>
                        </use>
                        <path d="M-4,0h8M0,-4v8" fill="none" stroke="white" stroke-width="1.5" pointer-events="none"/>
                </g>
                <g id="zoomMin">
                        <use xlink:href="#rim" fill="#404040">
                                <set attributeName="fill" to="#808080" begin="zoomminus.mouseover" end="zoomminus.mouseout"/>
                        </use>
                        <path d="M-4,0h8" fill="none" stroke="white" stroke-width="1.5" pointer-events="none"/>
                </g>
                <g id="dirArrow">
                        <path fill="none" stroke="white" stroke-width="1.5" d="M0,-3.0v7 M-2.5,-0.5L0,-3.0L2.5,-0.5"/>
                </g>
               <g id="resetDef">
                       <use xlink:href="#rim2" fill="#404040">
                               <set attributeName="fill" to="#808080" begin="reset.mouseover" end="reset.mouseout"/>
                       </use>
               </g>
        </defs>

<script type="text/javascript">
var viewWidth = 1743;
var viewHeight = 610;
var sectionId = 'dynsection-0';
</script>
<script xlink:href="svgpan.js"/>
<svg id="graph" class="graph">
<g id="viewport">
<title>src/math/Bspline.cpp</title>
<polygon fill="white" stroke="transparent" points="-4,4 -4,-606 1739,-606 1739,4 -4,4"/>
<!-- Node1 -->
<g id="node1" class="node">
<title>Node1</title>
<g id="a_node1"><a xlink:title=" ">
<polygon fill="#bfbfbf" stroke="black" points="552.5,-582.5 552.5,-601.5 671.5,-601.5 671.5,-582.5 552.5,-582.5"/>
<text text-anchor="middle" x="612" y="-589.5" font-family="Helvetica,sans-Serif" font-size="10.00">src/math/Bspline.cpp</text>
</a>
</g>
</g>
<!-- Node2 -->
<g id="node2" class="node">
<title>Node2</title>
<g id="a_node2"><a xlink:href="Bspline_8hpp.html" target="_top" xlink:title=" ">
<polygon fill="white" stroke="black" points="28,-470.5 28,-489.5 130,-489.5 130,-470.5 28,-470.5"/>
<text text-anchor="middle" x="79" y="-477.5" font-family="Helvetica,sans-Serif" font-size="10.00">math/Bspline.hpp</text>
</a>
</g>
</g>
<!-- Node1&#45;&gt;Node2 -->
<g id="edge1" class="edge">
<title>Node1&#45;&gt;Node2</title>
<path fill="none" stroke="midnightblue" d="M570.62,-582.46C474.4,-562.6 235.8,-513.36 130.43,-491.61"/>
<polygon fill="midnightblue" stroke="midnightblue" points="130.85,-488.13 120.35,-489.53 129.44,-494.98 130.85,-488.13"/>
</g>
<!-- Node3 -->
<g id="node3" class="node">
<title>Node3</title>
<g id="a_node3"><a xlink:title=" ">
<polygon fill="white" stroke="#bfbfbf" points="82.5,-0.5 82.5,-19.5 151.5,-19.5 151.5,-0.5 82.5,-0.5"/>
<text text-anchor="middle" x="117" y="-7.5" font-family="Helvetica,sans-Serif" font-size="10.00">Eigen/Core</text>
</a>
</g>
</g>
<!-- Node1&#45;&gt;Node3 -->
<g id="edge60" class="edge">
<title>Node1&#45;&gt;Node3</title>
<path fill="none" stroke="midnightblue" d="M552.48,-586.53C398.69,-574.17 0,-536.76 0,-481 0,-481 0,-481 0,-121 0,-73.6 51.6,-40.64 86.27,-23.85"/>
<polygon fill="midnightblue" stroke="midnightblue" points="87.95,-26.93 95.54,-19.54 85,-20.58 87.95,-26.93"/>
</g>
<!-- Node4 -->
<g id="node4" class="node">
<title>Node4</title>
<g id="a_node4"><a xlink:href="differences_8hpp.html" target="_top" xlink:title=" ">
<polygon fill="white" stroke="black" points="464,-526.5 464,-545.5 584,-545.5 584,-526.5 464,-526.5"/>
<text text-anchor="middle" x="524" y="-533.5" font-family="Helvetica,sans-Serif" font-size="10.00">math/differences.hpp</text>
</a>
</g>
</g>
<!-- Node1&#45;&gt;Node4 -->
<g id="edge3" class="edge">
<title>Node1&#45;&gt;Node4</title>
<path fill="none" stroke="midnightblue" d="M597.86,-582.32C584.13,-573.9 563.06,-560.97 546.94,-551.07"/>
<polygon fill="midnightblue" stroke="midnightblue" points="548.46,-547.9 538.1,-545.65 544.8,-553.87 548.46,-547.9"/>
</g>
<!-- Node5 -->
<g id="node5" class="node">
<title>Node5</title>
<g id="a_node5"><a xlink:href="assertion_8hpp.html" target="_top" xlink:title=" ">
<polygon fill="white" stroke="black" points="837.5,-470.5 837.5,-489.5 944.5,-489.5 944.5,-470.5 837.5,-470.5"/>
<text text-anchor="middle" x="891" y="-477.5" font-family="Helvetica,sans-Serif" font-size="10.00">utils/assertion.hpp</text>
</a>
</g>
</g>
<!-- Node1&#45;&gt;Node5 -->
<g id="edge59" class="edge">
<title>Node1&#45;&gt;Node5</title>
<path fill="none" stroke="midnightblue" d="M633.89,-582.37C683.09,-562.97 802.56,-515.87 859.63,-493.37"/>
<polygon fill="midnightblue" stroke="midnightblue" points="861.19,-496.52 869.21,-489.59 858.62,-490 861.19,-496.52"/>
</g>
<!-- Node6 -->
<g id="node6" class="node">
<title>Node6</title>
<g id="a_node6"><a xlink:title=" ">
<polygon fill="white" stroke="#bfbfbf" points="171.5,-409 171.5,-428 220.5,-428 220.5,-409 171.5,-409"/>
<text text-anchor="middle" x="196" y="-416" font-family="Helvetica,sans-Serif" font-size="10.00">cstdlib</text>
</a>
</g>
</g>
<!-- Node1&#45;&gt;Node6 -->
<g id="edge62" class="edge">
<title>Node1&#45;&gt;Node6</title>
<path fill="none" stroke="midnightblue" d="M612.04,-582.49C611.62,-568.63 608.71,-541.21 593,-526 474.94,-411.76 391.76,-483.14 235,-434 232.44,-433.2 229.8,-432.32 227.16,-431.41"/>
<polygon fill="midnightblue" stroke="midnightblue" points="228.32,-428.11 217.73,-428.03 225.96,-434.7 228.32,-428.11"/>
</g>
<!-- Node14 -->
<g id="node14" class="node">
<title>Node14</title>
<g id="a_node14"><a xlink:title=" ">
<polygon fill="white" stroke="#bfbfbf" points="1177,-56.5 1177,-75.5 1241,-75.5 1241,-56.5 1177,-56.5"/>
<text text-anchor="middle" x="1209" y="-63.5" font-family="Helvetica,sans-Serif" font-size="10.00">algorithm</text>
</a>
</g>
</g>
<!-- Node1&#45;&gt;Node14 -->
<g id="edge61" class="edge">
<title>Node1&#45;&gt;Node14</title>
<path fill="none" stroke="midnightblue" d="M671.72,-590.38C879.91,-587.43 1561,-570.93 1561,-481 1561,-481 1561,-481 1561,-182.5 1561,-117.95 1344.6,-83.62 1251.14,-71.8"/>
<polygon fill="midnightblue" stroke="midnightblue" points="1251.53,-68.32 1241.17,-70.57 1250.67,-75.27 1251.53,-68.32"/>
</g>
<!-- Node43 -->
<g id="node43" class="node">
<title>Node43</title>
<g id="a_node43"><a xlink:title=" ">
<polygon fill="white" stroke="#bfbfbf" points="1589,-526.5 1589,-545.5 1735,-545.5 1735,-526.5 1589,-526.5"/>
<text text-anchor="middle" x="1662" y="-533.5" font-family="Helvetica,sans-Serif" font-size="10.00">unsupported/Eigen/Splines</text>
</a>
</g>
</g>
<!-- Node1&#45;&gt;Node43 -->
<g id="edge63" class="edge">
<title>Node1&#45;&gt;Node43</title>
<path fill="none" stroke="midnightblue" d="M671.52,-589.39C822.66,-585.04 1233.48,-571.62 1575,-546 1576.28,-545.9 1577.57,-545.8 1578.86,-545.7"/>
<polygon fill="midnightblue" stroke="midnightblue" points="1579.25,-549.18 1588.93,-544.86 1578.67,-542.21 1579.25,-549.18"/>
</g>
<!-- Node2&#45;&gt;Node3 -->
<g id="edge2" class="edge">
<title>Node2&#45;&gt;Node3</title>
<path fill="none" stroke="midnightblue" d="M79,-470.49C79,-450.74 79,-400.22 79,-358 79,-358 79,-358 79,-121 79,-86.81 95.6,-49.76 106.86,-28.57"/>
<polygon fill="midnightblue" stroke="midnightblue" points="109.95,-30.22 111.72,-19.77 103.82,-26.83 109.95,-30.22"/>
</g>
<!-- Node4&#45;&gt;Node3 -->
<g id="edge4" class="edge">
<title>Node4&#45;&gt;Node3</title>
<path fill="none" stroke="midnightblue" d="M468.14,-526.46C377.51,-511.48 204.27,-477.87 162,-434 102.39,-372.13 117,-331.92 117,-246 117,-246 117,-246 117,-121 117,-88.95 117,-51.64 117,-29.75"/>
<polygon fill="midnightblue" stroke="midnightblue" points="120.5,-29.56 117,-19.56 113.5,-29.56 120.5,-29.56"/>
</g>
<!-- Node4&#45;&gt;Node5 -->
<g id="edge5" class="edge">
<title>Node4&#45;&gt;Node5</title>
<path fill="none" stroke="midnightblue" d="M582.15,-526.44C648.86,-516.63 757.91,-500.58 826.99,-490.42"/>
<polygon fill="midnightblue" stroke="midnightblue" points="827.91,-493.82 837.3,-488.9 826.9,-486.89 827.91,-493.82"/>
</g>
<!-- Node5&#45;&gt;Node6 -->
<g id="edge6" class="edge">
<title>Node5&#45;&gt;Node6</title>
<path fill="none" stroke="midnightblue" d="M837.38,-477.31C702.09,-472.71 349.52,-458.68 235,-434 231.75,-433.3 228.41,-432.38 225.12,-431.35"/>
<polygon fill="midnightblue" stroke="midnightblue" points="226.11,-427.99 215.51,-428 223.8,-434.6 226.11,-427.99"/>
</g>
<!-- Node7 -->
<g id="node7" class="node">
<title>Node7</title>
<g id="a_node7"><a xlink:title=" ">
<polygon fill="white" stroke="#bfbfbf" points="765,-409 765,-428 825,-428 825,-409 765,-409"/>
<text text-anchor="middle" x="795" y="-416" font-family="Helvetica,sans-Serif" font-size="10.00">iostream</text>
</a>
</g>
</g>
<!-- Node5&#45;&gt;Node7 -->
<g id="edge7" class="edge">
<title>Node5&#45;&gt;Node7</title>
<path fill="none" stroke="midnightblue" d="M877.25,-470.48C861.63,-460.8 835.94,-444.87 817.42,-433.39"/>
<polygon fill="midnightblue" stroke="midnightblue" points="819.07,-430.3 808.73,-428.01 815.38,-436.25 819.07,-430.3"/>
</g>
<!-- Node8 -->
<g id="node8" class="node">
<title>Node8</title>
<g id="a_node8"><a xlink:title=" ">
<polygon fill="white" stroke="#bfbfbf" points="790.5,-112.5 790.5,-131.5 863.5,-131.5 863.5,-112.5 790.5,-112.5"/>
<text text-anchor="middle" x="827" y="-119.5" font-family="Helvetica,sans-Serif" font-size="10.00">string_view</text>
</a>
</g>
</g>
<!-- Node5&#45;&gt;Node8 -->
<g id="edge8" class="edge">
<title>Node5&#45;&gt;Node8</title>
<path fill="none" stroke="midnightblue" d="M944.62,-478.6C1086.13,-477.05 1461.7,-469.6 1504,-434 1530.64,-411.58 1523,-392.82 1523,-358 1523,-358 1523,-358 1523,-244 1523,-169.26 1444.92,-188.34 1373,-168 1279.7,-141.61 988.69,-128.71 874.07,-124.56"/>
<polygon fill="midnightblue" stroke="midnightblue" points="873.98,-121.05 863.86,-124.19 873.73,-128.05 873.98,-121.05"/>
</g>
<!-- Node9 -->
<g id="node9" class="node">
<title>Node9</title>
<g id="a_node9"><a xlink:href="fmt_8hpp.html" target="_top" xlink:title=" ">
<polygon fill="white" stroke="black" points="573.5,-174 573.5,-193 652.5,-193 652.5,-174 573.5,-174"/>
<text text-anchor="middle" x="613" y="-181" font-family="Helvetica,sans-Serif" font-size="10.00">utils/fmt.hpp</text>
</a>
</g>
</g>
<!-- Node5&#45;&gt;Node9 -->
<g id="edge9" class="edge">
<title>Node5&#45;&gt;Node9</title>
<path fill="none" stroke="midnightblue" d="M888.09,-470.12C878.28,-441.24 843.85,-348.5 789,-291 746.68,-246.64 681.98,-213.89 643.94,-197.12"/>
<polygon fill="midnightblue" stroke="midnightblue" points="644.99,-193.76 634.42,-193.01 642.21,-200.18 644.99,-193.76"/>
</g>
<!-- Node23 -->
<g id="node23" class="node">
<title>Node23</title>
<g id="a_node23"><a xlink:title=" ">
<polygon fill="white" stroke="#bfbfbf" points="957.5,-409 957.5,-428 1104.5,-428 1104.5,-409 957.5,-409"/>
<text text-anchor="middle" x="1031" y="-416" font-family="Helvetica,sans-Serif" font-size="10.00">boost/current_function.hpp</text>
</a>
</g>
</g>
<!-- Node5&#45;&gt;Node23 -->
<g id="edge28" class="edge">
<title>Node5&#45;&gt;Node23</title>
<path fill="none" stroke="midnightblue" d="M911.06,-470.48C934.76,-460.4 974.41,-443.55 1001.58,-432"/>
<polygon fill="midnightblue" stroke="midnightblue" points="1003.14,-435.14 1010.98,-428.01 1000.41,-428.7 1003.14,-435.14"/>
</g>
<!-- Node24 -->
<g id="node24" class="node">
<title>Node24</title>
<g id="a_node24"><a xlink:title=" ">
<polygon fill="white" stroke="#bfbfbf" points="1161.5,-403.5 1161.5,-433.5 1296.5,-433.5 1296.5,-403.5 1161.5,-403.5"/>
<text text-anchor="start" x="1169.5" y="-421.5" font-family="Helvetica,sans-Serif" font-size="10.00">boost/preprocessor</text>
<text text-anchor="middle" x="1229" y="-410.5" font-family="Helvetica,sans-Serif" font-size="10.00">/comparison/greater.hpp</text>
</a>
</g>
</g>
<!-- Node5&#45;&gt;Node24 -->
<g id="edge29" class="edge">
<title>Node5&#45;&gt;Node24</title>
<path fill="none" stroke="midnightblue" d="M939.6,-470.47C991.1,-461.43 1074.78,-446.73 1147,-434 1148.47,-433.74 1149.95,-433.48 1151.45,-433.22"/>
<polygon fill="midnightblue" stroke="midnightblue" points="1152.19,-436.64 1161.43,-431.45 1150.98,-429.74 1152.19,-436.64"/>
</g>
<!-- Node25 -->
<g id="node25" class="node">
<title>Node25</title>
<g id="a_node25"><a xlink:title=" ">
<polygon fill="white" stroke="#bfbfbf" points="1126,-168.5 1126,-198.5 1236,-198.5 1236,-168.5 1126,-168.5"/>
<text text-anchor="start" x="1134" y="-186.5" font-family="Helvetica,sans-Serif" font-size="10.00">boost/preprocessor</text>
<text text-anchor="middle" x="1181" y="-175.5" font-family="Helvetica,sans-Serif" font-size="10.00">/control/if.hpp</text>
</a>
</g>
</g>
<!-- Node5&#45;&gt;Node25 -->
<g id="edge30" class="edge">
<title>Node5&#45;&gt;Node25</title>
<path fill="none" stroke="midnightblue" d="M897.06,-470.26C907.23,-455.79 928.61,-426.18 949,-403 1019.17,-323.25 1039.95,-305.96 1119,-235 1130.36,-224.8 1143.4,-214.05 1154.58,-205.1"/>
<polygon fill="midnightblue" stroke="midnightblue" points="1157.06,-207.6 1162.71,-198.64 1152.7,-202.12 1157.06,-207.6"/>
</g>
<!-- Node26 -->
<g id="node26" class="node">
<title>Node26</title>
<g id="a_node26"><a xlink:title=" ">
<polygon fill="white" stroke="#bfbfbf" points="1254,-168.5 1254,-198.5 1364,-198.5 1364,-168.5 1254,-168.5"/>
<text text-anchor="start" x="1262" y="-186.5" font-family="Helvetica,sans-Serif" font-size="10.00">boost/preprocessor</text>
<text text-anchor="middle" x="1309" y="-175.5" font-family="Helvetica,sans-Serif" font-size="10.00">/stringize.hpp</text>
</a>
</g>
</g>
<!-- Node5&#45;&gt;Node26 -->
<g id="edge31" class="edge">
<title>Node5&#45;&gt;Node26</title>
<path fill="none" stroke="midnightblue" d="M944.73,-474.7C1002.78,-468.95 1090.19,-456.74 1114,-434 1139.18,-409.95 1133,-392.82 1133,-358 1133,-358 1133,-358 1133,-300 1133,-268.26 1214.02,-226.42 1266.12,-202.8"/>
<polygon fill="midnightblue" stroke="midnightblue" points="1267.78,-205.89 1275.48,-198.61 1264.92,-199.5 1267.78,-205.89"/>
</g>
<!-- Node27 -->
<g id="node27" class="node">
<title>Node27</title>
<g id="a_node27"><a xlink:title=" ">
<polygon fill="white" stroke="#bfbfbf" points="1315,-403.5 1315,-433.5 1425,-433.5 1425,-403.5 1315,-403.5"/>
<text text-anchor="start" x="1323" y="-421.5" font-family="Helvetica,sans-Serif" font-size="10.00">boost/preprocessor</text>
<text text-anchor="middle" x="1370" y="-410.5" font-family="Helvetica,sans-Serif" font-size="10.00">/variadic/size.hpp</text>
</a>
</g>
</g>
<!-- Node5&#45;&gt;Node27 -->
<g id="edge32" class="edge">
<title>Node5&#45;&gt;Node27</title>
<path fill="none" stroke="midnightblue" d="M944.66,-475.16C1022.07,-469.19 1169.72,-456.16 1304.8,-434.08"/>
<polygon fill="midnightblue" stroke="midnightblue" points="1305.63,-437.49 1314.92,-432.4 1304.48,-430.58 1305.63,-437.49"/>
</g>
<!-- Node28 -->
<g id="node28" class="node">
<title>Node28</title>
<g id="a_node28"><a xlink:href="ArgumentFormatter_8hpp.html" target="_top" xlink:title=" ">
<polygon fill="white" stroke="black" points="814.5,-235.5 814.5,-254.5 971.5,-254.5 971.5,-235.5 814.5,-235.5"/>
<text text-anchor="middle" x="893" y="-242.5" font-family="Helvetica,sans-Serif" font-size="10.00">utils/ArgumentFormatter.hpp</text>
</a>
</g>
</g>
<!-- Node5&#45;&gt;Node28 -->
<g id="edge33" class="edge">
<title>Node5&#45;&gt;Node28</title>
<path fill="none" stroke="midnightblue" d="M891.07,-470.43C891.36,-436.75 892.42,-312.99 892.84,-265.1"/>
<polygon fill="midnightblue" stroke="midnightblue" points="896.34,-264.93 892.92,-254.9 889.34,-264.87 896.34,-264.93"/>
</g>
<!-- Node32 -->
<g id="node32" class="node">
<title>Node32</title>
<g id="a_node32"><a xlink:href="Parallel_8hpp.html" target="_top" xlink:title=" ">
<polygon fill="white" stroke="black" points="512,-409 512,-428 610,-428 610,-409 512,-409"/>
<text text-anchor="middle" x="561" y="-416" font-family="Helvetica,sans-Serif" font-size="10.00">utils/Parallel.hpp</text>
</a>
</g>
</g>
<!-- Node5&#45;&gt;Node32 -->
<g id="edge40" class="edge">
<title>Node5&#45;&gt;Node32</title>
<path fill="none" stroke="midnightblue" d="M843.72,-470.48C784.17,-459.74 681.94,-441.31 618.1,-429.79"/>
<polygon fill="midnightblue" stroke="midnightblue" points="618.66,-426.34 608.19,-428.01 617.41,-433.23 618.66,-426.34"/>
</g>
<!-- Node41 -->
<g id="node41" class="node">
<title>Node41</title>
<g id="a_node41"><a xlink:href="stacktrace_8hpp.html" target="_top" xlink:title=" ">
<polygon fill="white" stroke="black" points="145.5,-291.5 145.5,-310.5 258.5,-310.5 258.5,-291.5 145.5,-291.5"/>
<text text-anchor="middle" x="202" y="-298.5" font-family="Helvetica,sans-Serif" font-size="10.00">utils/stacktrace.hpp</text>
</a>
</g>
</g>
<!-- Node5&#45;&gt;Node41 -->
<g id="edge56" class="edge">
<title>Node5&#45;&gt;Node41</title>
<path fill="none" stroke="midnightblue" d="M837.21,-475.63C761.89,-470.26 620.98,-457.85 503,-434 398.64,-412.9 365.8,-419.2 273,-367 250.35,-354.26 229.02,-333.02 215.77,-318.3"/>
<polygon fill="midnightblue" stroke="midnightblue" points="218.16,-315.73 208.95,-310.5 212.9,-320.33 218.16,-315.73"/>
</g>
<!-- Node42 -->
<g id="node42" class="node">
<title>Node42</title>
<g id="a_node42"><a xlink:title=" ">
<polygon fill="white" stroke="#bfbfbf" points="1443,-409 1443,-428 1495,-428 1495,-409 1443,-409"/>
<text text-anchor="middle" x="1469" y="-416" font-family="Helvetica,sans-Serif" font-size="10.00">cassert</text>
</a>
</g>
</g>
<!-- Node5&#45;&gt;Node42 -->
<g id="edge58" class="edge">
<title>Node5&#45;&gt;Node42</title>
<path fill="none" stroke="midnightblue" d="M944.83,-476.66C1063.06,-471.17 1342.18,-456.25 1434,-434 1436.52,-433.39 1439.09,-432.62 1441.64,-431.77"/>
<polygon fill="midnightblue" stroke="midnightblue" points="1443.09,-434.96 1451.19,-428.13 1440.6,-428.41 1443.09,-434.96"/>
</g>
<!-- Node9&#45;&gt;Node8 -->
<g id="edge11" class="edge">
<title>Node9&#45;&gt;Node8</title>
<path fill="none" stroke="midnightblue" d="M643.66,-173.98C681.24,-163.53 745.04,-145.79 786.6,-134.23"/>
<polygon fill="midnightblue" stroke="midnightblue" points="787.7,-137.56 796.4,-131.51 785.82,-130.82 787.7,-137.56"/>
</g>
<!-- Node10 -->
<g id="node10" class="node">
<title>Node10</title>
<g id="a_node10"><a xlink:title=" ">
<polygon fill="white" stroke="#bfbfbf" points="301,-112.5 301,-131.5 345,-131.5 345,-112.5 301,-112.5"/>
<text text-anchor="middle" x="323" y="-119.5" font-family="Helvetica,sans-Serif" font-size="10.00">string</text>
</a>
</g>
</g>
<!-- Node9&#45;&gt;Node10 -->
<g id="edge10" class="edge">
<title>Node9&#45;&gt;Node10</title>
<path fill="none" stroke="midnightblue" d="M573.27,-175.9C524.17,-167.49 437.92,-151.9 355.1,-132.1"/>
<polygon fill="midnightblue" stroke="midnightblue" points="355.83,-128.68 345.29,-129.73 354.19,-135.48 355.83,-128.68"/>
</g>
<!-- Node11 -->
<g id="node11" class="node">
<title>Node11</title>
<g id="a_node11"><a xlink:title=" ">
<polygon fill="white" stroke="#bfbfbf" points="501.5,-56.5 501.5,-75.5 580.5,-75.5 580.5,-56.5 501.5,-56.5"/>
<text text-anchor="middle" x="541" y="-63.5" font-family="Helvetica,sans-Serif" font-size="10.00">fmt/format.h</text>
</a>
</g>
</g>
<!-- Node9&#45;&gt;Node11 -->
<g id="edge12" class="edge">
<title>Node9&#45;&gt;Node11</title>
<path fill="none" stroke="midnightblue" d="M597.84,-173.97C583.88,-165.28 563.75,-150.48 553,-132 544.8,-117.9 542,-99.41 541.14,-85.76"/>
<polygon fill="midnightblue" stroke="midnightblue" points="544.64,-85.5 540.8,-75.63 537.64,-85.74 544.64,-85.5"/>
</g>
<!-- Node12 -->
<g id="node12" class="node">
<title>Node12</title>
<g id="a_node12"><a xlink:title=" ">
<polygon fill="white" stroke="#bfbfbf" points="686,-112.5 686,-131.5 772,-131.5 772,-112.5 686,-112.5"/>
<text text-anchor="middle" x="729" y="-119.5" font-family="Helvetica,sans-Serif" font-size="10.00">fmt/ostream.h</text>
</a>
</g>
</g>
<!-- Node9&#45;&gt;Node12 -->
<g id="edge13" class="edge">
<title>Node9&#45;&gt;Node12</title>
<path fill="none" stroke="midnightblue" d="M629.62,-173.98C648.92,-164.08 680.96,-147.64 703.43,-136.12"/>
<polygon fill="midnightblue" stroke="midnightblue" points="705.11,-139.19 712.41,-131.51 701.92,-132.96 705.11,-139.19"/>
</g>
<!-- Node13 -->
<g id="node13" class="node">
<title>Node13</title>
<g id="a_node13"><a xlink:href="fmtEigen_8hpp.html" target="_top" xlink:title=" ">
<polygon fill="white" stroke="black" points="562,-112.5 562,-131.5 668,-131.5 668,-112.5 562,-112.5"/>
<text text-anchor="middle" x="615" y="-119.5" font-family="Helvetica,sans-Serif" font-size="10.00">utils/fmtEigen.hpp</text>
</a>
</g>
</g>
<!-- Node9&#45;&gt;Node13 -->
<g id="edge14" class="edge">
<title>Node9&#45;&gt;Node13</title>
<path fill="none" stroke="midnightblue" d="M613.29,-173.98C613.57,-165.58 614.01,-152.48 614.37,-141.66"/>
<polygon fill="midnightblue" stroke="midnightblue" points="617.88,-141.62 614.71,-131.51 610.88,-141.39 617.88,-141.62"/>
</g>
<!-- Node17 -->
<g id="node17" class="node">
<title>Node17</title>
<g id="a_node17"><a xlink:href="fmtSTL_8hpp.html" target="_top" xlink:title=" ">
<polygon fill="white" stroke="black" points="363,-112.5 363,-131.5 459,-131.5 459,-112.5 363,-112.5"/>
<text text-anchor="middle" x="411" y="-119.5" font-family="Helvetica,sans-Serif" font-size="10.00">utils/fmtSTL.hpp</text>
</a>
</g>
</g>
<!-- Node9&#45;&gt;Node17 -->
<g id="edge21" class="edge">
<title>Node9&#45;&gt;Node17</title>
<path fill="none" stroke="midnightblue" d="M584.06,-173.98C548.73,-163.57 488.87,-145.94 449.64,-134.38"/>
<polygon fill="midnightblue" stroke="midnightblue" points="450.47,-130.98 439.89,-131.51 448.49,-137.69 450.47,-130.98"/>
</g>
<!-- Node13&#45;&gt;Node3 -->
<g id="edge15" class="edge">
<title>Node13&#45;&gt;Node3</title>
<path fill="none" stroke="midnightblue" d="M614.29,-112.12C612.62,-97.72 607.1,-69.55 589,-56 555.25,-30.73 273.18,-17.08 161.89,-12.64"/>
<polygon fill="midnightblue" stroke="midnightblue" points="161.8,-9.14 151.67,-12.24 161.52,-16.13 161.8,-9.14"/>
</g>
<!-- Node13&#45;&gt;Node11 -->
<g id="edge17" class="edge">
<title>Node13&#45;&gt;Node11</title>
<path fill="none" stroke="midnightblue" d="M603.11,-112.32C591.85,-104.11 574.71,-91.6 561.29,-81.81"/>
<polygon fill="midnightblue" stroke="midnightblue" points="563.25,-78.9 553.11,-75.83 559.12,-84.56 563.25,-78.9"/>
</g>
<!-- Node13&#45;&gt;Node14 -->
<g id="edge16" class="edge">
<title>Node13&#45;&gt;Node14</title>
<path fill="none" stroke="midnightblue" d="M668.07,-113.08C671.09,-112.7 674.08,-112.33 677,-112 858.81,-91.13 1076.61,-75.69 1166.75,-69.71"/>
<polygon fill="midnightblue" stroke="midnightblue" points="1167.1,-73.2 1176.85,-69.05 1166.64,-66.21 1167.1,-73.2"/>
</g>
<!-- Node15 -->
<g id="node15" class="node">
<title>Node15</title>
<g id="a_node15"><a xlink:title=" ">
<polygon fill="white" stroke="#bfbfbf" points="755,-56.5 755,-75.5 811,-75.5 811,-56.5 755,-56.5"/>
<text text-anchor="middle" x="783" y="-63.5" font-family="Helvetica,sans-Serif" font-size="10.00">sstream</text>
</a>
</g>
</g>
<!-- Node13&#45;&gt;Node15 -->
<g id="edge18" class="edge">
<title>Node13&#45;&gt;Node15</title>
<path fill="none" stroke="midnightblue" d="M641.62,-112.44C670.01,-103.32 715.14,-88.81 746.75,-78.65"/>
<polygon fill="midnightblue" stroke="midnightblue" points="748.06,-81.91 756.5,-75.52 745.91,-75.24 748.06,-81.91"/>
</g>
<!-- Node16 -->
<g id="node16" class="node">
<title>Node16</title>
<g id="a_node16"><a xlink:href="EigenIO_8hpp.html" target="_top" xlink:title=" ">
<polygon fill="white" stroke="black" points="637.5,-56.5 637.5,-75.5 736.5,-75.5 736.5,-56.5 637.5,-56.5"/>
<text text-anchor="middle" x="687" y="-63.5" font-family="Helvetica,sans-Serif" font-size="10.00">utils/EigenIO.hpp</text>
</a>
</g>
</g>
<!-- Node13&#45;&gt;Node16 -->
<g id="edge19" class="edge">
<title>Node13&#45;&gt;Node16</title>
<path fill="none" stroke="midnightblue" d="M626.57,-112.32C637.42,-104.18 653.88,-91.84 666.88,-82.09"/>
<polygon fill="midnightblue" stroke="midnightblue" points="669.32,-84.63 675.22,-75.83 665.12,-79.03 669.32,-84.63"/>
</g>
<!-- Node16&#45;&gt;Node3 -->
<g id="edge20" class="edge">
<title>Node16&#45;&gt;Node3</title>
<path fill="none" stroke="midnightblue" d="M637.42,-57.77C632.55,-57.14 627.68,-56.54 623,-56 453.13,-36.52 250.35,-20.73 161.93,-14.22"/>
<polygon fill="midnightblue" stroke="midnightblue" points="161.95,-10.71 151.72,-13.47 161.44,-17.7 161.95,-10.71"/>
</g>
<!-- Node17&#45;&gt;Node11 -->
<g id="edge24" class="edge">
<title>Node17&#45;&gt;Node11</title>
<path fill="none" stroke="midnightblue" d="M431.6,-112.44C452.99,-103.56 486.68,-89.56 511.02,-79.45"/>
<polygon fill="midnightblue" stroke="midnightblue" points="512.61,-82.58 520.5,-75.52 509.92,-76.12 512.61,-82.58"/>
</g>
<!-- Node18 -->
<g id="node18" class="node">
<title>Node18</title>
<g id="a_node18"><a xlink:title=" ">
<polygon fill="white" stroke="#bfbfbf" points="441,-56.5 441,-75.5 483,-75.5 483,-56.5 441,-56.5"/>
<text text-anchor="middle" x="462" y="-63.5" font-family="Helvetica,sans-Serif" font-size="10.00">array</text>
</a>
</g>
</g>
<!-- Node17&#45;&gt;Node18 -->
<g id="edge22" class="edge">
<title>Node17&#45;&gt;Node18</title>
<path fill="none" stroke="midnightblue" d="M419.42,-112.08C426.85,-104.22 437.85,-92.57 446.81,-83.08"/>
<polygon fill="midnightblue" stroke="midnightblue" points="449.41,-85.42 453.74,-75.75 444.32,-80.62 449.41,-85.42"/>
</g>
<!-- Node19 -->
<g id="node19" class="node">
<title>Node19</title>
<g id="a_node19"><a xlink:title=" ">
<polygon fill="white" stroke="#bfbfbf" points="269.5,-56.5 269.5,-75.5 316.5,-75.5 316.5,-56.5 269.5,-56.5"/>
<text text-anchor="middle" x="293" y="-63.5" font-family="Helvetica,sans-Serif" font-size="10.00">deque</text>
</a>
</g>
</g>
<!-- Node17&#45;&gt;Node19 -->
<g id="edge23" class="edge">
<title>Node17&#45;&gt;Node19</title>
<path fill="none" stroke="midnightblue" d="M392.3,-112.44C373.06,-103.64 342.85,-89.81 320.8,-79.72"/>
<polygon fill="midnightblue" stroke="midnightblue" points="322.16,-76.5 311.61,-75.52 319.25,-82.86 322.16,-76.5"/>
</g>
<!-- Node20 -->
<g id="node20" class="node">
<title>Node20</title>
<g id="a_node20"><a xlink:title=" ">
<polygon fill="white" stroke="#bfbfbf" points="335,-56.5 335,-75.5 373,-75.5 373,-56.5 335,-56.5"/>
<text text-anchor="middle" x="354" y="-63.5" font-family="Helvetica,sans-Serif" font-size="10.00">map</text>
</a>
</g>
</g>
<!-- Node17&#45;&gt;Node20 -->
<g id="edge25" class="edge">
<title>Node17&#45;&gt;Node20</title>
<path fill="none" stroke="midnightblue" d="M401.84,-112.32C393.5,-104.42 380.97,-92.55 370.82,-82.94"/>
<polygon fill="midnightblue" stroke="midnightblue" points="372.99,-80.17 363.32,-75.83 368.18,-85.25 372.99,-80.17"/>
</g>
<!-- Node21 -->
<g id="node21" class="node">
<title>Node21</title>
<g id="a_node21"><a xlink:title=" ">
<polygon fill="white" stroke="#bfbfbf" points="391,-56.5 391,-75.5 423,-75.5 423,-56.5 391,-56.5"/>
<text text-anchor="middle" x="407" y="-63.5" font-family="Helvetica,sans-Serif" font-size="10.00">set</text>
</a>
</g>
</g>
<!-- Node17&#45;&gt;Node21 -->
<g id="edge26" class="edge">
<title>Node17&#45;&gt;Node21</title>
<path fill="none" stroke="midnightblue" d="M410.34,-112.08C409.82,-105.01 409.06,-94.86 408.41,-85.99"/>
<polygon fill="midnightblue" stroke="midnightblue" points="411.88,-85.47 407.65,-75.75 404.9,-85.98 411.88,-85.47"/>
</g>
<!-- Node22 -->
<g id="node22" class="node">
<title>Node22</title>
<g id="a_node22"><a xlink:title=" ">
<polygon fill="white" stroke="#bfbfbf" points="204.5,-56.5 204.5,-75.5 251.5,-75.5 251.5,-56.5 204.5,-56.5"/>
<text text-anchor="middle" x="228" y="-63.5" font-family="Helvetica,sans-Serif" font-size="10.00">vector</text>
</a>
</g>
</g>
<!-- Node17&#45;&gt;Node22 -->
<g id="edge27" class="edge">
<title>Node17&#45;&gt;Node22</title>
<path fill="none" stroke="midnightblue" d="M382,-112.44C349.16,-102.75 295.75,-86.99 261.25,-76.81"/>
<polygon fill="midnightblue" stroke="midnightblue" points="262.21,-73.44 251.62,-73.97 260.22,-80.16 262.21,-73.44"/>
</g>
<!-- Node28&#45;&gt;Node9 -->
<g id="edge39" class="edge">
<title>Node28&#45;&gt;Node9</title>
<path fill="none" stroke="midnightblue" d="M852.88,-235.48C802.74,-224.82 716.91,-206.58 662.67,-195.05"/>
<polygon fill="midnightblue" stroke="midnightblue" points="663.1,-191.57 652.59,-192.91 661.64,-198.42 663.1,-191.57"/>
</g>
<!-- Node28&#45;&gt;Node25 -->
<g id="edge34" class="edge">
<title>Node28&#45;&gt;Node25</title>
<path fill="none" stroke="midnightblue" d="M937.27,-235.44C980.38,-227.03 1048.03,-213.63 1115.86,-199.22"/>
<polygon fill="midnightblue" stroke="midnightblue" points="1116.81,-202.59 1125.86,-197.08 1115.35,-195.75 1116.81,-202.59"/>
</g>
<!-- Node28&#45;&gt;Node26 -->
<g id="edge36" class="edge">
<title>Node28&#45;&gt;Node26</title>
<path fill="none" stroke="midnightblue" d="M971.62,-236.13C1040.86,-228.69 1144.62,-216.34 1244,-199.07"/>
<polygon fill="midnightblue" stroke="midnightblue" points="1244.67,-202.51 1253.91,-197.33 1243.45,-195.62 1244.67,-202.51"/>
</g>
<!-- Node29 -->
<g id="node29" class="node">
<title>Node29</title>
<g id="a_node29"><a xlink:title=" ">
<polygon fill="white" stroke="#bfbfbf" points="709.5,-168.5 709.5,-198.5 820.5,-198.5 820.5,-168.5 709.5,-168.5"/>
<text text-anchor="start" x="717.5" y="-186.5" font-family="Helvetica,sans-Serif" font-size="10.00">boost/preprocessor</text>
<text text-anchor="middle" x="765" y="-175.5" font-family="Helvetica,sans-Serif" font-size="10.00">/seq/for_each_i.hpp</text>
</a>
</g>
</g>
<!-- Node28&#45;&gt;Node29 -->
<g id="edge35" class="edge">
<title>Node28&#45;&gt;Node29</title>
<path fill="none" stroke="midnightblue" d="M874.66,-235.48C856.43,-227 827.9,-213.74 804.5,-202.86"/>
<polygon fill="midnightblue" stroke="midnightblue" points="805.71,-199.56 795.17,-198.52 802.76,-205.91 805.71,-199.56"/>
</g>
<!-- Node30 -->
<g id="node30" class="node">
<title>Node30</title>
<g id="a_node30"><a xlink:title=" ">
<polygon fill="white" stroke="#bfbfbf" points="838.5,-168.5 838.5,-198.5 953.5,-198.5 953.5,-168.5 838.5,-168.5"/>
<text text-anchor="start" x="846.5" y="-186.5" font-family="Helvetica,sans-Serif" font-size="10.00">boost/preprocessor</text>
<text text-anchor="middle" x="896" y="-175.5" font-family="Helvetica,sans-Serif" font-size="10.00">/variadic/to_seq.hpp</text>
</a>
</g>
</g>
<!-- Node28&#45;&gt;Node30 -->
<g id="edge37" class="edge">
<title>Node28&#45;&gt;Node30</title>
<path fill="none" stroke="midnightblue" d="M893.43,-235.48C893.78,-228.47 894.3,-218.19 894.78,-208.7"/>
<polygon fill="midnightblue" stroke="midnightblue" points="898.28,-208.69 895.29,-198.52 891.29,-208.33 898.28,-208.69"/>
</g>
<!-- Node31 -->
<g id="node31" class="node">
<title>Node31</title>
<g id="a_node31"><a xlink:title=" ">
<polygon fill="white" stroke="#bfbfbf" points="972,-174 972,-193 1108,-193 1108,-174 972,-174"/>
<text text-anchor="middle" x="1040" y="-181" font-family="Helvetica,sans-Serif" font-size="10.00">boost/vmd/is_empty.hpp</text>
</a>
</g>
</g>
<!-- Node28&#45;&gt;Node31 -->
<g id="edge38" class="edge">
<title>Node28&#45;&gt;Node31</title>
<path fill="none" stroke="midnightblue" d="M914.06,-235.48C939.06,-225.36 980.94,-208.4 1009.49,-196.85"/>
<polygon fill="midnightblue" stroke="midnightblue" points="1011.02,-200.01 1018.98,-193.01 1008.39,-193.52 1011.02,-200.01"/>
</g>
<!-- Node32&#45;&gt;Node10 -->
<g id="edge44" class="edge">
<title>Node32&#45;&gt;Node10</title>
<path fill="none" stroke="midnightblue" d="M511.58,-411.81C455.23,-404.36 367.82,-389.53 344,-367 322.13,-346.32 325,-332.1 325,-302 325,-302 325,-302 325,-244 325,-207.71 324.09,-165.3 323.5,-141.56"/>
<polygon fill="midnightblue" stroke="midnightblue" points="326.99,-141.41 323.24,-131.51 320,-141.59 326.99,-141.41"/>
</g>
<!-- Node32&#45;&gt;Node22 -->
<g id="edge45" class="edge">
<title>Node32&#45;&gt;Node22</title>
<path fill="none" stroke="midnightblue" d="M511.87,-409.62C447.11,-398.82 339.74,-379.38 326,-367 240.85,-290.28 229.42,-138.64 228.09,-85.74"/>
<polygon fill="midnightblue" stroke="midnightblue" points="231.59,-85.45 227.93,-75.5 224.59,-85.55 231.59,-85.45"/>
</g>
<!-- Node33 -->
<g id="node33" class="node">
<title>Node33</title>
<g id="a_node33"><a xlink:title=" ">
<polygon fill="white" stroke="#bfbfbf" points="537,-347.5 537,-366.5 585,-366.5 585,-347.5 537,-347.5"/>
<text text-anchor="middle" x="561" y="-354.5" font-family="Helvetica,sans-Serif" font-size="10.00">iosfwd</text>
</a>
</g>
</g>
<!-- Node32&#45;&gt;Node33 -->
<g id="edge41" class="edge">
<title>Node32&#45;&gt;Node33</title>
<path fill="none" stroke="midnightblue" d="M561,-408.98C561,-400.58 561,-387.48 561,-376.66"/>
<polygon fill="midnightblue" stroke="midnightblue" points="564.5,-376.51 561,-366.51 557.5,-376.51 564.5,-376.51"/>
</g>
<!-- Node34 -->
<g id="node34" class="node">
<title>Node34</title>
<g id="a_node34"><a xlink:title=" ">
<polygon fill="white" stroke="#bfbfbf" points="722,-291.5 722,-310.5 780,-310.5 780,-291.5 722,-291.5"/>
<text text-anchor="middle" x="751" y="-298.5" font-family="Helvetica,sans-Serif" font-size="10.00">memory</text>
</a>
</g>
</g>
<!-- Node32&#45;&gt;Node34 -->
<g id="edge42" class="edge">
<title>Node32&#45;&gt;Node34</title>
<path fill="none" stroke="midnightblue" d="M610.07,-414.04C671.95,-408.53 773.09,-395.36 796,-367 809.34,-350.49 790.13,-330.2 772.83,-316.72"/>
<polygon fill="midnightblue" stroke="midnightblue" points="774.78,-313.81 764.65,-310.7 770.63,-319.45 774.78,-313.81"/>
</g>
<!-- Node35 -->
<g id="node35" class="node">
<title>Node35</title>
<g id="a_node35"><a xlink:title=" ">
<polygon fill="white" stroke="#bfbfbf" points="731,-347.5 731,-366.5 787,-366.5 787,-347.5 731,-347.5"/>
<text text-anchor="middle" x="759" y="-354.5" font-family="Helvetica,sans-Serif" font-size="10.00">optional</text>
</a>
</g>
</g>
<!-- Node32&#45;&gt;Node35 -->
<g id="edge43" class="edge">
<title>Node32&#45;&gt;Node35</title>
<path fill="none" stroke="midnightblue" d="M589.37,-408.98C623.92,-398.59 682.42,-381.01 720.88,-369.45"/>
<polygon fill="midnightblue" stroke="midnightblue" points="722.11,-372.74 730.68,-366.51 720.1,-366.04 722.11,-372.74"/>
</g>
<!-- Node36 -->
<g id="node36" class="node">
<title>Node36</title>
<g id="a_node36"><a xlink:href="Logger_8hpp.html" target="_top" xlink:title=" ">
<polygon fill="white" stroke="black" points="603.5,-347.5 603.5,-366.5 712.5,-366.5 712.5,-347.5 603.5,-347.5"/>
<text text-anchor="middle" x="658" y="-354.5" font-family="Helvetica,sans-Serif" font-size="10.00">logging/Logger.hpp</text>
</a>
</g>
</g>
<!-- Node32&#45;&gt;Node36 -->
<g id="edge46" class="edge">
<title>Node32&#45;&gt;Node36</title>
<path fill="none" stroke="midnightblue" d="M574.9,-408.98C590.67,-399.3 616.64,-383.37 635.35,-371.89"/>
<polygon fill="midnightblue" stroke="midnightblue" points="637.43,-374.72 644.13,-366.51 633.77,-368.75 637.43,-374.72"/>
</g>
<!-- Node39 -->
<g id="node39" class="node">
<title>Node39</title>
<g id="a_node39"><a xlink:href="types_8hpp.html" target="_top" xlink:title=" ">
<polygon fill="white" stroke="black" points="353.5,-347.5 353.5,-366.5 456.5,-366.5 456.5,-347.5 353.5,-347.5"/>
<text text-anchor="middle" x="405" y="-354.5" font-family="Helvetica,sans-Serif" font-size="10.00">precice/types.hpp</text>
</a>
</g>
</g>
<!-- Node32&#45;&gt;Node39 -->
<g id="edge54" class="edge">
<title>Node32&#45;&gt;Node39</title>
<path fill="none" stroke="midnightblue" d="M538.65,-408.98C512.01,-398.81 467.29,-381.76 436.99,-370.2"/>
<polygon fill="midnightblue" stroke="midnightblue" points="437.9,-366.8 427.31,-366.51 435.41,-373.34 437.9,-366.8"/>
</g>
<!-- Node40 -->
<g id="node40" class="node">
<title>Node40</title>
<g id="a_node40"><a xlink:title=" ">
<polygon fill="white" stroke="#bfbfbf" points="475,-347.5 475,-366.5 519,-366.5 519,-347.5 475,-347.5"/>
<text text-anchor="middle" x="497" y="-354.5" font-family="Helvetica,sans-Serif" font-size="10.00">mpi.h</text>
</a>
</g>
</g>
<!-- Node32&#45;&gt;Node40 -->
<g id="edge55" class="edge">
<title>Node32&#45;&gt;Node40</title>
<path fill="none" stroke="midnightblue" d="M551.83,-408.98C541.85,-399.7 525.69,-384.67 513.49,-373.33"/>
<polygon fill="midnightblue" stroke="midnightblue" points="515.86,-370.75 506.15,-366.51 511.09,-375.88 515.86,-370.75"/>
</g>
<!-- Node36&#45;&gt;Node8 -->
<g id="edge48" class="edge">
<title>Node36&#45;&gt;Node8</title>
<path fill="none" stroke="midnightblue" d="M658.86,-347.07C662.24,-313.51 675.71,-195.41 700,-168 711.09,-155.48 749.43,-142.9 781.11,-134.24"/>
<polygon fill="midnightblue" stroke="midnightblue" points="782.36,-137.53 791.12,-131.57 780.55,-130.77 782.36,-137.53"/>
</g>
<!-- Node36&#45;&gt;Node34 -->
<g id="edge47" class="edge">
<title>Node36&#45;&gt;Node34</title>
<path fill="none" stroke="midnightblue" d="M672.94,-347.32C687.59,-338.82 710.13,-325.73 727.24,-315.8"/>
<polygon fill="midnightblue" stroke="midnightblue" points="729.2,-318.7 736.1,-310.65 725.69,-312.65 729.2,-318.7"/>
</g>
<!-- Node37 -->
<g id="node37" class="node">
<title>Node37</title>
<g id="a_node37"><a xlink:href="LogMacros_8hpp.html" target="_top" xlink:title=" ">
<polygon fill="white" stroke="black" points="563,-291.5 563,-310.5 653,-310.5 653,-291.5 563,-291.5"/>
<text text-anchor="middle" x="608" y="-298.5" font-family="Helvetica,sans-Serif" font-size="10.00">LogMacros.hpp</text>
</a>
</g>
</g>
<!-- Node36&#45;&gt;Node37 -->
<g id="edge49" class="edge">
<title>Node36&#45;&gt;Node37</title>
<path fill="none" stroke="midnightblue" d="M649.74,-347.08C642.54,-339.3 631.89,-327.8 623.15,-318.37"/>
<polygon fill="midnightblue" stroke="midnightblue" points="625.47,-315.71 616.1,-310.75 620.33,-320.47 625.47,-315.71"/>
</g>
<!-- Node37&#45;&gt;Node9 -->
<g id="edge50" class="edge">
<title>Node37&#45;&gt;Node9</title>
<path fill="none" stroke="midnightblue" d="M608.38,-291.32C609.18,-272.76 611.08,-228.84 612.18,-203.47"/>
<polygon fill="midnightblue" stroke="midnightblue" points="615.68,-203.42 612.62,-193.28 608.69,-203.12 615.68,-203.42"/>
</g>
<!-- Node37&#45;&gt;Node28 -->
<g id="edge51" class="edge">
<title>Node37&#45;&gt;Node28</title>
<path fill="none" stroke="midnightblue" d="M653.16,-291.44C703.29,-281.94 784.22,-266.61 838.01,-256.42"/>
<polygon fill="midnightblue" stroke="midnightblue" points="838.88,-259.82 848.05,-254.52 837.58,-252.94 838.88,-259.82"/>
</g>
<!-- Node38 -->
<g id="node38" class="node">
<title>Node38</title>
<g id="a_node38"><a xlink:href="Tracer_8hpp.html" target="_top" xlink:title=" ">
<polygon fill="white" stroke="black" points="480.5,-235.5 480.5,-254.5 585.5,-254.5 585.5,-235.5 480.5,-235.5"/>
<text text-anchor="middle" x="533" y="-242.5" font-family="Helvetica,sans-Serif" font-size="10.00">logging/Tracer.hpp</text>
</a>
</g>
</g>
<!-- Node37&#45;&gt;Node38 -->
<g id="edge52" class="edge">
<title>Node37&#45;&gt;Node38</title>
<path fill="none" stroke="midnightblue" d="M595.95,-291.32C584.54,-283.11 567.17,-270.6 553.57,-260.81"/>
<polygon fill="midnightblue" stroke="midnightblue" points="555.43,-257.84 545.27,-254.83 551.34,-263.52 555.43,-257.84"/>
</g>
<!-- Node38&#45;&gt;Node36 -->
<g id="edge53" class="edge">
<title>Node38&#45;&gt;Node36</title>
<path fill="none" stroke="midnightblue" d="M533.57,-254.7C534.9,-268.34 539.33,-294.85 554,-311 568.49,-326.95 589.61,-337.48 609.04,-344.32"/>
<polygon fill="midnightblue" stroke="midnightblue" points="608.11,-347.7 618.7,-347.48 610.28,-341.05 608.11,-347.7"/>
</g>
<!-- Node41&#45;&gt;Node10 -->
<g id="edge57" class="edge">
<title>Node41&#45;&gt;Node10</title>
<path fill="none" stroke="midnightblue" d="M207.84,-291.46C226.64,-263.96 285.87,-177.32 311.26,-140.18"/>
<polygon fill="midnightblue" stroke="midnightblue" points="314.18,-142.1 316.94,-131.87 308.4,-138.15 314.18,-142.1"/>
</g>
</g>
</svg>
        <g id="navigator" transform="translate(0 0)" fill="#404254">
                <rect fill="#f2f5e9" fill-opacity="0.5" stroke="#606060" stroke-width=".5" x="0" y="0" width="60" height="60"/>
                <use id="zoomplus" xlink:href="#zoomPlus" x="17" y="9" onmousedown="handleZoom(evt,'in')"/>
                <use id="zoomminus" xlink:href="#zoomMin" x="42" y="9" onmousedown="handleZoom(evt,'out')"/>
                <use id="reset" xlink:href="#resetDef" x="30" y="36" onmousedown="handleReset()"/>
                <g id="arrowUp" xlink:href="#dirArrow" transform="translate(30 24)" onmousedown="handlePan(0,-1)">
                  <use xlink:href="#rim" fill="#404040">
                        <set attributeName="fill" to="#808080" begin="arrowUp.mouseover" end="arrowUp.mouseout"/>
                  </use>
                  <path fill="none" stroke="white" stroke-width="1.5" d="M0,-3.0v7 M-2.5,-0.5L0,-3.0L2.5,-0.5"/>
                </g>
                <g id="arrowRight" xlink:href="#dirArrow" transform="rotate(90) translate(36 -43)" onmousedown="handlePan(1,0)">
                  <use xlink:href="#rim" fill="#404040">
                        <set attributeName="fill" to="#808080" begin="arrowRight.mouseover" end="arrowRight.mouseout"/>
                  </use>
                  <path fill="none" stroke="white" stroke-width="1.5" d="M0,-3.0v7 M-2.5,-0.5L0,-3.0L2.5,-0.5"/>
                </g>
                <g id="arrowDown" xlink:href="#dirArrow" transform="rotate(180) translate(-30 -48)" onmousedown="handlePan(0,1)">
                  <use xlink:href="#rim" fill="#404040">
                        <set attributeName="fill" to="#808080" begin="arrowDown.mouseover" end="arrowDown.mouseout"/>
                  </use>
                  <path fill="none" stroke="white" stroke-width="1.5" d="M0,-3.0v7 M-2.5,-0.5L0,-3.0L2.5,-0.5"/>
                </g>
                <g id="arrowLeft" xlink:href="#dirArrow" transform="rotate(270) translate(-36 17)" onmousedown="handlePan(-1,0)">
                  <use xlink:href="#rim" fill="#404040">
                        <set attributeName="fill" to="#808080" begin="arrowLeft.mouseover" end="arrowLeft.mouseout"/>
                  </use>
                  <path fill="none" stroke="white" stroke-width="1.5" d="M0,-3.0v7 M-2.5,-0.5L0,-3.0L2.5,-0.5"/>
                </g>
        </g>
        <svg viewBox="0 0 15 15" width="100%" height="30px" preserveAspectRatio="xMaxYMin meet">
         <g id="arrow_out" transform="scale(0.3 0.3)">
          <a xlink:href="Bspline_8cpp__incl_org.svg" target="_base">
           <rect id="button" ry="5" rx="5" y="6" x="6" height="38" width="38"
                fill="#f2f5e9" fill-opacity="0.5" stroke="#606060" stroke-width="1.0"/>
           <path id="arrow"
             d="M 11.500037,31.436501 C 11.940474,20.09759 22.043105,11.32322 32.158766,21.979434 L 37.068811,17.246167 C 37.068811,17.246167 37.088388,32 37.088388,32 L 22.160133,31.978069 C 22.160133,31.978069 26.997745,27.140456 26.997745,27.140456 C 18.528582,18.264221 13.291696,25.230495 11.500037,31.436501 z"
             style="fill:#404040;"/>
          </a>
         </g>
        </svg>
</svg>
