<?xml version="1.0" encoding="UTF-8" standalone="no"?>
<!DOCTYPE svg PUBLIC "-//W3C//DTD SVG 1.1//EN"
 "http://www.w3.org/Graphics/SVG/1.1/DTD/svg11.dtd">
<!-- Generated by graphviz version 2.43.0 (0)
 -->
<!-- Title: src/com/ConnectionInfoPublisher.cpp Pages: 1 -->
<svg width="2588pt" height="565pt"
 viewBox="0.00 0.00 2588.25 565.00" xmlns="http://www.w3.org/2000/svg" xmlns:xlink="http://www.w3.org/1999/xlink">
<g id="graph0" class="graph" transform="scale(1 1) rotate(0) translate(4 561)">
<title>src/com/ConnectionInfoPublisher.cpp</title>
<polygon fill="white" stroke="transparent" points="-4,4 -4,-561 2584.25,-561 2584.25,4 -4,4"/>
<!-- Node1 -->
<g id="node1" class="node">
<title>Node1</title>
<g id="a_node1"><a xlink:title=" ">
<polygon fill="#bfbfbf" stroke="black" points="796.38,-537.5 796.38,-556.5 992.38,-556.5 992.38,-537.5 796.38,-537.5"/>
<text text-anchor="middle" x="894.38" y="-544.5" font-family="Helvetica,sans-Serif" font-size="10.00">src/com/ConnectionInfoPublisher.cpp</text>
</a>
</g>
</g>
<!-- Node2 -->
<g id="node2" class="node">
<title>Node2</title>
<g id="a_node2"><a xlink:title=" ">
<polygon fill="white" stroke="#bfbfbf" points="751.38,-56.5 751.38,-75.5 815.38,-75.5 815.38,-56.5 751.38,-56.5"/>
<text text-anchor="middle" x="783.38" y="-63.5" font-family="Helvetica,sans-Serif" font-size="10.00">algorithm</text>
</a>
</g>
</g>
<!-- Node1&#45;&gt;Node2 -->
<g id="edge1" class="edge">
<title>Node1&#45;&gt;Node2</title>
<path fill="none" stroke="midnightblue" d="M796.1,-544.08C574.08,-539.31 50.68,-525.51 21.38,-501 -7.15,-477.14 2.38,-456.69 2.38,-419.5 2.38,-419.5 2.38,-419.5 2.38,-182.5 2.38,-107.14 578.76,-76.02 741.22,-68.75"/>
<polygon fill="midnightblue" stroke="midnightblue" points="741.47,-72.24 751.31,-68.3 741.17,-65.24 741.47,-72.24"/>
</g>
<!-- Node3 -->
<g id="node3" class="node">
<title>Node3</title>
<g id="a_node3"><a xlink:title=" ">
<polygon fill="white" stroke="#bfbfbf" points="30.88,-470.5 30.88,-500.5 155.88,-500.5 155.88,-470.5 30.88,-470.5"/>
<text text-anchor="start" x="38.88" y="-488.5" font-family="Helvetica,sans-Serif" font-size="10.00">boost/algorithm/string</text>
<text text-anchor="middle" x="93.38" y="-477.5" font-family="Helvetica,sans-Serif" font-size="10.00">/trim.hpp</text>
</a>
</g>
</g>
<!-- Node1&#45;&gt;Node3 -->
<g id="edge2" class="edge">
<title>Node1&#45;&gt;Node3</title>
<path fill="none" stroke="midnightblue" d="M796.25,-544.3C657.7,-540.94 396.76,-531.03 165.95,-501.09"/>
<polygon fill="midnightblue" stroke="midnightblue" points="166.39,-497.62 156.02,-499.79 165.48,-504.56 166.39,-497.62"/>
</g>
<!-- Node4 -->
<g id="node4" class="node">
<title>Node4</title>
<g id="a_node4"><a xlink:title=" ">
<polygon fill="white" stroke="#bfbfbf" points="173.88,-476 173.88,-495 292.88,-495 292.88,-476 173.88,-476"/>
<text text-anchor="middle" x="233.38" y="-483" font-family="Helvetica,sans-Serif" font-size="10.00">boost/filesystem.hpp</text>
</a>
</g>
</g>
<!-- Node1&#45;&gt;Node4 -->
<g id="edge3" class="edge">
<title>Node1&#45;&gt;Node4</title>
<path fill="none" stroke="midnightblue" d="M796.36,-542.6C678.41,-537.57 474.6,-525.93 301.38,-501 294.07,-499.95 286.37,-498.57 278.88,-497.08"/>
<polygon fill="midnightblue" stroke="midnightblue" points="279.37,-493.61 268.86,-495.01 277.95,-500.46 279.37,-493.61"/>
</g>
<!-- Node5 -->
<g id="node5" class="node">
<title>Node5</title>
<g id="a_node5"><a xlink:title=" ">
<polygon fill="white" stroke="#bfbfbf" points="310.88,-476 310.88,-495 481.88,-495 481.88,-476 310.88,-476"/>
<text text-anchor="middle" x="396.38" y="-483" font-family="Helvetica,sans-Serif" font-size="10.00">boost/uuid/name_generator.hpp</text>
</a>
</g>
</g>
<!-- Node1&#45;&gt;Node5 -->
<g id="edge4" class="edge">
<title>Node1&#45;&gt;Node5</title>
<path fill="none" stroke="midnightblue" d="M808.35,-537.48C726.47,-529.12 599.87,-515.54 490.38,-501 480.21,-499.65 469.44,-498.1 458.96,-496.53"/>
<polygon fill="midnightblue" stroke="midnightblue" points="459.44,-493.06 449.02,-495.02 458.39,-499.98 459.44,-493.06"/>
</g>
<!-- Node6 -->
<g id="node6" class="node">
<title>Node6</title>
<g id="a_node6"><a xlink:title=" ">
<polygon fill="white" stroke="#bfbfbf" points="499.88,-476 499.88,-495 670.88,-495 670.88,-476 499.88,-476"/>
<text text-anchor="middle" x="585.38" y="-483" font-family="Helvetica,sans-Serif" font-size="10.00">boost/uuid/string_generator.hpp</text>
</a>
</g>
</g>
<!-- Node1&#45;&gt;Node6 -->
<g id="edge5" class="edge">
<title>Node1&#45;&gt;Node6</title>
<path fill="none" stroke="midnightblue" d="M850.11,-537.48C794.58,-526.78 699.42,-508.46 639.59,-496.94"/>
<polygon fill="midnightblue" stroke="midnightblue" points="640.05,-493.46 629.57,-495.01 638.73,-500.34 640.05,-493.46"/>
</g>
<!-- Node7 -->
<g id="node7" class="node">
<title>Node7</title>
<g id="a_node7"><a xlink:title=" ">
<polygon fill="white" stroke="#bfbfbf" points="688.88,-476 688.88,-495 815.88,-495 815.88,-476 688.88,-476"/>
<text text-anchor="middle" x="752.38" y="-483" font-family="Helvetica,sans-Serif" font-size="10.00">boost/uuid/uuid_io.hpp</text>
</a>
</g>
</g>
<!-- Node1&#45;&gt;Node7 -->
<g id="edge6" class="edge">
<title>Node1&#45;&gt;Node7</title>
<path fill="none" stroke="midnightblue" d="M874.04,-537.48C850,-527.4 809.78,-510.55 782.22,-499"/>
<polygon fill="midnightblue" stroke="midnightblue" points="783.27,-495.65 772.69,-495.01 780.56,-502.1 783.27,-495.65"/>
</g>
<!-- Node8 -->
<g id="node8" class="node">
<title>Node8</title>
<g id="a_node8"><a xlink:title=" ">
<polygon fill="white" stroke="#bfbfbf" points="834.38,-476 834.38,-495 884.38,-495 884.38,-476 834.38,-476"/>
<text text-anchor="middle" x="859.38" y="-483" font-family="Helvetica,sans-Serif" font-size="10.00">chrono</text>
</a>
</g>
</g>
<!-- Node1&#45;&gt;Node8 -->
<g id="edge7" class="edge">
<title>Node1&#45;&gt;Node8</title>
<path fill="none" stroke="midnightblue" d="M889.37,-537.48C884.22,-528.73 876.07,-514.87 869.56,-503.81"/>
<polygon fill="midnightblue" stroke="midnightblue" points="872.47,-501.85 864.39,-495.01 866.44,-505.4 872.47,-501.85"/>
</g>
<!-- Node9 -->
<g id="node9" class="node">
<title>Node9</title>
<g id="a_node9"><a xlink:title=" ">
<polygon fill="white" stroke="#bfbfbf" points="902.88,-476 902.88,-495 957.88,-495 957.88,-476 902.88,-476"/>
<text text-anchor="middle" x="930.38" y="-483" font-family="Helvetica,sans-Serif" font-size="10.00">fstream</text>
</a>
</g>
</g>
<!-- Node1&#45;&gt;Node9 -->
<g id="edge8" class="edge">
<title>Node1&#45;&gt;Node9</title>
<path fill="none" stroke="midnightblue" d="M899.54,-537.48C904.83,-528.73 913.22,-514.87 919.91,-503.81"/>
<polygon fill="midnightblue" stroke="midnightblue" points="923.05,-505.38 925.23,-495.01 917.06,-501.75 923.05,-505.38"/>
</g>
<!-- Node10 -->
<g id="node10" class="node">
<title>Node10</title>
<g id="a_node10"><a xlink:title=" ">
<polygon fill="white" stroke="#bfbfbf" points="975.88,-476 975.88,-495 1040.88,-495 1040.88,-476 975.88,-476"/>
<text text-anchor="middle" x="1008.38" y="-483" font-family="Helvetica,sans-Serif" font-size="10.00">stdexcept</text>
</a>
</g>
</g>
<!-- Node1&#45;&gt;Node10 -->
<g id="edge9" class="edge">
<title>Node1&#45;&gt;Node10</title>
<path fill="none" stroke="midnightblue" d="M910.72,-537.48C929.59,-527.62 960.89,-511.29 982.96,-499.77"/>
<polygon fill="midnightblue" stroke="midnightblue" points="984.83,-502.74 992.08,-495.01 981.59,-496.53 984.83,-502.74"/>
</g>
<!-- Node11 -->
<g id="node11" class="node">
<title>Node11</title>
<g id="a_node11"><a xlink:title=" ">
<polygon fill="white" stroke="#bfbfbf" points="1059.38,-476 1059.38,-495 1107.38,-495 1107.38,-476 1059.38,-476"/>
<text text-anchor="middle" x="1083.38" y="-483" font-family="Helvetica,sans-Serif" font-size="10.00">thread</text>
</a>
</g>
</g>
<!-- Node1&#45;&gt;Node11 -->
<g id="edge10" class="edge">
<title>Node1&#45;&gt;Node11</title>
<path fill="none" stroke="midnightblue" d="M928.01,-537.49C959.66,-529.19 1008.21,-515.69 1049.38,-501 1051.24,-500.34 1053.14,-499.62 1055.05,-498.88"/>
<polygon fill="midnightblue" stroke="midnightblue" points="1056.54,-502.05 1064.48,-495.04 1053.9,-495.57 1056.54,-502.05"/>
</g>
<!-- Node12 -->
<g id="node12" class="node">
<title>Node12</title>
<g id="a_node12"><a xlink:href="ConnectionInfoPublisher_8hpp.html" target="_top" xlink:title=" ">
<polygon fill="white" stroke="black" points="1143.88,-409 1143.88,-428 1322.88,-428 1322.88,-409 1143.88,-409"/>
<text text-anchor="middle" x="1233.38" y="-416" font-family="Helvetica,sans-Serif" font-size="10.00">com/ConnectionInfoPublisher.hpp</text>
</a>
</g>
</g>
<!-- Node1&#45;&gt;Node12 -->
<g id="edge11" class="edge">
<title>Node1&#45;&gt;Node12</title>
<path fill="none" stroke="midnightblue" d="M992.53,-542.24C1041.82,-537.07 1101.15,-525.65 1149.38,-501 1179.84,-485.43 1206.56,-455.1 1221.29,-436.15"/>
<polygon fill="midnightblue" stroke="midnightblue" points="1224.13,-438.2 1227.36,-428.11 1218.54,-433.98 1224.13,-438.2"/>
</g>
<!-- Node18 -->
<g id="node18" class="node">
<title>Node18</title>
<g id="a_node18"><a xlink:href="LogMacros_8hpp.html" target="_top" xlink:title=" ">
<polygon fill="white" stroke="black" points="1715.38,-291.5 1715.38,-310.5 1805.38,-310.5 1805.38,-291.5 1715.38,-291.5"/>
<text text-anchor="middle" x="1760.38" y="-298.5" font-family="Helvetica,sans-Serif" font-size="10.00">LogMacros.hpp</text>
</a>
</g>
</g>
<!-- Node1&#45;&gt;Node18 -->
<g id="edge47" class="edge">
<title>Node1&#45;&gt;Node18</title>
<path fill="none" stroke="midnightblue" d="M992.61,-544.12C1142.1,-538.53 1433.76,-516.89 1665.38,-434 1692.51,-424.29 1762.22,-392.09 1776.38,-367 1784.75,-352.18 1778.31,-333.04 1771.26,-319.38"/>
<polygon fill="midnightblue" stroke="midnightblue" points="1774.22,-317.5 1766.23,-310.54 1768.13,-320.96 1774.22,-317.5"/>
</g>
<!-- Node39 -->
<g id="node38" class="node">
<title>Node39</title>
<g id="a_node38"><a xlink:href="types_8hpp.html" target="_top" xlink:title=" ">
<polygon fill="white" stroke="black" points="1064.88,-347.5 1064.88,-366.5 1167.88,-366.5 1167.88,-347.5 1064.88,-347.5"/>
<text text-anchor="middle" x="1116.38" y="-354.5" font-family="Helvetica,sans-Serif" font-size="10.00">precice/types.hpp</text>
</a>
</g>
</g>
<!-- Node1&#45;&gt;Node39 -->
<g id="edge48" class="edge">
<title>Node1&#45;&gt;Node39</title>
<path fill="none" stroke="midnightblue" d="M992.53,-538.22C1044.3,-531.87 1100.36,-520.6 1116.38,-501 1145.63,-465.22 1132.35,-405.87 1122.92,-376.14"/>
<polygon fill="midnightblue" stroke="midnightblue" points="1126.22,-374.98 1119.7,-366.63 1119.59,-377.22 1126.22,-374.98"/>
</g>
<!-- Node40 -->
<g id="node39" class="node">
<title>Node40</title>
<g id="a_node39"><a xlink:href="assertion_8hpp.html" target="_top" xlink:title=" ">
<polygon fill="white" stroke="black" points="1934.88,-476 1934.88,-495 2041.88,-495 2041.88,-476 1934.88,-476"/>
<text text-anchor="middle" x="1988.38" y="-483" font-family="Helvetica,sans-Serif" font-size="10.00">utils/assertion.hpp</text>
</a>
</g>
</g>
<!-- Node1&#45;&gt;Node40 -->
<g id="edge49" class="edge">
<title>Node1&#45;&gt;Node40</title>
<path fill="none" stroke="midnightblue" d="M992.62,-540.93C1150.17,-532.76 1469.12,-516.07 1739.38,-501 1802.28,-497.49 1874.1,-493.29 1924.39,-490.31"/>
<polygon fill="midnightblue" stroke="midnightblue" points="1924.7,-493.8 1934.47,-489.72 1924.28,-486.81 1924.7,-493.8"/>
</g>
<!-- Node13 -->
<g id="node13" class="node">
<title>Node13</title>
<g id="a_node13"><a xlink:title=" ">
<polygon fill="white" stroke="#bfbfbf" points="1320.38,-112.5 1320.38,-131.5 1364.38,-131.5 1364.38,-112.5 1320.38,-112.5"/>
<text text-anchor="middle" x="1342.38" y="-119.5" font-family="Helvetica,sans-Serif" font-size="10.00">string</text>
</a>
</g>
</g>
<!-- Node12&#45;&gt;Node13 -->
<g id="edge12" class="edge">
<title>Node12&#45;&gt;Node13</title>
<path fill="none" stroke="midnightblue" d="M1228.54,-408.82C1218.52,-389.98 1196.38,-343.69 1196.38,-302 1196.38,-302 1196.38,-302 1196.38,-244 1196.38,-185.05 1267.8,-149.37 1310.74,-133.25"/>
<polygon fill="midnightblue" stroke="midnightblue" points="1311.99,-136.52 1320.21,-129.83 1309.61,-129.93 1311.99,-136.52"/>
</g>
<!-- Node14 -->
<g id="node14" class="node">
<title>Node14</title>
<g id="a_node14"><a xlink:title=" ">
<polygon fill="white" stroke="#bfbfbf" points="1424.88,-112.5 1424.88,-131.5 1497.88,-131.5 1497.88,-112.5 1424.88,-112.5"/>
<text text-anchor="middle" x="1461.38" y="-119.5" font-family="Helvetica,sans-Serif" font-size="10.00">string_view</text>
</a>
</g>
</g>
<!-- Node12&#45;&gt;Node14 -->
<g id="edge13" class="edge">
<title>Node12&#45;&gt;Node14</title>
<path fill="none" stroke="midnightblue" d="M1232.71,-408.82C1231.46,-387.28 1230.68,-330.27 1253.38,-291 1297.08,-215.4 1388.87,-160.19 1434.48,-136.23"/>
<polygon fill="midnightblue" stroke="midnightblue" points="1436.19,-139.28 1443.48,-131.59 1432.99,-133.06 1436.19,-139.28"/>
</g>
<!-- Node15 -->
<g id="node15" class="node">
<title>Node15</title>
<g id="a_node15"><a xlink:title=" ">
<polygon fill="white" stroke="#bfbfbf" points="1001.88,-347.5 1001.88,-366.5 1046.88,-366.5 1046.88,-347.5 1001.88,-347.5"/>
<text text-anchor="middle" x="1024.38" y="-354.5" font-family="Helvetica,sans-Serif" font-size="10.00">utility</text>
</a>
</g>
</g>
<!-- Node12&#45;&gt;Node15 -->
<g id="edge14" class="edge">
<title>Node12&#45;&gt;Node15</title>
<path fill="none" stroke="midnightblue" d="M1203.13,-408.98C1169.64,-399.53 1113.79,-383.74 1056.94,-367.44"/>
<polygon fill="midnightblue" stroke="midnightblue" points="1057.64,-364 1047.06,-364.6 1055.71,-370.72 1057.64,-364"/>
</g>
<!-- Node16 -->
<g id="node16" class="node">
<title>Node16</title>
<g id="a_node16"><a xlink:href="Logger_8hpp.html" target="_top" xlink:title=" ">
<polygon fill="white" stroke="black" points="1417.88,-347.5 1417.88,-366.5 1526.88,-366.5 1526.88,-347.5 1417.88,-347.5"/>
<text text-anchor="middle" x="1472.38" y="-354.5" font-family="Helvetica,sans-Serif" font-size="10.00">logging/Logger.hpp</text>
</a>
</g>
</g>
<!-- Node12&#45;&gt;Node16 -->
<g id="edge15" class="edge">
<title>Node12&#45;&gt;Node16</title>
<path fill="none" stroke="midnightblue" d="M1267.62,-408.98C1309.95,-398.44 1382.06,-380.49 1428.43,-368.94"/>
<polygon fill="midnightblue" stroke="midnightblue" points="1429.34,-372.32 1438.2,-366.51 1427.65,-365.53 1429.34,-372.32"/>
</g>
<!-- Node12&#45;&gt;Node39 -->
<g id="edge46" class="edge">
<title>Node12&#45;&gt;Node39</title>
<path fill="none" stroke="midnightblue" d="M1216.62,-408.98C1197.16,-399.08 1164.84,-382.64 1142.17,-371.12"/>
<polygon fill="midnightblue" stroke="midnightblue" points="1143.61,-367.92 1133.11,-366.51 1140.44,-374.16 1143.61,-367.92"/>
</g>
<!-- Node16&#45;&gt;Node14 -->
<g id="edge17" class="edge">
<title>Node16&#45;&gt;Node14</title>
<path fill="none" stroke="midnightblue" d="M1471.98,-347.43C1470.39,-313.75 1464.54,-189.99 1462.28,-142.1"/>
<polygon fill="midnightblue" stroke="midnightblue" points="1465.77,-141.72 1461.8,-131.9 1458.78,-142.05 1465.77,-141.72"/>
</g>
<!-- Node17 -->
<g id="node17" class="node">
<title>Node17</title>
<g id="a_node17"><a xlink:title=" ">
<polygon fill="white" stroke="#bfbfbf" points="1521.38,-291.5 1521.38,-310.5 1579.38,-310.5 1579.38,-291.5 1521.38,-291.5"/>
<text text-anchor="middle" x="1550.38" y="-298.5" font-family="Helvetica,sans-Serif" font-size="10.00">memory</text>
</a>
</g>
</g>
<!-- Node16&#45;&gt;Node17 -->
<g id="edge16" class="edge">
<title>Node16&#45;&gt;Node17</title>
<path fill="none" stroke="midnightblue" d="M1484.91,-347.32C1496.97,-338.98 1515.41,-326.21 1529.65,-316.35"/>
<polygon fill="midnightblue" stroke="midnightblue" points="1531.65,-319.22 1537.88,-310.65 1527.67,-313.47 1531.65,-319.22"/>
</g>
<!-- Node16&#45;&gt;Node18 -->
<g id="edge18" class="edge">
<title>Node16&#45;&gt;Node18</title>
<path fill="none" stroke="midnightblue" d="M1518.02,-347.44C1568.68,-337.94 1650.46,-322.61 1704.81,-312.42"/>
<polygon fill="midnightblue" stroke="midnightblue" points="1705.78,-315.8 1714.96,-310.52 1704.49,-308.92 1705.78,-315.8"/>
</g>
<!-- Node19 -->
<g id="node19" class="node">
<title>Node19</title>
<g id="a_node19"><a xlink:href="fmt_8hpp.html" target="_top" xlink:title=" ">
<polygon fill="white" stroke="black" points="2053.88,-174 2053.88,-193 2132.88,-193 2132.88,-174 2053.88,-174"/>
<text text-anchor="middle" x="2093.38" y="-181" font-family="Helvetica,sans-Serif" font-size="10.00">utils/fmt.hpp</text>
</a>
</g>
</g>
<!-- Node18&#45;&gt;Node19 -->
<g id="edge19" class="edge">
<title>Node18&#45;&gt;Node19</title>
<path fill="none" stroke="midnightblue" d="M1802.23,-291.43C1838.27,-283.54 1891.42,-270.71 1936.38,-255 1983.98,-238.37 2037.04,-213.03 2067.68,-197.69"/>
<polygon fill="midnightblue" stroke="midnightblue" points="2069.46,-200.72 2076.81,-193.09 2066.3,-194.47 2069.46,-200.72"/>
</g>
<!-- Node32 -->
<g id="node31" class="node">
<title>Node32</title>
<g id="a_node31"><a xlink:href="ArgumentFormatter_8hpp.html" target="_top" xlink:title=" ">
<polygon fill="white" stroke="black" points="1769.88,-235.5 1769.88,-254.5 1926.88,-254.5 1926.88,-235.5 1769.88,-235.5"/>
<text text-anchor="middle" x="1848.38" y="-242.5" font-family="Helvetica,sans-Serif" font-size="10.00">utils/ArgumentFormatter.hpp</text>
</a>
</g>
</g>
<!-- Node18&#45;&gt;Node32 -->
<g id="edge37" class="edge">
<title>Node18&#45;&gt;Node32</title>
<path fill="none" stroke="midnightblue" d="M1774.52,-291.32C1788.25,-282.9 1809.32,-269.97 1825.45,-260.07"/>
<polygon fill="midnightblue" stroke="midnightblue" points="1827.59,-262.87 1834.28,-254.65 1823.92,-256.9 1827.59,-262.87"/>
</g>
<!-- Node38 -->
<g id="node37" class="node">
<title>Node38</title>
<g id="a_node37"><a xlink:href="Tracer_8hpp.html" target="_top" xlink:title=" ">
<polygon fill="white" stroke="black" points="1487.88,-235.5 1487.88,-254.5 1592.88,-254.5 1592.88,-235.5 1487.88,-235.5"/>
<text text-anchor="middle" x="1540.38" y="-242.5" font-family="Helvetica,sans-Serif" font-size="10.00">logging/Tracer.hpp</text>
</a>
</g>
</g>
<!-- Node18&#45;&gt;Node38 -->
<g id="edge44" class="edge">
<title>Node18&#45;&gt;Node38</title>
<path fill="none" stroke="midnightblue" d="M1725.52,-291.44C1687.47,-282.1 1626.42,-267.12 1584.92,-256.93"/>
<polygon fill="midnightblue" stroke="midnightblue" points="1585.62,-253.5 1575.08,-254.52 1583.96,-260.3 1585.62,-253.5"/>
</g>
<!-- Node19&#45;&gt;Node13 -->
<g id="edge20" class="edge">
<title>Node19&#45;&gt;Node13</title>
<path fill="none" stroke="midnightblue" d="M2068.72,-174C2061.01,-171.67 2052.42,-169.4 2044.38,-168 1768.52,-119.95 1694.26,-157.14 1415.38,-132 1401.97,-130.79 1387.22,-129.05 1374.51,-127.42"/>
<polygon fill="midnightblue" stroke="midnightblue" points="1374.75,-123.92 1364.38,-126.09 1373.84,-130.86 1374.75,-123.92"/>
</g>
<!-- Node19&#45;&gt;Node14 -->
<g id="edge21" class="edge">
<title>Node19&#45;&gt;Node14</title>
<path fill="none" stroke="midnightblue" d="M2068.2,-173.94C2060.62,-171.67 2052.23,-169.45 2044.38,-168 1941.78,-149.08 1628.1,-131.53 1508.44,-125.35"/>
<polygon fill="midnightblue" stroke="midnightblue" points="1508.31,-121.84 1498.14,-124.82 1507.95,-128.83 1508.31,-121.84"/>
</g>
<!-- Node20 -->
<g id="node20" class="node">
<title>Node20</title>
<g id="a_node20"><a xlink:title=" ">
<polygon fill="white" stroke="#bfbfbf" points="1904.88,-56.5 1904.88,-75.5 1983.88,-75.5 1983.88,-56.5 1904.88,-56.5"/>
<text text-anchor="middle" x="1944.38" y="-63.5" font-family="Helvetica,sans-Serif" font-size="10.00">fmt/format.h</text>
</a>
</g>
</g>
<!-- Node19&#45;&gt;Node20 -->
<g id="edge22" class="edge">
<title>Node19&#45;&gt;Node20</title>
<path fill="none" stroke="midnightblue" d="M2082.18,-173.82C2056.94,-154.25 1995.36,-106.52 1963.77,-82.03"/>
<polygon fill="midnightblue" stroke="midnightblue" points="1965.76,-79.14 1955.71,-75.78 1961.47,-84.67 1965.76,-79.14"/>
</g>
<!-- Node21 -->
<g id="node21" class="node">
<title>Node21</title>
<g id="a_node21"><a xlink:title=" ">
<polygon fill="white" stroke="#bfbfbf" points="1895.38,-112.5 1895.38,-131.5 1981.38,-131.5 1981.38,-112.5 1895.38,-112.5"/>
<text text-anchor="middle" x="1938.38" y="-119.5" font-family="Helvetica,sans-Serif" font-size="10.00">fmt/ostream.h</text>
</a>
</g>
</g>
<!-- Node19&#45;&gt;Node21 -->
<g id="edge23" class="edge">
<title>Node19&#45;&gt;Node21</title>
<path fill="none" stroke="midnightblue" d="M2071.17,-173.98C2044.7,-163.81 2000.27,-146.76 1970.16,-135.2"/>
<polygon fill="midnightblue" stroke="midnightblue" points="1971.14,-131.83 1960.55,-131.51 1968.63,-138.36 1971.14,-131.83"/>
</g>
<!-- Node22 -->
<g id="node22" class="node">
<title>Node22</title>
<g id="a_node22"><a xlink:href="fmtEigen_8hpp.html" target="_top" xlink:title=" ">
<polygon fill="white" stroke="black" points="1739.38,-112.5 1739.38,-131.5 1845.38,-131.5 1845.38,-112.5 1739.38,-112.5"/>
<text text-anchor="middle" x="1792.38" y="-119.5" font-family="Helvetica,sans-Serif" font-size="10.00">utils/fmtEigen.hpp</text>
</a>
</g>
</g>
<!-- Node19&#45;&gt;Node22 -->
<g id="edge24" class="edge">
<title>Node19&#45;&gt;Node22</title>
<path fill="none" stroke="midnightblue" d="M2066.57,-173.98C2059.4,-171.87 2051.63,-169.71 2044.38,-168 1980.72,-152.95 1906.96,-140.33 1855.76,-132.32"/>
<polygon fill="midnightblue" stroke="midnightblue" points="1856.25,-128.85 1845.83,-130.78 1855.18,-135.77 1856.25,-128.85"/>
</g>
<!-- Node26 -->
<g id="node26" class="node">
<title>Node26</title>
<g id="a_node26"><a xlink:href="fmtSTL_8hpp.html" target="_top" xlink:title=" ">
<polygon fill="white" stroke="red" points="2037.38,-112.5 2037.38,-131.5 2133.38,-131.5 2133.38,-112.5 2037.38,-112.5"/>
<text text-anchor="middle" x="2085.38" y="-119.5" font-family="Helvetica,sans-Serif" font-size="10.00">utils/fmtSTL.hpp</text>
</a>
</g>
</g>
<!-- Node19&#45;&gt;Node26 -->
<g id="edge31" class="edge">
<title>Node19&#45;&gt;Node26</title>
<path fill="none" stroke="midnightblue" d="M2092.24,-173.98C2091.11,-165.58 2089.35,-152.48 2087.89,-141.66"/>
<polygon fill="midnightblue" stroke="midnightblue" points="2091.33,-140.95 2086.53,-131.51 2084.39,-141.89 2091.33,-140.95"/>
</g>
<!-- Node22&#45;&gt;Node2 -->
<g id="edge26" class="edge">
<title>Node22&#45;&gt;Node2</title>
<path fill="none" stroke="midnightblue" d="M1739.2,-118.15C1561,-108.62 987.13,-77.9 825.88,-69.27"/>
<polygon fill="midnightblue" stroke="midnightblue" points="825.6,-65.75 815.43,-68.72 825.23,-72.74 825.6,-65.75"/>
</g>
<!-- Node22&#45;&gt;Node20 -->
<g id="edge27" class="edge">
<title>Node22&#45;&gt;Node20</title>
<path fill="none" stroke="midnightblue" d="M1816.47,-112.44C1841.93,-103.4 1882.28,-89.06 1910.84,-78.92"/>
<polygon fill="midnightblue" stroke="midnightblue" points="1912.16,-82.16 1920.41,-75.52 1909.82,-75.57 1912.16,-82.16"/>
</g>
<!-- Node23 -->
<g id="node23" class="node">
<title>Node23</title>
<g id="a_node23"><a xlink:title=" ">
<polygon fill="white" stroke="#bfbfbf" points="1763.88,-0.5 1763.88,-19.5 1832.88,-19.5 1832.88,-0.5 1763.88,-0.5"/>
<text text-anchor="middle" x="1798.38" y="-7.5" font-family="Helvetica,sans-Serif" font-size="10.00">Eigen/Core</text>
</a>
</g>
</g>
<!-- Node22&#45;&gt;Node23 -->
<g id="edge25" class="edge">
<title>Node22&#45;&gt;Node23</title>
<path fill="none" stroke="midnightblue" d="M1788.09,-112.17C1782.55,-99.67 1774.12,-76.1 1778.38,-56 1780.38,-46.59 1784.48,-36.76 1788.46,-28.7"/>
<polygon fill="midnightblue" stroke="midnightblue" points="1791.69,-30.07 1793.25,-19.59 1785.5,-26.81 1791.69,-30.07"/>
</g>
<!-- Node24 -->
<g id="node24" class="node">
<title>Node24</title>
<g id="a_node24"><a xlink:title=" ">
<polygon fill="white" stroke="#bfbfbf" points="1675.38,-56.5 1675.38,-75.5 1731.38,-75.5 1731.38,-56.5 1675.38,-56.5"/>
<text text-anchor="middle" x="1703.38" y="-63.5" font-family="Helvetica,sans-Serif" font-size="10.00">sstream</text>
</a>
</g>
</g>
<!-- Node22&#45;&gt;Node24 -->
<g id="edge28" class="edge">
<title>Node22&#45;&gt;Node24</title>
<path fill="none" stroke="midnightblue" d="M1778.08,-112.32C1764.2,-103.9 1742.89,-90.97 1726.58,-81.07"/>
<polygon fill="midnightblue" stroke="midnightblue" points="1728.01,-77.85 1717.65,-75.65 1724.38,-83.83 1728.01,-77.85"/>
</g>
<!-- Node25 -->
<g id="node25" class="node">
<title>Node25</title>
<g id="a_node25"><a xlink:href="EigenIO_8hpp.html" target="_top" xlink:title=" ">
<polygon fill="white" stroke="black" points="1787.88,-56.5 1787.88,-75.5 1886.88,-75.5 1886.88,-56.5 1787.88,-56.5"/>
<text text-anchor="middle" x="1837.38" y="-63.5" font-family="Helvetica,sans-Serif" font-size="10.00">utils/EigenIO.hpp</text>
</a>
</g>
</g>
<!-- Node22&#45;&gt;Node25 -->
<g id="edge29" class="edge">
<title>Node22&#45;&gt;Node25</title>
<path fill="none" stroke="midnightblue" d="M1799.81,-112.08C1806.23,-104.38 1815.69,-93.03 1823.5,-83.65"/>
<polygon fill="midnightblue" stroke="midnightblue" points="1826.38,-85.67 1830.09,-75.75 1821,-81.19 1826.38,-85.67"/>
</g>
<!-- Node25&#45;&gt;Node23 -->
<g id="edge30" class="edge">
<title>Node25&#45;&gt;Node23</title>
<path fill="none" stroke="midnightblue" d="M1830.94,-56.08C1825.43,-48.46 1817.35,-37.26 1810.62,-27.94"/>
<polygon fill="midnightblue" stroke="midnightblue" points="1813.39,-25.81 1804.7,-19.75 1807.72,-29.91 1813.39,-25.81"/>
</g>
<!-- Node26&#45;&gt;Node20 -->
<g id="edge34" class="edge">
<title>Node26&#45;&gt;Node20</title>
<path fill="none" stroke="midnightblue" d="M2063.04,-112.44C2039.63,-103.48 2002.65,-89.31 1976.19,-79.18"/>
<polygon fill="midnightblue" stroke="midnightblue" points="1977.21,-75.82 1966.62,-75.52 1974.71,-82.36 1977.21,-75.82"/>
</g>
<!-- Node27 -->
<g id="node27" class="node">
<title>Node27</title>
<g id="a_node27"><a xlink:title=" ">
<polygon fill="white" stroke="#bfbfbf" points="2001.38,-56.5 2001.38,-75.5 2043.38,-75.5 2043.38,-56.5 2001.38,-56.5"/>
<text text-anchor="middle" x="2022.38" y="-63.5" font-family="Helvetica,sans-Serif" font-size="10.00">array</text>
</a>
</g>
</g>
<!-- Node26&#45;&gt;Node27 -->
<g id="edge32" class="edge">
<title>Node26&#45;&gt;Node27</title>
<path fill="none" stroke="midnightblue" d="M2075.26,-112.32C2065.86,-104.26 2051.64,-92.08 2040.31,-82.37"/>
<polygon fill="midnightblue" stroke="midnightblue" points="2042.56,-79.68 2032.69,-75.83 2038,-85 2042.56,-79.68"/>
</g>
<!-- Node28 -->
<g id="node28" class="node">
<title>Node28</title>
<g id="a_node28"><a xlink:title=" ">
<polygon fill="white" stroke="#bfbfbf" points="2061.88,-56.5 2061.88,-75.5 2108.88,-75.5 2108.88,-56.5 2061.88,-56.5"/>
<text text-anchor="middle" x="2085.38" y="-63.5" font-family="Helvetica,sans-Serif" font-size="10.00">deque</text>
</a>
</g>
</g>
<!-- Node26&#45;&gt;Node28 -->
<g id="edge33" class="edge">
<title>Node26&#45;&gt;Node28</title>
<path fill="none" stroke="midnightblue" d="M2085.38,-112.08C2085.38,-105.01 2085.38,-94.86 2085.38,-85.99"/>
<polygon fill="midnightblue" stroke="midnightblue" points="2088.88,-85.75 2085.38,-75.75 2081.88,-85.75 2088.88,-85.75"/>
</g>
<!-- Node29 -->
<g id="node29" class="node">
<title>Node29</title>
<g id="a_node29"><a xlink:title=" ">
<polygon fill="white" stroke="#bfbfbf" points="2127.38,-56.5 2127.38,-75.5 2165.38,-75.5 2165.38,-56.5 2127.38,-56.5"/>
<text text-anchor="middle" x="2146.38" y="-63.5" font-family="Helvetica,sans-Serif" font-size="10.00">map</text>
</a>
</g>
</g>
<!-- Node26&#45;&gt;Node29 -->
<g id="edge35" class="edge">
<title>Node26&#45;&gt;Node29</title>
<path fill="none" stroke="midnightblue" d="M2095.18,-112.32C2104.2,-104.34 2117.79,-92.31 2128.7,-82.65"/>
<polygon fill="midnightblue" stroke="midnightblue" points="2131.24,-85.08 2136.4,-75.83 2126.6,-79.84 2131.24,-85.08"/>
</g>
<!-- Node31 -->
<g id="node30" class="node">
<title>Node31</title>
<g id="a_node30"><a xlink:title=" ">
<polygon fill="white" stroke="#bfbfbf" points="2183.88,-56.5 2183.88,-75.5 2230.88,-75.5 2230.88,-56.5 2183.88,-56.5"/>
<text text-anchor="middle" x="2207.38" y="-63.5" font-family="Helvetica,sans-Serif" font-size="10.00">vector</text>
</a>
</g>
</g>
<!-- Node26&#45;&gt;Node31 -->
<g id="edge36" class="edge">
<title>Node26&#45;&gt;Node31</title>
<path fill="none" stroke="midnightblue" d="M2104.71,-112.44C2124.7,-103.6 2156.13,-89.69 2178.95,-79.59"/>
<polygon fill="midnightblue" stroke="midnightblue" points="2180.41,-82.76 2188.14,-75.52 2177.58,-76.36 2180.41,-82.76"/>
</g>
<!-- Node32&#45;&gt;Node19 -->
<g id="edge43" class="edge">
<title>Node32&#45;&gt;Node19</title>
<path fill="none" stroke="midnightblue" d="M1889.1,-235.42C1928.87,-226.86 1991.03,-213 2044.38,-199 2048.18,-198 2052.14,-196.92 2056.07,-195.8"/>
<polygon fill="midnightblue" stroke="midnightblue" points="2057.1,-199.15 2065.74,-193.01 2055.16,-192.42 2057.1,-199.15"/>
</g>
<!-- Node33 -->
<g id="node32" class="node">
<title>Node33</title>
<g id="a_node32"><a xlink:title=" ">
<polygon fill="white" stroke="#bfbfbf" points="1925.38,-168.5 1925.38,-198.5 2035.38,-198.5 2035.38,-168.5 1925.38,-168.5"/>
<text text-anchor="start" x="1933.38" y="-186.5" font-family="Helvetica,sans-Serif" font-size="10.00">boost/preprocessor</text>
<text text-anchor="middle" x="1980.38" y="-175.5" font-family="Helvetica,sans-Serif" font-size="10.00">/control/if.hpp</text>
</a>
</g>
</g>
<!-- Node32&#45;&gt;Node33 -->
<g id="edge38" class="edge">
<title>Node32&#45;&gt;Node33</title>
<path fill="none" stroke="midnightblue" d="M1867.29,-235.48C1886.17,-226.96 1915.78,-213.62 1939.97,-202.72"/>
<polygon fill="midnightblue" stroke="midnightblue" points="1941.59,-205.82 1949.27,-198.52 1938.72,-199.44 1941.59,-205.82"/>
</g>
<!-- Node34 -->
<g id="node33" class="node">
<title>Node34</title>
<g id="a_node33"><a xlink:title=" ">
<polygon fill="white" stroke="#bfbfbf" points="1508.88,-168.5 1508.88,-198.5 1619.88,-198.5 1619.88,-168.5 1508.88,-168.5"/>
<text text-anchor="start" x="1516.88" y="-186.5" font-family="Helvetica,sans-Serif" font-size="10.00">boost/preprocessor</text>
<text text-anchor="middle" x="1564.38" y="-175.5" font-family="Helvetica,sans-Serif" font-size="10.00">/seq/for_each_i.hpp</text>
</a>
</g>
</g>
<!-- Node32&#45;&gt;Node34 -->
<g id="edge39" class="edge">
<title>Node32&#45;&gt;Node34</title>
<path fill="none" stroke="midnightblue" d="M1805.33,-235.47C1763.02,-227.03 1696.36,-213.56 1630,-199.33"/>
<polygon fill="midnightblue" stroke="midnightblue" points="1630.73,-195.9 1620.21,-197.22 1629.25,-202.75 1630.73,-195.9"/>
</g>
<!-- Node35 -->
<g id="node34" class="node">
<title>Node35</title>
<g id="a_node34"><a xlink:title=" ">
<polygon fill="white" stroke="#bfbfbf" points="2356.38,-168.5 2356.38,-198.5 2466.38,-198.5 2466.38,-168.5 2356.38,-168.5"/>
<text text-anchor="start" x="2364.38" y="-186.5" font-family="Helvetica,sans-Serif" font-size="10.00">boost/preprocessor</text>
<text text-anchor="middle" x="2411.38" y="-175.5" font-family="Helvetica,sans-Serif" font-size="10.00">/stringize.hpp</text>
</a>
</g>
</g>
<!-- Node32&#45;&gt;Node35 -->
<g id="edge40" class="edge">
<title>Node32&#45;&gt;Node35</title>
<path fill="none" stroke="midnightblue" d="M1926.96,-235.7C2038.9,-223.87 2242.19,-202.38 2346.23,-191.39"/>
<polygon fill="midnightblue" stroke="midnightblue" points="2346.71,-194.85 2356.29,-190.32 2345.97,-187.89 2346.71,-194.85"/>
</g>
<!-- Node36 -->
<g id="node35" class="node">
<title>Node36</title>
<g id="a_node35"><a xlink:title=" ">
<polygon fill="white" stroke="#bfbfbf" points="1637.88,-168.5 1637.88,-198.5 1752.88,-198.5 1752.88,-168.5 1637.88,-168.5"/>
<text text-anchor="start" x="1645.88" y="-186.5" font-family="Helvetica,sans-Serif" font-size="10.00">boost/preprocessor</text>
<text text-anchor="middle" x="1695.38" y="-175.5" font-family="Helvetica,sans-Serif" font-size="10.00">/variadic/to_seq.hpp</text>
</a>
</g>
</g>
<!-- Node32&#45;&gt;Node36 -->
<g id="edge41" class="edge">
<title>Node32&#45;&gt;Node36</title>
<path fill="none" stroke="midnightblue" d="M1826.46,-235.48C1804.29,-226.85 1769.35,-213.26 1741.12,-202.29"/>
<polygon fill="midnightblue" stroke="midnightblue" points="1742.03,-198.89 1731.44,-198.52 1739.49,-205.41 1742.03,-198.89"/>
</g>
<!-- Node37 -->
<g id="node36" class="node">
<title>Node37</title>
<g id="a_node36"><a xlink:title=" ">
<polygon fill="white" stroke="#bfbfbf" points="1771.38,-174 1771.38,-193 1907.38,-193 1907.38,-174 1771.38,-174"/>
<text text-anchor="middle" x="1839.38" y="-181" font-family="Helvetica,sans-Serif" font-size="10.00">boost/vmd/is_empty.hpp</text>
</a>
</g>
</g>
<!-- Node32&#45;&gt;Node37 -->
<g id="edge42" class="edge">
<title>Node32&#45;&gt;Node37</title>
<path fill="none" stroke="midnightblue" d="M1847.09,-235.48C1845.82,-227.08 1843.84,-213.98 1842.2,-203.16"/>
<polygon fill="midnightblue" stroke="midnightblue" points="1845.63,-202.37 1840.67,-193.01 1838.7,-203.42 1845.63,-202.37"/>
</g>
<!-- Node38&#45;&gt;Node16 -->
<g id="edge45" class="edge">
<title>Node38&#45;&gt;Node16</title>
<path fill="none" stroke="midnightblue" d="M1535,-254.62C1529.35,-263.67 1520.23,-278.32 1512.38,-291 1502.49,-306.98 1491.28,-325.21 1483.25,-338.29"/>
<polygon fill="midnightblue" stroke="midnightblue" points="1480.05,-336.81 1477.8,-347.16 1486.02,-340.47 1480.05,-336.81"/>
</g>
<!-- Node40&#45;&gt;Node14 -->
<g id="edge52" class="edge">
<title>Node40&#45;&gt;Node14</title>
<path fill="none" stroke="midnightblue" d="M1934.73,-476.43C1906.88,-469.59 1874.38,-457.02 1853.38,-434 1808.98,-385.33 1860.54,-338 1814.38,-291 1763.28,-238.97 1555.36,-245.74 1499.38,-199 1481.64,-184.19 1471.38,-159.04 1466.09,-141.75"/>
<polygon fill="midnightblue" stroke="midnightblue" points="1469.35,-140.42 1463.3,-131.72 1462.61,-142.29 1469.35,-140.42"/>
</g>
<!-- Node40&#45;&gt;Node19 -->
<g id="edge53" class="edge">
<title>Node40&#45;&gt;Node19</title>
<path fill="none" stroke="midnightblue" d="M2003.43,-475.86C2032.46,-457.92 2093.38,-413.66 2093.38,-358 2093.38,-358 2093.38,-358 2093.38,-300 2093.38,-265.86 2093.38,-226.05 2093.38,-203.21"/>
<polygon fill="midnightblue" stroke="midnightblue" points="2096.88,-203.19 2093.38,-193.19 2089.88,-203.19 2096.88,-203.19"/>
</g>
<!-- Node40&#45;&gt;Node32 -->
<g id="edge59" class="edge">
<title>Node40&#45;&gt;Node32</title>
<path fill="none" stroke="midnightblue" d="M1992.23,-475.57C1998.29,-460.17 2008.36,-427.88 1998.38,-403 1972.37,-338.12 1905.34,-284.86 1870.36,-260.42"/>
<polygon fill="midnightblue" stroke="midnightblue" points="1872.04,-257.33 1861.81,-254.58 1868.09,-263.11 1872.04,-257.33"/>
</g>
<!-- Node40&#45;&gt;Node33 -->
<g id="edge56" class="edge">
<title>Node40&#45;&gt;Node33</title>
<path fill="none" stroke="midnightblue" d="M1996.87,-475.83C2014.9,-456.46 2055.38,-407.46 2055.38,-358 2055.38,-358 2055.38,-358 2055.38,-300 2055.38,-262.14 2026.69,-226.93 2004.8,-205.58"/>
<polygon fill="midnightblue" stroke="midnightblue" points="2007.08,-202.92 1997.4,-198.62 2002.29,-208.02 2007.08,-202.92"/>
</g>
<!-- Node40&#45;&gt;Node35 -->
<g id="edge57" class="edge">
<title>Node40&#45;&gt;Node35</title>
<path fill="none" stroke="midnightblue" d="M2042.23,-483.24C2176.94,-479.61 2520.56,-467.17 2559.38,-434 2585.85,-411.38 2578.38,-392.82 2578.38,-358 2578.38,-358 2578.38,-358 2578.38,-300 2578.38,-248.06 2523.06,-217.64 2476.09,-201.19"/>
<polygon fill="midnightblue" stroke="midnightblue" points="2477.12,-197.84 2466.53,-197.98 2474.9,-204.48 2477.12,-197.84"/>
</g>
<!-- Node41 -->
<g id="node40" class="node">
<title>Node41</title>
<g id="a_node40"><a xlink:title=" ">
<polygon fill="white" stroke="#bfbfbf" points="1861.88,-409 1861.88,-428 1910.88,-428 1910.88,-409 1861.88,-409"/>
<text text-anchor="middle" x="1886.38" y="-416" font-family="Helvetica,sans-Serif" font-size="10.00">cstdlib</text>
</a>
</g>
</g>
<!-- Node40&#45;&gt;Node41 -->
<g id="edge50" class="edge">
<title>Node40&#45;&gt;Node41</title>
<path fill="none" stroke="midnightblue" d="M1974.63,-475.73C1957.65,-464.92 1928.57,-446.38 1908.45,-433.57"/>
<polygon fill="midnightblue" stroke="midnightblue" points="1910.23,-430.55 1899.92,-428.13 1906.47,-436.45 1910.23,-430.55"/>
</g>
<!-- Node42 -->
<g id="node41" class="node">
<title>Node42</title>
<g id="a_node41"><a xlink:title=" ">
<polygon fill="white" stroke="#bfbfbf" points="1929.38,-409 1929.38,-428 1989.38,-428 1989.38,-409 1929.38,-409"/>
<text text-anchor="middle" x="1959.38" y="-416" font-family="Helvetica,sans-Serif" font-size="10.00">iostream</text>
</a>
</g>
</g>
<!-- Node40&#45;&gt;Node42 -->
<g id="edge51" class="edge">
<title>Node40&#45;&gt;Node42</title>
<path fill="none" stroke="midnightblue" d="M1984.47,-475.73C1980.12,-465.99 1972.98,-449.98 1967.43,-437.53"/>
<polygon fill="midnightblue" stroke="midnightblue" points="1970.5,-435.83 1963.23,-428.13 1964.11,-438.69 1970.5,-435.83"/>
</g>
<!-- Node43 -->
<g id="node42" class="node">
<title>Node43</title>
<g id="a_node42"><a xlink:title=" ">
<polygon fill="white" stroke="#bfbfbf" points="2121.88,-409 2121.88,-428 2268.88,-428 2268.88,-409 2121.88,-409"/>
<text text-anchor="middle" x="2195.38" y="-416" font-family="Helvetica,sans-Serif" font-size="10.00">boost/current_function.hpp</text>
</a>
</g>
</g>
<!-- Node40&#45;&gt;Node43 -->
<g id="edge54" class="edge">
<title>Node40&#45;&gt;Node43</title>
<path fill="none" stroke="midnightblue" d="M2015.87,-475.87C2052.55,-464.35 2117.61,-443.92 2158.51,-431.08"/>
<polygon fill="midnightblue" stroke="midnightblue" points="2159.62,-434.4 2168.11,-428.06 2157.52,-427.72 2159.62,-434.4"/>
</g>
<!-- Node44 -->
<g id="node43" class="node">
<title>Node44</title>
<g id="a_node43"><a xlink:title=" ">
<polygon fill="white" stroke="#bfbfbf" points="2286.88,-403.5 2286.88,-433.5 2421.88,-433.5 2421.88,-403.5 2286.88,-403.5"/>
<text text-anchor="start" x="2294.88" y="-421.5" font-family="Helvetica,sans-Serif" font-size="10.00">boost/preprocessor</text>
<text text-anchor="middle" x="2354.38" y="-410.5" font-family="Helvetica,sans-Serif" font-size="10.00">/comparison/greater.hpp</text>
</a>
</g>
</g>
<!-- Node40&#45;&gt;Node44 -->
<g id="edge55" class="edge">
<title>Node40&#45;&gt;Node44</title>
<path fill="none" stroke="midnightblue" d="M2038.72,-475.99C2094.5,-466.5 2187.41,-450.53 2276.81,-434.27"/>
<polygon fill="midnightblue" stroke="midnightblue" points="2277.64,-437.68 2286.85,-432.44 2276.38,-430.79 2277.64,-437.68"/>
</g>
<!-- Node45 -->
<g id="node44" class="node">
<title>Node45</title>
<g id="a_node44"><a xlink:title=" ">
<polygon fill="white" stroke="#bfbfbf" points="2440.38,-403.5 2440.38,-433.5 2550.38,-433.5 2550.38,-403.5 2440.38,-403.5"/>
<text text-anchor="start" x="2448.38" y="-421.5" font-family="Helvetica,sans-Serif" font-size="10.00">boost/preprocessor</text>
<text text-anchor="middle" x="2495.38" y="-410.5" font-family="Helvetica,sans-Serif" font-size="10.00">/variadic/size.hpp</text>
</a>
</g>
</g>
<!-- Node40&#45;&gt;Node45 -->
<g id="edge58" class="edge">
<title>Node40&#45;&gt;Node45</title>
<path fill="none" stroke="midnightblue" d="M2042.18,-480.28C2123.94,-473.44 2284.49,-458.37 2430.28,-434.07"/>
<polygon fill="midnightblue" stroke="midnightblue" points="2431.02,-437.49 2440.3,-432.38 2429.86,-430.59 2431.02,-437.49"/>
</g>
<!-- Node46 -->
<g id="node45" class="node">
<title>Node46</title>
<g id="a_node45"><a xlink:href="Parallel_8hpp.html" target="_top" xlink:title=" ">
<polygon fill="white" stroke="black" points="1558.38,-409 1558.38,-428 1656.38,-428 1656.38,-409 1558.38,-409"/>
<text text-anchor="middle" x="1607.38" y="-416" font-family="Helvetica,sans-Serif" font-size="10.00">utils/Parallel.hpp</text>
</a>
</g>
</g>
<!-- Node40&#45;&gt;Node46 -->
<g id="edge60" class="edge">
<title>Node40&#45;&gt;Node46</title>
<path fill="none" stroke="midnightblue" d="M1938.18,-475.94C1868.13,-463.98 1741.27,-442.34 1666.66,-429.61"/>
<polygon fill="midnightblue" stroke="midnightblue" points="1666.93,-426.11 1656.49,-427.88 1665.76,-433.01 1666.93,-426.11"/>
</g>
<!-- Node50 -->
<g id="node49" class="node">
<title>Node50</title>
<g id="a_node49"><a xlink:href="stacktrace_8hpp.html" target="_top" xlink:title=" ">
<polygon fill="white" stroke="black" points="1262.88,-291.5 1262.88,-310.5 1375.88,-310.5 1375.88,-291.5 1262.88,-291.5"/>
<text text-anchor="middle" x="1319.38" y="-298.5" font-family="Helvetica,sans-Serif" font-size="10.00">utils/stacktrace.hpp</text>
</a>
</g>
</g>
<!-- Node40&#45;&gt;Node50 -->
<g id="edge69" class="edge">
<title>Node40&#45;&gt;Node50</title>
<path fill="none" stroke="midnightblue" d="M1934.57,-482.68C1851.01,-478.89 1685.53,-467.47 1549.38,-434 1468.91,-414.22 1443.13,-414.72 1375.38,-367 1357,-354.05 1340.83,-333.78 1330.65,-319.32"/>
<polygon fill="midnightblue" stroke="midnightblue" points="1333.37,-317.1 1324.86,-310.79 1327.58,-321.03 1333.37,-317.1"/>
</g>
<!-- Node51 -->
<g id="node50" class="node">
<title>Node51</title>
<g id="a_node50"><a xlink:title=" ">
<polygon fill="white" stroke="#bfbfbf" points="1753.38,-409 1753.38,-428 1805.38,-428 1805.38,-409 1753.38,-409"/>
<text text-anchor="middle" x="1779.38" y="-416" font-family="Helvetica,sans-Serif" font-size="10.00">cassert</text>
</a>
</g>
</g>
<!-- Node40&#45;&gt;Node51 -->
<g id="edge71" class="edge">
<title>Node40&#45;&gt;Node51</title>
<path fill="none" stroke="midnightblue" d="M1958,-475.99C1924.04,-466.35 1867.5,-449.9 1819.38,-434 1816.84,-433.16 1814.21,-432.27 1811.58,-431.35"/>
<polygon fill="midnightblue" stroke="midnightblue" points="1812.74,-428.05 1802.15,-428.01 1810.4,-434.65 1812.74,-428.05"/>
</g>
<!-- Node46&#45;&gt;Node13 -->
<g id="edge64" class="edge">
<title>Node46&#45;&gt;Node13</title>
<path fill="none" stroke="midnightblue" d="M1558.24,-410.79C1506.41,-402.74 1429.4,-387.69 1408.38,-367 1400.1,-358.85 1360.31,-197.01 1346.85,-141.5"/>
<polygon fill="midnightblue" stroke="midnightblue" points="1350.21,-140.52 1344.46,-131.63 1343.41,-142.17 1350.21,-140.52"/>
</g>
<!-- Node46&#45;&gt;Node16 -->
<g id="edge66" class="edge">
<title>Node46&#45;&gt;Node16</title>
<path fill="none" stroke="midnightblue" d="M1588.04,-408.98C1565.28,-398.95 1527.29,-382.2 1501.09,-370.65"/>
<polygon fill="midnightblue" stroke="midnightblue" points="1502.25,-367.34 1491.69,-366.51 1499.43,-373.74 1502.25,-367.34"/>
</g>
<!-- Node46&#45;&gt;Node17 -->
<g id="edge62" class="edge">
<title>Node46&#45;&gt;Node17</title>
<path fill="none" stroke="midnightblue" d="M1600.91,-408.92C1593.75,-399.15 1582.2,-382.53 1574.38,-367 1566.78,-351.89 1560.29,-333.77 1555.98,-320.5"/>
<polygon fill="midnightblue" stroke="midnightblue" points="1559.23,-319.17 1552.9,-310.67 1552.55,-321.26 1559.23,-319.17"/>
</g>
<!-- Node46&#45;&gt;Node31 -->
<g id="edge65" class="edge">
<title>Node46&#45;&gt;Node31</title>
<path fill="none" stroke="midnightblue" d="M1656.57,-410.07C1759.66,-392.07 2000.55,-337.02 2142.38,-199 2175.69,-166.59 2194.48,-113.58 2202.57,-85.62"/>
<polygon fill="midnightblue" stroke="midnightblue" points="2206.05,-86.17 2205.31,-75.6 2199.3,-84.32 2206.05,-86.17"/>
</g>
<!-- Node46&#45;&gt;Node39 -->
<g id="edge67" class="edge">
<title>Node46&#45;&gt;Node39</title>
<path fill="none" stroke="midnightblue" d="M1558.05,-411.52C1467.86,-400.59 1276.59,-377.41 1177.99,-365.47"/>
<polygon fill="midnightblue" stroke="midnightblue" points="1178.23,-361.97 1167.88,-364.24 1177.39,-368.92 1178.23,-361.97"/>
</g>
<!-- Node47 -->
<g id="node46" class="node">
<title>Node47</title>
<g id="a_node46"><a xlink:title=" ">
<polygon fill="white" stroke="#bfbfbf" points="1583.38,-347.5 1583.38,-366.5 1631.38,-366.5 1631.38,-347.5 1583.38,-347.5"/>
<text text-anchor="middle" x="1607.38" y="-354.5" font-family="Helvetica,sans-Serif" font-size="10.00">iosfwd</text>
</a>
</g>
</g>
<!-- Node46&#45;&gt;Node47 -->
<g id="edge61" class="edge">
<title>Node46&#45;&gt;Node47</title>
<path fill="none" stroke="midnightblue" d="M1607.38,-408.98C1607.38,-400.58 1607.38,-387.48 1607.38,-376.66"/>
<polygon fill="midnightblue" stroke="midnightblue" points="1610.88,-376.51 1607.38,-366.51 1603.88,-376.51 1610.88,-376.51"/>
</g>
<!-- Node48 -->
<g id="node47" class="node">
<title>Node48</title>
<g id="a_node47"><a xlink:title=" ">
<polygon fill="white" stroke="#bfbfbf" points="1649.38,-347.5 1649.38,-366.5 1705.38,-366.5 1705.38,-347.5 1649.38,-347.5"/>
<text text-anchor="middle" x="1677.38" y="-354.5" font-family="Helvetica,sans-Serif" font-size="10.00">optional</text>
</a>
</g>
</g>
<!-- Node46&#45;&gt;Node48 -->
<g id="edge63" class="edge">
<title>Node46&#45;&gt;Node48</title>
<path fill="none" stroke="midnightblue" d="M1617.41,-408.98C1628.43,-399.61 1646.34,-384.38 1659.73,-373.01"/>
<polygon fill="midnightblue" stroke="midnightblue" points="1662.02,-375.65 1667.37,-366.51 1657.49,-370.32 1662.02,-375.65"/>
</g>
<!-- Node49 -->
<g id="node48" class="node">
<title>Node49</title>
<g id="a_node48"><a xlink:title=" ">
<polygon fill="white" stroke="#bfbfbf" points="1723.38,-347.5 1723.38,-366.5 1767.38,-366.5 1767.38,-347.5 1723.38,-347.5"/>
<text text-anchor="middle" x="1745.38" y="-354.5" font-family="Helvetica,sans-Serif" font-size="10.00">mpi.h</text>
</a>
</g>
</g>
<!-- Node46&#45;&gt;Node49 -->
<g id="edge68" class="edge">
<title>Node46&#45;&gt;Node49</title>
<path fill="none" stroke="midnightblue" d="M1627.15,-408.98C1650.52,-398.9 1689.6,-382.05 1716.38,-370.5"/>
<polygon fill="midnightblue" stroke="midnightblue" points="1717.85,-373.68 1725.65,-366.51 1715.08,-367.25 1717.85,-373.68"/>
</g>
<!-- Node50&#45;&gt;Node13 -->
<g id="edge70" class="edge">
<title>Node50&#45;&gt;Node13</title>
<path fill="none" stroke="midnightblue" d="M1320.49,-291.46C1324,-264.43 1334.94,-180.24 1339.9,-142.11"/>
<polygon fill="midnightblue" stroke="midnightblue" points="1343.41,-142.24 1341.23,-131.87 1336.47,-141.33 1343.41,-142.24"/>
</g>
</g>
</svg>
