<?xml version="1.0" encoding="UTF-8" standalone="no"?>
<!DOCTYPE svg PUBLIC "-//W3C//DTD SVG 1.1//EN"
 "http://www.w3.org/Graphics/SVG/1.1/DTD/svg11.dtd">
<!-- Generated by graphviz version 2.43.0 (0)
 -->
<!-- Title: src/acceleration/impl/ConstantPreconditioner.cpp Pages: 1 -->
<!--zoomable 520 -->
<svg id="main" version="1.1" xmlns="http://www.w3.org/2000/svg" xmlns:xlink="http://www.w3.org/1999/xlink" xml:space="preserve" onload="init(evt)">
<style type="text/css"><![CDATA[
.edge:hover path { stroke: red; }
.edge:hover polygon { stroke: red; fill: red; }
]]></style>
<script type="text/javascript"><![CDATA[
var edges = document.getElementsByTagName('g');
if (edges && edges.length) {
  for (var i=0;i<edges.length;i++) {
    if (edges[i].id.substr(0,4)=='edge') {
      edges[i].setAttribute('class','edge');
    }
  }
}
]]></script>
        <defs>
                <circle id="rim" cx="0" cy="0" r="7"/>
                <circle id="rim2" cx="0" cy="0" r="3.5"/>
                <g id="zoomPlus">
                        <use xlink:href="#rim" fill="#404040">
                                <set attributeName="fill" to="#808080" begin="zoomplus.mouseover" end="zoomplus.mouseout"/>
                        </use>
                        <path d="M-4,0h8M0,-4v8" fill="none" stroke="white" stroke-width="1.5" pointer-events="none"/>
                </g>
                <g id="zoomMin">
                        <use xlink:href="#rim" fill="#404040">
                                <set attributeName="fill" to="#808080" begin="zoomminus.mouseover" end="zoomminus.mouseout"/>
                        </use>
                        <path d="M-4,0h8" fill="none" stroke="white" stroke-width="1.5" pointer-events="none"/>
                </g>
                <g id="dirArrow">
                        <path fill="none" stroke="white" stroke-width="1.5" d="M0,-3.0v7 M-2.5,-0.5L0,-3.0L2.5,-0.5"/>
                </g>
               <g id="resetDef">
                       <use xlink:href="#rim2" fill="#404040">
                               <set attributeName="fill" to="#808080" begin="reset.mouseover" end="reset.mouseout"/>
                       </use>
               </g>
        </defs>

<script type="text/javascript">
var viewWidth = 1949;
var viewHeight = 520;
var sectionId = 'dynsection-0';
</script>
<script xlink:href="svgpan.js"/>
<svg id="graph" class="graph">
<g id="viewport">
<title>src/acceleration/impl/ConstantPreconditioner.cpp</title>
<polygon fill="white" stroke="transparent" points="-4,4 -4,-516 1944.5,-516 1944.5,4 -4,4"/>
<!-- Node1 -->
<g id="node1" class="node">
<title>Node1</title>
<g id="a_node1"><a xlink:title=" ">
<polygon fill="#bfbfbf" stroke="black" points="892.5,-481.5 892.5,-511.5 1045.5,-511.5 1045.5,-481.5 892.5,-481.5"/>
<text text-anchor="start" x="900.5" y="-499.5" font-family="Helvetica,sans-Serif" font-size="10.00">src/acceleration/impl</text>
<text text-anchor="middle" x="969" y="-488.5" font-family="Helvetica,sans-Serif" font-size="10.00">/ConstantPreconditioner.cpp</text>
</a>
</g>
</g>
<!-- Node2 -->
<g id="node2" class="node">
<title>Node2</title>
<g id="a_node2"><a xlink:href="ConstantPreconditioner_8hpp.html" target="_top" xlink:title=" ">
<polygon fill="white" stroke="black" points="279,-414.5 279,-444.5 427,-444.5 427,-414.5 279,-414.5"/>
<text text-anchor="start" x="287" y="-432.5" font-family="Helvetica,sans-Serif" font-size="10.00">acceleration/impl/Constant</text>
<text text-anchor="middle" x="353" y="-421.5" font-family="Helvetica,sans-Serif" font-size="10.00">Preconditioner.hpp</text>
</a>
</g>
</g>
<!-- Node1&#45;&gt;Node2 -->
<g id="edge1" class="edge">
<title>Node1&#45;&gt;Node2</title>
<path fill="none" stroke="midnightblue" d="M892.23,-487.4C776.43,-475.18 557.88,-452.12 437.62,-439.43"/>
<polygon fill="midnightblue" stroke="midnightblue" points="437.68,-435.92 427.37,-438.35 436.94,-442.88 437.68,-435.92"/>
</g>
<!-- Node11 -->
<g id="node11" class="node">
<title>Node11</title>
<g id="a_node11"><a xlink:href="LogMacros_8hpp.html" target="_top" xlink:title=" ">
<polygon fill="white" stroke="black" points="481.5,-302.5 481.5,-321.5 610.5,-321.5 610.5,-302.5 481.5,-302.5"/>
<text text-anchor="middle" x="546" y="-309.5" font-family="Helvetica,sans-Serif" font-size="10.00">logging/LogMacros.hpp</text>
</a>
</g>
</g>
<!-- Node1&#45;&gt;Node11 -->
<g id="edge71" class="edge">
<title>Node1&#45;&gt;Node11</title>
<path fill="none" stroke="midnightblue" d="M936.51,-481.48C856.71,-447.05 652.03,-358.75 575.48,-325.72"/>
<polygon fill="midnightblue" stroke="midnightblue" points="576.54,-322.36 565.97,-321.62 573.76,-328.79 576.54,-322.36"/>
</g>
<!-- Node17 -->
<g id="node17" class="node">
<title>Node17</title>
<g id="a_node17"><a xlink:title=" ">
<polygon fill="white" stroke="#bfbfbf" points="1701,-56.5 1701,-75.5 1765,-75.5 1765,-56.5 1701,-56.5"/>
<text text-anchor="middle" x="1733" y="-63.5" font-family="Helvetica,sans-Serif" font-size="10.00">algorithm</text>
</a>
</g>
</g>
<!-- Node1&#45;&gt;Node17 -->
<g id="edge69" class="edge">
<title>Node1&#45;&gt;Node17</title>
<path fill="none" stroke="midnightblue" d="M1045.56,-492.72C1262.72,-483.83 1867,-451.66 1867,-369 1867,-369 1867,-369 1867,-182.5 1867,-130.01 1807.28,-96.13 1767.57,-79.4"/>
<polygon fill="midnightblue" stroke="midnightblue" points="1768.79,-76.12 1758.2,-75.61 1766.16,-82.61 1768.79,-76.12"/>
</g>
<!-- Node32 -->
<g id="node32" class="node">
<title>Node32</title>
<g id="a_node32"><a xlink:href="assertion_8hpp.html" target="_top" xlink:title=" ">
<polygon fill="white" stroke="black" points="915.5,-302.5 915.5,-321.5 1022.5,-321.5 1022.5,-302.5 915.5,-302.5"/>
<text text-anchor="middle" x="969" y="-309.5" font-family="Helvetica,sans-Serif" font-size="10.00">utils/assertion.hpp</text>
</a>
</g>
</g>
<!-- Node1&#45;&gt;Node32 -->
<g id="edge72" class="edge">
<title>Node1&#45;&gt;Node32</title>
<path fill="none" stroke="midnightblue" d="M969,-481.48C969,-449.1 969,-369.04 969,-332.16"/>
<polygon fill="midnightblue" stroke="midnightblue" points="972.5,-331.82 969,-321.82 965.5,-331.82 972.5,-331.82"/>
</g>
<!-- Node45 -->
<g id="node45" class="node">
<title>Node45</title>
<g id="a_node45"><a xlink:title=" ">
<polygon fill="white" stroke="#bfbfbf" points="1895.5,-420 1895.5,-439 1940.5,-439 1940.5,-420 1895.5,-420"/>
<text text-anchor="middle" x="1918" y="-427" font-family="Helvetica,sans-Serif" font-size="10.00">utility</text>
</a>
</g>
</g>
<!-- Node1&#45;&gt;Node45 -->
<g id="edge70" class="edge">
<title>Node1&#45;&gt;Node45</title>
<path fill="none" stroke="midnightblue" d="M1045.64,-494.38C1235.28,-491.11 1722.57,-479.5 1881,-445 1884,-444.35 1887.08,-443.48 1890.12,-442.5"/>
<polygon fill="midnightblue" stroke="midnightblue" points="1891.34,-445.78 1899.54,-439.07 1888.94,-439.2 1891.34,-445.78"/>
</g>
<!-- Node3 -->
<g id="node3" class="node">
<title>Node3</title>
<g id="a_node3"><a xlink:title=" ">
<polygon fill="white" stroke="#bfbfbf" points="656.5,-0.5 656.5,-19.5 725.5,-19.5 725.5,-0.5 656.5,-0.5"/>
<text text-anchor="middle" x="691" y="-7.5" font-family="Helvetica,sans-Serif" font-size="10.00">Eigen/Core</text>
</a>
</g>
</g>
<!-- Node2&#45;&gt;Node3 -->
<g id="edge2" class="edge">
<title>Node2&#45;&gt;Node3</title>
<path fill="none" stroke="midnightblue" d="M279,-419.47C175.49,-404.74 0,-371.19 0,-313 0,-313 0,-313 0,-121 0,-56.8 67.18,-73.33 129,-56 225.99,-28.81 530.31,-16.25 645.87,-12.37"/>
<polygon fill="midnightblue" stroke="midnightblue" points="646.25,-15.86 656.13,-12.04 646.02,-8.87 646.25,-15.86"/>
</g>
<!-- Node4 -->
<g id="node4" class="node">
<title>Node4</title>
<g id="a_node4"><a xlink:title=" ">
<polygon fill="white" stroke="#bfbfbf" points="381,-358.5 381,-377.5 437,-377.5 437,-358.5 381,-358.5"/>
<text text-anchor="middle" x="409" y="-365.5" font-family="Helvetica,sans-Serif" font-size="10.00">stddef.h</text>
</a>
</g>
</g>
<!-- Node2&#45;&gt;Node4 -->
<g id="edge3" class="edge">
<title>Node2&#45;&gt;Node4</title>
<path fill="none" stroke="midnightblue" d="M366.27,-414.4C374.58,-405.58 385.3,-394.18 393.92,-385.02"/>
<polygon fill="midnightblue" stroke="midnightblue" points="396.55,-387.34 400.85,-377.66 391.45,-382.54 396.55,-387.34"/>
</g>
<!-- Node5 -->
<g id="node5" class="node">
<title>Node5</title>
<g id="a_node5"><a xlink:title=" ">
<polygon fill="white" stroke="#bfbfbf" points="1699,-112.5 1699,-131.5 1743,-131.5 1743,-112.5 1699,-112.5"/>
<text text-anchor="middle" x="1721" y="-119.5" font-family="Helvetica,sans-Serif" font-size="10.00">string</text>
</a>
</g>
</g>
<!-- Node2&#45;&gt;Node5 -->
<g id="edge4" class="edge">
<title>Node2&#45;&gt;Node5</title>
<path fill="none" stroke="midnightblue" d="M427.21,-426.62C726.51,-418.57 1829,-384.09 1829,-313 1829,-313 1829,-313 1829,-249.5 1829,-198.25 1777.09,-157.26 1745.25,-136.94"/>
<polygon fill="midnightblue" stroke="midnightblue" points="1746.82,-133.8 1736.47,-131.53 1743.15,-139.76 1746.82,-133.8"/>
</g>
<!-- Node6 -->
<g id="node6" class="node">
<title>Node6</title>
<g id="a_node6"><a xlink:title=" ">
<polygon fill="white" stroke="#bfbfbf" points="515.5,-56.5 515.5,-75.5 562.5,-75.5 562.5,-56.5 515.5,-56.5"/>
<text text-anchor="middle" x="539" y="-63.5" font-family="Helvetica,sans-Serif" font-size="10.00">vector</text>
</a>
</g>
</g>
<!-- Node2&#45;&gt;Node6 -->
<g id="edge5" class="edge">
<title>Node2&#45;&gt;Node6</title>
<path fill="none" stroke="midnightblue" d="M278.77,-428.06C196.72,-423.19 76,-401.05 76,-313 76,-313 76,-313 76,-182.5 76,-132.73 117.16,-131.38 163,-112 224.5,-85.99 425.13,-72.93 505.38,-68.64"/>
<polygon fill="midnightblue" stroke="midnightblue" points="505.64,-72.13 515.44,-68.11 505.27,-65.14 505.64,-72.13"/>
</g>
<!-- Node7 -->
<g id="node7" class="node">
<title>Node7</title>
<g id="a_node7"><a xlink:href="Preconditioner_8hpp.html" target="_top" xlink:title=" ">
<polygon fill="white" stroke="black" points="130.5,-358.5 130.5,-377.5 325.5,-377.5 325.5,-358.5 130.5,-358.5"/>
<text text-anchor="middle" x="228" y="-365.5" font-family="Helvetica,sans-Serif" font-size="10.00">acceleration/impl/Preconditioner.hpp</text>
</a>
</g>
</g>
<!-- Node2&#45;&gt;Node7 -->
<g id="edge6" class="edge">
<title>Node2&#45;&gt;Node7</title>
<path fill="none" stroke="midnightblue" d="M323.38,-414.4C302.78,-404.59 275.52,-391.62 255.42,-382.05"/>
<polygon fill="midnightblue" stroke="midnightblue" points="256.72,-378.8 246.19,-377.66 253.71,-385.12 256.72,-378.8"/>
</g>
<!-- Node31 -->
<g id="node31" class="node">
<title>Node31</title>
<g id="a_node31"><a xlink:href="Logger_8hpp.html" target="_top" xlink:title=" ">
<polygon fill="white" stroke="black" points="322,-174 322,-193 392,-193 392,-174 322,-174"/>
<text text-anchor="middle" x="357" y="-181" font-family="Helvetica,sans-Serif" font-size="10.00">Logger.hpp</text>
</a>
</g>
</g>
<!-- Node2&#45;&gt;Node31 -->
<g id="edge68" class="edge">
<title>Node2&#45;&gt;Node31</title>
<path fill="none" stroke="midnightblue" d="M353.23,-414.33C353.92,-372.61 355.92,-250.23 356.69,-203.2"/>
<polygon fill="midnightblue" stroke="midnightblue" points="360.19,-203.25 356.86,-193.2 353.19,-203.14 360.19,-203.25"/>
</g>
<!-- Node7&#45;&gt;Node3 -->
<g id="edge7" class="edge">
<title>Node7&#45;&gt;Node3</title>
<path fill="none" stroke="midnightblue" d="M176.33,-358.48C120.07,-345.92 38,-316.45 38,-251.5 38,-251.5 38,-251.5 38,-121 38,-59.18 498.96,-23.59 646.3,-13.79"/>
<polygon fill="midnightblue" stroke="midnightblue" points="646.6,-17.28 656.35,-13.13 646.14,-10.3 646.6,-17.28"/>
</g>
<!-- Node7&#45;&gt;Node6 -->
<g id="edge8" class="edge">
<title>Node7&#45;&gt;Node6</title>
<path fill="none" stroke="midnightblue" d="M208.92,-358.48C176.47,-342.53 114,-304.89 114,-251.5 114,-251.5 114,-251.5 114,-182.5 114,-101.63 404.2,-75.54 505,-68.92"/>
<polygon fill="midnightblue" stroke="midnightblue" points="505.48,-72.4 515.24,-68.28 505.04,-65.41 505.48,-72.4"/>
</g>
<!-- Node8 -->
<g id="node8" class="node">
<title>Node8</title>
<g id="a_node8"><a xlink:href="cplscheme_2SharedPointer_8hpp.html" target="_top" xlink:title=" ">
<polygon fill="white" stroke="black" points="142.5,-174 142.5,-193 303.5,-193 303.5,-174 142.5,-174"/>
<text text-anchor="middle" x="223" y="-181" font-family="Helvetica,sans-Serif" font-size="10.00">cplscheme/SharedPointer.hpp</text>
</a>
</g>
</g>
<!-- Node7&#45;&gt;Node8 -->
<g id="edge9" class="edge">
<title>Node7&#45;&gt;Node8</title>
<path fill="none" stroke="midnightblue" d="M227.76,-358.2C226.99,-330.19 224.59,-242.71 223.52,-203.66"/>
<polygon fill="midnightblue" stroke="midnightblue" points="227.01,-203.11 223.24,-193.21 220.01,-203.31 227.01,-203.11"/>
</g>
<!-- Node7&#45;&gt;Node11 -->
<g id="edge12" class="edge">
<title>Node7&#45;&gt;Node11</title>
<path fill="none" stroke="midnightblue" d="M278.39,-358.44C334.68,-348.89 425.75,-333.42 485.76,-323.23"/>
<polygon fill="midnightblue" stroke="midnightblue" points="486.57,-326.64 495.85,-321.52 485.4,-319.74 486.57,-326.64"/>
</g>
<!-- Node7&#45;&gt;Node31 -->
<g id="edge44" class="edge">
<title>Node7&#45;&gt;Node31</title>
<path fill="none" stroke="midnightblue" d="M234.22,-358.2C254.36,-329.71 318,-239.68 344.85,-201.68"/>
<polygon fill="midnightblue" stroke="midnightblue" points="347.93,-203.4 350.84,-193.21 342.21,-199.36 347.93,-203.4"/>
</g>
<!-- Node7&#45;&gt;Node32 -->
<g id="edge45" class="edge">
<title>Node7&#45;&gt;Node32</title>
<path fill="none" stroke="midnightblue" d="M325.63,-359.88C479.84,-348.65 775.54,-327.1 905.3,-317.64"/>
<polygon fill="midnightblue" stroke="midnightblue" points="905.75,-321.12 915.47,-316.9 905.24,-314.14 905.75,-321.12"/>
</g>
<!-- Node9 -->
<g id="node9" class="node">
<title>Node9</title>
<g id="a_node9"><a xlink:title=" ">
<polygon fill="white" stroke="#bfbfbf" points="624,-56.5 624,-75.5 662,-75.5 662,-56.5 624,-56.5"/>
<text text-anchor="middle" x="643" y="-63.5" font-family="Helvetica,sans-Serif" font-size="10.00">map</text>
</a>
</g>
</g>
<!-- Node8&#45;&gt;Node9 -->
<g id="edge10" class="edge">
<title>Node8&#45;&gt;Node9</title>
<path fill="none" stroke="midnightblue" d="M231.59,-173.81C247.35,-158.46 282.6,-126.78 319,-112 325.83,-109.23 534.91,-81.32 613.51,-70.9"/>
<polygon fill="midnightblue" stroke="midnightblue" points="614.25,-74.33 623.71,-69.55 613.33,-67.39 614.25,-74.33"/>
</g>
<!-- Node10 -->
<g id="node10" class="node">
<title>Node10</title>
<g id="a_node10"><a xlink:title=" ">
<polygon fill="white" stroke="#bfbfbf" points="328,-112.5 328,-131.5 386,-131.5 386,-112.5 328,-112.5"/>
<text text-anchor="middle" x="357" y="-119.5" font-family="Helvetica,sans-Serif" font-size="10.00">memory</text>
</a>
</g>
</g>
<!-- Node8&#45;&gt;Node10 -->
<g id="edge11" class="edge">
<title>Node8&#45;&gt;Node10</title>
<path fill="none" stroke="midnightblue" d="M242.2,-173.98C264.79,-163.95 302.5,-147.2 328.5,-135.65"/>
<polygon fill="midnightblue" stroke="midnightblue" points="330.12,-138.77 337.84,-131.51 327.28,-132.37 330.12,-138.77"/>
</g>
<!-- Node12 -->
<g id="node12" class="node">
<title>Node12</title>
<g id="a_node12"><a xlink:href="fmt_8hpp.html" target="_top" xlink:title=" ">
<polygon fill="white" stroke="black" points="1160.5,-174 1160.5,-193 1239.5,-193 1239.5,-174 1160.5,-174"/>
<text text-anchor="middle" x="1200" y="-181" font-family="Helvetica,sans-Serif" font-size="10.00">utils/fmt.hpp</text>
</a>
</g>
</g>
<!-- Node11&#45;&gt;Node12 -->
<g id="edge13" class="edge">
<title>Node11&#45;&gt;Node12</title>
<path fill="none" stroke="midnightblue" d="M581.52,-302.46C643.78,-287.66 776.77,-256.71 890,-235 981.38,-217.48 1088.66,-200.88 1150.05,-191.76"/>
<polygon fill="midnightblue" stroke="midnightblue" points="1150.86,-195.18 1160.24,-190.25 1149.83,-188.25 1150.86,-195.18"/>
</g>
<!-- Node24 -->
<g id="node24" class="node">
<title>Node24</title>
<g id="a_node24"><a xlink:href="ArgumentFormatter_8hpp.html" target="_top" xlink:title=" ">
<polygon fill="white" stroke="black" points="542.5,-241 542.5,-260 699.5,-260 699.5,-241 542.5,-241"/>
<text text-anchor="middle" x="621" y="-248" font-family="Helvetica,sans-Serif" font-size="10.00">utils/ArgumentFormatter.hpp</text>
</a>
</g>
</g>
<!-- Node11&#45;&gt;Node24 -->
<g id="edge32" class="edge">
<title>Node11&#45;&gt;Node24</title>
<path fill="none" stroke="midnightblue" d="M556.75,-302.48C568.55,-293.11 587.74,-277.88 602.08,-266.51"/>
<polygon fill="midnightblue" stroke="midnightblue" points="604.62,-268.97 610.27,-260.01 600.26,-263.48 604.62,-268.97"/>
</g>
<!-- Node30 -->
<g id="node30" class="node">
<title>Node30</title>
<g id="a_node30"><a xlink:href="Tracer_8hpp.html" target="_top" xlink:title=" ">
<polygon fill="white" stroke="black" points="419.5,-241 419.5,-260 524.5,-260 524.5,-241 419.5,-241"/>
<text text-anchor="middle" x="472" y="-248" font-family="Helvetica,sans-Serif" font-size="10.00">logging/Tracer.hpp</text>
</a>
</g>
</g>
<!-- Node11&#45;&gt;Node30 -->
<g id="edge39" class="edge">
<title>Node11&#45;&gt;Node30</title>
<path fill="none" stroke="midnightblue" d="M535.4,-302.48C523.75,-293.11 504.81,-277.88 490.67,-266.51"/>
<polygon fill="midnightblue" stroke="midnightblue" points="492.57,-263.55 482.58,-260.01 488.18,-269 492.57,-263.55"/>
</g>
<!-- Node12&#45;&gt;Node5 -->
<g id="edge14" class="edge">
<title>Node12&#45;&gt;Node5</title>
<path fill="none" stroke="midnightblue" d="M1239.59,-177.98C1339.07,-166.62 1598.03,-137.04 1688.91,-126.66"/>
<polygon fill="midnightblue" stroke="midnightblue" points="1689.36,-130.14 1698.9,-125.52 1688.56,-123.18 1689.36,-130.14"/>
</g>
<!-- Node13 -->
<g id="node13" class="node">
<title>Node13</title>
<g id="a_node13"><a xlink:title=" ">
<polygon fill="white" stroke="#bfbfbf" points="918.5,-112.5 918.5,-131.5 991.5,-131.5 991.5,-112.5 918.5,-112.5"/>
<text text-anchor="middle" x="955" y="-119.5" font-family="Helvetica,sans-Serif" font-size="10.00">string_view</text>
</a>
</g>
</g>
<!-- Node12&#45;&gt;Node13 -->
<g id="edge15" class="edge">
<title>Node12&#45;&gt;Node13</title>
<path fill="none" stroke="midnightblue" d="M1168.92,-173.98C1161.43,-171.97 1153.44,-169.87 1146,-168 1096.87,-155.62 1040.37,-142.44 1001.64,-133.56"/>
<polygon fill="midnightblue" stroke="midnightblue" points="1002.23,-130.11 991.7,-131.29 1000.67,-136.93 1002.23,-130.11"/>
</g>
<!-- Node14 -->
<g id="node14" class="node">
<title>Node14</title>
<g id="a_node14"><a xlink:title=" ">
<polygon fill="white" stroke="#bfbfbf" points="1236.5,-56.5 1236.5,-75.5 1315.5,-75.5 1315.5,-56.5 1236.5,-56.5"/>
<text text-anchor="middle" x="1276" y="-63.5" font-family="Helvetica,sans-Serif" font-size="10.00">fmt/format.h</text>
</a>
</g>
</g>
<!-- Node12&#45;&gt;Node14 -->
<g id="edge16" class="edge">
<title>Node12&#45;&gt;Node14</title>
<path fill="none" stroke="midnightblue" d="M1213.75,-173.72C1226.72,-164.74 1245.81,-149.64 1257,-132 1265.95,-117.88 1270.82,-99.39 1273.38,-85.75"/>
<polygon fill="midnightblue" stroke="midnightblue" points="1276.88,-86.06 1275.03,-75.62 1269.97,-84.93 1276.88,-86.06"/>
</g>
<!-- Node15 -->
<g id="node15" class="node">
<title>Node15</title>
<g id="a_node15"><a xlink:title=" ">
<polygon fill="white" stroke="#bfbfbf" points="1010,-112.5 1010,-131.5 1096,-131.5 1096,-112.5 1010,-112.5"/>
<text text-anchor="middle" x="1053" y="-119.5" font-family="Helvetica,sans-Serif" font-size="10.00">fmt/ostream.h</text>
</a>
</g>
</g>
<!-- Node12&#45;&gt;Node15 -->
<g id="edge17" class="edge">
<title>Node12&#45;&gt;Node15</title>
<path fill="none" stroke="midnightblue" d="M1178.94,-173.98C1153.94,-163.86 1112.06,-146.9 1083.51,-135.35"/>
<polygon fill="midnightblue" stroke="midnightblue" points="1084.61,-132.02 1074.02,-131.51 1081.98,-138.51 1084.61,-132.02"/>
</g>
<!-- Node16 -->
<g id="node16" class="node">
<title>Node16</title>
<g id="a_node16"><a xlink:href="fmtEigen_8hpp.html" target="_top" xlink:title=" ">
<polygon fill="white" stroke="black" points="1326,-112.5 1326,-131.5 1432,-131.5 1432,-112.5 1326,-112.5"/>
<text text-anchor="middle" x="1379" y="-119.5" font-family="Helvetica,sans-Serif" font-size="10.00">utils/fmtEigen.hpp</text>
</a>
</g>
</g>
<!-- Node12&#45;&gt;Node16 -->
<g id="edge18" class="edge">
<title>Node12&#45;&gt;Node16</title>
<path fill="none" stroke="midnightblue" d="M1225.65,-173.98C1256.62,-163.68 1308.87,-146.31 1343.65,-134.75"/>
<polygon fill="midnightblue" stroke="midnightblue" points="1345.02,-137.98 1353.4,-131.51 1342.81,-131.34 1345.02,-137.98"/>
</g>
<!-- Node20 -->
<g id="node20" class="node">
<title>Node20</title>
<g id="a_node20"><a xlink:href="fmtSTL_8hpp.html" target="_top" xlink:title=" ">
<polygon fill="white" stroke="black" points="1152,-112.5 1152,-131.5 1248,-131.5 1248,-112.5 1152,-112.5"/>
<text text-anchor="middle" x="1200" y="-119.5" font-family="Helvetica,sans-Serif" font-size="10.00">utils/fmtSTL.hpp</text>
</a>
</g>
</g>
<!-- Node12&#45;&gt;Node20 -->
<g id="edge25" class="edge">
<title>Node12&#45;&gt;Node20</title>
<path fill="none" stroke="midnightblue" d="M1200,-173.98C1200,-165.58 1200,-152.48 1200,-141.66"/>
<polygon fill="midnightblue" stroke="midnightblue" points="1203.5,-141.51 1200,-131.51 1196.5,-141.51 1203.5,-141.51"/>
</g>
<!-- Node16&#45;&gt;Node3 -->
<g id="edge19" class="edge">
<title>Node16&#45;&gt;Node3</title>
<path fill="none" stroke="midnightblue" d="M1374.79,-112.34C1367.16,-97.75 1349.54,-68.59 1325,-56 1272.92,-29.27 871.49,-15.93 735.71,-12.15"/>
<polygon fill="midnightblue" stroke="midnightblue" points="735.74,-8.65 725.65,-11.88 735.55,-15.65 735.74,-8.65"/>
</g>
<!-- Node16&#45;&gt;Node14 -->
<g id="edge21" class="edge">
<title>Node16&#45;&gt;Node14</title>
<path fill="none" stroke="midnightblue" d="M1362.45,-112.32C1346.01,-103.7 1320.57,-90.36 1301.53,-80.39"/>
<polygon fill="midnightblue" stroke="midnightblue" points="1302.99,-77.2 1292.51,-75.65 1299.74,-83.4 1302.99,-77.2"/>
</g>
<!-- Node16&#45;&gt;Node17 -->
<g id="edge20" class="edge">
<title>Node16&#45;&gt;Node17</title>
<path fill="none" stroke="midnightblue" d="M1432.38,-112.86C1503.01,-102.08 1626.08,-83.31 1690.66,-73.46"/>
<polygon fill="midnightblue" stroke="midnightblue" points="1691.53,-76.87 1700.89,-71.9 1690.47,-69.95 1691.53,-76.87"/>
</g>
<!-- Node18 -->
<g id="node18" class="node">
<title>Node18</title>
<g id="a_node18"><a xlink:title=" ">
<polygon fill="white" stroke="#bfbfbf" points="1372,-56.5 1372,-75.5 1428,-75.5 1428,-56.5 1372,-56.5"/>
<text text-anchor="middle" x="1400" y="-63.5" font-family="Helvetica,sans-Serif" font-size="10.00">sstream</text>
</a>
</g>
</g>
<!-- Node16&#45;&gt;Node18 -->
<g id="edge22" class="edge">
<title>Node16&#45;&gt;Node18</title>
<path fill="none" stroke="midnightblue" d="M1382.47,-112.08C1385.31,-104.77 1389.43,-94.18 1392.96,-85.1"/>
<polygon fill="midnightblue" stroke="midnightblue" points="1396.23,-86.34 1396.6,-75.75 1389.71,-83.8 1396.23,-86.34"/>
</g>
<!-- Node19 -->
<g id="node19" class="node">
<title>Node19</title>
<g id="a_node19"><a xlink:href="EigenIO_8hpp.html" target="_top" xlink:title=" ">
<polygon fill="white" stroke="black" points="1446.5,-56.5 1446.5,-75.5 1545.5,-75.5 1545.5,-56.5 1446.5,-56.5"/>
<text text-anchor="middle" x="1496" y="-63.5" font-family="Helvetica,sans-Serif" font-size="10.00">utils/EigenIO.hpp</text>
</a>
</g>
</g>
<!-- Node16&#45;&gt;Node19 -->
<g id="edge23" class="edge">
<title>Node16&#45;&gt;Node19</title>
<path fill="none" stroke="midnightblue" d="M1397.54,-112.44C1416.62,-103.64 1446.57,-89.81 1468.44,-79.72"/>
<polygon fill="midnightblue" stroke="midnightblue" points="1469.93,-82.88 1477.55,-75.52 1467,-76.53 1469.93,-82.88"/>
</g>
<!-- Node19&#45;&gt;Node3 -->
<g id="edge24" class="edge">
<title>Node19&#45;&gt;Node3</title>
<path fill="none" stroke="midnightblue" d="M1446.47,-57.11C1443.27,-56.7 1440.09,-56.33 1437,-56 1172.06,-27.86 852.18,-15.91 735.95,-12.28"/>
<polygon fill="midnightblue" stroke="midnightblue" points="735.78,-8.78 725.67,-11.97 735.56,-15.77 735.78,-8.78"/>
</g>
<!-- Node20&#45;&gt;Node6 -->
<g id="edge31" class="edge">
<title>Node20&#45;&gt;Node6</title>
<path fill="none" stroke="midnightblue" d="M1151.98,-113.66C1147.26,-113.05 1142.54,-112.49 1138,-112 906.32,-87.25 846.98,-97.71 615,-76 601.12,-74.7 585.84,-72.95 572.65,-71.35"/>
<polygon fill="midnightblue" stroke="midnightblue" points="572.94,-67.85 562.59,-70.1 572.08,-74.8 572.94,-67.85"/>
</g>
<!-- Node20&#45;&gt;Node9 -->
<g id="edge29" class="edge">
<title>Node20&#45;&gt;Node9</title>
<path fill="none" stroke="midnightblue" d="M1151.97,-113.77C1147.25,-113.14 1142.54,-112.54 1138,-112 961.98,-91.24 749.76,-74.82 672.74,-69.15"/>
<polygon fill="midnightblue" stroke="midnightblue" points="672.61,-65.63 662.38,-68.39 672.1,-72.61 672.61,-65.63"/>
</g>
<!-- Node20&#45;&gt;Node14 -->
<g id="edge28" class="edge">
<title>Node20&#45;&gt;Node14</title>
<path fill="none" stroke="midnightblue" d="M1212.21,-112.32C1223.78,-104.11 1241.38,-91.6 1255.16,-81.81"/>
<polygon fill="midnightblue" stroke="midnightblue" points="1257.44,-84.48 1263.57,-75.83 1253.39,-78.77 1257.44,-84.48"/>
</g>
<!-- Node21 -->
<g id="node21" class="node">
<title>Node21</title>
<g id="a_node21"><a xlink:title=" ">
<polygon fill="white" stroke="#bfbfbf" points="1111,-56.5 1111,-75.5 1153,-75.5 1153,-56.5 1111,-56.5"/>
<text text-anchor="middle" x="1132" y="-63.5" font-family="Helvetica,sans-Serif" font-size="10.00">array</text>
</a>
</g>
</g>
<!-- Node20&#45;&gt;Node21 -->
<g id="edge26" class="edge">
<title>Node20&#45;&gt;Node21</title>
<path fill="none" stroke="midnightblue" d="M1189.07,-112.32C1178.83,-104.18 1163.28,-91.84 1151,-82.09"/>
<polygon fill="midnightblue" stroke="midnightblue" points="1153.13,-79.31 1143.12,-75.83 1148.78,-84.79 1153.13,-79.31"/>
</g>
<!-- Node22 -->
<g id="node22" class="node">
<title>Node22</title>
<g id="a_node22"><a xlink:title=" ">
<polygon fill="white" stroke="#bfbfbf" points="1171.5,-56.5 1171.5,-75.5 1218.5,-75.5 1218.5,-56.5 1171.5,-56.5"/>
<text text-anchor="middle" x="1195" y="-63.5" font-family="Helvetica,sans-Serif" font-size="10.00">deque</text>
</a>
</g>
</g>
<!-- Node20&#45;&gt;Node22 -->
<g id="edge27" class="edge">
<title>Node20&#45;&gt;Node22</title>
<path fill="none" stroke="midnightblue" d="M1199.17,-112.08C1198.52,-105.01 1197.58,-94.86 1196.76,-85.99"/>
<polygon fill="midnightblue" stroke="midnightblue" points="1200.22,-85.39 1195.81,-75.75 1193.25,-86.03 1200.22,-85.39"/>
</g>
<!-- Node23 -->
<g id="node23" class="node">
<title>Node23</title>
<g id="a_node23"><a xlink:title=" ">
<polygon fill="white" stroke="#bfbfbf" points="1061,-56.5 1061,-75.5 1093,-75.5 1093,-56.5 1061,-56.5"/>
<text text-anchor="middle" x="1077" y="-63.5" font-family="Helvetica,sans-Serif" font-size="10.00">set</text>
</a>
</g>
</g>
<!-- Node20&#45;&gt;Node23 -->
<g id="edge30" class="edge">
<title>Node20&#45;&gt;Node23</title>
<path fill="none" stroke="midnightblue" d="M1180.51,-112.44C1159.41,-103.18 1125.67,-88.37 1102.48,-78.19"/>
<polygon fill="midnightblue" stroke="midnightblue" points="1103.82,-74.95 1093.26,-74.14 1101.01,-81.36 1103.82,-74.95"/>
</g>
<!-- Node24&#45;&gt;Node12 -->
<g id="edge38" class="edge">
<title>Node24&#45;&gt;Node12</title>
<path fill="none" stroke="midnightblue" d="M672.58,-240.94C686.04,-238.85 700.55,-236.72 714,-235 873.94,-214.57 914.69,-216.29 1075,-199 1099.77,-196.33 1127.28,-193.16 1150.16,-190.47"/>
<polygon fill="midnightblue" stroke="midnightblue" points="1150.81,-193.92 1160.33,-189.27 1149.99,-186.96 1150.81,-193.92"/>
</g>
<!-- Node25 -->
<g id="node25" class="node">
<title>Node25</title>
<g id="a_node25"><a xlink:title=" ">
<polygon fill="white" stroke="#bfbfbf" points="828,-168.5 828,-198.5 938,-198.5 938,-168.5 828,-168.5"/>
<text text-anchor="start" x="836" y="-186.5" font-family="Helvetica,sans-Serif" font-size="10.00">boost/preprocessor</text>
<text text-anchor="middle" x="883" y="-175.5" font-family="Helvetica,sans-Serif" font-size="10.00">/control/if.hpp</text>
</a>
</g>
</g>
<!-- Node24&#45;&gt;Node25 -->
<g id="edge33" class="edge">
<title>Node24&#45;&gt;Node25</title>
<path fill="none" stroke="midnightblue" d="M655.52,-240.94C696.69,-230.72 766.37,-213.43 817.79,-200.68"/>
<polygon fill="midnightblue" stroke="midnightblue" points="818.96,-203.99 827.82,-198.19 817.27,-197.2 818.96,-203.99"/>
</g>
<!-- Node26 -->
<g id="node26" class="node">
<title>Node26</title>
<g id="a_node26"><a xlink:title=" ">
<polygon fill="white" stroke="#bfbfbf" points="698.5,-168.5 698.5,-198.5 809.5,-198.5 809.5,-168.5 698.5,-168.5"/>
<text text-anchor="start" x="706.5" y="-186.5" font-family="Helvetica,sans-Serif" font-size="10.00">boost/preprocessor</text>
<text text-anchor="middle" x="754" y="-175.5" font-family="Helvetica,sans-Serif" font-size="10.00">/seq/for_each_i.hpp</text>
</a>
</g>
</g>
<!-- Node24&#45;&gt;Node26 -->
<g id="edge34" class="edge">
<title>Node24&#45;&gt;Node26</title>
<path fill="none" stroke="midnightblue" d="M638.66,-240.87C658.36,-231.24 690.8,-215.39 716.27,-202.94"/>
<polygon fill="midnightblue" stroke="midnightblue" points="717.85,-206.06 725.3,-198.53 714.78,-199.77 717.85,-206.06"/>
</g>
<!-- Node27 -->
<g id="node27" class="node">
<title>Node27</title>
<g id="a_node27"><a xlink:title=" ">
<polygon fill="white" stroke="#bfbfbf" points="956,-168.5 956,-198.5 1066,-198.5 1066,-168.5 956,-168.5"/>
<text text-anchor="start" x="964" y="-186.5" font-family="Helvetica,sans-Serif" font-size="10.00">boost/preprocessor</text>
<text text-anchor="middle" x="1011" y="-175.5" font-family="Helvetica,sans-Serif" font-size="10.00">/stringize.hpp</text>
</a>
</g>
</g>
<!-- Node24&#45;&gt;Node27 -->
<g id="edge35" class="edge">
<title>Node24&#45;&gt;Node27</title>
<path fill="none" stroke="midnightblue" d="M675.58,-240.98C688.2,-239.01 701.57,-236.93 714,-235 814.41,-219.42 842.39,-218.62 945.97,-199.12"/>
<polygon fill="midnightblue" stroke="midnightblue" points="946.72,-202.54 955.89,-197.24 945.42,-195.66 946.72,-202.54"/>
</g>
<!-- Node28 -->
<g id="node28" class="node">
<title>Node28</title>
<g id="a_node28"><a xlink:title=" ">
<polygon fill="white" stroke="#bfbfbf" points="410.5,-168.5 410.5,-198.5 525.5,-198.5 525.5,-168.5 410.5,-168.5"/>
<text text-anchor="start" x="418.5" y="-186.5" font-family="Helvetica,sans-Serif" font-size="10.00">boost/preprocessor</text>
<text text-anchor="middle" x="468" y="-175.5" font-family="Helvetica,sans-Serif" font-size="10.00">/variadic/to_seq.hpp</text>
</a>
</g>
</g>
<!-- Node24&#45;&gt;Node28 -->
<g id="edge36" class="edge">
<title>Node24&#45;&gt;Node28</title>
<path fill="none" stroke="midnightblue" d="M600.68,-240.87C577.72,-231.12 539.72,-214.97 510.26,-202.45"/>
<polygon fill="midnightblue" stroke="midnightblue" points="511.59,-199.22 501.02,-198.53 508.86,-205.66 511.59,-199.22"/>
</g>
<!-- Node29 -->
<g id="node29" class="node">
<title>Node29</title>
<g id="a_node29"><a xlink:title=" ">
<polygon fill="white" stroke="#bfbfbf" points="544,-174 544,-193 680,-193 680,-174 544,-174"/>
<text text-anchor="middle" x="612" y="-181" font-family="Helvetica,sans-Serif" font-size="10.00">boost/vmd/is_empty.hpp</text>
</a>
</g>
</g>
<!-- Node24&#45;&gt;Node29 -->
<g id="edge37" class="edge">
<title>Node24&#45;&gt;Node29</title>
<path fill="none" stroke="midnightblue" d="M619.79,-240.73C618.46,-231.18 616.31,-215.62 614.6,-203.28"/>
<polygon fill="midnightblue" stroke="midnightblue" points="618.03,-202.55 613.19,-193.13 611.1,-203.51 618.03,-202.55"/>
</g>
<!-- Node30&#45;&gt;Node31 -->
<g id="edge40" class="edge">
<title>Node30&#45;&gt;Node31</title>
<path fill="none" stroke="midnightblue" d="M456.49,-240.73C437.09,-229.77 403.67,-210.88 380.97,-198.05"/>
<polygon fill="midnightblue" stroke="midnightblue" points="382.69,-195 372.26,-193.13 379.25,-201.09 382.69,-195"/>
</g>
<!-- Node31&#45;&gt;Node10 -->
<g id="edge41" class="edge">
<title>Node31&#45;&gt;Node10</title>
<path fill="none" stroke="midnightblue" d="M357,-173.98C357,-165.58 357,-152.48 357,-141.66"/>
<polygon fill="midnightblue" stroke="midnightblue" points="360.5,-141.51 357,-131.51 353.5,-141.51 360.5,-141.51"/>
</g>
<!-- Node31&#45;&gt;Node11 -->
<g id="edge43" class="edge">
<title>Node31&#45;&gt;Node11</title>
<path fill="none" stroke="midnightblue" d="M360.37,-193C367.33,-209.5 384.86,-245.98 411,-266 432.64,-282.58 460.71,-293.23 485.64,-299.98"/>
<polygon fill="midnightblue" stroke="midnightblue" points="484.83,-303.38 495.39,-302.46 486.56,-296.6 484.83,-303.38"/>
</g>
<!-- Node31&#45;&gt;Node13 -->
<g id="edge42" class="edge">
<title>Node31&#45;&gt;Node13</title>
<path fill="none" stroke="midnightblue" d="M380.09,-173.94C387.04,-171.66 394.75,-169.44 402,-168 586.85,-131.21 812.18,-124.37 908.13,-123.19"/>
<polygon fill="midnightblue" stroke="midnightblue" points="908.4,-126.69 918.37,-123.08 908.33,-119.69 908.4,-126.69"/>
</g>
<!-- Node32&#45;&gt;Node12 -->
<g id="edge49" class="edge">
<title>Node32&#45;&gt;Node12</title>
<path fill="none" stroke="midnightblue" d="M945.21,-302.5C929.28,-295.41 909.54,-283.61 900,-266 893.44,-253.89 891.1,-245.52 900,-235 902.02,-232.61 1065.93,-206.01 1150.58,-192.41"/>
<polygon fill="midnightblue" stroke="midnightblue" points="1151.17,-195.86 1160.49,-190.82 1150.06,-188.95 1151.17,-195.86"/>
</g>
<!-- Node32&#45;&gt;Node13 -->
<g id="edge48" class="edge">
<title>Node32&#45;&gt;Node13</title>
<path fill="none" stroke="midnightblue" d="M939.12,-302.39C921.46,-295.59 900.55,-284.15 890,-266 883.08,-254.09 881.24,-245.63 890,-235 943.27,-170.36 1021.73,-263.64 1075,-199 1083.76,-188.37 1082.85,-179.32 1075,-168 1066.06,-155.1 1030.54,-142.76 1000.45,-134.27"/>
<polygon fill="midnightblue" stroke="midnightblue" points="1001.06,-130.81 990.49,-131.54 999.22,-137.56 1001.06,-130.81"/>
</g>
<!-- Node32&#45;&gt;Node24 -->
<g id="edge55" class="edge">
<title>Node32&#45;&gt;Node24</title>
<path fill="none" stroke="midnightblue" d="M919.14,-302.48C856.22,-291.72 748.1,-273.23 680.8,-261.72"/>
<polygon fill="midnightblue" stroke="midnightblue" points="681.21,-258.24 670.77,-260.01 680.03,-265.14 681.21,-258.24"/>
</g>
<!-- Node32&#45;&gt;Node25 -->
<g id="edge52" class="edge">
<title>Node32&#45;&gt;Node25</title>
<path fill="none" stroke="midnightblue" d="M915.25,-310.41C881.2,-306.89 839.48,-296.1 817,-266 800.89,-244.43 825.4,-220.59 848.99,-204.3"/>
<polygon fill="midnightblue" stroke="midnightblue" points="851.13,-207.08 857.56,-198.66 847.28,-201.23 851.13,-207.08"/>
</g>
<!-- Node32&#45;&gt;Node27 -->
<g id="edge53" class="edge">
<title>Node32&#45;&gt;Node27</title>
<path fill="none" stroke="midnightblue" d="M915.82,-302.48C865.21,-292.01 800.54,-271.06 828,-235 831.77,-230.04 894.97,-213.31 946.05,-200.46"/>
<polygon fill="midnightblue" stroke="midnightblue" points="946.91,-203.85 955.76,-198.02 945.21,-197.06 946.91,-203.85"/>
</g>
<!-- Node33 -->
<g id="node33" class="node">
<title>Node33</title>
<g id="a_node33"><a xlink:title=" ">
<polygon fill="white" stroke="#bfbfbf" points="908.5,-241 908.5,-260 957.5,-260 957.5,-241 908.5,-241"/>
<text text-anchor="middle" x="933" y="-248" font-family="Helvetica,sans-Serif" font-size="10.00">cstdlib</text>
</a>
</g>
</g>
<!-- Node32&#45;&gt;Node33 -->
<g id="edge46" class="edge">
<title>Node32&#45;&gt;Node33</title>
<path fill="none" stroke="midnightblue" d="M963.84,-302.48C958.55,-293.73 950.16,-279.87 943.47,-268.81"/>
<polygon fill="midnightblue" stroke="midnightblue" points="946.32,-266.75 938.15,-260.01 940.33,-270.38 946.32,-266.75"/>
</g>
<!-- Node34 -->
<g id="node34" class="node">
<title>Node34</title>
<g id="a_node34"><a xlink:title=" ">
<polygon fill="white" stroke="#bfbfbf" points="976,-241 976,-260 1036,-260 1036,-241 976,-241"/>
<text text-anchor="middle" x="1006" y="-248" font-family="Helvetica,sans-Serif" font-size="10.00">iostream</text>
</a>
</g>
</g>
<!-- Node32&#45;&gt;Node34 -->
<g id="edge47" class="edge">
<title>Node32&#45;&gt;Node34</title>
<path fill="none" stroke="midnightblue" d="M974.3,-302.48C979.74,-293.73 988.36,-279.87 995.24,-268.81"/>
<polygon fill="midnightblue" stroke="midnightblue" points="998.4,-270.35 1000.71,-260.01 992.46,-266.65 998.4,-270.35"/>
</g>
<!-- Node35 -->
<g id="node35" class="node">
<title>Node35</title>
<g id="a_node35"><a xlink:title=" ">
<polygon fill="white" stroke="#bfbfbf" points="1054.5,-241 1054.5,-260 1201.5,-260 1201.5,-241 1054.5,-241"/>
<text text-anchor="middle" x="1128" y="-248" font-family="Helvetica,sans-Serif" font-size="10.00">boost/current_function.hpp</text>
</a>
</g>
</g>
<!-- Node32&#45;&gt;Node35 -->
<g id="edge50" class="edge">
<title>Node32&#45;&gt;Node35</title>
<path fill="none" stroke="midnightblue" d="M991.78,-302.48C1019.05,-292.27 1064.91,-275.11 1095.8,-263.55"/>
<polygon fill="midnightblue" stroke="midnightblue" points="1097.12,-266.79 1105.26,-260.01 1094.67,-260.24 1097.12,-266.79"/>
</g>
<!-- Node36 -->
<g id="node36" class="node">
<title>Node36</title>
<g id="a_node36"><a xlink:title=" ">
<polygon fill="white" stroke="#bfbfbf" points="1219.5,-235.5 1219.5,-265.5 1354.5,-265.5 1354.5,-235.5 1219.5,-235.5"/>
<text text-anchor="start" x="1227.5" y="-253.5" font-family="Helvetica,sans-Serif" font-size="10.00">boost/preprocessor</text>
<text text-anchor="middle" x="1287" y="-242.5" font-family="Helvetica,sans-Serif" font-size="10.00">/comparison/greater.hpp</text>
</a>
</g>
</g>
<!-- Node32&#45;&gt;Node36 -->
<g id="edge51" class="edge">
<title>Node32&#45;&gt;Node36</title>
<path fill="none" stroke="midnightblue" d="M1015.41,-302.44C1062.04,-293.82 1136.25,-280.06 1209.59,-266.26"/>
<polygon fill="midnightblue" stroke="midnightblue" points="1210.28,-269.69 1219.46,-264.4 1208.98,-262.81 1210.28,-269.69"/>
</g>
<!-- Node37 -->
<g id="node37" class="node">
<title>Node37</title>
<g id="a_node37"><a xlink:title=" ">
<polygon fill="white" stroke="#bfbfbf" points="1373,-235.5 1373,-265.5 1483,-265.5 1483,-235.5 1373,-235.5"/>
<text text-anchor="start" x="1381" y="-253.5" font-family="Helvetica,sans-Serif" font-size="10.00">boost/preprocessor</text>
<text text-anchor="middle" x="1428" y="-242.5" font-family="Helvetica,sans-Serif" font-size="10.00">/variadic/size.hpp</text>
</a>
</g>
</g>
<!-- Node32&#45;&gt;Node37 -->
<g id="edge54" class="edge">
<title>Node32&#45;&gt;Node37</title>
<path fill="none" stroke="midnightblue" d="M1022.61,-306.77C1096.89,-300.48 1235.44,-287.28 1362.97,-266.06"/>
<polygon fill="midnightblue" stroke="midnightblue" points="1363.64,-269.49 1372.92,-264.38 1362.48,-262.59 1363.64,-269.49"/>
</g>
<!-- Node38 -->
<g id="node38" class="node">
<title>Node38</title>
<g id="a_node38"><a xlink:href="Parallel_8hpp.html" target="_top" xlink:title=" ">
<polygon fill="white" stroke="black" points="1501,-241 1501,-260 1599,-260 1599,-241 1501,-241"/>
<text text-anchor="middle" x="1550" y="-248" font-family="Helvetica,sans-Serif" font-size="10.00">utils/Parallel.hpp</text>
</a>
</g>
</g>
<!-- Node32&#45;&gt;Node38 -->
<g id="edge56" class="edge">
<title>Node32&#45;&gt;Node38</title>
<path fill="none" stroke="midnightblue" d="M1022.81,-309.19C1118.01,-305.37 1322.11,-294.36 1492,-266 1497.84,-265.03 1503.95,-263.77 1509.93,-262.4"/>
<polygon fill="midnightblue" stroke="midnightblue" points="1510.89,-265.77 1519.79,-260.02 1509.25,-258.96 1510.89,-265.77"/>
</g>
<!-- Node43 -->
<g id="node43" class="node">
<title>Node43</title>
<g id="a_node43"><a xlink:href="stacktrace_8hpp.html" target="_top" xlink:title=" ">
<polygon fill="white" stroke="black" points="1687.5,-241 1687.5,-260 1800.5,-260 1800.5,-241 1687.5,-241"/>
<text text-anchor="middle" x="1744" y="-248" font-family="Helvetica,sans-Serif" font-size="10.00">utils/stacktrace.hpp</text>
</a>
</g>
</g>
<!-- Node32&#45;&gt;Node43 -->
<g id="edge65" class="edge">
<title>Node32&#45;&gt;Node43</title>
<path fill="none" stroke="midnightblue" d="M1022.65,-310.39C1141.35,-308.42 1434.95,-300.21 1678,-266 1685.19,-264.99 1692.76,-263.62 1700.1,-262.12"/>
<polygon fill="midnightblue" stroke="midnightblue" points="1700.88,-265.54 1709.92,-260.03 1699.41,-258.69 1700.88,-265.54"/>
</g>
<!-- Node44 -->
<g id="node44" class="node">
<title>Node44</title>
<g id="a_node44"><a xlink:title=" ">
<polygon fill="white" stroke="#bfbfbf" points="1617,-241 1617,-260 1669,-260 1669,-241 1617,-241"/>
<text text-anchor="middle" x="1643" y="-248" font-family="Helvetica,sans-Serif" font-size="10.00">cassert</text>
</a>
</g>
</g>
<!-- Node32&#45;&gt;Node44 -->
<g id="edge67" class="edge">
<title>Node32&#45;&gt;Node44</title>
<path fill="none" stroke="midnightblue" d="M1022.74,-309.44C1155.71,-305.21 1497.32,-292.09 1608,-266 1610.67,-265.37 1613.4,-264.56 1616.09,-263.65"/>
<polygon fill="midnightblue" stroke="midnightblue" points="1617.48,-266.87 1625.56,-260.02 1614.97,-260.33 1617.48,-266.87"/>
</g>
<!-- Node38&#45;&gt;Node5 -->
<g id="edge60" class="edge">
<title>Node38&#45;&gt;Node5</title>
<path fill="none" stroke="midnightblue" d="M1588.08,-240.95C1614.75,-233.45 1649.96,-220.32 1675,-199 1693.48,-183.27 1706.62,-158.17 1714,-141.15"/>
<polygon fill="midnightblue" stroke="midnightblue" points="1717.3,-142.34 1717.85,-131.76 1710.82,-139.69 1717.3,-142.34"/>
</g>
<!-- Node38&#45;&gt;Node6 -->
<g id="edge61" class="edge">
<title>Node38&#45;&gt;Node6</title>
<path fill="none" stroke="midnightblue" d="M1515.8,-240.95C1463.19,-227.77 1366.8,-203.54 1351,-199 1327.67,-192.29 1165.38,-141.41 1143,-132 1125.41,-124.6 1123.35,-117.25 1105,-112 895.07,-51.88 832.37,-96.84 615,-76 601.12,-74.67 585.85,-72.92 572.66,-71.31"/>
<polygon fill="midnightblue" stroke="midnightblue" points="572.95,-67.82 562.59,-70.07 572.09,-74.77 572.95,-67.82"/>
</g>
<!-- Node38&#45;&gt;Node10 -->
<g id="edge58" class="edge">
<title>Node38&#45;&gt;Node10</title>
<path fill="none" stroke="midnightblue" d="M1519.17,-240.94C1510.44,-238.75 1500.89,-236.57 1492,-235 1342.37,-208.51 1299.45,-235.73 1152,-199 1116.2,-190.08 1110.98,-176.15 1075,-168 944.08,-138.36 526.79,-126.77 396.35,-123.81"/>
<polygon fill="midnightblue" stroke="midnightblue" points="396.12,-120.31 386.04,-123.58 395.96,-127.31 396.12,-120.31"/>
</g>
<!-- Node38&#45;&gt;Node31 -->
<g id="edge62" class="edge">
<title>Node38&#45;&gt;Node31</title>
<path fill="none" stroke="midnightblue" d="M1521.03,-240.98C1511.83,-238.62 1501.56,-236.34 1492,-235 1011.97,-167.84 879.53,-282.13 402,-199 397.82,-198.27 393.48,-197.24 389.24,-196.07"/>
<polygon fill="midnightblue" stroke="midnightblue" points="390.17,-192.7 379.58,-193.13 388.13,-199.39 390.17,-192.7"/>
</g>
<!-- Node39 -->
<g id="node39" class="node">
<title>Node39</title>
<g id="a_node39"><a xlink:title=" ">
<polygon fill="white" stroke="#bfbfbf" points="1360,-174 1360,-193 1408,-193 1408,-174 1360,-174"/>
<text text-anchor="middle" x="1384" y="-181" font-family="Helvetica,sans-Serif" font-size="10.00">iosfwd</text>
</a>
</g>
</g>
<!-- Node38&#45;&gt;Node39 -->
<g id="edge57" class="edge">
<title>Node38&#45;&gt;Node39</title>
<path fill="none" stroke="midnightblue" d="M1526.31,-240.92C1499.6,-231.15 1454.95,-214.53 1417,-199 1415.59,-198.42 1414.15,-197.82 1412.69,-197.21"/>
<polygon fill="midnightblue" stroke="midnightblue" points="1413.69,-193.83 1403.12,-193.1 1410.93,-200.26 1413.69,-193.83"/>
</g>
<!-- Node40 -->
<g id="node40" class="node">
<title>Node40</title>
<g id="a_node40"><a xlink:title=" ">
<polygon fill="white" stroke="#bfbfbf" points="1426,-174 1426,-193 1482,-193 1482,-174 1426,-174"/>
<text text-anchor="middle" x="1454" y="-181" font-family="Helvetica,sans-Serif" font-size="10.00">optional</text>
</a>
</g>
</g>
<!-- Node38&#45;&gt;Node40 -->
<g id="edge59" class="edge">
<title>Node38&#45;&gt;Node40</title>
<path fill="none" stroke="midnightblue" d="M1537.05,-240.73C1521.15,-229.96 1493.95,-211.55 1475.03,-198.74"/>
<polygon fill="midnightblue" stroke="midnightblue" points="1476.98,-195.84 1466.74,-193.13 1473.06,-201.63 1476.98,-195.84"/>
</g>
<!-- Node41 -->
<g id="node41" class="node">
<title>Node41</title>
<g id="a_node41"><a xlink:href="types_8hpp.html" target="_top" xlink:title=" ">
<polygon fill="white" stroke="black" points="1500.5,-174 1500.5,-193 1603.5,-193 1603.5,-174 1500.5,-174"/>
<text text-anchor="middle" x="1552" y="-181" font-family="Helvetica,sans-Serif" font-size="10.00">precice/types.hpp</text>
</a>
</g>
</g>
<!-- Node38&#45;&gt;Node41 -->
<g id="edge63" class="edge">
<title>Node38&#45;&gt;Node41</title>
<path fill="none" stroke="midnightblue" d="M1550.27,-240.73C1550.56,-231.18 1551.04,-215.62 1551.42,-203.28"/>
<polygon fill="midnightblue" stroke="midnightblue" points="1554.93,-203.23 1551.73,-193.13 1547.93,-203.01 1554.93,-203.23"/>
</g>
<!-- Node42 -->
<g id="node42" class="node">
<title>Node42</title>
<g id="a_node42"><a xlink:title=" ">
<polygon fill="white" stroke="#bfbfbf" points="1622,-174 1622,-193 1666,-193 1666,-174 1622,-174"/>
<text text-anchor="middle" x="1644" y="-181" font-family="Helvetica,sans-Serif" font-size="10.00">mpi.h</text>
</a>
</g>
</g>
<!-- Node38&#45;&gt;Node42 -->
<g id="edge64" class="edge">
<title>Node38&#45;&gt;Node42</title>
<path fill="none" stroke="midnightblue" d="M1562.68,-240.73C1578.18,-230.01 1604.64,-211.72 1623.16,-198.91"/>
<polygon fill="midnightblue" stroke="midnightblue" points="1625.29,-201.69 1631.52,-193.13 1621.31,-195.94 1625.29,-201.69"/>
</g>
<!-- Node43&#45;&gt;Node5 -->
<g id="edge66" class="edge">
<title>Node43&#45;&gt;Node5</title>
<path fill="none" stroke="midnightblue" d="M1742.42,-240.81C1738.73,-220.49 1729.46,-169.55 1724.41,-141.78"/>
<polygon fill="midnightblue" stroke="midnightblue" points="1727.82,-140.97 1722.59,-131.76 1720.94,-142.22 1727.82,-140.97"/>
</g>
</g>
</svg>
        <g id="navigator" transform="translate(0 0)" fill="#404254">
                <rect fill="#f2f5e9" fill-opacity="0.5" stroke="#606060" stroke-width=".5" x="0" y="0" width="60" height="60"/>
                <use id="zoomplus" xlink:href="#zoomPlus" x="17" y="9" onmousedown="handleZoom(evt,'in')"/>
                <use id="zoomminus" xlink:href="#zoomMin" x="42" y="9" onmousedown="handleZoom(evt,'out')"/>
                <use id="reset" xlink:href="#resetDef" x="30" y="36" onmousedown="handleReset()"/>
                <g id="arrowUp" xlink:href="#dirArrow" transform="translate(30 24)" onmousedown="handlePan(0,-1)">
                  <use xlink:href="#rim" fill="#404040">
                        <set attributeName="fill" to="#808080" begin="arrowUp.mouseover" end="arrowUp.mouseout"/>
                  </use>
                  <path fill="none" stroke="white" stroke-width="1.5" d="M0,-3.0v7 M-2.5,-0.5L0,-3.0L2.5,-0.5"/>
                </g>
                <g id="arrowRight" xlink:href="#dirArrow" transform="rotate(90) translate(36 -43)" onmousedown="handlePan(1,0)">
                  <use xlink:href="#rim" fill="#404040">
                        <set attributeName="fill" to="#808080" begin="arrowRight.mouseover" end="arrowRight.mouseout"/>
                  </use>
                  <path fill="none" stroke="white" stroke-width="1.5" d="M0,-3.0v7 M-2.5,-0.5L0,-3.0L2.5,-0.5"/>
                </g>
                <g id="arrowDown" xlink:href="#dirArrow" transform="rotate(180) translate(-30 -48)" onmousedown="handlePan(0,1)">
                  <use xlink:href="#rim" fill="#404040">
                        <set attributeName="fill" to="#808080" begin="arrowDown.mouseover" end="arrowDown.mouseout"/>
                  </use>
                  <path fill="none" stroke="white" stroke-width="1.5" d="M0,-3.0v7 M-2.5,-0.5L0,-3.0L2.5,-0.5"/>
                </g>
                <g id="arrowLeft" xlink:href="#dirArrow" transform="rotate(270) translate(-36 17)" onmousedown="handlePan(-1,0)">
                  <use xlink:href="#rim" fill="#404040">
                        <set attributeName="fill" to="#808080" begin="arrowLeft.mouseover" end="arrowLeft.mouseout"/>
                  </use>
                  <path fill="none" stroke="white" stroke-width="1.5" d="M0,-3.0v7 M-2.5,-0.5L0,-3.0L2.5,-0.5"/>
                </g>
        </g>
        <svg viewBox="0 0 15 15" width="100%" height="30px" preserveAspectRatio="xMaxYMin meet">
         <g id="arrow_out" transform="scale(0.3 0.3)">
          <a xlink:href="ConstantPreconditioner_8cpp__incl_org.svg" target="_base">
           <rect id="button" ry="5" rx="5" y="6" x="6" height="38" width="38"
                fill="#f2f5e9" fill-opacity="0.5" stroke="#606060" stroke-width="1.0"/>
           <path id="arrow"
             d="M 11.500037,31.436501 C 11.940474,20.09759 22.043105,11.32322 32.158766,21.979434 L 37.068811,17.246167 C 37.068811,17.246167 37.088388,32 37.088388,32 L 22.160133,31.978069 C 22.160133,31.978069 26.997745,27.140456 26.997745,27.140456 C 18.528582,18.264221 13.291696,25.230495 11.500037,31.436501 z"
             style="fill:#404040;"/>
          </a>
         </g>
        </svg>
</svg>
