<?xml version="1.0" encoding="UTF-8" standalone="no"?>
<!DOCTYPE svg PUBLIC "-//W3C//DTD SVG 1.1//EN"
 "http://www.w3.org/Graphics/SVG/1.1/DTD/svg11.dtd">
<!-- Generated by graphviz version 2.43.0 (0)
 -->
<!-- Title: src/acceleration/impl/ConstantPreconditioner.hpp Pages: 1 -->
<!--zoomable 453 -->
<svg id="main" version="1.1" xmlns="http://www.w3.org/2000/svg" xmlns:xlink="http://www.w3.org/1999/xlink" xml:space="preserve" onload="init(evt)">
<style type="text/css"><![CDATA[
.edge:hover path { stroke: red; }
.edge:hover polygon { stroke: red; fill: red; }
]]></style>
<script type="text/javascript"><![CDATA[
var edges = document.getElementsByTagName('g');
if (edges && edges.length) {
  for (var i=0;i<edges.length;i++) {
    if (edges[i].id.substr(0,4)=='edge') {
      edges[i].setAttribute('class','edge');
    }
  }
}
]]></script>
        <defs>
                <circle id="rim" cx="0" cy="0" r="7"/>
                <circle id="rim2" cx="0" cy="0" r="3.5"/>
                <g id="zoomPlus">
                        <use xlink:href="#rim" fill="#404040">
                                <set attributeName="fill" to="#808080" begin="zoomplus.mouseover" end="zoomplus.mouseout"/>
                        </use>
                        <path d="M-4,0h8M0,-4v8" fill="none" stroke="white" stroke-width="1.5" pointer-events="none"/>
                </g>
                <g id="zoomMin">
                        <use xlink:href="#rim" fill="#404040">
                                <set attributeName="fill" to="#808080" begin="zoomminus.mouseover" end="zoomminus.mouseout"/>
                        </use>
                        <path d="M-4,0h8" fill="none" stroke="white" stroke-width="1.5" pointer-events="none"/>
                </g>
                <g id="dirArrow">
                        <path fill="none" stroke="white" stroke-width="1.5" d="M0,-3.0v7 M-2.5,-0.5L0,-3.0L2.5,-0.5"/>
                </g>
               <g id="resetDef">
                       <use xlink:href="#rim2" fill="#404040">
                               <set attributeName="fill" to="#808080" begin="reset.mouseover" end="reset.mouseout"/>
                       </use>
               </g>
        </defs>

<script type="text/javascript">
var viewWidth = 1809;
var viewHeight = 453;
var sectionId = 'dynsection-0';
</script>
<script xlink:href="svgpan.js"/>
<svg id="graph" class="graph">
<g id="viewport">
<title>src/acceleration/impl/ConstantPreconditioner.hpp</title>
<polygon fill="white" stroke="transparent" points="-4,4 -4,-449 1805,-449 1805,4 -4,4"/>
<!-- Node1 -->
<g id="node1" class="node">
<title>Node1</title>
<g id="a_node1"><a xlink:title=" ">
<polygon fill="#bfbfbf" stroke="black" points="1539,-414.5 1539,-444.5 1693,-444.5 1693,-414.5 1539,-414.5"/>
<text text-anchor="start" x="1547" y="-432.5" font-family="Helvetica,sans-Serif" font-size="10.00">src/acceleration/impl</text>
<text text-anchor="middle" x="1616" y="-421.5" font-family="Helvetica,sans-Serif" font-size="10.00">/ConstantPreconditioner.hpp</text>
</a>
</g>
</g>
<!-- Node2 -->
<g id="node2" class="node">
<title>Node2</title>
<g id="a_node2"><a xlink:title=" ">
<polygon fill="white" stroke="#bfbfbf" points="120.5,-0.5 120.5,-19.5 189.5,-19.5 189.5,-0.5 120.5,-0.5"/>
<text text-anchor="middle" x="155" y="-7.5" font-family="Helvetica,sans-Serif" font-size="10.00">Eigen/Core</text>
</a>
</g>
</g>
<!-- Node1&#45;&gt;Node2 -->
<g id="edge1" class="edge">
<title>Node1&#45;&gt;Node2</title>
<path fill="none" stroke="midnightblue" d="M1538.69,-426.9C1300.49,-421.73 579.79,-404.29 347,-378 191.09,-360.39 0,-469.9 0,-313 0,-313 0,-313 0,-121 0,-66.43 64.68,-36.46 110.47,-22.08"/>
<polygon fill="midnightblue" stroke="midnightblue" points="111.64,-25.39 120.21,-19.16 109.63,-18.68 111.64,-25.39"/>
</g>
<!-- Node3 -->
<g id="node3" class="node">
<title>Node3</title>
<g id="a_node3"><a xlink:title=" ">
<polygon fill="white" stroke="#bfbfbf" points="1745,-358.5 1745,-377.5 1801,-377.5 1801,-358.5 1745,-358.5"/>
<text text-anchor="middle" x="1773" y="-365.5" font-family="Helvetica,sans-Serif" font-size="10.00">stddef.h</text>
</a>
</g>
</g>
<!-- Node1&#45;&gt;Node3 -->
<g id="edge2" class="edge">
<title>Node1&#45;&gt;Node3</title>
<path fill="none" stroke="midnightblue" d="M1653.21,-414.4C1679.78,-404.33 1715.19,-390.91 1740.61,-381.28"/>
<polygon fill="midnightblue" stroke="midnightblue" points="1742.04,-384.47 1750.16,-377.66 1739.56,-377.93 1742.04,-384.47"/>
</g>
<!-- Node4 -->
<g id="node4" class="node">
<title>Node4</title>
<g id="a_node4"><a xlink:title=" ">
<polygon fill="white" stroke="#bfbfbf" points="1344,-112.5 1344,-131.5 1388,-131.5 1388,-112.5 1344,-112.5"/>
<text text-anchor="middle" x="1366" y="-119.5" font-family="Helvetica,sans-Serif" font-size="10.00">string</text>
</a>
</g>
</g>
<!-- Node1&#45;&gt;Node4 -->
<g id="edge3" class="edge">
<title>Node1&#45;&gt;Node4</title>
<path fill="none" stroke="midnightblue" d="M1630.93,-414.24C1640.14,-404.73 1651.58,-391.53 1659,-378 1673.54,-351.5 1679,-343.23 1679,-313 1679,-313 1679,-313 1679,-249.5 1679,-193.53 1633.29,-192.55 1583,-168 1521.99,-138.21 1441.99,-128.11 1398.17,-124.71"/>
<polygon fill="midnightblue" stroke="midnightblue" points="1398.31,-121.21 1388.09,-123.99 1397.82,-128.19 1398.31,-121.21"/>
</g>
<!-- Node5 -->
<g id="node5" class="node">
<title>Node5</title>
<g id="a_node5"><a xlink:title=" ">
<polygon fill="white" stroke="#bfbfbf" points="1376.5,-56.5 1376.5,-75.5 1423.5,-75.5 1423.5,-56.5 1376.5,-56.5"/>
<text text-anchor="middle" x="1400" y="-63.5" font-family="Helvetica,sans-Serif" font-size="10.00">vector</text>
</a>
</g>
</g>
<!-- Node1&#45;&gt;Node5 -->
<g id="edge4" class="edge">
<title>Node1&#45;&gt;Node5</title>
<path fill="none" stroke="midnightblue" d="M1640.97,-414.48C1670.88,-395.63 1717,-359.08 1717,-313 1717,-313 1717,-313 1717,-249.5 1717,-119.9 1515.53,-80.95 1433.82,-70.48"/>
<polygon fill="midnightblue" stroke="midnightblue" points="1433.92,-66.97 1423.57,-69.24 1433.07,-73.92 1433.92,-66.97"/>
</g>
<!-- Node6 -->
<g id="node6" class="node">
<title>Node6</title>
<g id="a_node6"><a xlink:href="Preconditioner_8hpp.html" target="_top" xlink:title=" ">
<polygon fill="white" stroke="black" points="1455.5,-358.5 1455.5,-377.5 1650.5,-377.5 1650.5,-358.5 1455.5,-358.5"/>
<text text-anchor="middle" x="1553" y="-365.5" font-family="Helvetica,sans-Serif" font-size="10.00">acceleration/impl/Preconditioner.hpp</text>
</a>
</g>
</g>
<!-- Node1&#45;&gt;Node6 -->
<g id="edge5" class="edge">
<title>Node1&#45;&gt;Node6</title>
<path fill="none" stroke="midnightblue" d="M1601.07,-414.4C1591.63,-405.49 1579.42,-393.95 1569.67,-384.74"/>
<polygon fill="midnightblue" stroke="midnightblue" points="1571.84,-381.98 1562.17,-377.66 1567.03,-387.07 1571.84,-381.98"/>
</g>
<!-- Node30 -->
<g id="node30" class="node">
<title>Node30</title>
<g id="a_node30"><a xlink:href="Logger_8hpp.html" target="_top" xlink:title=" ">
<polygon fill="white" stroke="black" points="41,-174 41,-193 111,-193 111,-174 41,-174"/>
<text text-anchor="middle" x="76" y="-181" font-family="Helvetica,sans-Serif" font-size="10.00">Logger.hpp</text>
</a>
</g>
</g>
<!-- Node1&#45;&gt;Node30 -->
<g id="edge67" class="edge">
<title>Node1&#45;&gt;Node30</title>
<path fill="none" stroke="midnightblue" d="M1538.93,-426.05C1253.6,-416.56 267.06,-379.84 139,-322 106.63,-307.38 96.93,-298.22 82,-266 72.79,-246.13 72.51,-220.59 73.73,-203.44"/>
<polygon fill="midnightblue" stroke="midnightblue" points="77.26,-203.37 74.73,-193.08 70.29,-202.7 77.26,-203.37"/>
</g>
<!-- Node6&#45;&gt;Node2 -->
<g id="edge6" class="edge">
<title>Node6&#45;&gt;Node2</title>
<path fill="none" stroke="midnightblue" d="M1566.19,-358.19C1577.33,-350.06 1592.9,-337.01 1602,-322 1637.64,-263.19 1633.27,-234.82 1617,-168 1594.25,-74.61 1526.39,-74.15 1432,-56 1188.55,-9.2 396.84,-9.82 199.75,-10.73"/>
<polygon fill="midnightblue" stroke="midnightblue" points="199.73,-7.23 189.74,-10.78 199.76,-14.23 199.73,-7.23"/>
</g>
<!-- Node6&#45;&gt;Node5 -->
<g id="edge7" class="edge">
<title>Node6&#45;&gt;Node5</title>
<path fill="none" stroke="midnightblue" d="M1559.74,-358.28C1573.39,-339.74 1603,-294.55 1603,-251.5 1603,-251.5 1603,-251.5 1603,-182.5 1603,-105.58 1491.54,-79.24 1433.8,-70.75"/>
<polygon fill="midnightblue" stroke="midnightblue" points="1434.07,-67.26 1423.68,-69.37 1433.12,-74.19 1434.07,-67.26"/>
</g>
<!-- Node7 -->
<g id="node7" class="node">
<title>Node7</title>
<g id="a_node7"><a xlink:href="cplscheme_2SharedPointer_8hpp.html" target="_top" xlink:title=" ">
<polygon fill="white" stroke="black" points="1413.5,-174 1413.5,-193 1574.5,-193 1574.5,-174 1413.5,-174"/>
<text text-anchor="middle" x="1494" y="-181" font-family="Helvetica,sans-Serif" font-size="10.00">cplscheme/SharedPointer.hpp</text>
</a>
</g>
</g>
<!-- Node6&#45;&gt;Node7 -->
<g id="edge8" class="edge">
<title>Node6&#45;&gt;Node7</title>
<path fill="none" stroke="midnightblue" d="M1553.16,-358.26C1553.25,-336.48 1551.59,-278.48 1533,-235 1527.6,-222.37 1518.28,-210.12 1510.1,-200.85"/>
<polygon fill="midnightblue" stroke="midnightblue" points="1512.42,-198.21 1503.06,-193.25 1507.29,-202.97 1512.42,-198.21"/>
</g>
<!-- Node10 -->
<g id="node10" class="node">
<title>Node10</title>
<g id="a_node10"><a xlink:href="LogMacros_8hpp.html" target="_top" xlink:title=" ">
<polygon fill="white" stroke="black" points="211.5,-302.5 211.5,-321.5 340.5,-321.5 340.5,-302.5 211.5,-302.5"/>
<text text-anchor="middle" x="276" y="-309.5" font-family="Helvetica,sans-Serif" font-size="10.00">logging/LogMacros.hpp</text>
</a>
</g>
</g>
<!-- Node6&#45;&gt;Node10 -->
<g id="edge11" class="edge">
<title>Node6&#45;&gt;Node10</title>
<path fill="none" stroke="midnightblue" d="M1455.44,-362.87C1209.8,-352.49 569.79,-325.42 350.78,-316.16"/>
<polygon fill="midnightblue" stroke="midnightblue" points="350.81,-312.66 340.67,-315.73 350.52,-319.65 350.81,-312.66"/>
</g>
<!-- Node6&#45;&gt;Node30 -->
<g id="edge43" class="edge">
<title>Node6&#45;&gt;Node30</title>
<path fill="none" stroke="midnightblue" d="M1455.31,-366.39C1165.22,-364.21 321.56,-355.06 202,-322 152.53,-308.32 133.32,-305.88 101,-266 86.25,-247.8 80.19,-220.96 77.7,-203.11"/>
<polygon fill="midnightblue" stroke="midnightblue" points="81.17,-202.63 76.55,-193.1 74.21,-203.43 81.17,-202.63"/>
</g>
<!-- Node31 -->
<g id="node31" class="node">
<title>Node31</title>
<g id="a_node31"><a xlink:href="assertion_8hpp.html" target="_top" xlink:title=" ">
<polygon fill="white" stroke="black" points="1002.5,-302.5 1002.5,-321.5 1109.5,-321.5 1109.5,-302.5 1002.5,-302.5"/>
<text text-anchor="middle" x="1056" y="-309.5" font-family="Helvetica,sans-Serif" font-size="10.00">utils/assertion.hpp</text>
</a>
</g>
</g>
<!-- Node6&#45;&gt;Node31 -->
<g id="edge44" class="edge">
<title>Node6&#45;&gt;Node31</title>
<path fill="none" stroke="midnightblue" d="M1474.52,-358.47C1376.41,-347.81 1210.37,-329.77 1119.72,-319.92"/>
<polygon fill="midnightblue" stroke="midnightblue" points="1119.9,-316.42 1109.58,-318.82 1119.15,-323.38 1119.9,-316.42"/>
</g>
<!-- Node8 -->
<g id="node8" class="node">
<title>Node8</title>
<g id="a_node8"><a xlink:title=" ">
<polygon fill="white" stroke="#bfbfbf" points="1117,-56.5 1117,-75.5 1155,-75.5 1155,-56.5 1117,-56.5"/>
<text text-anchor="middle" x="1136" y="-63.5" font-family="Helvetica,sans-Serif" font-size="10.00">map</text>
</a>
</g>
</g>
<!-- Node7&#45;&gt;Node8 -->
<g id="edge9" class="edge">
<title>Node7&#45;&gt;Node8</title>
<path fill="none" stroke="midnightblue" d="M1485.25,-173.93C1469.22,-158.77 1433.44,-127.39 1397,-112 1317.68,-78.5 1214.75,-69.93 1165.19,-67.75"/>
<polygon fill="midnightblue" stroke="midnightblue" points="1165.3,-64.25 1155.18,-67.36 1165.03,-71.24 1165.3,-64.25"/>
</g>
<!-- Node9 -->
<g id="node9" class="node">
<title>Node9</title>
<g id="a_node9"><a xlink:title=" ">
<polygon fill="white" stroke="#bfbfbf" points="1140,-112.5 1140,-131.5 1198,-131.5 1198,-112.5 1140,-112.5"/>
<text text-anchor="middle" x="1169" y="-119.5" font-family="Helvetica,sans-Serif" font-size="10.00">memory</text>
</a>
</g>
</g>
<!-- Node7&#45;&gt;Node9 -->
<g id="edge10" class="edge">
<title>Node7&#45;&gt;Node9</title>
<path fill="none" stroke="midnightblue" d="M1447.44,-173.98C1383.06,-162.19 1268.03,-141.13 1207.95,-130.13"/>
<polygon fill="midnightblue" stroke="midnightblue" points="1208.57,-126.69 1198.1,-128.33 1207.31,-133.57 1208.57,-126.69"/>
</g>
<!-- Node11 -->
<g id="node11" class="node">
<title>Node11</title>
<g id="a_node11"><a xlink:href="fmt_8hpp.html" target="_top" xlink:title=" ">
<polygon fill="white" stroke="black" points="129.5,-174 129.5,-193 208.5,-193 208.5,-174 129.5,-174"/>
<text text-anchor="middle" x="169" y="-181" font-family="Helvetica,sans-Serif" font-size="10.00">utils/fmt.hpp</text>
</a>
</g>
</g>
<!-- Node10&#45;&gt;Node11 -->
<g id="edge12" class="edge">
<title>Node10&#45;&gt;Node11</title>
<path fill="none" stroke="midnightblue" d="M275.81,-302.08C275.04,-286.83 271.55,-255.4 256,-235 242.87,-217.77 222.04,-205.38 204.06,-197.19"/>
<polygon fill="midnightblue" stroke="midnightblue" points="204.99,-193.78 194.42,-193.06 202.24,-200.22 204.99,-193.78"/>
</g>
<!-- Node23 -->
<g id="node23" class="node">
<title>Node23</title>
<g id="a_node23"><a xlink:href="ArgumentFormatter_8hpp.html" target="_top" xlink:title=" ">
<polygon fill="white" stroke="black" points="342.5,-241 342.5,-260 499.5,-260 499.5,-241 342.5,-241"/>
<text text-anchor="middle" x="421" y="-248" font-family="Helvetica,sans-Serif" font-size="10.00">utils/ArgumentFormatter.hpp</text>
</a>
</g>
</g>
<!-- Node10&#45;&gt;Node23 -->
<g id="edge31" class="edge">
<title>Node10&#45;&gt;Node23</title>
<path fill="none" stroke="midnightblue" d="M296.77,-302.48C321.43,-292.36 362.75,-275.4 390.9,-263.85"/>
<polygon fill="midnightblue" stroke="midnightblue" points="392.34,-267.04 400.26,-260.01 389.68,-260.57 392.34,-267.04"/>
</g>
<!-- Node29 -->
<g id="node29" class="node">
<title>Node29</title>
<g id="a_node29"><a xlink:href="Tracer_8hpp.html" target="_top" xlink:title=" ">
<polygon fill="white" stroke="black" points="142.5,-241 142.5,-260 247.5,-260 247.5,-241 142.5,-241"/>
<text text-anchor="middle" x="195" y="-248" font-family="Helvetica,sans-Serif" font-size="10.00">logging/Tracer.hpp</text>
</a>
</g>
</g>
<!-- Node10&#45;&gt;Node29 -->
<g id="edge38" class="edge">
<title>Node10&#45;&gt;Node29</title>
<path fill="none" stroke="midnightblue" d="M264.39,-302.48C251.52,-293.02 230.53,-277.6 214.99,-266.19"/>
<polygon fill="midnightblue" stroke="midnightblue" points="216.72,-263.11 206.58,-260.01 212.57,-268.75 216.72,-263.11"/>
</g>
<!-- Node11&#45;&gt;Node4 -->
<g id="edge13" class="edge">
<title>Node11&#45;&gt;Node4</title>
<path fill="none" stroke="midnightblue" d="M193.13,-173.89C200.68,-171.56 209.1,-169.31 217,-168 434.16,-131.87 987.09,-142.22 1207,-132 1250.92,-129.96 1301.63,-126.98 1333.74,-125.02"/>
<polygon fill="midnightblue" stroke="midnightblue" points="1334.12,-128.5 1343.89,-124.39 1333.69,-121.51 1334.12,-128.5"/>
</g>
<!-- Node12 -->
<g id="node12" class="node">
<title>Node12</title>
<g id="a_node12"><a xlink:title=" ">
<polygon fill="white" stroke="#bfbfbf" points="170.5,-112.5 170.5,-131.5 243.5,-131.5 243.5,-112.5 170.5,-112.5"/>
<text text-anchor="middle" x="207" y="-119.5" font-family="Helvetica,sans-Serif" font-size="10.00">string_view</text>
</a>
</g>
</g>
<!-- Node11&#45;&gt;Node12 -->
<g id="edge14" class="edge">
<title>Node11&#45;&gt;Node12</title>
<path fill="none" stroke="midnightblue" d="M174.44,-173.98C180.09,-165.14 189.06,-151.09 196.16,-139.98"/>
<polygon fill="midnightblue" stroke="midnightblue" points="199.13,-141.82 201.57,-131.51 193.23,-138.05 199.13,-141.82"/>
</g>
<!-- Node13 -->
<g id="node13" class="node">
<title>Node13</title>
<g id="a_node13"><a xlink:title=" ">
<polygon fill="white" stroke="#bfbfbf" points="339.5,-56.5 339.5,-75.5 418.5,-75.5 418.5,-56.5 339.5,-56.5"/>
<text text-anchor="middle" x="379" y="-63.5" font-family="Helvetica,sans-Serif" font-size="10.00">fmt/format.h</text>
</a>
</g>
</g>
<!-- Node11&#45;&gt;Node13 -->
<g id="edge15" class="edge">
<title>Node11&#45;&gt;Node13</title>
<path fill="none" stroke="midnightblue" d="M196.61,-173.94C203.27,-171.94 210.38,-169.85 217,-168 278.88,-150.71 309.91,-175.7 357,-132 369.94,-119.99 375.27,-100.1 377.47,-85.48"/>
<polygon fill="midnightblue" stroke="midnightblue" points="380.94,-85.87 378.61,-75.54 373.99,-85.08 380.94,-85.87"/>
</g>
<!-- Node14 -->
<g id="node14" class="node">
<title>Node14</title>
<g id="a_node14"><a xlink:title=" ">
<polygon fill="white" stroke="#bfbfbf" points="262,-112.5 262,-131.5 348,-131.5 348,-112.5 262,-112.5"/>
<text text-anchor="middle" x="305" y="-119.5" font-family="Helvetica,sans-Serif" font-size="10.00">fmt/ostream.h</text>
</a>
</g>
</g>
<!-- Node11&#45;&gt;Node14 -->
<g id="edge16" class="edge">
<title>Node11&#45;&gt;Node14</title>
<path fill="none" stroke="midnightblue" d="M188.49,-173.98C211.41,-163.95 249.69,-147.2 276.08,-135.65"/>
<polygon fill="midnightblue" stroke="midnightblue" points="277.79,-138.72 285.55,-131.51 274.99,-132.31 277.79,-138.72"/>
</g>
<!-- Node15 -->
<g id="node15" class="node">
<title>Node15</title>
<g id="a_node15"><a xlink:href="fmtEigen_8hpp.html" target="_top" xlink:title=" ">
<polygon fill="white" stroke="black" points="46,-112.5 46,-131.5 152,-131.5 152,-112.5 46,-112.5"/>
<text text-anchor="middle" x="99" y="-119.5" font-family="Helvetica,sans-Serif" font-size="10.00">utils/fmtEigen.hpp</text>
</a>
</g>
</g>
<!-- Node11&#45;&gt;Node15 -->
<g id="edge17" class="edge">
<title>Node11&#45;&gt;Node15</title>
<path fill="none" stroke="midnightblue" d="M158.97,-173.98C147.95,-164.61 130.04,-149.38 116.66,-138.01"/>
<polygon fill="midnightblue" stroke="midnightblue" points="118.9,-135.32 109.01,-131.51 114.36,-140.65 118.9,-135.32"/>
</g>
<!-- Node19 -->
<g id="node19" class="node">
<title>Node19</title>
<g id="a_node19"><a xlink:href="fmtSTL_8hpp.html" target="_top" xlink:title=" ">
<polygon fill="white" stroke="black" points="648,-112.5 648,-131.5 744,-131.5 744,-112.5 648,-112.5"/>
<text text-anchor="middle" x="696" y="-119.5" font-family="Helvetica,sans-Serif" font-size="10.00">utils/fmtSTL.hpp</text>
</a>
</g>
</g>
<!-- Node11&#45;&gt;Node19 -->
<g id="edge24" class="edge">
<title>Node11&#45;&gt;Node19</title>
<path fill="none" stroke="midnightblue" d="M194.17,-173.87C201.46,-171.65 209.48,-169.47 217,-168 366.96,-138.61 547.22,-128.25 637.88,-124.72"/>
<polygon fill="midnightblue" stroke="midnightblue" points="638.1,-128.22 647.96,-124.35 637.83,-121.22 638.1,-128.22"/>
</g>
<!-- Node15&#45;&gt;Node2 -->
<g id="edge18" class="edge">
<title>Node15&#45;&gt;Node2</title>
<path fill="none" stroke="midnightblue" d="M86.36,-112.39C69.73,-99.96 44.02,-76.25 57,-56 68.9,-37.44 90.58,-26.44 110.53,-19.96"/>
<polygon fill="midnightblue" stroke="midnightblue" points="111.53,-23.32 120.13,-17.13 109.55,-16.6 111.53,-23.32"/>
</g>
<!-- Node15&#45;&gt;Node13 -->
<g id="edge20" class="edge">
<title>Node15&#45;&gt;Node13</title>
<path fill="none" stroke="midnightblue" d="M143.37,-112.44C193.96,-102.69 276.49,-86.77 329.23,-76.6"/>
<polygon fill="midnightblue" stroke="midnightblue" points="330.21,-79.97 339.37,-74.64 328.89,-73.1 330.21,-79.97"/>
</g>
<!-- Node16 -->
<g id="node16" class="node">
<title>Node16</title>
<g id="a_node16"><a xlink:title=" ">
<polygon fill="white" stroke="#bfbfbf" points="66,-56.5 66,-75.5 130,-75.5 130,-56.5 66,-56.5"/>
<text text-anchor="middle" x="98" y="-63.5" font-family="Helvetica,sans-Serif" font-size="10.00">algorithm</text>
</a>
</g>
</g>
<!-- Node15&#45;&gt;Node16 -->
<g id="edge19" class="edge">
<title>Node15&#45;&gt;Node16</title>
<path fill="none" stroke="midnightblue" d="M98.83,-112.08C98.7,-105.01 98.52,-94.86 98.35,-85.99"/>
<polygon fill="midnightblue" stroke="midnightblue" points="101.85,-85.68 98.16,-75.75 94.85,-85.81 101.85,-85.68"/>
</g>
<!-- Node17 -->
<g id="node17" class="node">
<title>Node17</title>
<g id="a_node17"><a xlink:title=" ">
<polygon fill="white" stroke="#bfbfbf" points="148,-56.5 148,-75.5 204,-75.5 204,-56.5 148,-56.5"/>
<text text-anchor="middle" x="176" y="-63.5" font-family="Helvetica,sans-Serif" font-size="10.00">sstream</text>
</a>
</g>
</g>
<!-- Node15&#45;&gt;Node17 -->
<g id="edge21" class="edge">
<title>Node15&#45;&gt;Node17</title>
<path fill="none" stroke="midnightblue" d="M111.37,-112.32C123.16,-104.06 141.13,-91.45 155.14,-81.63"/>
<polygon fill="midnightblue" stroke="midnightblue" points="157.48,-84.26 163.66,-75.65 153.46,-78.53 157.48,-84.26"/>
</g>
<!-- Node18 -->
<g id="node18" class="node">
<title>Node18</title>
<g id="a_node18"><a xlink:href="EigenIO_8hpp.html" target="_top" xlink:title=" ">
<polygon fill="white" stroke="black" points="222.5,-56.5 222.5,-75.5 321.5,-75.5 321.5,-56.5 222.5,-56.5"/>
<text text-anchor="middle" x="272" y="-63.5" font-family="Helvetica,sans-Serif" font-size="10.00">utils/EigenIO.hpp</text>
</a>
</g>
</g>
<!-- Node15&#45;&gt;Node18 -->
<g id="edge22" class="edge">
<title>Node15&#45;&gt;Node18</title>
<path fill="none" stroke="midnightblue" d="M126.41,-112.44C155.77,-103.28 202.52,-88.69 235.1,-78.52"/>
<polygon fill="midnightblue" stroke="midnightblue" points="236.21,-81.84 244.72,-75.52 234.13,-75.16 236.21,-81.84"/>
</g>
<!-- Node18&#45;&gt;Node2 -->
<g id="edge23" class="edge">
<title>Node18&#45;&gt;Node2</title>
<path fill="none" stroke="midnightblue" d="M253.46,-56.44C234.38,-47.64 204.43,-33.81 182.56,-23.72"/>
<polygon fill="midnightblue" stroke="midnightblue" points="184,-20.53 173.45,-19.52 181.07,-26.88 184,-20.53"/>
</g>
<!-- Node19&#45;&gt;Node5 -->
<g id="edge30" class="edge">
<title>Node19&#45;&gt;Node5</title>
<path fill="none" stroke="midnightblue" d="M744.11,-117.31C877.78,-107.06 1251.33,-78.4 1366.06,-69.6"/>
<polygon fill="midnightblue" stroke="midnightblue" points="1366.63,-73.07 1376.33,-68.82 1366.09,-66.09 1366.63,-73.07"/>
</g>
<!-- Node19&#45;&gt;Node8 -->
<g id="edge28" class="edge">
<title>Node19&#45;&gt;Node8</title>
<path fill="none" stroke="midnightblue" d="M744.35,-115.07C836.05,-103.81 1032.73,-79.67 1106.89,-70.57"/>
<polygon fill="midnightblue" stroke="midnightblue" points="1107.42,-74.03 1116.92,-69.34 1106.57,-67.09 1107.42,-74.03"/>
</g>
<!-- Node19&#45;&gt;Node13 -->
<g id="edge27" class="edge">
<title>Node19&#45;&gt;Node13</title>
<path fill="none" stroke="midnightblue" d="M647.85,-112.8C588.58,-102.7 488.44,-85.64 428.54,-75.44"/>
<polygon fill="midnightblue" stroke="midnightblue" points="429.01,-71.97 418.56,-73.74 427.83,-78.87 429.01,-71.97"/>
</g>
<!-- Node20 -->
<g id="node20" class="node">
<title>Node20</title>
<g id="a_node20"><a xlink:title=" ">
<polygon fill="white" stroke="#bfbfbf" points="612,-56.5 612,-75.5 654,-75.5 654,-56.5 612,-56.5"/>
<text text-anchor="middle" x="633" y="-63.5" font-family="Helvetica,sans-Serif" font-size="10.00">array</text>
</a>
</g>
</g>
<!-- Node19&#45;&gt;Node20 -->
<g id="edge25" class="edge">
<title>Node19&#45;&gt;Node20</title>
<path fill="none" stroke="midnightblue" d="M685.88,-112.32C676.47,-104.26 662.26,-92.08 650.93,-82.37"/>
<polygon fill="midnightblue" stroke="midnightblue" points="653.18,-79.68 643.31,-75.83 648.62,-85 653.18,-79.68"/>
</g>
<!-- Node21 -->
<g id="node21" class="node">
<title>Node21</title>
<g id="a_node21"><a xlink:title=" ">
<polygon fill="white" stroke="#bfbfbf" points="672.5,-56.5 672.5,-75.5 719.5,-75.5 719.5,-56.5 672.5,-56.5"/>
<text text-anchor="middle" x="696" y="-63.5" font-family="Helvetica,sans-Serif" font-size="10.00">deque</text>
</a>
</g>
</g>
<!-- Node19&#45;&gt;Node21 -->
<g id="edge26" class="edge">
<title>Node19&#45;&gt;Node21</title>
<path fill="none" stroke="midnightblue" d="M696,-112.08C696,-105.01 696,-94.86 696,-85.99"/>
<polygon fill="midnightblue" stroke="midnightblue" points="699.5,-85.75 696,-75.75 692.5,-85.75 699.5,-85.75"/>
</g>
<!-- Node22 -->
<g id="node22" class="node">
<title>Node22</title>
<g id="a_node22"><a xlink:title=" ">
<polygon fill="white" stroke="#bfbfbf" points="738,-56.5 738,-75.5 770,-75.5 770,-56.5 738,-56.5"/>
<text text-anchor="middle" x="754" y="-63.5" font-family="Helvetica,sans-Serif" font-size="10.00">set</text>
</a>
</g>
</g>
<!-- Node19&#45;&gt;Node22 -->
<g id="edge29" class="edge">
<title>Node19&#45;&gt;Node22</title>
<path fill="none" stroke="midnightblue" d="M705.32,-112.32C713.89,-104.34 726.81,-92.31 737.19,-82.65"/>
<polygon fill="midnightblue" stroke="midnightblue" points="739.58,-85.21 744.51,-75.83 734.81,-80.09 739.58,-85.21"/>
</g>
<!-- Node23&#45;&gt;Node11 -->
<g id="edge37" class="edge">
<title>Node23&#45;&gt;Node11</title>
<path fill="none" stroke="midnightblue" d="M384,-240.94C343.02,-231.31 275.05,-214.94 217,-199 213.43,-198.02 209.73,-196.97 206.03,-195.89"/>
<polygon fill="midnightblue" stroke="midnightblue" points="206.93,-192.51 196.34,-193.02 204.94,-199.22 206.93,-192.51"/>
</g>
<!-- Node24 -->
<g id="node24" class="node">
<title>Node24</title>
<g id="a_node24"><a xlink:title=" ">
<polygon fill="white" stroke="#bfbfbf" points="681,-168.5 681,-198.5 791,-198.5 791,-168.5 681,-168.5"/>
<text text-anchor="start" x="689" y="-186.5" font-family="Helvetica,sans-Serif" font-size="10.00">boost/preprocessor</text>
<text text-anchor="middle" x="736" y="-175.5" font-family="Helvetica,sans-Serif" font-size="10.00">/control/if.hpp</text>
</a>
</g>
</g>
<!-- Node23&#45;&gt;Node24 -->
<g id="edge32" class="edge">
<title>Node23&#45;&gt;Node24</title>
<path fill="none" stroke="midnightblue" d="M462.5,-240.94C515.6,-229.98 608.15,-210.88 670.73,-197.97"/>
<polygon fill="midnightblue" stroke="midnightblue" points="671.8,-201.32 680.89,-195.87 670.39,-194.47 671.8,-201.32"/>
</g>
<!-- Node25 -->
<g id="node25" class="node">
<title>Node25</title>
<g id="a_node25"><a xlink:title=" ">
<polygon fill="white" stroke="#bfbfbf" points="226.5,-168.5 226.5,-198.5 337.5,-198.5 337.5,-168.5 226.5,-168.5"/>
<text text-anchor="start" x="234.5" y="-186.5" font-family="Helvetica,sans-Serif" font-size="10.00">boost/preprocessor</text>
<text text-anchor="middle" x="282" y="-175.5" font-family="Helvetica,sans-Serif" font-size="10.00">/seq/for_each_i.hpp</text>
</a>
</g>
</g>
<!-- Node23&#45;&gt;Node25 -->
<g id="edge33" class="edge">
<title>Node23&#45;&gt;Node25</title>
<path fill="none" stroke="midnightblue" d="M402.54,-240.87C381.87,-231.2 347.75,-215.25 321.09,-202.78"/>
<polygon fill="midnightblue" stroke="midnightblue" points="322.54,-199.59 312,-198.53 319.57,-205.93 322.54,-199.59"/>
</g>
<!-- Node26 -->
<g id="node26" class="node">
<title>Node26</title>
<g id="a_node26"><a xlink:title=" ">
<polygon fill="white" stroke="#bfbfbf" points="809,-168.5 809,-198.5 919,-198.5 919,-168.5 809,-168.5"/>
<text text-anchor="start" x="817" y="-186.5" font-family="Helvetica,sans-Serif" font-size="10.00">boost/preprocessor</text>
<text text-anchor="middle" x="864" y="-175.5" font-family="Helvetica,sans-Serif" font-size="10.00">/stringize.hpp</text>
</a>
</g>
</g>
<!-- Node23&#45;&gt;Node26 -->
<g id="edge34" class="edge">
<title>Node23&#45;&gt;Node26</title>
<path fill="none" stroke="midnightblue" d="M490.87,-240.96C579.24,-230.03 727.53,-211.23 798.94,-199.06"/>
<polygon fill="midnightblue" stroke="midnightblue" points="799.66,-202.49 808.91,-197.31 798.45,-195.59 799.66,-202.49"/>
</g>
<!-- Node27 -->
<g id="node27" class="node">
<title>Node27</title>
<g id="a_node27"><a xlink:title=" ">
<polygon fill="white" stroke="#bfbfbf" points="355.5,-168.5 355.5,-198.5 470.5,-198.5 470.5,-168.5 355.5,-168.5"/>
<text text-anchor="start" x="363.5" y="-186.5" font-family="Helvetica,sans-Serif" font-size="10.00">boost/preprocessor</text>
<text text-anchor="middle" x="413" y="-175.5" font-family="Helvetica,sans-Serif" font-size="10.00">/variadic/to_seq.hpp</text>
</a>
</g>
</g>
<!-- Node23&#45;&gt;Node27 -->
<g id="edge35" class="edge">
<title>Node23&#45;&gt;Node27</title>
<path fill="none" stroke="midnightblue" d="M419.92,-240.73C418.91,-232.54 417.36,-219.92 415.98,-208.71"/>
<polygon fill="midnightblue" stroke="midnightblue" points="419.43,-208.09 414.73,-198.59 412.48,-208.94 419.43,-208.09"/>
</g>
<!-- Node28 -->
<g id="node28" class="node">
<title>Node28</title>
<g id="a_node28"><a xlink:title=" ">
<polygon fill="white" stroke="#bfbfbf" points="489,-174 489,-193 625,-193 625,-174 489,-174"/>
<text text-anchor="middle" x="557" y="-181" font-family="Helvetica,sans-Serif" font-size="10.00">boost/vmd/is_empty.hpp</text>
</a>
</g>
</g>
<!-- Node23&#45;&gt;Node28 -->
<g id="edge36" class="edge">
<title>Node23&#45;&gt;Node28</title>
<path fill="none" stroke="midnightblue" d="M439.06,-240.87C462.23,-229.8 502.63,-210.49 529.6,-197.6"/>
<polygon fill="midnightblue" stroke="midnightblue" points="531.35,-200.64 538.87,-193.17 528.33,-194.32 531.35,-200.64"/>
</g>
<!-- Node29&#45;&gt;Node30 -->
<g id="edge39" class="edge">
<title>Node29&#45;&gt;Node30</title>
<path fill="none" stroke="midnightblue" d="M178.95,-240.73C158.88,-229.77 124.3,-210.88 100.81,-198.05"/>
<polygon fill="midnightblue" stroke="midnightblue" points="102.25,-194.85 91.79,-193.13 98.89,-200.99 102.25,-194.85"/>
</g>
<!-- Node30&#45;&gt;Node9 -->
<g id="edge40" class="edge">
<title>Node30&#45;&gt;Node9</title>
<path fill="none" stroke="midnightblue" d="M98.07,-173.91C104.99,-171.58 112.72,-169.33 120,-168 220.61,-149.63 950.95,-128.89 1129.63,-124.05"/>
<polygon fill="midnightblue" stroke="midnightblue" points="1129.98,-127.54 1139.88,-123.77 1129.79,-120.54 1129.98,-127.54"/>
</g>
<!-- Node30&#45;&gt;Node10 -->
<g id="edge42" class="edge">
<title>Node30&#45;&gt;Node10</title>
<path fill="none" stroke="midnightblue" d="M79.66,-193.04C87.18,-209.6 105.99,-246.19 133,-266 155.8,-282.72 185,-293.35 211.06,-300.05"/>
<polygon fill="midnightblue" stroke="midnightblue" points="210.33,-303.48 220.87,-302.43 211.98,-296.67 210.33,-303.48"/>
</g>
<!-- Node30&#45;&gt;Node12 -->
<g id="edge41" class="edge">
<title>Node30&#45;&gt;Node12</title>
<path fill="none" stroke="midnightblue" d="M94.77,-173.98C116.85,-163.95 153.72,-147.2 179.14,-135.65"/>
<polygon fill="midnightblue" stroke="midnightblue" points="180.61,-138.83 188.27,-131.51 177.71,-132.46 180.61,-138.83"/>
</g>
<!-- Node31&#45;&gt;Node11 -->
<g id="edge48" class="edge">
<title>Node31&#45;&gt;Node11</title>
<path fill="none" stroke="midnightblue" d="M1002.24,-310.76C856.85,-309.62 458.34,-303.09 333,-266 306.09,-258.04 302.97,-247.8 278,-235 251.32,-221.33 220.24,-207.09 198.11,-197.23"/>
<polygon fill="midnightblue" stroke="midnightblue" points="199.48,-194.01 188.92,-193.16 196.64,-200.41 199.48,-194.01"/>
</g>
<!-- Node31&#45;&gt;Node12 -->
<g id="edge47" class="edge">
<title>Node31&#45;&gt;Node12</title>
<path fill="none" stroke="midnightblue" d="M1002.11,-310.26C877.42,-307.98 577.29,-299.08 547,-266 537.7,-255.84 539.34,-246.45 547,-235 570.25,-200.21 610.75,-233.79 634,-199 641.66,-187.55 643.27,-178.19 634,-168 606.89,-138.21 327.03,-138.02 253.83,-131.63"/>
<polygon fill="midnightblue" stroke="midnightblue" points="253.93,-128.12 243.6,-130.5 253.16,-135.08 253.93,-128.12"/>
</g>
<!-- Node31&#45;&gt;Node23 -->
<g id="edge54" class="edge">
<title>Node31&#45;&gt;Node23</title>
<path fill="none" stroke="midnightblue" d="M1002.41,-307.83C904.97,-301.79 692.37,-287.28 514,-266 503.55,-264.75 492.47,-263.22 481.74,-261.61"/>
<polygon fill="midnightblue" stroke="midnightblue" points="482,-258.11 471.59,-260.06 480.95,-265.03 482,-258.11"/>
</g>
<!-- Node31&#45;&gt;Node24 -->
<g id="edge51" class="edge">
<title>Node31&#45;&gt;Node24</title>
<path fill="none" stroke="midnightblue" d="M1060.63,-302.24C1068.14,-286.66 1080.58,-253.99 1064,-235 1026.89,-192.48 873.62,-207.9 801.17,-198.83"/>
<polygon fill="midnightblue" stroke="midnightblue" points="801.51,-195.34 791.1,-197.3 800.46,-202.26 801.51,-195.34"/>
</g>
<!-- Node31&#45;&gt;Node26 -->
<g id="edge52" class="edge">
<title>Node31&#45;&gt;Node26</title>
<path fill="none" stroke="midnightblue" d="M1066.89,-302.41C1084.29,-287.64 1114.69,-256.94 1097,-235 1096.32,-234.16 997.62,-212.98 928.91,-198.32"/>
<polygon fill="midnightblue" stroke="midnightblue" points="929.51,-194.87 919,-196.2 928.05,-201.71 929.51,-194.87"/>
</g>
<!-- Node32 -->
<g id="node32" class="node">
<title>Node32</title>
<g id="a_node32"><a xlink:title=" ">
<polygon fill="white" stroke="#bfbfbf" points="1265.5,-241 1265.5,-260 1314.5,-260 1314.5,-241 1265.5,-241"/>
<text text-anchor="middle" x="1290" y="-248" font-family="Helvetica,sans-Serif" font-size="10.00">cstdlib</text>
</a>
</g>
</g>
<!-- Node31&#45;&gt;Node32 -->
<g id="edge45" class="edge">
<title>Node31&#45;&gt;Node32</title>
<path fill="none" stroke="midnightblue" d="M1105.57,-302.45C1146.46,-294.78 1205.7,-282.23 1256,-266 1257.92,-265.38 1259.89,-264.69 1261.86,-263.96"/>
<polygon fill="midnightblue" stroke="midnightblue" points="1263.54,-267.06 1271.53,-260.1 1260.94,-260.56 1263.54,-267.06"/>
</g>
<!-- Node33 -->
<g id="node33" class="node">
<title>Node33</title>
<g id="a_node33"><a xlink:title=" ">
<polygon fill="white" stroke="#bfbfbf" points="1333,-241 1333,-260 1393,-260 1393,-241 1333,-241"/>
<text text-anchor="middle" x="1363" y="-248" font-family="Helvetica,sans-Serif" font-size="10.00">iostream</text>
</a>
</g>
</g>
<!-- Node31&#45;&gt;Node33 -->
<g id="edge46" class="edge">
<title>Node31&#45;&gt;Node33</title>
<path fill="none" stroke="midnightblue" d="M1109.54,-304.87C1163.88,-297.98 1250.15,-285.17 1323,-266 1325.98,-265.22 1329.04,-264.3 1332.09,-263.33"/>
<polygon fill="midnightblue" stroke="midnightblue" points="1333.31,-266.61 1341.64,-260.05 1331.04,-259.99 1333.31,-266.61"/>
</g>
<!-- Node34 -->
<g id="node34" class="node">
<title>Node34</title>
<g id="a_node34"><a xlink:title=" ">
<polygon fill="white" stroke="#bfbfbf" points="556.5,-241 556.5,-260 703.5,-260 703.5,-241 556.5,-241"/>
<text text-anchor="middle" x="630" y="-248" font-family="Helvetica,sans-Serif" font-size="10.00">boost/current_function.hpp</text>
</a>
</g>
</g>
<!-- Node31&#45;&gt;Node34 -->
<g id="edge49" class="edge">
<title>Node31&#45;&gt;Node34</title>
<path fill="none" stroke="midnightblue" d="M1002.27,-304.73C934.48,-296.64 814.39,-281.74 712,-266 703.68,-264.72 694.9,-263.27 686.31,-261.8"/>
<polygon fill="midnightblue" stroke="midnightblue" points="686.79,-258.33 676.34,-260.07 685.59,-265.23 686.79,-258.33"/>
</g>
<!-- Node35 -->
<g id="node35" class="node">
<title>Node35</title>
<g id="a_node35"><a xlink:title=" ">
<polygon fill="white" stroke="#bfbfbf" points="721.5,-235.5 721.5,-265.5 856.5,-265.5 856.5,-235.5 721.5,-235.5"/>
<text text-anchor="start" x="729.5" y="-253.5" font-family="Helvetica,sans-Serif" font-size="10.00">boost/preprocessor</text>
<text text-anchor="middle" x="789" y="-242.5" font-family="Helvetica,sans-Serif" font-size="10.00">/comparison/greater.hpp</text>
</a>
</g>
</g>
<!-- Node31&#45;&gt;Node35 -->
<g id="edge50" class="edge">
<title>Node31&#45;&gt;Node35</title>
<path fill="none" stroke="midnightblue" d="M1017.75,-302.48C977.19,-293.44 912.17,-278.95 861.79,-267.72"/>
<polygon fill="midnightblue" stroke="midnightblue" points="862.45,-264.28 851.93,-265.52 860.93,-271.11 862.45,-264.28"/>
</g>
<!-- Node36 -->
<g id="node36" class="node">
<title>Node36</title>
<g id="a_node36"><a xlink:title=" ">
<polygon fill="white" stroke="#bfbfbf" points="875,-235.5 875,-265.5 985,-265.5 985,-235.5 875,-235.5"/>
<text text-anchor="start" x="883" y="-253.5" font-family="Helvetica,sans-Serif" font-size="10.00">boost/preprocessor</text>
<text text-anchor="middle" x="930" y="-242.5" font-family="Helvetica,sans-Serif" font-size="10.00">/variadic/size.hpp</text>
</a>
</g>
</g>
<!-- Node31&#45;&gt;Node36 -->
<g id="edge53" class="edge">
<title>Node31&#45;&gt;Node36</title>
<path fill="none" stroke="midnightblue" d="M1037.95,-302.48C1020.01,-294 991.91,-280.74 968.89,-269.86"/>
<polygon fill="midnightblue" stroke="midnightblue" points="970.23,-266.63 959.7,-265.52 967.24,-272.96 970.23,-266.63"/>
</g>
<!-- Node37 -->
<g id="node37" class="node">
<title>Node37</title>
<g id="a_node37"><a xlink:href="Parallel_8hpp.html" target="_top" xlink:title=" ">
<polygon fill="white" stroke="black" points="1149,-241 1149,-260 1247,-260 1247,-241 1149,-241"/>
<text text-anchor="middle" x="1198" y="-248" font-family="Helvetica,sans-Serif" font-size="10.00">utils/Parallel.hpp</text>
</a>
</g>
</g>
<!-- Node31&#45;&gt;Node37 -->
<g id="edge55" class="edge">
<title>Node31&#45;&gt;Node37</title>
<path fill="none" stroke="midnightblue" d="M1076.35,-302.48C1100.39,-292.4 1140.6,-275.55 1168.16,-264"/>
<polygon fill="midnightblue" stroke="midnightblue" points="1169.82,-267.1 1177.69,-260.01 1167.12,-260.65 1169.82,-267.1"/>
</g>
<!-- Node42 -->
<g id="node42" class="node">
<title>Node42</title>
<g id="a_node42"><a xlink:href="stacktrace_8hpp.html" target="_top" xlink:title=" ">
<polygon fill="white" stroke="black" points="1411.5,-241 1411.5,-260 1524.5,-260 1524.5,-241 1411.5,-241"/>
<text text-anchor="middle" x="1468" y="-248" font-family="Helvetica,sans-Serif" font-size="10.00">utils/stacktrace.hpp</text>
</a>
</g>
</g>
<!-- Node31&#45;&gt;Node42 -->
<g id="edge64" class="edge">
<title>Node31&#45;&gt;Node42</title>
<path fill="none" stroke="midnightblue" d="M1109.56,-305.49C1177.75,-298.15 1299.06,-283.97 1402,-266 1408.37,-264.89 1415.06,-263.58 1421.63,-262.22"/>
<polygon fill="midnightblue" stroke="midnightblue" points="1422.75,-265.56 1431.8,-260.05 1421.29,-258.71 1422.75,-265.56"/>
</g>
<!-- Node43 -->
<g id="node43" class="node">
<title>Node43</title>
<g id="a_node43"><a xlink:title=" ">
<polygon fill="white" stroke="#bfbfbf" points="1003,-241 1003,-260 1055,-260 1055,-241 1003,-241"/>
<text text-anchor="middle" x="1029" y="-248" font-family="Helvetica,sans-Serif" font-size="10.00">cassert</text>
</a>
</g>
</g>
<!-- Node31&#45;&gt;Node43 -->
<g id="edge66" class="edge">
<title>Node31&#45;&gt;Node43</title>
<path fill="none" stroke="midnightblue" d="M1052.13,-302.48C1048.2,-293.82 1042,-280.15 1037.01,-269.15"/>
<polygon fill="midnightblue" stroke="midnightblue" points="1040.18,-267.67 1032.86,-260.01 1033.81,-270.56 1040.18,-267.67"/>
</g>
<!-- Node37&#45;&gt;Node4 -->
<g id="edge59" class="edge">
<title>Node37&#45;&gt;Node4</title>
<path fill="none" stroke="midnightblue" d="M1227,-240.92C1260.45,-230.58 1312.79,-212.86 1328,-199 1345,-183.52 1355.38,-158.72 1360.91,-141.68"/>
<polygon fill="midnightblue" stroke="midnightblue" points="1364.35,-142.37 1363.86,-131.79 1357.65,-140.37 1364.35,-142.37"/>
</g>
<!-- Node37&#45;&gt;Node5 -->
<g id="edge60" class="edge">
<title>Node37&#45;&gt;Node5</title>
<path fill="none" stroke="midnightblue" d="M1151.71,-240.96C1085.72,-228.56 971.86,-206.27 966,-199 957.36,-188.27 957.97,-179.2 966,-168 1013.08,-102.31 1272.43,-76.57 1366.18,-69.32"/>
<polygon fill="midnightblue" stroke="midnightblue" points="1366.55,-72.81 1376.26,-68.57 1366.02,-65.83 1366.55,-72.81"/>
</g>
<!-- Node37&#45;&gt;Node9 -->
<g id="edge57" class="edge">
<title>Node37&#45;&gt;Node9</title>
<path fill="none" stroke="midnightblue" d="M1196.01,-240.81C1191.35,-220.49 1179.67,-169.55 1173.3,-141.78"/>
<polygon fill="midnightblue" stroke="midnightblue" points="1176.65,-140.72 1171.01,-131.76 1169.83,-142.28 1176.65,-140.72"/>
</g>
<!-- Node37&#45;&gt;Node30 -->
<g id="edge61" class="edge">
<title>Node37&#45;&gt;Node30</title>
<path fill="none" stroke="midnightblue" d="M1148.75,-243.34C1123.46,-240.39 1092.12,-237.06 1064,-235 854.63,-219.7 326.6,-236.22 120,-199 116.02,-198.28 111.9,-197.29 107.86,-196.15"/>
<polygon fill="midnightblue" stroke="midnightblue" points="108.66,-192.73 98.07,-193.11 106.58,-199.42 108.66,-192.73"/>
</g>
<!-- Node38 -->
<g id="node38" class="node">
<title>Node38</title>
<g id="a_node38"><a xlink:title=" ">
<polygon fill="white" stroke="#bfbfbf" points="1197,-174 1197,-193 1245,-193 1245,-174 1197,-174"/>
<text text-anchor="middle" x="1221" y="-181" font-family="Helvetica,sans-Serif" font-size="10.00">iosfwd</text>
</a>
</g>
</g>
<!-- Node37&#45;&gt;Node38 -->
<g id="edge56" class="edge">
<title>Node37&#45;&gt;Node38</title>
<path fill="none" stroke="midnightblue" d="M1201.1,-240.73C1204.52,-231.09 1210.1,-215.3 1214.49,-202.91"/>
<polygon fill="midnightblue" stroke="midnightblue" points="1217.91,-203.72 1217.95,-193.13 1211.31,-201.39 1217.91,-203.72"/>
</g>
<!-- Node39 -->
<g id="node39" class="node">
<title>Node39</title>
<g id="a_node39"><a xlink:title=" ">
<polygon fill="white" stroke="#bfbfbf" points="1263,-174 1263,-193 1319,-193 1319,-174 1263,-174"/>
<text text-anchor="middle" x="1291" y="-181" font-family="Helvetica,sans-Serif" font-size="10.00">optional</text>
</a>
</g>
</g>
<!-- Node37&#45;&gt;Node39 -->
<g id="edge58" class="edge">
<title>Node37&#45;&gt;Node39</title>
<path fill="none" stroke="midnightblue" d="M1210.54,-240.73C1225.88,-230.01 1252.06,-211.72 1270.38,-198.91"/>
<polygon fill="midnightblue" stroke="midnightblue" points="1272.46,-201.72 1278.66,-193.13 1268.45,-195.99 1272.46,-201.72"/>
</g>
<!-- Node40 -->
<g id="node40" class="node">
<title>Node40</title>
<g id="a_node40"><a xlink:href="types_8hpp.html" target="_top" xlink:title=" ">
<polygon fill="white" stroke="black" points="975.5,-174 975.5,-193 1078.5,-193 1078.5,-174 975.5,-174"/>
<text text-anchor="middle" x="1027" y="-181" font-family="Helvetica,sans-Serif" font-size="10.00">precice/types.hpp</text>
</a>
</g>
</g>
<!-- Node37&#45;&gt;Node40 -->
<g id="edge62" class="edge">
<title>Node37&#45;&gt;Node40</title>
<path fill="none" stroke="midnightblue" d="M1175.29,-240.87C1145.44,-229.52 1092.83,-209.52 1058.97,-196.65"/>
<polygon fill="midnightblue" stroke="midnightblue" points="1060.12,-193.35 1049.53,-193.06 1057.63,-199.89 1060.12,-193.35"/>
</g>
<!-- Node41 -->
<g id="node41" class="node">
<title>Node41</title>
<g id="a_node41"><a xlink:title=" ">
<polygon fill="white" stroke="#bfbfbf" points="1097,-174 1097,-193 1141,-193 1141,-174 1097,-174"/>
<text text-anchor="middle" x="1119" y="-181" font-family="Helvetica,sans-Serif" font-size="10.00">mpi.h</text>
</a>
</g>
</g>
<!-- Node37&#45;&gt;Node41 -->
<g id="edge63" class="edge">
<title>Node37&#45;&gt;Node41</title>
<path fill="none" stroke="midnightblue" d="M1187.35,-240.73C1174.55,-230.21 1152.88,-212.38 1137.37,-199.62"/>
<polygon fill="midnightblue" stroke="midnightblue" points="1139.43,-196.78 1129.49,-193.13 1134.98,-202.18 1139.43,-196.78"/>
</g>
<!-- Node42&#45;&gt;Node4 -->
<g id="edge65" class="edge">
<title>Node42&#45;&gt;Node4</title>
<path fill="none" stroke="midnightblue" d="M1453.78,-240.93C1439.72,-231.9 1418.3,-216.56 1404,-199 1389.64,-181.36 1378.79,-157.39 1372.43,-141.12"/>
<polygon fill="midnightblue" stroke="midnightblue" points="1375.69,-139.83 1368.91,-131.69 1369.13,-142.28 1375.69,-139.83"/>
</g>
</g>
</svg>
        <g id="navigator" transform="translate(0 0)" fill="#404254">
                <rect fill="#f2f5e9" fill-opacity="0.5" stroke="#606060" stroke-width=".5" x="0" y="0" width="60" height="60"/>
                <use id="zoomplus" xlink:href="#zoomPlus" x="17" y="9" onmousedown="handleZoom(evt,'in')"/>
                <use id="zoomminus" xlink:href="#zoomMin" x="42" y="9" onmousedown="handleZoom(evt,'out')"/>
                <use id="reset" xlink:href="#resetDef" x="30" y="36" onmousedown="handleReset()"/>
                <g id="arrowUp" xlink:href="#dirArrow" transform="translate(30 24)" onmousedown="handlePan(0,-1)">
                  <use xlink:href="#rim" fill="#404040">
                        <set attributeName="fill" to="#808080" begin="arrowUp.mouseover" end="arrowUp.mouseout"/>
                  </use>
                  <path fill="none" stroke="white" stroke-width="1.5" d="M0,-3.0v7 M-2.5,-0.5L0,-3.0L2.5,-0.5"/>
                </g>
                <g id="arrowRight" xlink:href="#dirArrow" transform="rotate(90) translate(36 -43)" onmousedown="handlePan(1,0)">
                  <use xlink:href="#rim" fill="#404040">
                        <set attributeName="fill" to="#808080" begin="arrowRight.mouseover" end="arrowRight.mouseout"/>
                  </use>
                  <path fill="none" stroke="white" stroke-width="1.5" d="M0,-3.0v7 M-2.5,-0.5L0,-3.0L2.5,-0.5"/>
                </g>
                <g id="arrowDown" xlink:href="#dirArrow" transform="rotate(180) translate(-30 -48)" onmousedown="handlePan(0,1)">
                  <use xlink:href="#rim" fill="#404040">
                        <set attributeName="fill" to="#808080" begin="arrowDown.mouseover" end="arrowDown.mouseout"/>
                  </use>
                  <path fill="none" stroke="white" stroke-width="1.5" d="M0,-3.0v7 M-2.5,-0.5L0,-3.0L2.5,-0.5"/>
                </g>
                <g id="arrowLeft" xlink:href="#dirArrow" transform="rotate(270) translate(-36 17)" onmousedown="handlePan(-1,0)">
                  <use xlink:href="#rim" fill="#404040">
                        <set attributeName="fill" to="#808080" begin="arrowLeft.mouseover" end="arrowLeft.mouseout"/>
                  </use>
                  <path fill="none" stroke="white" stroke-width="1.5" d="M0,-3.0v7 M-2.5,-0.5L0,-3.0L2.5,-0.5"/>
                </g>
        </g>
        <svg viewBox="0 0 15 15" width="100%" height="30px" preserveAspectRatio="xMaxYMin meet">
         <g id="arrow_out" transform="scale(0.3 0.3)">
          <a xlink:href="ConstantPreconditioner_8hpp__incl_org.svg" target="_base">
           <rect id="button" ry="5" rx="5" y="6" x="6" height="38" width="38"
                fill="#f2f5e9" fill-opacity="0.5" stroke="#606060" stroke-width="1.0"/>
           <path id="arrow"
             d="M 11.500037,31.436501 C 11.940474,20.09759 22.043105,11.32322 32.158766,21.979434 L 37.068811,17.246167 C 37.068811,17.246167 37.088388,32 37.088388,32 L 22.160133,31.978069 C 22.160133,31.978069 26.997745,27.140456 26.997745,27.140456 C 18.528582,18.264221 13.291696,25.230495 11.500037,31.436501 z"
             style="fill:#404040;"/>
          </a>
         </g>
        </svg>
</svg>
