<?xml version="1.0" encoding="UTF-8" standalone="no"?>
<!DOCTYPE svg PUBLIC "-//W3C//DTD SVG 1.1//EN"
 "http://www.w3.org/Graphics/SVG/1.1/DTD/svg11.dtd">
<!-- Generated by graphviz version 2.43.0 (0)
 -->
<!-- Title: src/utils/Dimensions.cpp Pages: 1 -->
<!--zoomable 554 -->
<svg id="main" version="1.1" xmlns="http://www.w3.org/2000/svg" xmlns:xlink="http://www.w3.org/1999/xlink" xml:space="preserve" onload="init(evt)">
<style type="text/css"><![CDATA[
.edge:hover path { stroke: red; }
.edge:hover polygon { stroke: red; fill: red; }
]]></style>
<script type="text/javascript"><![CDATA[
var edges = document.getElementsByTagName('g');
if (edges && edges.length) {
  for (var i=0;i<edges.length;i++) {
    if (edges[i].id.substr(0,4)=='edge') {
      edges[i].setAttribute('class','edge');
    }
  }
}
]]></script>
        <defs>
                <circle id="rim" cx="0" cy="0" r="7"/>
                <circle id="rim2" cx="0" cy="0" r="3.5"/>
                <g id="zoomPlus">
                        <use xlink:href="#rim" fill="#404040">
                                <set attributeName="fill" to="#808080" begin="zoomplus.mouseover" end="zoomplus.mouseout"/>
                        </use>
                        <path d="M-4,0h8M0,-4v8" fill="none" stroke="white" stroke-width="1.5" pointer-events="none"/>
                </g>
                <g id="zoomMin">
                        <use xlink:href="#rim" fill="#404040">
                                <set attributeName="fill" to="#808080" begin="zoomminus.mouseover" end="zoomminus.mouseout"/>
                        </use>
                        <path d="M-4,0h8" fill="none" stroke="white" stroke-width="1.5" pointer-events="none"/>
                </g>
                <g id="dirArrow">
                        <path fill="none" stroke="white" stroke-width="1.5" d="M0,-3.0v7 M-2.5,-0.5L0,-3.0L2.5,-0.5"/>
                </g>
               <g id="resetDef">
                       <use xlink:href="#rim2" fill="#404040">
                               <set attributeName="fill" to="#808080" begin="reset.mouseover" end="reset.mouseout"/>
                       </use>
               </g>
        </defs>

<script type="text/javascript">
var viewWidth = 1097;
var viewHeight = 554;
var sectionId = 'dynsection-0';
</script>
<script xlink:href="svgpan.js"/>
<svg id="graph" class="graph">
<g id="viewport">
<title>src/utils/Dimensions.cpp</title>
<polygon fill="white" stroke="transparent" points="-4,4 -4,-550 1092.5,-550 1092.5,4 -4,4"/>
<!-- Node1 -->
<g id="node1" class="node">
<title>Node1</title>
<g id="a_node1"><a xlink:title=" ">
<polygon fill="#bfbfbf" stroke="black" points="269,-526.5 269,-545.5 405,-545.5 405,-526.5 269,-526.5"/>
<text text-anchor="middle" x="337" y="-533.5" font-family="Helvetica,sans-Serif" font-size="10.00">src/utils/Dimensions.cpp</text>
</a>
</g>
</g>
<!-- Node2 -->
<g id="node2" class="node">
<title>Node2</title>
<g id="a_node2"><a xlink:href="Dimensions_8hpp.html" target="_top" xlink:title=" ">
<polygon fill="white" stroke="black" points="141.5,-470.5 141.5,-489.5 236.5,-489.5 236.5,-470.5 141.5,-470.5"/>
<text text-anchor="middle" x="189" y="-477.5" font-family="Helvetica,sans-Serif" font-size="10.00">Dimensions.hpp</text>
</a>
</g>
</g>
<!-- Node1&#45;&gt;Node2 -->
<g id="edge1" class="edge">
<title>Node1&#45;&gt;Node2</title>
<path fill="none" stroke="midnightblue" d="M313.55,-526.44C288.87,-517.44 249.81,-503.19 222.02,-493.05"/>
<polygon fill="midnightblue" stroke="midnightblue" points="222.94,-489.66 212.34,-489.52 220.54,-496.23 222.94,-489.66"/>
</g>
<!-- Node4 -->
<g id="node4" class="node">
<title>Node4</title>
<g id="a_node4"><a xlink:href="assertion_8hpp.html" target="_top" xlink:title=" ">
<polygon fill="white" stroke="black" points="527.5,-470.5 527.5,-489.5 610.5,-489.5 610.5,-470.5 527.5,-470.5"/>
<text text-anchor="middle" x="569" y="-477.5" font-family="Helvetica,sans-Serif" font-size="10.00">assertion.hpp</text>
</a>
</g>
</g>
<!-- Node1&#45;&gt;Node4 -->
<g id="edge3" class="edge">
<title>Node1&#45;&gt;Node4</title>
<path fill="none" stroke="midnightblue" d="M373.76,-526.44C414.06,-517.06 478.81,-501.99 522.58,-491.8"/>
<polygon fill="midnightblue" stroke="midnightblue" points="523.46,-495.19 532.41,-489.52 521.88,-488.37 523.46,-495.19"/>
</g>
<!-- Node3 -->
<g id="node3" class="node">
<title>Node3</title>
<g id="a_node3"><a xlink:title=" ">
<polygon fill="white" stroke="#bfbfbf" points="760.5,-0.5 760.5,-19.5 829.5,-19.5 829.5,-0.5 760.5,-0.5"/>
<text text-anchor="middle" x="795" y="-7.5" font-family="Helvetica,sans-Serif" font-size="10.00">Eigen/Core</text>
</a>
</g>
</g>
<!-- Node2&#45;&gt;Node3 -->
<g id="edge2" class="edge">
<title>Node2&#45;&gt;Node3</title>
<path fill="none" stroke="midnightblue" d="M142.77,-470.46C86.81,-457.15 0,-425.6 0,-358 0,-358 0,-358 0,-121 0,-44.7 582.08,-18.44 750.1,-12.44"/>
<polygon fill="midnightblue" stroke="midnightblue" points="750.46,-15.93 760.33,-12.09 750.21,-8.94 750.46,-15.93"/>
</g>
<!-- Node5 -->
<g id="node5" class="node">
<title>Node5</title>
<g id="a_node5"><a xlink:title=" ">
<polygon fill="white" stroke="#bfbfbf" points="270.5,-409 270.5,-428 319.5,-428 319.5,-409 270.5,-409"/>
<text text-anchor="middle" x="295" y="-416" font-family="Helvetica,sans-Serif" font-size="10.00">cstdlib</text>
</a>
</g>
</g>
<!-- Node4&#45;&gt;Node5 -->
<g id="edge4" class="edge">
<title>Node4&#45;&gt;Node5</title>
<path fill="none" stroke="midnightblue" d="M527.15,-473.97C478.73,-467.5 396.96,-454.59 329,-434 326.85,-433.35 324.66,-432.61 322.47,-431.81"/>
<polygon fill="midnightblue" stroke="midnightblue" points="323.67,-428.52 313.08,-428.07 321.08,-435.02 323.67,-428.52"/>
</g>
<!-- Node6 -->
<g id="node6" class="node">
<title>Node6</title>
<g id="a_node6"><a xlink:title=" ">
<polygon fill="white" stroke="#bfbfbf" points="338,-409 338,-428 398,-428 398,-409 338,-409"/>
<text text-anchor="middle" x="368" y="-416" font-family="Helvetica,sans-Serif" font-size="10.00">iostream</text>
</a>
</g>
</g>
<!-- Node4&#45;&gt;Node6 -->
<g id="edge5" class="edge">
<title>Node4&#45;&gt;Node6</title>
<path fill="none" stroke="midnightblue" d="M534.93,-470.44C501.97,-461.94 450.73,-448.18 407,-434 404.59,-433.22 402.12,-432.38 399.64,-431.52"/>
<polygon fill="midnightblue" stroke="midnightblue" points="400.75,-428.2 390.16,-428.11 398.39,-434.79 400.75,-428.2"/>
</g>
<!-- Node7 -->
<g id="node7" class="node">
<title>Node7</title>
<g id="a_node7"><a xlink:title=" ">
<polygon fill="white" stroke="#bfbfbf" points="104.5,-112.5 104.5,-131.5 177.5,-131.5 177.5,-112.5 104.5,-112.5"/>
<text text-anchor="middle" x="141" y="-119.5" font-family="Helvetica,sans-Serif" font-size="10.00">string_view</text>
</a>
</g>
</g>
<!-- Node4&#45;&gt;Node7 -->
<g id="edge6" class="edge">
<title>Node4&#45;&gt;Node7</title>
<path fill="none" stroke="midnightblue" d="M527.42,-478.35C429.77,-476.27 188.54,-467.77 116,-434 72.12,-413.57 38,-406.4 38,-358 38,-358 38,-358 38,-244 38,-195.75 86.08,-156.95 116.54,-137.21"/>
<polygon fill="midnightblue" stroke="midnightblue" points="118.73,-139.97 125.36,-131.7 115.02,-134.03 118.73,-139.97"/>
</g>
<!-- Node8 -->
<g id="node8" class="node">
<title>Node8</title>
<g id="a_node8"><a xlink:href="fmt_8hpp.html" target="_top" xlink:title=" ">
<polygon fill="white" stroke="black" points="815.5,-174 815.5,-193 894.5,-193 894.5,-174 815.5,-174"/>
<text text-anchor="middle" x="855" y="-181" font-family="Helvetica,sans-Serif" font-size="10.00">utils/fmt.hpp</text>
</a>
</g>
</g>
<!-- Node4&#45;&gt;Node8 -->
<g id="edge7" class="edge">
<title>Node4&#45;&gt;Node8</title>
<path fill="none" stroke="midnightblue" d="M610.9,-477.66C655.04,-474.56 725.2,-464.71 777,-434 810.88,-413.91 819.25,-403.1 835,-367 859.27,-311.35 858.5,-237.49 856.51,-203.31"/>
<polygon fill="midnightblue" stroke="midnightblue" points="860,-203.07 855.83,-193.33 853.02,-203.55 860,-203.07"/>
</g>
<!-- Node22 -->
<g id="node22" class="node">
<title>Node22</title>
<g id="a_node22"><a xlink:title=" ">
<polygon fill="white" stroke="#bfbfbf" points="416.5,-409 416.5,-428 563.5,-428 563.5,-409 416.5,-409"/>
<text text-anchor="middle" x="490" y="-416" font-family="Helvetica,sans-Serif" font-size="10.00">boost/current_function.hpp</text>
</a>
</g>
</g>
<!-- Node4&#45;&gt;Node22 -->
<g id="edge26" class="edge">
<title>Node4&#45;&gt;Node22</title>
<path fill="none" stroke="midnightblue" d="M557.68,-470.48C545.13,-461.02 524.65,-445.6 509.5,-434.19"/>
<polygon fill="midnightblue" stroke="midnightblue" points="511.39,-431.23 501.3,-428.01 507.18,-436.82 511.39,-431.23"/>
</g>
<!-- Node23 -->
<g id="node23" class="node">
<title>Node23</title>
<g id="a_node23"><a xlink:title=" ">
<polygon fill="white" stroke="#bfbfbf" points="581.5,-403.5 581.5,-433.5 716.5,-433.5 716.5,-403.5 581.5,-403.5"/>
<text text-anchor="start" x="589.5" y="-421.5" font-family="Helvetica,sans-Serif" font-size="10.00">boost/preprocessor</text>
<text text-anchor="middle" x="649" y="-410.5" font-family="Helvetica,sans-Serif" font-size="10.00">/comparison/greater.hpp</text>
</a>
</g>
</g>
<!-- Node4&#45;&gt;Node23 -->
<g id="edge27" class="edge">
<title>Node4&#45;&gt;Node23</title>
<path fill="none" stroke="midnightblue" d="M580.46,-470.48C591.2,-462.49 607.65,-450.25 621.75,-439.77"/>
<polygon fill="midnightblue" stroke="midnightblue" points="624.21,-442.3 630.15,-433.52 620.03,-436.68 624.21,-442.3"/>
</g>
<!-- Node24 -->
<g id="node24" class="node">
<title>Node24</title>
<g id="a_node24"><a xlink:title=" ">
<polygon fill="white" stroke="#bfbfbf" points="559,-168.5 559,-198.5 669,-198.5 669,-168.5 559,-168.5"/>
<text text-anchor="start" x="567" y="-186.5" font-family="Helvetica,sans-Serif" font-size="10.00">boost/preprocessor</text>
<text text-anchor="middle" x="614" y="-175.5" font-family="Helvetica,sans-Serif" font-size="10.00">/control/if.hpp</text>
</a>
</g>
</g>
<!-- Node4&#45;&gt;Node24 -->
<g id="edge28" class="edge">
<title>Node4&#45;&gt;Node24</title>
<path fill="none" stroke="midnightblue" d="M610.84,-477.9C646,-474.7 695.16,-464.55 725,-434 749.41,-409.01 745,-392.93 745,-358 745,-358 745,-358 745,-300 745,-268.72 739.47,-257.76 718,-235 704.75,-220.96 686.78,-210.34 669.5,-202.55"/>
<polygon fill="midnightblue" stroke="midnightblue" points="670.58,-199.21 660,-198.51 667.84,-205.65 670.58,-199.21"/>
</g>
<!-- Node25 -->
<g id="node25" class="node">
<title>Node25</title>
<g id="a_node25"><a xlink:title=" ">
<polygon fill="white" stroke="#bfbfbf" points="687,-168.5 687,-198.5 797,-198.5 797,-168.5 687,-168.5"/>
<text text-anchor="start" x="695" y="-186.5" font-family="Helvetica,sans-Serif" font-size="10.00">boost/preprocessor</text>
<text text-anchor="middle" x="742" y="-175.5" font-family="Helvetica,sans-Serif" font-size="10.00">/stringize.hpp</text>
</a>
</g>
</g>
<!-- Node4&#45;&gt;Node25 -->
<g id="edge29" class="edge">
<title>Node4&#45;&gt;Node25</title>
<path fill="none" stroke="midnightblue" d="M610.79,-478.64C650.57,-476.17 709.99,-466.69 749,-434 777.36,-410.23 783,-395 783,-358 783,-358 783,-358 783,-300 783,-266.3 767.31,-230.09 755.34,-207.38"/>
<polygon fill="midnightblue" stroke="midnightblue" points="758.36,-205.61 750.5,-198.51 752.22,-208.97 758.36,-205.61"/>
</g>
<!-- Node26 -->
<g id="node26" class="node">
<title>Node26</title>
<g id="a_node26"><a xlink:title=" ">
<polygon fill="white" stroke="#bfbfbf" points="849,-403.5 849,-433.5 959,-433.5 959,-403.5 849,-403.5"/>
<text text-anchor="start" x="857" y="-421.5" font-family="Helvetica,sans-Serif" font-size="10.00">boost/preprocessor</text>
<text text-anchor="middle" x="904" y="-410.5" font-family="Helvetica,sans-Serif" font-size="10.00">/variadic/size.hpp</text>
</a>
</g>
</g>
<!-- Node4&#45;&gt;Node26 -->
<g id="edge30" class="edge">
<title>Node4&#45;&gt;Node26</title>
<path fill="none" stroke="midnightblue" d="M610.56,-472.49C662.98,-464.16 755.85,-449.01 835,-434 836.25,-433.76 837.52,-433.52 838.79,-433.27"/>
<polygon fill="midnightblue" stroke="midnightblue" points="839.54,-436.69 848.68,-431.33 838.19,-429.83 839.54,-436.69"/>
</g>
<!-- Node27 -->
<g id="node27" class="node">
<title>Node27</title>
<g id="a_node27"><a xlink:href="ArgumentFormatter_8hpp.html" target="_top" xlink:title=" ">
<polygon fill="white" stroke="black" points="390.5,-235.5 390.5,-254.5 547.5,-254.5 547.5,-235.5 390.5,-235.5"/>
<text text-anchor="middle" x="469" y="-242.5" font-family="Helvetica,sans-Serif" font-size="10.00">utils/ArgumentFormatter.hpp</text>
</a>
</g>
</g>
<!-- Node4&#45;&gt;Node27 -->
<g id="edge31" class="edge">
<title>Node4&#45;&gt;Node27</title>
<path fill="none" stroke="midnightblue" d="M527.42,-477.38C426.09,-473.06 172.67,-459.76 145,-434 98.32,-390.54 91,-339 133,-291 164.53,-254.96 291.74,-246.56 380.25,-245.22"/>
<polygon fill="midnightblue" stroke="midnightblue" points="380.35,-248.72 390.3,-245.09 380.26,-241.72 380.35,-248.72"/>
</g>
<!-- Node31 -->
<g id="node31" class="node">
<title>Node31</title>
<g id="a_node31"><a xlink:href="Parallel_8hpp.html" target="_top" xlink:title=" ">
<polygon fill="white" stroke="black" points="154,-409 154,-428 252,-428 252,-409 154,-409"/>
<text text-anchor="middle" x="203" y="-416" font-family="Helvetica,sans-Serif" font-size="10.00">utils/Parallel.hpp</text>
</a>
</g>
</g>
<!-- Node4&#45;&gt;Node31 -->
<g id="edge38" class="edge">
<title>Node4&#45;&gt;Node31</title>
<path fill="none" stroke="midnightblue" d="M527.43,-474.26C468.04,-467.2 355.63,-452.69 261,-434 255.65,-432.94 250.06,-431.71 244.55,-430.42"/>
<polygon fill="midnightblue" stroke="midnightblue" points="245.32,-427.01 234.78,-428.05 243.68,-433.81 245.32,-427.01"/>
</g>
<!-- Node40 -->
<g id="node40" class="node">
<title>Node40</title>
<g id="a_node40"><a xlink:href="stacktrace_8hpp.html" target="_top" xlink:title=" ">
<polygon fill="white" stroke="black" points="975.5,-291.5 975.5,-310.5 1088.5,-310.5 1088.5,-291.5 975.5,-291.5"/>
<text text-anchor="middle" x="1032" y="-298.5" font-family="Helvetica,sans-Serif" font-size="10.00">utils/stacktrace.hpp</text>
</a>
</g>
</g>
<!-- Node4&#45;&gt;Node40 -->
<g id="edge54" class="edge">
<title>Node4&#45;&gt;Node40</title>
<path fill="none" stroke="midnightblue" d="M610.84,-478.13C720.46,-475.42 1009.53,-465.33 1038,-434 1066.32,-402.84 1050.94,-348.5 1039.97,-320.24"/>
<polygon fill="midnightblue" stroke="midnightblue" points="1043.13,-318.71 1036.09,-310.79 1036.65,-321.37 1043.13,-318.71"/>
</g>
<!-- Node41 -->
<g id="node41" class="node">
<title>Node41</title>
<g id="a_node41"><a xlink:title=" ">
<polygon fill="white" stroke="#bfbfbf" points="977,-409 977,-428 1029,-428 1029,-409 977,-409"/>
<text text-anchor="middle" x="1003" y="-416" font-family="Helvetica,sans-Serif" font-size="10.00">cassert</text>
</a>
</g>
</g>
<!-- Node4&#45;&gt;Node41 -->
<g id="edge56" class="edge">
<title>Node4&#45;&gt;Node41</title>
<path fill="none" stroke="midnightblue" d="M610.76,-478.12C684.16,-475.74 840.6,-466.88 968,-434 970.51,-433.35 973.07,-432.56 975.62,-431.69"/>
<polygon fill="midnightblue" stroke="midnightblue" points="977.09,-434.87 985.17,-428.02 974.58,-428.34 977.09,-434.87"/>
</g>
<!-- Node8&#45;&gt;Node7 -->
<g id="edge9" class="edge">
<title>Node8&#45;&gt;Node7</title>
<path fill="none" stroke="midnightblue" d="M830.08,-173.97C822.43,-171.67 813.95,-169.43 806,-168 576.78,-126.85 296.96,-122.59 187.77,-122.65"/>
<polygon fill="midnightblue" stroke="midnightblue" points="187.74,-119.15 177.75,-122.67 187.75,-126.15 187.74,-119.15"/>
</g>
<!-- Node9 -->
<g id="node9" class="node">
<title>Node9</title>
<g id="a_node9"><a xlink:title=" ">
<polygon fill="white" stroke="#bfbfbf" points="926,-112.5 926,-131.5 970,-131.5 970,-112.5 926,-112.5"/>
<text text-anchor="middle" x="948" y="-119.5" font-family="Helvetica,sans-Serif" font-size="10.00">string</text>
</a>
</g>
</g>
<!-- Node8&#45;&gt;Node9 -->
<g id="edge8" class="edge">
<title>Node8&#45;&gt;Node9</title>
<path fill="none" stroke="midnightblue" d="M868.32,-173.98C883.38,-164.34 908.12,-148.52 926.04,-137.05"/>
<polygon fill="midnightblue" stroke="midnightblue" points="928.16,-139.85 934.7,-131.51 924.39,-133.95 928.16,-139.85"/>
</g>
<!-- Node10 -->
<g id="node10" class="node">
<title>Node10</title>
<g id="a_node10"><a xlink:title=" ">
<polygon fill="white" stroke="#bfbfbf" points="687.5,-56.5 687.5,-75.5 766.5,-75.5 766.5,-56.5 687.5,-56.5"/>
<text text-anchor="middle" x="727" y="-63.5" font-family="Helvetica,sans-Serif" font-size="10.00">fmt/format.h</text>
</a>
</g>
</g>
<!-- Node8&#45;&gt;Node10 -->
<g id="edge10" class="edge">
<title>Node8&#45;&gt;Node10</title>
<path fill="none" stroke="midnightblue" d="M843.76,-173.87C831.14,-164.05 810.16,-147.38 793,-132 775.15,-116 755.71,-96.6 742.58,-83.18"/>
<polygon fill="midnightblue" stroke="midnightblue" points="744.78,-80.41 735.3,-75.68 739.75,-85.29 744.78,-80.41"/>
</g>
<!-- Node11 -->
<g id="node11" class="node">
<title>Node11</title>
<g id="a_node11"><a xlink:title=" ">
<polygon fill="white" stroke="#bfbfbf" points="660,-112.5 660,-131.5 746,-131.5 746,-112.5 660,-112.5"/>
<text text-anchor="middle" x="703" y="-119.5" font-family="Helvetica,sans-Serif" font-size="10.00">fmt/ostream.h</text>
</a>
</g>
</g>
<!-- Node8&#45;&gt;Node11 -->
<g id="edge11" class="edge">
<title>Node8&#45;&gt;Node11</title>
<path fill="none" stroke="midnightblue" d="M833.22,-173.98C807.26,-163.81 763.69,-146.76 734.17,-135.2"/>
<polygon fill="midnightblue" stroke="midnightblue" points="735.33,-131.9 724.74,-131.51 732.77,-138.41 735.33,-131.9"/>
</g>
<!-- Node12 -->
<g id="node12" class="node">
<title>Node12</title>
<g id="a_node12"><a xlink:href="fmtEigen_8hpp.html" target="_top" xlink:title=" ">
<polygon fill="white" stroke="black" points="802,-112.5 802,-131.5 908,-131.5 908,-112.5 802,-112.5"/>
<text text-anchor="middle" x="855" y="-119.5" font-family="Helvetica,sans-Serif" font-size="10.00">utils/fmtEigen.hpp</text>
</a>
</g>
</g>
<!-- Node8&#45;&gt;Node12 -->
<g id="edge12" class="edge">
<title>Node8&#45;&gt;Node12</title>
<path fill="none" stroke="midnightblue" d="M855,-173.98C855,-165.58 855,-152.48 855,-141.66"/>
<polygon fill="midnightblue" stroke="midnightblue" points="858.5,-141.51 855,-131.51 851.5,-141.51 858.5,-141.51"/>
</g>
<!-- Node16 -->
<g id="node16" class="node">
<title>Node16</title>
<g id="a_node16"><a xlink:href="fmtSTL_8hpp.html" target="_top" xlink:title=" ">
<polygon fill="white" stroke="black" points="535,-112.5 535,-131.5 631,-131.5 631,-112.5 535,-112.5"/>
<text text-anchor="middle" x="583" y="-119.5" font-family="Helvetica,sans-Serif" font-size="10.00">utils/fmtSTL.hpp</text>
</a>
</g>
</g>
<!-- Node8&#45;&gt;Node16 -->
<g id="edge19" class="edge">
<title>Node8&#45;&gt;Node16</title>
<path fill="none" stroke="midnightblue" d="M827.65,-173.94C820.62,-171.87 813.06,-169.75 806,-168 750.41,-154.19 686.23,-141.59 641.04,-133.25"/>
<polygon fill="midnightblue" stroke="midnightblue" points="641.59,-129.8 631.12,-131.44 640.33,-136.68 641.59,-129.8"/>
</g>
<!-- Node12&#45;&gt;Node3 -->
<g id="edge13" class="edge">
<title>Node12&#45;&gt;Node3</title>
<path fill="none" stroke="midnightblue" d="M844.81,-112.35C835.53,-103.94 822.07,-90.38 814,-76 805.91,-61.58 800.97,-43.39 798.17,-29.92"/>
<polygon fill="midnightblue" stroke="midnightblue" points="801.57,-29.09 796.29,-19.91 794.69,-30.38 801.57,-29.09"/>
</g>
<!-- Node12&#45;&gt;Node10 -->
<g id="edge15" class="edge">
<title>Node12&#45;&gt;Node10</title>
<path fill="none" stroke="midnightblue" d="M834.72,-112.44C813.65,-103.56 780.48,-89.56 756.51,-79.45"/>
<polygon fill="midnightblue" stroke="midnightblue" points="757.76,-76.18 747.19,-75.52 755.04,-82.63 757.76,-76.18"/>
</g>
<!-- Node13 -->
<g id="node13" class="node">
<title>Node13</title>
<g id="a_node13"><a xlink:title=" ">
<polygon fill="white" stroke="#bfbfbf" points="823,-56.5 823,-75.5 887,-75.5 887,-56.5 823,-56.5"/>
<text text-anchor="middle" x="855" y="-63.5" font-family="Helvetica,sans-Serif" font-size="10.00">algorithm</text>
</a>
</g>
</g>
<!-- Node12&#45;&gt;Node13 -->
<g id="edge14" class="edge">
<title>Node12&#45;&gt;Node13</title>
<path fill="none" stroke="midnightblue" d="M855,-112.08C855,-105.01 855,-94.86 855,-85.99"/>
<polygon fill="midnightblue" stroke="midnightblue" points="858.5,-85.75 855,-75.75 851.5,-85.75 858.5,-85.75"/>
</g>
<!-- Node14 -->
<g id="node14" class="node">
<title>Node14</title>
<g id="a_node14"><a xlink:title=" ">
<polygon fill="white" stroke="#bfbfbf" points="905,-56.5 905,-75.5 961,-75.5 961,-56.5 905,-56.5"/>
<text text-anchor="middle" x="933" y="-63.5" font-family="Helvetica,sans-Serif" font-size="10.00">sstream</text>
</a>
</g>
</g>
<!-- Node12&#45;&gt;Node14 -->
<g id="edge16" class="edge">
<title>Node12&#45;&gt;Node14</title>
<path fill="none" stroke="midnightblue" d="M867.53,-112.32C879.59,-103.98 898.03,-91.21 912.27,-81.35"/>
<polygon fill="midnightblue" stroke="midnightblue" points="914.27,-84.22 920.5,-75.65 910.28,-78.47 914.27,-84.22"/>
</g>
<!-- Node15 -->
<g id="node15" class="node">
<title>Node15</title>
<g id="a_node15"><a xlink:href="EigenIO_8hpp.html" target="_top" xlink:title=" ">
<polygon fill="white" stroke="black" points="979.5,-56.5 979.5,-75.5 1078.5,-75.5 1078.5,-56.5 979.5,-56.5"/>
<text text-anchor="middle" x="1029" y="-63.5" font-family="Helvetica,sans-Serif" font-size="10.00">utils/EigenIO.hpp</text>
</a>
</g>
</g>
<!-- Node12&#45;&gt;Node15 -->
<g id="edge17" class="edge">
<title>Node12&#45;&gt;Node15</title>
<path fill="none" stroke="midnightblue" d="M882.57,-112.44C912.1,-103.28 959.12,-88.69 991.88,-78.52"/>
<polygon fill="midnightblue" stroke="midnightblue" points="993.04,-81.82 1001.56,-75.52 990.97,-75.14 993.04,-81.82"/>
</g>
<!-- Node15&#45;&gt;Node3 -->
<g id="edge18" class="edge">
<title>Node15&#45;&gt;Node3</title>
<path fill="none" stroke="midnightblue" d="M991.92,-56.44C950.56,-46.9 883.66,-31.46 839.5,-21.27"/>
<polygon fill="midnightblue" stroke="midnightblue" points="840.15,-17.83 829.62,-18.99 838.57,-24.65 840.15,-17.83"/>
</g>
<!-- Node16&#45;&gt;Node10 -->
<g id="edge22" class="edge">
<title>Node16&#45;&gt;Node10</title>
<path fill="none" stroke="midnightblue" d="M605.82,-112.44C629.83,-103.44 667.83,-89.19 694.87,-79.05"/>
<polygon fill="midnightblue" stroke="midnightblue" points="696.16,-82.3 704.29,-75.52 693.7,-75.75 696.16,-82.3"/>
</g>
<!-- Node17 -->
<g id="node17" class="node">
<title>Node17</title>
<g id="a_node17"><a xlink:title=" ">
<polygon fill="white" stroke="#bfbfbf" points="562,-56.5 562,-75.5 604,-75.5 604,-56.5 562,-56.5"/>
<text text-anchor="middle" x="583" y="-63.5" font-family="Helvetica,sans-Serif" font-size="10.00">array</text>
</a>
</g>
</g>
<!-- Node16&#45;&gt;Node17 -->
<g id="edge20" class="edge">
<title>Node16&#45;&gt;Node17</title>
<path fill="none" stroke="midnightblue" d="M583,-112.08C583,-105.01 583,-94.86 583,-85.99"/>
<polygon fill="midnightblue" stroke="midnightblue" points="586.5,-85.75 583,-75.75 579.5,-85.75 586.5,-85.75"/>
</g>
<!-- Node18 -->
<g id="node18" class="node">
<title>Node18</title>
<g id="a_node18"><a xlink:title=" ">
<polygon fill="white" stroke="#bfbfbf" points="622.5,-56.5 622.5,-75.5 669.5,-75.5 669.5,-56.5 622.5,-56.5"/>
<text text-anchor="middle" x="646" y="-63.5" font-family="Helvetica,sans-Serif" font-size="10.00">deque</text>
</a>
</g>
</g>
<!-- Node16&#45;&gt;Node18 -->
<g id="edge21" class="edge">
<title>Node16&#45;&gt;Node18</title>
<path fill="none" stroke="midnightblue" d="M593.12,-112.32C602.53,-104.26 616.74,-92.08 628.07,-82.37"/>
<polygon fill="midnightblue" stroke="midnightblue" points="630.38,-85 635.69,-75.83 625.82,-79.68 630.38,-85"/>
</g>
<!-- Node19 -->
<g id="node19" class="node">
<title>Node19</title>
<g id="a_node19"><a xlink:title=" ">
<polygon fill="white" stroke="#bfbfbf" points="456,-56.5 456,-75.5 494,-75.5 494,-56.5 456,-56.5"/>
<text text-anchor="middle" x="475" y="-63.5" font-family="Helvetica,sans-Serif" font-size="10.00">map</text>
</a>
</g>
</g>
<!-- Node16&#45;&gt;Node19 -->
<g id="edge23" class="edge">
<title>Node16&#45;&gt;Node19</title>
<path fill="none" stroke="midnightblue" d="M565.65,-112.32C548.33,-103.66 521.48,-90.24 501.5,-80.25"/>
<polygon fill="midnightblue" stroke="midnightblue" points="502.82,-77 492.31,-75.65 499.69,-83.26 502.82,-77"/>
</g>
<!-- Node20 -->
<g id="node20" class="node">
<title>Node20</title>
<g id="a_node20"><a xlink:title=" ">
<polygon fill="white" stroke="#bfbfbf" points="512,-56.5 512,-75.5 544,-75.5 544,-56.5 512,-56.5"/>
<text text-anchor="middle" x="528" y="-63.5" font-family="Helvetica,sans-Serif" font-size="10.00">set</text>
</a>
</g>
</g>
<!-- Node16&#45;&gt;Node20 -->
<g id="edge24" class="edge">
<title>Node16&#45;&gt;Node20</title>
<path fill="none" stroke="midnightblue" d="M573.92,-112.08C565.83,-104.14 553.8,-92.34 544.09,-82.8"/>
<polygon fill="midnightblue" stroke="midnightblue" points="546.5,-80.26 536.91,-75.75 541.6,-85.25 546.5,-80.26"/>
</g>
<!-- Node21 -->
<g id="node21" class="node">
<title>Node21</title>
<g id="a_node21"><a xlink:title=" ">
<polygon fill="white" stroke="#bfbfbf" points="221.5,-56.5 221.5,-75.5 268.5,-75.5 268.5,-56.5 221.5,-56.5"/>
<text text-anchor="middle" x="245" y="-63.5" font-family="Helvetica,sans-Serif" font-size="10.00">vector</text>
</a>
</g>
</g>
<!-- Node16&#45;&gt;Node21 -->
<g id="edge25" class="edge">
<title>Node16&#45;&gt;Node21</title>
<path fill="none" stroke="midnightblue" d="M534.93,-113.32C465.64,-102.25 339.4,-82.08 278.98,-72.43"/>
<polygon fill="midnightblue" stroke="midnightblue" points="279.27,-68.93 268.84,-70.81 278.16,-75.84 279.27,-68.93"/>
</g>
<!-- Node27&#45;&gt;Node8 -->
<g id="edge37" class="edge">
<title>Node27&#45;&gt;Node8</title>
<path fill="none" stroke="midnightblue" d="M543.15,-235.46C626.75,-225.59 757.37,-209.38 806,-199 810.25,-198.09 814.66,-197 819.02,-195.83"/>
<polygon fill="midnightblue" stroke="midnightblue" points="820.33,-199.1 829,-193.01 818.42,-192.37 820.33,-199.1"/>
</g>
<!-- Node27&#45;&gt;Node24 -->
<g id="edge32" class="edge">
<title>Node27&#45;&gt;Node24</title>
<path fill="none" stroke="midnightblue" d="M489.77,-235.48C510.7,-226.89 543.61,-213.38 570.31,-202.43"/>
<polygon fill="midnightblue" stroke="midnightblue" points="571.9,-205.56 579.83,-198.52 569.25,-199.08 571.9,-205.56"/>
</g>
<!-- Node27&#45;&gt;Node25 -->
<g id="edge34" class="edge">
<title>Node27&#45;&gt;Node25</title>
<path fill="none" stroke="midnightblue" d="M509.48,-235.42C549.55,-226.89 612.9,-213.34 676.98,-199.21"/>
<polygon fill="midnightblue" stroke="midnightblue" points="677.84,-202.61 686.85,-197.03 676.33,-195.77 677.84,-202.61"/>
</g>
<!-- Node28 -->
<g id="node28" class="node">
<title>Node28</title>
<g id="a_node28"><a xlink:title=" ">
<polygon fill="white" stroke="#bfbfbf" points="142.5,-168.5 142.5,-198.5 253.5,-198.5 253.5,-168.5 142.5,-168.5"/>
<text text-anchor="start" x="150.5" y="-186.5" font-family="Helvetica,sans-Serif" font-size="10.00">boost/preprocessor</text>
<text text-anchor="middle" x="198" y="-175.5" font-family="Helvetica,sans-Serif" font-size="10.00">/seq/for_each_i.hpp</text>
</a>
</g>
</g>
<!-- Node27&#45;&gt;Node28 -->
<g id="edge33" class="edge">
<title>Node27&#45;&gt;Node28</title>
<path fill="none" stroke="midnightblue" d="M429.29,-235.48C389.72,-226.96 326.95,-213.38 263.95,-199.42"/>
<polygon fill="midnightblue" stroke="midnightblue" points="264.36,-195.93 253.84,-197.18 262.85,-202.76 264.36,-195.93"/>
</g>
<!-- Node29 -->
<g id="node29" class="node">
<title>Node29</title>
<g id="a_node29"><a xlink:title=" ">
<polygon fill="white" stroke="#bfbfbf" points="271.5,-168.5 271.5,-198.5 386.5,-198.5 386.5,-168.5 271.5,-168.5"/>
<text text-anchor="start" x="279.5" y="-186.5" font-family="Helvetica,sans-Serif" font-size="10.00">boost/preprocessor</text>
<text text-anchor="middle" x="329" y="-175.5" font-family="Helvetica,sans-Serif" font-size="10.00">/variadic/to_seq.hpp</text>
</a>
</g>
</g>
<!-- Node27&#45;&gt;Node29 -->
<g id="edge35" class="edge">
<title>Node27&#45;&gt;Node29</title>
<path fill="none" stroke="midnightblue" d="M448.94,-235.48C428.83,-226.93 397.24,-213.5 371.53,-202.57"/>
<polygon fill="midnightblue" stroke="midnightblue" points="372.57,-199.21 362,-198.52 369.83,-205.66 372.57,-199.21"/>
</g>
<!-- Node30 -->
<g id="node30" class="node">
<title>Node30</title>
<g id="a_node30"><a xlink:title=" ">
<polygon fill="white" stroke="#bfbfbf" points="405,-174 405,-193 541,-193 541,-174 405,-174"/>
<text text-anchor="middle" x="473" y="-181" font-family="Helvetica,sans-Serif" font-size="10.00">boost/vmd/is_empty.hpp</text>
</a>
</g>
</g>
<!-- Node27&#45;&gt;Node30 -->
<g id="edge36" class="edge">
<title>Node27&#45;&gt;Node30</title>
<path fill="none" stroke="midnightblue" d="M469.57,-235.48C470.14,-227.08 471.02,-213.98 471.75,-203.16"/>
<polygon fill="midnightblue" stroke="midnightblue" points="475.25,-203.22 472.43,-193.01 468.26,-202.75 475.25,-203.22"/>
</g>
<!-- Node31&#45;&gt;Node9 -->
<g id="edge42" class="edge">
<title>Node31&#45;&gt;Node9</title>
<path fill="none" stroke="midnightblue" d="M233.52,-408.98C242.34,-406.77 252,-404.56 261,-403 419.86,-375.37 468.9,-417.59 622,-367 760.16,-321.35 800.33,-302.11 903,-199 919.84,-182.08 932.84,-157.63 940.45,-141.07"/>
<polygon fill="midnightblue" stroke="midnightblue" points="943.65,-142.48 944.47,-131.91 937.24,-139.66 943.65,-142.48"/>
</g>
<!-- Node31&#45;&gt;Node21 -->
<g id="edge43" class="edge">
<title>Node31&#45;&gt;Node21</title>
<path fill="none" stroke="midnightblue" d="M180.29,-409C143.77,-393.67 76,-357.73 76,-302 76,-302 76,-302 76,-182.5 76,-150.05 72.38,-135.27 95,-112 125.53,-80.6 177.02,-70.9 211.01,-68.02"/>
<polygon fill="midnightblue" stroke="midnightblue" points="211.65,-71.49 221.38,-67.31 211.17,-64.5 211.65,-71.49"/>
</g>
<!-- Node32 -->
<g id="node32" class="node">
<title>Node32</title>
<g id="a_node32"><a xlink:title=" ">
<polygon fill="white" stroke="#bfbfbf" points="142,-347.5 142,-366.5 190,-366.5 190,-347.5 142,-347.5"/>
<text text-anchor="middle" x="166" y="-354.5" font-family="Helvetica,sans-Serif" font-size="10.00">iosfwd</text>
</a>
</g>
</g>
<!-- Node31&#45;&gt;Node32 -->
<g id="edge39" class="edge">
<title>Node31&#45;&gt;Node32</title>
<path fill="none" stroke="midnightblue" d="M197.7,-408.98C192.26,-400.23 183.64,-386.37 176.76,-375.31"/>
<polygon fill="midnightblue" stroke="midnightblue" points="179.54,-373.15 171.29,-366.51 173.6,-376.85 179.54,-373.15"/>
</g>
<!-- Node33 -->
<g id="node33" class="node">
<title>Node33</title>
<g id="a_node33"><a xlink:title=" ">
<polygon fill="white" stroke="#bfbfbf" points="142,-291.5 142,-310.5 200,-310.5 200,-291.5 142,-291.5"/>
<text text-anchor="middle" x="171" y="-298.5" font-family="Helvetica,sans-Serif" font-size="10.00">memory</text>
</a>
</g>
</g>
<!-- Node31&#45;&gt;Node33 -->
<g id="edge40" class="edge">
<title>Node31&#45;&gt;Node33</title>
<path fill="none" stroke="midnightblue" d="M235.74,-408.93C243.96,-406.88 252.78,-404.78 261,-403 349.54,-383.82 516.18,-415.6 457,-347 421.34,-305.67 267.74,-320.6 214,-311 212.73,-310.77 211.45,-310.54 210.15,-310.3"/>
<polygon fill="midnightblue" stroke="midnightblue" points="210.58,-306.81 200.1,-308.33 209.24,-313.69 210.58,-306.81"/>
</g>
<!-- Node34 -->
<g id="node34" class="node">
<title>Node34</title>
<g id="a_node34"><a xlink:title=" ">
<polygon fill="white" stroke="#bfbfbf" points="208,-347.5 208,-366.5 264,-366.5 264,-347.5 208,-347.5"/>
<text text-anchor="middle" x="236" y="-354.5" font-family="Helvetica,sans-Serif" font-size="10.00">optional</text>
</a>
</g>
</g>
<!-- Node31&#45;&gt;Node34 -->
<g id="edge41" class="edge">
<title>Node31&#45;&gt;Node34</title>
<path fill="none" stroke="midnightblue" d="M207.73,-408.98C212.58,-400.23 220.27,-386.37 226.4,-375.31"/>
<polygon fill="midnightblue" stroke="midnightblue" points="229.49,-376.95 231.28,-366.51 223.37,-373.56 229.49,-376.95"/>
</g>
<!-- Node35 -->
<g id="node35" class="node">
<title>Node35</title>
<g id="a_node35"><a xlink:href="Logger_8hpp.html" target="_top" xlink:title=" ">
<polygon fill="white" stroke="black" points="504.5,-347.5 504.5,-366.5 613.5,-366.5 613.5,-347.5 504.5,-347.5"/>
<text text-anchor="middle" x="559" y="-354.5" font-family="Helvetica,sans-Serif" font-size="10.00">logging/Logger.hpp</text>
</a>
</g>
</g>
<!-- Node31&#45;&gt;Node35 -->
<g id="edge44" class="edge">
<title>Node31&#45;&gt;Node35</title>
<path fill="none" stroke="midnightblue" d="M234.79,-408.97C243.27,-406.86 252.45,-404.71 261,-403 304.37,-394.33 420.4,-377.48 494.23,-367.05"/>
<polygon fill="midnightblue" stroke="midnightblue" points="494.94,-370.48 504.35,-365.62 493.96,-363.55 494.94,-370.48"/>
</g>
<!-- Node38 -->
<g id="node38" class="node">
<title>Node38</title>
<g id="a_node38"><a xlink:href="types_8hpp.html" target="_top" xlink:title=" ">
<polygon fill="white" stroke="black" points="282.5,-347.5 282.5,-366.5 385.5,-366.5 385.5,-347.5 282.5,-347.5"/>
<text text-anchor="middle" x="334" y="-354.5" font-family="Helvetica,sans-Serif" font-size="10.00">precice/types.hpp</text>
</a>
</g>
</g>
<!-- Node31&#45;&gt;Node38 -->
<g id="edge52" class="edge">
<title>Node31&#45;&gt;Node38</title>
<path fill="none" stroke="midnightblue" d="M221.77,-408.98C243.85,-398.95 280.72,-382.2 306.14,-370.65"/>
<polygon fill="midnightblue" stroke="midnightblue" points="307.61,-373.83 315.27,-366.51 304.71,-367.46 307.61,-373.83"/>
</g>
<!-- Node39 -->
<g id="node39" class="node">
<title>Node39</title>
<g id="a_node39"><a xlink:title=" ">
<polygon fill="white" stroke="#bfbfbf" points="404,-347.5 404,-366.5 448,-366.5 448,-347.5 404,-347.5"/>
<text text-anchor="middle" x="426" y="-354.5" font-family="Helvetica,sans-Serif" font-size="10.00">mpi.h</text>
</a>
</g>
</g>
<!-- Node31&#45;&gt;Node39 -->
<g id="edge53" class="edge">
<title>Node31&#45;&gt;Node39</title>
<path fill="none" stroke="midnightblue" d="M235.83,-408.99C273.91,-399.07 338.57,-382.12 394,-367 394.1,-366.97 394.2,-366.94 394.3,-366.92"/>
<polygon fill="midnightblue" stroke="midnightblue" points="395.27,-370.28 403.98,-364.24 393.41,-363.53 395.27,-370.28"/>
</g>
<!-- Node35&#45;&gt;Node7 -->
<g id="edge46" class="edge">
<title>Node35&#45;&gt;Node7</title>
<path fill="none" stroke="midnightblue" d="M519.46,-347.44C422.79,-325.64 179.04,-265.03 133,-199 121.3,-182.22 126.6,-158.07 132.66,-141.53"/>
<polygon fill="midnightblue" stroke="midnightblue" points="136.05,-142.49 136.59,-131.91 129.57,-139.84 136.05,-142.49"/>
</g>
<!-- Node35&#45;&gt;Node33 -->
<g id="edge45" class="edge">
<title>Node35&#45;&gt;Node33</title>
<path fill="none" stroke="midnightblue" d="M504.42,-348.88C407.28,-336.22 214.45,-311.08 214,-311 212.73,-310.78 211.44,-310.56 210.14,-310.32"/>
<polygon fill="midnightblue" stroke="midnightblue" points="210.57,-306.84 200.09,-308.4 209.25,-313.72 210.57,-306.84"/>
</g>
<!-- Node36 -->
<g id="node36" class="node">
<title>Node36</title>
<g id="a_node36"><a xlink:href="LogMacros_8hpp.html" target="_top" xlink:title=" ">
<polygon fill="white" stroke="black" points="519,-291.5 519,-310.5 609,-310.5 609,-291.5 519,-291.5"/>
<text text-anchor="middle" x="564" y="-298.5" font-family="Helvetica,sans-Serif" font-size="10.00">LogMacros.hpp</text>
</a>
</g>
</g>
<!-- Node35&#45;&gt;Node36 -->
<g id="edge47" class="edge">
<title>Node35&#45;&gt;Node36</title>
<path fill="none" stroke="midnightblue" d="M559.83,-347.08C560.48,-340.01 561.42,-329.86 562.24,-320.99"/>
<polygon fill="midnightblue" stroke="midnightblue" points="565.75,-321.03 563.19,-310.75 558.78,-320.39 565.75,-321.03"/>
</g>
<!-- Node36&#45;&gt;Node8 -->
<g id="edge48" class="edge">
<title>Node36&#45;&gt;Node8</title>
<path fill="none" stroke="midnightblue" d="M565.53,-291.22C568.49,-276.98 576.45,-249.02 595,-235 670.88,-177.63 713.34,-220.54 806,-199 810.08,-198.05 814.33,-196.96 818.54,-195.81"/>
<polygon fill="midnightblue" stroke="midnightblue" points="819.54,-199.16 828.19,-193.06 817.62,-192.43 819.54,-199.16"/>
</g>
<!-- Node36&#45;&gt;Node27 -->
<g id="edge49" class="edge">
<title>Node36&#45;&gt;Node27</title>
<path fill="none" stroke="midnightblue" d="M548.74,-291.32C533.78,-282.82 510.75,-269.73 493.27,-259.8"/>
<polygon fill="midnightblue" stroke="midnightblue" points="494.65,-256.55 484.23,-254.65 491.19,-262.64 494.65,-256.55"/>
</g>
<!-- Node37 -->
<g id="node37" class="node">
<title>Node37</title>
<g id="a_node37"><a xlink:href="Tracer_8hpp.html" target="_top" xlink:title=" ">
<polygon fill="white" stroke="black" points="604.5,-235.5 604.5,-254.5 709.5,-254.5 709.5,-235.5 604.5,-235.5"/>
<text text-anchor="middle" x="657" y="-242.5" font-family="Helvetica,sans-Serif" font-size="10.00">logging/Tracer.hpp</text>
</a>
</g>
</g>
<!-- Node36&#45;&gt;Node37 -->
<g id="edge50" class="edge">
<title>Node36&#45;&gt;Node37</title>
<path fill="none" stroke="midnightblue" d="M578.94,-291.32C593.59,-282.82 616.13,-269.73 633.24,-259.8"/>
<polygon fill="midnightblue" stroke="midnightblue" points="635.2,-262.7 642.1,-254.65 631.69,-256.65 635.2,-262.7"/>
</g>
<!-- Node37&#45;&gt;Node35 -->
<g id="edge51" class="edge">
<title>Node37&#45;&gt;Node35</title>
<path fill="none" stroke="midnightblue" d="M653.11,-254.68C646.94,-267.83 633.97,-293.15 618,-311 607.46,-322.78 593.47,-333.61 581.75,-341.69"/>
<polygon fill="midnightblue" stroke="midnightblue" points="579.71,-338.84 573.34,-347.3 583.6,-344.67 579.71,-338.84"/>
</g>
<!-- Node40&#45;&gt;Node9 -->
<g id="edge55" class="edge">
<title>Node40&#45;&gt;Node9</title>
<path fill="none" stroke="midnightblue" d="M1027.95,-291.46C1015.01,-264.19 974.47,-178.78 956.61,-141.13"/>
<polygon fill="midnightblue" stroke="midnightblue" points="959.66,-139.4 952.21,-131.87 953.33,-142.4 959.66,-139.4"/>
</g>
</g>
</svg>
        <g id="navigator" transform="translate(0 0)" fill="#404254">
                <rect fill="#f2f5e9" fill-opacity="0.5" stroke="#606060" stroke-width=".5" x="0" y="0" width="60" height="60"/>
                <use id="zoomplus" xlink:href="#zoomPlus" x="17" y="9" onmousedown="handleZoom(evt,'in')"/>
                <use id="zoomminus" xlink:href="#zoomMin" x="42" y="9" onmousedown="handleZoom(evt,'out')"/>
                <use id="reset" xlink:href="#resetDef" x="30" y="36" onmousedown="handleReset()"/>
                <g id="arrowUp" xlink:href="#dirArrow" transform="translate(30 24)" onmousedown="handlePan(0,-1)">
                  <use xlink:href="#rim" fill="#404040">
                        <set attributeName="fill" to="#808080" begin="arrowUp.mouseover" end="arrowUp.mouseout"/>
                  </use>
                  <path fill="none" stroke="white" stroke-width="1.5" d="M0,-3.0v7 M-2.5,-0.5L0,-3.0L2.5,-0.5"/>
                </g>
                <g id="arrowRight" xlink:href="#dirArrow" transform="rotate(90) translate(36 -43)" onmousedown="handlePan(1,0)">
                  <use xlink:href="#rim" fill="#404040">
                        <set attributeName="fill" to="#808080" begin="arrowRight.mouseover" end="arrowRight.mouseout"/>
                  </use>
                  <path fill="none" stroke="white" stroke-width="1.5" d="M0,-3.0v7 M-2.5,-0.5L0,-3.0L2.5,-0.5"/>
                </g>
                <g id="arrowDown" xlink:href="#dirArrow" transform="rotate(180) translate(-30 -48)" onmousedown="handlePan(0,1)">
                  <use xlink:href="#rim" fill="#404040">
                        <set attributeName="fill" to="#808080" begin="arrowDown.mouseover" end="arrowDown.mouseout"/>
                  </use>
                  <path fill="none" stroke="white" stroke-width="1.5" d="M0,-3.0v7 M-2.5,-0.5L0,-3.0L2.5,-0.5"/>
                </g>
                <g id="arrowLeft" xlink:href="#dirArrow" transform="rotate(270) translate(-36 17)" onmousedown="handlePan(-1,0)">
                  <use xlink:href="#rim" fill="#404040">
                        <set attributeName="fill" to="#808080" begin="arrowLeft.mouseover" end="arrowLeft.mouseout"/>
                  </use>
                  <path fill="none" stroke="white" stroke-width="1.5" d="M0,-3.0v7 M-2.5,-0.5L0,-3.0L2.5,-0.5"/>
                </g>
        </g>
        <svg viewBox="0 0 15 15" width="100%" height="30px" preserveAspectRatio="xMaxYMin meet">
         <g id="arrow_out" transform="scale(0.3 0.3)">
          <a xlink:href="Dimensions_8cpp__incl_org.svg" target="_base">
           <rect id="button" ry="5" rx="5" y="6" x="6" height="38" width="38"
                fill="#f2f5e9" fill-opacity="0.5" stroke="#606060" stroke-width="1.0"/>
           <path id="arrow"
             d="M 11.500037,31.436501 C 11.940474,20.09759 22.043105,11.32322 32.158766,21.979434 L 37.068811,17.246167 C 37.068811,17.246167 37.088388,32 37.088388,32 L 22.160133,31.978069 C 22.160133,31.978069 26.997745,27.140456 26.997745,27.140456 C 18.528582,18.264221 13.291696,25.230495 11.500037,31.436501 z"
             style="fill:#404040;"/>
          </a>
         </g>
        </svg>
</svg>
