<?xml version="1.0" encoding="UTF-8" standalone="no"?>
<!DOCTYPE svg PUBLIC "-//W3C//DTD SVG 1.1//EN"
 "http://www.w3.org/Graphics/SVG/1.1/DTD/svg11.dtd">
<!-- Generated by graphviz version 2.43.0 (0)
 -->
<!-- Title: src/utils/tests/DimensionsTest.cpp Pages: 1 -->
<svg width="2036pt" height="621pt"
 viewBox="0.00 0.00 2036.00 621.00" xmlns="http://www.w3.org/2000/svg" xmlns:xlink="http://www.w3.org/1999/xlink">
<g id="graph0" class="graph" transform="scale(1 1) rotate(0) translate(4 617)">
<title>src/utils/tests/DimensionsTest.cpp</title>
<polygon fill="white" stroke="transparent" points="-4,4 -4,-617 2032,-617 2032,4 -4,4"/>
<!-- Node1 -->
<g id="node1" class="node">
<title>Node1</title>
<g id="a_node1"><a xlink:title=" ">
<polygon fill="#bfbfbf" stroke="black" points="1047.5,-582.5 1047.5,-612.5 1190.5,-612.5 1190.5,-582.5 1047.5,-582.5"/>
<text text-anchor="start" x="1055.5" y="-600.5" font-family="Helvetica,sans-Serif" font-size="10.00">src/utils/tests/Dimensions</text>
<text text-anchor="middle" x="1119" y="-589.5" font-family="Helvetica,sans-Serif" font-size="10.00">Test.cpp</text>
</a>
</g>
</g>
<!-- Node2 -->
<g id="node2" class="node">
<title>Node2</title>
<g id="a_node2"><a xlink:title=" ">
<polygon fill="white" stroke="#bfbfbf" points="765.5,-358.5 765.5,-377.5 834.5,-377.5 834.5,-358.5 765.5,-358.5"/>
<text text-anchor="middle" x="800" y="-365.5" font-family="Helvetica,sans-Serif" font-size="10.00">Eigen/Core</text>
</a>
</g>
</g>
<!-- Node1&#45;&gt;Node2 -->
<g id="edge1" class="edge">
<title>Node1&#45;&gt;Node2</title>
<path fill="none" stroke="midnightblue" d="M1118.08,-582.39C1115.26,-543.7 1105.41,-437.3 1081,-414 1047.9,-382.4 915.57,-372.97 844.95,-370.17"/>
<polygon fill="midnightblue" stroke="midnightblue" points="844.71,-366.66 834.58,-369.79 844.45,-373.66 844.71,-366.66"/>
</g>
<!-- Node3 -->
<g id="node3" class="node">
<title>Node3</title>
<g id="a_node3"><a xlink:href="constants_8hpp.html" target="_top" xlink:title=" ">
<polygon fill="white" stroke="black" points="958.5,-414.5 958.5,-433.5 1071.5,-433.5 1071.5,-414.5 958.5,-414.5"/>
<text text-anchor="middle" x="1015" y="-421.5" font-family="Helvetica,sans-Serif" font-size="10.00">math/constants.hpp</text>
</a>
</g>
</g>
<!-- Node1&#45;&gt;Node3 -->
<g id="edge2" class="edge">
<title>Node1&#45;&gt;Node3</title>
<path fill="none" stroke="midnightblue" d="M1109.57,-582.47C1102.87,-572.4 1093.72,-558.46 1086,-546 1063.44,-509.59 1038.37,-466.1 1024.88,-442.44"/>
<polygon fill="midnightblue" stroke="midnightblue" points="1027.84,-440.56 1019.85,-433.59 1021.75,-444.02 1027.84,-440.56"/>
</g>
<!-- Node4 -->
<g id="node4" class="node">
<title>Node4</title>
<g id="a_node4"><a xlink:href="TestContext_8hpp.html" target="_top" xlink:title=" ">
<polygon fill="white" stroke="black" points="1072,-358.5 1072,-377.5 1204,-377.5 1204,-358.5 1072,-358.5"/>
<text text-anchor="middle" x="1138" y="-365.5" font-family="Helvetica,sans-Serif" font-size="10.00">testing/TestContext.hpp</text>
</a>
</g>
</g>
<!-- Node1&#45;&gt;Node4 -->
<g id="edge3" class="edge">
<title>Node1&#45;&gt;Node4</title>
<path fill="none" stroke="midnightblue" d="M1120.19,-582.27C1123.48,-542.89 1132.7,-432.49 1136.42,-387.97"/>
<polygon fill="midnightblue" stroke="midnightblue" points="1139.91,-388.18 1137.25,-377.93 1132.93,-387.6 1139.91,-388.18"/>
</g>
<!-- Node39 -->
<g id="node26" class="node">
<title>Node39</title>
<g id="a_node26"><a xlink:href="Testing_8hpp.html" target="_top" xlink:title=" ">
<polygon fill="white" stroke="black" points="1166.5,-526.5 1166.5,-545.5 1275.5,-545.5 1275.5,-526.5 1166.5,-526.5"/>
<text text-anchor="middle" x="1221" y="-533.5" font-family="Helvetica,sans-Serif" font-size="10.00">testing/Testing.hpp</text>
</a>
</g>
</g>
<!-- Node1&#45;&gt;Node39 -->
<g id="edge34" class="edge">
<title>Node1&#45;&gt;Node39</title>
<path fill="none" stroke="midnightblue" d="M1143.17,-582.4C1159.52,-572.86 1181.01,-560.32 1197.27,-550.84"/>
<polygon fill="midnightblue" stroke="midnightblue" points="1199.28,-553.72 1206.16,-545.66 1195.76,-547.67 1199.28,-553.72"/>
</g>
<!-- Node59 -->
<g id="node47" class="node">
<title>Node59</title>
<g id="a_node47"><a xlink:href="Dimensions_8hpp.html" target="_top" xlink:title=" ">
<polygon fill="white" stroke="black" points="761.5,-526.5 761.5,-545.5 880.5,-545.5 880.5,-526.5 761.5,-526.5"/>
<text text-anchor="middle" x="821" y="-533.5" font-family="Helvetica,sans-Serif" font-size="10.00">utils/Dimensions.hpp</text>
</a>
</g>
</g>
<!-- Node1&#45;&gt;Node59 -->
<g id="edge76" class="edge">
<title>Node1&#45;&gt;Node59</title>
<path fill="none" stroke="midnightblue" d="M1048.76,-582.47C995.1,-571.76 922.32,-557.23 873.62,-547.51"/>
<polygon fill="midnightblue" stroke="midnightblue" points="874.1,-544.03 863.6,-545.51 872.72,-550.9 874.1,-544.03"/>
</g>
<!-- Node60 -->
<g id="node48" class="node">
<title>Node60</title>
<g id="a_node48"><a xlink:href="String_8hpp.html" target="_top" xlink:title=" ">
<polygon fill="white" stroke="black" points="1815,-358.5 1815,-377.5 1905,-377.5 1905,-358.5 1815,-358.5"/>
<text text-anchor="middle" x="1860" y="-365.5" font-family="Helvetica,sans-Serif" font-size="10.00">utils/String.hpp</text>
</a>
</g>
</g>
<!-- Node1&#45;&gt;Node60 -->
<g id="edge78" class="edge">
<title>Node1&#45;&gt;Node60</title>
<path fill="none" stroke="midnightblue" d="M1190.68,-593.5C1345.29,-585.74 1703.93,-560.46 1800,-490 1834.23,-464.89 1850.06,-414.78 1856.39,-387.58"/>
<polygon fill="midnightblue" stroke="midnightblue" points="1859.81,-388.29 1858.49,-377.78 1852.97,-386.82 1859.81,-388.29"/>
</g>
<!-- Node5 -->
<g id="node5" class="node">
<title>Node5</title>
<g id="a_node5"><a xlink:title=" ">
<polygon fill="white" stroke="#bfbfbf" points="1147.5,-297 1147.5,-316 1212.5,-316 1212.5,-297 1147.5,-297"/>
<text text-anchor="middle" x="1180" y="-304" font-family="Helvetica,sans-Serif" font-size="10.00">stdexcept</text>
</a>
</g>
</g>
<!-- Node4&#45;&gt;Node5 -->
<g id="edge4" class="edge">
<title>Node4&#45;&gt;Node5</title>
<path fill="none" stroke="midnightblue" d="M1144.02,-358.48C1150.26,-349.64 1160.17,-335.59 1168.02,-324.48"/>
<polygon fill="midnightblue" stroke="midnightblue" points="1171.09,-326.2 1173.99,-316.01 1165.37,-322.16 1171.09,-326.2"/>
</g>
<!-- Node6 -->
<g id="node6" class="node">
<title>Node6</title>
<g id="a_node6"><a xlink:title=" ">
<polygon fill="white" stroke="#bfbfbf" points="1387,-0.5 1387,-19.5 1431,-19.5 1431,-0.5 1387,-0.5"/>
<text text-anchor="middle" x="1409" y="-7.5" font-family="Helvetica,sans-Serif" font-size="10.00">string</text>
</a>
</g>
</g>
<!-- Node4&#45;&gt;Node6 -->
<g id="edge5" class="edge">
<title>Node4&#45;&gt;Node6</title>
<path fill="none" stroke="midnightblue" d="M1170.12,-358.43C1259.48,-334.48 1505.29,-267.73 1518,-255 1539.26,-233.69 1537,-220.1 1537,-190 1537,-190 1537,-190 1537,-132 1537,-78.58 1477.39,-41.72 1439.53,-23.7"/>
<polygon fill="midnightblue" stroke="midnightblue" points="1440.97,-20.51 1430.42,-19.52 1438.06,-26.87 1440.97,-20.51"/>
</g>
<!-- Node7 -->
<g id="node7" class="node">
<title>Node7</title>
<g id="a_node7"><a xlink:title=" ">
<polygon fill="white" stroke="#bfbfbf" points="1421.5,-297 1421.5,-316 1490.5,-316 1490.5,-297 1421.5,-297"/>
<text text-anchor="middle" x="1456" y="-304" font-family="Helvetica,sans-Serif" font-size="10.00">type_traits</text>
</a>
</g>
</g>
<!-- Node4&#45;&gt;Node7 -->
<g id="edge6" class="edge">
<title>Node4&#45;&gt;Node7</title>
<path fill="none" stroke="midnightblue" d="M1183.56,-358.48C1244.28,-347.11 1351.05,-327.14 1411.32,-315.86"/>
<polygon fill="midnightblue" stroke="midnightblue" points="1412.11,-319.27 1421.29,-313.99 1410.82,-312.39 1412.11,-319.27"/>
</g>
<!-- Node8 -->
<g id="node8" class="node">
<title>Node8</title>
<g id="a_node8"><a xlink:title=" ">
<polygon fill="white" stroke="#bfbfbf" points="1045.5,-297 1045.5,-316 1090.5,-316 1090.5,-297 1045.5,-297"/>
<text text-anchor="middle" x="1068" y="-304" font-family="Helvetica,sans-Serif" font-size="10.00">utility</text>
</a>
</g>
</g>
<!-- Node4&#45;&gt;Node8 -->
<g id="edge7" class="edge">
<title>Node4&#45;&gt;Node8</title>
<path fill="none" stroke="midnightblue" d="M1127.97,-358.48C1116.95,-349.11 1099.04,-333.88 1085.66,-322.51"/>
<polygon fill="midnightblue" stroke="midnightblue" points="1087.9,-319.82 1078.01,-316.01 1083.36,-325.15 1087.9,-319.82"/>
</g>
<!-- Node9 -->
<g id="node9" class="node">
<title>Node9</title>
<g id="a_node9"><a xlink:title=" ">
<polygon fill="white" stroke="#bfbfbf" points="1314.5,-235.5 1314.5,-254.5 1361.5,-254.5 1361.5,-235.5 1314.5,-235.5"/>
<text text-anchor="middle" x="1338" y="-242.5" font-family="Helvetica,sans-Serif" font-size="10.00">vector</text>
</a>
</g>
</g>
<!-- Node4&#45;&gt;Node9 -->
<g id="edge8" class="edge">
<title>Node4&#45;&gt;Node9</title>
<path fill="none" stroke="midnightblue" d="M1163.1,-358.43C1184.97,-350.45 1217.14,-337.49 1243,-322 1272.7,-304.21 1303.31,-278.05 1321.49,-261.52"/>
<polygon fill="midnightblue" stroke="midnightblue" points="1323.94,-264.03 1328.92,-254.68 1319.2,-258.88 1323.94,-264.03"/>
</g>
<!-- Node10 -->
<g id="node10" class="node">
<title>Node10</title>
<g id="a_node10"><a xlink:href="m2n_2SharedPointer_8hpp.html" target="_top" xlink:title=" ">
<polygon fill="white" stroke="black" points="1045,-235.5 1045,-254.5 1175,-254.5 1175,-235.5 1045,-235.5"/>
<text text-anchor="middle" x="1110" y="-242.5" font-family="Helvetica,sans-Serif" font-size="10.00">m2n/SharedPointer.hpp</text>
</a>
</g>
</g>
<!-- Node4&#45;&gt;Node10 -->
<g id="edge9" class="edge">
<title>Node4&#45;&gt;Node10</title>
<path fill="none" stroke="midnightblue" d="M1135.99,-358.3C1131.47,-338.76 1120.43,-291.06 1114.29,-264.55"/>
<polygon fill="midnightblue" stroke="midnightblue" points="1117.66,-263.58 1112,-254.62 1110.84,-265.15 1117.66,-263.58"/>
</g>
<!-- Node12 -->
<g id="node12" class="node">
<title>Node12</title>
<g id="a_node12"><a xlink:href="types_8hpp.html" target="_top" xlink:title=" ">
<polygon fill="white" stroke="black" points="1193.5,-235.5 1193.5,-254.5 1296.5,-254.5 1296.5,-235.5 1193.5,-235.5"/>
<text text-anchor="middle" x="1245" y="-242.5" font-family="Helvetica,sans-Serif" font-size="10.00">precice/types.hpp</text>
</a>
</g>
</g>
<!-- Node4&#45;&gt;Node12 -->
<g id="edge11" class="edge">
<title>Node4&#45;&gt;Node12</title>
<path fill="none" stroke="midnightblue" d="M1165.87,-358.39C1184.25,-351.36 1207.53,-339.66 1222,-322 1235.49,-305.54 1241.07,-281.29 1243.38,-264.64"/>
<polygon fill="midnightblue" stroke="midnightblue" points="1246.88,-264.84 1244.51,-254.51 1239.92,-264.06 1246.88,-264.84"/>
</g>
<!-- Node13 -->
<g id="node13" class="node">
<title>Node13</title>
<g id="a_node13"><a xlink:href="Parallel_8hpp.html" target="_top" xlink:title=" ">
<polygon fill="white" stroke="black" points="891,-297 891,-316 989,-316 989,-297 891,-297"/>
<text text-anchor="middle" x="940" y="-304" font-family="Helvetica,sans-Serif" font-size="10.00">utils/Parallel.hpp</text>
</a>
</g>
</g>
<!-- Node4&#45;&gt;Node13 -->
<g id="edge12" class="edge">
<title>Node4&#45;&gt;Node13</title>
<path fill="none" stroke="midnightblue" d="M1109.63,-358.48C1075.08,-348.09 1016.58,-330.51 978.12,-318.95"/>
<polygon fill="midnightblue" stroke="midnightblue" points="978.9,-315.54 968.32,-316.01 976.89,-322.24 978.9,-315.54"/>
</g>
<!-- Node11 -->
<g id="node11" class="node">
<title>Node11</title>
<g id="a_node11"><a xlink:title=" ">
<polygon fill="white" stroke="#bfbfbf" points="1139,-179.5 1139,-198.5 1197,-198.5 1197,-179.5 1139,-179.5"/>
<text text-anchor="middle" x="1168" y="-186.5" font-family="Helvetica,sans-Serif" font-size="10.00">memory</text>
</a>
</g>
</g>
<!-- Node10&#45;&gt;Node11 -->
<g id="edge10" class="edge">
<title>Node10&#45;&gt;Node11</title>
<path fill="none" stroke="midnightblue" d="M1119.32,-235.32C1127.89,-227.34 1140.81,-215.31 1151.19,-205.65"/>
<polygon fill="midnightblue" stroke="midnightblue" points="1153.58,-208.21 1158.51,-198.83 1148.81,-203.09 1153.58,-208.21"/>
</g>
<!-- Node13&#45;&gt;Node6 -->
<g id="edge16" class="edge">
<title>Node13&#45;&gt;Node6</title>
<path fill="none" stroke="midnightblue" d="M945.1,-296.85C955.67,-278.08 979,-231.91 979,-190 979,-190 979,-190 979,-132 979,-49.41 1276.65,-20.49 1376.66,-13.11"/>
<polygon fill="midnightblue" stroke="midnightblue" points="1377.06,-16.59 1386.79,-12.38 1376.56,-9.6 1377.06,-16.59"/>
</g>
<!-- Node13&#45;&gt;Node9 -->
<g id="edge17" class="edge">
<title>Node13&#45;&gt;Node9</title>
<path fill="none" stroke="midnightblue" d="M989.33,-297.98C1004.6,-295.69 1021.49,-293.2 1037,-291 1153.28,-274.53 1186.15,-279.13 1304.52,-255.08"/>
<polygon fill="midnightblue" stroke="midnightblue" points="1305.24,-258.5 1314.33,-253.06 1303.83,-251.65 1305.24,-258.5"/>
</g>
<!-- Node13&#45;&gt;Node11 -->
<g id="edge14" class="edge">
<title>Node13&#45;&gt;Node11</title>
<path fill="none" stroke="midnightblue" d="M905.15,-296.98C853.59,-284.21 762.54,-260.97 758,-255 752.62,-247.92 752.02,-241.58 758,-235 811.86,-175.67 1031.82,-209.98 1128.55,-198.79"/>
<polygon fill="midnightblue" stroke="midnightblue" points="1129.2,-202.23 1138.62,-197.38 1128.23,-195.3 1129.2,-202.23"/>
</g>
<!-- Node13&#45;&gt;Node12 -->
<g id="edge32" class="edge">
<title>Node13&#45;&gt;Node12</title>
<path fill="none" stroke="midnightblue" d="M983.7,-296.98C1038.51,-286.28 1132.44,-267.96 1191.5,-256.44"/>
<polygon fill="midnightblue" stroke="midnightblue" points="1192.24,-259.86 1201.38,-254.51 1190.9,-252.99 1192.24,-259.86"/>
</g>
<!-- Node14 -->
<g id="node14" class="node">
<title>Node14</title>
<g id="a_node14"><a xlink:title=" ">
<polygon fill="white" stroke="#bfbfbf" points="767,-235.5 767,-254.5 815,-254.5 815,-235.5 767,-235.5"/>
<text text-anchor="middle" x="791" y="-242.5" font-family="Helvetica,sans-Serif" font-size="10.00">iosfwd</text>
</a>
</g>
</g>
<!-- Node13&#45;&gt;Node14 -->
<g id="edge13" class="edge">
<title>Node13&#45;&gt;Node14</title>
<path fill="none" stroke="midnightblue" d="M918.65,-296.98C893.31,-286.86 850.86,-269.9 821.93,-258.35"/>
<polygon fill="midnightblue" stroke="midnightblue" points="822.89,-254.97 812.31,-254.51 820.3,-261.47 822.89,-254.97"/>
</g>
<!-- Node15 -->
<g id="node15" class="node">
<title>Node15</title>
<g id="a_node15"><a xlink:title=" ">
<polygon fill="white" stroke="#bfbfbf" points="833,-235.5 833,-254.5 889,-254.5 889,-235.5 833,-235.5"/>
<text text-anchor="middle" x="861" y="-242.5" font-family="Helvetica,sans-Serif" font-size="10.00">optional</text>
</a>
</g>
</g>
<!-- Node13&#45;&gt;Node15 -->
<g id="edge15" class="edge">
<title>Node13&#45;&gt;Node15</title>
<path fill="none" stroke="midnightblue" d="M928.68,-296.98C916.13,-287.52 895.65,-272.1 880.5,-260.69"/>
<polygon fill="midnightblue" stroke="midnightblue" points="882.39,-257.73 872.3,-254.51 878.18,-263.32 882.39,-257.73"/>
</g>
<!-- Node16 -->
<g id="node16" class="node">
<title>Node16</title>
<g id="a_node16"><a xlink:href="Logger_8hpp.html" target="_top" xlink:title=" ">
<polygon fill="white" stroke="black" points="601.5,-235.5 601.5,-254.5 710.5,-254.5 710.5,-235.5 601.5,-235.5"/>
<text text-anchor="middle" x="656" y="-242.5" font-family="Helvetica,sans-Serif" font-size="10.00">logging/Logger.hpp</text>
</a>
</g>
</g>
<!-- Node13&#45;&gt;Node16 -->
<g id="edge18" class="edge">
<title>Node13&#45;&gt;Node16</title>
<path fill="none" stroke="midnightblue" d="M903.72,-296.99C894.98,-294.98 885.67,-292.88 877,-291 820.02,-278.64 754.56,-265.44 709.76,-256.55"/>
<polygon fill="midnightblue" stroke="midnightblue" points="710.17,-253.06 699.68,-254.55 708.81,-259.93 710.17,-253.06"/>
</g>
<!-- Node38 -->
<g id="node25" class="node">
<title>Node38</title>
<g id="a_node25"><a xlink:title=" ">
<polygon fill="white" stroke="#bfbfbf" points="907,-235.5 907,-254.5 951,-254.5 951,-235.5 907,-235.5"/>
<text text-anchor="middle" x="929" y="-242.5" font-family="Helvetica,sans-Serif" font-size="10.00">mpi.h</text>
</a>
</g>
</g>
<!-- Node13&#45;&gt;Node38 -->
<g id="edge33" class="edge">
<title>Node13&#45;&gt;Node38</title>
<path fill="none" stroke="midnightblue" d="M938.42,-296.98C936.87,-288.58 934.45,-275.48 932.45,-264.66"/>
<polygon fill="midnightblue" stroke="midnightblue" points="935.83,-263.71 930.57,-254.51 928.95,-264.98 935.83,-263.71"/>
</g>
<!-- Node16&#45;&gt;Node11 -->
<g id="edge19" class="edge">
<title>Node16&#45;&gt;Node11</title>
<path fill="none" stroke="midnightblue" d="M710.59,-236.67C715.46,-236.08 720.32,-235.51 725,-235 901.39,-215.67 949.88,-227.45 1128.63,-199.01"/>
<polygon fill="midnightblue" stroke="midnightblue" points="1129.31,-202.44 1138.63,-197.4 1128.2,-195.53 1129.31,-202.44"/>
</g>
<!-- Node17 -->
<g id="node17" class="node">
<title>Node17</title>
<g id="a_node17"><a xlink:title=" ">
<polygon fill="white" stroke="#bfbfbf" points="508.5,-0.5 508.5,-19.5 581.5,-19.5 581.5,-0.5 508.5,-0.5"/>
<text text-anchor="middle" x="545" y="-7.5" font-family="Helvetica,sans-Serif" font-size="10.00">string_view</text>
</a>
</g>
</g>
<!-- Node16&#45;&gt;Node17 -->
<g id="edge20" class="edge">
<title>Node16&#45;&gt;Node17</title>
<path fill="none" stroke="midnightblue" d="M672.49,-235.46C706.56,-216.61 779.45,-169.44 753,-123 719.29,-63.82 641.79,-34.29 591.5,-20.85"/>
<polygon fill="midnightblue" stroke="midnightblue" points="592.07,-17.38 581.51,-18.29 590.34,-24.16 592.07,-17.38"/>
</g>
<!-- Node18 -->
<g id="node18" class="node">
<title>Node18</title>
<g id="a_node18"><a xlink:href="LogMacros_8hpp.html" target="_top" xlink:title=" ">
<polygon fill="white" stroke="black" points="601,-179.5 601,-198.5 691,-198.5 691,-179.5 601,-179.5"/>
<text text-anchor="middle" x="646" y="-186.5" font-family="Helvetica,sans-Serif" font-size="10.00">LogMacros.hpp</text>
</a>
</g>
</g>
<!-- Node16&#45;&gt;Node18 -->
<g id="edge21" class="edge">
<title>Node16&#45;&gt;Node18</title>
<path fill="none" stroke="midnightblue" d="M654.35,-235.08C653.02,-227.93 651.12,-217.64 649.46,-208.69"/>
<polygon fill="midnightblue" stroke="midnightblue" points="652.88,-207.95 647.62,-198.75 646,-209.22 652.88,-207.95"/>
</g>
<!-- Node19 -->
<g id="node19" class="node">
<title>Node19</title>
<g id="a_node19"><a xlink:href="fmt_8hpp.html" target="_top" xlink:title=" ">
<polygon fill="white" stroke="red" points="552.5,-62 552.5,-81 631.5,-81 631.5,-62 552.5,-62"/>
<text text-anchor="middle" x="592" y="-69" font-family="Helvetica,sans-Serif" font-size="10.00">utils/fmt.hpp</text>
</a>
</g>
</g>
<!-- Node18&#45;&gt;Node19 -->
<g id="edge22" class="edge">
<title>Node18&#45;&gt;Node19</title>
<path fill="none" stroke="midnightblue" d="M641.94,-179.32C633.15,-160.51 612.17,-115.65 600.39,-90.46"/>
<polygon fill="midnightblue" stroke="midnightblue" points="603.51,-88.86 596.11,-81.28 597.17,-91.82 603.51,-88.86"/>
</g>
<!-- Node31 -->
<g id="node21" class="node">
<title>Node31</title>
<g id="a_node21"><a xlink:href="ArgumentFormatter_8hpp.html" target="_top" xlink:title=" ">
<polygon fill="white" stroke="red" points="146.5,-123.5 146.5,-142.5 303.5,-142.5 303.5,-123.5 146.5,-123.5"/>
<text text-anchor="middle" x="225" y="-130.5" font-family="Helvetica,sans-Serif" font-size="10.00">utils/ArgumentFormatter.hpp</text>
</a>
</g>
</g>
<!-- Node18&#45;&gt;Node31 -->
<g id="edge26" class="edge">
<title>Node18&#45;&gt;Node31</title>
<path fill="none" stroke="midnightblue" d="M600.95,-182.22C529.43,-173.05 389.08,-155.05 301.56,-143.82"/>
<polygon fill="midnightblue" stroke="midnightblue" points="301.79,-140.32 291.43,-142.52 300.9,-147.26 301.79,-140.32"/>
</g>
<!-- Node37 -->
<g id="node24" class="node">
<title>Node37</title>
<g id="a_node24"><a xlink:href="Tracer_8hpp.html" target="_top" xlink:title=" ">
<polygon fill="white" stroke="black" points="639.5,-123.5 639.5,-142.5 744.5,-142.5 744.5,-123.5 639.5,-123.5"/>
<text text-anchor="middle" x="692" y="-130.5" font-family="Helvetica,sans-Serif" font-size="10.00">logging/Tracer.hpp</text>
</a>
</g>
</g>
<!-- Node18&#45;&gt;Node37 -->
<g id="edge30" class="edge">
<title>Node18&#45;&gt;Node37</title>
<path fill="none" stroke="midnightblue" d="M653.6,-179.08C660.23,-171.3 670.02,-159.8 678.06,-150.37"/>
<polygon fill="midnightblue" stroke="midnightblue" points="680.73,-152.63 684.55,-142.75 675.4,-148.09 680.73,-152.63"/>
</g>
<!-- Node19&#45;&gt;Node6 -->
<g id="edge23" class="edge">
<title>Node19&#45;&gt;Node6</title>
<path fill="none" stroke="midnightblue" d="M631.68,-67.61C772.79,-57.33 1248.71,-22.67 1376.94,-13.33"/>
<polygon fill="midnightblue" stroke="midnightblue" points="1377.2,-16.83 1386.92,-12.61 1376.69,-9.84 1377.2,-16.83"/>
</g>
<!-- Node19&#45;&gt;Node17 -->
<g id="edge24" class="edge">
<title>Node19&#45;&gt;Node17</title>
<path fill="none" stroke="midnightblue" d="M585.27,-61.98C578.22,-53.05 566.97,-38.81 558.15,-27.64"/>
<polygon fill="midnightblue" stroke="midnightblue" points="560.67,-25.19 551.72,-19.51 555.17,-29.53 560.67,-25.19"/>
</g>
<!-- Node20 -->
<g id="node20" class="node">
<title>Node20</title>
<g id="a_node20"><a xlink:title=" ">
<polygon fill="white" stroke="#bfbfbf" points="599.5,-0.5 599.5,-19.5 678.5,-19.5 678.5,-0.5 599.5,-0.5"/>
<text text-anchor="middle" x="639" y="-7.5" font-family="Helvetica,sans-Serif" font-size="10.00">fmt/format.h</text>
</a>
</g>
</g>
<!-- Node19&#45;&gt;Node20 -->
<g id="edge25" class="edge">
<title>Node19&#45;&gt;Node20</title>
<path fill="none" stroke="midnightblue" d="M598.73,-61.98C605.78,-53.05 617.03,-38.81 625.85,-27.64"/>
<polygon fill="midnightblue" stroke="midnightblue" points="628.83,-29.53 632.28,-19.51 623.33,-25.19 628.83,-29.53"/>
</g>
<!-- Node31&#45;&gt;Node19 -->
<g id="edge29" class="edge">
<title>Node31&#45;&gt;Node19</title>
<path fill="none" stroke="midnightblue" d="M277.58,-123.48C348.28,-112.01 473.07,-91.78 542.27,-80.56"/>
<polygon fill="midnightblue" stroke="midnightblue" points="543.17,-83.96 552.48,-78.91 542.05,-77.05 543.17,-83.96"/>
</g>
<!-- Node32 -->
<g id="node22" class="node">
<title>Node32</title>
<g id="a_node22"><a xlink:title=" ">
<polygon fill="white" stroke="#bfbfbf" points="30,-56.5 30,-86.5 140,-86.5 140,-56.5 30,-56.5"/>
<text text-anchor="start" x="38" y="-74.5" font-family="Helvetica,sans-Serif" font-size="10.00">boost/preprocessor</text>
<text text-anchor="middle" x="85" y="-63.5" font-family="Helvetica,sans-Serif" font-size="10.00">/control/if.hpp</text>
</a>
</g>
</g>
<!-- Node31&#45;&gt;Node32 -->
<g id="edge27" class="edge">
<title>Node31&#45;&gt;Node32</title>
<path fill="none" stroke="midnightblue" d="M204.94,-123.48C184.83,-114.93 153.24,-101.5 127.53,-90.57"/>
<polygon fill="midnightblue" stroke="midnightblue" points="128.57,-87.21 118,-86.52 125.83,-93.66 128.57,-87.21"/>
</g>
<!-- Node34 -->
<g id="node23" class="node">
<title>Node34</title>
<g id="a_node23"><a xlink:title=" ">
<polygon fill="white" stroke="#bfbfbf" points="166,-56.5 166,-86.5 276,-86.5 276,-56.5 166,-56.5"/>
<text text-anchor="start" x="174" y="-74.5" font-family="Helvetica,sans-Serif" font-size="10.00">boost/preprocessor</text>
<text text-anchor="middle" x="221" y="-63.5" font-family="Helvetica,sans-Serif" font-size="10.00">/stringize.hpp</text>
</a>
</g>
</g>
<!-- Node31&#45;&gt;Node34 -->
<g id="edge28" class="edge">
<title>Node31&#45;&gt;Node34</title>
<path fill="none" stroke="midnightblue" d="M224.43,-123.48C223.96,-116.47 223.27,-106.19 222.63,-96.7"/>
<polygon fill="midnightblue" stroke="midnightblue" points="226.11,-96.27 221.94,-86.52 219.12,-96.74 226.11,-96.27"/>
</g>
<!-- Node37&#45;&gt;Node16 -->
<g id="edge31" class="edge">
<title>Node37&#45;&gt;Node16</title>
<path fill="none" stroke="midnightblue" d="M695.74,-142.77C700.63,-155.61 707.73,-180.05 700,-199 695.2,-210.77 685.67,-221.14 676.71,-228.95"/>
<polygon fill="midnightblue" stroke="midnightblue" points="674.35,-226.36 668.78,-235.37 678.75,-231.8 674.35,-226.36"/>
</g>
<!-- Node39&#45;&gt;Node2 -->
<g id="edge35" class="edge">
<title>Node39&#45;&gt;Node2</title>
<path fill="none" stroke="midnightblue" d="M1216.37,-526.41C1203.56,-503.59 1165.19,-441.36 1114,-414 1009.18,-357.97 966.37,-396.74 849,-378 847.7,-377.79 846.39,-377.58 845.06,-377.36"/>
<polygon fill="midnightblue" stroke="midnightblue" points="845.21,-373.83 834.76,-375.59 844.03,-380.73 845.21,-373.83"/>
</g>
<!-- Node39&#45;&gt;Node4 -->
<g id="edge62" class="edge">
<title>Node39&#45;&gt;Node4</title>
<path fill="none" stroke="midnightblue" d="M1220.54,-526.4C1219.08,-505.58 1213.16,-451.43 1190,-414 1182.54,-401.94 1170.81,-391.39 1160.38,-383.54"/>
<polygon fill="midnightblue" stroke="midnightblue" points="1162.22,-380.55 1152.05,-377.61 1158.16,-386.26 1162.22,-380.55"/>
</g>
<!-- Node39&#45;&gt;Node6 -->
<g id="edge37" class="edge">
<title>Node39&#45;&gt;Node6</title>
<path fill="none" stroke="midnightblue" d="M1275.69,-535.82C1417.48,-536.5 1786,-528.3 1786,-425 1786,-425 1786,-425 1786,-132 1786,-59.84 1532.46,-24.66 1441.22,-14.33"/>
<polygon fill="midnightblue" stroke="midnightblue" points="1441.5,-10.84 1431.18,-13.22 1440.73,-17.8 1441.5,-10.84"/>
</g>
<!-- Node39&#45;&gt;Node7 -->
<g id="edge38" class="edge">
<title>Node39&#45;&gt;Node7</title>
<path fill="none" stroke="midnightblue" d="M1236.04,-526.44C1263.63,-510.35 1323.48,-473.65 1367,-434 1391.02,-412.12 1395.18,-404.49 1414,-378 1426.34,-360.64 1438.59,-339.51 1446.65,-324.94"/>
<polygon fill="midnightblue" stroke="midnightblue" points="1449.79,-326.48 1451.51,-316.02 1443.65,-323.13 1449.79,-326.48"/>
</g>
<!-- Node40 -->
<g id="node27" class="node">
<title>Node40</title>
<g id="a_node27"><a xlink:title=" ">
<polygon fill="white" stroke="#bfbfbf" points="1484,-470.5 1484,-489.5 1616,-489.5 1616,-470.5 1484,-470.5"/>
<text text-anchor="middle" x="1550" y="-477.5" font-family="Helvetica,sans-Serif" font-size="10.00">boost/test/unit_test.hpp</text>
</a>
</g>
</g>
<!-- Node39&#45;&gt;Node40 -->
<g id="edge36" class="edge">
<title>Node39&#45;&gt;Node40</title>
<path fill="none" stroke="midnightblue" d="M1273.13,-526.44C1331.49,-516.87 1425.98,-501.36 1488.06,-491.17"/>
<polygon fill="midnightblue" stroke="midnightblue" points="1488.81,-494.59 1498.11,-489.52 1487.68,-487.68 1488.81,-494.59"/>
</g>
<!-- Node41 -->
<g id="node28" class="node">
<title>Node41</title>
<g id="a_node28"><a xlink:href="differences_8hpp.html" target="_top" xlink:title=" ">
<polygon fill="white" stroke="black" points="727,-414.5 727,-433.5 847,-433.5 847,-414.5 727,-414.5"/>
<text text-anchor="middle" x="787" y="-421.5" font-family="Helvetica,sans-Serif" font-size="10.00">math/differences.hpp</text>
</a>
</g>
</g>
<!-- Node39&#45;&gt;Node41 -->
<g id="edge39" class="edge">
<title>Node39&#45;&gt;Node41</title>
<path fill="none" stroke="midnightblue" d="M1166.23,-535.13C1098.17,-533.63 979.49,-525.5 885,-490 854.15,-478.41 823.24,-455.59 804.61,-440.31"/>
<polygon fill="midnightblue" stroke="midnightblue" points="806.64,-437.45 796.73,-433.69 802.14,-442.81 806.64,-437.45"/>
</g>
<!-- Node50 -->
<g id="node37" class="node">
<title>Node50</title>
<g id="a_node37"><a xlink:href="math_8hpp.html" target="_top" xlink:title=" ">
<polygon fill="white" stroke="black" points="894,-470.5 894,-489.5 986,-489.5 986,-470.5 894,-470.5"/>
<text text-anchor="middle" x="940" y="-477.5" font-family="Helvetica,sans-Serif" font-size="10.00">math/math.hpp</text>
</a>
</g>
</g>
<!-- Node39&#45;&gt;Node50 -->
<g id="edge56" class="edge">
<title>Node39&#45;&gt;Node50</title>
<path fill="none" stroke="midnightblue" d="M1176.47,-526.44C1127.04,-516.94 1047.25,-501.61 994.22,-491.42"/>
<polygon fill="midnightblue" stroke="midnightblue" points="994.8,-487.97 984.32,-489.52 993.48,-494.84 994.8,-487.97"/>
</g>
<!-- Node52 -->
<g id="node39" class="node">
<title>Node52</title>
<g id="a_node39"><a xlink:href="IntraComm_8hpp.html" target="_top" xlink:title=" ">
<polygon fill="white" stroke="black" points="1242,-414.5 1242,-433.5 1358,-433.5 1358,-414.5 1242,-414.5"/>
<text text-anchor="middle" x="1300" y="-421.5" font-family="Helvetica,sans-Serif" font-size="10.00">utils/IntraComm.hpp</text>
</a>
</g>
</g>
<!-- Node39&#45;&gt;Node52 -->
<g id="edge63" class="edge">
<title>Node39&#45;&gt;Node52</title>
<path fill="none" stroke="midnightblue" d="M1227.2,-526.37C1240.24,-508.22 1270.7,-465.8 1287.8,-441.99"/>
<polygon fill="midnightblue" stroke="midnightblue" points="1290.84,-443.76 1293.83,-433.59 1285.15,-439.67 1290.84,-443.76"/>
</g>
<!-- Node41&#45;&gt;Node2 -->
<g id="edge40" class="edge">
<title>Node41&#45;&gt;Node2</title>
<path fill="none" stroke="midnightblue" d="M789.15,-414.08C790.87,-406.93 793.35,-396.64 795.5,-387.69"/>
<polygon fill="midnightblue" stroke="midnightblue" points="798.96,-388.29 797.89,-377.75 792.15,-386.65 798.96,-388.29"/>
</g>
<!-- Node42 -->
<g id="node29" class="node">
<title>Node42</title>
<g id="a_node29"><a xlink:href="assertion_8hpp.html" target="_top" xlink:title=" ">
<polygon fill="white" stroke="black" points="388.5,-358.5 388.5,-377.5 495.5,-377.5 495.5,-358.5 388.5,-358.5"/>
<text text-anchor="middle" x="442" y="-365.5" font-family="Helvetica,sans-Serif" font-size="10.00">utils/assertion.hpp</text>
</a>
</g>
</g>
<!-- Node41&#45;&gt;Node42 -->
<g id="edge41" class="edge">
<title>Node41&#45;&gt;Node42</title>
<path fill="none" stroke="midnightblue" d="M732.33,-414.44C670.74,-404.8 570.76,-389.15 505.69,-378.97"/>
<polygon fill="midnightblue" stroke="midnightblue" points="505.98,-375.47 495.56,-377.38 504.9,-382.39 505.98,-375.47"/>
</g>
<!-- Node42&#45;&gt;Node13 -->
<g id="edge52" class="edge">
<title>Node42&#45;&gt;Node13</title>
<path fill="none" stroke="midnightblue" d="M495.68,-361.43C572.04,-353.38 716.36,-337.75 839,-322 852.51,-320.26 867.02,-318.26 880.7,-316.31"/>
<polygon fill="midnightblue" stroke="midnightblue" points="881.58,-319.72 890.98,-314.84 880.58,-312.79 881.58,-319.72"/>
</g>
<!-- Node42&#45;&gt;Node17 -->
<g id="edge44" class="edge">
<title>Node42&#45;&gt;Node17</title>
<path fill="none" stroke="midnightblue" d="M388.44,-364.12C327.86,-359.62 234.78,-348.48 213,-322 204.25,-311.36 207.19,-303.49 213,-291 277.67,-151.86 449.3,-57 516.99,-23.95"/>
<polygon fill="midnightblue" stroke="midnightblue" points="518.7,-27.01 526.2,-19.52 515.67,-20.7 518.7,-27.01"/>
</g>
<!-- Node42&#45;&gt;Node19 -->
<g id="edge45" class="edge">
<title>Node42&#45;&gt;Node19</title>
<path fill="none" stroke="midnightblue" d="M495.83,-364.22C592.14,-358.69 785.81,-344.84 806,-322 815.13,-311.68 814.9,-301.52 806,-291 743.71,-217.36 654.29,-328.64 592,-255 552.13,-207.87 572.95,-126.76 585.17,-90.7"/>
<polygon fill="midnightblue" stroke="midnightblue" points="588.56,-91.64 588.61,-81.04 581.96,-89.29 588.56,-91.64"/>
</g>
<!-- Node42&#45;&gt;Node31 -->
<g id="edge51" class="edge">
<title>Node42&#45;&gt;Node31</title>
<path fill="none" stroke="midnightblue" d="M388.32,-365.64C319.55,-362.62 206.1,-352.97 180,-322 137.31,-271.35 187.19,-187.06 212.28,-151.1"/>
<polygon fill="midnightblue" stroke="midnightblue" points="215.34,-152.84 218.33,-142.68 209.65,-148.76 215.34,-152.84"/>
</g>
<!-- Node42&#45;&gt;Node32 -->
<g id="edge48" class="edge">
<title>Node42&#45;&gt;Node32</title>
<path fill="none" stroke="midnightblue" d="M388.4,-364.93C309.54,-360.98 167.07,-350.08 125,-322 92.35,-300.21 80,-285.25 80,-246 80,-246 80,-246 80,-188 80,-156.47 81.88,-120.13 83.34,-96.77"/>
<polygon fill="midnightblue" stroke="midnightblue" points="86.84,-96.92 83.99,-86.72 79.85,-96.47 86.84,-96.92"/>
</g>
<!-- Node42&#45;&gt;Node34 -->
<g id="edge49" class="edge">
<title>Node42&#45;&gt;Node34</title>
<path fill="none" stroke="midnightblue" d="M388.42,-363.82C317.67,-358.72 197.85,-346.66 162,-322 129.85,-299.88 118,-285.03 118,-246 118,-246 118,-246 118,-188 118,-157.9 118.62,-146.83 137,-123 147.14,-109.85 161.77,-99.38 175.98,-91.47"/>
<polygon fill="midnightblue" stroke="midnightblue" points="177.97,-94.37 185.2,-86.63 174.72,-88.17 177.97,-94.37"/>
</g>
<!-- Node43 -->
<g id="node30" class="node">
<title>Node43</title>
<g id="a_node30"><a xlink:title=" ">
<polygon fill="white" stroke="#bfbfbf" points="222.5,-297 222.5,-316 271.5,-316 271.5,-297 222.5,-297"/>
<text text-anchor="middle" x="247" y="-304" font-family="Helvetica,sans-Serif" font-size="10.00">cstdlib</text>
</a>
</g>
</g>
<!-- Node42&#45;&gt;Node43 -->
<g id="edge42" class="edge">
<title>Node42&#45;&gt;Node43</title>
<path fill="none" stroke="midnightblue" d="M406.41,-358.48C373.51,-350.26 323.44,-336.91 281,-322 279.14,-321.35 277.23,-320.64 275.32,-319.9"/>
<polygon fill="midnightblue" stroke="midnightblue" points="276.47,-316.59 265.89,-316.07 273.84,-323.08 276.47,-316.59"/>
</g>
<!-- Node44 -->
<g id="node31" class="node">
<title>Node44</title>
<g id="a_node31"><a xlink:title=" ">
<polygon fill="white" stroke="#bfbfbf" points="290,-297 290,-316 350,-316 350,-297 290,-297"/>
<text text-anchor="middle" x="320" y="-304" font-family="Helvetica,sans-Serif" font-size="10.00">iostream</text>
</a>
</g>
</g>
<!-- Node42&#45;&gt;Node44 -->
<g id="edge43" class="edge">
<title>Node42&#45;&gt;Node44</title>
<path fill="none" stroke="midnightblue" d="M424.52,-358.48C404.14,-348.53 370.22,-331.99 346.58,-320.46"/>
<polygon fill="midnightblue" stroke="midnightblue" points="347.97,-317.25 337.45,-316.01 344.9,-323.54 347.97,-317.25"/>
</g>
<!-- Node45 -->
<g id="node32" class="node">
<title>Node45</title>
<g id="a_node32"><a xlink:title=" ">
<polygon fill="white" stroke="#bfbfbf" points="368.5,-297 368.5,-316 515.5,-316 515.5,-297 368.5,-297"/>
<text text-anchor="middle" x="442" y="-304" font-family="Helvetica,sans-Serif" font-size="10.00">boost/current_function.hpp</text>
</a>
</g>
</g>
<!-- Node42&#45;&gt;Node45 -->
<g id="edge46" class="edge">
<title>Node42&#45;&gt;Node45</title>
<path fill="none" stroke="midnightblue" d="M442,-358.48C442,-350.08 442,-336.98 442,-326.16"/>
<polygon fill="midnightblue" stroke="midnightblue" points="445.5,-326.01 442,-316.01 438.5,-326.01 445.5,-326.01"/>
</g>
<!-- Node46 -->
<g id="node33" class="node">
<title>Node46</title>
<g id="a_node33"><a xlink:title=" ">
<polygon fill="white" stroke="#bfbfbf" points="533.5,-291.5 533.5,-321.5 668.5,-321.5 668.5,-291.5 533.5,-291.5"/>
<text text-anchor="start" x="541.5" y="-309.5" font-family="Helvetica,sans-Serif" font-size="10.00">boost/preprocessor</text>
<text text-anchor="middle" x="601" y="-298.5" font-family="Helvetica,sans-Serif" font-size="10.00">/comparison/greater.hpp</text>
</a>
</g>
</g>
<!-- Node42&#45;&gt;Node46 -->
<g id="edge47" class="edge">
<title>Node42&#45;&gt;Node46</title>
<path fill="none" stroke="midnightblue" d="M464.78,-358.48C487.93,-349.81 524.45,-336.15 553.86,-325.14"/>
<polygon fill="midnightblue" stroke="midnightblue" points="555.39,-328.31 563.53,-321.52 552.93,-321.75 555.39,-328.31"/>
</g>
<!-- Node47 -->
<g id="node34" class="node">
<title>Node47</title>
<g id="a_node34"><a xlink:title=" ">
<polygon fill="white" stroke="#bfbfbf" points="687,-291.5 687,-321.5 797,-321.5 797,-291.5 687,-291.5"/>
<text text-anchor="start" x="695" y="-309.5" font-family="Helvetica,sans-Serif" font-size="10.00">boost/preprocessor</text>
<text text-anchor="middle" x="742" y="-298.5" font-family="Helvetica,sans-Serif" font-size="10.00">/variadic/size.hpp</text>
</a>
</g>
</g>
<!-- Node42&#45;&gt;Node47 -->
<g id="edge50" class="edge">
<title>Node42&#45;&gt;Node47</title>
<path fill="none" stroke="midnightblue" d="M488.9,-358.45C534.26,-350.09 605.19,-336.75 676.63,-322.04"/>
<polygon fill="midnightblue" stroke="midnightblue" points="677.62,-325.41 686.71,-319.95 676.2,-318.55 677.62,-325.41"/>
</g>
<!-- Node48 -->
<g id="node35" class="node">
<title>Node48</title>
<g id="a_node35"><a xlink:href="stacktrace_8hpp.html" target="_top" xlink:title=" ">
<polygon fill="white" stroke="black" points="1007.5,-179.5 1007.5,-198.5 1120.5,-198.5 1120.5,-179.5 1007.5,-179.5"/>
<text text-anchor="middle" x="1064" y="-186.5" font-family="Helvetica,sans-Serif" font-size="10.00">utils/stacktrace.hpp</text>
</a>
</g>
</g>
<!-- Node42&#45;&gt;Node48 -->
<g id="edge53" class="edge">
<title>Node42&#45;&gt;Node48</title>
<path fill="none" stroke="midnightblue" d="M495.56,-365.76C626.99,-362.29 957.7,-350.76 998,-322 1032.34,-297.49 1016.36,-272.34 1036,-235 1040.98,-225.53 1047.21,-215.38 1052.53,-207.13"/>
<polygon fill="midnightblue" stroke="midnightblue" points="1055.47,-209.02 1058.03,-198.74 1049.62,-205.18 1055.47,-209.02"/>
</g>
<!-- Node49 -->
<g id="node36" class="node">
<title>Node49</title>
<g id="a_node36"><a xlink:title=" ">
<polygon fill="white" stroke="#bfbfbf" points="0,-297 0,-316 52,-316 52,-297 0,-297"/>
<text text-anchor="middle" x="26" y="-304" font-family="Helvetica,sans-Serif" font-size="10.00">cassert</text>
</a>
</g>
</g>
<!-- Node42&#45;&gt;Node49 -->
<g id="edge55" class="edge">
<title>Node42&#45;&gt;Node49</title>
<path fill="none" stroke="midnightblue" d="M388.4,-364.44C314.85,-360.06 178.89,-348.84 66,-322 62.94,-321.27 59.78,-320.38 56.66,-319.41"/>
<polygon fill="midnightblue" stroke="midnightblue" points="57.49,-316 46.9,-316.1 55.24,-322.63 57.49,-316"/>
</g>
<!-- Node48&#45;&gt;Node6 -->
<g id="edge54" class="edge">
<title>Node48&#45;&gt;Node6</title>
<path fill="none" stroke="midnightblue" d="M1080.64,-179.46C1136.19,-150.96 1315.53,-58.95 1383.01,-24.34"/>
<polygon fill="midnightblue" stroke="midnightblue" points="1384.82,-27.34 1392.12,-19.66 1381.63,-21.11 1384.82,-27.34"/>
</g>
<!-- Node50&#45;&gt;Node3 -->
<g id="edge57" class="edge">
<title>Node50&#45;&gt;Node3</title>
<path fill="none" stroke="midnightblue" d="M952.05,-470.32C963.46,-462.11 980.83,-449.6 994.43,-439.81"/>
<polygon fill="midnightblue" stroke="midnightblue" points="996.66,-442.52 1002.73,-433.83 992.57,-436.84 996.66,-442.52"/>
</g>
<!-- Node50&#45;&gt;Node41 -->
<g id="edge58" class="edge">
<title>Node50&#45;&gt;Node41</title>
<path fill="none" stroke="midnightblue" d="M915.76,-470.44C890.13,-461.4 849.51,-447.06 820.76,-436.92"/>
<polygon fill="midnightblue" stroke="midnightblue" points="821.72,-433.54 811.13,-433.52 819.39,-440.15 821.72,-433.54"/>
</g>
<!-- Node51 -->
<g id="node38" class="node">
<title>Node51</title>
<g id="a_node38"><a xlink:href="la_8hpp.html" target="_top" xlink:title=" ">
<polygon fill="white" stroke="black" points="865.5,-414.5 865.5,-433.5 940.5,-433.5 940.5,-414.5 865.5,-414.5"/>
<text text-anchor="middle" x="903" y="-421.5" font-family="Helvetica,sans-Serif" font-size="10.00">math/la.hpp</text>
</a>
</g>
</g>
<!-- Node50&#45;&gt;Node51 -->
<g id="edge59" class="edge">
<title>Node50&#45;&gt;Node51</title>
<path fill="none" stroke="midnightblue" d="M933.89,-470.08C928.72,-462.53 921.15,-451.49 914.81,-442.23"/>
<polygon fill="midnightblue" stroke="midnightblue" points="917.54,-440.02 909,-433.75 911.76,-443.98 917.54,-440.02"/>
</g>
<!-- Node51&#45;&gt;Node2 -->
<g id="edge60" class="edge">
<title>Node51&#45;&gt;Node2</title>
<path fill="none" stroke="midnightblue" d="M886.45,-414.32C870.01,-405.7 844.57,-392.36 825.53,-382.39"/>
<polygon fill="midnightblue" stroke="midnightblue" points="826.99,-379.2 816.51,-377.65 823.74,-385.4 826.99,-379.2"/>
</g>
<!-- Node51&#45;&gt;Node42 -->
<g id="edge61" class="edge">
<title>Node51&#45;&gt;Node42</title>
<path fill="none" stroke="midnightblue" d="M865.34,-415.51C862.18,-414.97 859.04,-414.46 856,-414 732.58,-395.51 587.37,-381.49 505.87,-374.33"/>
<polygon fill="midnightblue" stroke="midnightblue" points="506.04,-370.83 495.77,-373.44 505.43,-377.8 506.04,-370.83"/>
</g>
<!-- Node52&#45;&gt;Node2 -->
<g id="edge64" class="edge">
<title>Node52&#45;&gt;Node2</title>
<path fill="none" stroke="midnightblue" d="M1241.93,-417.81C1137.84,-408.4 923.41,-388.53 849,-378 847.7,-377.82 846.38,-377.62 845.05,-377.42"/>
<polygon fill="midnightblue" stroke="midnightblue" points="845.17,-373.89 834.74,-375.75 844.05,-380.8 845.17,-373.89"/>
</g>
<!-- Node52&#45;&gt;Node12 -->
<g id="edge75" class="edge">
<title>Node52&#45;&gt;Node12</title>
<path fill="none" stroke="midnightblue" d="M1338.9,-414.44C1372.58,-404.92 1413.74,-386.95 1399,-358 1373.59,-308.11 1314.4,-275.21 1277.24,-258.66"/>
<polygon fill="midnightblue" stroke="midnightblue" points="1278.42,-255.35 1267.85,-254.61 1275.65,-261.78 1278.42,-255.35"/>
</g>
<!-- Node52&#45;&gt;Node16 -->
<g id="edge68" class="edge">
<title>Node52&#45;&gt;Node16</title>
<path fill="none" stroke="midnightblue" d="M1245.5,-414.44C1197.22,-406.44 1124.98,-393.42 1063,-378 981.28,-357.67 957.37,-359.56 882,-322 860.91,-311.49 860.39,-300.88 839,-291 801.54,-273.69 756.56,-262.51 720.57,-255.63"/>
<polygon fill="midnightblue" stroke="midnightblue" points="721.15,-252.17 710.68,-253.8 719.87,-259.06 721.15,-252.17"/>
</g>
<!-- Node53 -->
<g id="node40" class="node">
<title>Node53</title>
<g id="a_node40"><a xlink:title=" ">
<polygon fill="white" stroke="#bfbfbf" points="1260.5,-358.5 1260.5,-377.5 1389.5,-377.5 1389.5,-358.5 1260.5,-358.5"/>
<text text-anchor="middle" x="1325" y="-365.5" font-family="Helvetica,sans-Serif" font-size="10.00">boost/range/irange.hpp</text>
</a>
</g>
</g>
<!-- Node52&#45;&gt;Node53 -->
<g id="edge65" class="edge">
<title>Node52&#45;&gt;Node53</title>
<path fill="none" stroke="midnightblue" d="M1304.13,-414.08C1307.51,-406.77 1312.42,-396.18 1316.62,-387.1"/>
<polygon fill="midnightblue" stroke="midnightblue" points="1319.92,-388.3 1320.95,-377.75 1313.57,-385.36 1319.92,-388.3"/>
</g>
<!-- Node54 -->
<g id="node41" class="node">
<title>Node54</title>
<g id="a_node41"><a xlink:href="com_2SharedPointer_8hpp.html" target="_top" xlink:title=" ">
<polygon fill="white" stroke="black" points="1379.5,-235.5 1379.5,-254.5 1508.5,-254.5 1508.5,-235.5 1379.5,-235.5"/>
<text text-anchor="middle" x="1444" y="-242.5" font-family="Helvetica,sans-Serif" font-size="10.00">com/SharedPointer.hpp</text>
</a>
</g>
</g>
<!-- Node52&#45;&gt;Node54 -->
<g id="edge66" class="edge">
<title>Node52&#45;&gt;Node54</title>
<path fill="none" stroke="midnightblue" d="M1285.57,-414.4C1267.31,-402.36 1239.63,-379.53 1252,-358 1283.6,-302.98 1353.82,-272.43 1400.01,-257.62"/>
<polygon fill="midnightblue" stroke="midnightblue" points="1401.24,-260.9 1409.77,-254.61 1399.18,-254.21 1401.24,-260.9"/>
</g>
<!-- Node55 -->
<g id="node42" class="node">
<title>Node55</title>
<g id="a_node42"><a xlink:href="span_8hpp.html" target="_top" xlink:title=" ">
<polygon fill="white" stroke="black" points="1520.5,-358.5 1520.5,-377.5 1619.5,-377.5 1619.5,-358.5 1520.5,-358.5"/>
<text text-anchor="middle" x="1570" y="-365.5" font-family="Helvetica,sans-Serif" font-size="10.00">precice/span.hpp</text>
</a>
</g>
</g>
<!-- Node52&#45;&gt;Node55 -->
<g id="edge69" class="edge">
<title>Node52&#45;&gt;Node55</title>
<path fill="none" stroke="midnightblue" d="M1342.78,-414.44C1390.18,-404.96 1466.63,-389.67 1517.58,-379.48"/>
<polygon fill="midnightblue" stroke="midnightblue" points="1518.3,-382.91 1527.42,-377.52 1516.93,-376.05 1518.3,-382.91"/>
</g>
<!-- Node54&#45;&gt;Node11 -->
<g id="edge67" class="edge">
<title>Node54&#45;&gt;Node11</title>
<path fill="none" stroke="midnightblue" d="M1400.27,-235.44C1347.08,-225.04 1258.12,-207.63 1207.11,-197.65"/>
<polygon fill="midnightblue" stroke="midnightblue" points="1207.62,-194.19 1197.14,-195.7 1206.28,-201.06 1207.62,-194.19"/>
</g>
<!-- Node55&#45;&gt;Node7 -->
<g id="edge74" class="edge">
<title>Node55&#45;&gt;Node7</title>
<path fill="none" stroke="midnightblue" d="M1553.67,-358.48C1534.79,-348.62 1503.49,-332.29 1481.42,-320.77"/>
<polygon fill="midnightblue" stroke="midnightblue" points="1482.79,-317.53 1472.3,-316.01 1479.55,-323.74 1482.79,-317.53"/>
</g>
<!-- Node27 -->
<g id="node43" class="node">
<title>Node27</title>
<g id="a_node43"><a xlink:title=" ">
<polygon fill="white" stroke="#bfbfbf" points="1716,-297 1716,-316 1758,-316 1758,-297 1716,-297"/>
<text text-anchor="middle" x="1737" y="-304" font-family="Helvetica,sans-Serif" font-size="10.00">array</text>
</a>
</g>
</g>
<!-- Node55&#45;&gt;Node27 -->
<g id="edge70" class="edge">
<title>Node55&#45;&gt;Node27</title>
<path fill="none" stroke="midnightblue" d="M1599.8,-358.46C1627.84,-350.13 1670.79,-336.62 1707,-322 1708.37,-321.44 1709.77,-320.86 1711.18,-320.24"/>
<polygon fill="midnightblue" stroke="midnightblue" points="1712.73,-323.38 1720.36,-316.03 1709.81,-317.02 1712.73,-323.38"/>
</g>
<!-- Node56 -->
<g id="node44" class="node">
<title>Node56</title>
<g id="a_node44"><a xlink:title=" ">
<polygon fill="white" stroke="#bfbfbf" points="1508.5,-297 1508.5,-316 1561.5,-316 1561.5,-297 1508.5,-297"/>
<text text-anchor="middle" x="1535" y="-304" font-family="Helvetica,sans-Serif" font-size="10.00">cstddef</text>
</a>
</g>
</g>
<!-- Node55&#45;&gt;Node56 -->
<g id="edge71" class="edge">
<title>Node55&#45;&gt;Node56</title>
<path fill="none" stroke="midnightblue" d="M1564.99,-358.48C1559.84,-349.73 1551.69,-335.87 1545.18,-324.81"/>
<polygon fill="midnightblue" stroke="midnightblue" points="1548.09,-322.85 1540.01,-316.01 1542.06,-326.4 1548.09,-322.85"/>
</g>
<!-- Node57 -->
<g id="node45" class="node">
<title>Node57</title>
<g id="a_node45"><a xlink:title=" ">
<polygon fill="white" stroke="#bfbfbf" points="1580,-297 1580,-316 1630,-316 1630,-297 1580,-297"/>
<text text-anchor="middle" x="1605" y="-304" font-family="Helvetica,sans-Serif" font-size="10.00">cstdint</text>
</a>
</g>
</g>
<!-- Node55&#45;&gt;Node57 -->
<g id="edge72" class="edge">
<title>Node55&#45;&gt;Node57</title>
<path fill="none" stroke="midnightblue" d="M1575.01,-358.48C1580.16,-349.73 1588.31,-335.87 1594.82,-324.81"/>
<polygon fill="midnightblue" stroke="midnightblue" points="1597.94,-326.4 1599.99,-316.01 1591.91,-322.85 1597.94,-326.4"/>
</g>
<!-- Node58 -->
<g id="node46" class="node">
<title>Node58</title>
<g id="a_node46"><a xlink:title=" ">
<polygon fill="white" stroke="#bfbfbf" points="1648,-297 1648,-316 1698,-316 1698,-297 1648,-297"/>
<text text-anchor="middle" x="1673" y="-304" font-family="Helvetica,sans-Serif" font-size="10.00">cstring</text>
</a>
</g>
</g>
<!-- Node55&#45;&gt;Node58 -->
<g id="edge73" class="edge">
<title>Node55&#45;&gt;Node58</title>
<path fill="none" stroke="midnightblue" d="M1584.76,-358.48C1601.66,-348.71 1629.58,-332.58 1649.49,-321.08"/>
<polygon fill="midnightblue" stroke="midnightblue" points="1651.36,-324.04 1658.27,-316.01 1647.86,-317.98 1651.36,-324.04"/>
</g>
<!-- Node59&#45;&gt;Node2 -->
<g id="edge77" class="edge">
<title>Node59&#45;&gt;Node2</title>
<path fill="none" stroke="midnightblue" d="M806.54,-526.35C782.73,-511.17 736.13,-477.18 718,-434 707.73,-409.54 735.87,-391.83 761.94,-381.13"/>
<polygon fill="midnightblue" stroke="midnightblue" points="763.29,-384.36 771.37,-377.51 760.78,-377.83 763.29,-384.36"/>
</g>
<!-- Node60&#45;&gt;Node6 -->
<g id="edge82" class="edge">
<title>Node60&#45;&gt;Node6</title>
<path fill="none" stroke="midnightblue" d="M1860.24,-358.49C1860.77,-338.74 1862,-288.23 1862,-246 1862,-246 1862,-246 1862,-132 1862,-88.41 1838.24,-76.92 1800,-56 1738.33,-22.27 1523.26,-13.69 1441.17,-11.62"/>
<polygon fill="midnightblue" stroke="midnightblue" points="1441.25,-8.12 1431.17,-11.39 1441.08,-15.12 1441.25,-8.12"/>
</g>
<!-- Node60&#45;&gt;Node9 -->
<g id="edge83" class="edge">
<title>Node60&#45;&gt;Node9</title>
<path fill="none" stroke="midnightblue" d="M1852.87,-358.48C1838.55,-342.06 1804.45,-306.3 1767,-291 1606.44,-225.39 1547.13,-284.11 1371.75,-254.75"/>
<polygon fill="midnightblue" stroke="midnightblue" points="1372.13,-251.27 1361.68,-252.99 1370.93,-258.16 1372.13,-251.27"/>
</g>
<!-- Node60&#45;&gt;Node27 -->
<g id="edge80" class="edge">
<title>Node60&#45;&gt;Node27</title>
<path fill="none" stroke="midnightblue" d="M1842.38,-358.48C1821.83,-348.53 1787.64,-331.99 1763.79,-320.46"/>
<polygon fill="midnightblue" stroke="midnightblue" points="1765.12,-317.21 1754.59,-316.01 1762.07,-323.51 1765.12,-317.21"/>
</g>
<!-- Node23 -->
<g id="node49" class="node">
<title>Node23</title>
<g id="a_node49"><a xlink:title=" ">
<polygon fill="white" stroke="#bfbfbf" points="1890,-297 1890,-316 1954,-316 1954,-297 1890,-297"/>
<text text-anchor="middle" x="1922" y="-304" font-family="Helvetica,sans-Serif" font-size="10.00">algorithm</text>
</a>
</g>
</g>
<!-- Node60&#45;&gt;Node23 -->
<g id="edge79" class="edge">
<title>Node60&#45;&gt;Node23</title>
<path fill="none" stroke="midnightblue" d="M1868.88,-358.48C1878.46,-349.28 1893.91,-334.46 1905.69,-323.16"/>
<polygon fill="midnightblue" stroke="midnightblue" points="1908.34,-325.46 1913.13,-316.01 1903.49,-320.41 1908.34,-325.46"/>
</g>
<!-- Node24 -->
<g id="node50" class="node">
<title>Node24</title>
<g id="a_node50"><a xlink:title=" ">
<polygon fill="white" stroke="#bfbfbf" points="1972,-297 1972,-316 2028,-316 2028,-297 1972,-297"/>
<text text-anchor="middle" x="2000" y="-304" font-family="Helvetica,sans-Serif" font-size="10.00">sstream</text>
</a>
</g>
</g>
<!-- Node60&#45;&gt;Node24 -->
<g id="edge81" class="edge">
<title>Node60&#45;&gt;Node24</title>
<path fill="none" stroke="midnightblue" d="M1880.06,-358.48C1903.76,-348.4 1943.41,-331.55 1970.58,-320"/>
<polygon fill="midnightblue" stroke="midnightblue" points="1972.14,-323.14 1979.98,-316.01 1969.41,-316.7 1972.14,-323.14"/>
</g>
</g>
</svg>
