<?xml version="1.0" encoding="UTF-8" standalone="no"?>
<!DOCTYPE svg PUBLIC "-//W3C//DTD SVG 1.1//EN"
 "http://www.w3.org/Graphics/SVG/1.1/DTD/svg11.dtd">
<!-- Generated by graphviz version 2.43.0 (0)
 -->
<!-- Title: src/cplscheme/tests/DummyCouplingScheme.hpp Pages: 1 -->
<!--zoomable 565 -->
<svg id="main" version="1.1" xmlns="http://www.w3.org/2000/svg" xmlns:xlink="http://www.w3.org/1999/xlink" xml:space="preserve" onload="init(evt)">
<style type="text/css"><![CDATA[
.edge:hover path { stroke: red; }
.edge:hover polygon { stroke: red; fill: red; }
]]></style>
<script type="text/javascript"><![CDATA[
var edges = document.getElementsByTagName('g');
if (edges && edges.length) {
  for (var i=0;i<edges.length;i++) {
    if (edges[i].id.substr(0,4)=='edge') {
      edges[i].setAttribute('class','edge');
    }
  }
}
]]></script>
        <defs>
                <circle id="rim" cx="0" cy="0" r="7"/>
                <circle id="rim2" cx="0" cy="0" r="3.5"/>
                <g id="zoomPlus">
                        <use xlink:href="#rim" fill="#404040">
                                <set attributeName="fill" to="#808080" begin="zoomplus.mouseover" end="zoomplus.mouseout"/>
                        </use>
                        <path d="M-4,0h8M0,-4v8" fill="none" stroke="white" stroke-width="1.5" pointer-events="none"/>
                </g>
                <g id="zoomMin">
                        <use xlink:href="#rim" fill="#404040">
                                <set attributeName="fill" to="#808080" begin="zoomminus.mouseover" end="zoomminus.mouseout"/>
                        </use>
                        <path d="M-4,0h8" fill="none" stroke="white" stroke-width="1.5" pointer-events="none"/>
                </g>
                <g id="dirArrow">
                        <path fill="none" stroke="white" stroke-width="1.5" d="M0,-3.0v7 M-2.5,-0.5L0,-3.0L2.5,-0.5"/>
                </g>
               <g id="resetDef">
                       <use xlink:href="#rim2" fill="#404040">
                               <set attributeName="fill" to="#808080" begin="reset.mouseover" end="reset.mouseout"/>
                       </use>
               </g>
        </defs>

<script type="text/javascript">
var viewWidth = 1803;
var viewHeight = 565;
var sectionId = 'dynsection-0';
</script>
<script xlink:href="svgpan.js"/>
<svg id="graph" class="graph">
<g id="viewport">
<title>src/cplscheme/tests/DummyCouplingScheme.hpp</title>
<polygon fill="white" stroke="transparent" points="-4,4 -4,-561 1799,-561 1799,4 -4,4"/>
<!-- Node1 -->
<g id="node1" class="node">
<title>Node1</title>
<g id="a_node1"><a xlink:title=" ">
<polygon fill="#bfbfbf" stroke="black" points="87.5,-526.5 87.5,-556.5 248.5,-556.5 248.5,-526.5 87.5,-526.5"/>
<text text-anchor="start" x="95.5" y="-544.5" font-family="Helvetica,sans-Serif" font-size="10.00">src/cplscheme/tests</text>
<text text-anchor="middle" x="168" y="-533.5" font-family="Helvetica,sans-Serif" font-size="10.00">/DummyCouplingScheme.hpp</text>
</a>
</g>
</g>
<!-- Node2 -->
<g id="node2" class="node">
<title>Node2</title>
<g id="a_node2"><a xlink:title=" ">
<polygon fill="white" stroke="#bfbfbf" points="262,-112.5 262,-131.5 306,-131.5 306,-112.5 262,-112.5"/>
<text text-anchor="middle" x="284" y="-119.5" font-family="Helvetica,sans-Serif" font-size="10.00">string</text>
</a>
</g>
</g>
<!-- Node1&#45;&gt;Node2 -->
<g id="edge1" class="edge">
<title>Node1&#45;&gt;Node2</title>
<path fill="none" stroke="midnightblue" d="M133.84,-526.45C95.33,-508.08 38,-471.92 38,-419.5 38,-419.5 38,-419.5 38,-244 38,-149.8 185.03,-128.93 251.75,-124.31"/>
<polygon fill="midnightblue" stroke="midnightblue" points="251.97,-127.81 261.74,-123.7 251.54,-120.82 251.97,-127.81"/>
</g>
<!-- Node3 -->
<g id="node3" class="node">
<title>Node3</title>
<g id="a_node3"><a xlink:title=" ">
<polygon fill="white" stroke="#bfbfbf" points="494.5,-56.5 494.5,-75.5 541.5,-75.5 541.5,-56.5 494.5,-56.5"/>
<text text-anchor="middle" x="518" y="-63.5" font-family="Helvetica,sans-Serif" font-size="10.00">vector</text>
</a>
</g>
</g>
<!-- Node1&#45;&gt;Node3 -->
<g id="edge2" class="edge">
<title>Node1&#45;&gt;Node3</title>
<path fill="none" stroke="midnightblue" d="M114.84,-526.48C65.62,-509.9 0,-477.01 0,-419.5 0,-419.5 0,-419.5 0,-182.5 0,-82.98 368.88,-69.17 484.06,-67.29"/>
<polygon fill="midnightblue" stroke="midnightblue" points="484.45,-70.78 494.4,-67.14 484.35,-63.78 484.45,-70.78"/>
</g>
<!-- Node4 -->
<g id="node4" class="node">
<title>Node4</title>
<g id="a_node4"><a xlink:href="CouplingScheme_8hpp.html" target="_top" xlink:title=" ">
<polygon fill="white" stroke="black" points="104,-409 104,-428 232,-428 232,-409 104,-409"/>
<text text-anchor="middle" x="168" y="-416" font-family="Helvetica,sans-Serif" font-size="10.00">../CouplingScheme.hpp</text>
</a>
</g>
</g>
<!-- Node1&#45;&gt;Node4 -->
<g id="edge3" class="edge">
<title>Node1&#45;&gt;Node4</title>
<path fill="none" stroke="midnightblue" d="M168,-526.14C168,-504.2 168,-462.33 168,-438.09"/>
<polygon fill="midnightblue" stroke="midnightblue" points="171.5,-438.05 168,-428.05 164.5,-438.05 171.5,-438.05"/>
</g>
<!-- Node9 -->
<g id="node9" class="node">
<title>Node9</title>
<g id="a_node9"><a xlink:href="Logger_8hpp.html" target="_top" xlink:title=" ">
<polygon fill="white" stroke="black" points="1195.5,-347.5 1195.5,-366.5 1304.5,-366.5 1304.5,-347.5 1195.5,-347.5"/>
<text text-anchor="middle" x="1250" y="-354.5" font-family="Helvetica,sans-Serif" font-size="10.00">logging/Logger.hpp</text>
</a>
</g>
</g>
<!-- Node1&#45;&gt;Node9 -->
<g id="edge10" class="edge">
<title>Node1&#45;&gt;Node9</title>
<path fill="none" stroke="midnightblue" d="M248.51,-537.73C385.14,-532.42 670.94,-518.7 911,-490 1056.97,-472.55 1133.08,-537.99 1237,-434 1251.83,-419.16 1253.37,-394.02 1252.34,-376.74"/>
<polygon fill="midnightblue" stroke="midnightblue" points="1255.82,-376.34 1251.41,-366.71 1248.85,-376.99 1255.82,-376.34"/>
</g>
<!-- Node31 -->
<g id="node31" class="node">
<title>Node31</title>
<g id="a_node31"><a xlink:href="assertion_8hpp.html" target="_top" xlink:title=" ">
<polygon fill="white" stroke="black" points="794.5,-470.5 794.5,-489.5 901.5,-489.5 901.5,-470.5 794.5,-470.5"/>
<text text-anchor="middle" x="848" y="-477.5" font-family="Helvetica,sans-Serif" font-size="10.00">utils/assertion.hpp</text>
</a>
</g>
</g>
<!-- Node1&#45;&gt;Node31 -->
<g id="edge42" class="edge">
<title>Node1&#45;&gt;Node31</title>
<path fill="none" stroke="midnightblue" d="M248.68,-533.44C385.38,-521.48 659.79,-497.47 784.14,-486.59"/>
<polygon fill="midnightblue" stroke="midnightblue" points="784.61,-490.06 794.27,-485.7 784,-483.09 784.61,-490.06"/>
</g>
<!-- Node4&#45;&gt;Node2 -->
<g id="edge5" class="edge">
<title>Node4&#45;&gt;Node2</title>
<path fill="none" stroke="midnightblue" d="M187.68,-408.94C220.77,-393.07 284,-355.71 284,-302 284,-302 284,-302 284,-244 284,-207.71 284,-165.31 284,-141.56"/>
<polygon fill="midnightblue" stroke="midnightblue" points="287.5,-141.51 284,-131.51 280.5,-141.51 287.5,-141.51"/>
</g>
<!-- Node4&#45;&gt;Node3 -->
<g id="edge6" class="edge">
<title>Node4&#45;&gt;Node3</title>
<path fill="none" stroke="midnightblue" d="M173.23,-408.87C184.07,-390.13 208,-344.02 208,-302 208,-302 208,-302 208,-182.5 208,-145.33 222.02,-132.54 253,-112 290.41,-87.2 421.24,-74.26 483.96,-69.36"/>
<polygon fill="midnightblue" stroke="midnightblue" points="484.42,-72.84 494.13,-68.59 483.89,-65.86 484.42,-72.84"/>
</g>
<!-- Node5 -->
<g id="node5" class="node">
<title>Node5</title>
<g id="a_node5"><a xlink:title=" ">
<polygon fill="white" stroke="#bfbfbf" points="759,-56.5 759,-75.5 797,-75.5 797,-56.5 759,-56.5"/>
<text text-anchor="middle" x="778" y="-63.5" font-family="Helvetica,sans-Serif" font-size="10.00">map</text>
</a>
</g>
</g>
<!-- Node4&#45;&gt;Node5 -->
<g id="edge4" class="edge">
<title>Node4&#45;&gt;Node5</title>
<path fill="none" stroke="midnightblue" d="M187.61,-408.93C209.28,-399.31 245.08,-382.93 275,-367 465.71,-265.43 686.4,-125.77 755.89,-81.24"/>
<polygon fill="midnightblue" stroke="midnightblue" points="758.15,-83.95 764.67,-75.6 754.37,-78.06 758.15,-83.95"/>
</g>
<!-- Node6 -->
<g id="node6" class="node">
<title>Node6</title>
<g id="a_node6"><a xlink:href="com_2SharedPointer_8hpp.html" target="_top" xlink:title=" ">
<polygon fill="white" stroke="black" points="350.5,-347.5 350.5,-366.5 479.5,-366.5 479.5,-347.5 350.5,-347.5"/>
<text text-anchor="middle" x="415" y="-354.5" font-family="Helvetica,sans-Serif" font-size="10.00">com/SharedPointer.hpp</text>
</a>
</g>
</g>
<!-- Node4&#45;&gt;Node6 -->
<g id="edge7" class="edge">
<title>Node4&#45;&gt;Node6</title>
<path fill="none" stroke="midnightblue" d="M203.39,-408.98C247.23,-398.42 321.97,-380.41 369.88,-368.87"/>
<polygon fill="midnightblue" stroke="midnightblue" points="370.77,-372.25 379.68,-366.51 369.13,-365.45 370.77,-372.25"/>
</g>
<!-- Node8 -->
<g id="node8" class="node">
<title>Node8</title>
<g id="a_node8"><a xlink:href="types_8hpp.html" target="_top" xlink:title=" ">
<polygon fill="white" stroke="black" points="497.5,-347.5 497.5,-366.5 600.5,-366.5 600.5,-347.5 497.5,-347.5"/>
<text text-anchor="middle" x="549" y="-354.5" font-family="Helvetica,sans-Serif" font-size="10.00">precice/types.hpp</text>
</a>
</g>
</g>
<!-- Node4&#45;&gt;Node8 -->
<g id="edge9" class="edge">
<title>Node4&#45;&gt;Node8</title>
<path fill="none" stroke="midnightblue" d="M208.86,-409C219.31,-406.93 230.56,-404.79 241,-403 347.55,-384.7 377.1,-383.33 487.11,-367.27"/>
<polygon fill="midnightblue" stroke="midnightblue" points="487.91,-370.69 497.29,-365.77 486.89,-363.76 487.91,-370.69"/>
</g>
<!-- Node7 -->
<g id="node7" class="node">
<title>Node7</title>
<g id="a_node7"><a xlink:title=" ">
<polygon fill="white" stroke="#bfbfbf" points="702,-291.5 702,-310.5 760,-310.5 760,-291.5 702,-291.5"/>
<text text-anchor="middle" x="731" y="-298.5" font-family="Helvetica,sans-Serif" font-size="10.00">memory</text>
</a>
</g>
</g>
<!-- Node6&#45;&gt;Node7 -->
<g id="edge8" class="edge">
<title>Node6&#45;&gt;Node7</title>
<path fill="none" stroke="midnightblue" d="M465.07,-347.44C527.98,-336.69 634.63,-318.47 691.88,-308.68"/>
<polygon fill="midnightblue" stroke="midnightblue" points="692.71,-312.09 701.98,-306.96 691.53,-305.19 692.71,-312.09"/>
</g>
<!-- Node9&#45;&gt;Node7 -->
<g id="edge11" class="edge">
<title>Node9&#45;&gt;Node7</title>
<path fill="none" stroke="midnightblue" d="M1195.44,-350.32C1090.19,-339.37 861.44,-315.57 769.96,-306.05"/>
<polygon fill="midnightblue" stroke="midnightblue" points="770.32,-302.57 760.01,-305.02 769.59,-309.53 770.32,-302.57"/>
</g>
<!-- Node10 -->
<g id="node10" class="node">
<title>Node10</title>
<g id="a_node10"><a xlink:title=" ">
<polygon fill="white" stroke="#bfbfbf" points="1180.5,-112.5 1180.5,-131.5 1253.5,-131.5 1253.5,-112.5 1180.5,-112.5"/>
<text text-anchor="middle" x="1217" y="-119.5" font-family="Helvetica,sans-Serif" font-size="10.00">string_view</text>
</a>
</g>
</g>
<!-- Node9&#45;&gt;Node10 -->
<g id="edge12" class="edge">
<title>Node9&#45;&gt;Node10</title>
<path fill="none" stroke="midnightblue" d="M1266.42,-347.4C1315.15,-320.78 1452.24,-237.38 1398,-168 1393.78,-162.6 1316.05,-144.68 1263.84,-133.15"/>
<polygon fill="midnightblue" stroke="midnightblue" points="1264.29,-129.66 1253.77,-130.93 1262.78,-136.5 1264.29,-129.66"/>
</g>
<!-- Node11 -->
<g id="node11" class="node">
<title>Node11</title>
<g id="a_node11"><a xlink:href="LogMacros_8hpp.html" target="_top" xlink:title=" ">
<polygon fill="white" stroke="black" points="1197,-291.5 1197,-310.5 1287,-310.5 1287,-291.5 1197,-291.5"/>
<text text-anchor="middle" x="1242" y="-298.5" font-family="Helvetica,sans-Serif" font-size="10.00">LogMacros.hpp</text>
</a>
</g>
</g>
<!-- Node9&#45;&gt;Node11 -->
<g id="edge13" class="edge">
<title>Node9&#45;&gt;Node11</title>
<path fill="none" stroke="midnightblue" d="M1248.68,-347.08C1247.62,-339.93 1246.09,-329.64 1244.77,-320.69"/>
<polygon fill="midnightblue" stroke="midnightblue" points="1248.22,-320.13 1243.3,-310.75 1241.3,-321.16 1248.22,-320.13"/>
</g>
<!-- Node12 -->
<g id="node12" class="node">
<title>Node12</title>
<g id="a_node12"><a xlink:href="fmt_8hpp.html" target="_top" xlink:title=" ">
<polygon fill="white" stroke="black" points="1445.5,-174 1445.5,-193 1524.5,-193 1524.5,-174 1445.5,-174"/>
<text text-anchor="middle" x="1485" y="-181" font-family="Helvetica,sans-Serif" font-size="10.00">utils/fmt.hpp</text>
</a>
</g>
</g>
<!-- Node11&#45;&gt;Node12 -->
<g id="edge14" class="edge">
<title>Node11&#45;&gt;Node12</title>
<path fill="none" stroke="midnightblue" d="M1241.47,-291.47C1241.1,-277.58 1242.54,-250.11 1258,-235 1270.65,-222.63 1372.35,-203.53 1435.26,-192.71"/>
<polygon fill="midnightblue" stroke="midnightblue" points="1436.12,-196.12 1445.38,-190.99 1434.94,-189.22 1436.12,-196.12"/>
</g>
<!-- Node24 -->
<g id="node24" class="node">
<title>Node24</title>
<g id="a_node24"><a xlink:href="ArgumentFormatter_8hpp.html" target="_top" xlink:title=" ">
<polygon fill="white" stroke="black" points="997.5,-235.5 997.5,-254.5 1154.5,-254.5 1154.5,-235.5 997.5,-235.5"/>
<text text-anchor="middle" x="1076" y="-242.5" font-family="Helvetica,sans-Serif" font-size="10.00">utils/ArgumentFormatter.hpp</text>
</a>
</g>
</g>
<!-- Node11&#45;&gt;Node24 -->
<g id="edge33" class="edge">
<title>Node11&#45;&gt;Node24</title>
<path fill="none" stroke="midnightblue" d="M1215.7,-291.44C1187.65,-282.32 1143.06,-267.81 1111.82,-257.65"/>
<polygon fill="midnightblue" stroke="midnightblue" points="1112.77,-254.28 1102.18,-254.52 1110.61,-260.94 1112.77,-254.28"/>
</g>
<!-- Node30 -->
<g id="node30" class="node">
<title>Node30</title>
<g id="a_node30"><a xlink:href="Tracer_8hpp.html" target="_top" xlink:title=" ">
<polygon fill="white" stroke="black" points="1266.5,-235.5 1266.5,-254.5 1371.5,-254.5 1371.5,-235.5 1266.5,-235.5"/>
<text text-anchor="middle" x="1319" y="-242.5" font-family="Helvetica,sans-Serif" font-size="10.00">logging/Tracer.hpp</text>
</a>
</g>
</g>
<!-- Node11&#45;&gt;Node30 -->
<g id="edge40" class="edge">
<title>Node11&#45;&gt;Node30</title>
<path fill="none" stroke="midnightblue" d="M1254.37,-291.32C1266.16,-283.06 1284.13,-270.45 1298.14,-260.63"/>
<polygon fill="midnightblue" stroke="midnightblue" points="1300.48,-263.26 1306.66,-254.65 1296.46,-257.53 1300.48,-263.26"/>
</g>
<!-- Node12&#45;&gt;Node2 -->
<g id="edge15" class="edge">
<title>Node12&#45;&gt;Node2</title>
<path fill="none" stroke="midnightblue" d="M1445.3,-174.81C1430.5,-172.23 1413.54,-169.6 1398,-168 971.95,-124.06 450.12,-122.46 316.41,-122.83"/>
<polygon fill="midnightblue" stroke="midnightblue" points="316.05,-119.34 306.06,-122.87 316.07,-126.34 316.05,-119.34"/>
</g>
<!-- Node12&#45;&gt;Node10 -->
<g id="edge16" class="edge">
<title>Node12&#45;&gt;Node10</title>
<path fill="none" stroke="midnightblue" d="M1454.23,-173.92C1446.66,-171.9 1438.55,-169.81 1431,-168 1399.78,-160.53 1316.43,-143.3 1263.44,-132.45"/>
<polygon fill="midnightblue" stroke="midnightblue" points="1264.1,-129.02 1253.6,-130.44 1262.69,-135.87 1264.1,-129.02"/>
</g>
<!-- Node13 -->
<g id="node13" class="node">
<title>Node13</title>
<g id="a_node13"><a xlink:title=" ">
<polygon fill="white" stroke="#bfbfbf" points="1384.5,-56.5 1384.5,-75.5 1463.5,-75.5 1463.5,-56.5 1384.5,-56.5"/>
<text text-anchor="middle" x="1424" y="-63.5" font-family="Helvetica,sans-Serif" font-size="10.00">fmt/format.h</text>
</a>
</g>
</g>
<!-- Node12&#45;&gt;Node13 -->
<g id="edge17" class="edge">
<title>Node12&#45;&gt;Node13</title>
<path fill="none" stroke="midnightblue" d="M1471.92,-173.76C1459.69,-164.82 1441.98,-149.74 1433,-132 1425.68,-117.55 1423.72,-99.1 1423.42,-85.55"/>
<polygon fill="midnightblue" stroke="midnightblue" points="1426.92,-85.54 1423.47,-75.52 1419.92,-85.5 1426.92,-85.54"/>
</g>
<!-- Node14 -->
<g id="node14" class="node">
<title>Node14</title>
<g id="a_node14"><a xlink:title=" ">
<polygon fill="white" stroke="#bfbfbf" points="1442,-112.5 1442,-131.5 1528,-131.5 1528,-112.5 1442,-112.5"/>
<text text-anchor="middle" x="1485" y="-119.5" font-family="Helvetica,sans-Serif" font-size="10.00">fmt/ostream.h</text>
</a>
</g>
</g>
<!-- Node12&#45;&gt;Node14 -->
<g id="edge18" class="edge">
<title>Node12&#45;&gt;Node14</title>
<path fill="none" stroke="midnightblue" d="M1485,-173.98C1485,-165.58 1485,-152.48 1485,-141.66"/>
<polygon fill="midnightblue" stroke="midnightblue" points="1488.5,-141.51 1485,-131.51 1481.5,-141.51 1488.5,-141.51"/>
</g>
<!-- Node15 -->
<g id="node15" class="node">
<title>Node15</title>
<g id="a_node15"><a xlink:href="fmtEigen_8hpp.html" target="_top" xlink:title=" ">
<polygon fill="white" stroke="black" points="1546,-112.5 1546,-131.5 1652,-131.5 1652,-112.5 1546,-112.5"/>
<text text-anchor="middle" x="1599" y="-119.5" font-family="Helvetica,sans-Serif" font-size="10.00">utils/fmtEigen.hpp</text>
</a>
</g>
</g>
<!-- Node12&#45;&gt;Node15 -->
<g id="edge19" class="edge">
<title>Node12&#45;&gt;Node15</title>
<path fill="none" stroke="midnightblue" d="M1501.33,-173.98C1520.21,-164.12 1551.51,-147.79 1573.58,-136.27"/>
<polygon fill="midnightblue" stroke="midnightblue" points="1575.45,-139.24 1582.7,-131.51 1572.21,-133.03 1575.45,-139.24"/>
</g>
<!-- Node20 -->
<g id="node20" class="node">
<title>Node20</title>
<g id="a_node20"><a xlink:href="fmtSTL_8hpp.html" target="_top" xlink:title=" ">
<polygon fill="white" stroke="black" points="1272,-112.5 1272,-131.5 1368,-131.5 1368,-112.5 1272,-112.5"/>
<text text-anchor="middle" x="1320" y="-119.5" font-family="Helvetica,sans-Serif" font-size="10.00">utils/fmtSTL.hpp</text>
</a>
</g>
</g>
<!-- Node12&#45;&gt;Node20 -->
<g id="edge26" class="edge">
<title>Node12&#45;&gt;Node20</title>
<path fill="none" stroke="midnightblue" d="M1461.36,-173.98C1433.06,-163.77 1385.47,-146.61 1353.41,-135.05"/>
<polygon fill="midnightblue" stroke="midnightblue" points="1354.19,-131.61 1343.6,-131.51 1351.82,-138.19 1354.19,-131.61"/>
</g>
<!-- Node15&#45;&gt;Node13 -->
<g id="edge22" class="edge">
<title>Node15&#45;&gt;Node13</title>
<path fill="none" stroke="midnightblue" d="M1571.27,-112.44C1541.57,-103.28 1494.28,-88.69 1461.33,-78.52"/>
<polygon fill="midnightblue" stroke="midnightblue" points="1462.19,-75.12 1451.6,-75.52 1460.12,-81.81 1462.19,-75.12"/>
</g>
<!-- Node16 -->
<g id="node16" class="node">
<title>Node16</title>
<g id="a_node16"><a xlink:title=" ">
<polygon fill="white" stroke="#bfbfbf" points="1515.5,-0.5 1515.5,-19.5 1584.5,-19.5 1584.5,-0.5 1515.5,-0.5"/>
<text text-anchor="middle" x="1550" y="-7.5" font-family="Helvetica,sans-Serif" font-size="10.00">Eigen/Core</text>
</a>
</g>
</g>
<!-- Node15&#45;&gt;Node16 -->
<g id="edge20" class="edge">
<title>Node15&#45;&gt;Node16</title>
<path fill="none" stroke="midnightblue" d="M1575.55,-112.41C1559.84,-105.28 1540.38,-93.46 1531,-76 1522.94,-61 1530.08,-42.17 1537.81,-28.64"/>
<polygon fill="midnightblue" stroke="midnightblue" points="1540.97,-30.19 1543.32,-19.86 1535.04,-26.46 1540.97,-30.19"/>
</g>
<!-- Node17 -->
<g id="node17" class="node">
<title>Node17</title>
<g id="a_node17"><a xlink:title=" ">
<polygon fill="white" stroke="#bfbfbf" points="1657,-56.5 1657,-75.5 1721,-75.5 1721,-56.5 1657,-56.5"/>
<text text-anchor="middle" x="1689" y="-63.5" font-family="Helvetica,sans-Serif" font-size="10.00">algorithm</text>
</a>
</g>
</g>
<!-- Node15&#45;&gt;Node17 -->
<g id="edge21" class="edge">
<title>Node15&#45;&gt;Node17</title>
<path fill="none" stroke="midnightblue" d="M1613.46,-112.32C1627.5,-103.9 1649.05,-90.97 1665.54,-81.07"/>
<polygon fill="midnightblue" stroke="midnightblue" points="1667.8,-83.8 1674.58,-75.65 1664.2,-77.8 1667.8,-83.8"/>
</g>
<!-- Node18 -->
<g id="node18" class="node">
<title>Node18</title>
<g id="a_node18"><a xlink:title=" ">
<polygon fill="white" stroke="#bfbfbf" points="1739,-56.5 1739,-75.5 1795,-75.5 1795,-56.5 1739,-56.5"/>
<text text-anchor="middle" x="1767" y="-63.5" font-family="Helvetica,sans-Serif" font-size="10.00">sstream</text>
</a>
</g>
</g>
<!-- Node15&#45;&gt;Node18 -->
<g id="edge23" class="edge">
<title>Node15&#45;&gt;Node18</title>
<path fill="none" stroke="midnightblue" d="M1625.62,-112.44C1654.01,-103.32 1699.14,-88.81 1730.75,-78.65"/>
<polygon fill="midnightblue" stroke="midnightblue" points="1732.06,-81.91 1740.5,-75.52 1729.91,-75.24 1732.06,-81.91"/>
</g>
<!-- Node19 -->
<g id="node19" class="node">
<title>Node19</title>
<g id="a_node19"><a xlink:href="EigenIO_8hpp.html" target="_top" xlink:title=" ">
<polygon fill="white" stroke="black" points="1539.5,-56.5 1539.5,-75.5 1638.5,-75.5 1638.5,-56.5 1539.5,-56.5"/>
<text text-anchor="middle" x="1589" y="-63.5" font-family="Helvetica,sans-Serif" font-size="10.00">utils/EigenIO.hpp</text>
</a>
</g>
</g>
<!-- Node15&#45;&gt;Node19 -->
<g id="edge24" class="edge">
<title>Node15&#45;&gt;Node19</title>
<path fill="none" stroke="midnightblue" d="M1597.35,-112.08C1596.02,-104.93 1594.12,-94.64 1592.46,-85.69"/>
<polygon fill="midnightblue" stroke="midnightblue" points="1595.88,-84.95 1590.62,-75.75 1589,-86.22 1595.88,-84.95"/>
</g>
<!-- Node19&#45;&gt;Node16 -->
<g id="edge25" class="edge">
<title>Node19&#45;&gt;Node16</title>
<path fill="none" stroke="midnightblue" d="M1582.56,-56.08C1577.05,-48.46 1568.97,-37.26 1562.24,-27.94"/>
<polygon fill="midnightblue" stroke="midnightblue" points="1565.01,-25.81 1556.32,-19.75 1559.34,-29.91 1565.01,-25.81"/>
</g>
<!-- Node20&#45;&gt;Node3 -->
<g id="edge32" class="edge">
<title>Node20&#45;&gt;Node3</title>
<path fill="none" stroke="midnightblue" d="M1271.84,-113.06C1268.85,-112.67 1265.89,-112.31 1263,-112 1122.19,-96.67 678.53,-74.7 551.99,-68.62"/>
<polygon fill="midnightblue" stroke="midnightblue" points="551.91,-65.11 541.75,-68.13 551.57,-72.1 551.91,-65.11"/>
</g>
<!-- Node20&#45;&gt;Node5 -->
<g id="edge30" class="edge">
<title>Node20&#45;&gt;Node5</title>
<path fill="none" stroke="midnightblue" d="M1271.83,-113.17C1268.84,-112.76 1265.88,-112.36 1263,-112 1091.05,-90.47 883.62,-74.57 807.68,-69.09"/>
<polygon fill="midnightblue" stroke="midnightblue" points="807.68,-65.58 797.45,-68.35 807.18,-72.56 807.68,-65.58"/>
</g>
<!-- Node20&#45;&gt;Node13 -->
<g id="edge29" class="edge">
<title>Node20&#45;&gt;Node13</title>
<path fill="none" stroke="midnightblue" d="M1336.71,-112.32C1353.31,-103.7 1379,-90.36 1398.22,-80.39"/>
<polygon fill="midnightblue" stroke="midnightblue" points="1400.07,-83.37 1407.33,-75.65 1396.84,-77.16 1400.07,-83.37"/>
</g>
<!-- Node21 -->
<g id="node21" class="node">
<title>Node21</title>
<g id="a_node21"><a xlink:title=" ">
<polygon fill="white" stroke="#bfbfbf" points="1208,-56.5 1208,-75.5 1250,-75.5 1250,-56.5 1208,-56.5"/>
<text text-anchor="middle" x="1229" y="-63.5" font-family="Helvetica,sans-Serif" font-size="10.00">array</text>
</a>
</g>
</g>
<!-- Node20&#45;&gt;Node21 -->
<g id="edge27" class="edge">
<title>Node20&#45;&gt;Node21</title>
<path fill="none" stroke="midnightblue" d="M1305.38,-112.32C1291.05,-103.82 1268.99,-90.73 1252.25,-80.8"/>
<polygon fill="midnightblue" stroke="midnightblue" points="1253.97,-77.75 1243.58,-75.65 1250.4,-83.77 1253.97,-77.75"/>
</g>
<!-- Node22 -->
<g id="node22" class="node">
<title>Node22</title>
<g id="a_node22"><a xlink:title=" ">
<polygon fill="white" stroke="#bfbfbf" points="1268.5,-56.5 1268.5,-75.5 1315.5,-75.5 1315.5,-56.5 1268.5,-56.5"/>
<text text-anchor="middle" x="1292" y="-63.5" font-family="Helvetica,sans-Serif" font-size="10.00">deque</text>
</a>
</g>
</g>
<!-- Node20&#45;&gt;Node22 -->
<g id="edge28" class="edge">
<title>Node20&#45;&gt;Node22</title>
<path fill="none" stroke="midnightblue" d="M1315.38,-112.08C1311.54,-104.69 1305.98,-93.95 1301.24,-84.81"/>
<polygon fill="midnightblue" stroke="midnightblue" points="1304.25,-83.02 1296.54,-75.75 1298.03,-86.24 1304.25,-83.02"/>
</g>
<!-- Node23 -->
<g id="node23" class="node">
<title>Node23</title>
<g id="a_node23"><a xlink:title=" ">
<polygon fill="white" stroke="#bfbfbf" points="1334,-56.5 1334,-75.5 1366,-75.5 1366,-56.5 1334,-56.5"/>
<text text-anchor="middle" x="1350" y="-63.5" font-family="Helvetica,sans-Serif" font-size="10.00">set</text>
</a>
</g>
</g>
<!-- Node20&#45;&gt;Node23 -->
<g id="edge31" class="edge">
<title>Node20&#45;&gt;Node23</title>
<path fill="none" stroke="midnightblue" d="M1324.95,-112.08C1329.1,-104.61 1335.15,-93.72 1340.27,-84.52"/>
<polygon fill="midnightblue" stroke="midnightblue" points="1343.34,-86.19 1345.14,-75.75 1337.22,-82.79 1343.34,-86.19"/>
</g>
<!-- Node24&#45;&gt;Node12 -->
<g id="edge39" class="edge">
<title>Node24&#45;&gt;Node12</title>
<path fill="none" stroke="midnightblue" d="M1140.53,-235.49C1205.59,-226.79 1308.87,-212.65 1398,-199 1410.06,-197.15 1423.04,-195.05 1435.21,-193.03"/>
<polygon fill="midnightblue" stroke="midnightblue" points="1435.9,-196.46 1445.19,-191.36 1434.75,-189.56 1435.9,-196.46"/>
</g>
<!-- Node25 -->
<g id="node25" class="node">
<title>Node25</title>
<g id="a_node25"><a xlink:title=" ">
<polygon fill="white" stroke="#bfbfbf" points="1279,-168.5 1279,-198.5 1389,-198.5 1389,-168.5 1279,-168.5"/>
<text text-anchor="start" x="1287" y="-186.5" font-family="Helvetica,sans-Serif" font-size="10.00">boost/preprocessor</text>
<text text-anchor="middle" x="1334" y="-175.5" font-family="Helvetica,sans-Serif" font-size="10.00">/control/if.hpp</text>
</a>
</g>
</g>
<!-- Node24&#45;&gt;Node25 -->
<g id="edge34" class="edge">
<title>Node24&#45;&gt;Node25</title>
<path fill="none" stroke="midnightblue" d="M1112.97,-235.48C1153.51,-226.13 1219.35,-210.94 1268.65,-199.57"/>
<polygon fill="midnightblue" stroke="midnightblue" points="1269.63,-202.94 1278.59,-197.28 1268.05,-196.12 1269.63,-202.94"/>
</g>
<!-- Node26 -->
<g id="node26" class="node">
<title>Node26</title>
<g id="a_node26"><a xlink:title=" ">
<polygon fill="white" stroke="#bfbfbf" points="1149.5,-168.5 1149.5,-198.5 1260.5,-198.5 1260.5,-168.5 1149.5,-168.5"/>
<text text-anchor="start" x="1157.5" y="-186.5" font-family="Helvetica,sans-Serif" font-size="10.00">boost/preprocessor</text>
<text text-anchor="middle" x="1205" y="-175.5" font-family="Helvetica,sans-Serif" font-size="10.00">/seq/for_each_i.hpp</text>
</a>
</g>
</g>
<!-- Node24&#45;&gt;Node26 -->
<g id="edge35" class="edge">
<title>Node24&#45;&gt;Node26</title>
<path fill="none" stroke="midnightblue" d="M1094.48,-235.48C1112.93,-226.96 1141.87,-213.62 1165.5,-202.72"/>
<polygon fill="midnightblue" stroke="midnightblue" points="1166.98,-205.89 1174.6,-198.52 1164.05,-199.53 1166.98,-205.89"/>
</g>
<!-- Node27 -->
<g id="node27" class="node">
<title>Node27</title>
<g id="a_node27"><a xlink:title=" ">
<polygon fill="white" stroke="#bfbfbf" points="733,-168.5 733,-198.5 843,-198.5 843,-168.5 733,-168.5"/>
<text text-anchor="start" x="741" y="-186.5" font-family="Helvetica,sans-Serif" font-size="10.00">boost/preprocessor</text>
<text text-anchor="middle" x="788" y="-175.5" font-family="Helvetica,sans-Serif" font-size="10.00">/stringize.hpp</text>
</a>
</g>
</g>
<!-- Node24&#45;&gt;Node27 -->
<g id="edge36" class="edge">
<title>Node24&#45;&gt;Node27</title>
<path fill="none" stroke="midnightblue" d="M1032.36,-235.47C989.48,-227.02 921.91,-213.55 853.41,-199.06"/>
<polygon fill="midnightblue" stroke="midnightblue" points="853.81,-195.57 843.3,-196.92 852.36,-202.42 853.81,-195.57"/>
</g>
<!-- Node28 -->
<g id="node28" class="node">
<title>Node28</title>
<g id="a_node28"><a xlink:title=" ">
<polygon fill="white" stroke="#bfbfbf" points="861.5,-168.5 861.5,-198.5 976.5,-198.5 976.5,-168.5 861.5,-168.5"/>
<text text-anchor="start" x="869.5" y="-186.5" font-family="Helvetica,sans-Serif" font-size="10.00">boost/preprocessor</text>
<text text-anchor="middle" x="919" y="-175.5" font-family="Helvetica,sans-Serif" font-size="10.00">/variadic/to_seq.hpp</text>
</a>
</g>
</g>
<!-- Node24&#45;&gt;Node28 -->
<g id="edge37" class="edge">
<title>Node24&#45;&gt;Node28</title>
<path fill="none" stroke="midnightblue" d="M1053.51,-235.48C1030.65,-226.81 994.59,-213.15 965.55,-202.14"/>
<polygon fill="midnightblue" stroke="midnightblue" points="966.59,-198.79 956,-198.52 964.11,-205.34 966.59,-198.79"/>
</g>
<!-- Node29 -->
<g id="node29" class="node">
<title>Node29</title>
<g id="a_node29"><a xlink:title=" ">
<polygon fill="white" stroke="#bfbfbf" points="995,-174 995,-193 1131,-193 1131,-174 995,-174"/>
<text text-anchor="middle" x="1063" y="-181" font-family="Helvetica,sans-Serif" font-size="10.00">boost/vmd/is_empty.hpp</text>
</a>
</g>
</g>
<!-- Node24&#45;&gt;Node29 -->
<g id="edge38" class="edge">
<title>Node24&#45;&gt;Node29</title>
<path fill="none" stroke="midnightblue" d="M1074.14,-235.48C1072.28,-226.99 1069.38,-213.7 1067,-202.82"/>
<polygon fill="midnightblue" stroke="midnightblue" points="1070.41,-202.03 1064.86,-193.01 1063.57,-203.53 1070.41,-202.03"/>
</g>
<!-- Node30&#45;&gt;Node9 -->
<g id="edge41" class="edge">
<title>Node30&#45;&gt;Node9</title>
<path fill="none" stroke="midnightblue" d="M1317.28,-254.55C1314.4,-267.53 1307.72,-292.64 1296,-311 1288.82,-322.25 1278.33,-332.79 1269.17,-340.85"/>
<polygon fill="midnightblue" stroke="midnightblue" points="1266.68,-338.37 1261.28,-347.49 1271.19,-343.73 1266.68,-338.37"/>
</g>
<!-- Node31&#45;&gt;Node10 -->
<g id="edge45" class="edge">
<title>Node31&#45;&gt;Node10</title>
<path fill="none" stroke="midnightblue" d="M896.05,-470.46C916.94,-464.1 939.47,-453.07 952,-434 973.23,-401.68 970.45,-380.98 952,-347 890.52,-233.79 637.14,-263.15 724,-168 753.74,-135.42 1052.85,-126.15 1170.15,-123.76"/>
<polygon fill="midnightblue" stroke="midnightblue" points="1170.34,-127.26 1180.27,-123.56 1170.2,-120.26 1170.34,-127.26"/>
</g>
<!-- Node31&#45;&gt;Node12 -->
<g id="edge46" class="edge">
<title>Node31&#45;&gt;Node12</title>
<path fill="none" stroke="midnightblue" d="M901.57,-479.88C1052.44,-480.92 1470,-473.37 1470,-358 1470,-358 1470,-358 1470,-300 1470,-265.58 1476.63,-225.86 1481.08,-203.11"/>
<polygon fill="midnightblue" stroke="midnightblue" points="1484.54,-203.64 1483.1,-193.14 1477.68,-202.25 1484.54,-203.64"/>
</g>
<!-- Node31&#45;&gt;Node24 -->
<g id="edge52" class="edge">
<title>Node31&#45;&gt;Node24</title>
<path fill="none" stroke="midnightblue" d="M890.32,-470.42C938.99,-460.2 1013.44,-443.35 1023,-434 1070.48,-387.61 1076.34,-302.24 1076.46,-264.63"/>
<polygon fill="midnightblue" stroke="midnightblue" points="1079.96,-264.55 1076.36,-254.59 1072.96,-264.62 1079.96,-264.55"/>
</g>
<!-- Node31&#45;&gt;Node25 -->
<g id="edge49" class="edge">
<title>Node31&#45;&gt;Node25</title>
<path fill="none" stroke="midnightblue" d="M901.74,-470.46C952.13,-461.82 1023.3,-447.81 1048,-434 1155.82,-373.73 1143.67,-309.76 1242,-235 1258.03,-222.81 1277.37,-211.73 1294.17,-203.08"/>
<polygon fill="midnightblue" stroke="midnightblue" points="1295.85,-206.15 1303.21,-198.53 1292.7,-199.9 1295.85,-206.15"/>
</g>
<!-- Node31&#45;&gt;Node27 -->
<g id="edge50" class="edge">
<title>Node31&#45;&gt;Node27</title>
<path fill="none" stroke="midnightblue" d="M891.58,-470.46C927.33,-462.47 973.8,-449.46 985,-434 1007.68,-402.68 1001.49,-381.97 985,-347 952.48,-278.01 874.7,-228.36 827.18,-203.21"/>
<polygon fill="midnightblue" stroke="midnightblue" points="828.59,-200 818.1,-198.51 825.37,-206.22 828.59,-200"/>
</g>
<!-- Node32 -->
<g id="node32" class="node">
<title>Node32</title>
<g id="a_node32"><a xlink:title=" ">
<polygon fill="white" stroke="#bfbfbf" points="1178.5,-409 1178.5,-428 1227.5,-428 1227.5,-409 1178.5,-409"/>
<text text-anchor="middle" x="1203" y="-416" font-family="Helvetica,sans-Serif" font-size="10.00">cstdlib</text>
</a>
</g>
</g>
<!-- Node31&#45;&gt;Node32 -->
<g id="edge43" class="edge">
<title>Node31&#45;&gt;Node32</title>
<path fill="none" stroke="midnightblue" d="M901.51,-474.9C964.91,-469.24 1073.37,-457.02 1164,-434 1166.98,-433.24 1170.06,-432.33 1173.1,-431.35"/>
<polygon fill="midnightblue" stroke="midnightblue" points="1174.34,-434.63 1182.62,-428.02 1172.02,-428.02 1174.34,-434.63"/>
</g>
<!-- Node33 -->
<g id="node33" class="node">
<title>Node33</title>
<g id="a_node33"><a xlink:title=" ">
<polygon fill="white" stroke="#bfbfbf" points="250,-409 250,-428 310,-428 310,-409 250,-409"/>
<text text-anchor="middle" x="280" y="-416" font-family="Helvetica,sans-Serif" font-size="10.00">iostream</text>
</a>
</g>
</g>
<!-- Node31&#45;&gt;Node33 -->
<g id="edge44" class="edge">
<title>Node31&#45;&gt;Node33</title>
<path fill="none" stroke="midnightblue" d="M794.34,-479.2C697.96,-478.51 489.67,-472.24 319,-434 315.93,-433.31 312.77,-432.44 309.65,-431.46"/>
<polygon fill="midnightblue" stroke="midnightblue" points="310.52,-428.06 299.93,-428.09 308.23,-434.67 310.52,-428.06"/>
</g>
<!-- Node34 -->
<g id="node34" class="node">
<title>Node34</title>
<g id="a_node34"><a xlink:title=" ">
<polygon fill="white" stroke="#bfbfbf" points="328.5,-409 328.5,-428 475.5,-428 475.5,-409 328.5,-409"/>
<text text-anchor="middle" x="402" y="-416" font-family="Helvetica,sans-Serif" font-size="10.00">boost/current_function.hpp</text>
</a>
</g>
</g>
<!-- Node31&#45;&gt;Node34 -->
<g id="edge47" class="edge">
<title>Node31&#45;&gt;Node34</title>
<path fill="none" stroke="midnightblue" d="M794.38,-473.19C723.45,-465.32 594.6,-450.36 485,-434 476.38,-432.71 467.28,-431.24 458.38,-429.74"/>
<polygon fill="midnightblue" stroke="midnightblue" points="458.91,-426.28 448.47,-428.04 457.73,-433.18 458.91,-426.28"/>
</g>
<!-- Node35 -->
<g id="node35" class="node">
<title>Node35</title>
<g id="a_node35"><a xlink:title=" ">
<polygon fill="white" stroke="#bfbfbf" points="493.5,-403.5 493.5,-433.5 628.5,-433.5 628.5,-403.5 493.5,-403.5"/>
<text text-anchor="start" x="501.5" y="-421.5" font-family="Helvetica,sans-Serif" font-size="10.00">boost/preprocessor</text>
<text text-anchor="middle" x="561" y="-410.5" font-family="Helvetica,sans-Serif" font-size="10.00">/comparison/greater.hpp</text>
</a>
</g>
</g>
<!-- Node31&#45;&gt;Node35 -->
<g id="edge48" class="edge">
<title>Node31&#45;&gt;Node35</title>
<path fill="none" stroke="midnightblue" d="M806.88,-470.48C763.11,-461.4 692.81,-446.83 638.57,-435.58"/>
<polygon fill="midnightblue" stroke="midnightblue" points="639.14,-432.13 628.64,-433.52 637.72,-438.98 639.14,-432.13"/>
</g>
<!-- Node36 -->
<g id="node36" class="node">
<title>Node36</title>
<g id="a_node36"><a xlink:title=" ">
<polygon fill="white" stroke="#bfbfbf" points="647,-403.5 647,-433.5 757,-433.5 757,-403.5 647,-403.5"/>
<text text-anchor="start" x="655" y="-421.5" font-family="Helvetica,sans-Serif" font-size="10.00">boost/preprocessor</text>
<text text-anchor="middle" x="702" y="-410.5" font-family="Helvetica,sans-Serif" font-size="10.00">/variadic/size.hpp</text>
</a>
</g>
</g>
<!-- Node31&#45;&gt;Node36 -->
<g id="edge51" class="edge">
<title>Node31&#45;&gt;Node36</title>
<path fill="none" stroke="midnightblue" d="M827.08,-470.48C806.01,-461.89 772.87,-448.38 745.99,-437.43"/>
<polygon fill="midnightblue" stroke="midnightblue" points="746.99,-434.06 736.41,-433.52 744.35,-440.54 746.99,-434.06"/>
</g>
<!-- Node37 -->
<g id="node37" class="node">
<title>Node37</title>
<g id="a_node37"><a xlink:href="Parallel_8hpp.html" target="_top" xlink:title=" ">
<polygon fill="white" stroke="black" points="845,-409 845,-428 943,-428 943,-409 845,-409"/>
<text text-anchor="middle" x="894" y="-416" font-family="Helvetica,sans-Serif" font-size="10.00">utils/Parallel.hpp</text>
</a>
</g>
</g>
<!-- Node31&#45;&gt;Node37 -->
<g id="edge53" class="edge">
<title>Node31&#45;&gt;Node37</title>
<path fill="none" stroke="midnightblue" d="M854.59,-470.48C861.49,-461.55 872.5,-447.31 881.13,-436.14"/>
<polygon fill="midnightblue" stroke="midnightblue" points="884.07,-438.06 887.42,-428.01 878.54,-433.78 884.07,-438.06"/>
</g>
<!-- Node41 -->
<g id="node41" class="node">
<title>Node41</title>
<g id="a_node41"><a xlink:href="stacktrace_8hpp.html" target="_top" xlink:title=" ">
<polygon fill="white" stroke="black" points="66.5,-291.5 66.5,-310.5 179.5,-310.5 179.5,-291.5 66.5,-291.5"/>
<text text-anchor="middle" x="123" y="-298.5" font-family="Helvetica,sans-Serif" font-size="10.00">utils/stacktrace.hpp</text>
</a>
</g>
</g>
<!-- Node31&#45;&gt;Node41 -->
<g id="edge62" class="edge">
<title>Node31&#45;&gt;Node41</title>
<path fill="none" stroke="midnightblue" d="M794.32,-477.79C626.1,-473.73 118.95,-459.43 95,-434 65.26,-402.43 93.19,-347.47 110.92,-319.47"/>
<polygon fill="midnightblue" stroke="midnightblue" points="114.08,-321.05 116.66,-310.78 108.23,-317.2 114.08,-321.05"/>
</g>
<!-- Node42 -->
<g id="node42" class="node">
<title>Node42</title>
<g id="a_node42"><a xlink:title=" ">
<polygon fill="white" stroke="#bfbfbf" points="775,-409 775,-428 827,-428 827,-409 775,-409"/>
<text text-anchor="middle" x="801" y="-416" font-family="Helvetica,sans-Serif" font-size="10.00">cassert</text>
</a>
</g>
</g>
<!-- Node31&#45;&gt;Node42 -->
<g id="edge64" class="edge">
<title>Node31&#45;&gt;Node42</title>
<path fill="none" stroke="midnightblue" d="M841.27,-470.48C834.22,-461.55 822.97,-447.31 814.15,-436.14"/>
<polygon fill="midnightblue" stroke="midnightblue" points="816.67,-433.69 807.72,-428.01 811.17,-438.03 816.67,-433.69"/>
</g>
<!-- Node37&#45;&gt;Node2 -->
<g id="edge57" class="edge">
<title>Node37&#45;&gt;Node2</title>
<path fill="none" stroke="midnightblue" d="M860.94,-408.93C852.81,-406.9 844.1,-404.81 836,-403 755.1,-384.94 729.69,-398.46 653,-367 576.82,-335.75 369.4,-185.68 304.02,-137.75"/>
<polygon fill="midnightblue" stroke="midnightblue" points="305.89,-134.79 295.76,-131.69 301.75,-140.43 305.89,-134.79"/>
</g>
<!-- Node37&#45;&gt;Node3 -->
<g id="edge58" class="edge">
<title>Node37&#45;&gt;Node3</title>
<path fill="none" stroke="midnightblue" d="M863.25,-408.91C819.84,-396.62 744.68,-374.66 734,-367 624.47,-288.43 549.27,-136.85 525.8,-84.95"/>
<polygon fill="midnightblue" stroke="midnightblue" points="528.95,-83.41 521.69,-75.69 522.55,-86.25 528.95,-83.41"/>
</g>
<!-- Node37&#45;&gt;Node7 -->
<g id="edge55" class="edge">
<title>Node37&#45;&gt;Node7</title>
<path fill="none" stroke="midnightblue" d="M858.39,-408.99C820.85,-399.35 765.09,-382.91 750,-367 738.25,-354.61 733.72,-335.37 732,-321.03"/>
<polygon fill="midnightblue" stroke="midnightblue" points="735.46,-320.48 731.13,-310.81 728.49,-321.07 735.46,-320.48"/>
</g>
<!-- Node37&#45;&gt;Node8 -->
<g id="edge60" class="edge">
<title>Node37&#45;&gt;Node8</title>
<path fill="none" stroke="midnightblue" d="M861.9,-408.93C853.51,-406.84 844.44,-404.71 836,-403 794.13,-394.5 681.98,-377.54 610.91,-367.04"/>
<polygon fill="midnightblue" stroke="midnightblue" points="611.14,-363.54 600.74,-365.54 610.12,-370.47 611.14,-363.54"/>
</g>
<!-- Node37&#45;&gt;Node9 -->
<g id="edge59" class="edge">
<title>Node37&#45;&gt;Node9</title>
<path fill="none" stroke="midnightblue" d="M943.13,-409.29C1007.3,-398.56 1119.65,-379.79 1189.15,-368.17"/>
<polygon fill="midnightblue" stroke="midnightblue" points="1189.79,-371.61 1199.08,-366.51 1188.64,-364.71 1189.79,-371.61"/>
</g>
<!-- Node38 -->
<g id="node38" class="node">
<title>Node38</title>
<g id="a_node38"><a xlink:title=" ">
<polygon fill="white" stroke="#bfbfbf" points="895,-347.5 895,-366.5 943,-366.5 943,-347.5 895,-347.5"/>
<text text-anchor="middle" x="919" y="-354.5" font-family="Helvetica,sans-Serif" font-size="10.00">iosfwd</text>
</a>
</g>
</g>
<!-- Node37&#45;&gt;Node38 -->
<g id="edge54" class="edge">
<title>Node37&#45;&gt;Node38</title>
<path fill="none" stroke="midnightblue" d="M897.58,-408.98C901.18,-400.4 906.85,-386.93 911.44,-375.98"/>
<polygon fill="midnightblue" stroke="midnightblue" points="914.78,-377.08 915.42,-366.51 908.32,-374.37 914.78,-377.08"/>
</g>
<!-- Node39 -->
<g id="node39" class="node">
<title>Node39</title>
<g id="a_node39"><a xlink:title=" ">
<polygon fill="white" stroke="#bfbfbf" points="759,-347.5 759,-366.5 815,-366.5 815,-347.5 759,-347.5"/>
<text text-anchor="middle" x="787" y="-354.5" font-family="Helvetica,sans-Serif" font-size="10.00">optional</text>
</a>
</g>
</g>
<!-- Node37&#45;&gt;Node39 -->
<g id="edge56" class="edge">
<title>Node37&#45;&gt;Node39</title>
<path fill="none" stroke="midnightblue" d="M878.67,-408.98C861.03,-399.17 831.84,-382.93 811.14,-371.42"/>
<polygon fill="midnightblue" stroke="midnightblue" points="812.74,-368.31 802.3,-366.51 809.34,-374.43 812.74,-368.31"/>
</g>
<!-- Node40 -->
<g id="node40" class="node">
<title>Node40</title>
<g id="a_node40"><a xlink:title=" ">
<polygon fill="white" stroke="#bfbfbf" points="833,-347.5 833,-366.5 877,-366.5 877,-347.5 833,-347.5"/>
<text text-anchor="middle" x="855" y="-354.5" font-family="Helvetica,sans-Serif" font-size="10.00">mpi.h</text>
</a>
</g>
</g>
<!-- Node37&#45;&gt;Node40 -->
<g id="edge61" class="edge">
<title>Node37&#45;&gt;Node40</title>
<path fill="none" stroke="midnightblue" d="M888.41,-408.98C882.62,-400.14 873.41,-386.09 866.13,-374.98"/>
<polygon fill="midnightblue" stroke="midnightblue" points="868.99,-372.95 860.58,-366.51 863.13,-376.79 868.99,-372.95"/>
</g>
<!-- Node41&#45;&gt;Node2 -->
<g id="edge63" class="edge">
<title>Node41&#45;&gt;Node2</title>
<path fill="none" stroke="midnightblue" d="M130.77,-291.46C155.89,-263.85 235.26,-176.58 268.8,-139.71"/>
<polygon fill="midnightblue" stroke="midnightblue" points="271.79,-141.62 275.93,-131.87 266.62,-136.91 271.79,-141.62"/>
</g>
</g>
</svg>
        <g id="navigator" transform="translate(0 0)" fill="#404254">
                <rect fill="#f2f5e9" fill-opacity="0.5" stroke="#606060" stroke-width=".5" x="0" y="0" width="60" height="60"/>
                <use id="zoomplus" xlink:href="#zoomPlus" x="17" y="9" onmousedown="handleZoom(evt,'in')"/>
                <use id="zoomminus" xlink:href="#zoomMin" x="42" y="9" onmousedown="handleZoom(evt,'out')"/>
                <use id="reset" xlink:href="#resetDef" x="30" y="36" onmousedown="handleReset()"/>
                <g id="arrowUp" xlink:href="#dirArrow" transform="translate(30 24)" onmousedown="handlePan(0,-1)">
                  <use xlink:href="#rim" fill="#404040">
                        <set attributeName="fill" to="#808080" begin="arrowUp.mouseover" end="arrowUp.mouseout"/>
                  </use>
                  <path fill="none" stroke="white" stroke-width="1.5" d="M0,-3.0v7 M-2.5,-0.5L0,-3.0L2.5,-0.5"/>
                </g>
                <g id="arrowRight" xlink:href="#dirArrow" transform="rotate(90) translate(36 -43)" onmousedown="handlePan(1,0)">
                  <use xlink:href="#rim" fill="#404040">
                        <set attributeName="fill" to="#808080" begin="arrowRight.mouseover" end="arrowRight.mouseout"/>
                  </use>
                  <path fill="none" stroke="white" stroke-width="1.5" d="M0,-3.0v7 M-2.5,-0.5L0,-3.0L2.5,-0.5"/>
                </g>
                <g id="arrowDown" xlink:href="#dirArrow" transform="rotate(180) translate(-30 -48)" onmousedown="handlePan(0,1)">
                  <use xlink:href="#rim" fill="#404040">
                        <set attributeName="fill" to="#808080" begin="arrowDown.mouseover" end="arrowDown.mouseout"/>
                  </use>
                  <path fill="none" stroke="white" stroke-width="1.5" d="M0,-3.0v7 M-2.5,-0.5L0,-3.0L2.5,-0.5"/>
                </g>
                <g id="arrowLeft" xlink:href="#dirArrow" transform="rotate(270) translate(-36 17)" onmousedown="handlePan(-1,0)">
                  <use xlink:href="#rim" fill="#404040">
                        <set attributeName="fill" to="#808080" begin="arrowLeft.mouseover" end="arrowLeft.mouseout"/>
                  </use>
                  <path fill="none" stroke="white" stroke-width="1.5" d="M0,-3.0v7 M-2.5,-0.5L0,-3.0L2.5,-0.5"/>
                </g>
        </g>
        <svg viewBox="0 0 15 15" width="100%" height="30px" preserveAspectRatio="xMaxYMin meet">
         <g id="arrow_out" transform="scale(0.3 0.3)">
          <a xlink:href="DummyCouplingScheme_8hpp__incl_org.svg" target="_base">
           <rect id="button" ry="5" rx="5" y="6" x="6" height="38" width="38"
                fill="#f2f5e9" fill-opacity="0.5" stroke="#606060" stroke-width="1.0"/>
           <path id="arrow"
             d="M 11.500037,31.436501 C 11.940474,20.09759 22.043105,11.32322 32.158766,21.979434 L 37.068811,17.246167 C 37.068811,17.246167 37.088388,32 37.088388,32 L 22.160133,31.978069 C 22.160133,31.978069 26.997745,27.140456 26.997745,27.140456 C 18.528582,18.264221 13.291696,25.230495 11.500037,31.436501 z"
             style="fill:#404040;"/>
          </a>
         </g>
        </svg>
</svg>
