<?xml version="1.0" encoding="UTF-8" standalone="no"?>
<!DOCTYPE svg PUBLIC "-//W3C//DTD SVG 1.1//EN"
 "http://www.w3.org/Graphics/SVG/1.1/DTD/svg11.dtd">
<!-- Generated by graphviz version 2.43.0 (0)
 -->
<!-- Title: src/cplscheme/tests/DummyCouplingScheme.cpp Pages: 1 -->
<svg width="2025pt" height="621pt"
 viewBox="0.00 0.00 2024.50 621.00" xmlns="http://www.w3.org/2000/svg" xmlns:xlink="http://www.w3.org/1999/xlink">
<g id="graph0" class="graph" transform="scale(1 1) rotate(0) translate(4 617)">
<title>src/cplscheme/tests/DummyCouplingScheme.cpp</title>
<polygon fill="white" stroke="transparent" points="-4,4 -4,-617 2020.5,-617 2020.5,4 -4,4"/>
<!-- Node1 -->
<g id="node1" class="node">
<title>Node1</title>
<g id="a_node1"><a xlink:title=" ">
<polygon fill="#bfbfbf" stroke="black" points="1613.5,-582.5 1613.5,-612.5 1774.5,-612.5 1774.5,-582.5 1613.5,-582.5"/>
<text text-anchor="start" x="1621.5" y="-600.5" font-family="Helvetica,sans-Serif" font-size="10.00">src/cplscheme/tests</text>
<text text-anchor="middle" x="1694" y="-589.5" font-family="Helvetica,sans-Serif" font-size="10.00">/DummyCouplingScheme.cpp</text>
</a>
</g>
</g>
<!-- Node2 -->
<g id="node2" class="node">
<title>Node2</title>
<g id="a_node2"><a xlink:href="DummyCouplingScheme_8hpp.html" target="_top" xlink:title=" ">
<polygon fill="white" stroke="black" points="1669,-526.5 1669,-545.5 1827,-545.5 1827,-526.5 1669,-526.5"/>
<text text-anchor="middle" x="1748" y="-533.5" font-family="Helvetica,sans-Serif" font-size="10.00">DummyCouplingScheme.hpp</text>
</a>
</g>
</g>
<!-- Node1&#45;&gt;Node2 -->
<g id="edge1" class="edge">
<title>Node1&#45;&gt;Node2</title>
<path fill="none" stroke="midnightblue" d="M1706.8,-582.4C1714.72,-573.66 1724.94,-562.41 1733.21,-553.3"/>
<polygon fill="midnightblue" stroke="midnightblue" points="1736.01,-555.42 1740.14,-545.66 1730.83,-550.71 1736.01,-555.42"/>
</g>
<!-- Node5 -->
<g id="node5" class="node">
<title>Node5</title>
<g id="a_node5"><a xlink:href="CouplingScheme_8hpp.html" target="_top" xlink:title=" ">
<polygon fill="white" stroke="black" points="1623,-409 1623,-428 1751,-428 1751,-409 1623,-409"/>
<text text-anchor="middle" x="1687" y="-416" font-family="Helvetica,sans-Serif" font-size="10.00">../CouplingScheme.hpp</text>
</a>
</g>
</g>
<!-- Node1&#45;&gt;Node5 -->
<g id="edge68" class="edge">
<title>Node1&#45;&gt;Node5</title>
<path fill="none" stroke="midnightblue" d="M1681.01,-582.25C1673.26,-572.75 1664.14,-559.55 1660,-546 1648.41,-508.04 1665.7,-462.19 1677.51,-437.45"/>
<polygon fill="midnightblue" stroke="midnightblue" points="1680.78,-438.73 1682.13,-428.22 1674.52,-435.59 1680.78,-438.73"/>
</g>
<!-- Node12 -->
<g id="node12" class="node">
<title>Node12</title>
<g id="a_node12"><a xlink:href="LogMacros_8hpp.html" target="_top" xlink:title=" ">
<polygon fill="white" stroke="black" points="834,-291.5 834,-310.5 924,-310.5 924,-291.5 834,-291.5"/>
<text text-anchor="middle" x="879" y="-298.5" font-family="Helvetica,sans-Serif" font-size="10.00">LogMacros.hpp</text>
</a>
</g>
</g>
<!-- Node1&#45;&gt;Node12 -->
<g id="edge69" class="edge">
<title>Node1&#45;&gt;Node12</title>
<path fill="none" stroke="midnightblue" d="M1615.4,-582.48C1499.63,-560.18 1277.97,-511.08 1102,-434 1042.1,-407.76 1026.96,-400.84 971,-367 944.83,-351.17 916.29,-330.42 898.05,-316.67"/>
<polygon fill="midnightblue" stroke="midnightblue" points="900.06,-313.8 889.98,-310.54 895.83,-319.37 900.06,-313.8"/>
</g>
<!-- Node44 -->
<g id="node44" class="node">
<title>Node44</title>
<g id="a_node44"><a xlink:href="Constants_8hpp.html" target="_top" xlink:title=" ">
<polygon fill="white" stroke="black" points="1921.5,-470.5 1921.5,-489.5 2016.5,-489.5 2016.5,-470.5 1921.5,-470.5"/>
<text text-anchor="middle" x="1969" y="-477.5" font-family="Helvetica,sans-Serif" font-size="10.00">../Constants.hpp</text>
</a>
</g>
</g>
<!-- Node1&#45;&gt;Node44 -->
<g id="edge66" class="edge">
<title>Node1&#45;&gt;Node44</title>
<path fill="none" stroke="midnightblue" d="M1737.36,-582.5C1765.73,-572.99 1803.44,-559.69 1836,-546 1874.4,-529.85 1917.49,-508.09 1943.94,-494.3"/>
<polygon fill="midnightblue" stroke="midnightblue" points="1945.66,-497.35 1952.89,-489.61 1942.41,-491.15 1945.66,-497.35"/>
</g>
<!-- Node3 -->
<g id="node3" class="node">
<title>Node3</title>
<g id="a_node3"><a xlink:title=" ">
<polygon fill="white" stroke="#bfbfbf" points="1645,-112.5 1645,-131.5 1689,-131.5 1689,-112.5 1645,-112.5"/>
<text text-anchor="middle" x="1667" y="-119.5" font-family="Helvetica,sans-Serif" font-size="10.00">string</text>
</a>
</g>
</g>
<!-- Node2&#45;&gt;Node3 -->
<g id="edge2" class="edge">
<title>Node2&#45;&gt;Node3</title>
<path fill="none" stroke="midnightblue" d="M1752.05,-526.23C1760.46,-507.22 1779,-460.61 1779,-419.5 1779,-419.5 1779,-419.5 1779,-300 1779,-230.9 1717.29,-166.86 1685.48,-138.44"/>
<polygon fill="midnightblue" stroke="midnightblue" points="1687.58,-135.63 1677.74,-131.7 1682.98,-140.9 1687.58,-135.63"/>
</g>
<!-- Node4 -->
<g id="node4" class="node">
<title>Node4</title>
<g id="a_node4"><a xlink:title=" ">
<polygon fill="white" stroke="#bfbfbf" points="1793.5,-56.5 1793.5,-75.5 1840.5,-75.5 1840.5,-56.5 1793.5,-56.5"/>
<text text-anchor="middle" x="1817" y="-63.5" font-family="Helvetica,sans-Serif" font-size="10.00">vector</text>
</a>
</g>
</g>
<!-- Node2&#45;&gt;Node4 -->
<g id="edge3" class="edge">
<title>Node2&#45;&gt;Node4</title>
<path fill="none" stroke="midnightblue" d="M1776.99,-526.43C1819.31,-511.93 1893,-478.24 1893,-419.5 1893,-419.5 1893,-419.5 1893,-182.5 1893,-140.81 1858.02,-102.53 1835.52,-82.22"/>
<polygon fill="midnightblue" stroke="midnightblue" points="1837.73,-79.5 1827.89,-75.58 1833.14,-84.78 1837.73,-79.5"/>
</g>
<!-- Node2&#45;&gt;Node5 -->
<g id="edge4" class="edge">
<title>Node2&#45;&gt;Node5</title>
<path fill="none" stroke="midnightblue" d="M1743.42,-526.32C1733.48,-507.51 1709.79,-462.65 1696.48,-437.46"/>
<polygon fill="midnightblue" stroke="midnightblue" points="1699.4,-435.49 1691.64,-428.28 1693.21,-438.76 1699.4,-435.49"/>
</g>
<!-- Node10 -->
<g id="node10" class="node">
<title>Node10</title>
<g id="a_node10"><a xlink:href="Logger_8hpp.html" target="_top" xlink:title=" ">
<polygon fill="white" stroke="black" points="980.5,-347.5 980.5,-366.5 1089.5,-366.5 1089.5,-347.5 980.5,-347.5"/>
<text text-anchor="middle" x="1035" y="-354.5" font-family="Helvetica,sans-Serif" font-size="10.00">logging/Logger.hpp</text>
</a>
</g>
</g>
<!-- Node2&#45;&gt;Node10 -->
<g id="edge11" class="edge">
<title>Node2&#45;&gt;Node10</title>
<path fill="none" stroke="midnightblue" d="M1668.71,-533.12C1550.33,-527.84 1322.31,-507.98 1145,-434 1123.26,-424.93 1121.34,-416.46 1102,-403 1086.86,-392.46 1069.58,-380.87 1056.36,-372.08"/>
<polygon fill="midnightblue" stroke="midnightblue" points="1058.2,-369.11 1047.93,-366.5 1054.33,-374.94 1058.2,-369.11"/>
</g>
<!-- Node32 -->
<g id="node32" class="node">
<title>Node32</title>
<g id="a_node32"><a xlink:href="assertion_8hpp.html" target="_top" xlink:title=" ">
<polygon fill="white" stroke="black" points="893.5,-470.5 893.5,-489.5 1000.5,-489.5 1000.5,-470.5 893.5,-470.5"/>
<text text-anchor="middle" x="947" y="-477.5" font-family="Helvetica,sans-Serif" font-size="10.00">utils/assertion.hpp</text>
</a>
</g>
</g>
<!-- Node2&#45;&gt;Node32 -->
<g id="edge43" class="edge">
<title>Node2&#45;&gt;Node32</title>
<path fill="none" stroke="midnightblue" d="M1668.64,-529.65C1509.82,-518.94 1155.76,-495.07 1010.77,-485.3"/>
<polygon fill="midnightblue" stroke="midnightblue" points="1010.91,-481.8 1000.7,-484.62 1010.44,-488.79 1010.91,-481.8"/>
</g>
<!-- Node5&#45;&gt;Node3 -->
<g id="edge6" class="edge">
<title>Node5&#45;&gt;Node3</title>
<path fill="none" stroke="midnightblue" d="M1695.36,-408.7C1703.71,-399.25 1716,-383.38 1721,-367 1723.6,-358.5 1722.05,-355.83 1721,-347 1711.76,-269.27 1685.1,-179.49 1673.04,-141.5"/>
<polygon fill="midnightblue" stroke="midnightblue" points="1676.32,-140.27 1669.93,-131.82 1669.66,-142.42 1676.32,-140.27"/>
</g>
<!-- Node5&#45;&gt;Node4 -->
<g id="edge7" class="edge">
<title>Node5&#45;&gt;Node4</title>
<path fill="none" stroke="midnightblue" d="M1745.84,-408.94C1774.73,-401.99 1808.15,-389.48 1831,-367 1852.95,-345.4 1855,-332.8 1855,-302 1855,-302 1855,-302 1855,-182.5 1855,-146.25 1837.91,-106.67 1826.65,-84.53"/>
<polygon fill="midnightblue" stroke="midnightblue" points="1829.73,-82.87 1821.97,-75.66 1823.54,-86.14 1829.73,-82.87"/>
</g>
<!-- Node6 -->
<g id="node6" class="node">
<title>Node6</title>
<g id="a_node6"><a xlink:title=" ">
<polygon fill="white" stroke="#bfbfbf" points="1142,-56.5 1142,-75.5 1180,-75.5 1180,-56.5 1142,-56.5"/>
<text text-anchor="middle" x="1161" y="-63.5" font-family="Helvetica,sans-Serif" font-size="10.00">map</text>
</a>
</g>
</g>
<!-- Node5&#45;&gt;Node6 -->
<g id="edge5" class="edge">
<title>Node5&#45;&gt;Node6</title>
<path fill="none" stroke="midnightblue" d="M1710.84,-408.91C1748.37,-393.68 1817,-358.15 1817,-302 1817,-302 1817,-302 1817,-182.5 1817,-121.03 1756.56,-130.71 1698,-112 1602.12,-81.37 1288.01,-70.44 1190.29,-67.73"/>
<polygon fill="midnightblue" stroke="midnightblue" points="1190.32,-64.23 1180.23,-67.46 1190.14,-71.23 1190.32,-64.23"/>
</g>
<!-- Node7 -->
<g id="node7" class="node">
<title>Node7</title>
<g id="a_node7"><a xlink:href="com_2SharedPointer_8hpp.html" target="_top" xlink:title=" ">
<polygon fill="white" stroke="black" points="1583.5,-347.5 1583.5,-366.5 1712.5,-366.5 1712.5,-347.5 1583.5,-347.5"/>
<text text-anchor="middle" x="1648" y="-354.5" font-family="Helvetica,sans-Serif" font-size="10.00">com/SharedPointer.hpp</text>
</a>
</g>
</g>
<!-- Node5&#45;&gt;Node7 -->
<g id="edge8" class="edge">
<title>Node5&#45;&gt;Node7</title>
<path fill="none" stroke="midnightblue" d="M1681.41,-408.98C1675.62,-400.14 1666.41,-386.09 1659.13,-374.98"/>
<polygon fill="midnightblue" stroke="midnightblue" points="1661.99,-372.95 1653.58,-366.51 1656.13,-376.79 1661.99,-372.95"/>
</g>
<!-- Node9 -->
<g id="node9" class="node">
<title>Node9</title>
<g id="a_node9"><a xlink:href="types_8hpp.html" target="_top" xlink:title=" ">
<polygon fill="white" stroke="black" points="1462.5,-347.5 1462.5,-366.5 1565.5,-366.5 1565.5,-347.5 1462.5,-347.5"/>
<text text-anchor="middle" x="1514" y="-354.5" font-family="Helvetica,sans-Serif" font-size="10.00">precice/types.hpp</text>
</a>
</g>
</g>
<!-- Node5&#45;&gt;Node9 -->
<g id="edge10" class="edge">
<title>Node5&#45;&gt;Node9</title>
<path fill="none" stroke="midnightblue" d="M1662.21,-408.98C1632.41,-398.72 1582.21,-381.46 1548.6,-369.9"/>
<polygon fill="midnightblue" stroke="midnightblue" points="1549.34,-366.45 1538.74,-366.51 1547.06,-373.07 1549.34,-366.45"/>
</g>
<!-- Node8 -->
<g id="node8" class="node">
<title>Node8</title>
<g id="a_node8"><a xlink:title=" ">
<polygon fill="white" stroke="#bfbfbf" points="1272,-291.5 1272,-310.5 1330,-310.5 1330,-291.5 1272,-291.5"/>
<text text-anchor="middle" x="1301" y="-298.5" font-family="Helvetica,sans-Serif" font-size="10.00">memory</text>
</a>
</g>
</g>
<!-- Node7&#45;&gt;Node8 -->
<g id="edge9" class="edge">
<title>Node7&#45;&gt;Node8</title>
<path fill="none" stroke="midnightblue" d="M1593.02,-347.44C1522.56,-336.48 1402.16,-317.74 1340.28,-308.11"/>
<polygon fill="midnightblue" stroke="midnightblue" points="1340.56,-304.61 1330.14,-306.54 1339.49,-311.53 1340.56,-304.61"/>
</g>
<!-- Node10&#45;&gt;Node8 -->
<g id="edge12" class="edge">
<title>Node10&#45;&gt;Node8</title>
<path fill="none" stroke="midnightblue" d="M1077.15,-347.44C1127.89,-337.14 1212.42,-319.98 1261.81,-309.96"/>
<polygon fill="midnightblue" stroke="midnightblue" points="1262.68,-313.35 1271.79,-307.93 1261.29,-306.49 1262.68,-313.35"/>
</g>
<!-- Node11 -->
<g id="node11" class="node">
<title>Node11</title>
<g id="a_node11"><a xlink:title=" ">
<polygon fill="white" stroke="#bfbfbf" points="602.5,-112.5 602.5,-131.5 675.5,-131.5 675.5,-112.5 602.5,-112.5"/>
<text text-anchor="middle" x="639" y="-119.5" font-family="Helvetica,sans-Serif" font-size="10.00">string_view</text>
</a>
</g>
</g>
<!-- Node10&#45;&gt;Node11 -->
<g id="edge13" class="edge">
<title>Node10&#45;&gt;Node11</title>
<path fill="none" stroke="midnightblue" d="M1044.22,-347.4C1074.03,-318.57 1163.02,-224.1 1112,-168 1083.68,-136.86 799.79,-126.77 685.9,-123.96"/>
<polygon fill="midnightblue" stroke="midnightblue" points="685.83,-120.46 675.75,-123.72 685.66,-127.45 685.83,-120.46"/>
</g>
<!-- Node10&#45;&gt;Node12 -->
<g id="edge14" class="edge">
<title>Node10&#45;&gt;Node12</title>
<path fill="none" stroke="midnightblue" d="M1010.28,-347.44C984.15,-338.4 942.74,-324.06 913.42,-313.92"/>
<polygon fill="midnightblue" stroke="midnightblue" points="914.2,-310.48 903.6,-310.52 911.91,-317.1 914.2,-310.48"/>
</g>
<!-- Node13 -->
<g id="node13" class="node">
<title>Node13</title>
<g id="a_node13"><a xlink:href="fmt_8hpp.html" target="_top" xlink:title=" ">
<polygon fill="white" stroke="black" points="311.5,-174 311.5,-193 390.5,-193 390.5,-174 311.5,-174"/>
<text text-anchor="middle" x="351" y="-181" font-family="Helvetica,sans-Serif" font-size="10.00">utils/fmt.hpp</text>
</a>
</g>
</g>
<!-- Node12&#45;&gt;Node13 -->
<g id="edge15" class="edge">
<title>Node12&#45;&gt;Node13</title>
<path fill="none" stroke="midnightblue" d="M833.79,-293.49C781.39,-285.65 692.53,-271.46 617,-255 535.38,-237.21 441.17,-210.84 389.64,-195.9"/>
<polygon fill="midnightblue" stroke="midnightblue" points="390.5,-192.51 379.92,-193.07 388.55,-199.23 390.5,-192.51"/>
</g>
<!-- Node25 -->
<g id="node25" class="node">
<title>Node25</title>
<g id="a_node25"><a xlink:href="ArgumentFormatter_8hpp.html" target="_top" xlink:title=" ">
<polygon fill="white" stroke="black" points="626.5,-235.5 626.5,-254.5 783.5,-254.5 783.5,-235.5 626.5,-235.5"/>
<text text-anchor="middle" x="705" y="-242.5" font-family="Helvetica,sans-Serif" font-size="10.00">utils/ArgumentFormatter.hpp</text>
</a>
</g>
</g>
<!-- Node12&#45;&gt;Node25 -->
<g id="edge34" class="edge">
<title>Node12&#45;&gt;Node25</title>
<path fill="none" stroke="midnightblue" d="M851.43,-291.44C821.9,-282.28 774.88,-267.69 742.12,-257.52"/>
<polygon fill="midnightblue" stroke="midnightblue" points="743.03,-254.14 732.44,-254.52 740.96,-260.82 743.03,-254.14"/>
</g>
<!-- Node31 -->
<g id="node31" class="node">
<title>Node31</title>
<g id="a_node31"><a xlink:href="Tracer_8hpp.html" target="_top" xlink:title=" ">
<polygon fill="white" stroke="black" points="981.5,-235.5 981.5,-254.5 1086.5,-254.5 1086.5,-235.5 981.5,-235.5"/>
<text text-anchor="middle" x="1034" y="-242.5" font-family="Helvetica,sans-Serif" font-size="10.00">logging/Tracer.hpp</text>
</a>
</g>
</g>
<!-- Node12&#45;&gt;Node31 -->
<g id="edge41" class="edge">
<title>Node12&#45;&gt;Node31</title>
<path fill="none" stroke="midnightblue" d="M903.56,-291.44C929.52,-282.4 970.67,-268.06 999.8,-257.92"/>
<polygon fill="midnightblue" stroke="midnightblue" points="1001.26,-261.11 1009.55,-254.52 998.96,-254.5 1001.26,-261.11"/>
</g>
<!-- Node13&#45;&gt;Node3 -->
<g id="edge16" class="edge">
<title>Node13&#45;&gt;Node3</title>
<path fill="none" stroke="midnightblue" d="M390.7,-174.78C405.49,-172.19 422.46,-169.57 438,-168 911.59,-120.06 1492.4,-121.49 1634.5,-122.66"/>
<polygon fill="midnightblue" stroke="midnightblue" points="1634.68,-126.16 1644.71,-122.75 1634.74,-119.16 1634.68,-126.16"/>
</g>
<!-- Node13&#45;&gt;Node11 -->
<g id="edge17" class="edge">
<title>Node13&#45;&gt;Node11</title>
<path fill="none" stroke="midnightblue" d="M381.18,-173.98C388.91,-171.91 397.24,-169.78 405,-168 484.84,-149.66 507.79,-148.25 592.29,-132.12"/>
<polygon fill="midnightblue" stroke="midnightblue" points="593.19,-135.51 602.34,-130.19 591.86,-128.64 593.19,-135.51"/>
</g>
<!-- Node14 -->
<g id="node14" class="node">
<title>Node14</title>
<g id="a_node14"><a xlink:title=" ">
<polygon fill="white" stroke="#bfbfbf" points="311.5,-56.5 311.5,-75.5 390.5,-75.5 390.5,-56.5 311.5,-56.5"/>
<text text-anchor="middle" x="351" y="-63.5" font-family="Helvetica,sans-Serif" font-size="10.00">fmt/format.h</text>
</a>
</g>
</g>
<!-- Node13&#45;&gt;Node14 -->
<g id="edge18" class="edge">
<title>Node13&#45;&gt;Node14</title>
<path fill="none" stroke="midnightblue" d="M351,-173.82C351,-155.26 351,-111.34 351,-85.97"/>
<polygon fill="midnightblue" stroke="midnightblue" points="354.5,-85.78 351,-75.78 347.5,-85.78 354.5,-85.78"/>
</g>
<!-- Node15 -->
<g id="node15" class="node">
<title>Node15</title>
<g id="a_node15"><a xlink:title=" ">
<polygon fill="white" stroke="#bfbfbf" points="498,-112.5 498,-131.5 584,-131.5 584,-112.5 498,-112.5"/>
<text text-anchor="middle" x="541" y="-119.5" font-family="Helvetica,sans-Serif" font-size="10.00">fmt/ostream.h</text>
</a>
</g>
</g>
<!-- Node13&#45;&gt;Node15 -->
<g id="edge19" class="edge">
<title>Node13&#45;&gt;Node15</title>
<path fill="none" stroke="midnightblue" d="M378.22,-173.98C411.24,-163.64 467.04,-146.16 503.95,-134.6"/>
<polygon fill="midnightblue" stroke="midnightblue" points="505.33,-137.84 513.83,-131.51 503.24,-131.16 505.33,-137.84"/>
</g>
<!-- Node16 -->
<g id="node16" class="node">
<title>Node16</title>
<g id="a_node16"><a xlink:href="fmtEigen_8hpp.html" target="_top" xlink:title=" ">
<polygon fill="white" stroke="black" points="152,-112.5 152,-131.5 258,-131.5 258,-112.5 152,-112.5"/>
<text text-anchor="middle" x="205" y="-119.5" font-family="Helvetica,sans-Serif" font-size="10.00">utils/fmtEigen.hpp</text>
</a>
</g>
</g>
<!-- Node13&#45;&gt;Node16 -->
<g id="edge20" class="edge">
<title>Node13&#45;&gt;Node16</title>
<path fill="none" stroke="midnightblue" d="M330.08,-173.98C305.25,-163.86 263.66,-146.9 235.31,-135.35"/>
<polygon fill="midnightblue" stroke="midnightblue" points="236.46,-132.04 225.88,-131.51 233.82,-138.52 236.46,-132.04"/>
</g>
<!-- Node21 -->
<g id="node21" class="node">
<title>Node21</title>
<g id="a_node21"><a xlink:href="fmtSTL_8hpp.html" target="_top" xlink:title=" ">
<polygon fill="white" stroke="black" points="384,-112.5 384,-131.5 480,-131.5 480,-112.5 384,-112.5"/>
<text text-anchor="middle" x="432" y="-119.5" font-family="Helvetica,sans-Serif" font-size="10.00">utils/fmtSTL.hpp</text>
</a>
</g>
</g>
<!-- Node13&#45;&gt;Node21 -->
<g id="edge27" class="edge">
<title>Node13&#45;&gt;Node21</title>
<path fill="none" stroke="midnightblue" d="M362.61,-173.98C375.48,-164.52 396.47,-149.1 412.01,-137.69"/>
<polygon fill="midnightblue" stroke="midnightblue" points="414.43,-140.25 420.42,-131.51 410.28,-134.61 414.43,-140.25"/>
</g>
<!-- Node16&#45;&gt;Node14 -->
<g id="edge23" class="edge">
<title>Node16&#45;&gt;Node14</title>
<path fill="none" stroke="midnightblue" d="M228.13,-112.44C252.48,-103.44 291.01,-89.19 318.42,-79.05"/>
<polygon fill="midnightblue" stroke="midnightblue" points="319.81,-82.27 327.97,-75.52 317.38,-75.7 319.81,-82.27"/>
</g>
<!-- Node17 -->
<g id="node17" class="node">
<title>Node17</title>
<g id="a_node17"><a xlink:title=" ">
<polygon fill="white" stroke="#bfbfbf" points="170.5,-0.5 170.5,-19.5 239.5,-19.5 239.5,-0.5 170.5,-0.5"/>
<text text-anchor="middle" x="205" y="-7.5" font-family="Helvetica,sans-Serif" font-size="10.00">Eigen/Core</text>
</a>
</g>
</g>
<!-- Node16&#45;&gt;Node17 -->
<g id="edge21" class="edge">
<title>Node16&#45;&gt;Node17</title>
<path fill="none" stroke="midnightblue" d="M199.87,-112.41C194.94,-103.61 187.84,-89.38 185,-76 181.52,-59.62 188.04,-41.43 194.54,-28.48"/>
<polygon fill="midnightblue" stroke="midnightblue" points="197.61,-30.15 199.35,-19.7 191.47,-26.79 197.61,-30.15"/>
</g>
<!-- Node18 -->
<g id="node18" class="node">
<title>Node18</title>
<g id="a_node18"><a xlink:title=" ">
<polygon fill="white" stroke="#bfbfbf" points="0,-56.5 0,-75.5 64,-75.5 64,-56.5 0,-56.5"/>
<text text-anchor="middle" x="32" y="-63.5" font-family="Helvetica,sans-Serif" font-size="10.00">algorithm</text>
</a>
</g>
</g>
<!-- Node16&#45;&gt;Node18 -->
<g id="edge22" class="edge">
<title>Node16&#45;&gt;Node18</title>
<path fill="none" stroke="midnightblue" d="M177.59,-112.44C148.23,-103.28 101.48,-88.69 68.9,-78.52"/>
<polygon fill="midnightblue" stroke="midnightblue" points="69.87,-75.16 59.28,-75.52 67.79,-81.84 69.87,-75.16"/>
</g>
<!-- Node19 -->
<g id="node19" class="node">
<title>Node19</title>
<g id="a_node19"><a xlink:title=" ">
<polygon fill="white" stroke="#bfbfbf" points="82,-56.5 82,-75.5 138,-75.5 138,-56.5 82,-56.5"/>
<text text-anchor="middle" x="110" y="-63.5" font-family="Helvetica,sans-Serif" font-size="10.00">sstream</text>
</a>
</g>
</g>
<!-- Node16&#45;&gt;Node19 -->
<g id="edge24" class="edge">
<title>Node16&#45;&gt;Node19</title>
<path fill="none" stroke="midnightblue" d="M189.74,-112.32C174.78,-103.82 151.75,-90.73 134.27,-80.8"/>
<polygon fill="midnightblue" stroke="midnightblue" points="135.65,-77.55 125.23,-75.65 132.19,-83.64 135.65,-77.55"/>
</g>
<!-- Node20 -->
<g id="node20" class="node">
<title>Node20</title>
<g id="a_node20"><a xlink:href="EigenIO_8hpp.html" target="_top" xlink:title=" ">
<polygon fill="white" stroke="black" points="194.5,-56.5 194.5,-75.5 293.5,-75.5 293.5,-56.5 194.5,-56.5"/>
<text text-anchor="middle" x="244" y="-63.5" font-family="Helvetica,sans-Serif" font-size="10.00">utils/EigenIO.hpp</text>
</a>
</g>
</g>
<!-- Node16&#45;&gt;Node20 -->
<g id="edge25" class="edge">
<title>Node16&#45;&gt;Node20</title>
<path fill="none" stroke="midnightblue" d="M211.44,-112.08C216.95,-104.46 225.03,-93.26 231.76,-83.94"/>
<polygon fill="midnightblue" stroke="midnightblue" points="234.66,-85.91 237.68,-75.75 228.99,-81.81 234.66,-85.91"/>
</g>
<!-- Node20&#45;&gt;Node17 -->
<g id="edge26" class="edge">
<title>Node20&#45;&gt;Node17</title>
<path fill="none" stroke="midnightblue" d="M237.56,-56.08C232.05,-48.46 223.97,-37.26 217.24,-27.94"/>
<polygon fill="midnightblue" stroke="midnightblue" points="220.01,-25.81 211.32,-19.75 214.34,-29.91 220.01,-25.81"/>
</g>
<!-- Node21&#45;&gt;Node4 -->
<g id="edge33" class="edge">
<title>Node21&#45;&gt;Node4</title>
<path fill="none" stroke="midnightblue" d="M480.15,-112.97C483.14,-112.61 486.11,-112.28 489,-112 751.18,-86.96 1602.15,-70.79 1783.01,-67.59"/>
<polygon fill="midnightblue" stroke="midnightblue" points="1783.31,-71.08 1793.25,-67.41 1783.19,-64.08 1783.31,-71.08"/>
</g>
<!-- Node21&#45;&gt;Node6 -->
<g id="edge31" class="edge">
<title>Node21&#45;&gt;Node6</title>
<path fill="none" stroke="midnightblue" d="M480.16,-113.08C483.15,-112.69 486.11,-112.32 489,-112 736.86,-84.19 1038.22,-71.48 1131.84,-68.02"/>
<polygon fill="midnightblue" stroke="midnightblue" points="1132.1,-71.51 1141.97,-67.65 1131.85,-64.51 1132.1,-71.51"/>
</g>
<!-- Node21&#45;&gt;Node14 -->
<g id="edge30" class="edge">
<title>Node21&#45;&gt;Node14</title>
<path fill="none" stroke="midnightblue" d="M418.99,-112.32C406.47,-103.98 387.32,-91.21 372.53,-81.35"/>
<polygon fill="midnightblue" stroke="midnightblue" points="374.24,-78.29 363.98,-75.65 370.36,-84.11 374.24,-78.29"/>
</g>
<!-- Node22 -->
<g id="node22" class="node">
<title>Node22</title>
<g id="a_node22"><a xlink:title=" ">
<polygon fill="white" stroke="#bfbfbf" points="524,-56.5 524,-75.5 566,-75.5 566,-56.5 524,-56.5"/>
<text text-anchor="middle" x="545" y="-63.5" font-family="Helvetica,sans-Serif" font-size="10.00">array</text>
</a>
</g>
</g>
<!-- Node21&#45;&gt;Node22 -->
<g id="edge28" class="edge">
<title>Node21&#45;&gt;Node22</title>
<path fill="none" stroke="midnightblue" d="M449.91,-112.44C468.25,-103.68 497.01,-89.94 518.09,-79.86"/>
<polygon fill="midnightblue" stroke="midnightblue" points="519.67,-82.99 527.18,-75.52 516.65,-76.67 519.67,-82.99"/>
</g>
<!-- Node23 -->
<g id="node23" class="node">
<title>Node23</title>
<g id="a_node23"><a xlink:title=" ">
<polygon fill="white" stroke="#bfbfbf" points="408.5,-56.5 408.5,-75.5 455.5,-75.5 455.5,-56.5 408.5,-56.5"/>
<text text-anchor="middle" x="432" y="-63.5" font-family="Helvetica,sans-Serif" font-size="10.00">deque</text>
</a>
</g>
</g>
<!-- Node21&#45;&gt;Node23 -->
<g id="edge29" class="edge">
<title>Node21&#45;&gt;Node23</title>
<path fill="none" stroke="midnightblue" d="M432,-112.08C432,-105.01 432,-94.86 432,-85.99"/>
<polygon fill="midnightblue" stroke="midnightblue" points="435.5,-85.75 432,-75.75 428.5,-85.75 435.5,-85.75"/>
</g>
<!-- Node24 -->
<g id="node24" class="node">
<title>Node24</title>
<g id="a_node24"><a xlink:title=" ">
<polygon fill="white" stroke="#bfbfbf" points="474,-56.5 474,-75.5 506,-75.5 506,-56.5 474,-56.5"/>
<text text-anchor="middle" x="490" y="-63.5" font-family="Helvetica,sans-Serif" font-size="10.00">set</text>
</a>
</g>
</g>
<!-- Node21&#45;&gt;Node24 -->
<g id="edge32" class="edge">
<title>Node21&#45;&gt;Node24</title>
<path fill="none" stroke="midnightblue" d="M441.32,-112.32C449.89,-104.34 462.81,-92.31 473.19,-82.65"/>
<polygon fill="midnightblue" stroke="midnightblue" points="475.58,-85.21 480.51,-75.83 470.81,-80.09 475.58,-85.21"/>
</g>
<!-- Node25&#45;&gt;Node13 -->
<g id="edge40" class="edge">
<title>Node25&#45;&gt;Node13</title>
<path fill="none" stroke="midnightblue" d="M654.28,-235.48C586.63,-224.11 467.64,-204.1 400.58,-192.83"/>
<polygon fill="midnightblue" stroke="midnightblue" points="401.12,-189.37 390.67,-191.17 399.96,-196.28 401.12,-189.37"/>
</g>
<!-- Node26 -->
<g id="node26" class="node">
<title>Node26</title>
<g id="a_node26"><a xlink:title=" ">
<polygon fill="white" stroke="#bfbfbf" points="993,-168.5 993,-198.5 1103,-198.5 1103,-168.5 993,-168.5"/>
<text text-anchor="start" x="1001" y="-186.5" font-family="Helvetica,sans-Serif" font-size="10.00">boost/preprocessor</text>
<text text-anchor="middle" x="1048" y="-175.5" font-family="Helvetica,sans-Serif" font-size="10.00">/control/if.hpp</text>
</a>
</g>
</g>
<!-- Node25&#45;&gt;Node26 -->
<g id="edge35" class="edge">
<title>Node25&#45;&gt;Node26</title>
<path fill="none" stroke="midnightblue" d="M764.02,-235.48C818.21,-227.42 900.97,-214.53 982.76,-198.97"/>
<polygon fill="midnightblue" stroke="midnightblue" points="983.57,-202.38 992.73,-197.06 982.25,-195.51 983.57,-202.38"/>
</g>
<!-- Node27 -->
<g id="node27" class="node">
<title>Node27</title>
<g id="a_node27"><a xlink:title=" ">
<polygon fill="white" stroke="#bfbfbf" points="863.5,-168.5 863.5,-198.5 974.5,-198.5 974.5,-168.5 863.5,-168.5"/>
<text text-anchor="start" x="871.5" y="-186.5" font-family="Helvetica,sans-Serif" font-size="10.00">boost/preprocessor</text>
<text text-anchor="middle" x="919" y="-175.5" font-family="Helvetica,sans-Serif" font-size="10.00">/seq/for_each_i.hpp</text>
</a>
</g>
</g>
<!-- Node25&#45;&gt;Node27 -->
<g id="edge36" class="edge">
<title>Node25&#45;&gt;Node27</title>
<path fill="none" stroke="midnightblue" d="M735.66,-235.48C767.69,-226.57 818.77,-212.37 858.88,-201.22"/>
<polygon fill="midnightblue" stroke="midnightblue" points="859.87,-204.57 868.56,-198.52 857.99,-197.83 859.87,-204.57"/>
</g>
<!-- Node28 -->
<g id="node28" class="node">
<title>Node28</title>
<g id="a_node28"><a xlink:title=" ">
<polygon fill="white" stroke="#bfbfbf" points="447,-168.5 447,-198.5 557,-198.5 557,-168.5 447,-168.5"/>
<text text-anchor="start" x="455" y="-186.5" font-family="Helvetica,sans-Serif" font-size="10.00">boost/preprocessor</text>
<text text-anchor="middle" x="502" y="-175.5" font-family="Helvetica,sans-Serif" font-size="10.00">/stringize.hpp</text>
</a>
</g>
</g>
<!-- Node25&#45;&gt;Node28 -->
<g id="edge37" class="edge">
<title>Node25&#45;&gt;Node28</title>
<path fill="none" stroke="midnightblue" d="M675.92,-235.48C645.72,-226.63 597.7,-212.55 559.75,-201.43"/>
<polygon fill="midnightblue" stroke="midnightblue" points="560.42,-197.98 549.84,-198.52 558.45,-204.69 560.42,-197.98"/>
</g>
<!-- Node29 -->
<g id="node29" class="node">
<title>Node29</title>
<g id="a_node29"><a xlink:title=" ">
<polygon fill="white" stroke="#bfbfbf" points="575.5,-168.5 575.5,-198.5 690.5,-198.5 690.5,-168.5 575.5,-168.5"/>
<text text-anchor="start" x="583.5" y="-186.5" font-family="Helvetica,sans-Serif" font-size="10.00">boost/preprocessor</text>
<text text-anchor="middle" x="633" y="-175.5" font-family="Helvetica,sans-Serif" font-size="10.00">/variadic/to_seq.hpp</text>
</a>
</g>
</g>
<!-- Node25&#45;&gt;Node29 -->
<g id="edge38" class="edge">
<title>Node25&#45;&gt;Node29</title>
<path fill="none" stroke="midnightblue" d="M694.68,-235.48C685.12,-227.57 670.49,-215.48 657.89,-205.07"/>
<polygon fill="midnightblue" stroke="midnightblue" points="659.91,-202.2 649.97,-198.52 655.45,-207.59 659.91,-202.2"/>
</g>
<!-- Node30 -->
<g id="node30" class="node">
<title>Node30</title>
<g id="a_node30"><a xlink:title=" ">
<polygon fill="white" stroke="#bfbfbf" points="709,-174 709,-193 845,-193 845,-174 709,-174"/>
<text text-anchor="middle" x="777" y="-181" font-family="Helvetica,sans-Serif" font-size="10.00">boost/vmd/is_empty.hpp</text>
</a>
</g>
</g>
<!-- Node25&#45;&gt;Node30 -->
<g id="edge39" class="edge">
<title>Node25&#45;&gt;Node30</title>
<path fill="none" stroke="midnightblue" d="M715.32,-235.48C726.65,-226.11 745.07,-210.88 758.84,-199.51"/>
<polygon fill="midnightblue" stroke="midnightblue" points="761.22,-202.08 766.7,-193.01 756.77,-196.68 761.22,-202.08"/>
</g>
<!-- Node31&#45;&gt;Node10 -->
<g id="edge42" class="edge">
<title>Node31&#45;&gt;Node10</title>
<path fill="none" stroke="midnightblue" d="M1034.08,-254.59C1034.24,-272.31 1034.61,-313.25 1034.83,-337.35"/>
<polygon fill="midnightblue" stroke="midnightblue" points="1031.33,-337.4 1034.92,-347.37 1038.33,-337.34 1031.33,-337.4"/>
</g>
<!-- Node32&#45;&gt;Node11 -->
<g id="edge46" class="edge">
<title>Node32&#45;&gt;Node11</title>
<path fill="none" stroke="midnightblue" d="M893.07,-476.8C774.24,-471.55 497.54,-457 462,-434 429.41,-412.92 419,-396.81 419,-358 419,-358 419,-358 419,-244 419,-209.18 413.08,-192.31 438,-168 443.57,-162.57 534.48,-143.72 592.11,-132.21"/>
<polygon fill="midnightblue" stroke="midnightblue" points="592.98,-135.61 602.1,-130.22 591.61,-128.74 592.98,-135.61"/>
</g>
<!-- Node32&#45;&gt;Node13 -->
<g id="edge47" class="edge">
<title>Node32&#45;&gt;Node13</title>
<path fill="none" stroke="midnightblue" d="M893.48,-477.48C764.65,-473.42 444.97,-460.75 405,-434 373.45,-412.89 366,-395.97 366,-358 366,-358 366,-358 366,-300 366,-265.58 359.37,-225.86 354.92,-203.11"/>
<polygon fill="midnightblue" stroke="midnightblue" points="358.32,-202.25 352.9,-193.14 351.46,-203.64 358.32,-202.25"/>
</g>
<!-- Node32&#45;&gt;Node25 -->
<g id="edge53" class="edge">
<title>Node32&#45;&gt;Node25</title>
<path fill="none" stroke="midnightblue" d="M893.42,-477.37C783.14,-473.45 538.99,-461.72 514,-434 451.35,-364.5 605.01,-288.17 673.78,-258.64"/>
<polygon fill="midnightblue" stroke="midnightblue" points="675.43,-261.74 683.28,-254.63 672.7,-255.29 675.43,-261.74"/>
</g>
<!-- Node32&#45;&gt;Node26 -->
<g id="edge50" class="edge">
<title>Node32&#45;&gt;Node26</title>
<path fill="none" stroke="midnightblue" d="M979.99,-470.44C998.46,-463.77 1019.95,-452.45 1031,-434 1038.08,-422.18 1037.79,-414.99 1031,-403 1015.68,-375.94 986.32,-394.06 971,-367 957.53,-343.2 897.96,-371.63 972,-235 979.18,-221.76 991.5,-211.39 1004.16,-203.58"/>
<polygon fill="midnightblue" stroke="midnightblue" points="1005.97,-206.58 1012.92,-198.58 1002.5,-200.5 1005.97,-206.58"/>
</g>
<!-- Node32&#45;&gt;Node28 -->
<g id="edge51" class="edge">
<title>Node32&#45;&gt;Node28</title>
<path fill="none" stroke="midnightblue" d="M893.42,-476.52C781.01,-470.89 528.23,-455.96 496,-434 464.62,-412.62 457,-395.97 457,-358 457,-358 457,-358 457,-300 457,-266.11 474.03,-230.2 487.14,-207.59"/>
<polygon fill="midnightblue" stroke="midnightblue" points="490.3,-209.13 492.46,-198.75 484.3,-205.52 490.3,-209.13"/>
</g>
<!-- Node33 -->
<g id="node33" class="node">
<title>Node33</title>
<g id="a_node33"><a xlink:title=" ">
<polygon fill="white" stroke="#bfbfbf" points="1270.5,-409 1270.5,-428 1319.5,-428 1319.5,-409 1270.5,-409"/>
<text text-anchor="middle" x="1295" y="-416" font-family="Helvetica,sans-Serif" font-size="10.00">cstdlib</text>
</a>
</g>
</g>
<!-- Node32&#45;&gt;Node33 -->
<g id="edge44" class="edge">
<title>Node32&#45;&gt;Node33</title>
<path fill="none" stroke="midnightblue" d="M1000.65,-475.58C1063.88,-470.58 1171.64,-459 1261,-434 1263.29,-433.36 1265.64,-432.6 1267.97,-431.77"/>
<polygon fill="midnightblue" stroke="midnightblue" points="1269.3,-435 1277.32,-428.07 1266.73,-428.49 1269.3,-435"/>
</g>
<!-- Node34 -->
<g id="node34" class="node">
<title>Node34</title>
<g id="a_node34"><a xlink:title=" ">
<polygon fill="white" stroke="#bfbfbf" points="1338,-409 1338,-428 1398,-428 1398,-409 1338,-409"/>
<text text-anchor="middle" x="1368" y="-416" font-family="Helvetica,sans-Serif" font-size="10.00">iostream</text>
</a>
</g>
</g>
<!-- Node32&#45;&gt;Node34 -->
<g id="edge45" class="edge">
<title>Node32&#45;&gt;Node34</title>
<path fill="none" stroke="midnightblue" d="M1000.68,-476.55C1075.06,-472.29 1213.28,-461.18 1328,-434 1331.06,-433.27 1334.22,-432.39 1337.34,-431.41"/>
<polygon fill="midnightblue" stroke="midnightblue" points="1338.76,-434.63 1347.1,-428.1 1336.51,-428 1338.76,-434.63"/>
</g>
<!-- Node35 -->
<g id="node35" class="node">
<title>Node35</title>
<g id="a_node35"><a xlink:title=" ">
<polygon fill="white" stroke="#bfbfbf" points="523.5,-409 523.5,-428 670.5,-428 670.5,-409 523.5,-409"/>
<text text-anchor="middle" x="597" y="-416" font-family="Helvetica,sans-Serif" font-size="10.00">boost/current_function.hpp</text>
</a>
</g>
</g>
<!-- Node32&#45;&gt;Node35 -->
<g id="edge48" class="edge">
<title>Node32&#45;&gt;Node35</title>
<path fill="none" stroke="midnightblue" d="M895.35,-470.46C841.36,-461.51 754.2,-446.96 679,-434 671.1,-432.64 662.77,-431.19 654.58,-429.75"/>
<polygon fill="midnightblue" stroke="midnightblue" points="655.14,-426.29 644.68,-428 653.93,-433.19 655.14,-426.29"/>
</g>
<!-- Node36 -->
<g id="node36" class="node">
<title>Node36</title>
<g id="a_node36"><a xlink:title=" ">
<polygon fill="white" stroke="#bfbfbf" points="688.5,-403.5 688.5,-433.5 823.5,-433.5 823.5,-403.5 688.5,-403.5"/>
<text text-anchor="start" x="696.5" y="-421.5" font-family="Helvetica,sans-Serif" font-size="10.00">boost/preprocessor</text>
<text text-anchor="middle" x="756" y="-410.5" font-family="Helvetica,sans-Serif" font-size="10.00">/comparison/greater.hpp</text>
</a>
</g>
</g>
<!-- Node32&#45;&gt;Node36 -->
<g id="edge49" class="edge">
<title>Node32&#45;&gt;Node36</title>
<path fill="none" stroke="midnightblue" d="M919.63,-470.48C891.35,-461.66 846.42,-447.67 810.8,-436.57"/>
<polygon fill="midnightblue" stroke="midnightblue" points="811.6,-433.16 801.01,-433.52 809.52,-439.84 811.6,-433.16"/>
</g>
<!-- Node37 -->
<g id="node37" class="node">
<title>Node37</title>
<g id="a_node37"><a xlink:title=" ">
<polygon fill="white" stroke="#bfbfbf" points="842,-403.5 842,-433.5 952,-433.5 952,-403.5 842,-403.5"/>
<text text-anchor="start" x="850" y="-421.5" font-family="Helvetica,sans-Serif" font-size="10.00">boost/preprocessor</text>
<text text-anchor="middle" x="897" y="-410.5" font-family="Helvetica,sans-Serif" font-size="10.00">/variadic/size.hpp</text>
</a>
</g>
</g>
<!-- Node32&#45;&gt;Node37 -->
<g id="edge52" class="edge">
<title>Node32&#45;&gt;Node37</title>
<path fill="none" stroke="midnightblue" d="M939.84,-470.48C933.44,-462.87 923.81,-451.4 915.29,-441.26"/>
<polygon fill="midnightblue" stroke="midnightblue" points="917.9,-438.93 908.78,-433.52 912.54,-443.43 917.9,-438.93"/>
</g>
<!-- Node38 -->
<g id="node38" class="node">
<title>Node38</title>
<g id="a_node38"><a xlink:href="Parallel_8hpp.html" target="_top" xlink:title=" ">
<polygon fill="white" stroke="black" points="1154,-409 1154,-428 1252,-428 1252,-409 1154,-409"/>
<text text-anchor="middle" x="1203" y="-416" font-family="Helvetica,sans-Serif" font-size="10.00">utils/Parallel.hpp</text>
</a>
</g>
</g>
<!-- Node32&#45;&gt;Node38 -->
<g id="edge54" class="edge">
<title>Node32&#45;&gt;Node38</title>
<path fill="none" stroke="midnightblue" d="M983.68,-470.48C1029.21,-459.89 1106.9,-441.84 1156.55,-430.3"/>
<polygon fill="midnightblue" stroke="midnightblue" points="1157.44,-433.68 1166.39,-428.01 1155.86,-426.86 1157.44,-433.68"/>
</g>
<!-- Node42 -->
<g id="node42" class="node">
<title>Node42</title>
<g id="a_node42"><a xlink:href="stacktrace_8hpp.html" target="_top" xlink:title=" ">
<polygon fill="white" stroke="black" points="1541.5,-291.5 1541.5,-310.5 1654.5,-310.5 1654.5,-291.5 1541.5,-291.5"/>
<text text-anchor="middle" x="1598" y="-298.5" font-family="Helvetica,sans-Serif" font-size="10.00">utils/stacktrace.hpp</text>
</a>
</g>
</g>
<!-- Node32&#45;&gt;Node42 -->
<g id="edge63" class="edge">
<title>Node32&#45;&gt;Node42</title>
<path fill="none" stroke="midnightblue" d="M1000.76,-476.59C1114.93,-471.06 1373.89,-456.21 1407,-434 1443.32,-409.63 1419.34,-374.93 1453,-347 1475.12,-328.64 1504.71,-317.76 1531.39,-311.31"/>
<polygon fill="midnightblue" stroke="midnightblue" points="1532.47,-314.66 1541.46,-309.05 1530.93,-307.83 1532.47,-314.66"/>
</g>
<!-- Node43 -->
<g id="node43" class="node">
<title>Node43</title>
<g id="a_node43"><a xlink:title=" ">
<polygon fill="white" stroke="#bfbfbf" points="970,-409 970,-428 1022,-428 1022,-409 970,-409"/>
<text text-anchor="middle" x="996" y="-416" font-family="Helvetica,sans-Serif" font-size="10.00">cassert</text>
</a>
</g>
</g>
<!-- Node32&#45;&gt;Node43 -->
<g id="edge65" class="edge">
<title>Node32&#45;&gt;Node43</title>
<path fill="none" stroke="midnightblue" d="M954.02,-470.48C961.44,-461.46 973.33,-447.02 982.57,-435.81"/>
<polygon fill="midnightblue" stroke="midnightblue" points="985.34,-437.95 988.99,-428.01 979.93,-433.5 985.34,-437.95"/>
</g>
<!-- Node38&#45;&gt;Node3 -->
<g id="edge58" class="edge">
<title>Node38&#45;&gt;Node3</title>
<path fill="none" stroke="midnightblue" d="M1235.87,-408.98C1281.37,-394.97 1358,-362.41 1358,-302 1358,-302 1358,-302 1358,-244 1358,-185 1555.77,-142.96 1634.87,-128.5"/>
<polygon fill="midnightblue" stroke="midnightblue" points="1635.55,-131.94 1644.78,-126.72 1634.32,-125.05 1635.55,-131.94"/>
</g>
<!-- Node38&#45;&gt;Node4 -->
<g id="edge59" class="edge">
<title>Node38&#45;&gt;Node4</title>
<path fill="none" stroke="midnightblue" d="M1234.11,-408.97C1264.05,-400.23 1310.23,-385.34 1348,-367 1533.21,-277.05 1734.94,-129.07 1797.44,-81.92"/>
<polygon fill="midnightblue" stroke="midnightblue" points="1799.78,-84.54 1805.64,-75.71 1795.55,-78.96 1799.78,-84.54"/>
</g>
<!-- Node38&#45;&gt;Node8 -->
<g id="edge56" class="edge">
<title>Node38&#45;&gt;Node8</title>
<path fill="none" stroke="midnightblue" d="M1239.46,-408.94C1261.42,-401.71 1287.65,-388.9 1301,-367 1309.44,-353.16 1308.41,-334.4 1305.88,-320.58"/>
<polygon fill="midnightblue" stroke="midnightblue" points="1309.28,-319.75 1303.68,-310.76 1302.45,-321.28 1309.28,-319.75"/>
</g>
<!-- Node38&#45;&gt;Node9 -->
<g id="edge61" class="edge">
<title>Node38&#45;&gt;Node9</title>
<path fill="none" stroke="midnightblue" d="M1235.42,-408.97C1243.73,-406.91 1252.68,-404.78 1261,-403 1326.03,-389.1 1401.11,-376.13 1452.49,-367.72"/>
<polygon fill="midnightblue" stroke="midnightblue" points="1453.13,-371.16 1462.43,-366.1 1452,-364.26 1453.13,-371.16"/>
</g>
<!-- Node38&#45;&gt;Node10 -->
<g id="edge60" class="edge">
<title>Node38&#45;&gt;Node10</title>
<path fill="none" stroke="midnightblue" d="M1178.93,-408.98C1149.99,-398.72 1101.24,-381.46 1068.6,-369.9"/>
<polygon fill="midnightblue" stroke="midnightblue" points="1069.62,-366.55 1059.03,-366.51 1067.28,-373.15 1069.62,-366.55"/>
</g>
<!-- Node39 -->
<g id="node39" class="node">
<title>Node39</title>
<g id="a_node39"><a xlink:title=" ">
<polygon fill="white" stroke="#bfbfbf" points="1170,-347.5 1170,-366.5 1218,-366.5 1218,-347.5 1170,-347.5"/>
<text text-anchor="middle" x="1194" y="-354.5" font-family="Helvetica,sans-Serif" font-size="10.00">iosfwd</text>
</a>
</g>
</g>
<!-- Node38&#45;&gt;Node39 -->
<g id="edge55" class="edge">
<title>Node38&#45;&gt;Node39</title>
<path fill="none" stroke="midnightblue" d="M1201.71,-408.98C1200.44,-400.58 1198.46,-387.48 1196.82,-376.66"/>
<polygon fill="midnightblue" stroke="midnightblue" points="1200.24,-375.87 1195.29,-366.51 1193.32,-376.92 1200.24,-375.87"/>
</g>
<!-- Node40 -->
<g id="node40" class="node">
<title>Node40</title>
<g id="a_node40"><a xlink:title=" ">
<polygon fill="white" stroke="#bfbfbf" points="1236,-347.5 1236,-366.5 1292,-366.5 1292,-347.5 1236,-347.5"/>
<text text-anchor="middle" x="1264" y="-354.5" font-family="Helvetica,sans-Serif" font-size="10.00">optional</text>
</a>
</g>
</g>
<!-- Node38&#45;&gt;Node40 -->
<g id="edge57" class="edge">
<title>Node38&#45;&gt;Node40</title>
<path fill="none" stroke="midnightblue" d="M1211.74,-408.98C1221.16,-399.78 1236.36,-384.96 1247.95,-373.66"/>
<polygon fill="midnightblue" stroke="midnightblue" points="1250.56,-376 1255.28,-366.51 1245.67,-370.99 1250.56,-376"/>
</g>
<!-- Node41 -->
<g id="node41" class="node">
<title>Node41</title>
<g id="a_node41"><a xlink:title=" ">
<polygon fill="white" stroke="#bfbfbf" points="1108,-347.5 1108,-366.5 1152,-366.5 1152,-347.5 1108,-347.5"/>
<text text-anchor="middle" x="1130" y="-354.5" font-family="Helvetica,sans-Serif" font-size="10.00">mpi.h</text>
</a>
</g>
</g>
<!-- Node38&#45;&gt;Node41 -->
<g id="edge62" class="edge">
<title>Node38&#45;&gt;Node41</title>
<path fill="none" stroke="midnightblue" d="M1192.54,-408.98C1181.05,-399.61 1162.37,-384.38 1148.41,-373.01"/>
<polygon fill="midnightblue" stroke="midnightblue" points="1150.4,-370.11 1140.44,-366.51 1145.98,-375.54 1150.4,-370.11"/>
</g>
<!-- Node42&#45;&gt;Node3 -->
<g id="edge64" class="edge">
<title>Node42&#45;&gt;Node3</title>
<path fill="none" stroke="midnightblue" d="M1601.33,-291.46C1611.91,-264.31 1644.97,-179.51 1659.74,-141.62"/>
<polygon fill="midnightblue" stroke="midnightblue" points="1663.17,-142.46 1663.54,-131.87 1656.65,-139.91 1663.17,-142.46"/>
</g>
<!-- Node44&#45;&gt;Node3 -->
<g id="edge67" class="edge">
<title>Node44&#45;&gt;Node3</title>
<path fill="none" stroke="midnightblue" d="M1966.67,-470.27C1961.6,-450.46 1950,-400.53 1950,-358 1950,-358 1950,-358 1950,-244 1950,-136.03 1773.69,-123.12 1699.39,-122.47"/>
<polygon fill="midnightblue" stroke="midnightblue" points="1699.21,-118.97 1689.21,-122.46 1699.2,-125.97 1699.21,-118.97"/>
</g>
</g>
</svg>
