<?xml version="1.0" encoding="UTF-8" standalone="no"?>
<!DOCTYPE svg PUBLIC "-//W3C//DTD SVG 1.1//EN"
 "http://www.w3.org/Graphics/SVG/1.1/DTD/svg11.dtd">
<!-- Generated by graphviz version 2.43.0 (0)
 -->
<!-- Title: src/mesh/Edge.hpp Pages: 1 -->
<!--zoomable 666 -->
<svg id="main" version="1.1" xmlns="http://www.w3.org/2000/svg" xmlns:xlink="http://www.w3.org/1999/xlink" xml:space="preserve" onload="init(evt)">
<style type="text/css"><![CDATA[
.edge:hover path { stroke: red; }
.edge:hover polygon { stroke: red; fill: red; }
]]></style>
<script type="text/javascript"><![CDATA[
var edges = document.getElementsByTagName('g');
if (edges && edges.length) {
  for (var i=0;i<edges.length;i++) {
    if (edges[i].id.substr(0,4)=='edge') {
      edges[i].setAttribute('class','edge');
    }
  }
}
]]></script>
        <defs>
                <circle id="rim" cx="0" cy="0" r="7"/>
                <circle id="rim2" cx="0" cy="0" r="3.5"/>
                <g id="zoomPlus">
                        <use xlink:href="#rim" fill="#404040">
                                <set attributeName="fill" to="#808080" begin="zoomplus.mouseover" end="zoomplus.mouseout"/>
                        </use>
                        <path d="M-4,0h8M0,-4v8" fill="none" stroke="white" stroke-width="1.5" pointer-events="none"/>
                </g>
                <g id="zoomMin">
                        <use xlink:href="#rim" fill="#404040">
                                <set attributeName="fill" to="#808080" begin="zoomminus.mouseover" end="zoomminus.mouseout"/>
                        </use>
                        <path d="M-4,0h8" fill="none" stroke="white" stroke-width="1.5" pointer-events="none"/>
                </g>
                <g id="dirArrow">
                        <path fill="none" stroke="white" stroke-width="1.5" d="M0,-3.0v7 M-2.5,-0.5L0,-3.0L2.5,-0.5"/>
                </g>
               <g id="resetDef">
                       <use xlink:href="#rim2" fill="#404040">
                               <set attributeName="fill" to="#808080" begin="reset.mouseover" end="reset.mouseout"/>
                       </use>
               </g>
        </defs>

<script type="text/javascript">
var viewWidth = 1471;
var viewHeight = 666;
var sectionId = 'dynsection-0';
</script>
<script xlink:href="svgpan.js"/>
<svg id="graph" class="graph">
<g id="viewport">
<title>src/mesh/Edge.hpp</title>
<polygon fill="white" stroke="transparent" points="-4,4 -4,-662 1467,-662 1467,4 -4,4"/>
<!-- Node1 -->
<g id="node1" class="node">
<title>Node1</title>
<g id="a_node1"><a xlink:title=" ">
<polygon fill="#bfbfbf" stroke="black" points="1167.5,-638.5 1167.5,-657.5 1276.5,-657.5 1276.5,-638.5 1167.5,-638.5"/>
<text text-anchor="middle" x="1222" y="-645.5" font-family="Helvetica,sans-Serif" font-size="10.00">src/mesh/Edge.hpp</text>
</a>
</g>
</g>
<!-- Node2 -->
<g id="node2" class="node">
<title>Node2</title>
<g id="a_node2"><a xlink:title=" ">
<polygon fill="white" stroke="#bfbfbf" points="82.5,-0.5 82.5,-19.5 151.5,-19.5 151.5,-0.5 82.5,-0.5"/>
<text text-anchor="middle" x="117" y="-7.5" font-family="Helvetica,sans-Serif" font-size="10.00">Eigen/Core</text>
</a>
</g>
</g>
<!-- Node1&#45;&gt;Node2 -->
<g id="edge1" class="edge">
<title>Node1&#45;&gt;Node2</title>
<path fill="none" stroke="midnightblue" d="M1167.12,-644.98C929.34,-635.86 0,-596.44 0,-537 0,-537 0,-537 0,-121 0,-73.6 51.6,-40.64 86.27,-23.85"/>
<polygon fill="midnightblue" stroke="midnightblue" points="87.95,-26.93 95.54,-19.54 85,-20.58 87.95,-26.93"/>
</g>
<!-- Node3 -->
<g id="node3" class="node">
<title>Node3</title>
<g id="a_node3"><a xlink:title=" ">
<polygon fill="white" stroke="#bfbfbf" points="1404,-56.5 1404,-75.5 1446,-75.5 1446,-56.5 1404,-56.5"/>
<text text-anchor="middle" x="1425" y="-63.5" font-family="Helvetica,sans-Serif" font-size="10.00">array</text>
</a>
</g>
</g>
<!-- Node1&#45;&gt;Node3 -->
<g id="edge2" class="edge">
<title>Node1&#45;&gt;Node3</title>
<path fill="none" stroke="midnightblue" d="M1276.69,-645.3C1347.79,-639.83 1463,-618.41 1463,-537 1463,-537 1463,-537 1463,-182.5 1463,-146.25 1445.91,-106.67 1434.65,-84.53"/>
<polygon fill="midnightblue" stroke="midnightblue" points="1437.73,-82.87 1429.97,-75.66 1431.54,-86.14 1437.73,-82.87"/>
</g>
<!-- Node4 -->
<g id="node4" class="node">
<title>Node4</title>
<g id="a_node4"><a xlink:title=" ">
<polygon fill="white" stroke="#bfbfbf" points="1261,-409 1261,-428 1321,-428 1321,-409 1261,-409"/>
<text text-anchor="middle" x="1291" y="-416" font-family="Helvetica,sans-Serif" font-size="10.00">iostream</text>
</a>
</g>
</g>
<!-- Node1&#45;&gt;Node4 -->
<g id="edge3" class="edge">
<title>Node1&#45;&gt;Node4</title>
<path fill="none" stroke="midnightblue" d="M1240,-638.49C1253.76,-630.96 1271.85,-618.58 1281,-602 1310.33,-548.83 1301.4,-473.17 1295.02,-438.36"/>
<polygon fill="midnightblue" stroke="midnightblue" points="1298.39,-437.34 1293.01,-428.21 1291.52,-438.7 1298.39,-437.34"/>
</g>
<!-- Node5 -->
<g id="node5" class="node">
<title>Node5</title>
<g id="a_node5"><a xlink:href="differences_8hpp.html" target="_top" xlink:title=" ">
<polygon fill="white" stroke="black" points="703,-526.5 703,-545.5 823,-545.5 823,-526.5 703,-526.5"/>
<text text-anchor="middle" x="763" y="-533.5" font-family="Helvetica,sans-Serif" font-size="10.00">math/differences.hpp</text>
</a>
</g>
</g>
<!-- Node1&#45;&gt;Node5 -->
<g id="edge4" class="edge">
<title>Node1&#45;&gt;Node5</title>
<path fill="none" stroke="midnightblue" d="M1169.9,-638.46C1122.08,-630.28 1049.4,-616.99 987,-602 919.97,-585.89 843.03,-562.46 799.01,-548.57"/>
<polygon fill="midnightblue" stroke="midnightblue" points="799.93,-545.19 789.34,-545.51 797.81,-551.87 799.93,-545.19"/>
</g>
<!-- Node6 -->
<g id="node6" class="node">
<title>Node6</title>
<g id="a_node6"><a xlink:href="assertion_8hpp.html" target="_top" xlink:title=" ">
<polygon fill="white" stroke="black" points="672.5,-470.5 672.5,-489.5 779.5,-489.5 779.5,-470.5 672.5,-470.5"/>
<text text-anchor="middle" x="726" y="-477.5" font-family="Helvetica,sans-Serif" font-size="10.00">utils/assertion.hpp</text>
</a>
</g>
</g>
<!-- Node1&#45;&gt;Node6 -->
<g id="edge69" class="edge">
<title>Node1&#45;&gt;Node6</title>
<path fill="none" stroke="midnightblue" d="M1196.38,-638.42C1113.98,-610.85 855.7,-524.41 761.14,-492.76"/>
<polygon fill="midnightblue" stroke="midnightblue" points="762.06,-489.38 751.47,-489.52 759.84,-496.02 762.06,-489.38"/>
</g>
<!-- Node38 -->
<g id="node38" class="node">
<title>Node38</title>
<g id="a_node38"><a xlink:href="types_8hpp.html" target="_top" xlink:title=" ">
<polygon fill="white" stroke="black" points="1293.5,-347.5 1293.5,-366.5 1396.5,-366.5 1396.5,-347.5 1293.5,-347.5"/>
<text text-anchor="middle" x="1345" y="-354.5" font-family="Helvetica,sans-Serif" font-size="10.00">precice/types.hpp</text>
</a>
</g>
</g>
<!-- Node1&#45;&gt;Node38 -->
<g id="edge68" class="edge">
<title>Node1&#45;&gt;Node38</title>
<path fill="none" stroke="midnightblue" d="M1246.16,-638.49C1263.26,-631.28 1285.47,-619.33 1299,-602 1352.57,-533.38 1350.25,-421.18 1346.88,-376.86"/>
<polygon fill="midnightblue" stroke="midnightblue" points="1350.35,-376.34 1345.99,-366.68 1343.37,-376.95 1350.35,-376.34"/>
</g>
<!-- Node42 -->
<g id="node42" class="node">
<title>Node42</title>
<g id="a_node42"><a xlink:href="Vertex_8hpp.html" target="_top" xlink:title=" ">
<polygon fill="white" stroke="black" points="1172.5,-582.5 1172.5,-601.5 1271.5,-601.5 1271.5,-582.5 1172.5,-582.5"/>
<text text-anchor="middle" x="1222" y="-589.5" font-family="Helvetica,sans-Serif" font-size="10.00">mesh/Vertex.hpp</text>
</a>
</g>
</g>
<!-- Node1&#45;&gt;Node42 -->
<g id="edge60" class="edge">
<title>Node1&#45;&gt;Node42</title>
<path fill="none" stroke="midnightblue" d="M1222,-638.08C1222,-631.01 1222,-620.86 1222,-611.99"/>
<polygon fill="midnightblue" stroke="midnightblue" points="1225.5,-611.75 1222,-601.75 1218.5,-611.75 1225.5,-611.75"/>
</g>
<!-- Node5&#45;&gt;Node2 -->
<g id="edge5" class="edge">
<title>Node5&#45;&gt;Node2</title>
<path fill="none" stroke="midnightblue" d="M702.74,-531.73C528.77,-521.48 38,-486.61 38,-419.5 38,-419.5 38,-419.5 38,-121 38,-90.77 40.71,-80.79 58,-56 66.81,-43.37 80.25,-32.72 92.08,-24.96"/>
<polygon fill="midnightblue" stroke="midnightblue" points="94.06,-27.85 100.71,-19.6 90.37,-21.9 94.06,-27.85"/>
</g>
<!-- Node5&#45;&gt;Node6 -->
<g id="edge6" class="edge">
<title>Node5&#45;&gt;Node6</title>
<path fill="none" stroke="midnightblue" d="M756.89,-526.08C751.72,-518.53 744.15,-507.49 737.81,-498.23"/>
<polygon fill="midnightblue" stroke="midnightblue" points="740.54,-496.02 732,-489.75 734.76,-499.98 740.54,-496.02"/>
</g>
<!-- Node6&#45;&gt;Node4 -->
<g id="edge8" class="edge">
<title>Node6&#45;&gt;Node4</title>
<path fill="none" stroke="midnightblue" d="M779.77,-475.44C869.13,-469.2 1053.76,-454.92 1209,-434 1222.57,-432.17 1237.32,-429.71 1250.52,-427.34"/>
<polygon fill="midnightblue" stroke="midnightblue" points="1251.51,-430.71 1260.72,-425.47 1250.25,-423.83 1251.51,-430.71"/>
</g>
<!-- Node7 -->
<g id="node7" class="node">
<title>Node7</title>
<g id="a_node7"><a xlink:title=" ">
<polygon fill="white" stroke="#bfbfbf" points="1065.5,-409 1065.5,-428 1114.5,-428 1114.5,-409 1065.5,-409"/>
<text text-anchor="middle" x="1090" y="-416" font-family="Helvetica,sans-Serif" font-size="10.00">cstdlib</text>
</a>
</g>
</g>
<!-- Node6&#45;&gt;Node7 -->
<g id="edge7" class="edge">
<title>Node6&#45;&gt;Node7</title>
<path fill="none" stroke="midnightblue" d="M779.75,-476.09C845.8,-471.52 960.83,-460.27 1056,-434 1058.3,-433.37 1060.64,-432.61 1062.97,-431.78"/>
<polygon fill="midnightblue" stroke="midnightblue" points="1064.3,-435.02 1072.32,-428.1 1061.74,-428.51 1064.3,-435.02"/>
</g>
<!-- Node8 -->
<g id="node8" class="node">
<title>Node8</title>
<g id="a_node8"><a xlink:title=" ">
<polygon fill="white" stroke="#bfbfbf" points="150.5,-112.5 150.5,-131.5 223.5,-131.5 223.5,-112.5 150.5,-112.5"/>
<text text-anchor="middle" x="187" y="-119.5" font-family="Helvetica,sans-Serif" font-size="10.00">string_view</text>
</a>
</g>
</g>
<!-- Node6&#45;&gt;Node8 -->
<g id="edge9" class="edge">
<title>Node6&#45;&gt;Node8</title>
<path fill="none" stroke="midnightblue" d="M672.38,-478.72C527.96,-477.48 138.74,-470.73 95,-434 68.34,-411.61 76,-392.82 76,-358 76,-358 76,-358 76,-244 76,-194.18 127.72,-156 160.55,-136.77"/>
<polygon fill="midnightblue" stroke="midnightblue" points="162.66,-139.6 169.66,-131.64 159.23,-133.51 162.66,-139.6"/>
</g>
<!-- Node9 -->
<g id="node9" class="node">
<title>Node9</title>
<g id="a_node9"><a xlink:href="fmt_8hpp.html" target="_top" xlink:title=" ">
<polygon fill="white" stroke="black" points="369.5,-174 369.5,-193 448.5,-193 448.5,-174 369.5,-174"/>
<text text-anchor="middle" x="409" y="-181" font-family="Helvetica,sans-Serif" font-size="10.00">utils/fmt.hpp</text>
</a>
</g>
</g>
<!-- Node6&#45;&gt;Node9 -->
<g id="edge10" class="edge">
<title>Node6&#45;&gt;Node9</title>
<path fill="none" stroke="midnightblue" d="M672.49,-477.03C602.02,-473.32 483.34,-462.86 452,-434 426.39,-410.41 433,-392.82 433,-358 433,-358 433,-358 433,-300 433,-264.98 422.29,-225.2 415.18,-202.66"/>
<polygon fill="midnightblue" stroke="midnightblue" points="418.48,-201.48 412.04,-193.07 411.82,-203.66 418.48,-201.48"/>
</g>
<!-- Node22 -->
<g id="node22" class="node">
<title>Node22</title>
<g id="a_node22"><a xlink:title=" ">
<polygon fill="white" stroke="#bfbfbf" points="104.5,-409 104.5,-428 251.5,-428 251.5,-409 104.5,-409"/>
<text text-anchor="middle" x="178" y="-416" font-family="Helvetica,sans-Serif" font-size="10.00">boost/current_function.hpp</text>
</a>
</g>
</g>
<!-- Node6&#45;&gt;Node22 -->
<g id="edge29" class="edge">
<title>Node6&#45;&gt;Node22</title>
<path fill="none" stroke="midnightblue" d="M672.38,-475.2C585.52,-468.74 408.78,-454.31 260,-434 251.15,-432.79 241.8,-431.32 232.71,-429.79"/>
<polygon fill="midnightblue" stroke="midnightblue" points="233.04,-426.3 222.59,-428.04 231.84,-433.19 233.04,-426.3"/>
</g>
<!-- Node23 -->
<g id="node23" class="node">
<title>Node23</title>
<g id="a_node23"><a xlink:title=" ">
<polygon fill="white" stroke="#bfbfbf" points="269.5,-403.5 269.5,-433.5 404.5,-433.5 404.5,-403.5 269.5,-403.5"/>
<text text-anchor="start" x="277.5" y="-421.5" font-family="Helvetica,sans-Serif" font-size="10.00">boost/preprocessor</text>
<text text-anchor="middle" x="337" y="-410.5" font-family="Helvetica,sans-Serif" font-size="10.00">/comparison/greater.hpp</text>
</a>
</g>
</g>
<!-- Node6&#45;&gt;Node23 -->
<g id="edge30" class="edge">
<title>Node6&#45;&gt;Node23</title>
<path fill="none" stroke="midnightblue" d="M672.41,-471.63C611.08,-463.09 507.67,-448.34 419,-434 417.53,-433.76 416.04,-433.52 414.54,-433.27"/>
<polygon fill="midnightblue" stroke="midnightblue" points="414.98,-429.8 404.54,-431.61 413.83,-436.7 414.98,-429.8"/>
</g>
<!-- Node24 -->
<g id="node24" class="node">
<title>Node24</title>
<g id="a_node24"><a xlink:title=" ">
<polygon fill="white" stroke="#bfbfbf" points="505,-168.5 505,-198.5 615,-198.5 615,-168.5 505,-168.5"/>
<text text-anchor="start" x="513" y="-186.5" font-family="Helvetica,sans-Serif" font-size="10.00">boost/preprocessor</text>
<text text-anchor="middle" x="560" y="-175.5" font-family="Helvetica,sans-Serif" font-size="10.00">/control/if.hpp</text>
</a>
</g>
</g>
<!-- Node6&#45;&gt;Node24 -->
<g id="edge31" class="edge">
<title>Node6&#45;&gt;Node24</title>
<path fill="none" stroke="midnightblue" d="M717.14,-470.08C702.99,-455.84 674.41,-427.15 650,-403 608.44,-361.89 578.66,-364.89 556,-311 542,-277.71 547.63,-235.02 553.45,-208.73"/>
<polygon fill="midnightblue" stroke="midnightblue" points="556.88,-209.4 555.81,-198.86 550.08,-207.77 556.88,-209.4"/>
</g>
<!-- Node25 -->
<g id="node25" class="node">
<title>Node25</title>
<g id="a_node25"><a xlink:title=" ">
<polygon fill="white" stroke="#bfbfbf" points="1089,-168.5 1089,-198.5 1199,-198.5 1199,-168.5 1089,-168.5"/>
<text text-anchor="start" x="1097" y="-186.5" font-family="Helvetica,sans-Serif" font-size="10.00">boost/preprocessor</text>
<text text-anchor="middle" x="1144" y="-175.5" font-family="Helvetica,sans-Serif" font-size="10.00">/stringize.hpp</text>
</a>
</g>
</g>
<!-- Node6&#45;&gt;Node25 -->
<g id="edge32" class="edge">
<title>Node6&#45;&gt;Node25</title>
<path fill="none" stroke="midnightblue" d="M779.63,-476.8C873.5,-472.3 1063.36,-460.21 1124,-434 1166.26,-415.73 1183.65,-408.78 1203,-367 1228.67,-311.57 1187.25,-241.86 1161.71,-206.81"/>
<polygon fill="midnightblue" stroke="midnightblue" points="1164.41,-204.57 1155.61,-198.67 1158.81,-208.77 1164.41,-204.57"/>
</g>
<!-- Node26 -->
<g id="node26" class="node">
<title>Node26</title>
<g id="a_node26"><a xlink:title=" ">
<polygon fill="white" stroke="#bfbfbf" points="461,-403.5 461,-433.5 571,-433.5 571,-403.5 461,-403.5"/>
<text text-anchor="start" x="469" y="-421.5" font-family="Helvetica,sans-Serif" font-size="10.00">boost/preprocessor</text>
<text text-anchor="middle" x="516" y="-410.5" font-family="Helvetica,sans-Serif" font-size="10.00">/variadic/size.hpp</text>
</a>
</g>
</g>
<!-- Node6&#45;&gt;Node26 -->
<g id="edge33" class="edge">
<title>Node6&#45;&gt;Node26</title>
<path fill="none" stroke="midnightblue" d="M695.91,-470.48C664.55,-461.59 614.57,-447.43 575.24,-436.29"/>
<polygon fill="midnightblue" stroke="midnightblue" points="576.07,-432.88 565.49,-433.52 574.16,-439.62 576.07,-432.88"/>
</g>
<!-- Node27 -->
<g id="node27" class="node">
<title>Node27</title>
<g id="a_node27"><a xlink:href="ArgumentFormatter_8hpp.html" target="_top" xlink:title=" ">
<polygon fill="white" stroke="black" points="665.5,-235.5 665.5,-254.5 822.5,-254.5 822.5,-235.5 665.5,-235.5"/>
<text text-anchor="middle" x="744" y="-242.5" font-family="Helvetica,sans-Serif" font-size="10.00">utils/ArgumentFormatter.hpp</text>
</a>
</g>
</g>
<!-- Node6&#45;&gt;Node27 -->
<g id="edge34" class="edge">
<title>Node6&#45;&gt;Node27</title>
<path fill="none" stroke="midnightblue" d="M726.66,-470.43C729.26,-436.75 738.82,-312.99 742.52,-265.1"/>
<polygon fill="midnightblue" stroke="midnightblue" points="746.03,-265.14 743.31,-254.9 739.05,-264.6 746.03,-265.14"/>
</g>
<!-- Node31 -->
<g id="node31" class="node">
<title>Node31</title>
<g id="a_node31"><a xlink:href="Parallel_8hpp.html" target="_top" xlink:title=" ">
<polygon fill="white" stroke="black" points="949,-409 949,-428 1047,-428 1047,-409 949,-409"/>
<text text-anchor="middle" x="998" y="-416" font-family="Helvetica,sans-Serif" font-size="10.00">utils/Parallel.hpp</text>
</a>
</g>
</g>
<!-- Node6&#45;&gt;Node31 -->
<g id="edge41" class="edge">
<title>Node6&#45;&gt;Node31</title>
<path fill="none" stroke="midnightblue" d="M764.97,-470.48C813.55,-459.85 896.58,-441.68 949.3,-430.15"/>
<polygon fill="midnightblue" stroke="midnightblue" points="950.08,-433.57 959.1,-428.01 948.58,-426.73 950.08,-433.57"/>
</g>
<!-- Node40 -->
<g id="node40" class="node">
<title>Node40</title>
<g id="a_node40"><a xlink:href="stacktrace_8hpp.html" target="_top" xlink:title=" ">
<polygon fill="white" stroke="black" points="565.5,-291.5 565.5,-310.5 678.5,-310.5 678.5,-291.5 565.5,-291.5"/>
<text text-anchor="middle" x="622" y="-298.5" font-family="Helvetica,sans-Serif" font-size="10.00">utils/stacktrace.hpp</text>
</a>
</g>
</g>
<!-- Node6&#45;&gt;Node40 -->
<g id="edge57" class="edge">
<title>Node6&#45;&gt;Node40</title>
<path fill="none" stroke="midnightblue" d="M721.05,-470.06C713.13,-455.81 697.08,-427.08 683,-403 665.67,-373.37 644.89,-339.25 632.6,-319.22"/>
<polygon fill="midnightblue" stroke="midnightblue" points="635.52,-317.28 627.31,-310.6 629.56,-320.95 635.52,-317.28"/>
</g>
<!-- Node41 -->
<g id="node41" class="node">
<title>Node41</title>
<g id="a_node41"><a xlink:title=" ">
<polygon fill="white" stroke="#bfbfbf" points="589,-409 589,-428 641,-428 641,-409 589,-409"/>
<text text-anchor="middle" x="615" y="-416" font-family="Helvetica,sans-Serif" font-size="10.00">cassert</text>
</a>
</g>
</g>
<!-- Node6&#45;&gt;Node41 -->
<g id="edge59" class="edge">
<title>Node6&#45;&gt;Node41</title>
<path fill="none" stroke="midnightblue" d="M710.1,-470.48C691.72,-460.62 661.24,-444.29 639.76,-432.77"/>
<polygon fill="midnightblue" stroke="midnightblue" points="641.34,-429.65 630.87,-428.01 638.03,-435.82 641.34,-429.65"/>
</g>
<!-- Node9&#45;&gt;Node8 -->
<g id="edge12" class="edge">
<title>Node9&#45;&gt;Node8</title>
<path fill="none" stroke="midnightblue" d="M377.31,-173.99C369.98,-172.02 362.22,-169.94 355,-168 312.05,-156.48 262.92,-143.32 228.93,-134.22"/>
<polygon fill="midnightblue" stroke="midnightblue" points="229.46,-130.74 218.9,-131.54 227.65,-137.5 229.46,-130.74"/>
</g>
<!-- Node10 -->
<g id="node10" class="node">
<title>Node10</title>
<g id="a_node10"><a xlink:title=" ">
<polygon fill="white" stroke="#bfbfbf" points="650,-112.5 650,-131.5 694,-131.5 694,-112.5 650,-112.5"/>
<text text-anchor="middle" x="672" y="-119.5" font-family="Helvetica,sans-Serif" font-size="10.00">string</text>
</a>
</g>
</g>
<!-- Node9&#45;&gt;Node10 -->
<g id="edge11" class="edge">
<title>Node9&#45;&gt;Node10</title>
<path fill="none" stroke="midnightblue" d="M439.47,-173.96C447.13,-171.91 455.35,-169.8 463,-168 538.5,-150.25 560.89,-151.16 639.8,-132.13"/>
<polygon fill="midnightblue" stroke="midnightblue" points="640.83,-135.49 649.71,-129.71 639.16,-128.69 640.83,-135.49"/>
</g>
<!-- Node11 -->
<g id="node11" class="node">
<title>Node11</title>
<g id="a_node11"><a xlink:title=" ">
<polygon fill="white" stroke="#bfbfbf" points="426.5,-56.5 426.5,-75.5 505.5,-75.5 505.5,-56.5 426.5,-56.5"/>
<text text-anchor="middle" x="466" y="-63.5" font-family="Helvetica,sans-Serif" font-size="10.00">fmt/format.h</text>
</a>
</g>
</g>
<!-- Node9&#45;&gt;Node11 -->
<g id="edge13" class="edge">
<title>Node9&#45;&gt;Node11</title>
<path fill="none" stroke="midnightblue" d="M422.32,-173.88C434.73,-165.02 452.56,-150 461,-132 467.76,-117.59 468.6,-99.4 467.99,-85.93"/>
<polygon fill="midnightblue" stroke="midnightblue" points="471.47,-85.61 467.23,-75.91 464.49,-86.14 471.47,-85.61"/>
</g>
<!-- Node12 -->
<g id="node12" class="node">
<title>Node12</title>
<g id="a_node12"><a xlink:title=" ">
<polygon fill="white" stroke="#bfbfbf" points="366,-112.5 366,-131.5 452,-131.5 452,-112.5 366,-112.5"/>
<text text-anchor="middle" x="409" y="-119.5" font-family="Helvetica,sans-Serif" font-size="10.00">fmt/ostream.h</text>
</a>
</g>
</g>
<!-- Node9&#45;&gt;Node12 -->
<g id="edge14" class="edge">
<title>Node9&#45;&gt;Node12</title>
<path fill="none" stroke="midnightblue" d="M409,-173.98C409,-165.58 409,-152.48 409,-141.66"/>
<polygon fill="midnightblue" stroke="midnightblue" points="412.5,-141.51 409,-131.51 405.5,-141.51 412.5,-141.51"/>
</g>
<!-- Node13 -->
<g id="node13" class="node">
<title>Node13</title>
<g id="a_node13"><a xlink:href="fmtEigen_8hpp.html" target="_top" xlink:title=" ">
<polygon fill="white" stroke="black" points="242,-112.5 242,-131.5 348,-131.5 348,-112.5 242,-112.5"/>
<text text-anchor="middle" x="295" y="-119.5" font-family="Helvetica,sans-Serif" font-size="10.00">utils/fmtEigen.hpp</text>
</a>
</g>
</g>
<!-- Node9&#45;&gt;Node13 -->
<g id="edge15" class="edge">
<title>Node9&#45;&gt;Node13</title>
<path fill="none" stroke="midnightblue" d="M392.67,-173.98C373.79,-164.12 342.49,-147.79 320.42,-136.27"/>
<polygon fill="midnightblue" stroke="midnightblue" points="321.79,-133.03 311.3,-131.51 318.55,-139.24 321.79,-133.03"/>
</g>
<!-- Node17 -->
<g id="node17" class="node">
<title>Node17</title>
<g id="a_node17"><a xlink:href="fmtSTL_8hpp.html" target="_top" xlink:title=" ">
<polygon fill="white" stroke="black" points="536,-112.5 536,-131.5 632,-131.5 632,-112.5 536,-112.5"/>
<text text-anchor="middle" x="584" y="-119.5" font-family="Helvetica,sans-Serif" font-size="10.00">utils/fmtSTL.hpp</text>
</a>
</g>
</g>
<!-- Node9&#45;&gt;Node17 -->
<g id="edge22" class="edge">
<title>Node9&#45;&gt;Node17</title>
<path fill="none" stroke="midnightblue" d="M434.07,-173.98C464.35,-163.68 515.44,-146.31 549.44,-134.75"/>
<polygon fill="midnightblue" stroke="midnightblue" points="550.63,-138.04 558.97,-131.51 548.38,-131.41 550.63,-138.04"/>
</g>
<!-- Node13&#45;&gt;Node2 -->
<g id="edge16" class="edge">
<title>Node13&#45;&gt;Node2</title>
<path fill="none" stroke="midnightblue" d="M306.22,-112.44C321.91,-99.46 346.9,-74.34 332,-56 311,-30.16 218.61,-18.63 161.99,-13.92"/>
<polygon fill="midnightblue" stroke="midnightblue" points="162.11,-10.41 151.86,-13.11 161.55,-17.39 162.11,-10.41"/>
</g>
<!-- Node13&#45;&gt;Node11 -->
<g id="edge18" class="edge">
<title>Node13&#45;&gt;Node11</title>
<path fill="none" stroke="midnightblue" d="M322.1,-112.44C350.99,-103.32 396.92,-88.81 429.11,-78.65"/>
<polygon fill="midnightblue" stroke="midnightblue" points="430.55,-81.87 439.03,-75.52 428.44,-75.19 430.55,-81.87"/>
</g>
<!-- Node14 -->
<g id="node14" class="node">
<title>Node14</title>
<g id="a_node14"><a xlink:title=" ">
<polygon fill="white" stroke="#bfbfbf" points="185,-56.5 185,-75.5 249,-75.5 249,-56.5 185,-56.5"/>
<text text-anchor="middle" x="217" y="-63.5" font-family="Helvetica,sans-Serif" font-size="10.00">algorithm</text>
</a>
</g>
</g>
<!-- Node13&#45;&gt;Node14 -->
<g id="edge17" class="edge">
<title>Node13&#45;&gt;Node14</title>
<path fill="none" stroke="midnightblue" d="M282.47,-112.32C270.41,-103.98 251.97,-91.21 237.73,-81.35"/>
<polygon fill="midnightblue" stroke="midnightblue" points="239.72,-78.47 229.5,-75.65 235.73,-84.22 239.72,-78.47"/>
</g>
<!-- Node15 -->
<g id="node15" class="node">
<title>Node15</title>
<g id="a_node15"><a xlink:title=" ">
<polygon fill="white" stroke="#bfbfbf" points="267,-56.5 267,-75.5 323,-75.5 323,-56.5 267,-56.5"/>
<text text-anchor="middle" x="295" y="-63.5" font-family="Helvetica,sans-Serif" font-size="10.00">sstream</text>
</a>
</g>
</g>
<!-- Node13&#45;&gt;Node15 -->
<g id="edge19" class="edge">
<title>Node13&#45;&gt;Node15</title>
<path fill="none" stroke="midnightblue" d="M295,-112.08C295,-105.01 295,-94.86 295,-85.99"/>
<polygon fill="midnightblue" stroke="midnightblue" points="298.5,-85.75 295,-75.75 291.5,-85.75 298.5,-85.75"/>
</g>
<!-- Node16 -->
<g id="node16" class="node">
<title>Node16</title>
<g id="a_node16"><a xlink:href="EigenIO_8hpp.html" target="_top" xlink:title=" ">
<polygon fill="white" stroke="black" points="67.5,-56.5 67.5,-75.5 166.5,-75.5 166.5,-56.5 67.5,-56.5"/>
<text text-anchor="middle" x="117" y="-63.5" font-family="Helvetica,sans-Serif" font-size="10.00">utils/EigenIO.hpp</text>
</a>
</g>
</g>
<!-- Node13&#45;&gt;Node16 -->
<g id="edge20" class="edge">
<title>Node13&#45;&gt;Node16</title>
<path fill="none" stroke="midnightblue" d="M266.8,-112.44C236.59,-103.28 188.49,-88.69 154.97,-78.52"/>
<polygon fill="midnightblue" stroke="midnightblue" points="155.66,-75.07 145.07,-75.52 153.63,-81.77 155.66,-75.07"/>
</g>
<!-- Node16&#45;&gt;Node2 -->
<g id="edge21" class="edge">
<title>Node16&#45;&gt;Node2</title>
<path fill="none" stroke="midnightblue" d="M117,-56.08C117,-49.01 117,-38.86 117,-29.99"/>
<polygon fill="midnightblue" stroke="midnightblue" points="120.5,-29.75 117,-19.75 113.5,-29.75 120.5,-29.75"/>
</g>
<!-- Node17&#45;&gt;Node3 -->
<g id="edge23" class="edge">
<title>Node17&#45;&gt;Node3</title>
<path fill="none" stroke="midnightblue" d="M632.16,-113.05C635.15,-112.67 638.11,-112.31 641,-112 932.6,-80.69 1287.71,-70.22 1393.71,-67.68"/>
<polygon fill="midnightblue" stroke="midnightblue" points="1393.82,-71.18 1403.73,-67.45 1393.65,-64.18 1393.82,-71.18"/>
</g>
<!-- Node17&#45;&gt;Node11 -->
<g id="edge25" class="edge">
<title>Node17&#45;&gt;Node11</title>
<path fill="none" stroke="midnightblue" d="M565.3,-112.44C546.06,-103.64 515.85,-89.81 493.8,-79.72"/>
<polygon fill="midnightblue" stroke="midnightblue" points="495.16,-76.5 484.61,-75.52 492.25,-82.86 495.16,-76.5"/>
</g>
<!-- Node18 -->
<g id="node18" class="node">
<title>Node18</title>
<g id="a_node18"><a xlink:title=" ">
<polygon fill="white" stroke="#bfbfbf" points="574.5,-56.5 574.5,-75.5 621.5,-75.5 621.5,-56.5 574.5,-56.5"/>
<text text-anchor="middle" x="598" y="-63.5" font-family="Helvetica,sans-Serif" font-size="10.00">deque</text>
</a>
</g>
</g>
<!-- Node17&#45;&gt;Node18 -->
<g id="edge24" class="edge">
<title>Node17&#45;&gt;Node18</title>
<path fill="none" stroke="midnightblue" d="M586.31,-112.08C588.17,-104.93 590.84,-94.64 593.15,-85.69"/>
<polygon fill="midnightblue" stroke="midnightblue" points="596.61,-86.31 595.73,-75.75 589.83,-84.55 596.61,-86.31"/>
</g>
<!-- Node19 -->
<g id="node19" class="node">
<title>Node19</title>
<g id="a_node19"><a xlink:title=" ">
<polygon fill="white" stroke="#bfbfbf" points="640,-56.5 640,-75.5 678,-75.5 678,-56.5 640,-56.5"/>
<text text-anchor="middle" x="659" y="-63.5" font-family="Helvetica,sans-Serif" font-size="10.00">map</text>
</a>
</g>
</g>
<!-- Node17&#45;&gt;Node19 -->
<g id="edge26" class="edge">
<title>Node17&#45;&gt;Node19</title>
<path fill="none" stroke="midnightblue" d="M596.05,-112.32C607.46,-104.11 624.83,-91.6 638.43,-81.81"/>
<polygon fill="midnightblue" stroke="midnightblue" points="640.66,-84.52 646.73,-75.83 636.57,-78.84 640.66,-84.52"/>
</g>
<!-- Node20 -->
<g id="node20" class="node">
<title>Node20</title>
<g id="a_node20"><a xlink:title=" ">
<polygon fill="white" stroke="#bfbfbf" points="524,-56.5 524,-75.5 556,-75.5 556,-56.5 524,-56.5"/>
<text text-anchor="middle" x="540" y="-63.5" font-family="Helvetica,sans-Serif" font-size="10.00">set</text>
</a>
</g>
</g>
<!-- Node17&#45;&gt;Node20 -->
<g id="edge27" class="edge">
<title>Node17&#45;&gt;Node20</title>
<path fill="none" stroke="midnightblue" d="M576.73,-112.08C570.46,-104.38 561.21,-93.03 553.57,-83.65"/>
<polygon fill="midnightblue" stroke="midnightblue" points="556.16,-81.29 547.13,-75.75 550.73,-85.71 556.16,-81.29"/>
</g>
<!-- Node21 -->
<g id="node21" class="node">
<title>Node21</title>
<g id="a_node21"><a xlink:title=" ">
<polygon fill="white" stroke="#bfbfbf" points="950.5,-56.5 950.5,-75.5 997.5,-75.5 997.5,-56.5 950.5,-56.5"/>
<text text-anchor="middle" x="974" y="-63.5" font-family="Helvetica,sans-Serif" font-size="10.00">vector</text>
</a>
</g>
</g>
<!-- Node17&#45;&gt;Node21 -->
<g id="edge28" class="edge">
<title>Node17&#45;&gt;Node21</title>
<path fill="none" stroke="midnightblue" d="M632.19,-113.31C635.17,-112.86 638.13,-112.42 641,-112 750.18,-96.01 879.81,-79.08 940.07,-71.33"/>
<polygon fill="midnightblue" stroke="midnightblue" points="940.68,-74.78 950.15,-70.04 939.79,-67.84 940.68,-74.78"/>
</g>
<!-- Node27&#45;&gt;Node9 -->
<g id="edge40" class="edge">
<title>Node27&#45;&gt;Node9</title>
<path fill="none" stroke="midnightblue" d="M696,-235.48C632.94,-224.27 522.71,-204.7 458.77,-193.34"/>
<polygon fill="midnightblue" stroke="midnightblue" points="459,-189.83 448.54,-191.52 457.77,-196.72 459,-189.83"/>
</g>
<!-- Node27&#45;&gt;Node24 -->
<g id="edge35" class="edge">
<title>Node27&#45;&gt;Node24</title>
<path fill="none" stroke="midnightblue" d="M717.64,-235.48C690.5,-226.7 647.48,-212.79 613.23,-201.71"/>
<polygon fill="midnightblue" stroke="midnightblue" points="613.96,-198.27 603.37,-198.52 611.8,-204.93 613.96,-198.27"/>
</g>
<!-- Node27&#45;&gt;Node25 -->
<g id="edge37" class="edge">
<title>Node27&#45;&gt;Node25</title>
<path fill="none" stroke="midnightblue" d="M801.31,-235.48C874.7,-224.56 1001.59,-205.68 1078.66,-194.22"/>
<polygon fill="midnightblue" stroke="midnightblue" points="1079.35,-197.66 1088.73,-192.72 1078.32,-190.73 1079.35,-197.66"/>
</g>
<!-- Node28 -->
<g id="node28" class="node">
<title>Node28</title>
<g id="a_node28"><a xlink:title=" ">
<polygon fill="white" stroke="#bfbfbf" points="921.5,-168.5 921.5,-198.5 1032.5,-198.5 1032.5,-168.5 921.5,-168.5"/>
<text text-anchor="start" x="929.5" y="-186.5" font-family="Helvetica,sans-Serif" font-size="10.00">boost/preprocessor</text>
<text text-anchor="middle" x="977" y="-175.5" font-family="Helvetica,sans-Serif" font-size="10.00">/seq/for_each_i.hpp</text>
</a>
</g>
</g>
<!-- Node27&#45;&gt;Node28 -->
<g id="edge36" class="edge">
<title>Node27&#45;&gt;Node28</title>
<path fill="none" stroke="midnightblue" d="M777.38,-235.48C812.48,-226.51 868.57,-212.19 912.37,-201"/>
<polygon fill="midnightblue" stroke="midnightblue" points="913.26,-204.39 922.09,-198.52 911.53,-197.61 913.26,-204.39"/>
</g>
<!-- Node29 -->
<g id="node29" class="node">
<title>Node29</title>
<g id="a_node29"><a xlink:title=" ">
<polygon fill="white" stroke="#bfbfbf" points="633.5,-168.5 633.5,-198.5 748.5,-198.5 748.5,-168.5 633.5,-168.5"/>
<text text-anchor="start" x="641.5" y="-186.5" font-family="Helvetica,sans-Serif" font-size="10.00">boost/preprocessor</text>
<text text-anchor="middle" x="691" y="-175.5" font-family="Helvetica,sans-Serif" font-size="10.00">/variadic/to_seq.hpp</text>
</a>
</g>
</g>
<!-- Node27&#45;&gt;Node29 -->
<g id="edge38" class="edge">
<title>Node27&#45;&gt;Node29</title>
<path fill="none" stroke="midnightblue" d="M736.41,-235.48C729.63,-227.87 719.41,-216.4 710.39,-206.26"/>
<polygon fill="midnightblue" stroke="midnightblue" points="712.76,-203.66 703.49,-198.52 707.53,-208.32 712.76,-203.66"/>
</g>
<!-- Node30 -->
<g id="node30" class="node">
<title>Node30</title>
<g id="a_node30"><a xlink:title=" ">
<polygon fill="white" stroke="#bfbfbf" points="767,-174 767,-193 903,-193 903,-174 767,-174"/>
<text text-anchor="middle" x="835" y="-181" font-family="Helvetica,sans-Serif" font-size="10.00">boost/vmd/is_empty.hpp</text>
</a>
</g>
</g>
<!-- Node27&#45;&gt;Node30 -->
<g id="edge39" class="edge">
<title>Node27&#45;&gt;Node30</title>
<path fill="none" stroke="midnightblue" d="M757.04,-235.48C771.77,-225.84 795.97,-210.02 813.51,-198.55"/>
<polygon fill="midnightblue" stroke="midnightblue" points="815.53,-201.41 821.99,-193.01 811.7,-195.55 815.53,-201.41"/>
</g>
<!-- Node31&#45;&gt;Node10 -->
<g id="edge45" class="edge">
<title>Node31&#45;&gt;Node10</title>
<path fill="none" stroke="midnightblue" d="M1033.64,-408.95C1069.3,-399.58 1120.47,-383.66 1132,-367 1143.61,-350.22 1127.31,-228.01 1042,-168 987.91,-129.96 784.34,-123.98 704.46,-123.11"/>
<polygon fill="midnightblue" stroke="midnightblue" points="704.07,-119.61 694.04,-123.02 704.01,-126.61 704.07,-119.61"/>
</g>
<!-- Node31&#45;&gt;Node21 -->
<g id="edge46" class="edge">
<title>Node31&#45;&gt;Node21</title>
<path fill="none" stroke="midnightblue" d="M1027.62,-408.96C1068.51,-396.95 1138.24,-375.57 1147,-367 1213.11,-302.3 1258.82,-245.29 1208,-168 1162.99,-99.55 1060.68,-77.28 1007.5,-70.2"/>
<polygon fill="midnightblue" stroke="midnightblue" points="1007.9,-66.72 997.55,-68.97 1007.05,-73.67 1007.9,-66.72"/>
</g>
<!-- Node32 -->
<g id="node32" class="node">
<title>Node32</title>
<g id="a_node32"><a xlink:title=" ">
<polygon fill="white" stroke="#bfbfbf" points="939,-347.5 939,-366.5 987,-366.5 987,-347.5 939,-347.5"/>
<text text-anchor="middle" x="963" y="-354.5" font-family="Helvetica,sans-Serif" font-size="10.00">iosfwd</text>
</a>
</g>
</g>
<!-- Node31&#45;&gt;Node32 -->
<g id="edge42" class="edge">
<title>Node31&#45;&gt;Node32</title>
<path fill="none" stroke="midnightblue" d="M992.99,-408.98C987.84,-400.23 979.69,-386.37 973.18,-375.31"/>
<polygon fill="midnightblue" stroke="midnightblue" points="976.09,-373.35 968.01,-366.51 970.06,-376.9 976.09,-373.35"/>
</g>
<!-- Node33 -->
<g id="node33" class="node">
<title>Node33</title>
<g id="a_node33"><a xlink:title=" ">
<polygon fill="white" stroke="#bfbfbf" points="919,-291.5 919,-310.5 977,-310.5 977,-291.5 919,-291.5"/>
<text text-anchor="middle" x="948" y="-298.5" font-family="Helvetica,sans-Serif" font-size="10.00">memory</text>
</a>
</g>
</g>
<!-- Node31&#45;&gt;Node33 -->
<g id="edge43" class="edge">
<title>Node31&#45;&gt;Node33</title>
<path fill="none" stroke="midnightblue" d="M978.1,-408.99C961.84,-400.84 939.98,-386.84 930,-367 922.38,-351.85 929.14,-333.03 936.46,-319.55"/>
<polygon fill="midnightblue" stroke="midnightblue" points="939.56,-321.19 941.68,-310.81 933.55,-317.6 939.56,-321.19"/>
</g>
<!-- Node34 -->
<g id="node34" class="node">
<title>Node34</title>
<g id="a_node34"><a xlink:title=" ">
<polygon fill="white" stroke="#bfbfbf" points="1005,-347.5 1005,-366.5 1061,-366.5 1061,-347.5 1005,-347.5"/>
<text text-anchor="middle" x="1033" y="-354.5" font-family="Helvetica,sans-Serif" font-size="10.00">optional</text>
</a>
</g>
</g>
<!-- Node31&#45;&gt;Node34 -->
<g id="edge44" class="edge">
<title>Node31&#45;&gt;Node34</title>
<path fill="none" stroke="midnightblue" d="M1003.01,-408.98C1008.16,-400.23 1016.31,-386.37 1022.82,-375.31"/>
<polygon fill="midnightblue" stroke="midnightblue" points="1025.94,-376.9 1027.99,-366.51 1019.91,-373.35 1025.94,-376.9"/>
</g>
<!-- Node35 -->
<g id="node35" class="node">
<title>Node35</title>
<g id="a_node35"><a xlink:href="Logger_8hpp.html" target="_top" xlink:title=" ">
<polygon fill="white" stroke="black" points="773.5,-347.5 773.5,-366.5 882.5,-366.5 882.5,-347.5 773.5,-347.5"/>
<text text-anchor="middle" x="828" y="-354.5" font-family="Helvetica,sans-Serif" font-size="10.00">logging/Logger.hpp</text>
</a>
</g>
</g>
<!-- Node31&#45;&gt;Node35 -->
<g id="edge47" class="edge">
<title>Node31&#45;&gt;Node35</title>
<path fill="none" stroke="midnightblue" d="M973.64,-408.98C944.36,-398.72 895.03,-381.46 862,-369.9"/>
<polygon fill="midnightblue" stroke="midnightblue" points="862.91,-366.51 852.31,-366.51 860.59,-373.12 862.91,-366.51"/>
</g>
<!-- Node31&#45;&gt;Node38 -->
<g id="edge55" class="edge">
<title>Node31&#45;&gt;Node38</title>
<path fill="none" stroke="midnightblue" d="M1030.66,-408.94C1039.2,-406.85 1048.42,-404.72 1057,-403 1134.47,-387.46 1224.56,-374.14 1283.07,-366.11"/>
<polygon fill="midnightblue" stroke="midnightblue" points="1283.82,-369.54 1293.26,-364.72 1282.88,-362.6 1283.82,-369.54"/>
</g>
<!-- Node39 -->
<g id="node39" class="node">
<title>Node39</title>
<g id="a_node39"><a xlink:title=" ">
<polygon fill="white" stroke="#bfbfbf" points="1079,-347.5 1079,-366.5 1123,-366.5 1123,-347.5 1079,-347.5"/>
<text text-anchor="middle" x="1101" y="-354.5" font-family="Helvetica,sans-Serif" font-size="10.00">mpi.h</text>
</a>
</g>
</g>
<!-- Node31&#45;&gt;Node39 -->
<g id="edge56" class="edge">
<title>Node31&#45;&gt;Node39</title>
<path fill="none" stroke="midnightblue" d="M1012.76,-408.98C1029.66,-399.21 1057.58,-383.08 1077.49,-371.58"/>
<polygon fill="midnightblue" stroke="midnightblue" points="1079.36,-374.54 1086.27,-366.51 1075.86,-368.48 1079.36,-374.54"/>
</g>
<!-- Node35&#45;&gt;Node8 -->
<g id="edge49" class="edge">
<title>Node35&#45;&gt;Node8</title>
<path fill="none" stroke="midnightblue" d="M811.43,-347.32C785.45,-333.94 733.28,-308.06 687,-291 545.34,-238.79 502.13,-249.93 360,-199 306.88,-179.96 247.03,-152.19 213.49,-136.02"/>
<polygon fill="midnightblue" stroke="midnightblue" points="214.88,-132.81 204.35,-131.59 211.82,-139.11 214.88,-132.81"/>
</g>
<!-- Node35&#45;&gt;Node33 -->
<g id="edge48" class="edge">
<title>Node35&#45;&gt;Node33</title>
<path fill="none" stroke="midnightblue" d="M847.01,-347.44C866.59,-338.64 897.31,-324.81 919.73,-314.72"/>
<polygon fill="midnightblue" stroke="midnightblue" points="921.39,-317.81 929.07,-310.52 918.52,-311.43 921.39,-317.81"/>
</g>
<!-- Node36 -->
<g id="node36" class="node">
<title>Node36</title>
<g id="a_node36"><a xlink:href="LogMacros_8hpp.html" target="_top" xlink:title=" ">
<polygon fill="white" stroke="black" points="773,-291.5 773,-310.5 863,-310.5 863,-291.5 773,-291.5"/>
<text text-anchor="middle" x="818" y="-298.5" font-family="Helvetica,sans-Serif" font-size="10.00">LogMacros.hpp</text>
</a>
</g>
</g>
<!-- Node35&#45;&gt;Node36 -->
<g id="edge50" class="edge">
<title>Node35&#45;&gt;Node36</title>
<path fill="none" stroke="midnightblue" d="M826.35,-347.08C825.02,-339.93 823.12,-329.64 821.46,-320.69"/>
<polygon fill="midnightblue" stroke="midnightblue" points="824.88,-319.95 819.62,-310.75 818,-321.22 824.88,-319.95"/>
</g>
<!-- Node36&#45;&gt;Node9 -->
<g id="edge51" class="edge">
<title>Node36&#45;&gt;Node9</title>
<path fill="none" stroke="midnightblue" d="M786.93,-291.44C754.3,-282.43 701.52,-267.82 656,-255 582.66,-234.35 497.2,-209.86 448.46,-195.86"/>
<polygon fill="midnightblue" stroke="midnightblue" points="449.21,-192.43 438.64,-193.03 447.28,-199.16 449.21,-192.43"/>
</g>
<!-- Node36&#45;&gt;Node27 -->
<g id="edge52" class="edge">
<title>Node36&#45;&gt;Node27</title>
<path fill="none" stroke="midnightblue" d="M806.11,-291.32C794.85,-283.11 777.71,-270.6 764.29,-260.81"/>
<polygon fill="midnightblue" stroke="midnightblue" points="766.25,-257.9 756.11,-254.83 762.12,-263.56 766.25,-257.9"/>
</g>
<!-- Node37 -->
<g id="node37" class="node">
<title>Node37</title>
<g id="a_node37"><a xlink:href="Tracer_8hpp.html" target="_top" xlink:title=" ">
<polygon fill="white" stroke="black" points="840.5,-235.5 840.5,-254.5 945.5,-254.5 945.5,-235.5 840.5,-235.5"/>
<text text-anchor="middle" x="893" y="-242.5" font-family="Helvetica,sans-Serif" font-size="10.00">logging/Tracer.hpp</text>
</a>
</g>
</g>
<!-- Node36&#45;&gt;Node37 -->
<g id="edge53" class="edge">
<title>Node36&#45;&gt;Node37</title>
<path fill="none" stroke="midnightblue" d="M830.05,-291.32C841.46,-283.11 858.83,-270.6 872.43,-260.81"/>
<polygon fill="midnightblue" stroke="midnightblue" points="874.66,-263.52 880.73,-254.83 870.57,-257.84 874.66,-263.52"/>
</g>
<!-- Node37&#45;&gt;Node35 -->
<g id="edge54" class="edge">
<title>Node37&#45;&gt;Node35</title>
<path fill="none" stroke="midnightblue" d="M891.55,-254.52C889.07,-267.47 883.16,-292.52 872,-311 865.25,-322.17 855.22,-332.71 846.44,-340.78"/>
<polygon fill="midnightblue" stroke="midnightblue" points="844.06,-338.21 838.86,-347.44 848.68,-343.47 844.06,-338.21"/>
</g>
<!-- Node40&#45;&gt;Node10 -->
<g id="edge58" class="edge">
<title>Node40&#45;&gt;Node10</title>
<path fill="none" stroke="midnightblue" d="M601.95,-291.44C557.32,-271.19 456.67,-218.29 496,-168 534.99,-118.15 573.13,-146.3 639.65,-132.02"/>
<polygon fill="midnightblue" stroke="midnightblue" points="640.78,-135.35 649.68,-129.59 639.14,-128.55 640.78,-135.35"/>
</g>
<!-- Node42&#45;&gt;Node2 -->
<g id="edge61" class="edge">
<title>Node42&#45;&gt;Node2</title>
<path fill="none" stroke="midnightblue" d="M1213.52,-582.23C1205.95,-573.75 1195.4,-560.13 1191,-546 1188.36,-537.51 1189.59,-534.78 1191,-526 1207.66,-422.48 1265,-406.85 1265,-302 1265,-302 1265,-302 1265,-121 1265,-8.09 373.72,-8.75 161.81,-10.51"/>
<polygon fill="midnightblue" stroke="midnightblue" points="161.64,-7.01 151.67,-10.6 161.7,-14.01 161.64,-7.01"/>
</g>
<!-- Node42&#45;&gt;Node3 -->
<g id="edge62" class="edge">
<title>Node42&#45;&gt;Node3</title>
<path fill="none" stroke="midnightblue" d="M1238.61,-582.43C1287.09,-556.08 1425,-471.2 1425,-358 1425,-358 1425,-358 1425,-182.5 1425,-148.36 1425,-108.55 1425,-85.71"/>
<polygon fill="midnightblue" stroke="midnightblue" points="1428.5,-85.69 1425,-75.69 1421.5,-85.69 1428.5,-85.69"/>
</g>
<!-- Node42&#45;&gt;Node4 -->
<g id="edge63" class="edge">
<title>Node42&#45;&gt;Node4</title>
<path fill="none" stroke="midnightblue" d="M1229.57,-582.26C1236.75,-573.58 1247.39,-559.63 1254,-546 1271.57,-509.75 1282.47,-463.54 1287.57,-438.21"/>
<polygon fill="midnightblue" stroke="midnightblue" points="1291.05,-438.63 1289.5,-428.15 1284.18,-437.3 1291.05,-438.63"/>
</g>
<!-- Node42&#45;&gt;Node5 -->
<g id="edge65" class="edge">
<title>Node42&#45;&gt;Node5</title>
<path fill="none" stroke="midnightblue" d="M1172.44,-585.17C1090.58,-575.54 926.87,-556.28 833.15,-545.25"/>
<polygon fill="midnightblue" stroke="midnightblue" points="833.54,-541.77 823.2,-544.08 832.72,-548.73 833.54,-541.77"/>
</g>
<!-- Node42&#45;&gt;Node6 -->
<g id="edge67" class="edge">
<title>Node42&#45;&gt;Node6</title>
<path fill="none" stroke="midnightblue" d="M1198.72,-582.43C1160.74,-568.73 1082.86,-541.84 1015,-526 938.5,-508.14 848.91,-495.43 790,-488.17"/>
<polygon fill="midnightblue" stroke="midnightblue" points="790.08,-484.65 779.73,-486.92 789.23,-491.6 790.08,-484.65"/>
</g>
<!-- Node42&#45;&gt;Node38 -->
<g id="edge66" class="edge">
<title>Node42&#45;&gt;Node38</title>
<path fill="none" stroke="midnightblue" d="M1233.83,-582.36C1244.73,-573.97 1260.86,-560.42 1272,-546 1306.28,-501.64 1311.5,-486.92 1330,-434 1336.64,-415 1340.65,-392.24 1342.82,-376.61"/>
<polygon fill="midnightblue" stroke="midnightblue" points="1346.3,-377.01 1344.1,-366.64 1339.36,-376.12 1346.3,-377.01"/>
</g>
<!-- Node43 -->
<g id="node43" class="node">
<title>Node43</title>
<g id="a_node43"><a xlink:title=" ">
<polygon fill="white" stroke="#bfbfbf" points="1199.5,-526.5 1199.5,-545.5 1244.5,-545.5 1244.5,-526.5 1199.5,-526.5"/>
<text text-anchor="middle" x="1222" y="-533.5" font-family="Helvetica,sans-Serif" font-size="10.00">utility</text>
</a>
</g>
</g>
<!-- Node42&#45;&gt;Node43 -->
<g id="edge64" class="edge">
<title>Node42&#45;&gt;Node43</title>
<path fill="none" stroke="midnightblue" d="M1222,-582.08C1222,-575.01 1222,-564.86 1222,-555.99"/>
<polygon fill="midnightblue" stroke="midnightblue" points="1225.5,-555.75 1222,-545.75 1218.5,-555.75 1225.5,-555.75"/>
</g>
</g>
</svg>
        <g id="navigator" transform="translate(0 0)" fill="#404254">
                <rect fill="#f2f5e9" fill-opacity="0.5" stroke="#606060" stroke-width=".5" x="0" y="0" width="60" height="60"/>
                <use id="zoomplus" xlink:href="#zoomPlus" x="17" y="9" onmousedown="handleZoom(evt,'in')"/>
                <use id="zoomminus" xlink:href="#zoomMin" x="42" y="9" onmousedown="handleZoom(evt,'out')"/>
                <use id="reset" xlink:href="#resetDef" x="30" y="36" onmousedown="handleReset()"/>
                <g id="arrowUp" xlink:href="#dirArrow" transform="translate(30 24)" onmousedown="handlePan(0,-1)">
                  <use xlink:href="#rim" fill="#404040">
                        <set attributeName="fill" to="#808080" begin="arrowUp.mouseover" end="arrowUp.mouseout"/>
                  </use>
                  <path fill="none" stroke="white" stroke-width="1.5" d="M0,-3.0v7 M-2.5,-0.5L0,-3.0L2.5,-0.5"/>
                </g>
                <g id="arrowRight" xlink:href="#dirArrow" transform="rotate(90) translate(36 -43)" onmousedown="handlePan(1,0)">
                  <use xlink:href="#rim" fill="#404040">
                        <set attributeName="fill" to="#808080" begin="arrowRight.mouseover" end="arrowRight.mouseout"/>
                  </use>
                  <path fill="none" stroke="white" stroke-width="1.5" d="M0,-3.0v7 M-2.5,-0.5L0,-3.0L2.5,-0.5"/>
                </g>
                <g id="arrowDown" xlink:href="#dirArrow" transform="rotate(180) translate(-30 -48)" onmousedown="handlePan(0,1)">
                  <use xlink:href="#rim" fill="#404040">
                        <set attributeName="fill" to="#808080" begin="arrowDown.mouseover" end="arrowDown.mouseout"/>
                  </use>
                  <path fill="none" stroke="white" stroke-width="1.5" d="M0,-3.0v7 M-2.5,-0.5L0,-3.0L2.5,-0.5"/>
                </g>
                <g id="arrowLeft" xlink:href="#dirArrow" transform="rotate(270) translate(-36 17)" onmousedown="handlePan(-1,0)">
                  <use xlink:href="#rim" fill="#404040">
                        <set attributeName="fill" to="#808080" begin="arrowLeft.mouseover" end="arrowLeft.mouseout"/>
                  </use>
                  <path fill="none" stroke="white" stroke-width="1.5" d="M0,-3.0v7 M-2.5,-0.5L0,-3.0L2.5,-0.5"/>
                </g>
        </g>
        <svg viewBox="0 0 15 15" width="100%" height="30px" preserveAspectRatio="xMaxYMin meet">
         <g id="arrow_out" transform="scale(0.3 0.3)">
          <a xlink:href="Edge_8hpp__incl_org.svg" target="_base">
           <rect id="button" ry="5" rx="5" y="6" x="6" height="38" width="38"
                fill="#f2f5e9" fill-opacity="0.5" stroke="#606060" stroke-width="1.0"/>
           <path id="arrow"
             d="M 11.500037,31.436501 C 11.940474,20.09759 22.043105,11.32322 32.158766,21.979434 L 37.068811,17.246167 C 37.068811,17.246167 37.088388,32 37.088388,32 L 22.160133,31.978069 C 22.160133,31.978069 26.997745,27.140456 26.997745,27.140456 C 18.528582,18.264221 13.291696,25.230495 11.500037,31.436501 z"
             style="fill:#404040;"/>
          </a>
         </g>
        </svg>
</svg>
