<?xml version="1.0" encoding="UTF-8" standalone="no"?>
<!DOCTYPE svg PUBLIC "-//W3C//DTD SVG 1.1//EN"
 "http://www.w3.org/Graphics/SVG/1.1/DTD/svg11.dtd">
<!-- Generated by graphviz version 2.43.0 (0)
 -->
<!-- Title: src/mesh/Edge.cpp Pages: 1 -->
<svg width="1490pt" height="722pt"
 viewBox="0.00 0.00 1490.05 722.00" xmlns="http://www.w3.org/2000/svg" xmlns:xlink="http://www.w3.org/1999/xlink">
<g id="graph0" class="graph" transform="scale(1 1) rotate(0) translate(4 718)">
<title>src/mesh/Edge.cpp</title>
<polygon fill="white" stroke="transparent" points="-4,4 -4,-718 1486.05,-718 1486.05,4 -4,4"/>
<!-- Node1 -->
<g id="node1" class="node">
<title>Node1</title>
<g id="a_node1"><a xlink:title=" ">
<polygon fill="#bfbfbf" stroke="black" points="962.05,-694.5 962.05,-713.5 1070.05,-713.5 1070.05,-694.5 962.05,-694.5"/>
<text text-anchor="middle" x="1016.05" y="-701.5" font-family="Helvetica,sans-Serif" font-size="10.00">src/mesh/Edge.cpp</text>
</a>
</g>
</g>
<!-- Node2 -->
<g id="node2" class="node">
<title>Node2</title>
<g id="a_node2"><a xlink:title=" ">
<polygon fill="white" stroke="#bfbfbf" points="464.55,-0.5 464.55,-19.5 533.55,-19.5 533.55,-0.5 464.55,-0.5"/>
<text text-anchor="middle" x="499.05" y="-7.5" font-family="Helvetica,sans-Serif" font-size="10.00">Eigen/Core</text>
</a>
</g>
</g>
<!-- Node1&#45;&gt;Node2 -->
<g id="edge1" class="edge">
<title>Node1&#45;&gt;Node2</title>
<path fill="none" stroke="midnightblue" d="M961.73,-702.64C756.23,-700.59 38.05,-686.71 38.05,-593 38.05,-593 38.05,-593 38.05,-535 38.05,-454.54 0.05,-438.46 0.05,-358 0.05,-358 0.05,-358 0.05,-121 0.05,-77.56 33.32,-73.57 73.05,-56 140.5,-26.18 359.1,-15.55 454.19,-12.28"/>
<polygon fill="midnightblue" stroke="midnightblue" points="454.47,-15.77 464.34,-11.94 454.23,-8.78 454.47,-15.77"/>
</g>
<!-- Node3 -->
<g id="node3" class="node">
<title>Node3</title>
<g id="a_node3"><a xlink:title=" ">
<polygon fill="white" stroke="#bfbfbf" points="844.05,-56.5 844.05,-75.5 908.05,-75.5 908.05,-56.5 844.05,-56.5"/>
<text text-anchor="middle" x="876.05" y="-63.5" font-family="Helvetica,sans-Serif" font-size="10.00">algorithm</text>
</a>
</g>
</g>
<!-- Node1&#45;&gt;Node3 -->
<g id="edge2" class="edge">
<title>Node1&#45;&gt;Node3</title>
<path fill="none" stroke="midnightblue" d="M1070.42,-701.55C1193.35,-696.81 1482.05,-676.75 1482.05,-593 1482.05,-593 1482.05,-593 1482.05,-535 1482.05,-273.18 1309.67,-221.93 1072.05,-112 1065.03,-108.75 973.56,-88.38 918.1,-76.19"/>
<polygon fill="midnightblue" stroke="midnightblue" points="918.71,-72.74 908.19,-74.02 917.21,-79.58 918.71,-72.74"/>
</g>
<!-- Node4 -->
<g id="node4" class="node">
<title>Node4</title>
<g id="a_node4"><a xlink:href="Edge_8hpp.html" target="_top" xlink:title=" ">
<polygon fill="white" stroke="black" points="1178.05,-638.5 1178.05,-657.5 1240.05,-657.5 1240.05,-638.5 1178.05,-638.5"/>
<text text-anchor="middle" x="1209.05" y="-645.5" font-family="Helvetica,sans-Serif" font-size="10.00">Edge.hpp</text>
</a>
</g>
</g>
<!-- Node1&#45;&gt;Node4 -->
<g id="edge3" class="edge">
<title>Node1&#45;&gt;Node4</title>
<path fill="none" stroke="midnightblue" d="M1046.64,-694.44C1079.67,-685.2 1132.44,-670.44 1168.82,-660.26"/>
<polygon fill="midnightblue" stroke="midnightblue" points="1169.93,-663.58 1178.62,-657.52 1168.04,-656.84 1169.93,-663.58"/>
</g>
<!-- Node7 -->
<g id="node7" class="node">
<title>Node7</title>
<g id="a_node7"><a xlink:href="differences_8hpp.html" target="_top" xlink:title=" ">
<polygon fill="white" stroke="black" points="852.05,-526.5 852.05,-545.5 972.05,-545.5 972.05,-526.5 852.05,-526.5"/>
<text text-anchor="middle" x="912.05" y="-533.5" font-family="Helvetica,sans-Serif" font-size="10.00">math/differences.hpp</text>
</a>
</g>
</g>
<!-- Node1&#45;&gt;Node7 -->
<g id="edge73" class="edge">
<title>Node1&#45;&gt;Node7</title>
<path fill="none" stroke="midnightblue" d="M1010.54,-694.38C999.41,-676.96 973.5,-636.33 952.05,-602 942.1,-586.06 930.9,-567.83 922.88,-554.74"/>
<polygon fill="midnightblue" stroke="midnightblue" points="925.65,-552.56 917.45,-545.85 919.68,-556.21 925.65,-552.56"/>
</g>
<!-- Node17 -->
<g id="node17" class="node">
<title>Node17</title>
<g id="a_node17"><a xlink:href="EigenIO_8hpp.html" target="_top" xlink:title=" ">
<polygon fill="white" stroke="black" points="410.55,-56.5 410.55,-75.5 509.55,-75.5 509.55,-56.5 410.55,-56.5"/>
<text text-anchor="middle" x="460.05" y="-63.5" font-family="Helvetica,sans-Serif" font-size="10.00">utils/EigenIO.hpp</text>
</a>
</g>
</g>
<!-- Node1&#45;&gt;Node17 -->
<g id="edge75" class="edge">
<title>Node1&#45;&gt;Node17</title>
<path fill="none" stroke="midnightblue" d="M961.92,-702.19C760.24,-698.97 62.13,-685.83 24.05,-658 -0.81,-639.83 0.05,-623.8 0.05,-593 0.05,-593 0.05,-593 0.05,-535 0.05,-426.07 76.05,-410.93 76.05,-302 76.05,-302 76.05,-302 76.05,-182.5 76.05,-115.65 292.18,-84.1 400.15,-72.51"/>
<polygon fill="midnightblue" stroke="midnightblue" points="400.67,-75.97 410.25,-71.45 399.94,-69.01 400.67,-75.97"/>
</g>
<!-- Node39 -->
<g id="node39" class="node">
<title>Node39</title>
<g id="a_node39"><a xlink:href="types_8hpp.html" target="_top" xlink:title=" ">
<polygon fill="white" stroke="black" points="1274.55,-347.5 1274.55,-366.5 1377.55,-366.5 1377.55,-347.5 1274.55,-347.5"/>
<text text-anchor="middle" x="1326.05" y="-354.5" font-family="Helvetica,sans-Serif" font-size="10.00">precice/types.hpp</text>
</a>
</g>
</g>
<!-- Node1&#45;&gt;Node39 -->
<g id="edge74" class="edge">
<title>Node1&#45;&gt;Node39</title>
<path fill="none" stroke="midnightblue" d="M1070.28,-697.43C1169.02,-685.77 1368.05,-654.62 1368.05,-593 1368.05,-593 1368.05,-593 1368.05,-479 1368.05,-440.45 1348.8,-398.63 1336.36,-375.64"/>
<polygon fill="midnightblue" stroke="midnightblue" points="1339.32,-373.75 1331.37,-366.74 1333.21,-377.18 1339.32,-373.75"/>
</g>
<!-- Node4&#45;&gt;Node2 -->
<g id="edge4" class="edge">
<title>Node4&#45;&gt;Node2</title>
<path fill="none" stroke="midnightblue" d="M1240.08,-647.13C1279.58,-645.71 1347.96,-637.75 1392.05,-602 1437.23,-565.37 1482.05,-455.59 1482.05,-358 1482.05,-358 1482.05,-358 1482.05,-121 1482.05,-52.4 1408.62,-72.57 1342.05,-56 1188.76,-17.83 695.85,-12.04 544.01,-11.16"/>
<polygon fill="midnightblue" stroke="midnightblue" points="543.69,-7.66 533.67,-11.1 543.65,-14.66 543.69,-7.66"/>
</g>
<!-- Node5 -->
<g id="node5" class="node">
<title>Node5</title>
<g id="a_node5"><a xlink:title=" ">
<polygon fill="white" stroke="#bfbfbf" points="1291.05,-56.5 1291.05,-75.5 1333.05,-75.5 1333.05,-56.5 1291.05,-56.5"/>
<text text-anchor="middle" x="1312.05" y="-63.5" font-family="Helvetica,sans-Serif" font-size="10.00">array</text>
</a>
</g>
</g>
<!-- Node4&#45;&gt;Node5 -->
<g id="edge5" class="edge">
<title>Node4&#45;&gt;Node5</title>
<path fill="none" stroke="midnightblue" d="M1240.27,-643.86C1295.82,-636.35 1406.05,-612.01 1406.05,-537 1406.05,-537 1406.05,-537 1406.05,-479 1406.05,-398.54 1444.05,-382.46 1444.05,-302 1444.05,-302 1444.05,-302 1444.05,-182.5 1444.05,-128.88 1381.61,-94.38 1342.62,-78.07"/>
<polygon fill="midnightblue" stroke="midnightblue" points="1343.85,-74.79 1333.26,-74.31 1341.24,-81.28 1343.85,-74.79"/>
</g>
<!-- Node6 -->
<g id="node6" class="node">
<title>Node6</title>
<g id="a_node6"><a xlink:title=" ">
<polygon fill="white" stroke="#bfbfbf" points="1158.05,-409 1158.05,-428 1218.05,-428 1218.05,-409 1158.05,-409"/>
<text text-anchor="middle" x="1188.05" y="-416" font-family="Helvetica,sans-Serif" font-size="10.00">iostream</text>
</a>
</g>
</g>
<!-- Node4&#45;&gt;Node6 -->
<g id="edge6" class="edge">
<title>Node4&#45;&gt;Node6</title>
<path fill="none" stroke="midnightblue" d="M1208.26,-638.36C1205.19,-605.14 1194.11,-485.16 1189.8,-438.37"/>
<polygon fill="midnightblue" stroke="midnightblue" points="1193.26,-437.79 1188.85,-428.15 1186.29,-438.43 1193.26,-437.79"/>
</g>
<!-- Node4&#45;&gt;Node7 -->
<g id="edge7" class="edge">
<title>Node4&#45;&gt;Node7</title>
<path fill="none" stroke="midnightblue" d="M1177.86,-645.75C1133.19,-642.88 1049.4,-633.38 986.05,-602 962.01,-590.09 939.63,-568.35 925.92,-553.32"/>
<polygon fill="midnightblue" stroke="midnightblue" points="928.48,-550.93 919.23,-545.76 923.24,-555.57 928.48,-550.93"/>
</g>
<!-- Node8 -->
<g id="node8" class="node">
<title>Node8</title>
<g id="a_node8"><a xlink:href="assertion_8hpp.html" target="_top" xlink:title=" ">
<polygon fill="white" stroke="black" points="819.55,-470.5 819.55,-489.5 926.55,-489.5 926.55,-470.5 819.55,-470.5"/>
<text text-anchor="middle" x="873.05" y="-477.5" font-family="Helvetica,sans-Serif" font-size="10.00">utils/assertion.hpp</text>
</a>
</g>
</g>
<!-- Node4&#45;&gt;Node8 -->
<g id="edge72" class="edge">
<title>Node4&#45;&gt;Node8</title>
<path fill="none" stroke="midnightblue" d="M1177.92,-639.01C1151.28,-631.49 1112.37,-618.86 1081.05,-602 1031.9,-575.53 1029.43,-553.85 981.05,-526 957.85,-512.64 929.91,-501.11 908.26,-493.06"/>
<polygon fill="midnightblue" stroke="midnightblue" points="909.39,-489.75 898.8,-489.62 907,-496.33 909.39,-489.75"/>
</g>
<!-- Node4&#45;&gt;Node39 -->
<g id="edge71" class="edge">
<title>Node4&#45;&gt;Node39</title>
<path fill="none" stroke="midnightblue" d="M1231.81,-638.43C1266.86,-623.58 1330.05,-589.52 1330.05,-537 1330.05,-537 1330.05,-537 1330.05,-479 1330.05,-442.69 1328.23,-400.29 1327.05,-376.55"/>
<polygon fill="midnightblue" stroke="midnightblue" points="1330.54,-376.31 1326.53,-366.51 1323.55,-376.67 1330.54,-376.31"/>
</g>
<!-- Node43 -->
<g id="node43" class="node">
<title>Node43</title>
<g id="a_node43"><a xlink:href="Vertex_8hpp.html" target="_top" xlink:title=" ">
<polygon fill="white" stroke="black" points="1089.55,-582.5 1089.55,-601.5 1188.55,-601.5 1188.55,-582.5 1089.55,-582.5"/>
<text text-anchor="middle" x="1139.05" y="-589.5" font-family="Helvetica,sans-Serif" font-size="10.00">mesh/Vertex.hpp</text>
</a>
</g>
</g>
<!-- Node4&#45;&gt;Node43 -->
<g id="edge63" class="edge">
<title>Node4&#45;&gt;Node43</title>
<path fill="none" stroke="midnightblue" d="M1197.81,-638.32C1187.26,-630.18 1171.25,-617.84 1158.61,-608.09"/>
<polygon fill="midnightblue" stroke="midnightblue" points="1160.56,-605.17 1150.51,-601.83 1156.29,-610.71 1160.56,-605.17"/>
</g>
<!-- Node7&#45;&gt;Node2 -->
<g id="edge8" class="edge">
<title>Node7&#45;&gt;Node2</title>
<path fill="none" stroke="midnightblue" d="M852.03,-530.93C701.22,-520.01 310.05,-487.26 192.05,-434 109.89,-396.91 38.05,-392.15 38.05,-302 38.05,-302 38.05,-302 38.05,-121 38.05,-36.02 338.16,-16.56 454.1,-12.22"/>
<polygon fill="midnightblue" stroke="midnightblue" points="454.53,-15.7 464.4,-11.85 454.29,-8.71 454.53,-15.7"/>
</g>
<!-- Node7&#45;&gt;Node8 -->
<g id="edge9" class="edge">
<title>Node7&#45;&gt;Node8</title>
<path fill="none" stroke="midnightblue" d="M905.61,-526.08C900.1,-518.46 892.02,-507.26 885.29,-497.94"/>
<polygon fill="midnightblue" stroke="midnightblue" points="888.07,-495.81 879.37,-489.75 882.39,-499.91 888.07,-495.81"/>
</g>
<!-- Node8&#45;&gt;Node6 -->
<g id="edge11" class="edge">
<title>Node8&#45;&gt;Node6</title>
<path fill="none" stroke="midnightblue" d="M918.19,-470.48C979.65,-458.87 1088.76,-438.26 1147.66,-427.13"/>
<polygon fill="midnightblue" stroke="midnightblue" points="1148.52,-430.53 1157.7,-425.23 1147.22,-423.65 1148.52,-430.53"/>
</g>
<!-- Node9 -->
<g id="node9" class="node">
<title>Node9</title>
<g id="a_node9"><a xlink:title=" ">
<polygon fill="white" stroke="#bfbfbf" points="306.55,-409 306.55,-428 355.55,-428 355.55,-409 306.55,-409"/>
<text text-anchor="middle" x="331.05" y="-416" font-family="Helvetica,sans-Serif" font-size="10.00">cstdlib</text>
</a>
</g>
</g>
<!-- Node8&#45;&gt;Node9 -->
<g id="edge10" class="edge">
<title>Node8&#45;&gt;Node9</title>
<path fill="none" stroke="midnightblue" d="M819.49,-479.73C725.85,-479.81 526.94,-474.6 365.05,-434 362.69,-433.41 360.28,-432.67 357.89,-431.85"/>
<polygon fill="midnightblue" stroke="midnightblue" points="358.92,-428.49 348.34,-428.11 356.37,-435.01 358.92,-428.49"/>
</g>
<!-- Node10 -->
<g id="node10" class="node">
<title>Node10</title>
<g id="a_node10"><a xlink:title=" ">
<polygon fill="white" stroke="#bfbfbf" points="927.55,-112.5 927.55,-131.5 1000.55,-131.5 1000.55,-112.5 927.55,-112.5"/>
<text text-anchor="middle" x="964.05" y="-119.5" font-family="Helvetica,sans-Serif" font-size="10.00">string_view</text>
</a>
</g>
</g>
<!-- Node8&#45;&gt;Node10 -->
<g id="edge12" class="edge">
<title>Node8&#45;&gt;Node10</title>
<path fill="none" stroke="midnightblue" d="M881.12,-470.03C893.92,-454.71 915.79,-423.18 899.05,-403 843.92,-336.5 763.19,-433.5 708.05,-367 699.79,-357.03 694.82,-324.38 712.05,-291 748.63,-220.16 797.18,-239.17 866.05,-199 896.54,-181.22 928.16,-155.06 946.96,-138.53"/>
<polygon fill="midnightblue" stroke="midnightblue" points="949.51,-140.94 954.65,-131.68 944.86,-135.72 949.51,-140.94"/>
</g>
<!-- Node11 -->
<g id="node11" class="node">
<title>Node11</title>
<g id="a_node11"><a xlink:href="fmt_8hpp.html" target="_top" xlink:title=" ">
<polygon fill="white" stroke="black" points="777.55,-174 777.55,-193 856.55,-193 856.55,-174 777.55,-174"/>
<text text-anchor="middle" x="817.05" y="-181" font-family="Helvetica,sans-Serif" font-size="10.00">utils/fmt.hpp</text>
</a>
</g>
</g>
<!-- Node8&#45;&gt;Node11 -->
<g id="edge13" class="edge">
<title>Node8&#45;&gt;Node11</title>
<path fill="none" stroke="midnightblue" d="M819.33,-478.85C683.2,-477.91 333.02,-471.81 298.05,-434 288.7,-423.88 290.43,-414.48 298.05,-403 312.7,-380.94 674.55,-239.62 785.2,-196.79"/>
<polygon fill="midnightblue" stroke="midnightblue" points="786.75,-199.94 794.81,-193.07 784.22,-193.41 786.75,-199.94"/>
</g>
<!-- Node23 -->
<g id="node23" class="node">
<title>Node23</title>
<g id="a_node23"><a xlink:title=" ">
<polygon fill="white" stroke="#bfbfbf" points="373.55,-409 373.55,-428 520.55,-428 520.55,-409 373.55,-409"/>
<text text-anchor="middle" x="447.05" y="-416" font-family="Helvetica,sans-Serif" font-size="10.00">boost/current_function.hpp</text>
</a>
</g>
</g>
<!-- Node8&#45;&gt;Node23 -->
<g id="edge32" class="edge">
<title>Node8&#45;&gt;Node23</title>
<path fill="none" stroke="midnightblue" d="M819.48,-472.69C751.9,-464.56 632.17,-449.61 530.05,-434 521.64,-432.71 512.75,-431.26 504.05,-429.79"/>
<polygon fill="midnightblue" stroke="midnightblue" points="504.41,-426.3 493.96,-428.05 503.23,-433.2 504.41,-426.3"/>
</g>
<!-- Node24 -->
<g id="node24" class="node">
<title>Node24</title>
<g id="a_node24"><a xlink:title=" ">
<polygon fill="white" stroke="#bfbfbf" points="538.55,-403.5 538.55,-433.5 673.55,-433.5 673.55,-403.5 538.55,-403.5"/>
<text text-anchor="start" x="546.55" y="-421.5" font-family="Helvetica,sans-Serif" font-size="10.00">boost/preprocessor</text>
<text text-anchor="middle" x="606.05" y="-410.5" font-family="Helvetica,sans-Serif" font-size="10.00">/comparison/greater.hpp</text>
</a>
</g>
</g>
<!-- Node8&#45;&gt;Node24 -->
<g id="edge33" class="edge">
<title>Node8&#45;&gt;Node24</title>
<path fill="none" stroke="midnightblue" d="M834.8,-470.48C794.24,-461.44 729.22,-446.95 678.85,-435.72"/>
<polygon fill="midnightblue" stroke="midnightblue" points="679.5,-432.28 668.98,-433.52 677.98,-439.11 679.5,-432.28"/>
</g>
<!-- Node25 -->
<g id="node25" class="node">
<title>Node25</title>
<g id="a_node25"><a xlink:title=" ">
<polygon fill="white" stroke="#bfbfbf" points="104.05,-168.5 104.05,-198.5 214.05,-198.5 214.05,-168.5 104.05,-168.5"/>
<text text-anchor="start" x="112.05" y="-186.5" font-family="Helvetica,sans-Serif" font-size="10.00">boost/preprocessor</text>
<text text-anchor="middle" x="159.05" y="-175.5" font-family="Helvetica,sans-Serif" font-size="10.00">/control/if.hpp</text>
</a>
</g>
</g>
<!-- Node8&#45;&gt;Node25 -->
<g id="edge34" class="edge">
<title>Node8&#45;&gt;Node25</title>
<path fill="none" stroke="midnightblue" d="M819.52,-477.49C677.17,-473.16 296.69,-459.32 246.05,-434 206.04,-413.99 180.05,-402.74 180.05,-358 180.05,-358 180.05,-358 180.05,-300 180.05,-267.83 172.07,-231.43 165.95,-208.24"/>
<polygon fill="midnightblue" stroke="midnightblue" points="169.32,-207.3 163.3,-198.57 162.57,-209.14 169.32,-207.3"/>
</g>
<!-- Node26 -->
<g id="node26" class="node">
<title>Node26</title>
<g id="a_node26"><a xlink:title=" ">
<polygon fill="white" stroke="#bfbfbf" points="232.05,-168.5 232.05,-198.5 342.05,-198.5 342.05,-168.5 232.05,-168.5"/>
<text text-anchor="start" x="240.05" y="-186.5" font-family="Helvetica,sans-Serif" font-size="10.00">boost/preprocessor</text>
<text text-anchor="middle" x="287.05" y="-175.5" font-family="Helvetica,sans-Serif" font-size="10.00">/stringize.hpp</text>
</a>
</g>
</g>
<!-- Node8&#45;&gt;Node26 -->
<g id="edge35" class="edge">
<title>Node8&#45;&gt;Node26</title>
<path fill="none" stroke="midnightblue" d="M819.36,-477.63C683.18,-473.78 331.89,-461.29 287.05,-434 253.13,-413.35 240.05,-397.72 240.05,-358 240.05,-358 240.05,-358 240.05,-300 240.05,-265.75 258,-229.72 271.72,-207.19"/>
<polygon fill="midnightblue" stroke="midnightblue" points="274.71,-209.02 277.09,-198.69 268.79,-205.28 274.71,-209.02"/>
</g>
<!-- Node27 -->
<g id="node27" class="node">
<title>Node27</title>
<g id="a_node27"><a xlink:title=" ">
<polygon fill="white" stroke="#bfbfbf" points="692.05,-403.5 692.05,-433.5 802.05,-433.5 802.05,-403.5 692.05,-403.5"/>
<text text-anchor="start" x="700.05" y="-421.5" font-family="Helvetica,sans-Serif" font-size="10.00">boost/preprocessor</text>
<text text-anchor="middle" x="747.05" y="-410.5" font-family="Helvetica,sans-Serif" font-size="10.00">/variadic/size.hpp</text>
</a>
</g>
</g>
<!-- Node8&#45;&gt;Node27 -->
<g id="edge36" class="edge">
<title>Node8&#45;&gt;Node27</title>
<path fill="none" stroke="midnightblue" d="M855,-470.48C837.06,-462 808.97,-448.74 785.94,-437.86"/>
<polygon fill="midnightblue" stroke="midnightblue" points="787.29,-434.63 776.75,-433.52 784.3,-440.96 787.29,-434.63"/>
</g>
<!-- Node28 -->
<g id="node28" class="node">
<title>Node28</title>
<g id="a_node28"><a xlink:href="ArgumentFormatter_8hpp.html" target="_top" xlink:title=" ">
<polygon fill="white" stroke="black" points="468.55,-235.5 468.55,-254.5 625.55,-254.5 625.55,-235.5 468.55,-235.5"/>
<text text-anchor="middle" x="547.05" y="-242.5" font-family="Helvetica,sans-Serif" font-size="10.00">utils/ArgumentFormatter.hpp</text>
</a>
</g>
</g>
<!-- Node8&#45;&gt;Node28 -->
<g id="edge37" class="edge">
<title>Node8&#45;&gt;Node28</title>
<path fill="none" stroke="midnightblue" d="M877.61,-470.3C885.01,-454.81 897.28,-422.29 881.05,-403 820.95,-331.54 757.45,-409.02 674.05,-367 623.72,-341.64 579.78,-289.71 559.31,-262.88"/>
<polygon fill="midnightblue" stroke="midnightblue" points="562.07,-260.73 553.28,-254.81 556.46,-264.92 562.07,-260.73"/>
</g>
<!-- Node32 -->
<g id="node32" class="node">
<title>Node32</title>
<g id="a_node32"><a xlink:href="Parallel_8hpp.html" target="_top" xlink:title=" ">
<polygon fill="white" stroke="black" points="966.05,-409 966.05,-428 1064.05,-428 1064.05,-409 966.05,-409"/>
<text text-anchor="middle" x="1015.05" y="-416" font-family="Helvetica,sans-Serif" font-size="10.00">utils/Parallel.hpp</text>
</a>
</g>
</g>
<!-- Node8&#45;&gt;Node32 -->
<g id="edge44" class="edge">
<title>Node8&#45;&gt;Node32</title>
<path fill="none" stroke="midnightblue" d="M893.4,-470.48C917.44,-460.4 957.65,-443.55 985.22,-432"/>
<polygon fill="midnightblue" stroke="midnightblue" points="986.88,-435.1 994.75,-428.01 984.17,-428.65 986.88,-435.1"/>
</g>
<!-- Node41 -->
<g id="node41" class="node">
<title>Node41</title>
<g id="a_node41"><a xlink:href="stacktrace_8hpp.html" target="_top" xlink:title=" ">
<polygon fill="white" stroke="black" points="1094.55,-291.5 1094.55,-310.5 1207.55,-310.5 1207.55,-291.5 1094.55,-291.5"/>
<text text-anchor="middle" x="1151.05" y="-298.5" font-family="Helvetica,sans-Serif" font-size="10.00">utils/stacktrace.hpp</text>
</a>
</g>
</g>
<!-- Node8&#45;&gt;Node41 -->
<g id="edge60" class="edge">
<title>Node8&#45;&gt;Node41</title>
<path fill="none" stroke="midnightblue" d="M926.81,-474.08C968.5,-468.6 1026.78,-457.24 1073.05,-434 1083.26,-428.87 1146.29,-377.38 1151.05,-367 1157.68,-352.58 1157.02,-334.39 1155.09,-320.92"/>
<polygon fill="midnightblue" stroke="midnightblue" points="1158.5,-320.13 1153.3,-310.9 1151.61,-321.36 1158.5,-320.13"/>
</g>
<!-- Node42 -->
<g id="node42" class="node">
<title>Node42</title>
<g id="a_node42"><a xlink:title=" ">
<polygon fill="white" stroke="#bfbfbf" points="820.05,-409 820.05,-428 872.05,-428 872.05,-409 820.05,-409"/>
<text text-anchor="middle" x="846.05" y="-416" font-family="Helvetica,sans-Serif" font-size="10.00">cassert</text>
</a>
</g>
</g>
<!-- Node8&#45;&gt;Node42 -->
<g id="edge62" class="edge">
<title>Node8&#45;&gt;Node42</title>
<path fill="none" stroke="midnightblue" d="M869.19,-470.48C865.26,-461.82 859.05,-448.15 854.06,-437.15"/>
<polygon fill="midnightblue" stroke="midnightblue" points="857.23,-435.67 849.92,-428.01 850.86,-438.56 857.23,-435.67"/>
</g>
<!-- Node11&#45;&gt;Node10 -->
<g id="edge15" class="edge">
<title>Node11&#45;&gt;Node10</title>
<path fill="none" stroke="midnightblue" d="M838.12,-173.98C863.11,-163.86 905,-146.9 933.54,-135.35"/>
<polygon fill="midnightblue" stroke="midnightblue" points="935.08,-138.51 943.03,-131.51 932.45,-132.02 935.08,-138.51"/>
</g>
<!-- Node12 -->
<g id="node12" class="node">
<title>Node12</title>
<g id="a_node12"><a xlink:title=" ">
<polygon fill="white" stroke="#bfbfbf" points="1019.05,-112.5 1019.05,-131.5 1063.05,-131.5 1063.05,-112.5 1019.05,-112.5"/>
<text text-anchor="middle" x="1041.05" y="-119.5" font-family="Helvetica,sans-Serif" font-size="10.00">string</text>
</a>
</g>
</g>
<!-- Node11&#45;&gt;Node12 -->
<g id="edge14" class="edge">
<title>Node11&#45;&gt;Node12</title>
<path fill="none" stroke="midnightblue" d="M850.95,-173.92C887.58,-164.59 947.94,-149.02 1008.93,-132.26"/>
<polygon fill="midnightblue" stroke="midnightblue" points="1010.01,-135.59 1018.72,-129.56 1008.15,-128.84 1010.01,-135.59"/>
</g>
<!-- Node13 -->
<g id="node13" class="node">
<title>Node13</title>
<g id="a_node13"><a xlink:title=" ">
<polygon fill="white" stroke="#bfbfbf" points="640.55,-56.5 640.55,-75.5 719.55,-75.5 719.55,-56.5 640.55,-56.5"/>
<text text-anchor="middle" x="680.05" y="-63.5" font-family="Helvetica,sans-Serif" font-size="10.00">fmt/format.h</text>
</a>
</g>
</g>
<!-- Node11&#45;&gt;Node13 -->
<g id="edge16" class="edge">
<title>Node11&#45;&gt;Node13</title>
<path fill="none" stroke="midnightblue" d="M790.56,-173.97C760.08,-163.68 712.61,-146 700.05,-132 688.61,-119.24 683.71,-100.04 681.62,-85.82"/>
<polygon fill="midnightblue" stroke="midnightblue" points="685.08,-85.23 680.47,-75.69 678.12,-86.03 685.08,-85.23"/>
</g>
<!-- Node14 -->
<g id="node14" class="node">
<title>Node14</title>
<g id="a_node14"><a xlink:title=" ">
<polygon fill="white" stroke="#bfbfbf" points="823.05,-112.5 823.05,-131.5 909.05,-131.5 909.05,-112.5 823.05,-112.5"/>
<text text-anchor="middle" x="866.05" y="-119.5" font-family="Helvetica,sans-Serif" font-size="10.00">fmt/ostream.h</text>
</a>
</g>
</g>
<!-- Node11&#45;&gt;Node14 -->
<g id="edge17" class="edge">
<title>Node11&#45;&gt;Node14</title>
<path fill="none" stroke="midnightblue" d="M824.07,-173.98C831.5,-164.96 843.39,-150.52 852.62,-139.31"/>
<polygon fill="midnightblue" stroke="midnightblue" points="855.39,-141.45 859.05,-131.51 849.99,-137 855.39,-141.45"/>
</g>
<!-- Node15 -->
<g id="node15" class="node">
<title>Node15</title>
<g id="a_node15"><a xlink:href="fmtEigen_8hpp.html" target="_top" xlink:title=" ">
<polygon fill="white" stroke="black" points="544.05,-112.5 544.05,-131.5 650.05,-131.5 650.05,-112.5 544.05,-112.5"/>
<text text-anchor="middle" x="597.05" y="-119.5" font-family="Helvetica,sans-Serif" font-size="10.00">utils/fmtEigen.hpp</text>
</a>
</g>
</g>
<!-- Node11&#45;&gt;Node15 -->
<g id="edge18" class="edge">
<title>Node11&#45;&gt;Node15</title>
<path fill="none" stroke="midnightblue" d="M788.85,-174C782.05,-171.99 774.8,-169.89 768.05,-168 724.86,-155.93 675.29,-142.98 640.67,-134.09"/>
<polygon fill="midnightblue" stroke="midnightblue" points="641.44,-130.67 630.88,-131.58 639.7,-137.45 641.44,-130.67"/>
</g>
<!-- Node18 -->
<g id="node18" class="node">
<title>Node18</title>
<g id="a_node18"><a xlink:href="fmtSTL_8hpp.html" target="_top" xlink:title=" ">
<polygon fill="white" stroke="black" points="709.05,-112.5 709.05,-131.5 805.05,-131.5 805.05,-112.5 709.05,-112.5"/>
<text text-anchor="middle" x="757.05" y="-119.5" font-family="Helvetica,sans-Serif" font-size="10.00">utils/fmtSTL.hpp</text>
</a>
</g>
</g>
<!-- Node11&#45;&gt;Node18 -->
<g id="edge25" class="edge">
<title>Node11&#45;&gt;Node18</title>
<path fill="none" stroke="midnightblue" d="M808.46,-173.98C799.19,-164.78 784.24,-149.96 772.84,-138.66"/>
<polygon fill="midnightblue" stroke="midnightblue" points="775.2,-136.07 765.63,-131.51 770.27,-141.04 775.2,-136.07"/>
</g>
<!-- Node15&#45;&gt;Node2 -->
<g id="edge19" class="edge">
<title>Node15&#45;&gt;Node2</title>
<path fill="none" stroke="midnightblue" d="M589.36,-112.37C573.05,-94.05 534.73,-51.05 513.63,-27.36"/>
<polygon fill="midnightblue" stroke="midnightblue" points="515.97,-24.73 506.71,-19.59 510.75,-29.39 515.97,-24.73"/>
</g>
<!-- Node15&#45;&gt;Node3 -->
<g id="edge20" class="edge">
<title>Node15&#45;&gt;Node3</title>
<path fill="none" stroke="midnightblue" d="M644.55,-112.44C690.48,-104.07 762.32,-90.73 833.77,-76.22"/>
<polygon fill="midnightblue" stroke="midnightblue" points="834.74,-79.59 843.84,-74.16 833.35,-72.73 834.74,-79.59"/>
</g>
<!-- Node15&#45;&gt;Node13 -->
<g id="edge21" class="edge">
<title>Node15&#45;&gt;Node13</title>
<path fill="none" stroke="midnightblue" d="M610.39,-112.32C623.22,-103.98 642.84,-91.21 657.99,-81.35"/>
<polygon fill="midnightblue" stroke="midnightblue" points="660.28,-84.04 666.75,-75.65 656.46,-78.17 660.28,-84.04"/>
</g>
<!-- Node16 -->
<g id="node16" class="node">
<title>Node16</title>
<g id="a_node16"><a xlink:title=" ">
<polygon fill="white" stroke="#bfbfbf" points="566.05,-56.5 566.05,-75.5 622.05,-75.5 622.05,-56.5 566.05,-56.5"/>
<text text-anchor="middle" x="594.05" y="-63.5" font-family="Helvetica,sans-Serif" font-size="10.00">sstream</text>
</a>
</g>
</g>
<!-- Node15&#45;&gt;Node16 -->
<g id="edge22" class="edge">
<title>Node15&#45;&gt;Node16</title>
<path fill="none" stroke="midnightblue" d="M596.56,-112.08C596.17,-105.01 595.6,-94.86 595.11,-85.99"/>
<polygon fill="midnightblue" stroke="midnightblue" points="598.59,-85.54 594.54,-75.75 591.6,-85.93 598.59,-85.54"/>
</g>
<!-- Node15&#45;&gt;Node17 -->
<g id="edge23" class="edge">
<title>Node15&#45;&gt;Node17</title>
<path fill="none" stroke="midnightblue" d="M575.35,-112.44C552.7,-103.52 516.98,-89.44 491.3,-79.32"/>
<polygon fill="midnightblue" stroke="midnightblue" points="492.25,-75.93 481.66,-75.52 489.68,-82.44 492.25,-75.93"/>
</g>
<!-- Node17&#45;&gt;Node2 -->
<g id="edge24" class="edge">
<title>Node17&#45;&gt;Node2</title>
<path fill="none" stroke="midnightblue" d="M466.49,-56.08C472,-48.46 480.09,-37.26 486.82,-27.94"/>
<polygon fill="midnightblue" stroke="midnightblue" points="489.72,-29.91 492.73,-19.75 484.04,-25.81 489.72,-29.91"/>
</g>
<!-- Node18&#45;&gt;Node5 -->
<g id="edge26" class="edge">
<title>Node18&#45;&gt;Node5</title>
<path fill="none" stroke="midnightblue" d="M805.22,-113.16C808.21,-112.75 811.17,-112.36 814.05,-112 989.72,-90.22 1201.5,-74.59 1280.41,-69.13"/>
<polygon fill="midnightblue" stroke="midnightblue" points="1280.91,-72.6 1290.64,-68.42 1280.43,-65.62 1280.91,-72.6"/>
</g>
<!-- Node18&#45;&gt;Node13 -->
<g id="edge28" class="edge">
<title>Node18&#45;&gt;Node13</title>
<path fill="none" stroke="midnightblue" d="M744.68,-112.32C732.9,-104.06 714.92,-91.45 700.92,-81.63"/>
<polygon fill="midnightblue" stroke="midnightblue" points="702.59,-78.53 692.39,-75.65 698.57,-84.26 702.59,-78.53"/>
</g>
<!-- Node19 -->
<g id="node19" class="node">
<title>Node19</title>
<g id="a_node19"><a xlink:title=" ">
<polygon fill="white" stroke="#bfbfbf" points="926.55,-56.5 926.55,-75.5 973.55,-75.5 973.55,-56.5 926.55,-56.5"/>
<text text-anchor="middle" x="950.05" y="-63.5" font-family="Helvetica,sans-Serif" font-size="10.00">deque</text>
</a>
</g>
</g>
<!-- Node18&#45;&gt;Node19 -->
<g id="edge27" class="edge">
<title>Node18&#45;&gt;Node19</title>
<path fill="none" stroke="midnightblue" d="M787.64,-112.44C822.81,-102.6 880.35,-86.5 916.67,-76.34"/>
<polygon fill="midnightblue" stroke="midnightblue" points="917.62,-79.71 926.31,-73.64 915.73,-72.97 917.62,-79.71"/>
</g>
<!-- Node20 -->
<g id="node20" class="node">
<title>Node20</title>
<g id="a_node20"><a xlink:title=" ">
<polygon fill="white" stroke="#bfbfbf" points="738.05,-56.5 738.05,-75.5 776.05,-75.5 776.05,-56.5 738.05,-56.5"/>
<text text-anchor="middle" x="757.05" y="-63.5" font-family="Helvetica,sans-Serif" font-size="10.00">map</text>
</a>
</g>
</g>
<!-- Node18&#45;&gt;Node20 -->
<g id="edge29" class="edge">
<title>Node18&#45;&gt;Node20</title>
<path fill="none" stroke="midnightblue" d="M757.05,-112.08C757.05,-105.01 757.05,-94.86 757.05,-85.99"/>
<polygon fill="midnightblue" stroke="midnightblue" points="760.55,-85.75 757.05,-75.75 753.55,-85.75 760.55,-85.75"/>
</g>
<!-- Node21 -->
<g id="node21" class="node">
<title>Node21</title>
<g id="a_node21"><a xlink:title=" ">
<polygon fill="white" stroke="#bfbfbf" points="794.05,-56.5 794.05,-75.5 826.05,-75.5 826.05,-56.5 794.05,-56.5"/>
<text text-anchor="middle" x="810.05" y="-63.5" font-family="Helvetica,sans-Serif" font-size="10.00">set</text>
</a>
</g>
</g>
<!-- Node18&#45;&gt;Node21 -->
<g id="edge30" class="edge">
<title>Node18&#45;&gt;Node21</title>
<path fill="none" stroke="midnightblue" d="M765.81,-112.08C773.52,-104.22 784.96,-92.57 794.27,-83.08"/>
<polygon fill="midnightblue" stroke="midnightblue" points="796.96,-85.34 801.46,-75.75 791.96,-80.44 796.96,-85.34"/>
</g>
<!-- Node22 -->
<g id="node22" class="node">
<title>Node22</title>
<g id="a_node22"><a xlink:title=" ">
<polygon fill="white" stroke="#bfbfbf" points="1048.55,-56.5 1048.55,-75.5 1095.55,-75.5 1095.55,-56.5 1048.55,-56.5"/>
<text text-anchor="middle" x="1072.05" y="-63.5" font-family="Helvetica,sans-Serif" font-size="10.00">vector</text>
</a>
</g>
</g>
<!-- Node18&#45;&gt;Node22 -->
<g id="edge31" class="edge">
<title>Node18&#45;&gt;Node22</title>
<path fill="none" stroke="midnightblue" d="M805.24,-112.74C869.68,-101.69 982.29,-82.39 1038.36,-72.78"/>
<polygon fill="midnightblue" stroke="midnightblue" points="1039.2,-76.18 1048.46,-71.04 1038.02,-69.28 1039.2,-76.18"/>
</g>
<!-- Node28&#45;&gt;Node11 -->
<g id="edge43" class="edge">
<title>Node28&#45;&gt;Node11</title>
<path fill="none" stroke="midnightblue" d="M595.18,-235.45C640.13,-227.17 708.98,-213.73 768.05,-199 771.91,-198.04 775.93,-196.97 779.92,-195.86"/>
<polygon fill="midnightblue" stroke="midnightblue" points="781.05,-199.17 789.7,-193.05 779.12,-192.44 781.05,-199.17"/>
</g>
<!-- Node28&#45;&gt;Node25 -->
<g id="edge38" class="edge">
<title>Node28&#45;&gt;Node25</title>
<path fill="none" stroke="midnightblue" d="M472.45,-235.46C408.91,-227.77 315,-215.42 224.08,-199.09"/>
<polygon fill="midnightblue" stroke="midnightblue" points="224.62,-195.64 214.15,-197.29 223.37,-202.52 224.62,-195.64"/>
</g>
<!-- Node28&#45;&gt;Node26 -->
<g id="edge40" class="edge">
<title>Node28&#45;&gt;Node26</title>
<path fill="none" stroke="midnightblue" d="M509.8,-235.48C468.82,-226.1 402.17,-210.84 352.44,-199.46"/>
<polygon fill="midnightblue" stroke="midnightblue" points="352.94,-195.99 342.41,-197.17 351.38,-202.81 352.94,-195.99"/>
</g>
<!-- Node29 -->
<g id="node29" class="node">
<title>Node29</title>
<g id="a_node29"><a xlink:title=" ">
<polygon fill="white" stroke="#bfbfbf" points="360.55,-168.5 360.55,-198.5 471.55,-198.5 471.55,-168.5 360.55,-168.5"/>
<text text-anchor="start" x="368.55" y="-186.5" font-family="Helvetica,sans-Serif" font-size="10.00">boost/preprocessor</text>
<text text-anchor="middle" x="416.05" y="-175.5" font-family="Helvetica,sans-Serif" font-size="10.00">/seq/for_each_i.hpp</text>
</a>
</g>
</g>
<!-- Node28&#45;&gt;Node29 -->
<g id="edge39" class="edge">
<title>Node28&#45;&gt;Node29</title>
<path fill="none" stroke="midnightblue" d="M528.28,-235.48C509.55,-226.96 480.17,-213.62 456.16,-202.72"/>
<polygon fill="midnightblue" stroke="midnightblue" points="457.48,-199.47 446.93,-198.52 454.59,-205.85 457.48,-199.47"/>
</g>
<!-- Node30 -->
<g id="node30" class="node">
<title>Node30</title>
<g id="a_node30"><a xlink:title=" ">
<polygon fill="white" stroke="#bfbfbf" points="489.55,-168.5 489.55,-198.5 604.55,-198.5 604.55,-168.5 489.55,-168.5"/>
<text text-anchor="start" x="497.55" y="-186.5" font-family="Helvetica,sans-Serif" font-size="10.00">boost/preprocessor</text>
<text text-anchor="middle" x="547.05" y="-175.5" font-family="Helvetica,sans-Serif" font-size="10.00">/variadic/to_seq.hpp</text>
</a>
</g>
</g>
<!-- Node28&#45;&gt;Node30 -->
<g id="edge41" class="edge">
<title>Node28&#45;&gt;Node30</title>
<path fill="none" stroke="midnightblue" d="M547.05,-235.48C547.05,-228.47 547.05,-218.19 547.05,-208.7"/>
<polygon fill="midnightblue" stroke="midnightblue" points="550.55,-208.52 547.05,-198.52 543.55,-208.52 550.55,-208.52"/>
</g>
<!-- Node31 -->
<g id="node31" class="node">
<title>Node31</title>
<g id="a_node31"><a xlink:title=" ">
<polygon fill="white" stroke="#bfbfbf" points="623.05,-174 623.05,-193 759.05,-193 759.05,-174 623.05,-174"/>
<text text-anchor="middle" x="691.05" y="-181" font-family="Helvetica,sans-Serif" font-size="10.00">boost/vmd/is_empty.hpp</text>
</a>
</g>
</g>
<!-- Node28&#45;&gt;Node31 -->
<g id="edge42" class="edge">
<title>Node28&#45;&gt;Node31</title>
<path fill="none" stroke="midnightblue" d="M567.69,-235.48C592.17,-225.36 633.2,-208.4 661.16,-196.85"/>
<polygon fill="midnightblue" stroke="midnightblue" points="662.55,-200.06 670.46,-193.01 659.88,-193.59 662.55,-200.06"/>
</g>
<!-- Node32&#45;&gt;Node12 -->
<g id="edge48" class="edge">
<title>Node32&#45;&gt;Node12</title>
<path fill="none" stroke="midnightblue" d="M1016.7,-408.84C1020.2,-389.67 1028.05,-342.16 1028.05,-302 1028.05,-302 1028.05,-302 1028.05,-244 1028.05,-207.69 1033.91,-165.59 1037.76,-141.85"/>
<polygon fill="midnightblue" stroke="midnightblue" points="1041.25,-142.21 1039.46,-131.77 1034.35,-141.05 1041.25,-142.21"/>
</g>
<!-- Node32&#45;&gt;Node22 -->
<g id="edge49" class="edge">
<title>Node32&#45;&gt;Node22</title>
<path fill="none" stroke="midnightblue" d="M1019.91,-408.85C1025.22,-399.02 1033.55,-382.34 1038.05,-367 1067.78,-265.74 1064.48,-237.26 1072.05,-132 1073.17,-116.5 1073.08,-98.88 1072.77,-85.89"/>
<polygon fill="midnightblue" stroke="midnightblue" points="1076.27,-85.73 1072.46,-75.85 1069.27,-85.95 1076.27,-85.73"/>
</g>
<!-- Node33 -->
<g id="node33" class="node">
<title>Node33</title>
<g id="a_node33"><a xlink:title=" ">
<polygon fill="white" stroke="#bfbfbf" points="1094.05,-347.5 1094.05,-366.5 1142.05,-366.5 1142.05,-347.5 1094.05,-347.5"/>
<text text-anchor="middle" x="1118.05" y="-354.5" font-family="Helvetica,sans-Serif" font-size="10.00">iosfwd</text>
</a>
</g>
</g>
<!-- Node32&#45;&gt;Node33 -->
<g id="edge45" class="edge">
<title>Node32&#45;&gt;Node33</title>
<path fill="none" stroke="midnightblue" d="M1029.81,-408.98C1046.71,-399.21 1074.64,-383.08 1094.54,-371.58"/>
<polygon fill="midnightblue" stroke="midnightblue" points="1096.42,-374.54 1103.32,-366.51 1092.91,-368.48 1096.42,-374.54"/>
</g>
<!-- Node34 -->
<g id="node34" class="node">
<title>Node34</title>
<g id="a_node34"><a xlink:title=" ">
<polygon fill="white" stroke="#bfbfbf" points="942.05,-291.5 942.05,-310.5 1000.05,-310.5 1000.05,-291.5 942.05,-291.5"/>
<text text-anchor="middle" x="971.05" y="-298.5" font-family="Helvetica,sans-Serif" font-size="10.00">memory</text>
</a>
</g>
</g>
<!-- Node32&#45;&gt;Node34 -->
<g id="edge46" class="edge">
<title>Node32&#45;&gt;Node34</title>
<path fill="none" stroke="midnightblue" d="M976.27,-408.99C938.56,-399.84 885.24,-384.26 873.05,-367 854.25,-340.36 897.07,-321.66 931.92,-311.36"/>
<polygon fill="midnightblue" stroke="midnightblue" points="933.26,-314.62 941.95,-308.56 931.38,-307.88 933.26,-314.62"/>
</g>
<!-- Node35 -->
<g id="node35" class="node">
<title>Node35</title>
<g id="a_node35"><a xlink:title=" ">
<polygon fill="white" stroke="#bfbfbf" points="882.05,-347.5 882.05,-366.5 938.05,-366.5 938.05,-347.5 882.05,-347.5"/>
<text text-anchor="middle" x="910.05" y="-354.5" font-family="Helvetica,sans-Serif" font-size="10.00">optional</text>
</a>
</g>
</g>
<!-- Node32&#45;&gt;Node35 -->
<g id="edge47" class="edge">
<title>Node32&#45;&gt;Node35</title>
<path fill="none" stroke="midnightblue" d="M1000.01,-408.98C982.78,-399.21 954.31,-383.08 934.02,-371.58"/>
<polygon fill="midnightblue" stroke="midnightblue" points="935.5,-368.39 925.07,-366.51 932.04,-374.48 935.5,-368.39"/>
</g>
<!-- Node36 -->
<g id="node36" class="node">
<title>Node36</title>
<g id="a_node36"><a xlink:href="Logger_8hpp.html" target="_top" xlink:title=" ">
<polygon fill="white" stroke="black" points="716.55,-347.5 716.55,-366.5 825.55,-366.5 825.55,-347.5 716.55,-347.5"/>
<text text-anchor="middle" x="771.05" y="-354.5" font-family="Helvetica,sans-Serif" font-size="10.00">logging/Logger.hpp</text>
</a>
</g>
</g>
<!-- Node32&#45;&gt;Node36 -->
<g id="edge50" class="edge">
<title>Node32&#45;&gt;Node36</title>
<path fill="none" stroke="midnightblue" d="M980.09,-408.98C936.88,-398.44 863.27,-380.49 815.92,-368.94"/>
<polygon fill="midnightblue" stroke="midnightblue" points="816.49,-365.48 805.95,-366.51 814.83,-372.28 816.49,-365.48"/>
</g>
<!-- Node32&#45;&gt;Node39 -->
<g id="edge58" class="edge">
<title>Node32&#45;&gt;Node39</title>
<path fill="none" stroke="midnightblue" d="M1059.61,-408.98C1115.5,-398.28 1211.28,-379.96 1271.5,-368.44"/>
<polygon fill="midnightblue" stroke="midnightblue" points="1272.41,-371.83 1281.58,-366.51 1271.1,-364.95 1272.41,-371.83"/>
</g>
<!-- Node40 -->
<g id="node40" class="node">
<title>Node40</title>
<g id="a_node40"><a xlink:title=" ">
<polygon fill="white" stroke="#bfbfbf" points="956.05,-347.5 956.05,-366.5 1000.05,-366.5 1000.05,-347.5 956.05,-347.5"/>
<text text-anchor="middle" x="978.05" y="-354.5" font-family="Helvetica,sans-Serif" font-size="10.00">mpi.h</text>
</a>
</g>
</g>
<!-- Node32&#45;&gt;Node40 -->
<g id="edge59" class="edge">
<title>Node32&#45;&gt;Node40</title>
<path fill="none" stroke="midnightblue" d="M1009.75,-408.98C1004.31,-400.23 995.7,-386.37 988.82,-375.31"/>
<polygon fill="midnightblue" stroke="midnightblue" points="991.6,-373.15 983.35,-366.51 985.65,-376.85 991.6,-373.15"/>
</g>
<!-- Node36&#45;&gt;Node10 -->
<g id="edge52" class="edge">
<title>Node36&#45;&gt;Node10</title>
<path fill="none" stroke="midnightblue" d="M787.57,-347.33C815.1,-332.11 870.56,-298.08 903.05,-255 930.45,-218.69 949.5,-168.1 958.38,-141.32"/>
<polygon fill="midnightblue" stroke="midnightblue" points="961.74,-142.3 961.47,-131.71 955.08,-140.16 961.74,-142.3"/>
</g>
<!-- Node36&#45;&gt;Node34 -->
<g id="edge51" class="edge">
<title>Node36&#45;&gt;Node34</title>
<path fill="none" stroke="midnightblue" d="M802.74,-347.44C837.68,-338.01 893.92,-322.83 931.67,-312.63"/>
<polygon fill="midnightblue" stroke="midnightblue" points="933.05,-315.89 941.79,-309.9 931.22,-309.13 933.05,-315.89"/>
</g>
<!-- Node37 -->
<g id="node37" class="node">
<title>Node37</title>
<g id="a_node37"><a xlink:href="LogMacros_8hpp.html" target="_top" xlink:title=" ">
<polygon fill="white" stroke="black" points="721.05,-291.5 721.05,-310.5 811.05,-310.5 811.05,-291.5 721.05,-291.5"/>
<text text-anchor="middle" x="766.05" y="-298.5" font-family="Helvetica,sans-Serif" font-size="10.00">LogMacros.hpp</text>
</a>
</g>
</g>
<!-- Node36&#45;&gt;Node37 -->
<g id="edge53" class="edge">
<title>Node36&#45;&gt;Node37</title>
<path fill="none" stroke="midnightblue" d="M770.23,-347.08C769.57,-340.01 768.63,-329.86 767.81,-320.99"/>
<polygon fill="midnightblue" stroke="midnightblue" points="771.27,-320.39 766.86,-310.75 764.3,-321.03 771.27,-320.39"/>
</g>
<!-- Node37&#45;&gt;Node11 -->
<g id="edge54" class="edge">
<title>Node37&#45;&gt;Node11</title>
<path fill="none" stroke="midnightblue" d="M766.77,-291.23C768.08,-278.39 771.54,-253.95 780.05,-235 785.65,-222.55 794.65,-210.17 802.38,-200.78"/>
<polygon fill="midnightblue" stroke="midnightblue" points="805.13,-202.95 808.98,-193.08 799.82,-198.39 805.13,-202.95"/>
</g>
<!-- Node37&#45;&gt;Node28 -->
<g id="edge55" class="edge">
<title>Node37&#45;&gt;Node28</title>
<path fill="none" stroke="midnightblue" d="M731.35,-291.44C693.47,-282.1 632.7,-267.12 591.39,-256.93"/>
<polygon fill="midnightblue" stroke="midnightblue" points="592.14,-253.51 581.59,-254.52 590.46,-260.31 592.14,-253.51"/>
</g>
<!-- Node38 -->
<g id="node38" class="node">
<title>Node38</title>
<g id="a_node38"><a xlink:href="Tracer_8hpp.html" target="_top" xlink:title=" ">
<polygon fill="white" stroke="black" points="788.55,-235.5 788.55,-254.5 893.55,-254.5 893.55,-235.5 788.55,-235.5"/>
<text text-anchor="middle" x="841.05" y="-242.5" font-family="Helvetica,sans-Serif" font-size="10.00">logging/Tracer.hpp</text>
</a>
</g>
</g>
<!-- Node37&#45;&gt;Node38 -->
<g id="edge56" class="edge">
<title>Node37&#45;&gt;Node38</title>
<path fill="none" stroke="midnightblue" d="M778.1,-291.32C789.52,-283.11 806.88,-270.6 820.49,-260.81"/>
<polygon fill="midnightblue" stroke="midnightblue" points="822.71,-263.52 828.78,-254.83 818.62,-257.84 822.71,-263.52"/>
</g>
<!-- Node38&#45;&gt;Node36 -->
<g id="edge57" class="edge">
<title>Node38&#45;&gt;Node36</title>
<path fill="none" stroke="midnightblue" d="M839.72,-254.6C837.4,-267.64 831.7,-292.83 820.05,-311 812.63,-322.58 801.5,-333.13 791.73,-341.09"/>
<polygon fill="midnightblue" stroke="midnightblue" points="789.37,-338.5 783.62,-347.39 793.66,-344.02 789.37,-338.5"/>
</g>
<!-- Node41&#45;&gt;Node12 -->
<g id="edge61" class="edge">
<title>Node41&#45;&gt;Node12</title>
<path fill="none" stroke="midnightblue" d="M1145.75,-291.46C1128.73,-264.08 1075.27,-178.05 1052.02,-140.65"/>
<polygon fill="midnightblue" stroke="midnightblue" points="1054.82,-138.51 1046.57,-131.87 1048.87,-142.21 1054.82,-138.51"/>
</g>
<!-- Node43&#45;&gt;Node2 -->
<g id="edge64" class="edge">
<title>Node43&#45;&gt;Node2</title>
<path fill="none" stroke="midnightblue" d="M1135.97,-582.17C1133,-573.2 1128.73,-558.83 1127.05,-546 1120.42,-495.37 1138.5,-427.5 1149.05,-403 1180.61,-329.73 1236.05,-325.77 1236.05,-246 1236.05,-246 1236.05,-246 1236.05,-121 1236.05,-56 1167.74,-73.17 1105.05,-56 999.26,-27.02 665.51,-15.43 543.92,-12.1"/>
<polygon fill="midnightblue" stroke="midnightblue" points="543.93,-8.6 533.84,-11.83 543.75,-15.6 543.93,-8.6"/>
</g>
<!-- Node43&#45;&gt;Node5 -->
<g id="edge65" class="edge">
<title>Node43&#45;&gt;Node5</title>
<path fill="none" stroke="midnightblue" d="M1154.66,-582.39C1167.67,-574.48 1185.84,-561.64 1197.05,-546 1251.62,-469.94 1231.28,-433.91 1266.05,-347 1284.38,-301.2 1312.05,-295.33 1312.05,-246 1312.05,-246 1312.05,-246 1312.05,-182.5 1312.05,-148.36 1312.05,-108.55 1312.05,-85.71"/>
<polygon fill="midnightblue" stroke="midnightblue" points="1315.55,-85.69 1312.05,-75.69 1308.55,-85.69 1315.55,-85.69"/>
</g>
<!-- Node43&#45;&gt;Node6 -->
<g id="edge66" class="edge">
<title>Node43&#45;&gt;Node6</title>
<path fill="none" stroke="midnightblue" d="M1136.74,-582.45C1133.71,-569.9 1129.32,-545.81 1134.05,-526 1142.17,-492.06 1162.96,-456.7 1176.25,-436.47"/>
<polygon fill="midnightblue" stroke="midnightblue" points="1179.23,-438.31 1181.92,-428.06 1173.43,-434.4 1179.23,-438.31"/>
</g>
<!-- Node43&#45;&gt;Node7 -->
<g id="edge68" class="edge">
<title>Node43&#45;&gt;Node7</title>
<path fill="none" stroke="midnightblue" d="M1103.09,-582.44C1063.73,-573.08 1000.57,-558.06 957.74,-547.87"/>
<polygon fill="midnightblue" stroke="midnightblue" points="958.39,-544.43 947.85,-545.52 956.77,-551.24 958.39,-544.43"/>
</g>
<!-- Node43&#45;&gt;Node8 -->
<g id="edge70" class="edge">
<title>Node43&#45;&gt;Node8</title>
<path fill="none" stroke="midnightblue" d="M1124.44,-582.35C1101.5,-569.02 1055.38,-543.19 1014.05,-526 981.37,-512.4 943.03,-500.41 914.59,-492.23"/>
<polygon fill="midnightblue" stroke="midnightblue" points="915.54,-488.86 904.97,-489.5 913.63,-495.6 915.54,-488.86"/>
</g>
<!-- Node43&#45;&gt;Node39 -->
<g id="edge69" class="edge">
<title>Node43&#45;&gt;Node39</title>
<path fill="none" stroke="midnightblue" d="M1166.84,-582.38C1186.41,-575.18 1212.2,-563.28 1230.05,-546 1281.36,-496.34 1310.18,-413.37 1321.02,-376.56"/>
<polygon fill="midnightblue" stroke="midnightblue" points="1324.45,-377.28 1323.81,-366.71 1317.72,-375.37 1324.45,-377.28"/>
</g>
<!-- Node44 -->
<g id="node44" class="node">
<title>Node44</title>
<g id="a_node44"><a xlink:title=" ">
<polygon fill="white" stroke="#bfbfbf" points="1142.55,-526.5 1142.55,-545.5 1187.55,-545.5 1187.55,-526.5 1142.55,-526.5"/>
<text text-anchor="middle" x="1165.05" y="-533.5" font-family="Helvetica,sans-Serif" font-size="10.00">utility</text>
</a>
</g>
</g>
<!-- Node43&#45;&gt;Node44 -->
<g id="edge67" class="edge">
<title>Node43&#45;&gt;Node44</title>
<path fill="none" stroke="midnightblue" d="M1143.35,-582.08C1146.91,-574.69 1152.08,-563.95 1156.48,-554.81"/>
<polygon fill="midnightblue" stroke="midnightblue" points="1159.66,-556.28 1160.84,-545.75 1153.35,-553.24 1159.66,-556.28"/>
</g>
</g>
</svg>
