<?xml version="1.0" encoding="UTF-8" standalone="no"?>
<!DOCTYPE svg PUBLIC "-//W3C//DTD SVG 1.1//EN"
 "http://www.w3.org/Graphics/SVG/1.1/DTD/svg11.dtd">
<!-- Generated by graphviz version 2.43.0 (0)
 -->
<!-- Title: src/utils/EigenHelperFunctions.cpp Pages: 1 -->
<svg width="1584pt" height="610pt"
 viewBox="0.00 0.00 1583.50 610.00" xmlns="http://www.w3.org/2000/svg" xmlns:xlink="http://www.w3.org/1999/xlink">
<g id="graph0" class="graph" transform="scale(1 1) rotate(0) translate(4 606)">
<title>src/utils/EigenHelperFunctions.cpp</title>
<polygon fill="white" stroke="transparent" points="-4,4 -4,-606 1579.5,-606 1579.5,4 -4,4"/>
<!-- Node1 -->
<g id="node1" class="node">
<title>Node1</title>
<g id="a_node1"><a xlink:title=" ">
<polygon fill="#bfbfbf" stroke="black" points="403.5,-582.5 403.5,-601.5 587.5,-601.5 587.5,-582.5 403.5,-582.5"/>
<text text-anchor="middle" x="495.5" y="-589.5" font-family="Helvetica,sans-Serif" font-size="10.00">src/utils/EigenHelperFunctions.cpp</text>
</a>
</g>
</g>
<!-- Node2 -->
<g id="node2" class="node">
<title>Node2</title>
<g id="a_node2"><a xlink:href="EigenHelperFunctions_8hpp.html" target="_top" xlink:title=" ">
<polygon fill="white" stroke="black" points="424,-526.5 424,-545.5 567,-545.5 567,-526.5 424,-526.5"/>
<text text-anchor="middle" x="495.5" y="-533.5" font-family="Helvetica,sans-Serif" font-size="10.00">EigenHelperFunctions.hpp</text>
</a>
</g>
</g>
<!-- Node1&#45;&gt;Node2 -->
<g id="edge1" class="edge">
<title>Node1&#45;&gt;Node2</title>
<path fill="none" stroke="midnightblue" d="M495.5,-582.08C495.5,-575.01 495.5,-564.86 495.5,-555.99"/>
<polygon fill="midnightblue" stroke="midnightblue" points="499,-555.75 495.5,-545.75 492,-555.75 499,-555.75"/>
</g>
<!-- Node3 -->
<g id="node3" class="node">
<title>Node3</title>
<g id="a_node3"><a xlink:title=" ">
<polygon fill="white" stroke="#bfbfbf" points="1264,-0.5 1264,-19.5 1333,-19.5 1333,-0.5 1264,-0.5"/>
<text text-anchor="middle" x="1298.5" y="-7.5" font-family="Helvetica,sans-Serif" font-size="10.00">Eigen/Core</text>
</a>
</g>
</g>
<!-- Node2&#45;&gt;Node3 -->
<g id="edge2" class="edge">
<title>Node2&#45;&gt;Node3</title>
<path fill="none" stroke="midnightblue" d="M567.2,-534.88C808.41,-533.52 1575.5,-521.21 1575.5,-419.5 1575.5,-419.5 1575.5,-419.5 1575.5,-121 1575.5,-71.6 1421.42,-34.7 1343.09,-19.13"/>
<polygon fill="midnightblue" stroke="midnightblue" points="1343.51,-15.65 1333.02,-17.17 1342.17,-22.52 1343.51,-15.65"/>
</g>
<!-- Node4 -->
<g id="node4" class="node">
<title>Node4</title>
<g id="a_node4"><a xlink:title=" ">
<polygon fill="white" stroke="#bfbfbf" points="0,-112.5 0,-131.5 53,-131.5 53,-112.5 0,-112.5"/>
<text text-anchor="middle" x="26.5" y="-119.5" font-family="Helvetica,sans-Serif" font-size="10.00">iterator</text>
</a>
</g>
</g>
<!-- Node2&#45;&gt;Node4 -->
<g id="edge3" class="edge">
<title>Node2&#45;&gt;Node4</title>
<path fill="none" stroke="midnightblue" d="M423.7,-527.78C314.32,-514.77 118.5,-482.65 118.5,-419.5 118.5,-419.5 118.5,-419.5 118.5,-244 118.5,-197.57 75.04,-157.8 47.86,-137.47"/>
<polygon fill="midnightblue" stroke="midnightblue" points="49.84,-134.58 39.68,-131.57 45.74,-140.26 49.84,-134.58"/>
</g>
<!-- Node5 -->
<g id="node5" class="node">
<title>Node5</title>
<g id="a_node5"><a xlink:title=" ">
<polygon fill="white" stroke="#bfbfbf" points="510,-56.5 510,-75.5 557,-75.5 557,-56.5 510,-56.5"/>
<text text-anchor="middle" x="533.5" y="-63.5" font-family="Helvetica,sans-Serif" font-size="10.00">vector</text>
</a>
</g>
</g>
<!-- Node2&#45;&gt;Node5 -->
<g id="edge4" class="edge">
<title>Node2&#45;&gt;Node5</title>
<path fill="none" stroke="midnightblue" d="M495.5,-526.31C495.5,-507.06 495.5,-459.4 495.5,-419.5 495.5,-419.5 495.5,-419.5 495.5,-182.5 495.5,-146.25 512.59,-106.67 523.85,-84.53"/>
<polygon fill="midnightblue" stroke="midnightblue" points="526.96,-86.14 528.53,-75.66 520.77,-82.87 526.96,-86.14"/>
</g>
<!-- Node6 -->
<g id="node6" class="node">
<title>Node6</title>
<g id="a_node6"><a xlink:href="algorithm_8hpp.html" target="_top" xlink:title=" ">
<polygon fill="white" stroke="black" points="238,-174 238,-193 347,-193 347,-174 238,-174"/>
<text text-anchor="middle" x="292.5" y="-181" font-family="Helvetica,sans-Serif" font-size="10.00">utils/algorithm.hpp</text>
</a>
</g>
</g>
<!-- Node2&#45;&gt;Node6 -->
<g id="edge5" class="edge">
<title>Node2&#45;&gt;Node6</title>
<path fill="none" stroke="midnightblue" d="M474.6,-526.39C440.22,-510.67 375.5,-473.86 375.5,-419.5 375.5,-419.5 375.5,-419.5 375.5,-300 375.5,-257.15 337.36,-219.32 312.79,-199.39"/>
<polygon fill="midnightblue" stroke="midnightblue" points="314.78,-196.51 304.75,-193.11 310.47,-202.03 314.78,-196.51"/>
</g>
<!-- Node14 -->
<g id="node14" class="node">
<title>Node14</title>
<g id="a_node14"><a xlink:href="assertion_8hpp.html" target="_top" xlink:title=" ">
<polygon fill="white" stroke="black" points="1061,-470.5 1061,-489.5 1168,-489.5 1168,-470.5 1061,-470.5"/>
<text text-anchor="middle" x="1114.5" y="-477.5" font-family="Helvetica,sans-Serif" font-size="10.00">utils/assertion.hpp</text>
</a>
</g>
</g>
<!-- Node2&#45;&gt;Node14 -->
<g id="edge14" class="edge">
<title>Node2&#45;&gt;Node14</title>
<path fill="none" stroke="midnightblue" d="M567.11,-528.75C688.83,-518.13 934.14,-496.73 1050.48,-486.58"/>
<polygon fill="midnightblue" stroke="midnightblue" points="1051,-490.05 1060.66,-485.7 1050.39,-483.08 1051,-490.05"/>
</g>
<!-- Node6&#45;&gt;Node4 -->
<g id="edge10" class="edge">
<title>Node6&#45;&gt;Node4</title>
<path fill="none" stroke="midnightblue" d="M251.09,-173.92C206.86,-164.65 134.47,-149.19 63.26,-132.36"/>
<polygon fill="midnightblue" stroke="midnightblue" points="63.77,-128.88 53.23,-129.98 62.15,-135.69 63.77,-128.88"/>
</g>
<!-- Node7 -->
<g id="node7" class="node">
<title>Node7</title>
<g id="a_node7"><a xlink:title=" ">
<polygon fill="white" stroke="#bfbfbf" points="1014.5,-56.5 1014.5,-75.5 1078.5,-75.5 1078.5,-56.5 1014.5,-56.5"/>
<text text-anchor="middle" x="1046.5" y="-63.5" font-family="Helvetica,sans-Serif" font-size="10.00">algorithm</text>
</a>
</g>
</g>
<!-- Node6&#45;&gt;Node7 -->
<g id="edge6" class="edge">
<title>Node6&#45;&gt;Node7</title>
<path fill="none" stroke="midnightblue" d="M347.33,-175.89C465.64,-161.29 753.8,-123.9 1004.29,-76.15"/>
<polygon fill="midnightblue" stroke="midnightblue" points="1005.14,-79.55 1014.3,-74.23 1003.82,-72.68 1005.14,-79.55"/>
</g>
<!-- Node8 -->
<g id="node8" class="node">
<title>Node8</title>
<g id="a_node8"><a xlink:title=" ">
<polygon fill="white" stroke="#bfbfbf" points="258.5,-56.5 258.5,-75.5 300.5,-75.5 300.5,-56.5 258.5,-56.5"/>
<text text-anchor="middle" x="279.5" y="-63.5" font-family="Helvetica,sans-Serif" font-size="10.00">array</text>
</a>
</g>
</g>
<!-- Node6&#45;&gt;Node8 -->
<g id="edge7" class="edge">
<title>Node6&#45;&gt;Node8</title>
<path fill="none" stroke="midnightblue" d="M281.83,-173.76C271.56,-164.6 256.7,-149.16 250.5,-132 244.42,-115.19 254.47,-96.63 264.36,-83.66"/>
<polygon fill="midnightblue" stroke="midnightblue" points="267.3,-85.6 270.98,-75.66 261.91,-81.13 267.3,-85.6"/>
</g>
<!-- Node9 -->
<g id="node9" class="node">
<title>Node9</title>
<g id="a_node9"><a xlink:title=" ">
<polygon fill="white" stroke="#bfbfbf" points="381.5,-112.5 381.5,-131.5 467.5,-131.5 467.5,-112.5 381.5,-112.5"/>
<text text-anchor="middle" x="424.5" y="-119.5" font-family="Helvetica,sans-Serif" font-size="10.00">fmt/ostream.h</text>
</a>
</g>
</g>
<!-- Node6&#45;&gt;Node9 -->
<g id="edge8" class="edge">
<title>Node6&#45;&gt;Node9</title>
<path fill="none" stroke="midnightblue" d="M311.41,-173.98C333.66,-163.95 370.81,-147.2 396.43,-135.65"/>
<polygon fill="midnightblue" stroke="midnightblue" points="397.94,-138.81 405.62,-131.51 395.07,-132.43 397.94,-138.81"/>
</g>
<!-- Node10 -->
<g id="node10" class="node">
<title>Node10</title>
<g id="a_node10"><a xlink:title=" ">
<polygon fill="white" stroke="#bfbfbf" points="260,-112.5 260,-131.5 325,-131.5 325,-112.5 260,-112.5"/>
<text text-anchor="middle" x="292.5" y="-119.5" font-family="Helvetica,sans-Serif" font-size="10.00">functional</text>
</a>
</g>
</g>
<!-- Node6&#45;&gt;Node10 -->
<g id="edge9" class="edge">
<title>Node6&#45;&gt;Node10</title>
<path fill="none" stroke="midnightblue" d="M292.5,-173.98C292.5,-165.58 292.5,-152.48 292.5,-141.66"/>
<polygon fill="midnightblue" stroke="midnightblue" points="296,-141.51 292.5,-131.51 289,-141.51 296,-141.51"/>
</g>
<!-- Node11 -->
<g id="node11" class="node">
<title>Node11</title>
<g id="a_node11"><a xlink:title=" ">
<polygon fill="white" stroke="#bfbfbf" points="412.5,-56.5 412.5,-75.5 444.5,-75.5 444.5,-56.5 412.5,-56.5"/>
<text text-anchor="middle" x="428.5" y="-63.5" font-family="Helvetica,sans-Serif" font-size="10.00">set</text>
</a>
</g>
</g>
<!-- Node6&#45;&gt;Node11 -->
<g id="edge11" class="edge">
<title>Node6&#45;&gt;Node11</title>
<path fill="none" stroke="midnightblue" d="M302.23,-173.67C317.16,-160.18 346.72,-133.7 372.5,-112 384.55,-101.86 398.33,-90.78 409.21,-82.15"/>
<polygon fill="midnightblue" stroke="midnightblue" points="411.55,-84.76 417.22,-75.82 407.21,-79.27 411.55,-84.76"/>
</g>
<!-- Node12 -->
<g id="node12" class="node">
<title>Node12</title>
<g id="a_node12"><a xlink:title=" ">
<polygon fill="white" stroke="#bfbfbf" points="71,-112.5 71,-131.5 140,-131.5 140,-112.5 71,-112.5"/>
<text text-anchor="middle" x="105.5" y="-119.5" font-family="Helvetica,sans-Serif" font-size="10.00">type_traits</text>
</a>
</g>
</g>
<!-- Node6&#45;&gt;Node12 -->
<g id="edge12" class="edge">
<title>Node6&#45;&gt;Node12</title>
<path fill="none" stroke="midnightblue" d="M265.71,-173.98C233.21,-163.64 178.29,-146.16 141.96,-134.6"/>
<polygon fill="midnightblue" stroke="midnightblue" points="142.83,-131.21 132.24,-131.51 140.71,-137.88 142.83,-131.21"/>
</g>
<!-- Node13 -->
<g id="node13" class="node">
<title>Node13</title>
<g id="a_node13"><a xlink:title=" ">
<polygon fill="white" stroke="#bfbfbf" points="158,-112.5 158,-131.5 203,-131.5 203,-112.5 158,-112.5"/>
<text text-anchor="middle" x="180.5" y="-119.5" font-family="Helvetica,sans-Serif" font-size="10.00">utility</text>
</a>
</g>
</g>
<!-- Node6&#45;&gt;Node13 -->
<g id="edge13" class="edge">
<title>Node6&#45;&gt;Node13</title>
<path fill="none" stroke="midnightblue" d="M276.45,-173.98C257.91,-164.12 227.16,-147.79 205.48,-136.27"/>
<polygon fill="midnightblue" stroke="midnightblue" points="206.99,-133.11 196.52,-131.51 203.71,-139.29 206.99,-133.11"/>
</g>
<!-- Node15 -->
<g id="node15" class="node">
<title>Node15</title>
<g id="a_node15"><a xlink:title=" ">
<polygon fill="white" stroke="#bfbfbf" points="1460,-409 1460,-428 1509,-428 1509,-409 1460,-409"/>
<text text-anchor="middle" x="1484.5" y="-416" font-family="Helvetica,sans-Serif" font-size="10.00">cstdlib</text>
</a>
</g>
</g>
<!-- Node14&#45;&gt;Node15 -->
<g id="edge15" class="edge">
<title>Node14&#45;&gt;Node15</title>
<path fill="none" stroke="midnightblue" d="M1168.05,-476.29C1235.11,-471.88 1353.03,-460.78 1450.5,-434 1452.8,-433.37 1455.14,-432.62 1457.48,-431.79"/>
<polygon fill="midnightblue" stroke="midnightblue" points="1458.81,-435.03 1466.83,-428.1 1456.24,-428.51 1458.81,-435.03"/>
</g>
<!-- Node16 -->
<g id="node16" class="node">
<title>Node16</title>
<g id="a_node16"><a xlink:title=" ">
<polygon fill="white" stroke="#bfbfbf" points="569.5,-409 569.5,-428 629.5,-428 629.5,-409 569.5,-409"/>
<text text-anchor="middle" x="599.5" y="-416" font-family="Helvetica,sans-Serif" font-size="10.00">iostream</text>
</a>
</g>
</g>
<!-- Node14&#45;&gt;Node16 -->
<g id="edge16" class="edge">
<title>Node14&#45;&gt;Node16</title>
<path fill="none" stroke="midnightblue" d="M1060.74,-478.32C971.97,-476.21 789.62,-467.74 639.5,-434 636.26,-433.27 632.92,-432.35 629.62,-431.33"/>
<polygon fill="midnightblue" stroke="midnightblue" points="630.56,-427.95 619.96,-428.04 628.3,-434.58 630.56,-427.95"/>
</g>
<!-- Node17 -->
<g id="node17" class="node">
<title>Node17</title>
<g id="a_node17"><a xlink:title=" ">
<polygon fill="white" stroke="#bfbfbf" points="1305,-112.5 1305,-131.5 1378,-131.5 1378,-112.5 1305,-112.5"/>
<text text-anchor="middle" x="1341.5" y="-119.5" font-family="Helvetica,sans-Serif" font-size="10.00">string_view</text>
</a>
</g>
</g>
<!-- Node14&#45;&gt;Node17 -->
<g id="edge17" class="edge">
<title>Node14&#45;&gt;Node17</title>
<path fill="none" stroke="midnightblue" d="M1168.38,-476.05C1206.87,-471.6 1258.24,-460.67 1295.5,-434 1352.24,-393.39 1380.5,-371.78 1380.5,-302 1380.5,-302 1380.5,-302 1380.5,-244 1380.5,-205.55 1362.44,-163.39 1350.9,-140.38"/>
<polygon fill="midnightblue" stroke="midnightblue" points="1354,-138.76 1346.28,-131.5 1347.79,-141.99 1354,-138.76"/>
</g>
<!-- Node18 -->
<g id="node18" class="node">
<title>Node18</title>
<g id="a_node18"><a xlink:href="fmt_8hpp.html" target="_top" xlink:title=" ">
<polygon fill="white" stroke="black" points="1107,-174 1107,-193 1186,-193 1186,-174 1107,-174"/>
<text text-anchor="middle" x="1146.5" y="-181" font-family="Helvetica,sans-Serif" font-size="10.00">utils/fmt.hpp</text>
</a>
</g>
</g>
<!-- Node14&#45;&gt;Node18 -->
<g id="edge18" class="edge">
<title>Node14&#45;&gt;Node18</title>
<path fill="none" stroke="midnightblue" d="M1168.2,-470.52C1192.71,-464.16 1220.46,-453.12 1239.5,-434 1264.79,-408.6 1266.5,-393.85 1266.5,-358 1266.5,-358 1266.5,-358 1266.5,-300 1266.5,-250.31 1212.43,-215.29 1176.88,-197.63"/>
<polygon fill="midnightblue" stroke="midnightblue" points="1177.94,-194.26 1167.4,-193.11 1174.92,-200.57 1177.94,-194.26"/>
</g>
<!-- Node27 -->
<g id="node27" class="node">
<title>Node27</title>
<g id="a_node27"><a xlink:title=" ">
<polygon fill="white" stroke="#bfbfbf" points="648,-409 648,-428 795,-428 795,-409 648,-409"/>
<text text-anchor="middle" x="721.5" y="-416" font-family="Helvetica,sans-Serif" font-size="10.00">boost/current_function.hpp</text>
</a>
</g>
</g>
<!-- Node14&#45;&gt;Node27 -->
<g id="edge37" class="edge">
<title>Node14&#45;&gt;Node27</title>
<path fill="none" stroke="midnightblue" d="M1060.94,-471.7C999.09,-463.16 894.32,-448.36 804.5,-434 796.19,-432.67 787.43,-431.21 778.84,-429.74"/>
<polygon fill="midnightblue" stroke="midnightblue" points="779.31,-426.27 768.86,-428.02 778.12,-433.17 779.31,-426.27"/>
</g>
<!-- Node28 -->
<g id="node28" class="node">
<title>Node28</title>
<g id="a_node28"><a xlink:title=" ">
<polygon fill="white" stroke="#bfbfbf" points="813,-403.5 813,-433.5 948,-433.5 948,-403.5 813,-403.5"/>
<text text-anchor="start" x="821" y="-421.5" font-family="Helvetica,sans-Serif" font-size="10.00">boost/preprocessor</text>
<text text-anchor="middle" x="880.5" y="-410.5" font-family="Helvetica,sans-Serif" font-size="10.00">/comparison/greater.hpp</text>
</a>
</g>
</g>
<!-- Node14&#45;&gt;Node28 -->
<g id="edge38" class="edge">
<title>Node14&#45;&gt;Node28</title>
<path fill="none" stroke="midnightblue" d="M1080.97,-470.48C1045.73,-461.51 989.39,-447.19 945.4,-436"/>
<polygon fill="midnightblue" stroke="midnightblue" points="946.2,-432.6 935.65,-433.52 944.48,-439.38 946.2,-432.6"/>
</g>
<!-- Node29 -->
<g id="node29" class="node">
<title>Node29</title>
<g id="a_node29"><a xlink:title=" ">
<polygon fill="white" stroke="#bfbfbf" points="1204.5,-168.5 1204.5,-198.5 1314.5,-198.5 1314.5,-168.5 1204.5,-168.5"/>
<text text-anchor="start" x="1212.5" y="-186.5" font-family="Helvetica,sans-Serif" font-size="10.00">boost/preprocessor</text>
<text text-anchor="middle" x="1259.5" y="-175.5" font-family="Helvetica,sans-Serif" font-size="10.00">/control/if.hpp</text>
</a>
</g>
</g>
<!-- Node14&#45;&gt;Node29 -->
<g id="edge39" class="edge">
<title>Node14&#45;&gt;Node29</title>
<path fill="none" stroke="midnightblue" d="M1168.13,-470.75C1198.06,-464.27 1234.95,-453.05 1263.5,-434 1295.55,-412.62 1305.52,-403.27 1318.5,-367 1338.89,-310.02 1300.59,-241.95 1276.65,-207.27"/>
<polygon fill="midnightblue" stroke="midnightblue" points="1279.28,-204.92 1270.63,-198.8 1273.58,-208.98 1279.28,-204.92"/>
</g>
<!-- Node30 -->
<g id="node30" class="node">
<title>Node30</title>
<g id="a_node30"><a xlink:title=" ">
<polygon fill="white" stroke="#bfbfbf" points="561.5,-168.5 561.5,-198.5 671.5,-198.5 671.5,-168.5 561.5,-168.5"/>
<text text-anchor="start" x="569.5" y="-186.5" font-family="Helvetica,sans-Serif" font-size="10.00">boost/preprocessor</text>
<text text-anchor="middle" x="616.5" y="-175.5" font-family="Helvetica,sans-Serif" font-size="10.00">/stringize.hpp</text>
</a>
</g>
</g>
<!-- Node14&#45;&gt;Node30 -->
<g id="edge40" class="edge">
<title>Node14&#45;&gt;Node30</title>
<path fill="none" stroke="midnightblue" d="M1060.83,-478.14C929.16,-475.56 598.12,-465.91 560.5,-434 533.95,-411.48 541.5,-392.82 541.5,-358 541.5,-358 541.5,-358 541.5,-300 541.5,-262.14 570.19,-226.93 592.08,-205.58"/>
<polygon fill="midnightblue" stroke="midnightblue" points="594.59,-208.02 599.48,-198.62 589.8,-202.92 594.59,-208.02"/>
</g>
<!-- Node31 -->
<g id="node31" class="node">
<title>Node31</title>
<g id="a_node31"><a xlink:title=" ">
<polygon fill="white" stroke="#bfbfbf" points="1120.5,-403.5 1120.5,-433.5 1230.5,-433.5 1230.5,-403.5 1120.5,-403.5"/>
<text text-anchor="start" x="1128.5" y="-421.5" font-family="Helvetica,sans-Serif" font-size="10.00">boost/preprocessor</text>
<text text-anchor="middle" x="1175.5" y="-410.5" font-family="Helvetica,sans-Serif" font-size="10.00">/variadic/size.hpp</text>
</a>
</g>
</g>
<!-- Node14&#45;&gt;Node31 -->
<g id="edge41" class="edge">
<title>Node14&#45;&gt;Node31</title>
<path fill="none" stroke="midnightblue" d="M1123.24,-470.48C1131.19,-462.72 1143.26,-450.94 1153.8,-440.66"/>
<polygon fill="midnightblue" stroke="midnightblue" points="1156.41,-443.01 1161.12,-433.52 1151.52,-438 1156.41,-443.01"/>
</g>
<!-- Node32 -->
<g id="node32" class="node">
<title>Node32</title>
<g id="a_node32"><a xlink:href="ArgumentFormatter_8hpp.html" target="_top" xlink:title=" ">
<polygon fill="white" stroke="black" points="791,-235.5 791,-254.5 948,-254.5 948,-235.5 791,-235.5"/>
<text text-anchor="middle" x="869.5" y="-242.5" font-family="Helvetica,sans-Serif" font-size="10.00">utils/ArgumentFormatter.hpp</text>
</a>
</g>
</g>
<!-- Node14&#45;&gt;Node32 -->
<g id="edge42" class="edge">
<title>Node14&#45;&gt;Node32</title>
<path fill="none" stroke="midnightblue" d="M1083.95,-470.45C1059.17,-462.81 1023.82,-450.33 995.5,-434 976.62,-423.11 977.16,-412.4 957.5,-403 887.43,-369.51 838.58,-424.61 786.5,-367 763.78,-341.87 762.75,-319.86 780.5,-291 790.05,-275.47 806.81,-265.1 823.23,-258.27"/>
<polygon fill="midnightblue" stroke="midnightblue" points="824.68,-261.46 832.8,-254.65 822.21,-254.92 824.68,-261.46"/>
</g>
<!-- Node36 -->
<g id="node36" class="node">
<title>Node36</title>
<g id="a_node36"><a xlink:href="Parallel_8hpp.html" target="_top" xlink:title=" ">
<polygon fill="white" stroke="black" points="1004.5,-409 1004.5,-428 1102.5,-428 1102.5,-409 1004.5,-409"/>
<text text-anchor="middle" x="1053.5" y="-416" font-family="Helvetica,sans-Serif" font-size="10.00">utils/Parallel.hpp</text>
</a>
</g>
</g>
<!-- Node14&#45;&gt;Node36 -->
<g id="edge49" class="edge">
<title>Node14&#45;&gt;Node36</title>
<path fill="none" stroke="midnightblue" d="M1105.76,-470.48C1096.34,-461.28 1081.14,-446.46 1069.55,-435.16"/>
<polygon fill="midnightblue" stroke="midnightblue" points="1071.83,-432.49 1062.22,-428.01 1066.94,-437.5 1071.83,-432.49"/>
</g>
<!-- Node45 -->
<g id="node45" class="node">
<title>Node45</title>
<g id="a_node45"><a xlink:href="stacktrace_8hpp.html" target="_top" xlink:title=" ">
<polygon fill="white" stroke="black" points="1431,-291.5 1431,-310.5 1544,-310.5 1544,-291.5 1431,-291.5"/>
<text text-anchor="middle" x="1487.5" y="-298.5" font-family="Helvetica,sans-Serif" font-size="10.00">utils/stacktrace.hpp</text>
</a>
</g>
</g>
<!-- Node14&#45;&gt;Node45 -->
<g id="edge65" class="edge">
<title>Node14&#45;&gt;Node45</title>
<path fill="none" stroke="midnightblue" d="M1168.07,-476.94C1272.59,-472.36 1495.53,-459.67 1518.5,-434 1547.69,-401.37 1518.11,-346.49 1499.74,-318.9"/>
<polygon fill="midnightblue" stroke="midnightblue" points="1502.61,-316.9 1494.04,-310.67 1496.85,-320.88 1502.61,-316.9"/>
</g>
<!-- Node46 -->
<g id="node46" class="node">
<title>Node46</title>
<g id="a_node46"><a xlink:title=" ">
<polygon fill="white" stroke="#bfbfbf" points="1389.5,-409 1389.5,-428 1441.5,-428 1441.5,-409 1389.5,-409"/>
<text text-anchor="middle" x="1415.5" y="-416" font-family="Helvetica,sans-Serif" font-size="10.00">cassert</text>
</a>
</g>
</g>
<!-- Node14&#45;&gt;Node46 -->
<g id="edge67" class="edge">
<title>Node14&#45;&gt;Node46</title>
<path fill="none" stroke="midnightblue" d="M1168.08,-472.59C1221.27,-465.56 1304.83,-452.74 1375.5,-434 1378.47,-433.21 1381.54,-432.3 1384.59,-431.31"/>
<polygon fill="midnightblue" stroke="midnightblue" points="1385.81,-434.59 1394.13,-428.04 1383.54,-427.97 1385.81,-434.59"/>
</g>
<!-- Node18&#45;&gt;Node9 -->
<g id="edge22" class="edge">
<title>Node18&#45;&gt;Node9</title>
<path fill="none" stroke="midnightblue" d="M1121.85,-173.88C1114.43,-171.61 1106.21,-169.4 1098.5,-168 859.22,-124.56 795.13,-148.53 552.5,-132 528.02,-130.33 500.92,-128.43 477.97,-126.81"/>
<polygon fill="midnightblue" stroke="midnightblue" points="477.97,-123.3 467.75,-126.09 477.48,-130.29 477.97,-123.3"/>
</g>
<!-- Node18&#45;&gt;Node17 -->
<g id="edge20" class="edge">
<title>Node18&#45;&gt;Node17</title>
<path fill="none" stroke="midnightblue" d="M1174.44,-173.98C1208.47,-163.59 1266.08,-146.01 1303.96,-134.45"/>
<polygon fill="midnightblue" stroke="midnightblue" points="1305.07,-137.78 1313.61,-131.51 1303.03,-131.08 1305.07,-137.78"/>
</g>
<!-- Node19 -->
<g id="node19" class="node">
<title>Node19</title>
<g id="a_node19"><a xlink:title=" ">
<polygon fill="white" stroke="#bfbfbf" points="1396.5,-112.5 1396.5,-131.5 1440.5,-131.5 1440.5,-112.5 1396.5,-112.5"/>
<text text-anchor="middle" x="1418.5" y="-119.5" font-family="Helvetica,sans-Serif" font-size="10.00">string</text>
</a>
</g>
</g>
<!-- Node18&#45;&gt;Node19 -->
<g id="edge19" class="edge">
<title>Node18&#45;&gt;Node19</title>
<path fill="none" stroke="midnightblue" d="M1173.58,-173.95C1180.67,-171.86 1188.34,-169.73 1195.5,-168 1276.85,-148.39 1301.29,-151.84 1386.39,-132.07"/>
<polygon fill="midnightblue" stroke="midnightblue" points="1387.29,-135.46 1396.22,-129.75 1385.68,-128.64 1387.29,-135.46"/>
</g>
<!-- Node20 -->
<g id="node20" class="node">
<title>Node20</title>
<g id="a_node20"><a xlink:title=" ">
<polygon fill="white" stroke="#bfbfbf" points="917,-56.5 917,-75.5 996,-75.5 996,-56.5 917,-56.5"/>
<text text-anchor="middle" x="956.5" y="-63.5" font-family="Helvetica,sans-Serif" font-size="10.00">fmt/format.h</text>
</a>
</g>
</g>
<!-- Node18&#45;&gt;Node20 -->
<g id="edge21" class="edge">
<title>Node18&#45;&gt;Node20</title>
<path fill="none" stroke="midnightblue" d="M1132.22,-173.82C1099.54,-153.95 1019.09,-105.05 979.4,-80.92"/>
<polygon fill="midnightblue" stroke="midnightblue" points="981.05,-77.83 970.69,-75.62 977.41,-83.81 981.05,-77.83"/>
</g>
<!-- Node21 -->
<g id="node21" class="node">
<title>Node21</title>
<g id="a_node21"><a xlink:href="fmtEigen_8hpp.html" target="_top" xlink:title=" ">
<polygon fill="white" stroke="black" points="1093.5,-112.5 1093.5,-131.5 1199.5,-131.5 1199.5,-112.5 1093.5,-112.5"/>
<text text-anchor="middle" x="1146.5" y="-119.5" font-family="Helvetica,sans-Serif" font-size="10.00">utils/fmtEigen.hpp</text>
</a>
</g>
</g>
<!-- Node18&#45;&gt;Node21 -->
<g id="edge23" class="edge">
<title>Node18&#45;&gt;Node21</title>
<path fill="none" stroke="midnightblue" d="M1146.5,-173.98C1146.5,-165.58 1146.5,-152.48 1146.5,-141.66"/>
<polygon fill="midnightblue" stroke="midnightblue" points="1150,-141.51 1146.5,-131.51 1143,-141.51 1150,-141.51"/>
</g>
<!-- Node24 -->
<g id="node24" class="node">
<title>Node24</title>
<g id="a_node24"><a xlink:href="fmtSTL_8hpp.html" target="_top" xlink:title=" ">
<polygon fill="white" stroke="black" points="561.5,-112.5 561.5,-131.5 657.5,-131.5 657.5,-112.5 561.5,-112.5"/>
<text text-anchor="middle" x="609.5" y="-119.5" font-family="Helvetica,sans-Serif" font-size="10.00">utils/fmtSTL.hpp</text>
</a>
</g>
</g>
<!-- Node18&#45;&gt;Node24 -->
<g id="edge30" class="edge">
<title>Node18&#45;&gt;Node24</title>
<path fill="none" stroke="midnightblue" d="M1121.33,-173.86C1114.04,-171.64 1106.02,-169.47 1098.5,-168 944.81,-138.03 759.94,-127.9 667.74,-124.57"/>
<polygon fill="midnightblue" stroke="midnightblue" points="667.62,-121.06 657.5,-124.21 667.37,-128.06 667.62,-121.06"/>
</g>
<!-- Node21&#45;&gt;Node3 -->
<g id="edge24" class="edge">
<title>Node21&#45;&gt;Node3</title>
<path fill="none" stroke="midnightblue" d="M1199.76,-114.78C1226.98,-108.96 1258.66,-97.73 1279.5,-76 1291.31,-63.68 1295.84,-44.43 1297.54,-30.07"/>
<polygon fill="midnightblue" stroke="midnightblue" points="1301.05,-30.08 1298.39,-19.83 1294.08,-29.51 1301.05,-30.08"/>
</g>
<!-- Node21&#45;&gt;Node7 -->
<g id="edge25" class="edge">
<title>Node21&#45;&gt;Node7</title>
<path fill="none" stroke="midnightblue" d="M1130.43,-112.32C1114.54,-103.74 1089.99,-90.49 1071.54,-80.52"/>
<polygon fill="midnightblue" stroke="midnightblue" points="1072.99,-77.33 1062.53,-75.65 1069.66,-83.49 1072.99,-77.33"/>
</g>
<!-- Node21&#45;&gt;Node20 -->
<g id="edge26" class="edge">
<title>Node21&#45;&gt;Node20</title>
<path fill="none" stroke="midnightblue" d="M1116.39,-112.44C1083.87,-103.2 1031.92,-88.44 996.11,-78.26"/>
<polygon fill="midnightblue" stroke="midnightblue" points="997.04,-74.88 986.47,-75.52 995.13,-81.62 997.04,-74.88"/>
</g>
<!-- Node22 -->
<g id="node22" class="node">
<title>Node22</title>
<g id="a_node22"><a xlink:title=" ">
<polygon fill="white" stroke="#bfbfbf" points="1214.5,-56.5 1214.5,-75.5 1270.5,-75.5 1270.5,-56.5 1214.5,-56.5"/>
<text text-anchor="middle" x="1242.5" y="-63.5" font-family="Helvetica,sans-Serif" font-size="10.00">sstream</text>
</a>
</g>
</g>
<!-- Node21&#45;&gt;Node22 -->
<g id="edge27" class="edge">
<title>Node21&#45;&gt;Node22</title>
<path fill="none" stroke="midnightblue" d="M1161.92,-112.32C1177.04,-103.82 1200.32,-90.73 1217.97,-80.8"/>
<polygon fill="midnightblue" stroke="midnightblue" points="1220.11,-83.61 1227.11,-75.65 1216.68,-77.51 1220.11,-83.61"/>
</g>
<!-- Node23 -->
<g id="node23" class="node">
<title>Node23</title>
<g id="a_node23"><a xlink:href="EigenIO_8hpp.html" target="_top" xlink:title=" ">
<polygon fill="white" stroke="black" points="1097,-56.5 1097,-75.5 1196,-75.5 1196,-56.5 1097,-56.5"/>
<text text-anchor="middle" x="1146.5" y="-63.5" font-family="Helvetica,sans-Serif" font-size="10.00">utils/EigenIO.hpp</text>
</a>
</g>
</g>
<!-- Node21&#45;&gt;Node23 -->
<g id="edge28" class="edge">
<title>Node21&#45;&gt;Node23</title>
<path fill="none" stroke="midnightblue" d="M1146.5,-112.08C1146.5,-105.01 1146.5,-94.86 1146.5,-85.99"/>
<polygon fill="midnightblue" stroke="midnightblue" points="1150,-85.75 1146.5,-75.75 1143,-85.75 1150,-85.75"/>
</g>
<!-- Node23&#45;&gt;Node3 -->
<g id="edge29" class="edge">
<title>Node23&#45;&gt;Node3</title>
<path fill="none" stroke="midnightblue" d="M1170.58,-56.44C1196.04,-47.4 1236.39,-33.06 1264.96,-22.92"/>
<polygon fill="midnightblue" stroke="midnightblue" points="1266.28,-26.16 1274.53,-19.52 1263.93,-19.57 1266.28,-26.16"/>
</g>
<!-- Node24&#45;&gt;Node5 -->
<g id="edge36" class="edge">
<title>Node24&#45;&gt;Node5</title>
<path fill="none" stroke="midnightblue" d="M597.29,-112.32C585.72,-104.11 568.12,-91.6 554.34,-81.81"/>
<polygon fill="midnightblue" stroke="midnightblue" points="556.11,-78.77 545.93,-75.83 552.06,-84.48 556.11,-78.77"/>
</g>
<!-- Node24&#45;&gt;Node8 -->
<g id="edge31" class="edge">
<title>Node24&#45;&gt;Node8</title>
<path fill="none" stroke="midnightblue" d="M561.16,-113.09C492.4,-101.84 368.29,-81.53 310.58,-72.09"/>
<polygon fill="midnightblue" stroke="midnightblue" points="311.04,-68.61 300.6,-70.45 309.91,-75.52 311.04,-68.61"/>
</g>
<!-- Node24&#45;&gt;Node11 -->
<g id="edge35" class="edge">
<title>Node24&#45;&gt;Node11</title>
<path fill="none" stroke="midnightblue" d="M580.82,-112.44C546.1,-102.09 488.13,-84.79 454.61,-74.79"/>
<polygon fill="midnightblue" stroke="midnightblue" points="455.23,-71.32 444.64,-71.82 453.23,-78.03 455.23,-71.32"/>
</g>
<!-- Node24&#45;&gt;Node20 -->
<g id="edge33" class="edge">
<title>Node24&#45;&gt;Node20</title>
<path fill="none" stroke="midnightblue" d="M657.75,-113.49C723.42,-103.27 840.35,-85.08 906.77,-74.74"/>
<polygon fill="midnightblue" stroke="midnightblue" points="907.64,-78.15 916.99,-73.15 906.57,-71.23 907.64,-78.15"/>
</g>
<!-- Node25 -->
<g id="node25" class="node">
<title>Node25</title>
<g id="a_node25"><a xlink:title=" ">
<polygon fill="white" stroke="#bfbfbf" points="581,-56.5 581,-75.5 628,-75.5 628,-56.5 581,-56.5"/>
<text text-anchor="middle" x="604.5" y="-63.5" font-family="Helvetica,sans-Serif" font-size="10.00">deque</text>
</a>
</g>
</g>
<!-- Node24&#45;&gt;Node25 -->
<g id="edge32" class="edge">
<title>Node24&#45;&gt;Node25</title>
<path fill="none" stroke="midnightblue" d="M608.67,-112.08C608.02,-105.01 607.08,-94.86 606.26,-85.99"/>
<polygon fill="midnightblue" stroke="midnightblue" points="609.72,-85.39 605.31,-75.75 602.75,-86.03 609.72,-85.39"/>
</g>
<!-- Node26 -->
<g id="node26" class="node">
<title>Node26</title>
<g id="a_node26"><a xlink:title=" ">
<polygon fill="white" stroke="#bfbfbf" points="646.5,-56.5 646.5,-75.5 684.5,-75.5 684.5,-56.5 646.5,-56.5"/>
<text text-anchor="middle" x="665.5" y="-63.5" font-family="Helvetica,sans-Serif" font-size="10.00">map</text>
</a>
</g>
</g>
<!-- Node24&#45;&gt;Node26 -->
<g id="edge34" class="edge">
<title>Node24&#45;&gt;Node26</title>
<path fill="none" stroke="midnightblue" d="M618.5,-112.32C626.69,-104.42 639.01,-92.55 648.97,-82.94"/>
<polygon fill="midnightblue" stroke="midnightblue" points="651.57,-85.29 656.34,-75.83 646.71,-80.26 651.57,-85.29"/>
</g>
<!-- Node32&#45;&gt;Node18 -->
<g id="edge48" class="edge">
<title>Node32&#45;&gt;Node18</title>
<path fill="none" stroke="midnightblue" d="M920.75,-235.43C967.38,-227.28 1037.95,-214.06 1098.5,-199 1102.33,-198.05 1106.32,-196.98 1110.28,-195.86"/>
<polygon fill="midnightblue" stroke="midnightblue" points="1111.35,-199.19 1119.97,-193.03 1109.39,-192.47 1111.35,-199.19"/>
</g>
<!-- Node32&#45;&gt;Node29 -->
<g id="edge43" class="edge">
<title>Node32&#45;&gt;Node29</title>
<path fill="none" stroke="midnightblue" d="M944.56,-235.49C1008.5,-227.82 1102.99,-215.48 1194.42,-199.1"/>
<polygon fill="midnightblue" stroke="midnightblue" points="1195.19,-202.52 1204.4,-197.3 1193.94,-195.63 1195.19,-202.52"/>
</g>
<!-- Node32&#45;&gt;Node30 -->
<g id="edge45" class="edge">
<title>Node32&#45;&gt;Node30</title>
<path fill="none" stroke="midnightblue" d="M833.25,-235.48C793.83,-226.21 730.03,-211.2 681.82,-199.86"/>
<polygon fill="midnightblue" stroke="midnightblue" points="682.33,-196.39 671.79,-197.5 680.72,-203.2 682.33,-196.39"/>
</g>
<!-- Node33 -->
<g id="node33" class="node">
<title>Node33</title>
<g id="a_node33"><a xlink:title=" ">
<polygon fill="white" stroke="#bfbfbf" points="978,-168.5 978,-198.5 1089,-198.5 1089,-168.5 978,-168.5"/>
<text text-anchor="start" x="986" y="-186.5" font-family="Helvetica,sans-Serif" font-size="10.00">boost/preprocessor</text>
<text text-anchor="middle" x="1033.5" y="-175.5" font-family="Helvetica,sans-Serif" font-size="10.00">/seq/for_each_i.hpp</text>
</a>
</g>
</g>
<!-- Node32&#45;&gt;Node33 -->
<g id="edge44" class="edge">
<title>Node32&#45;&gt;Node33</title>
<path fill="none" stroke="midnightblue" d="M893,-235.48C916.97,-226.78 954.87,-213.03 985.27,-202"/>
<polygon fill="midnightblue" stroke="midnightblue" points="986.64,-205.22 994.85,-198.52 984.25,-198.64 986.64,-205.22"/>
</g>
<!-- Node34 -->
<g id="node34" class="node">
<title>Node34</title>
<g id="a_node34"><a xlink:title=" ">
<polygon fill="white" stroke="#bfbfbf" points="690,-168.5 690,-198.5 805,-198.5 805,-168.5 690,-168.5"/>
<text text-anchor="start" x="698" y="-186.5" font-family="Helvetica,sans-Serif" font-size="10.00">boost/preprocessor</text>
<text text-anchor="middle" x="747.5" y="-175.5" font-family="Helvetica,sans-Serif" font-size="10.00">/variadic/to_seq.hpp</text>
</a>
</g>
</g>
<!-- Node32&#45;&gt;Node34 -->
<g id="edge46" class="edge">
<title>Node32&#45;&gt;Node34</title>
<path fill="none" stroke="midnightblue" d="M852.02,-235.48C834.73,-227.04 807.69,-213.86 785.45,-203.01"/>
<polygon fill="midnightblue" stroke="midnightblue" points="786.78,-199.76 776.25,-198.52 783.71,-206.05 786.78,-199.76"/>
</g>
<!-- Node35 -->
<g id="node35" class="node">
<title>Node35</title>
<g id="a_node35"><a xlink:title=" ">
<polygon fill="white" stroke="#bfbfbf" points="823.5,-174 823.5,-193 959.5,-193 959.5,-174 823.5,-174"/>
<text text-anchor="middle" x="891.5" y="-181" font-family="Helvetica,sans-Serif" font-size="10.00">boost/vmd/is_empty.hpp</text>
</a>
</g>
</g>
<!-- Node32&#45;&gt;Node35 -->
<g id="edge47" class="edge">
<title>Node32&#45;&gt;Node35</title>
<path fill="none" stroke="midnightblue" d="M872.65,-235.48C875.82,-226.9 880.8,-213.43 884.85,-202.48"/>
<polygon fill="midnightblue" stroke="midnightblue" points="888.17,-203.6 888.35,-193.01 881.6,-201.17 888.17,-203.6"/>
</g>
<!-- Node36&#45;&gt;Node5 -->
<g id="edge54" class="edge">
<title>Node36&#45;&gt;Node5</title>
<path fill="none" stroke="midnightblue" d="M1004.41,-409.4C932.86,-397.41 806.23,-375.45 786.5,-367 668.82,-316.58 618.93,-308.44 552.5,-199 530.95,-163.5 530.27,-112.94 531.8,-85.86"/>
<polygon fill="midnightblue" stroke="midnightblue" points="535.29,-86.03 532.53,-75.8 528.31,-85.52 535.29,-86.03"/>
</g>
<!-- Node36&#45;&gt;Node19 -->
<g id="edge53" class="edge">
<title>Node36&#45;&gt;Node19</title>
<path fill="none" stroke="midnightblue" d="M1087.46,-408.98C1142.18,-395.2 1244.16,-369.32 1247.5,-367 1334.42,-306.62 1391.63,-186.9 1411.1,-141.26"/>
<polygon fill="midnightblue" stroke="midnightblue" points="1414.43,-142.36 1415.05,-131.78 1407.97,-139.66 1414.43,-142.36"/>
</g>
<!-- Node37 -->
<g id="node37" class="node">
<title>Node37</title>
<g id="a_node37"><a xlink:title=" ">
<polygon fill="white" stroke="#bfbfbf" points="932.5,-347.5 932.5,-366.5 980.5,-366.5 980.5,-347.5 932.5,-347.5"/>
<text text-anchor="middle" x="956.5" y="-354.5" font-family="Helvetica,sans-Serif" font-size="10.00">iosfwd</text>
</a>
</g>
</g>
<!-- Node36&#45;&gt;Node37 -->
<g id="edge50" class="edge">
<title>Node36&#45;&gt;Node37</title>
<path fill="none" stroke="midnightblue" d="M1039.6,-408.98C1023.83,-399.3 997.86,-383.37 979.15,-371.89"/>
<polygon fill="midnightblue" stroke="midnightblue" points="980.73,-368.75 970.37,-366.51 977.07,-374.72 980.73,-368.75"/>
</g>
<!-- Node38 -->
<g id="node38" class="node">
<title>Node38</title>
<g id="a_node38"><a xlink:title=" ">
<polygon fill="white" stroke="#bfbfbf" points="789.5,-291.5 789.5,-310.5 847.5,-310.5 847.5,-291.5 789.5,-291.5"/>
<text text-anchor="middle" x="818.5" y="-298.5" font-family="Helvetica,sans-Serif" font-size="10.00">memory</text>
</a>
</g>
</g>
<!-- Node36&#45;&gt;Node38 -->
<g id="edge51" class="edge">
<title>Node36&#45;&gt;Node38</title>
<path fill="none" stroke="midnightblue" d="M1017.58,-408.95C1008.74,-406.93 999.29,-404.83 990.5,-403 947.57,-394.08 824.53,-400.71 796.5,-367 785,-353.17 794.71,-333.06 804.62,-318.87"/>
<polygon fill="midnightblue" stroke="midnightblue" points="807.68,-320.62 810.93,-310.53 802.1,-316.39 807.68,-320.62"/>
</g>
<!-- Node39 -->
<g id="node39" class="node">
<title>Node39</title>
<g id="a_node39"><a xlink:title=" ">
<polygon fill="white" stroke="#bfbfbf" points="998.5,-347.5 998.5,-366.5 1054.5,-366.5 1054.5,-347.5 998.5,-347.5"/>
<text text-anchor="middle" x="1026.5" y="-354.5" font-family="Helvetica,sans-Serif" font-size="10.00">optional</text>
</a>
</g>
</g>
<!-- Node36&#45;&gt;Node39 -->
<g id="edge52" class="edge">
<title>Node36&#45;&gt;Node39</title>
<path fill="none" stroke="midnightblue" d="M1049.63,-408.98C1045.7,-400.32 1039.5,-386.65 1034.51,-375.65"/>
<polygon fill="midnightblue" stroke="midnightblue" points="1037.68,-374.17 1030.36,-366.51 1031.31,-377.06 1037.68,-374.17"/>
</g>
<!-- Node40 -->
<g id="node40" class="node">
<title>Node40</title>
<g id="a_node40"><a xlink:href="Logger_8hpp.html" target="_top" xlink:title=" ">
<polygon fill="white" stroke="black" points="805,-347.5 805,-366.5 914,-366.5 914,-347.5 805,-347.5"/>
<text text-anchor="middle" x="859.5" y="-354.5" font-family="Helvetica,sans-Serif" font-size="10.00">logging/Logger.hpp</text>
</a>
</g>
</g>
<!-- Node36&#45;&gt;Node40 -->
<g id="edge55" class="edge">
<title>Node36&#45;&gt;Node40</title>
<path fill="none" stroke="midnightblue" d="M1025.7,-408.98C991.85,-398.59 934.53,-381.01 896.85,-369.45"/>
<polygon fill="midnightblue" stroke="midnightblue" points="897.83,-366.1 887.24,-366.51 895.78,-372.79 897.83,-366.1"/>
</g>
<!-- Node43 -->
<g id="node43" class="node">
<title>Node43</title>
<g id="a_node43"><a xlink:href="types_8hpp.html" target="_top" xlink:title=" ">
<polygon fill="white" stroke="black" points="1073,-347.5 1073,-366.5 1176,-366.5 1176,-347.5 1073,-347.5"/>
<text text-anchor="middle" x="1124.5" y="-354.5" font-family="Helvetica,sans-Serif" font-size="10.00">precice/types.hpp</text>
</a>
</g>
</g>
<!-- Node36&#45;&gt;Node43 -->
<g id="edge63" class="edge">
<title>Node36&#45;&gt;Node43</title>
<path fill="none" stroke="midnightblue" d="M1063.67,-408.98C1074.85,-399.61 1093.02,-384.38 1106.59,-373.01"/>
<polygon fill="midnightblue" stroke="midnightblue" points="1108.93,-375.61 1114.35,-366.51 1104.43,-370.25 1108.93,-375.61"/>
</g>
<!-- Node44 -->
<g id="node44" class="node">
<title>Node44</title>
<g id="a_node44"><a xlink:title=" ">
<polygon fill="white" stroke="#bfbfbf" points="1194.5,-347.5 1194.5,-366.5 1238.5,-366.5 1238.5,-347.5 1194.5,-347.5"/>
<text text-anchor="middle" x="1216.5" y="-354.5" font-family="Helvetica,sans-Serif" font-size="10.00">mpi.h</text>
</a>
</g>
</g>
<!-- Node36&#45;&gt;Node44 -->
<g id="edge64" class="edge">
<title>Node36&#45;&gt;Node44</title>
<path fill="none" stroke="midnightblue" d="M1076.85,-408.98C1105.21,-398.62 1153.17,-381.12 1184.83,-369.56"/>
<polygon fill="midnightblue" stroke="midnightblue" points="1186.3,-372.75 1194.49,-366.03 1183.9,-366.17 1186.3,-372.75"/>
</g>
<!-- Node40&#45;&gt;Node17 -->
<g id="edge57" class="edge">
<title>Node40&#45;&gt;Node17</title>
<path fill="none" stroke="midnightblue" d="M900.87,-347.45C1003.47,-325.43 1265.52,-263.94 1323.5,-199 1337.44,-183.39 1341.11,-158.97 1341.83,-142.04"/>
<polygon fill="midnightblue" stroke="midnightblue" points="1345.34,-141.76 1341.95,-131.72 1338.34,-141.68 1345.34,-141.76"/>
</g>
<!-- Node40&#45;&gt;Node38 -->
<g id="edge56" class="edge">
<title>Node40&#45;&gt;Node38</title>
<path fill="none" stroke="midnightblue" d="M852.73,-347.08C846.94,-339.46 838.44,-328.26 831.36,-318.94"/>
<polygon fill="midnightblue" stroke="midnightblue" points="833.98,-316.6 825.14,-310.75 828.4,-320.83 833.98,-316.6"/>
</g>
<!-- Node41 -->
<g id="node41" class="node">
<title>Node41</title>
<g id="a_node41"><a xlink:href="LogMacros_8hpp.html" target="_top" xlink:title=" ">
<polygon fill="white" stroke="black" points="887.5,-291.5 887.5,-310.5 977.5,-310.5 977.5,-291.5 887.5,-291.5"/>
<text text-anchor="middle" x="932.5" y="-298.5" font-family="Helvetica,sans-Serif" font-size="10.00">LogMacros.hpp</text>
</a>
</g>
</g>
<!-- Node40&#45;&gt;Node41 -->
<g id="edge58" class="edge">
<title>Node40&#45;&gt;Node41</title>
<path fill="none" stroke="midnightblue" d="M871.23,-347.32C882.34,-339.11 899.24,-326.6 912.48,-316.81"/>
<polygon fill="midnightblue" stroke="midnightblue" points="914.6,-319.59 920.56,-310.83 910.44,-313.97 914.6,-319.59"/>
</g>
<!-- Node41&#45;&gt;Node18 -->
<g id="edge59" class="edge">
<title>Node41&#45;&gt;Node18</title>
<path fill="none" stroke="midnightblue" d="M938.98,-291.13C949.54,-277.27 971.8,-250.45 996.5,-235 1006.29,-228.88 1067.93,-209.01 1109.08,-196.1"/>
<polygon fill="midnightblue" stroke="midnightblue" points="1110.3,-199.38 1118.8,-193.06 1108.21,-192.7 1110.3,-199.38"/>
</g>
<!-- Node41&#45;&gt;Node32 -->
<g id="edge60" class="edge">
<title>Node41&#45;&gt;Node32</title>
<path fill="none" stroke="midnightblue" d="M922.38,-291.32C912.97,-283.26 898.76,-271.08 887.43,-261.37"/>
<polygon fill="midnightblue" stroke="midnightblue" points="889.68,-258.68 879.81,-254.83 885.12,-264 889.68,-258.68"/>
</g>
<!-- Node42 -->
<g id="node42" class="node">
<title>Node42</title>
<g id="a_node42"><a xlink:href="Tracer_8hpp.html" target="_top" xlink:title=" ">
<polygon fill="white" stroke="black" points="1005,-235.5 1005,-254.5 1110,-254.5 1110,-235.5 1005,-235.5"/>
<text text-anchor="middle" x="1057.5" y="-242.5" font-family="Helvetica,sans-Serif" font-size="10.00">logging/Tracer.hpp</text>
</a>
</g>
</g>
<!-- Node41&#45;&gt;Node42 -->
<g id="edge61" class="edge">
<title>Node41&#45;&gt;Node42</title>
<path fill="none" stroke="midnightblue" d="M952.31,-291.44C972.79,-282.6 1004.98,-268.69 1028.36,-258.59"/>
<polygon fill="midnightblue" stroke="midnightblue" points="1029.99,-261.7 1037.79,-254.52 1027.22,-255.27 1029.99,-261.7"/>
</g>
<!-- Node42&#45;&gt;Node40 -->
<g id="edge62" class="edge">
<title>Node42&#45;&gt;Node40</title>
<path fill="none" stroke="midnightblue" d="M1050.07,-254.78C1038.01,-268.51 1012.86,-295.17 986.5,-311 961.27,-326.15 930.17,-337.28 905.06,-344.68"/>
<polygon fill="midnightblue" stroke="midnightblue" points="904.06,-341.32 895.41,-347.43 905.98,-348.06 904.06,-341.32"/>
</g>
<!-- Node45&#45;&gt;Node19 -->
<g id="edge66" class="edge">
<title>Node45&#45;&gt;Node19</title>
<path fill="none" stroke="midnightblue" d="M1484.17,-291.46C1473.59,-264.31 1440.53,-179.51 1425.76,-141.62"/>
<polygon fill="midnightblue" stroke="midnightblue" points="1428.85,-139.91 1421.96,-131.87 1422.33,-142.46 1428.85,-139.91"/>
</g>
</g>
</svg>
