<?xml version="1.0" encoding="UTF-8" standalone="no"?>
<!DOCTYPE svg PUBLIC "-//W3C//DTD SVG 1.1//EN"
 "http://www.w3.org/Graphics/SVG/1.1/DTD/svg11.dtd">
<!-- Generated by graphviz version 2.43.0 (0)
 -->
<!-- Title: src/profiling/EventUtils.hpp Pages: 1 -->
<svg width="1806pt" height="554pt"
 viewBox="0.00 0.00 1805.50 554.00" xmlns="http://www.w3.org/2000/svg" xmlns:xlink="http://www.w3.org/1999/xlink">
<g id="graph0" class="graph" transform="scale(1 1) rotate(0) translate(4 550)">
<title>src/profiling/EventUtils.hpp</title>
<polygon fill="white" stroke="transparent" points="-4,4 -4,-550 1801.5,-550 1801.5,4 -4,4"/>
<!-- Node1 -->
<g id="node1" class="node">
<title>Node1</title>
<g id="a_node1"><a xlink:title=" ">
<polygon fill="#bfbfbf" stroke="black" points="310,-526.5 310,-545.5 458,-545.5 458,-526.5 310,-526.5"/>
<text text-anchor="middle" x="384" y="-533.5" font-family="Helvetica,sans-Serif" font-size="10.00">src/profiling/EventUtils.hpp</text>
</a>
</g>
</g>
<!-- Node2 -->
<g id="node2" class="node">
<title>Node2</title>
<g id="a_node2"><a xlink:title=" ">
<polygon fill="white" stroke="#bfbfbf" points="28,-409 28,-428 78,-428 78,-409 28,-409"/>
<text text-anchor="middle" x="53" y="-416" font-family="Helvetica,sans-Serif" font-size="10.00">chrono</text>
</a>
</g>
</g>
<!-- Node1&#45;&gt;Node2 -->
<g id="edge1" class="edge">
<title>Node1&#45;&gt;Node2</title>
<path fill="none" stroke="midnightblue" d="M309.97,-533.76C256.06,-530.16 182.68,-519.55 125,-490 100.04,-477.21 78.11,-452.79 65.2,-436.33"/>
<polygon fill="midnightblue" stroke="midnightblue" points="67.81,-433.98 58.99,-428.12 62.23,-438.21 67.81,-433.98"/>
</g>
<!-- Node3 -->
<g id="node3" class="node">
<title>Node3</title>
<g id="a_node3"><a xlink:title=" ">
<polygon fill="white" stroke="#bfbfbf" points="849.5,-470.5 849.5,-489.5 902.5,-489.5 902.5,-470.5 849.5,-470.5"/>
<text text-anchor="middle" x="876" y="-477.5" font-family="Helvetica,sans-Serif" font-size="10.00">cstddef</text>
</a>
</g>
</g>
<!-- Node1&#45;&gt;Node3 -->
<g id="edge2" class="edge">
<title>Node1&#45;&gt;Node3</title>
<path fill="none" stroke="midnightblue" d="M458.09,-531.21C546.75,-525.89 699.76,-514.22 839.32,-490.07"/>
<polygon fill="midnightblue" stroke="midnightblue" points="840.1,-493.48 849.34,-488.31 838.88,-486.59 840.1,-493.48"/>
</g>
<!-- Node4 -->
<g id="node4" class="node">
<title>Node4</title>
<g id="a_node4"><a xlink:title=" ">
<polygon fill="white" stroke="#bfbfbf" points="920.5,-470.5 920.5,-489.5 975.5,-489.5 975.5,-470.5 920.5,-470.5"/>
<text text-anchor="middle" x="948" y="-477.5" font-family="Helvetica,sans-Serif" font-size="10.00">fstream</text>
</a>
</g>
</g>
<!-- Node1&#45;&gt;Node4 -->
<g id="edge3" class="edge">
<title>Node1&#45;&gt;Node4</title>
<path fill="none" stroke="midnightblue" d="M458.36,-532.41C558.99,-528.07 744.19,-517.15 910.28,-490.06"/>
<polygon fill="midnightblue" stroke="midnightblue" points="910.89,-493.51 920.18,-488.42 909.75,-486.6 910.89,-493.51"/>
</g>
<!-- Node5 -->
<g id="node5" class="node">
<title>Node5</title>
<g id="a_node5"><a xlink:title=" ">
<polygon fill="white" stroke="#bfbfbf" points="374,-347.5 374,-366.5 422,-366.5 422,-347.5 374,-347.5"/>
<text text-anchor="middle" x="398" y="-354.5" font-family="Helvetica,sans-Serif" font-size="10.00">iosfwd</text>
</a>
</g>
</g>
<!-- Node1&#45;&gt;Node5 -->
<g id="edge4" class="edge">
<title>Node1&#45;&gt;Node5</title>
<path fill="none" stroke="midnightblue" d="M380.4,-526.22C376.94,-517.28 371.97,-502.94 370,-490 364.19,-451.77 359.38,-440.18 370,-403 372.9,-392.84 378.83,-382.75 384.49,-374.7"/>
<polygon fill="midnightblue" stroke="midnightblue" points="387.38,-376.69 390.59,-366.59 381.78,-372.48 387.38,-376.69"/>
</g>
<!-- Node6 -->
<g id="node6" class="node">
<title>Node6</title>
<g id="a_node6"><a xlink:title=" ">
<polygon fill="white" stroke="#bfbfbf" points="440,-347.5 440,-366.5 496,-366.5 496,-347.5 440,-347.5"/>
<text text-anchor="middle" x="468" y="-354.5" font-family="Helvetica,sans-Serif" font-size="10.00">optional</text>
</a>
</g>
</g>
<!-- Node1&#45;&gt;Node6 -->
<g id="edge5" class="edge">
<title>Node1&#45;&gt;Node6</title>
<path fill="none" stroke="midnightblue" d="M388.02,-526.33C397.82,-505.19 423.79,-449.35 446,-403 450.33,-393.97 455.22,-383.95 459.28,-375.67"/>
<polygon fill="midnightblue" stroke="midnightblue" points="462.47,-377.13 463.74,-366.61 456.19,-374.03 462.47,-377.13"/>
</g>
<!-- Node7 -->
<g id="node7" class="node">
<title>Node7</title>
<g id="a_node7"><a xlink:title=" ">
<polygon fill="white" stroke="#bfbfbf" points="703,-112.5 703,-131.5 747,-131.5 747,-112.5 703,-112.5"/>
<text text-anchor="middle" x="725" y="-119.5" font-family="Helvetica,sans-Serif" font-size="10.00">string</text>
</a>
</g>
</g>
<!-- Node1&#45;&gt;Node7 -->
<g id="edge6" class="edge">
<title>Node1&#45;&gt;Node7</title>
<path fill="none" stroke="midnightblue" d="M378.46,-526.46C373.13,-517.7 365.38,-503.5 362,-490 346.57,-428.33 331.69,-401.14 365,-347 442.4,-221.22 619.6,-155.01 692.63,-132.25"/>
<polygon fill="midnightblue" stroke="midnightblue" points="694.08,-135.47 702.62,-129.21 692.04,-128.77 694.08,-135.47"/>
</g>
<!-- Node8 -->
<g id="node8" class="node">
<title>Node8</title>
<g id="a_node8"><a xlink:title=" ">
<polygon fill="white" stroke="#bfbfbf" points="271.5,-112.5 271.5,-131.5 344.5,-131.5 344.5,-112.5 271.5,-112.5"/>
<text text-anchor="middle" x="308" y="-119.5" font-family="Helvetica,sans-Serif" font-size="10.00">string_view</text>
</a>
</g>
</g>
<!-- Node1&#45;&gt;Node8 -->
<g id="edge7" class="edge">
<title>Node1&#45;&gt;Node8</title>
<path fill="none" stroke="midnightblue" d="M353.51,-526.41C334.05,-519.48 309.62,-507.9 294,-490 272.23,-465.06 270,-452.6 270,-419.5 270,-419.5 270,-419.5 270,-244 270,-205.81 287.44,-163.83 298.69,-140.72"/>
<polygon fill="midnightblue" stroke="midnightblue" points="301.96,-142.02 303.34,-131.52 295.71,-138.86 301.96,-142.02"/>
</g>
<!-- Node9 -->
<g id="node9" class="node">
<title>Node9</title>
<g id="a_node9"><a xlink:title=" ">
<polygon fill="white" stroke="#bfbfbf" points="993.5,-470.5 993.5,-489.5 1038.5,-489.5 1038.5,-470.5 993.5,-470.5"/>
<text text-anchor="middle" x="1016" y="-477.5" font-family="Helvetica,sans-Serif" font-size="10.00">utility</text>
</a>
</g>
</g>
<!-- Node1&#45;&gt;Node9 -->
<g id="edge8" class="edge">
<title>Node1&#45;&gt;Node9</title>
<path fill="none" stroke="midnightblue" d="M458.18,-534.38C570.33,-532.37 789.68,-524.17 983.36,-489.95"/>
<polygon fill="midnightblue" stroke="midnightblue" points="984.22,-493.35 993.44,-488.14 982.98,-486.46 984.22,-493.35"/>
</g>
<!-- Node10 -->
<g id="node10" class="node">
<title>Node10</title>
<g id="a_node10"><a xlink:title=" ">
<polygon fill="white" stroke="#bfbfbf" points="1056.5,-470.5 1056.5,-489.5 1107.5,-489.5 1107.5,-470.5 1056.5,-470.5"/>
<text text-anchor="middle" x="1082" y="-477.5" font-family="Helvetica,sans-Serif" font-size="10.00">variant</text>
</a>
</g>
</g>
<!-- Node1&#45;&gt;Node10 -->
<g id="edge9" class="edge">
<title>Node1&#45;&gt;Node10</title>
<path fill="none" stroke="midnightblue" d="M458.22,-534.58C579.65,-532.88 828.28,-525.16 1046.46,-489.95"/>
<polygon fill="midnightblue" stroke="midnightblue" points="1047.19,-493.38 1056.49,-488.31 1046.06,-486.47 1047.19,-493.38"/>
</g>
<!-- Node11 -->
<g id="node11" class="node">
<title>Node11</title>
<g id="a_node11"><a xlink:title=" ">
<polygon fill="white" stroke="#bfbfbf" points="360.5,-56.5 360.5,-75.5 407.5,-75.5 407.5,-56.5 360.5,-56.5"/>
<text text-anchor="middle" x="384" y="-63.5" font-family="Helvetica,sans-Serif" font-size="10.00">vector</text>
</a>
</g>
</g>
<!-- Node1&#45;&gt;Node11 -->
<g id="edge10" class="edge">
<title>Node1&#45;&gt;Node11</title>
<path fill="none" stroke="midnightblue" d="M309.83,-533.32C249.59,-529.68 163.52,-519.2 94,-490 45.85,-469.78 0,-471.72 0,-419.5 0,-419.5 0,-419.5 0,-182.5 0,-109.68 256.4,-78.75 350.18,-69.87"/>
<polygon fill="midnightblue" stroke="midnightblue" points="350.63,-73.34 360.27,-68.94 349.99,-66.37 350.63,-73.34"/>
</g>
<!-- Node12 -->
<g id="node12" class="node">
<title>Node12</title>
<g id="a_node12"><a xlink:href="Logger_8hpp.html" target="_top" xlink:title=" ">
<polygon fill="white" stroke="black" points="552.5,-347.5 552.5,-366.5 661.5,-366.5 661.5,-347.5 552.5,-347.5"/>
<text text-anchor="middle" x="607" y="-354.5" font-family="Helvetica,sans-Serif" font-size="10.00">logging/Logger.hpp</text>
</a>
</g>
</g>
<!-- Node1&#45;&gt;Node12 -->
<g id="edge11" class="edge">
<title>Node1&#45;&gt;Node12</title>
<path fill="none" stroke="midnightblue" d="M392.13,-526.33C400.29,-517.48 413.03,-503.2 423,-490 450.87,-453.12 443.64,-431.55 480,-403 500.78,-386.68 527.94,-376.01 551.81,-369.17"/>
<polygon fill="midnightblue" stroke="midnightblue" points="552.73,-372.55 561.46,-366.55 550.9,-365.79 552.73,-372.55"/>
</g>
<!-- Node35 -->
<g id="node35" class="node">
<title>Node35</title>
<g id="a_node35"><a xlink:href="Event_8hpp.html" target="_top" xlink:title=" ">
<polygon fill="white" stroke="black" points="134,-470.5 134,-489.5 242,-489.5 242,-470.5 134,-470.5"/>
<text text-anchor="middle" x="188" y="-477.5" font-family="Helvetica,sans-Serif" font-size="10.00">profiling/Event.hpp</text>
</a>
</g>
</g>
<!-- Node1&#45;&gt;Node35 -->
<g id="edge43" class="edge">
<title>Node1&#45;&gt;Node35</title>
<path fill="none" stroke="midnightblue" d="M352.94,-526.44C319.4,-517.2 265.8,-502.44 228.86,-492.26"/>
<polygon fill="midnightblue" stroke="midnightblue" points="229.48,-488.8 218.91,-489.52 227.62,-495.55 229.48,-488.8"/>
</g>
<!-- Node37 -->
<g id="node37" class="node">
<title>Node37</title>
<g id="a_node37"><a xlink:href="assertion_8hpp.html" target="_top" xlink:title=" ">
<polygon fill="white" stroke="black" points="724.5,-470.5 724.5,-489.5 831.5,-489.5 831.5,-470.5 724.5,-470.5"/>
<text text-anchor="middle" x="778" y="-477.5" font-family="Helvetica,sans-Serif" font-size="10.00">utils/assertion.hpp</text>
</a>
</g>
</g>
<!-- Node1&#45;&gt;Node37 -->
<g id="edge48" class="edge">
<title>Node1&#45;&gt;Node37</title>
<path fill="none" stroke="midnightblue" d="M446.43,-526.44C519.69,-516.4 640.51,-499.84 714.31,-489.73"/>
<polygon fill="midnightblue" stroke="midnightblue" points="714.97,-493.17 724.4,-488.35 714.02,-486.24 714.97,-493.17"/>
</g>
<!-- Node12&#45;&gt;Node8 -->
<g id="edge13" class="edge">
<title>Node12&#45;&gt;Node8</title>
<path fill="none" stroke="midnightblue" d="M596,-347.43C551.5,-312.75 384.4,-182.54 327.28,-138.03"/>
<polygon fill="midnightblue" stroke="midnightblue" points="329.14,-135.03 319.1,-131.65 324.83,-140.55 329.14,-135.03"/>
</g>
<!-- Node13 -->
<g id="node13" class="node">
<title>Node13</title>
<g id="a_node13"><a xlink:title=" ">
<polygon fill="white" stroke="#bfbfbf" points="711,-291.5 711,-310.5 769,-310.5 769,-291.5 711,-291.5"/>
<text text-anchor="middle" x="740" y="-298.5" font-family="Helvetica,sans-Serif" font-size="10.00">memory</text>
</a>
</g>
</g>
<!-- Node12&#45;&gt;Node13 -->
<g id="edge12" class="edge">
<title>Node12&#45;&gt;Node13</title>
<path fill="none" stroke="midnightblue" d="M628.07,-347.44C650.06,-338.52 684.73,-324.44 709.66,-314.32"/>
<polygon fill="midnightblue" stroke="midnightblue" points="711.08,-317.52 719.02,-310.52 708.44,-311.04 711.08,-317.52"/>
</g>
<!-- Node14 -->
<g id="node14" class="node">
<title>Node14</title>
<g id="a_node14"><a xlink:href="LogMacros_8hpp.html" target="_top" xlink:title=" ">
<polygon fill="white" stroke="black" points="603,-291.5 603,-310.5 693,-310.5 693,-291.5 603,-291.5"/>
<text text-anchor="middle" x="648" y="-298.5" font-family="Helvetica,sans-Serif" font-size="10.00">LogMacros.hpp</text>
</a>
</g>
</g>
<!-- Node12&#45;&gt;Node14 -->
<g id="edge14" class="edge">
<title>Node12&#45;&gt;Node14</title>
<path fill="none" stroke="midnightblue" d="M613.77,-347.08C619.56,-339.46 628.06,-328.26 635.14,-318.94"/>
<polygon fill="midnightblue" stroke="midnightblue" points="638.1,-320.83 641.36,-310.75 632.52,-316.6 638.1,-320.83"/>
</g>
<!-- Node15 -->
<g id="node15" class="node">
<title>Node15</title>
<g id="a_node15"><a xlink:href="fmt_8hpp.html" target="_top" xlink:title=" ">
<polygon fill="white" stroke="black" points="1465.5,-174 1465.5,-193 1544.5,-193 1544.5,-174 1465.5,-174"/>
<text text-anchor="middle" x="1505" y="-181" font-family="Helvetica,sans-Serif" font-size="10.00">utils/fmt.hpp</text>
</a>
</g>
</g>
<!-- Node14&#45;&gt;Node15 -->
<g id="edge15" class="edge">
<title>Node14&#45;&gt;Node15</title>
<path fill="none" stroke="midnightblue" d="M693.04,-292.22C696.07,-291.78 699.08,-291.37 702,-291 884.35,-267.87 931.81,-279.33 1114,-255 1237.41,-238.52 1381.19,-210.23 1455.25,-194.98"/>
<polygon fill="midnightblue" stroke="midnightblue" points="1456.14,-198.37 1465.23,-192.91 1454.72,-191.51 1456.14,-198.37"/>
</g>
<!-- Node28 -->
<g id="node28" class="node">
<title>Node28</title>
<g id="a_node28"><a xlink:href="ArgumentFormatter_8hpp.html" target="_top" xlink:title=" ">
<polygon fill="white" stroke="black" points="947.5,-235.5 947.5,-254.5 1104.5,-254.5 1104.5,-235.5 947.5,-235.5"/>
<text text-anchor="middle" x="1026" y="-242.5" font-family="Helvetica,sans-Serif" font-size="10.00">utils/ArgumentFormatter.hpp</text>
</a>
</g>
</g>
<!-- Node14&#45;&gt;Node28 -->
<g id="edge34" class="edge">
<title>Node14&#45;&gt;Node28</title>
<path fill="none" stroke="midnightblue" d="M693.07,-292.39C696.09,-291.91 699.09,-291.44 702,-291 786.99,-278.02 884.78,-264.65 950.5,-255.9"/>
<polygon fill="midnightblue" stroke="midnightblue" points="951.31,-259.32 960.76,-254.53 950.39,-252.38 951.31,-259.32"/>
</g>
<!-- Node34 -->
<g id="node34" class="node">
<title>Node34</title>
<g id="a_node34"><a xlink:href="Tracer_8hpp.html" target="_top" xlink:title=" ">
<polygon fill="white" stroke="black" points="559.5,-235.5 559.5,-254.5 664.5,-254.5 664.5,-235.5 559.5,-235.5"/>
<text text-anchor="middle" x="612" y="-242.5" font-family="Helvetica,sans-Serif" font-size="10.00">logging/Tracer.hpp</text>
</a>
</g>
</g>
<!-- Node14&#45;&gt;Node34 -->
<g id="edge41" class="edge">
<title>Node14&#45;&gt;Node34</title>
<path fill="none" stroke="midnightblue" d="M642.06,-291.08C637.02,-283.53 629.66,-272.49 623.49,-263.23"/>
<polygon fill="midnightblue" stroke="midnightblue" points="626.29,-261.13 617.83,-254.75 620.47,-265.01 626.29,-261.13"/>
</g>
<!-- Node15&#45;&gt;Node7 -->
<g id="edge16" class="edge">
<title>Node15&#45;&gt;Node7</title>
<path fill="none" stroke="midnightblue" d="M1477.48,-173.97C1469.06,-171.67 1459.72,-169.43 1451,-168 1185.86,-124.64 860,-122.27 757.46,-122.71"/>
<polygon fill="midnightblue" stroke="midnightblue" points="757.14,-119.21 747.16,-122.76 757.18,-126.21 757.14,-119.21"/>
</g>
<!-- Node15&#45;&gt;Node8 -->
<g id="edge17" class="edge">
<title>Node15&#45;&gt;Node8</title>
<path fill="none" stroke="midnightblue" d="M1465.3,-174.81C1450.5,-172.23 1433.54,-169.6 1418,-168 1206.75,-146.2 537.52,-128.61 354.6,-124.11"/>
<polygon fill="midnightblue" stroke="midnightblue" points="354.58,-120.61 344.5,-123.87 354.41,-127.61 354.58,-120.61"/>
</g>
<!-- Node16 -->
<g id="node16" class="node">
<title>Node16</title>
<g id="a_node16"><a xlink:title=" ">
<polygon fill="white" stroke="#bfbfbf" points="1398.5,-56.5 1398.5,-75.5 1477.5,-75.5 1477.5,-56.5 1398.5,-56.5"/>
<text text-anchor="middle" x="1438" y="-63.5" font-family="Helvetica,sans-Serif" font-size="10.00">fmt/format.h</text>
</a>
</g>
</g>
<!-- Node15&#45;&gt;Node16 -->
<g id="edge18" class="edge">
<title>Node15&#45;&gt;Node16</title>
<path fill="none" stroke="midnightblue" d="M1492.72,-173.92C1480.73,-164.88 1462.89,-149.54 1453,-132 1444.91,-117.66 1441.18,-99.19 1439.46,-85.61"/>
<polygon fill="midnightblue" stroke="midnightblue" points="1442.93,-85.15 1438.44,-75.55 1435.97,-85.85 1442.93,-85.15"/>
</g>
<!-- Node17 -->
<g id="node17" class="node">
<title>Node17</title>
<g id="a_node17"><a xlink:title=" ">
<polygon fill="white" stroke="#bfbfbf" points="1462,-112.5 1462,-131.5 1548,-131.5 1548,-112.5 1462,-112.5"/>
<text text-anchor="middle" x="1505" y="-119.5" font-family="Helvetica,sans-Serif" font-size="10.00">fmt/ostream.h</text>
</a>
</g>
</g>
<!-- Node15&#45;&gt;Node17 -->
<g id="edge19" class="edge">
<title>Node15&#45;&gt;Node17</title>
<path fill="none" stroke="midnightblue" d="M1505,-173.98C1505,-165.58 1505,-152.48 1505,-141.66"/>
<polygon fill="midnightblue" stroke="midnightblue" points="1508.5,-141.51 1505,-131.51 1501.5,-141.51 1508.5,-141.51"/>
</g>
<!-- Node18 -->
<g id="node18" class="node">
<title>Node18</title>
<g id="a_node18"><a xlink:href="fmtEigen_8hpp.html" target="_top" xlink:title=" ">
<polygon fill="white" stroke="black" points="1566,-112.5 1566,-131.5 1672,-131.5 1672,-112.5 1566,-112.5"/>
<text text-anchor="middle" x="1619" y="-119.5" font-family="Helvetica,sans-Serif" font-size="10.00">utils/fmtEigen.hpp</text>
</a>
</g>
</g>
<!-- Node15&#45;&gt;Node18 -->
<g id="edge20" class="edge">
<title>Node15&#45;&gt;Node18</title>
<path fill="none" stroke="midnightblue" d="M1521.33,-173.98C1540.21,-164.12 1571.51,-147.79 1593.58,-136.27"/>
<polygon fill="midnightblue" stroke="midnightblue" points="1595.45,-139.24 1602.7,-131.51 1592.21,-133.03 1595.45,-139.24"/>
</g>
<!-- Node23 -->
<g id="node23" class="node">
<title>Node23</title>
<g id="a_node23"><a xlink:href="fmtSTL_8hpp.html" target="_top" xlink:title=" ">
<polygon fill="white" stroke="black" points="1246,-112.5 1246,-131.5 1342,-131.5 1342,-112.5 1246,-112.5"/>
<text text-anchor="middle" x="1294" y="-119.5" font-family="Helvetica,sans-Serif" font-size="10.00">utils/fmtSTL.hpp</text>
</a>
</g>
</g>
<!-- Node15&#45;&gt;Node23 -->
<g id="edge27" class="edge">
<title>Node15&#45;&gt;Node23</title>
<path fill="none" stroke="midnightblue" d="M1474.77,-173.98C1437.71,-163.53 1374.81,-145.79 1333.84,-134.23"/>
<polygon fill="midnightblue" stroke="midnightblue" points="1334.75,-130.85 1324.18,-131.51 1332.85,-137.59 1334.75,-130.85"/>
</g>
<!-- Node18&#45;&gt;Node16 -->
<g id="edge23" class="edge">
<title>Node18&#45;&gt;Node16</title>
<path fill="none" stroke="midnightblue" d="M1590.32,-112.44C1559.47,-103.24 1510.27,-88.56 1476.17,-78.39"/>
<polygon fill="midnightblue" stroke="midnightblue" points="1477.13,-75.02 1466.55,-75.52 1475.13,-81.73 1477.13,-75.02"/>
</g>
<!-- Node19 -->
<g id="node19" class="node">
<title>Node19</title>
<g id="a_node19"><a xlink:title=" ">
<polygon fill="white" stroke="#bfbfbf" points="1674.5,-0.5 1674.5,-19.5 1743.5,-19.5 1743.5,-0.5 1674.5,-0.5"/>
<text text-anchor="middle" x="1709" y="-7.5" font-family="Helvetica,sans-Serif" font-size="10.00">Eigen/Core</text>
</a>
</g>
</g>
<!-- Node18&#45;&gt;Node19 -->
<g id="edge21" class="edge">
<title>Node18&#45;&gt;Node19</title>
<path fill="none" stroke="midnightblue" d="M1626.06,-112.37C1641.05,-94.05 1676.23,-51.05 1695.61,-27.36"/>
<polygon fill="midnightblue" stroke="midnightblue" points="1698.35,-29.55 1701.97,-19.59 1692.93,-25.11 1698.35,-29.55"/>
</g>
<!-- Node20 -->
<g id="node20" class="node">
<title>Node20</title>
<g id="a_node20"><a xlink:title=" ">
<polygon fill="white" stroke="#bfbfbf" points="1504,-56.5 1504,-75.5 1568,-75.5 1568,-56.5 1504,-56.5"/>
<text text-anchor="middle" x="1536" y="-63.5" font-family="Helvetica,sans-Serif" font-size="10.00">algorithm</text>
</a>
</g>
</g>
<!-- Node18&#45;&gt;Node20 -->
<g id="edge22" class="edge">
<title>Node18&#45;&gt;Node20</title>
<path fill="none" stroke="midnightblue" d="M1605.66,-112.32C1592.84,-103.98 1573.22,-91.21 1558.06,-81.35"/>
<polygon fill="midnightblue" stroke="midnightblue" points="1559.59,-78.17 1549.3,-75.65 1555.78,-84.04 1559.59,-78.17"/>
</g>
<!-- Node21 -->
<g id="node21" class="node">
<title>Node21</title>
<g id="a_node21"><a xlink:title=" ">
<polygon fill="white" stroke="#bfbfbf" points="1586,-56.5 1586,-75.5 1642,-75.5 1642,-56.5 1586,-56.5"/>
<text text-anchor="middle" x="1614" y="-63.5" font-family="Helvetica,sans-Serif" font-size="10.00">sstream</text>
</a>
</g>
</g>
<!-- Node18&#45;&gt;Node21 -->
<g id="edge24" class="edge">
<title>Node18&#45;&gt;Node21</title>
<path fill="none" stroke="midnightblue" d="M1618.17,-112.08C1617.52,-105.01 1616.58,-94.86 1615.76,-85.99"/>
<polygon fill="midnightblue" stroke="midnightblue" points="1619.22,-85.39 1614.81,-75.75 1612.25,-86.03 1619.22,-85.39"/>
</g>
<!-- Node22 -->
<g id="node22" class="node">
<title>Node22</title>
<g id="a_node22"><a xlink:href="EigenIO_8hpp.html" target="_top" xlink:title=" ">
<polygon fill="white" stroke="black" points="1698.5,-56.5 1698.5,-75.5 1797.5,-75.5 1797.5,-56.5 1698.5,-56.5"/>
<text text-anchor="middle" x="1748" y="-63.5" font-family="Helvetica,sans-Serif" font-size="10.00">utils/EigenIO.hpp</text>
</a>
</g>
</g>
<!-- Node18&#45;&gt;Node22 -->
<g id="edge25" class="edge">
<title>Node18&#45;&gt;Node22</title>
<path fill="none" stroke="midnightblue" d="M1639.44,-112.44C1660.67,-103.56 1694.1,-89.56 1718.25,-79.45"/>
<polygon fill="midnightblue" stroke="midnightblue" points="1719.78,-82.61 1727.66,-75.52 1717.08,-76.15 1719.78,-82.61"/>
</g>
<!-- Node22&#45;&gt;Node19 -->
<g id="edge26" class="edge">
<title>Node22&#45;&gt;Node19</title>
<path fill="none" stroke="midnightblue" d="M1741.56,-56.08C1736.05,-48.46 1727.97,-37.26 1721.24,-27.94"/>
<polygon fill="midnightblue" stroke="midnightblue" points="1724.01,-25.81 1715.32,-19.75 1718.34,-29.91 1724.01,-25.81"/>
</g>
<!-- Node23&#45;&gt;Node11 -->
<g id="edge33" class="edge">
<title>Node23&#45;&gt;Node11</title>
<path fill="none" stroke="midnightblue" d="M1245.72,-118.13C1082.95,-108.48 556.83,-77.26 417.9,-69.01"/>
<polygon fill="midnightblue" stroke="midnightblue" points="418.03,-65.51 407.84,-68.41 417.62,-72.5 418.03,-65.51"/>
</g>
<!-- Node23&#45;&gt;Node16 -->
<g id="edge30" class="edge">
<title>Node23&#45;&gt;Node16</title>
<path fill="none" stroke="midnightblue" d="M1316.82,-112.44C1340.83,-103.44 1378.83,-89.19 1405.87,-79.05"/>
<polygon fill="midnightblue" stroke="midnightblue" points="1407.16,-82.3 1415.29,-75.52 1404.7,-75.75 1407.16,-82.3"/>
</g>
<!-- Node24 -->
<g id="node24" class="node">
<title>Node24</title>
<g id="a_node24"><a xlink:title=" ">
<polygon fill="white" stroke="#bfbfbf" points="1273,-56.5 1273,-75.5 1315,-75.5 1315,-56.5 1273,-56.5"/>
<text text-anchor="middle" x="1294" y="-63.5" font-family="Helvetica,sans-Serif" font-size="10.00">array</text>
</a>
</g>
</g>
<!-- Node23&#45;&gt;Node24 -->
<g id="edge28" class="edge">
<title>Node23&#45;&gt;Node24</title>
<path fill="none" stroke="midnightblue" d="M1294,-112.08C1294,-105.01 1294,-94.86 1294,-85.99"/>
<polygon fill="midnightblue" stroke="midnightblue" points="1297.5,-85.75 1294,-75.75 1290.5,-85.75 1297.5,-85.75"/>
</g>
<!-- Node25 -->
<g id="node25" class="node">
<title>Node25</title>
<g id="a_node25"><a xlink:title=" ">
<polygon fill="white" stroke="#bfbfbf" points="1333.5,-56.5 1333.5,-75.5 1380.5,-75.5 1380.5,-56.5 1333.5,-56.5"/>
<text text-anchor="middle" x="1357" y="-63.5" font-family="Helvetica,sans-Serif" font-size="10.00">deque</text>
</a>
</g>
</g>
<!-- Node23&#45;&gt;Node25 -->
<g id="edge29" class="edge">
<title>Node23&#45;&gt;Node25</title>
<path fill="none" stroke="midnightblue" d="M1304.12,-112.32C1313.53,-104.26 1327.74,-92.08 1339.07,-82.37"/>
<polygon fill="midnightblue" stroke="midnightblue" points="1341.38,-85 1346.69,-75.83 1336.82,-79.68 1341.38,-85"/>
</g>
<!-- Node26 -->
<g id="node26" class="node">
<title>Node26</title>
<g id="a_node26"><a xlink:title=" ">
<polygon fill="white" stroke="#bfbfbf" points="1167,-56.5 1167,-75.5 1205,-75.5 1205,-56.5 1167,-56.5"/>
<text text-anchor="middle" x="1186" y="-63.5" font-family="Helvetica,sans-Serif" font-size="10.00">map</text>
</a>
</g>
</g>
<!-- Node23&#45;&gt;Node26 -->
<g id="edge31" class="edge">
<title>Node23&#45;&gt;Node26</title>
<path fill="none" stroke="midnightblue" d="M1276.65,-112.32C1259.33,-103.66 1232.48,-90.24 1212.5,-80.25"/>
<polygon fill="midnightblue" stroke="midnightblue" points="1213.82,-77 1203.31,-75.65 1210.69,-83.26 1213.82,-77"/>
</g>
<!-- Node27 -->
<g id="node27" class="node">
<title>Node27</title>
<g id="a_node27"><a xlink:title=" ">
<polygon fill="white" stroke="#bfbfbf" points="1223,-56.5 1223,-75.5 1255,-75.5 1255,-56.5 1223,-56.5"/>
<text text-anchor="middle" x="1239" y="-63.5" font-family="Helvetica,sans-Serif" font-size="10.00">set</text>
</a>
</g>
</g>
<!-- Node23&#45;&gt;Node27 -->
<g id="edge32" class="edge">
<title>Node23&#45;&gt;Node27</title>
<path fill="none" stroke="midnightblue" d="M1284.92,-112.08C1276.83,-104.14 1264.8,-92.34 1255.09,-82.8"/>
<polygon fill="midnightblue" stroke="midnightblue" points="1257.5,-80.26 1247.91,-75.75 1252.6,-85.25 1257.5,-80.26"/>
</g>
<!-- Node28&#45;&gt;Node15 -->
<g id="edge40" class="edge">
<title>Node28&#45;&gt;Node15</title>
<path fill="none" stroke="midnightblue" d="M1104.61,-236.16C1183.87,-227.98 1309.63,-214.24 1418,-199 1430.08,-197.3 1443.07,-195.25 1455.24,-193.24"/>
<polygon fill="midnightblue" stroke="midnightblue" points="1455.94,-196.67 1465.22,-191.57 1454.78,-189.77 1455.94,-196.67"/>
</g>
<!-- Node29 -->
<g id="node29" class="node">
<title>Node29</title>
<g id="a_node29"><a xlink:title=" ">
<polygon fill="white" stroke="#bfbfbf" points="1171,-168.5 1171,-198.5 1281,-198.5 1281,-168.5 1171,-168.5"/>
<text text-anchor="start" x="1179" y="-186.5" font-family="Helvetica,sans-Serif" font-size="10.00">boost/preprocessor</text>
<text text-anchor="middle" x="1226" y="-175.5" font-family="Helvetica,sans-Serif" font-size="10.00">/control/if.hpp</text>
</a>
</g>
</g>
<!-- Node28&#45;&gt;Node29 -->
<g id="edge35" class="edge">
<title>Node28&#45;&gt;Node29</title>
<path fill="none" stroke="midnightblue" d="M1054.66,-235.48C1084.4,-226.63 1131.72,-212.55 1169.1,-201.43"/>
<polygon fill="midnightblue" stroke="midnightblue" points="1170.28,-204.73 1178.86,-198.52 1168.28,-198.02 1170.28,-204.73"/>
</g>
<!-- Node30 -->
<g id="node30" class="node">
<title>Node30</title>
<g id="a_node30"><a xlink:title=" ">
<polygon fill="white" stroke="#bfbfbf" points="1041.5,-168.5 1041.5,-198.5 1152.5,-198.5 1152.5,-168.5 1041.5,-168.5"/>
<text text-anchor="start" x="1049.5" y="-186.5" font-family="Helvetica,sans-Serif" font-size="10.00">boost/preprocessor</text>
<text text-anchor="middle" x="1097" y="-175.5" font-family="Helvetica,sans-Serif" font-size="10.00">/seq/for_each_i.hpp</text>
</a>
</g>
</g>
<!-- Node28&#45;&gt;Node30 -->
<g id="edge36" class="edge">
<title>Node28&#45;&gt;Node30</title>
<path fill="none" stroke="midnightblue" d="M1036.17,-235.48C1045.61,-227.57 1060.03,-215.48 1072.46,-205.07"/>
<polygon fill="midnightblue" stroke="midnightblue" points="1074.85,-207.63 1080.27,-198.52 1070.35,-202.26 1074.85,-207.63"/>
</g>
<!-- Node31 -->
<g id="node31" class="node">
<title>Node31</title>
<g id="a_node31"><a xlink:title=" ">
<polygon fill="white" stroke="#bfbfbf" points="1299,-168.5 1299,-198.5 1409,-198.5 1409,-168.5 1299,-168.5"/>
<text text-anchor="start" x="1307" y="-186.5" font-family="Helvetica,sans-Serif" font-size="10.00">boost/preprocessor</text>
<text text-anchor="middle" x="1354" y="-175.5" font-family="Helvetica,sans-Serif" font-size="10.00">/stringize.hpp</text>
</a>
</g>
</g>
<!-- Node28&#45;&gt;Node31 -->
<g id="edge37" class="edge">
<title>Node28&#45;&gt;Node31</title>
<path fill="none" stroke="midnightblue" d="M1081.27,-235.47C1132.6,-227.34 1211.38,-214.37 1288.94,-199.15"/>
<polygon fill="midnightblue" stroke="midnightblue" points="1289.75,-202.56 1298.88,-197.19 1288.39,-195.69 1289.75,-202.56"/>
</g>
<!-- Node32 -->
<g id="node32" class="node">
<title>Node32</title>
<g id="a_node32"><a xlink:title=" ">
<polygon fill="white" stroke="#bfbfbf" points="753.5,-168.5 753.5,-198.5 868.5,-198.5 868.5,-168.5 753.5,-168.5"/>
<text text-anchor="start" x="761.5" y="-186.5" font-family="Helvetica,sans-Serif" font-size="10.00">boost/preprocessor</text>
<text text-anchor="middle" x="811" y="-175.5" font-family="Helvetica,sans-Serif" font-size="10.00">/variadic/to_seq.hpp</text>
</a>
</g>
</g>
<!-- Node28&#45;&gt;Node32 -->
<g id="edge38" class="edge">
<title>Node28&#45;&gt;Node32</title>
<path fill="none" stroke="midnightblue" d="M995.2,-235.48C963.02,-226.57 911.7,-212.37 871.4,-201.22"/>
<polygon fill="midnightblue" stroke="midnightblue" points="872.24,-197.82 861.67,-198.52 870.38,-204.56 872.24,-197.82"/>
</g>
<!-- Node33 -->
<g id="node33" class="node">
<title>Node33</title>
<g id="a_node33"><a xlink:title=" ">
<polygon fill="white" stroke="#bfbfbf" points="887,-174 887,-193 1023,-193 1023,-174 887,-174"/>
<text text-anchor="middle" x="955" y="-181" font-family="Helvetica,sans-Serif" font-size="10.00">boost/vmd/is_empty.hpp</text>
</a>
</g>
</g>
<!-- Node28&#45;&gt;Node33 -->
<g id="edge39" class="edge">
<title>Node28&#45;&gt;Node33</title>
<path fill="none" stroke="midnightblue" d="M1015.83,-235.48C1004.65,-226.11 986.48,-210.88 972.91,-199.51"/>
<polygon fill="midnightblue" stroke="midnightblue" points="975.07,-196.75 965.15,-193.01 970.57,-202.11 975.07,-196.75"/>
</g>
<!-- Node34&#45;&gt;Node12 -->
<g id="edge42" class="edge">
<title>Node34&#45;&gt;Node12</title>
<path fill="none" stroke="midnightblue" d="M607.38,-254.66C602.94,-263.51 596.55,-277.78 594,-291 590.97,-306.71 595.07,-324.54 599.45,-337.54"/>
<polygon fill="midnightblue" stroke="midnightblue" points="596.27,-339.03 603.04,-347.18 602.82,-336.58 596.27,-339.03"/>
</g>
<!-- Node35&#45;&gt;Node2 -->
<g id="edge44" class="edge">
<title>Node35&#45;&gt;Node2</title>
<path fill="none" stroke="midnightblue" d="M168.66,-470.48C145.9,-460.45 107.91,-443.7 81.71,-432.15"/>
<polygon fill="midnightblue" stroke="midnightblue" points="82.87,-428.84 72.31,-428.01 80.05,-435.24 82.87,-428.84"/>
</g>
<!-- Node35&#45;&gt;Node7 -->
<g id="edge45" class="edge">
<title>Node35&#45;&gt;Node7</title>
<path fill="none" stroke="midnightblue" d="M193.14,-470.5C218.61,-429.22 335.95,-248.37 484,-168 551.81,-131.19 644.44,-123.95 692.73,-122.85"/>
<polygon fill="midnightblue" stroke="midnightblue" points="692.95,-126.35 702.9,-122.7 692.84,-119.35 692.95,-126.35"/>
</g>
<!-- Node35&#45;&gt;Node8 -->
<g id="edge46" class="edge">
<title>Node35&#45;&gt;Node8</title>
<path fill="none" stroke="midnightblue" d="M188.71,-470.5C190.3,-450.76 194,-400.28 194,-358 194,-358 194,-358 194,-244 194,-193.35 247.58,-155.28 281.27,-136.34"/>
<polygon fill="midnightblue" stroke="midnightblue" points="283.06,-139.36 290.19,-131.52 279.73,-133.2 283.06,-139.36"/>
</g>
<!-- Node36 -->
<g id="node36" class="node">
<title>Node36</title>
<g id="a_node36"><a xlink:title=" ">
<polygon fill="white" stroke="#bfbfbf" points="96.5,-409 96.5,-428 165.5,-428 165.5,-409 96.5,-409"/>
<text text-anchor="middle" x="131" y="-416" font-family="Helvetica,sans-Serif" font-size="10.00">type_traits</text>
</a>
</g>
</g>
<!-- Node35&#45;&gt;Node36 -->
<g id="edge47" class="edge">
<title>Node35&#45;&gt;Node36</title>
<path fill="none" stroke="midnightblue" d="M179.83,-470.48C171.11,-461.37 157.1,-446.74 146.31,-435.48"/>
<polygon fill="midnightblue" stroke="midnightblue" points="148.6,-432.81 139.15,-428.01 143.54,-437.65 148.6,-432.81"/>
</g>
<!-- Node37&#45;&gt;Node8 -->
<g id="edge51" class="edge">
<title>Node37&#45;&gt;Node8</title>
<path fill="none" stroke="midnightblue" d="M724.33,-476.96C663.51,-473.27 562.17,-462.95 480,-434 389.11,-401.98 308,-398.36 308,-302 308,-302 308,-302 308,-244 308,-207.71 308,-165.31 308,-141.56"/>
<polygon fill="midnightblue" stroke="midnightblue" points="311.5,-141.51 308,-131.51 304.5,-141.51 311.5,-141.51"/>
</g>
<!-- Node37&#45;&gt;Node15 -->
<g id="edge52" class="edge">
<title>Node37&#45;&gt;Node15</title>
<path fill="none" stroke="midnightblue" d="M831.58,-471.06C834.77,-470.68 837.92,-470.32 841,-470 964.15,-457.24 1278.79,-470.82 1397,-434 1459.8,-414.44 1524,-423.78 1524,-358 1524,-358 1524,-358 1524,-300 1524,-265.4 1515.6,-225.74 1509.97,-203.05"/>
<polygon fill="midnightblue" stroke="midnightblue" points="1513.29,-201.92 1507.41,-193.11 1506.51,-203.67 1513.29,-201.92"/>
</g>
<!-- Node37&#45;&gt;Node28 -->
<g id="edge58" class="edge">
<title>Node37&#45;&gt;Node28</title>
<path fill="none" stroke="midnightblue" d="M825.59,-470.43C851.73,-463.86 883.5,-452.66 907,-434 966.47,-386.78 1004.78,-301.21 1019.36,-264.04"/>
<polygon fill="midnightblue" stroke="midnightblue" points="1022.69,-265.13 1022.98,-254.54 1016.15,-262.64 1022.69,-265.13"/>
</g>
<!-- Node37&#45;&gt;Node29 -->
<g id="edge55" class="edge">
<title>Node37&#45;&gt;Node29</title>
<path fill="none" stroke="midnightblue" d="M831.59,-471.11C834.77,-470.71 837.93,-470.34 841,-470 891.52,-464.4 1258.2,-466.83 1297,-434 1323.58,-411.51 1316,-392.82 1316,-358 1316,-358 1316,-358 1316,-300 1316,-259.86 1281.76,-225.29 1255.51,-204.7"/>
<polygon fill="midnightblue" stroke="midnightblue" points="1257.42,-201.75 1247.33,-198.51 1253.2,-207.33 1257.42,-201.75"/>
</g>
<!-- Node37&#45;&gt;Node31 -->
<g id="edge56" class="edge">
<title>Node37&#45;&gt;Node31</title>
<path fill="none" stroke="midnightblue" d="M831.59,-471.1C834.77,-470.7 837.92,-470.33 841,-470 894.06,-464.22 1276.33,-464.69 1320,-434 1350.28,-412.72 1354,-395 1354,-358 1354,-358 1354,-358 1354,-300 1354,-268.49 1354,-232.16 1354,-208.78"/>
<polygon fill="midnightblue" stroke="midnightblue" points="1357.5,-208.72 1354,-198.72 1350.5,-208.72 1357.5,-208.72"/>
</g>
<!-- Node38 -->
<g id="node38" class="node">
<title>Node38</title>
<g id="a_node38"><a xlink:title=" ">
<polygon fill="white" stroke="#bfbfbf" points="488.5,-409 488.5,-428 537.5,-428 537.5,-409 488.5,-409"/>
<text text-anchor="middle" x="513" y="-416" font-family="Helvetica,sans-Serif" font-size="10.00">cstdlib</text>
</a>
</g>
</g>
<!-- Node37&#45;&gt;Node38 -->
<g id="edge49" class="edge">
<title>Node37&#45;&gt;Node38</title>
<path fill="none" stroke="midnightblue" d="M724.47,-471.84C677.14,-464.75 606.57,-452.28 547,-434 544.86,-433.34 542.67,-432.59 540.48,-431.79"/>
<polygon fill="midnightblue" stroke="midnightblue" points="541.67,-428.5 531.09,-428.05 539.08,-435 541.67,-428.5"/>
</g>
<!-- Node39 -->
<g id="node39" class="node">
<title>Node39</title>
<g id="a_node39"><a xlink:title=" ">
<polygon fill="white" stroke="#bfbfbf" points="556,-409 556,-428 616,-428 616,-409 556,-409"/>
<text text-anchor="middle" x="586" y="-416" font-family="Helvetica,sans-Serif" font-size="10.00">iostream</text>
</a>
</g>
</g>
<!-- Node37&#45;&gt;Node39 -->
<g id="edge50" class="edge">
<title>Node37&#45;&gt;Node39</title>
<path fill="none" stroke="midnightblue" d="M747.26,-470.49C716.44,-461.81 667.7,-447.72 626,-434 623.46,-433.16 620.83,-432.27 618.2,-431.36"/>
<polygon fill="midnightblue" stroke="midnightblue" points="619.36,-428.06 608.76,-428.02 617.02,-434.66 619.36,-428.06"/>
</g>
<!-- Node40 -->
<g id="node40" class="node">
<title>Node40</title>
<g id="a_node40"><a xlink:title=" ">
<polygon fill="white" stroke="#bfbfbf" points="634.5,-409 634.5,-428 781.5,-428 781.5,-409 634.5,-409"/>
<text text-anchor="middle" x="708" y="-416" font-family="Helvetica,sans-Serif" font-size="10.00">boost/current_function.hpp</text>
</a>
</g>
</g>
<!-- Node37&#45;&gt;Node40 -->
<g id="edge53" class="edge">
<title>Node37&#45;&gt;Node40</title>
<path fill="none" stroke="midnightblue" d="M767.97,-470.48C756.95,-461.11 739.04,-445.88 725.66,-434.51"/>
<polygon fill="midnightblue" stroke="midnightblue" points="727.9,-431.82 718.01,-428.01 723.36,-437.15 727.9,-431.82"/>
</g>
<!-- Node41 -->
<g id="node41" class="node">
<title>Node41</title>
<g id="a_node41"><a xlink:title=" ">
<polygon fill="white" stroke="#bfbfbf" points="954.5,-403.5 954.5,-433.5 1089.5,-433.5 1089.5,-403.5 954.5,-403.5"/>
<text text-anchor="start" x="962.5" y="-421.5" font-family="Helvetica,sans-Serif" font-size="10.00">boost/preprocessor</text>
<text text-anchor="middle" x="1022" y="-410.5" font-family="Helvetica,sans-Serif" font-size="10.00">/comparison/greater.hpp</text>
</a>
</g>
</g>
<!-- Node37&#45;&gt;Node41 -->
<g id="edge54" class="edge">
<title>Node37&#45;&gt;Node41</title>
<path fill="none" stroke="midnightblue" d="M812.96,-470.48C849.79,-461.49 908.7,-447.13 954.61,-435.93"/>
<polygon fill="midnightblue" stroke="midnightblue" points="955.61,-439.29 964.49,-433.52 953.95,-432.49 955.61,-439.29"/>
</g>
<!-- Node42 -->
<g id="node42" class="node">
<title>Node42</title>
<g id="a_node42"><a xlink:title=" ">
<polygon fill="white" stroke="#bfbfbf" points="1108,-403.5 1108,-433.5 1218,-433.5 1218,-403.5 1108,-403.5"/>
<text text-anchor="start" x="1116" y="-421.5" font-family="Helvetica,sans-Serif" font-size="10.00">boost/preprocessor</text>
<text text-anchor="middle" x="1163" y="-410.5" font-family="Helvetica,sans-Serif" font-size="10.00">/variadic/size.hpp</text>
</a>
</g>
</g>
<!-- Node37&#45;&gt;Node42 -->
<g id="edge57" class="edge">
<title>Node37&#45;&gt;Node42</title>
<path fill="none" stroke="midnightblue" d="M831.61,-471.33C834.79,-470.88 837.94,-470.43 841,-470 952.51,-454.26 983.43,-454.77 1098.04,-434.09"/>
<polygon fill="midnightblue" stroke="midnightblue" points="1098.69,-437.53 1107.9,-432.29 1097.44,-430.64 1098.69,-437.53"/>
</g>
<!-- Node43 -->
<g id="node43" class="node">
<title>Node43</title>
<g id="a_node43"><a xlink:href="Parallel_8hpp.html" target="_top" xlink:title=" ">
<polygon fill="white" stroke="black" points="800,-409 800,-428 898,-428 898,-409 800,-409"/>
<text text-anchor="middle" x="849" y="-416" font-family="Helvetica,sans-Serif" font-size="10.00">utils/Parallel.hpp</text>
</a>
</g>
</g>
<!-- Node37&#45;&gt;Node43 -->
<g id="edge59" class="edge">
<title>Node37&#45;&gt;Node43</title>
<path fill="none" stroke="midnightblue" d="M788.17,-470.48C799.35,-461.11 817.52,-445.88 831.09,-434.51"/>
<polygon fill="midnightblue" stroke="midnightblue" points="833.43,-437.11 838.85,-428.01 828.93,-431.75 833.43,-437.11"/>
</g>
<!-- Node46 -->
<g id="node46" class="node">
<title>Node46</title>
<g id="a_node46"><a xlink:href="stacktrace_8hpp.html" target="_top" xlink:title=" ">
<polygon fill="white" stroke="black" points="1382.5,-291.5 1382.5,-310.5 1495.5,-310.5 1495.5,-291.5 1382.5,-291.5"/>
<text text-anchor="middle" x="1439" y="-298.5" font-family="Helvetica,sans-Serif" font-size="10.00">utils/stacktrace.hpp</text>
</a>
</g>
</g>
<!-- Node37&#45;&gt;Node46 -->
<g id="edge68" class="edge">
<title>Node37&#45;&gt;Node46</title>
<path fill="none" stroke="midnightblue" d="M831.58,-471.07C834.77,-470.69 837.92,-470.32 841,-470 899.37,-463.85 1318.67,-465.81 1368,-434 1408.53,-407.87 1427.59,-350.39 1435.02,-320.65"/>
<polygon fill="midnightblue" stroke="midnightblue" points="1438.47,-321.27 1437.32,-310.73 1431.65,-319.68 1438.47,-321.27"/>
</g>
<!-- Node47 -->
<g id="node47" class="node">
<title>Node47</title>
<g id="a_node47"><a xlink:title=" ">
<polygon fill="white" stroke="#bfbfbf" points="1236,-409 1236,-428 1288,-428 1288,-409 1236,-409"/>
<text text-anchor="middle" x="1262" y="-416" font-family="Helvetica,sans-Serif" font-size="10.00">cassert</text>
</a>
</g>
</g>
<!-- Node37&#45;&gt;Node47 -->
<g id="edge70" class="edge">
<title>Node37&#45;&gt;Node47</title>
<path fill="none" stroke="midnightblue" d="M831.59,-471.16C834.77,-470.75 837.93,-470.36 841,-470 1012.11,-449.81 1059.76,-475.44 1227,-434 1229.51,-433.38 1232.08,-432.6 1234.63,-431.74"/>
<polygon fill="midnightblue" stroke="midnightblue" points="1236.09,-434.93 1244.18,-428.09 1233.59,-428.39 1236.09,-434.93"/>
</g>
<!-- Node43&#45;&gt;Node5 -->
<g id="edge60" class="edge">
<title>Node43&#45;&gt;Node5</title>
<path fill="none" stroke="midnightblue" d="M818.47,-408.99C809.66,-406.77 800,-404.57 791,-403 635.83,-375.99 590.95,-395.42 432.17,-366.91"/>
<polygon fill="midnightblue" stroke="midnightblue" points="432.51,-363.41 422.04,-365.05 431.25,-370.3 432.51,-363.41"/>
</g>
<!-- Node43&#45;&gt;Node6 -->
<g id="edge62" class="edge">
<title>Node43&#45;&gt;Node6</title>
<path fill="none" stroke="midnightblue" d="M817.84,-409C809.2,-406.83 799.77,-404.65 791,-403 667.27,-379.69 634.11,-388.21 510,-367 508.76,-366.79 507.5,-366.56 506.23,-366.33"/>
<polygon fill="midnightblue" stroke="midnightblue" points="506.89,-362.9 496.4,-364.42 505.55,-369.77 506.89,-362.9"/>
</g>
<!-- Node43&#45;&gt;Node7 -->
<g id="edge63" class="edge">
<title>Node43&#45;&gt;Node7</title>
<path fill="none" stroke="midnightblue" d="M860.96,-408.89C877.15,-396.1 902.94,-370.99 893,-347 857.4,-261.06 791.33,-279.66 745,-199 734.72,-181.1 729.61,-157.82 727.14,-141.76"/>
<polygon fill="midnightblue" stroke="midnightblue" points="730.57,-140.98 725.78,-131.53 723.63,-141.9 730.57,-140.98"/>
</g>
<!-- Node43&#45;&gt;Node11 -->
<g id="edge64" class="edge">
<title>Node43&#45;&gt;Node11</title>
<path fill="none" stroke="midnightblue" d="M817.22,-408.95C808.74,-406.83 799.55,-404.69 791,-403 682.16,-381.52 646.35,-409.8 544,-367 523.44,-358.4 384,-268.29 384,-246 384,-246 384,-246 384,-182.5 384,-148.36 384,-108.55 384,-85.71"/>
<polygon fill="midnightblue" stroke="midnightblue" points="387.5,-85.69 384,-75.69 380.5,-85.69 387.5,-85.69"/>
</g>
<!-- Node43&#45;&gt;Node12 -->
<g id="edge65" class="edge">
<title>Node43&#45;&gt;Node12</title>
<path fill="none" stroke="midnightblue" d="M814.96,-408.96C807.1,-406.99 798.76,-404.92 791,-403 743.73,-391.31 689.58,-378.09 652.33,-369.02"/>
<polygon fill="midnightblue" stroke="midnightblue" points="652.83,-365.54 642.29,-366.57 651.18,-372.34 652.83,-365.54"/>
</g>
<!-- Node43&#45;&gt;Node13 -->
<g id="edge61" class="edge">
<title>Node43&#45;&gt;Node13</title>
<path fill="none" stroke="midnightblue" d="M819.77,-408.91C780.71,-397.15 715.61,-376.41 709,-367 698.19,-351.61 710.8,-331.85 723.03,-318.18"/>
<polygon fill="midnightblue" stroke="midnightblue" points="725.6,-320.55 730.01,-310.92 720.55,-315.7 725.6,-320.55"/>
</g>
<!-- Node44 -->
<g id="node44" class="node">
<title>Node44</title>
<g id="a_node44"><a xlink:href="types_8hpp.html" target="_top" xlink:title=" ">
<polygon fill="white" stroke="black" points="780.5,-347.5 780.5,-366.5 883.5,-366.5 883.5,-347.5 780.5,-347.5"/>
<text text-anchor="middle" x="832" y="-354.5" font-family="Helvetica,sans-Serif" font-size="10.00">precice/types.hpp</text>
</a>
</g>
</g>
<!-- Node43&#45;&gt;Node44 -->
<g id="edge66" class="edge">
<title>Node43&#45;&gt;Node44</title>
<path fill="none" stroke="midnightblue" d="M846.56,-408.98C844.14,-400.49 840.34,-387.2 837.23,-376.32"/>
<polygon fill="midnightblue" stroke="midnightblue" points="840.54,-375.16 834.43,-366.51 833.81,-377.09 840.54,-375.16"/>
</g>
<!-- Node45 -->
<g id="node45" class="node">
<title>Node45</title>
<g id="a_node45"><a xlink:title=" ">
<polygon fill="white" stroke="#bfbfbf" points="718,-347.5 718,-366.5 762,-366.5 762,-347.5 718,-347.5"/>
<text text-anchor="middle" x="740" y="-354.5" font-family="Helvetica,sans-Serif" font-size="10.00">mpi.h</text>
</a>
</g>
</g>
<!-- Node43&#45;&gt;Node45 -->
<g id="edge67" class="edge">
<title>Node43&#45;&gt;Node45</title>
<path fill="none" stroke="midnightblue" d="M833.38,-408.98C815.41,-399.17 785.68,-382.93 764.59,-371.42"/>
<polygon fill="midnightblue" stroke="midnightblue" points="766.04,-368.23 755.59,-366.51 762.69,-374.37 766.04,-368.23"/>
</g>
<!-- Node46&#45;&gt;Node7 -->
<g id="edge69" class="edge">
<title>Node46&#45;&gt;Node7</title>
<path fill="none" stroke="midnightblue" d="M1440.82,-291.25C1445.24,-267.33 1453.68,-200.51 1418,-168 1368.75,-123.13 887.92,-122.2 757.49,-122.78"/>
<polygon fill="midnightblue" stroke="midnightblue" points="757.32,-119.28 747.34,-122.83 757.36,-126.28 757.32,-119.28"/>
</g>
</g>
</svg>
