<?xml version="1.0" encoding="UTF-8" standalone="no"?>
<!DOCTYPE svg PUBLIC "-//W3C//DTD SVG 1.1//EN"
 "http://www.w3.org/Graphics/SVG/1.1/DTD/svg11.dtd">
<!-- Generated by graphviz version 2.43.0 (0)
 -->
<!-- Title: src/math/geometry.hpp Pages: 1 -->
<!--zoomable 610 -->
<svg id="main" version="1.1" xmlns="http://www.w3.org/2000/svg" xmlns:xlink="http://www.w3.org/1999/xlink" xml:space="preserve" onload="init(evt)">
<style type="text/css"><![CDATA[
.edge:hover path { stroke: red; }
.edge:hover polygon { stroke: red; fill: red; }
]]></style>
<script type="text/javascript"><![CDATA[
var edges = document.getElementsByTagName('g');
if (edges && edges.length) {
  for (var i=0;i<edges.length;i++) {
    if (edges[i].id.substr(0,4)=='edge') {
      edges[i].setAttribute('class','edge');
    }
  }
}
]]></script>
        <defs>
                <circle id="rim" cx="0" cy="0" r="7"/>
                <circle id="rim2" cx="0" cy="0" r="3.5"/>
                <g id="zoomPlus">
                        <use xlink:href="#rim" fill="#404040">
                                <set attributeName="fill" to="#808080" begin="zoomplus.mouseover" end="zoomplus.mouseout"/>
                        </use>
                        <path d="M-4,0h8M0,-4v8" fill="none" stroke="white" stroke-width="1.5" pointer-events="none"/>
                </g>
                <g id="zoomMin">
                        <use xlink:href="#rim" fill="#404040">
                                <set attributeName="fill" to="#808080" begin="zoomminus.mouseover" end="zoomminus.mouseout"/>
                        </use>
                        <path d="M-4,0h8" fill="none" stroke="white" stroke-width="1.5" pointer-events="none"/>
                </g>
                <g id="dirArrow">
                        <path fill="none" stroke="white" stroke-width="1.5" d="M0,-3.0v7 M-2.5,-0.5L0,-3.0L2.5,-0.5"/>
                </g>
               <g id="resetDef">
                       <use xlink:href="#rim2" fill="#404040">
                               <set attributeName="fill" to="#808080" begin="reset.mouseover" end="reset.mouseout"/>
                       </use>
               </g>
        </defs>

<script type="text/javascript">
var viewWidth = 1534;
var viewHeight = 610;
var sectionId = 'dynsection-0';
</script>
<script xlink:href="svgpan.js"/>
<svg id="graph" class="graph">
<g id="viewport">
<title>src/math/geometry.hpp</title>
<polygon fill="white" stroke="transparent" points="-4,4 -4,-606 1530,-606 1530,4 -4,4"/>
<!-- Node1 -->
<g id="node1" class="node">
<title>Node1</title>
<g id="a_node1"><a xlink:title=" ">
<polygon fill="#bfbfbf" stroke="black" points="246.5,-582.5 246.5,-601.5 375.5,-601.5 375.5,-582.5 246.5,-582.5"/>
<text text-anchor="middle" x="311" y="-589.5" font-family="Helvetica,sans-Serif" font-size="10.00">src/math/geometry.hpp</text>
</a>
</g>
</g>
<!-- Node2 -->
<g id="node2" class="node">
<title>Node2</title>
<g id="a_node2"><a xlink:title=" ">
<polygon fill="white" stroke="#bfbfbf" points="91.5,-0.5 91.5,-19.5 160.5,-19.5 160.5,-0.5 91.5,-0.5"/>
<text text-anchor="middle" x="126" y="-7.5" font-family="Helvetica,sans-Serif" font-size="10.00">Eigen/Core</text>
</a>
</g>
</g>
<!-- Node1&#45;&gt;Node2 -->
<g id="edge1" class="edge">
<title>Node1&#45;&gt;Node2</title>
<path fill="none" stroke="midnightblue" d="M252.14,-582.47C161.98,-567.74 0,-533.9 0,-481 0,-481 0,-481 0,-121 0,-71.95 54.85,-39.74 92.17,-23.5"/>
<polygon fill="midnightblue" stroke="midnightblue" points="93.82,-26.61 101.71,-19.53 91.13,-20.14 93.82,-26.61"/>
</g>
<!-- Node3 -->
<g id="node3" class="node">
<title>Node3</title>
<g id="a_node3"><a xlink:title=" ">
<polygon fill="white" stroke="#bfbfbf" points="1387,-56.5 1387,-75.5 1429,-75.5 1429,-56.5 1387,-56.5"/>
<text text-anchor="middle" x="1408" y="-63.5" font-family="Helvetica,sans-Serif" font-size="10.00">array</text>
</a>
</g>
</g>
<!-- Node1&#45;&gt;Node3 -->
<g id="edge2" class="edge">
<title>Node1&#45;&gt;Node3</title>
<path fill="none" stroke="midnightblue" d="M375.89,-588.56C627.67,-578.66 1526,-539.28 1526,-481 1526,-481 1526,-481 1526,-182.5 1526,-133.11 1472.55,-97.88 1437.59,-80.13"/>
<polygon fill="midnightblue" stroke="midnightblue" points="1438.81,-76.82 1428.28,-75.58 1435.74,-83.12 1438.81,-76.82"/>
</g>
<!-- Node4 -->
<g id="node4" class="node">
<title>Node4</title>
<g id="a_node4"><a xlink:href="differences_8hpp.html" target="_top" xlink:title=" ">
<polygon fill="white" stroke="black" points="207,-526.5 207,-545.5 327,-545.5 327,-526.5 207,-526.5"/>
<text text-anchor="middle" x="267" y="-533.5" font-family="Helvetica,sans-Serif" font-size="10.00">math/differences.hpp</text>
</a>
</g>
</g>
<!-- Node1&#45;&gt;Node4 -->
<g id="edge3" class="edge">
<title>Node1&#45;&gt;Node4</title>
<path fill="none" stroke="midnightblue" d="M303.73,-582.08C297.46,-574.38 288.21,-563.03 280.57,-553.65"/>
<polygon fill="midnightblue" stroke="midnightblue" points="283.16,-551.29 274.13,-545.75 277.73,-555.71 283.16,-551.29"/>
</g>
<!-- Node5 -->
<g id="node5" class="node">
<title>Node5</title>
<g id="a_node5"><a xlink:href="assertion_8hpp.html" target="_top" xlink:title=" ">
<polygon fill="white" stroke="black" points="301.5,-470.5 301.5,-489.5 408.5,-489.5 408.5,-470.5 301.5,-470.5"/>
<text text-anchor="middle" x="355" y="-477.5" font-family="Helvetica,sans-Serif" font-size="10.00">utils/assertion.hpp</text>
</a>
</g>
</g>
<!-- Node1&#45;&gt;Node5 -->
<g id="edge59" class="edge">
<title>Node1&#45;&gt;Node5</title>
<path fill="none" stroke="midnightblue" d="M316.58,-582.33C322.1,-573.47 330.49,-559.19 336,-546 342.37,-530.74 347.48,-512.64 350.78,-499.41"/>
<polygon fill="midnightblue" stroke="midnightblue" points="354.2,-500.16 353.13,-489.62 347.4,-498.53 354.2,-500.16"/>
</g>
<!-- Node4&#45;&gt;Node2 -->
<g id="edge4" class="edge">
<title>Node4&#45;&gt;Node2</title>
<path fill="none" stroke="midnightblue" d="M206.83,-530.28C138.98,-521.29 38,-495.2 38,-419.5 38,-419.5 38,-419.5 38,-121 38,-79.03 77.54,-43.9 103.61,-25.3"/>
<polygon fill="midnightblue" stroke="midnightblue" points="105.6,-28.18 111.86,-19.64 101.64,-22.41 105.6,-28.18"/>
</g>
<!-- Node4&#45;&gt;Node5 -->
<g id="edge5" class="edge">
<title>Node4&#45;&gt;Node5</title>
<path fill="none" stroke="midnightblue" d="M281.14,-526.32C294.87,-517.9 315.94,-504.97 332.06,-495.07"/>
<polygon fill="midnightblue" stroke="midnightblue" points="334.2,-497.87 340.9,-489.65 330.54,-491.9 334.2,-497.87"/>
</g>
<!-- Node6 -->
<g id="node6" class="node">
<title>Node6</title>
<g id="a_node6"><a xlink:title=" ">
<polygon fill="white" stroke="#bfbfbf" points="66.5,-409 66.5,-428 115.5,-428 115.5,-409 66.5,-409"/>
<text text-anchor="middle" x="91" y="-416" font-family="Helvetica,sans-Serif" font-size="10.00">cstdlib</text>
</a>
</g>
</g>
<!-- Node5&#45;&gt;Node6 -->
<g id="edge6" class="edge">
<title>Node5&#45;&gt;Node6</title>
<path fill="none" stroke="midnightblue" d="M301.23,-471.75C254.12,-464.63 184.12,-452.17 125,-434 122.86,-433.34 120.67,-432.59 118.48,-431.79"/>
<polygon fill="midnightblue" stroke="midnightblue" points="119.67,-428.5 109.09,-428.05 117.08,-435 119.67,-428.5"/>
</g>
<!-- Node7 -->
<g id="node7" class="node">
<title>Node7</title>
<g id="a_node7"><a xlink:title=" ">
<polygon fill="white" stroke="#bfbfbf" points="134,-409 134,-428 194,-428 194,-409 134,-409"/>
<text text-anchor="middle" x="164" y="-416" font-family="Helvetica,sans-Serif" font-size="10.00">iostream</text>
</a>
</g>
</g>
<!-- Node5&#45;&gt;Node7 -->
<g id="edge7" class="edge">
<title>Node5&#45;&gt;Node7</title>
<path fill="none" stroke="midnightblue" d="M326.49,-470.47C296.83,-461.55 249.08,-447.05 208,-434 205.1,-433.08 202.1,-432.12 199.09,-431.14"/>
<polygon fill="midnightblue" stroke="midnightblue" points="200.16,-427.8 189.56,-428.03 197.98,-434.46 200.16,-427.8"/>
</g>
<!-- Node8 -->
<g id="node8" class="node">
<title>Node8</title>
<g id="a_node8"><a xlink:title=" ">
<polygon fill="white" stroke="#bfbfbf" points="738.5,-112.5 738.5,-131.5 811.5,-131.5 811.5,-112.5 738.5,-112.5"/>
<text text-anchor="middle" x="775" y="-119.5" font-family="Helvetica,sans-Serif" font-size="10.00">string_view</text>
</a>
</g>
</g>
<!-- Node5&#45;&gt;Node8 -->
<g id="edge8" class="edge">
<title>Node5&#45;&gt;Node8</title>
<path fill="none" stroke="midnightblue" d="M341,-470.37C329.16,-462.36 312.63,-449.38 303,-434 270.75,-382.52 198.89,-212.72 240,-168 256.43,-150.13 600.63,-131.53 728.08,-125.24"/>
<polygon fill="midnightblue" stroke="midnightblue" points="728.48,-128.72 738.3,-124.73 728.14,-121.73 728.48,-128.72"/>
</g>
<!-- Node9 -->
<g id="node9" class="node">
<title>Node9</title>
<g id="a_node9"><a xlink:href="fmt_8hpp.html" target="_top" xlink:title=" ">
<polygon fill="white" stroke="black" points="998.5,-174 998.5,-193 1077.5,-193 1077.5,-174 998.5,-174"/>
<text text-anchor="middle" x="1038" y="-181" font-family="Helvetica,sans-Serif" font-size="10.00">utils/fmt.hpp</text>
</a>
</g>
</g>
<!-- Node5&#45;&gt;Node9 -->
<g id="edge9" class="edge">
<title>Node5&#45;&gt;Node9</title>
<path fill="none" stroke="midnightblue" d="M408.84,-477.59C540.11,-473.73 868.95,-461.42 910,-434 920.79,-426.79 1002.43,-258.45 1029.39,-202.44"/>
<polygon fill="midnightblue" stroke="midnightblue" points="1032.71,-203.61 1033.89,-193.08 1026.4,-200.58 1032.71,-203.61"/>
</g>
<!-- Node22 -->
<g id="node22" class="node">
<title>Node22</title>
<g id="a_node22"><a xlink:title=" ">
<polygon fill="white" stroke="#bfbfbf" points="402.5,-409 402.5,-428 549.5,-428 549.5,-409 402.5,-409"/>
<text text-anchor="middle" x="476" y="-416" font-family="Helvetica,sans-Serif" font-size="10.00">boost/current_function.hpp</text>
</a>
</g>
</g>
<!-- Node5&#45;&gt;Node22 -->
<g id="edge28" class="edge">
<title>Node5&#45;&gt;Node22</title>
<path fill="none" stroke="midnightblue" d="M372.34,-470.48C392.55,-460.53 426.19,-443.99 449.64,-432.46"/>
<polygon fill="midnightblue" stroke="midnightblue" points="451.27,-435.56 458.7,-428.01 448.18,-429.28 451.27,-435.56"/>
</g>
<!-- Node23 -->
<g id="node23" class="node">
<title>Node23</title>
<g id="a_node23"><a xlink:title=" ">
<polygon fill="white" stroke="#bfbfbf" points="567.5,-403.5 567.5,-433.5 702.5,-433.5 702.5,-403.5 567.5,-403.5"/>
<text text-anchor="start" x="575.5" y="-421.5" font-family="Helvetica,sans-Serif" font-size="10.00">boost/preprocessor</text>
<text text-anchor="middle" x="635" y="-410.5" font-family="Helvetica,sans-Serif" font-size="10.00">/comparison/greater.hpp</text>
</a>
</g>
</g>
<!-- Node5&#45;&gt;Node23 -->
<g id="edge29" class="edge">
<title>Node5&#45;&gt;Node23</title>
<path fill="none" stroke="midnightblue" d="M395.12,-470.48C437.74,-461.42 506.12,-446.89 558.99,-435.65"/>
<polygon fill="midnightblue" stroke="midnightblue" points="559.96,-439.03 569.01,-433.52 558.5,-432.18 559.96,-439.03"/>
</g>
<!-- Node24 -->
<g id="node24" class="node">
<title>Node24</title>
<g id="a_node24"><a xlink:title=" ">
<polygon fill="white" stroke="#bfbfbf" points="249,-168.5 249,-198.5 359,-198.5 359,-168.5 249,-168.5"/>
<text text-anchor="start" x="257" y="-186.5" font-family="Helvetica,sans-Serif" font-size="10.00">boost/preprocessor</text>
<text text-anchor="middle" x="304" y="-175.5" font-family="Helvetica,sans-Serif" font-size="10.00">/control/if.hpp</text>
</a>
</g>
</g>
<!-- Node5&#45;&gt;Node24 -->
<g id="edge30" class="edge">
<title>Node5&#45;&gt;Node24</title>
<path fill="none" stroke="midnightblue" d="M347.24,-470.27C339.87,-461.59 328.92,-447.65 322,-434 305.98,-402.41 298,-393.42 298,-358 298,-358 298,-358 298,-300 298,-268.45 300.26,-232.12 302.01,-208.76"/>
<polygon fill="midnightblue" stroke="midnightblue" points="305.5,-208.95 302.79,-198.71 298.52,-208.41 305.5,-208.95"/>
</g>
<!-- Node25 -->
<g id="node25" class="node">
<title>Node25</title>
<g id="a_node25"><a xlink:title=" ">
<polygon fill="white" stroke="#bfbfbf" points="377,-168.5 377,-198.5 487,-198.5 487,-168.5 377,-168.5"/>
<text text-anchor="start" x="385" y="-186.5" font-family="Helvetica,sans-Serif" font-size="10.00">boost/preprocessor</text>
<text text-anchor="middle" x="432" y="-175.5" font-family="Helvetica,sans-Serif" font-size="10.00">/stringize.hpp</text>
</a>
</g>
</g>
<!-- Node5&#45;&gt;Node25 -->
<g id="edge31" class="edge">
<title>Node5&#45;&gt;Node25</title>
<path fill="none" stroke="midnightblue" d="M352.67,-470.27C347.6,-450.46 336,-400.53 336,-358 336,-358 336,-358 336,-300 336,-259.12 372.01,-224.99 399.92,-204.68"/>
<polygon fill="midnightblue" stroke="midnightblue" points="402.09,-207.43 408.27,-198.83 398.07,-201.7 402.09,-207.43"/>
</g>
<!-- Node26 -->
<g id="node26" class="node">
<title>Node26</title>
<g id="a_node26"><a xlink:title=" ">
<polygon fill="white" stroke="#bfbfbf" points="721,-403.5 721,-433.5 831,-433.5 831,-403.5 721,-403.5"/>
<text text-anchor="start" x="729" y="-421.5" font-family="Helvetica,sans-Serif" font-size="10.00">boost/preprocessor</text>
<text text-anchor="middle" x="776" y="-410.5" font-family="Helvetica,sans-Serif" font-size="10.00">/variadic/size.hpp</text>
</a>
</g>
</g>
<!-- Node5&#45;&gt;Node26 -->
<g id="edge32" class="edge">
<title>Node5&#45;&gt;Node26</title>
<path fill="none" stroke="midnightblue" d="M408.77,-473.87C476.87,-467.01 597.99,-453.59 711.05,-434.06"/>
<polygon fill="midnightblue" stroke="midnightblue" points="711.66,-437.51 720.91,-432.34 710.46,-430.61 711.66,-437.51"/>
</g>
<!-- Node27 -->
<g id="node27" class="node">
<title>Node27</title>
<g id="a_node27"><a xlink:href="ArgumentFormatter_8hpp.html" target="_top" xlink:title=" ">
<polygon fill="white" stroke="black" points="609.5,-235.5 609.5,-254.5 766.5,-254.5 766.5,-235.5 609.5,-235.5"/>
<text text-anchor="middle" x="688" y="-242.5" font-family="Helvetica,sans-Serif" font-size="10.00">utils/ArgumentFormatter.hpp</text>
</a>
</g>
</g>
<!-- Node5&#45;&gt;Node27 -->
<g id="edge33" class="edge">
<title>Node5&#45;&gt;Node27</title>
<path fill="none" stroke="midnightblue" d="M357.37,-470.45C361.98,-455.21 373.43,-423.07 393,-403 468,-326.07 588.87,-278.28 649.99,-257.73"/>
<polygon fill="midnightblue" stroke="midnightblue" points="651.23,-261.01 659.63,-254.55 649.03,-254.36 651.23,-261.01"/>
</g>
<!-- Node31 -->
<g id="node31" class="node">
<title>Node31</title>
<g id="a_node31"><a xlink:href="Parallel_8hpp.html" target="_top" xlink:title=" ">
<polygon fill="white" stroke="black" points="1143,-409 1143,-428 1241,-428 1241,-409 1143,-409"/>
<text text-anchor="middle" x="1192" y="-416" font-family="Helvetica,sans-Serif" font-size="10.00">utils/Parallel.hpp</text>
</a>
</g>
</g>
<!-- Node5&#45;&gt;Node31 -->
<g id="edge40" class="edge">
<title>Node5&#45;&gt;Node31</title>
<path fill="none" stroke="midnightblue" d="M408.63,-475.19C557.74,-464.59 976.49,-434.82 1132.46,-423.73"/>
<polygon fill="midnightblue" stroke="midnightblue" points="1133.07,-427.2 1142.79,-423 1132.57,-420.22 1133.07,-427.2"/>
</g>
<!-- Node40 -->
<g id="node40" class="node">
<title>Node40</title>
<g id="a_node40"><a xlink:href="stacktrace_8hpp.html" target="_top" xlink:title=" ">
<polygon fill="white" stroke="black" points="118.5,-291.5 118.5,-310.5 231.5,-310.5 231.5,-291.5 118.5,-291.5"/>
<text text-anchor="middle" x="175" y="-298.5" font-family="Helvetica,sans-Serif" font-size="10.00">utils/stacktrace.hpp</text>
</a>
</g>
</g>
<!-- Node5&#45;&gt;Node40 -->
<g id="edge56" class="edge">
<title>Node5&#45;&gt;Node40</title>
<path fill="none" stroke="midnightblue" d="M317.69,-470.46C294.84,-463.68 266.21,-452.25 246,-434 210.71,-402.13 189.62,-348.5 180.44,-320.41"/>
<polygon fill="midnightblue" stroke="midnightblue" points="183.73,-319.19 177.41,-310.69 177.05,-321.28 183.73,-319.19"/>
</g>
<!-- Node41 -->
<g id="node41" class="node">
<title>Node41</title>
<g id="a_node41"><a xlink:title=" ">
<polygon fill="white" stroke="#bfbfbf" points="849,-409 849,-428 901,-428 901,-409 849,-409"/>
<text text-anchor="middle" x="875" y="-416" font-family="Helvetica,sans-Serif" font-size="10.00">cassert</text>
</a>
</g>
</g>
<!-- Node5&#45;&gt;Node41 -->
<g id="edge58" class="edge">
<title>Node5&#45;&gt;Node41</title>
<path fill="none" stroke="midnightblue" d="M408.62,-479.23C498.97,-478.47 686.7,-471.94 840,-434 842.51,-433.38 845.08,-432.6 847.63,-431.74"/>
<polygon fill="midnightblue" stroke="midnightblue" points="849.09,-434.93 857.18,-428.09 846.59,-428.39 849.09,-434.93"/>
</g>
<!-- Node9&#45;&gt;Node8 -->
<g id="edge11" class="edge">
<title>Node9&#45;&gt;Node8</title>
<path fill="none" stroke="midnightblue" d="M1007.23,-173.95C999.65,-171.93 991.55,-169.82 984,-168 928.51,-154.58 864.25,-141.04 821.79,-132.37"/>
<polygon fill="midnightblue" stroke="midnightblue" points="822.25,-128.89 811.75,-130.33 820.85,-135.75 822.25,-128.89"/>
</g>
<!-- Node10 -->
<g id="node10" class="node">
<title>Node10</title>
<g id="a_node10"><a xlink:title=" ">
<polygon fill="white" stroke="#bfbfbf" points="493,-112.5 493,-131.5 537,-131.5 537,-112.5 493,-112.5"/>
<text text-anchor="middle" x="515" y="-119.5" font-family="Helvetica,sans-Serif" font-size="10.00">string</text>
</a>
</g>
</g>
<!-- Node9&#45;&gt;Node10 -->
<g id="edge10" class="edge">
<title>Node9&#45;&gt;Node10</title>
<path fill="none" stroke="midnightblue" d="M998.23,-175.34C983.43,-172.81 966.48,-170.09 951,-168 800.72,-147.74 620.22,-131.76 547.6,-125.67"/>
<polygon fill="midnightblue" stroke="midnightblue" points="547.55,-122.15 537.29,-124.81 546.97,-129.12 547.55,-122.15"/>
</g>
<!-- Node11 -->
<g id="node11" class="node">
<title>Node11</title>
<g id="a_node11"><a xlink:title=" ">
<polygon fill="white" stroke="#bfbfbf" points="929.5,-56.5 929.5,-75.5 1008.5,-75.5 1008.5,-56.5 929.5,-56.5"/>
<text text-anchor="middle" x="969" y="-63.5" font-family="Helvetica,sans-Serif" font-size="10.00">fmt/format.h</text>
</a>
</g>
</g>
<!-- Node9&#45;&gt;Node11 -->
<g id="edge12" class="edge">
<title>Node9&#45;&gt;Node11</title>
<path fill="none" stroke="midnightblue" d="M1028.22,-173.67C1018.21,-164.2 1002.79,-148.31 993,-132 984.29,-117.5 977.91,-99.31 973.92,-85.87"/>
<polygon fill="midnightblue" stroke="midnightblue" points="977.2,-84.57 971.14,-75.88 970.45,-86.45 977.2,-84.57"/>
</g>
<!-- Node12 -->
<g id="node12" class="node">
<title>Node12</title>
<g id="a_node12"><a xlink:title=" ">
<polygon fill="white" stroke="#bfbfbf" points="1116,-112.5 1116,-131.5 1202,-131.5 1202,-112.5 1116,-112.5"/>
<text text-anchor="middle" x="1159" y="-119.5" font-family="Helvetica,sans-Serif" font-size="10.00">fmt/ostream.h</text>
</a>
</g>
</g>
<!-- Node9&#45;&gt;Node12 -->
<g id="edge13" class="edge">
<title>Node9&#45;&gt;Node12</title>
<path fill="none" stroke="midnightblue" d="M1055.34,-173.98C1075.55,-164.03 1109.19,-147.49 1132.64,-135.96"/>
<polygon fill="midnightblue" stroke="midnightblue" points="1134.27,-139.06 1141.7,-131.51 1131.18,-132.78 1134.27,-139.06"/>
</g>
<!-- Node13 -->
<g id="node13" class="node">
<title>Node13</title>
<g id="a_node13"><a xlink:href="fmtEigen_8hpp.html" target="_top" xlink:title=" ">
<polygon fill="white" stroke="black" points="830,-112.5 830,-131.5 936,-131.5 936,-112.5 830,-112.5"/>
<text text-anchor="middle" x="883" y="-119.5" font-family="Helvetica,sans-Serif" font-size="10.00">utils/fmtEigen.hpp</text>
</a>
</g>
</g>
<!-- Node9&#45;&gt;Node13 -->
<g id="edge14" class="edge">
<title>Node9&#45;&gt;Node13</title>
<path fill="none" stroke="midnightblue" d="M1015.79,-173.98C989.32,-163.81 944.89,-146.76 914.78,-135.2"/>
<polygon fill="midnightblue" stroke="midnightblue" points="915.76,-131.83 905.17,-131.51 913.25,-138.36 915.76,-131.83"/>
</g>
<!-- Node17 -->
<g id="node17" class="node">
<title>Node17</title>
<g id="a_node17"><a xlink:href="fmtSTL_8hpp.html" target="_top" xlink:title=" ">
<polygon fill="white" stroke="black" points="1002,-112.5 1002,-131.5 1098,-131.5 1098,-112.5 1002,-112.5"/>
<text text-anchor="middle" x="1050" y="-119.5" font-family="Helvetica,sans-Serif" font-size="10.00">utils/fmtSTL.hpp</text>
</a>
</g>
</g>
<!-- Node9&#45;&gt;Node17 -->
<g id="edge21" class="edge">
<title>Node9&#45;&gt;Node17</title>
<path fill="none" stroke="midnightblue" d="M1039.72,-173.98C1041.43,-165.49 1044.11,-152.2 1046.3,-141.32"/>
<polygon fill="midnightblue" stroke="midnightblue" points="1049.74,-142 1048.28,-131.51 1042.88,-140.62 1049.74,-142"/>
</g>
<!-- Node13&#45;&gt;Node2 -->
<g id="edge15" class="edge">
<title>Node13&#45;&gt;Node2</title>
<path fill="none" stroke="midnightblue" d="M829.91,-113.19C826.9,-112.78 823.91,-112.38 821,-112 682.58,-93.97 647.19,-95.68 509,-76 386.17,-58.5 242.11,-32.59 170.75,-19.39"/>
<polygon fill="midnightblue" stroke="midnightblue" points="171.23,-15.92 160.76,-17.54 169.95,-22.8 171.23,-15.92"/>
</g>
<!-- Node13&#45;&gt;Node11 -->
<g id="edge17" class="edge">
<title>Node13&#45;&gt;Node11</title>
<path fill="none" stroke="midnightblue" d="M896.82,-112.32C910.23,-103.9 930.82,-90.97 946.59,-81.07"/>
<polygon fill="midnightblue" stroke="midnightblue" points="948.61,-83.94 955.22,-75.65 944.89,-78.01 948.61,-83.94"/>
</g>
<!-- Node14 -->
<g id="node14" class="node">
<title>Node14</title>
<g id="a_node14"><a xlink:title=" ">
<polygon fill="white" stroke="#bfbfbf" points="773,-56.5 773,-75.5 837,-75.5 837,-56.5 773,-56.5"/>
<text text-anchor="middle" x="805" y="-63.5" font-family="Helvetica,sans-Serif" font-size="10.00">algorithm</text>
</a>
</g>
</g>
<!-- Node13&#45;&gt;Node14 -->
<g id="edge16" class="edge">
<title>Node13&#45;&gt;Node14</title>
<path fill="none" stroke="midnightblue" d="M870.47,-112.32C858.41,-103.98 839.97,-91.21 825.73,-81.35"/>
<polygon fill="midnightblue" stroke="midnightblue" points="827.72,-78.47 817.5,-75.65 823.73,-84.22 827.72,-78.47"/>
</g>
<!-- Node15 -->
<g id="node15" class="node">
<title>Node15</title>
<g id="a_node15"><a xlink:title=" ">
<polygon fill="white" stroke="#bfbfbf" points="855,-56.5 855,-75.5 911,-75.5 911,-56.5 855,-56.5"/>
<text text-anchor="middle" x="883" y="-63.5" font-family="Helvetica,sans-Serif" font-size="10.00">sstream</text>
</a>
</g>
</g>
<!-- Node13&#45;&gt;Node15 -->
<g id="edge18" class="edge">
<title>Node13&#45;&gt;Node15</title>
<path fill="none" stroke="midnightblue" d="M883,-112.08C883,-105.01 883,-94.86 883,-85.99"/>
<polygon fill="midnightblue" stroke="midnightblue" points="886.5,-85.75 883,-75.75 879.5,-85.75 886.5,-85.75"/>
</g>
<!-- Node16 -->
<g id="node16" class="node">
<title>Node16</title>
<g id="a_node16"><a xlink:href="EigenIO_8hpp.html" target="_top" xlink:title=" ">
<polygon fill="white" stroke="black" points="517.5,-56.5 517.5,-75.5 616.5,-75.5 616.5,-56.5 517.5,-56.5"/>
<text text-anchor="middle" x="567" y="-63.5" font-family="Helvetica,sans-Serif" font-size="10.00">utils/EigenIO.hpp</text>
</a>
</g>
</g>
<!-- Node13&#45;&gt;Node16 -->
<g id="edge19" class="edge">
<title>Node13&#45;&gt;Node16</title>
<path fill="none" stroke="midnightblue" d="M832.93,-112.44C776.91,-102.87 686.23,-87.37 626.6,-77.18"/>
<polygon fill="midnightblue" stroke="midnightblue" points="627.02,-73.71 616.58,-75.47 625.84,-80.61 627.02,-73.71"/>
</g>
<!-- Node16&#45;&gt;Node2 -->
<g id="edge20" class="edge">
<title>Node16&#45;&gt;Node2</title>
<path fill="none" stroke="midnightblue" d="M517.27,-58.91C430.75,-48.32 253.86,-26.66 170.87,-16.49"/>
<polygon fill="midnightblue" stroke="midnightblue" points="171.1,-13 160.75,-15.26 170.25,-19.94 171.1,-13"/>
</g>
<!-- Node17&#45;&gt;Node3 -->
<g id="edge22" class="edge">
<title>Node17&#45;&gt;Node3</title>
<path fill="none" stroke="midnightblue" d="M1098.2,-113.36C1101.18,-112.9 1104.13,-112.44 1107,-112 1205.41,-96.87 1322.03,-79.63 1376.73,-71.59"/>
<polygon fill="midnightblue" stroke="midnightblue" points="1377.44,-75.02 1386.83,-70.1 1376.42,-68.1 1377.44,-75.02"/>
</g>
<!-- Node17&#45;&gt;Node11 -->
<g id="edge24" class="edge">
<title>Node17&#45;&gt;Node11</title>
<path fill="none" stroke="midnightblue" d="M1036.99,-112.32C1024.47,-103.98 1005.32,-91.21 990.53,-81.35"/>
<polygon fill="midnightblue" stroke="midnightblue" points="992.24,-78.29 981.98,-75.65 988.36,-84.11 992.24,-78.29"/>
</g>
<!-- Node18 -->
<g id="node18" class="node">
<title>Node18</title>
<g id="a_node18"><a xlink:title=" ">
<polygon fill="white" stroke="#bfbfbf" points="1026.5,-56.5 1026.5,-75.5 1073.5,-75.5 1073.5,-56.5 1026.5,-56.5"/>
<text text-anchor="middle" x="1050" y="-63.5" font-family="Helvetica,sans-Serif" font-size="10.00">deque</text>
</a>
</g>
</g>
<!-- Node17&#45;&gt;Node18 -->
<g id="edge23" class="edge">
<title>Node17&#45;&gt;Node18</title>
<path fill="none" stroke="midnightblue" d="M1050,-112.08C1050,-105.01 1050,-94.86 1050,-85.99"/>
<polygon fill="midnightblue" stroke="midnightblue" points="1053.5,-85.75 1050,-75.75 1046.5,-85.75 1053.5,-85.75"/>
</g>
<!-- Node19 -->
<g id="node19" class="node">
<title>Node19</title>
<g id="a_node19"><a xlink:title=" ">
<polygon fill="white" stroke="#bfbfbf" points="1092,-56.5 1092,-75.5 1130,-75.5 1130,-56.5 1092,-56.5"/>
<text text-anchor="middle" x="1111" y="-63.5" font-family="Helvetica,sans-Serif" font-size="10.00">map</text>
</a>
</g>
</g>
<!-- Node17&#45;&gt;Node19 -->
<g id="edge25" class="edge">
<title>Node17&#45;&gt;Node19</title>
<path fill="none" stroke="midnightblue" d="M1059.8,-112.32C1068.82,-104.34 1082.41,-92.31 1093.32,-82.65"/>
<polygon fill="midnightblue" stroke="midnightblue" points="1095.85,-85.08 1101.02,-75.83 1091.21,-79.84 1095.85,-85.08"/>
</g>
<!-- Node20 -->
<g id="node20" class="node">
<title>Node20</title>
<g id="a_node20"><a xlink:title=" ">
<polygon fill="white" stroke="#bfbfbf" points="1148,-56.5 1148,-75.5 1180,-75.5 1180,-56.5 1148,-56.5"/>
<text text-anchor="middle" x="1164" y="-63.5" font-family="Helvetica,sans-Serif" font-size="10.00">set</text>
</a>
</g>
</g>
<!-- Node17&#45;&gt;Node20 -->
<g id="edge26" class="edge">
<title>Node17&#45;&gt;Node20</title>
<path fill="none" stroke="midnightblue" d="M1068.06,-112.44C1087.12,-103.42 1117.3,-89.12 1138.71,-78.98"/>
<polygon fill="midnightblue" stroke="midnightblue" points="1140.33,-82.09 1147.86,-74.64 1137.33,-75.76 1140.33,-82.09"/>
</g>
<!-- Node21 -->
<g id="node21" class="node">
<title>Node21</title>
<g id="a_node21"><a xlink:title=" ">
<polygon fill="white" stroke="#bfbfbf" points="1202.5,-56.5 1202.5,-75.5 1249.5,-75.5 1249.5,-56.5 1202.5,-56.5"/>
<text text-anchor="middle" x="1226" y="-63.5" font-family="Helvetica,sans-Serif" font-size="10.00">vector</text>
</a>
</g>
</g>
<!-- Node17&#45;&gt;Node21 -->
<g id="edge27" class="edge">
<title>Node17&#45;&gt;Node21</title>
<path fill="none" stroke="midnightblue" d="M1077.89,-112.44C1109.07,-102.88 1159.55,-87.39 1192.76,-77.2"/>
<polygon fill="midnightblue" stroke="midnightblue" points="1193.93,-80.5 1202.47,-74.22 1191.88,-73.81 1193.93,-80.5"/>
</g>
<!-- Node27&#45;&gt;Node9 -->
<g id="edge39" class="edge">
<title>Node27&#45;&gt;Node9</title>
<path fill="none" stroke="midnightblue" d="M738.15,-235.48C804.71,-224.16 921.56,-204.29 988.04,-192.99"/>
<polygon fill="midnightblue" stroke="midnightblue" points="988.99,-196.38 998.26,-191.26 987.81,-189.48 988.99,-196.38"/>
</g>
<!-- Node27&#45;&gt;Node24 -->
<g id="edge34" class="edge">
<title>Node27&#45;&gt;Node24</title>
<path fill="none" stroke="midnightblue" d="M614.96,-235.48C552.21,-227.76 459.12,-215.36 368.94,-199.08"/>
<polygon fill="midnightblue" stroke="midnightblue" points="369.56,-195.64 359.1,-197.29 368.31,-202.53 369.56,-195.64"/>
</g>
<!-- Node27&#45;&gt;Node25 -->
<g id="edge36" class="edge">
<title>Node27&#45;&gt;Node25</title>
<path fill="none" stroke="midnightblue" d="M651.32,-235.48C611.22,-226.16 546.18,-211.04 497.32,-199.68"/>
<polygon fill="midnightblue" stroke="midnightblue" points="498,-196.25 487.46,-197.39 496.41,-203.06 498,-196.25"/>
</g>
<!-- Node28 -->
<g id="node28" class="node">
<title>Node28</title>
<g id="a_node28"><a xlink:title=" ">
<polygon fill="white" stroke="#bfbfbf" points="697.5,-168.5 697.5,-198.5 808.5,-198.5 808.5,-168.5 697.5,-168.5"/>
<text text-anchor="start" x="705.5" y="-186.5" font-family="Helvetica,sans-Serif" font-size="10.00">boost/preprocessor</text>
<text text-anchor="middle" x="753" y="-175.5" font-family="Helvetica,sans-Serif" font-size="10.00">/seq/for_each_i.hpp</text>
</a>
</g>
</g>
<!-- Node27&#45;&gt;Node28 -->
<g id="edge35" class="edge">
<title>Node27&#45;&gt;Node28</title>
<path fill="none" stroke="midnightblue" d="M697.31,-235.48C705.87,-227.64 718.9,-215.71 730.21,-205.37"/>
<polygon fill="midnightblue" stroke="midnightblue" points="732.67,-207.86 737.68,-198.52 727.94,-202.69 732.67,-207.86"/>
</g>
<!-- Node29 -->
<g id="node29" class="node">
<title>Node29</title>
<g id="a_node29"><a xlink:title=" ">
<polygon fill="white" stroke="#bfbfbf" points="826.5,-168.5 826.5,-198.5 941.5,-198.5 941.5,-168.5 826.5,-168.5"/>
<text text-anchor="start" x="834.5" y="-186.5" font-family="Helvetica,sans-Serif" font-size="10.00">boost/preprocessor</text>
<text text-anchor="middle" x="884" y="-175.5" font-family="Helvetica,sans-Serif" font-size="10.00">/variadic/to_seq.hpp</text>
</a>
</g>
</g>
<!-- Node27&#45;&gt;Node29 -->
<g id="edge37" class="edge">
<title>Node27&#45;&gt;Node29</title>
<path fill="none" stroke="midnightblue" d="M716.08,-235.48C745.11,-226.66 791.21,-212.67 827.77,-201.57"/>
<polygon fill="midnightblue" stroke="midnightblue" points="829.25,-204.78 837.81,-198.52 827.22,-198.08 829.25,-204.78"/>
</g>
<!-- Node30 -->
<g id="node30" class="node">
<title>Node30</title>
<g id="a_node30"><a xlink:title=" ">
<polygon fill="white" stroke="#bfbfbf" points="543,-174 543,-193 679,-193 679,-174 543,-174"/>
<text text-anchor="middle" x="611" y="-181" font-family="Helvetica,sans-Serif" font-size="10.00">boost/vmd/is_empty.hpp</text>
</a>
</g>
</g>
<!-- Node27&#45;&gt;Node30 -->
<g id="edge38" class="edge">
<title>Node27&#45;&gt;Node30</title>
<path fill="none" stroke="midnightblue" d="M676.97,-235.48C664.73,-226.02 644.77,-210.6 630.01,-199.19"/>
<polygon fill="midnightblue" stroke="midnightblue" points="632.06,-196.35 622.01,-193.01 627.78,-201.89 632.06,-196.35"/>
</g>
<!-- Node31&#45;&gt;Node10 -->
<g id="edge44" class="edge">
<title>Node31&#45;&gt;Node10</title>
<path fill="none" stroke="midnightblue" d="M1142.94,-411.52C1038.06,-397.18 786.49,-354.36 601,-255 566.79,-236.67 554.61,-231.89 534,-199 523.07,-181.57 518.43,-158.2 516.45,-141.99"/>
<polygon fill="midnightblue" stroke="midnightblue" points="519.9,-141.26 515.44,-131.65 512.93,-141.95 519.9,-141.26"/>
</g>
<!-- Node31&#45;&gt;Node21 -->
<g id="edge45" class="edge">
<title>Node31&#45;&gt;Node21</title>
<path fill="none" stroke="midnightblue" d="M1196.97,-408.84C1207.27,-390.03 1230,-343.8 1230,-302 1230,-302 1230,-302 1230,-182.5 1230,-148.34 1228.23,-108.54 1227.05,-85.7"/>
<polygon fill="midnightblue" stroke="midnightblue" points="1230.54,-85.49 1226.51,-75.69 1223.55,-85.86 1230.54,-85.49"/>
</g>
<!-- Node32 -->
<g id="node32" class="node">
<title>Node32</title>
<g id="a_node32"><a xlink:title=" ">
<polygon fill="white" stroke="#bfbfbf" points="1116,-347.5 1116,-366.5 1164,-366.5 1164,-347.5 1116,-347.5"/>
<text text-anchor="middle" x="1140" y="-354.5" font-family="Helvetica,sans-Serif" font-size="10.00">iosfwd</text>
</a>
</g>
</g>
<!-- Node31&#45;&gt;Node32 -->
<g id="edge41" class="edge">
<title>Node31&#45;&gt;Node32</title>
<path fill="none" stroke="midnightblue" d="M1184.55,-408.98C1176.67,-399.96 1164.06,-385.52 1154.26,-374.31"/>
<polygon fill="midnightblue" stroke="midnightblue" points="1156.65,-371.74 1147.44,-366.51 1151.38,-376.34 1156.65,-371.74"/>
</g>
<!-- Node33 -->
<g id="node33" class="node">
<title>Node33</title>
<g id="a_node33"><a xlink:title=" ">
<polygon fill="white" stroke="#bfbfbf" points="1144,-291.5 1144,-310.5 1202,-310.5 1202,-291.5 1144,-291.5"/>
<text text-anchor="middle" x="1173" y="-298.5" font-family="Helvetica,sans-Serif" font-size="10.00">memory</text>
</a>
</g>
</g>
<!-- Node31&#45;&gt;Node33 -->
<g id="edge42" class="edge">
<title>Node31&#45;&gt;Node33</title>
<path fill="none" stroke="midnightblue" d="M1190.57,-408.82C1187.52,-390.26 1180.29,-346.34 1176.12,-320.97"/>
<polygon fill="midnightblue" stroke="midnightblue" points="1179.52,-320.08 1174.44,-310.78 1172.61,-321.22 1179.52,-320.08"/>
</g>
<!-- Node34 -->
<g id="node34" class="node">
<title>Node34</title>
<g id="a_node34"><a xlink:title=" ">
<polygon fill="white" stroke="#bfbfbf" points="1258,-347.5 1258,-366.5 1314,-366.5 1314,-347.5 1258,-347.5"/>
<text text-anchor="middle" x="1286" y="-354.5" font-family="Helvetica,sans-Serif" font-size="10.00">optional</text>
</a>
</g>
</g>
<!-- Node31&#45;&gt;Node34 -->
<g id="edge43" class="edge">
<title>Node31&#45;&gt;Node34</title>
<path fill="none" stroke="midnightblue" d="M1205.47,-408.98C1220.68,-399.34 1245.69,-383.52 1263.8,-372.05"/>
<polygon fill="midnightblue" stroke="midnightblue" points="1265.98,-374.81 1272.56,-366.51 1262.24,-368.9 1265.98,-374.81"/>
</g>
<!-- Node35 -->
<g id="node35" class="node">
<title>Node35</title>
<g id="a_node35"><a xlink:href="Logger_8hpp.html" target="_top" xlink:title=" ">
<polygon fill="white" stroke="black" points="988.5,-347.5 988.5,-366.5 1097.5,-366.5 1097.5,-347.5 988.5,-347.5"/>
<text text-anchor="middle" x="1043" y="-354.5" font-family="Helvetica,sans-Serif" font-size="10.00">logging/Logger.hpp</text>
</a>
</g>
</g>
<!-- Node31&#45;&gt;Node35 -->
<g id="edge46" class="edge">
<title>Node31&#45;&gt;Node35</title>
<path fill="none" stroke="midnightblue" d="M1170.65,-408.98C1145.31,-398.86 1102.86,-381.9 1073.93,-370.35"/>
<polygon fill="midnightblue" stroke="midnightblue" points="1074.89,-366.97 1064.31,-366.51 1072.3,-373.47 1074.89,-366.97"/>
</g>
<!-- Node38 -->
<g id="node38" class="node">
<title>Node38</title>
<g id="a_node38"><a xlink:href="types_8hpp.html" target="_top" xlink:title=" ">
<polygon fill="white" stroke="black" points="1332.5,-347.5 1332.5,-366.5 1435.5,-366.5 1435.5,-347.5 1332.5,-347.5"/>
<text text-anchor="middle" x="1384" y="-354.5" font-family="Helvetica,sans-Serif" font-size="10.00">precice/types.hpp</text>
</a>
</g>
</g>
<!-- Node31&#45;&gt;Node38 -->
<g id="edge54" class="edge">
<title>Node31&#45;&gt;Node38</title>
<path fill="none" stroke="midnightblue" d="M1219.51,-408.98C1252.87,-398.64 1309.26,-381.16 1346.56,-369.6"/>
<polygon fill="midnightblue" stroke="midnightblue" points="1348.03,-372.81 1356.54,-366.51 1345.95,-366.13 1348.03,-372.81"/>
</g>
<!-- Node39 -->
<g id="node39" class="node">
<title>Node39</title>
<g id="a_node39"><a xlink:title=" ">
<polygon fill="white" stroke="#bfbfbf" points="1454,-347.5 1454,-366.5 1498,-366.5 1498,-347.5 1454,-347.5"/>
<text text-anchor="middle" x="1476" y="-354.5" font-family="Helvetica,sans-Serif" font-size="10.00">mpi.h</text>
</a>
</g>
</g>
<!-- Node31&#45;&gt;Node39 -->
<g id="edge55" class="edge">
<title>Node31&#45;&gt;Node39</title>
<path fill="none" stroke="midnightblue" d="M1241.25,-408.96C1290.33,-400.16 1368.03,-385.45 1443.98,-367.09"/>
<polygon fill="midnightblue" stroke="midnightblue" points="1444.83,-370.49 1453.71,-364.72 1443.17,-363.69 1444.83,-370.49"/>
</g>
<!-- Node35&#45;&gt;Node8 -->
<g id="edge48" class="edge">
<title>Node35&#45;&gt;Node8</title>
<path fill="none" stroke="midnightblue" d="M1028.44,-347.5C1016.14,-339.57 998.98,-326.64 989,-311 953.63,-255.56 997.72,-214.28 951,-168 941.72,-158.8 870.71,-142.66 821.77,-132.41"/>
<polygon fill="midnightblue" stroke="midnightblue" points="822.2,-128.93 811.69,-130.32 820.77,-135.78 822.2,-128.93"/>
</g>
<!-- Node35&#45;&gt;Node33 -->
<g id="edge47" class="edge">
<title>Node35&#45;&gt;Node33</title>
<path fill="none" stroke="midnightblue" d="M1063.6,-347.44C1084.99,-338.56 1118.68,-324.56 1143.02,-314.45"/>
<polygon fill="midnightblue" stroke="midnightblue" points="1144.61,-317.58 1152.5,-310.52 1141.92,-311.12 1144.61,-317.58"/>
</g>
<!-- Node36 -->
<g id="node36" class="node">
<title>Node36</title>
<g id="a_node36"><a xlink:href="LogMacros_8hpp.html" target="_top" xlink:title=" ">
<polygon fill="white" stroke="black" points="998,-291.5 998,-310.5 1088,-310.5 1088,-291.5 998,-291.5"/>
<text text-anchor="middle" x="1043" y="-298.5" font-family="Helvetica,sans-Serif" font-size="10.00">LogMacros.hpp</text>
</a>
</g>
</g>
<!-- Node35&#45;&gt;Node36 -->
<g id="edge49" class="edge">
<title>Node35&#45;&gt;Node36</title>
<path fill="none" stroke="midnightblue" d="M1043,-347.08C1043,-340.01 1043,-329.86 1043,-320.99"/>
<polygon fill="midnightblue" stroke="midnightblue" points="1046.5,-320.75 1043,-310.75 1039.5,-320.75 1046.5,-320.75"/>
</g>
<!-- Node36&#45;&gt;Node9 -->
<g id="edge50" class="edge">
<title>Node36&#45;&gt;Node9</title>
<path fill="none" stroke="midnightblue" d="M1042.62,-291.32C1041.82,-272.76 1039.92,-228.84 1038.82,-203.47"/>
<polygon fill="midnightblue" stroke="midnightblue" points="1042.31,-203.12 1038.38,-193.28 1035.32,-203.42 1042.31,-203.12"/>
</g>
<!-- Node36&#45;&gt;Node27 -->
<g id="edge51" class="edge">
<title>Node36&#45;&gt;Node27</title>
<path fill="none" stroke="midnightblue" d="M997.68,-293.11C936.04,-283.73 825.33,-266.89 754.33,-256.09"/>
<polygon fill="midnightblue" stroke="midnightblue" points="754.57,-252.59 744.15,-254.54 753.51,-259.51 754.57,-252.59"/>
</g>
<!-- Node37 -->
<g id="node37" class="node">
<title>Node37</title>
<g id="a_node37"><a xlink:href="Tracer_8hpp.html" target="_top" xlink:title=" ">
<polygon fill="white" stroke="black" points="1065.5,-235.5 1065.5,-254.5 1170.5,-254.5 1170.5,-235.5 1065.5,-235.5"/>
<text text-anchor="middle" x="1118" y="-242.5" font-family="Helvetica,sans-Serif" font-size="10.00">logging/Tracer.hpp</text>
</a>
</g>
</g>
<!-- Node36&#45;&gt;Node37 -->
<g id="edge52" class="edge">
<title>Node36&#45;&gt;Node37</title>
<path fill="none" stroke="midnightblue" d="M1055.05,-291.32C1066.46,-283.11 1083.83,-270.6 1097.43,-260.81"/>
<polygon fill="midnightblue" stroke="midnightblue" points="1099.66,-263.52 1105.73,-254.83 1095.57,-257.84 1099.66,-263.52"/>
</g>
<!-- Node37&#45;&gt;Node35 -->
<g id="edge53" class="edge">
<title>Node37&#45;&gt;Node35</title>
<path fill="none" stroke="midnightblue" d="M1116.78,-254.67C1114.6,-267.81 1109.08,-293.12 1097,-311 1088.8,-323.13 1076.44,-333.77 1065.6,-341.65"/>
<polygon fill="midnightblue" stroke="midnightblue" points="1063.58,-338.79 1057.35,-347.36 1067.57,-344.55 1063.58,-338.79"/>
</g>
<!-- Node40&#45;&gt;Node10 -->
<g id="edge57" class="edge">
<title>Node40&#45;&gt;Node10</title>
<path fill="none" stroke="midnightblue" d="M174.13,-291.3C172.28,-267.53 170.75,-201.04 207,-168 246.89,-131.65 412.04,-124.63 482.7,-123.3"/>
<polygon fill="midnightblue" stroke="midnightblue" points="482.86,-126.8 492.8,-123.13 482.75,-119.8 482.86,-126.8"/>
</g>
</g>
</svg>
        <g id="navigator" transform="translate(0 0)" fill="#404254">
                <rect fill="#f2f5e9" fill-opacity="0.5" stroke="#606060" stroke-width=".5" x="0" y="0" width="60" height="60"/>
                <use id="zoomplus" xlink:href="#zoomPlus" x="17" y="9" onmousedown="handleZoom(evt,'in')"/>
                <use id="zoomminus" xlink:href="#zoomMin" x="42" y="9" onmousedown="handleZoom(evt,'out')"/>
                <use id="reset" xlink:href="#resetDef" x="30" y="36" onmousedown="handleReset()"/>
                <g id="arrowUp" xlink:href="#dirArrow" transform="translate(30 24)" onmousedown="handlePan(0,-1)">
                  <use xlink:href="#rim" fill="#404040">
                        <set attributeName="fill" to="#808080" begin="arrowUp.mouseover" end="arrowUp.mouseout"/>
                  </use>
                  <path fill="none" stroke="white" stroke-width="1.5" d="M0,-3.0v7 M-2.5,-0.5L0,-3.0L2.5,-0.5"/>
                </g>
                <g id="arrowRight" xlink:href="#dirArrow" transform="rotate(90) translate(36 -43)" onmousedown="handlePan(1,0)">
                  <use xlink:href="#rim" fill="#404040">
                        <set attributeName="fill" to="#808080" begin="arrowRight.mouseover" end="arrowRight.mouseout"/>
                  </use>
                  <path fill="none" stroke="white" stroke-width="1.5" d="M0,-3.0v7 M-2.5,-0.5L0,-3.0L2.5,-0.5"/>
                </g>
                <g id="arrowDown" xlink:href="#dirArrow" transform="rotate(180) translate(-30 -48)" onmousedown="handlePan(0,1)">
                  <use xlink:href="#rim" fill="#404040">
                        <set attributeName="fill" to="#808080" begin="arrowDown.mouseover" end="arrowDown.mouseout"/>
                  </use>
                  <path fill="none" stroke="white" stroke-width="1.5" d="M0,-3.0v7 M-2.5,-0.5L0,-3.0L2.5,-0.5"/>
                </g>
                <g id="arrowLeft" xlink:href="#dirArrow" transform="rotate(270) translate(-36 17)" onmousedown="handlePan(-1,0)">
                  <use xlink:href="#rim" fill="#404040">
                        <set attributeName="fill" to="#808080" begin="arrowLeft.mouseover" end="arrowLeft.mouseout"/>
                  </use>
                  <path fill="none" stroke="white" stroke-width="1.5" d="M0,-3.0v7 M-2.5,-0.5L0,-3.0L2.5,-0.5"/>
                </g>
        </g>
        <svg viewBox="0 0 15 15" width="100%" height="30px" preserveAspectRatio="xMaxYMin meet">
         <g id="arrow_out" transform="scale(0.3 0.3)">
          <a xlink:href="geometry_8hpp__incl_org.svg" target="_base">
           <rect id="button" ry="5" rx="5" y="6" x="6" height="38" width="38"
                fill="#f2f5e9" fill-opacity="0.5" stroke="#606060" stroke-width="1.0"/>
           <path id="arrow"
             d="M 11.500037,31.436501 C 11.940474,20.09759 22.043105,11.32322 32.158766,21.979434 L 37.068811,17.246167 C 37.068811,17.246167 37.088388,32 37.088388,32 L 22.160133,31.978069 C 22.160133,31.978069 26.997745,27.140456 26.997745,27.140456 C 18.528582,18.264221 13.291696,25.230495 11.500037,31.436501 z"
             style="fill:#404040;"/>
          </a>
         </g>
        </svg>
</svg>
