<?xml version="1.0" encoding="UTF-8" standalone="no"?>
<!DOCTYPE svg PUBLIC "-//W3C//DTD SVG 1.1//EN"
 "http://www.w3.org/Graphics/SVG/1.1/DTD/svg11.dtd">
<!-- Generated by graphviz version 2.43.0 (0)
 -->
<!-- Title: src/logging/LogConfiguration.cpp Pages: 1 -->
<svg width="3050pt" height="341pt"
 viewBox="0.00 0.00 3049.52 341.00" xmlns="http://www.w3.org/2000/svg" xmlns:xlink="http://www.w3.org/1999/xlink">
<g id="graph0" class="graph" transform="scale(1 1) rotate(0) translate(4 337)">
<title>src/logging/LogConfiguration.cpp</title>
<polygon fill="white" stroke="transparent" points="-4,4 -4,-337 3045.52,-337 3045.52,4 -4,4"/>
<!-- Node1 -->
<g id="node1" class="node">
<title>Node1</title>
<g id="a_node1"><a xlink:title=" ">
<polygon fill="#bfbfbf" stroke="black" points="1107.52,-313.5 1107.52,-332.5 1283.52,-332.5 1283.52,-313.5 1107.52,-313.5"/>
<text text-anchor="middle" x="1195.52" y="-320.5" font-family="Helvetica,sans-Serif" font-size="10.00">src/logging/LogConfiguration.cpp</text>
</a>
</g>
</g>
<!-- Node2 -->
<g id="node2" class="node">
<title>Node2</title>
<g id="a_node2"><a xlink:href="LogConfiguration_8hpp.html" target="_top" xlink:title=" ">
<polygon fill="white" stroke="black" points="1359.52,-118 1359.52,-137 1479.52,-137 1479.52,-118 1359.52,-118"/>
<text text-anchor="middle" x="1419.52" y="-125" font-family="Helvetica,sans-Serif" font-size="10.00">LogConfiguration.hpp</text>
</a>
</g>
</g>
<!-- Node1&#45;&gt;Node2 -->
<g id="edge1" class="edge">
<title>Node1&#45;&gt;Node2</title>
<path fill="none" stroke="midnightblue" d="M1283.69,-319.65C1410.52,-315.35 1632,-304.03 1656.52,-277 1665.78,-266.8 1665.28,-256.64 1656.52,-246 1603.55,-181.67 1541.59,-256.62 1472.52,-210 1449.61,-194.54 1434.32,-165.5 1426.28,-146.59"/>
<polygon fill="midnightblue" stroke="midnightblue" points="1429.42,-145.03 1422.47,-137.04 1422.92,-147.63 1429.42,-145.03"/>
</g>
<!-- Node3 -->
<g id="node3" class="node">
<title>Node3</title>
<g id="a_node3"><a xlink:title=" ">
<polygon fill="white" stroke="#bfbfbf" points="1516.52,-56.5 1516.52,-75.5 1560.52,-75.5 1560.52,-56.5 1516.52,-56.5"/>
<text text-anchor="middle" x="1538.52" y="-63.5" font-family="Helvetica,sans-Serif" font-size="10.00">string</text>
</a>
</g>
</g>
<!-- Node1&#45;&gt;Node3 -->
<g id="edge20" class="edge">
<title>Node1&#45;&gt;Node3</title>
<path fill="none" stroke="midnightblue" d="M1283.64,-314.36C1341.95,-307.66 1411.71,-295.96 1434.52,-277 1470.44,-247.14 1452.15,-221.04 1472.52,-179 1489.41,-144.15 1513.31,-105.69 1527.24,-84.13"/>
<polygon fill="midnightblue" stroke="midnightblue" points="1530.18,-86.02 1532.71,-75.73 1524.32,-82.2 1530.18,-86.02"/>
</g>
<!-- Node5 -->
<g id="node5" class="node">
<title>Node5</title>
<g id="a_node5"><a xlink:title=" ">
<polygon fill="white" stroke="#bfbfbf" points="1225.52,-0.5 1225.52,-19.5 1289.52,-19.5 1289.52,-0.5 1225.52,-0.5"/>
<text text-anchor="middle" x="1257.52" y="-7.5" font-family="Helvetica,sans-Serif" font-size="10.00">algorithm</text>
</a>
</g>
</g>
<!-- Node1&#45;&gt;Node5 -->
<g id="edge4" class="edge">
<title>Node1&#45;&gt;Node5</title>
<path fill="none" stroke="midnightblue" d="M1107.4,-321.4C842.2,-319.24 67.06,-310.12 24.52,-277 -5.28,-253.81 0.52,-233.26 0.52,-195.5 0.52,-195.5 0.52,-195.5 0.52,-126.5 0.52,-93.4 -2.04,-75.76 24.52,-56 73.27,-19.74 1004.37,-12.4 1215.29,-11.21"/>
<polygon fill="midnightblue" stroke="midnightblue" points="1215.37,-14.71 1225.35,-11.15 1215.33,-7.71 1215.37,-14.71"/>
</g>
<!-- Node6 -->
<g id="node6" class="node">
<title>Node6</title>
<g id="a_node6"><a xlink:title=" ">
<polygon fill="white" stroke="#bfbfbf" points="104.02,-252 104.02,-271 253.02,-271 253.02,-252 104.02,-252"/>
<text text-anchor="middle" x="178.52" y="-259" font-family="Helvetica,sans-Serif" font-size="10.00">boost/core/null_deleter.hpp</text>
</a>
</g>
</g>
<!-- Node1&#45;&gt;Node6 -->
<g id="edge5" class="edge">
<title>Node1&#45;&gt;Node6</title>
<path fill="none" stroke="midnightblue" d="M1107.44,-321.35C941.6,-319.32 571.81,-311.02 262.52,-277 252.59,-275.91 242.06,-274.38 231.93,-272.73"/>
<polygon fill="midnightblue" stroke="midnightblue" points="232.42,-269.26 221.97,-271.05 231.25,-276.17 232.42,-269.26"/>
</g>
<!-- Node7 -->
<g id="node7" class="node">
<title>Node7</title>
<g id="a_node7"><a xlink:title=" ">
<polygon fill="white" stroke="#bfbfbf" points="271.52,-246.5 271.52,-276.5 399.52,-276.5 399.52,-246.5 271.52,-246.5"/>
<text text-anchor="start" x="279.52" y="-264.5" font-family="Helvetica,sans-Serif" font-size="10.00">boost/log/attributes</text>
<text text-anchor="middle" x="335.52" y="-253.5" font-family="Helvetica,sans-Serif" font-size="10.00">/mutable_constant.hpp</text>
</a>
</g>
</g>
<!-- Node1&#45;&gt;Node7 -->
<g id="edge6" class="edge">
<title>Node1&#45;&gt;Node7</title>
<path fill="none" stroke="midnightblue" d="M1107.34,-320.86C961.57,-318.11 661.41,-308.74 409.52,-277 409.42,-276.99 409.32,-276.97 409.21,-276.96"/>
<polygon fill="midnightblue" stroke="midnightblue" points="410,-273.54 399.61,-275.61 409.02,-280.47 410,-273.54"/>
</g>
<!-- Node8 -->
<g id="node8" class="node">
<title>Node8</title>
<g id="a_node8"><a xlink:title=" ">
<polygon fill="white" stroke="#bfbfbf" points="418.02,-252 418.02,-271 525.02,-271 525.02,-252 418.02,-252"/>
<text text-anchor="middle" x="471.52" y="-259" font-family="Helvetica,sans-Serif" font-size="10.00">boost/log/core.hpp</text>
</a>
</g>
</g>
<!-- Node1&#45;&gt;Node8 -->
<g id="edge7" class="edge">
<title>Node1&#45;&gt;Node8</title>
<path fill="none" stroke="midnightblue" d="M1107.37,-320.43C980.2,-317.15 738.19,-307.18 534.52,-277 527.8,-276.01 520.75,-274.67 513.88,-273.21"/>
<polygon fill="midnightblue" stroke="midnightblue" points="514.55,-269.78 504.03,-271.02 513.03,-276.61 514.55,-269.78"/>
</g>
<!-- Node9 -->
<g id="node9" class="node">
<title>Node9</title>
<g id="a_node9"><a xlink:title=" ">
<polygon fill="white" stroke="#bfbfbf" points="543.52,-252 543.52,-271 687.52,-271 687.52,-252 543.52,-252"/>
<text text-anchor="middle" x="615.52" y="-259" font-family="Helvetica,sans-Serif" font-size="10.00">boost/log/expressions.hpp</text>
</a>
</g>
</g>
<!-- Node1&#45;&gt;Node9 -->
<g id="edge8" class="edge">
<title>Node1&#45;&gt;Node9</title>
<path fill="none" stroke="midnightblue" d="M1107.37,-316.38C1007.46,-309.48 839.84,-296.25 696.52,-277 687.67,-275.81 678.32,-274.34 669.23,-272.79"/>
<polygon fill="midnightblue" stroke="midnightblue" points="669.58,-269.3 659.13,-271.03 668.38,-276.2 669.58,-269.3"/>
</g>
<!-- Node10 -->
<g id="node10" class="node">
<title>Node10</title>
<g id="a_node10"><a xlink:title=" ">
<polygon fill="white" stroke="#bfbfbf" points="705.52,-252 705.52,-271 839.52,-271 839.52,-252 705.52,-252"/>
<text text-anchor="middle" x="772.52" y="-259" font-family="Helvetica,sans-Serif" font-size="10.00">boost/log/sinks/sink.hpp</text>
</a>
</g>
</g>
<!-- Node1&#45;&gt;Node10 -->
<g id="edge9" class="edge">
<title>Node1&#45;&gt;Node10</title>
<path fill="none" stroke="midnightblue" d="M1119.52,-313.46C1049.09,-305.24 941.49,-291.88 848.52,-277 840.78,-275.76 832.62,-274.33 824.63,-272.87"/>
<polygon fill="midnightblue" stroke="midnightblue" points="825.12,-269.4 814.65,-271 823.84,-276.28 825.12,-269.4"/>
</g>
<!-- Node11 -->
<g id="node11" class="node">
<title>Node11</title>
<g id="a_node11"><a xlink:title=" ">
<polygon fill="white" stroke="#bfbfbf" points="857.52,-246.5 857.52,-276.5 983.52,-276.5 983.52,-246.5 857.52,-246.5"/>
<text text-anchor="start" x="865.52" y="-264.5" font-family="Helvetica,sans-Serif" font-size="10.00">boost/log/support/date</text>
<text text-anchor="middle" x="920.52" y="-253.5" font-family="Helvetica,sans-Serif" font-size="10.00">_time.hpp</text>
</a>
</g>
</g>
<!-- Node1&#45;&gt;Node11 -->
<g id="edge10" class="edge">
<title>Node1&#45;&gt;Node11</title>
<path fill="none" stroke="midnightblue" d="M1156.12,-313.48C1113.84,-304.33 1045.75,-289.6 993.62,-278.32"/>
<polygon fill="midnightblue" stroke="midnightblue" points="994.26,-274.87 983.75,-276.18 992.78,-281.72 994.26,-274.87"/>
</g>
<!-- Node12 -->
<g id="node12" class="node">
<title>Node12</title>
<g id="a_node12"><a xlink:title=" ">
<polygon fill="white" stroke="#bfbfbf" points="1001.52,-252 1001.52,-271 1115.52,-271 1115.52,-252 1001.52,-252"/>
<text text-anchor="middle" x="1058.52" y="-259" font-family="Helvetica,sans-Serif" font-size="10.00">boost/log/trivial.hpp</text>
</a>
</g>
</g>
<!-- Node1&#45;&gt;Node12 -->
<g id="edge11" class="edge">
<title>Node1&#45;&gt;Node12</title>
<path fill="none" stroke="midnightblue" d="M1175.89,-313.48C1152.69,-303.4 1113.9,-286.55 1087.31,-275"/>
<polygon fill="midnightblue" stroke="midnightblue" points="1088.68,-271.78 1078.11,-271.01 1085.89,-278.2 1088.68,-271.78"/>
</g>
<!-- Node13 -->
<g id="node13" class="node">
<title>Node13</title>
<g id="a_node13"><a xlink:title=" ">
<polygon fill="white" stroke="#bfbfbf" points="1134.02,-246.5 1134.02,-276.5 1257.02,-276.5 1257.02,-246.5 1134.02,-246.5"/>
<text text-anchor="start" x="1142.02" y="-264.5" font-family="Helvetica,sans-Serif" font-size="10.00">boost/log/utility/setup</text>
<text text-anchor="middle" x="1195.52" y="-253.5" font-family="Helvetica,sans-Serif" font-size="10.00">/console.hpp</text>
</a>
</g>
</g>
<!-- Node1&#45;&gt;Node13 -->
<g id="edge12" class="edge">
<title>Node1&#45;&gt;Node13</title>
<path fill="none" stroke="midnightblue" d="M1195.52,-313.48C1195.52,-306.47 1195.52,-296.19 1195.52,-286.7"/>
<polygon fill="midnightblue" stroke="midnightblue" points="1199.02,-286.52 1195.52,-276.52 1192.02,-286.52 1199.02,-286.52"/>
</g>
<!-- Node14 -->
<g id="node14" class="node">
<title>Node14</title>
<g id="a_node14"><a xlink:title=" ">
<polygon fill="white" stroke="#bfbfbf" points="1275.52,-252 1275.52,-271 1425.52,-271 1425.52,-252 1275.52,-252"/>
<text text-anchor="middle" x="1350.52" y="-259" font-family="Helvetica,sans-Serif" font-size="10.00">boost/program_options.hpp</text>
</a>
</g>
</g>
<!-- Node1&#45;&gt;Node14 -->
<g id="edge13" class="edge">
<title>Node1&#45;&gt;Node14</title>
<path fill="none" stroke="midnightblue" d="M1217.73,-313.48C1244.2,-303.31 1288.63,-286.26 1318.74,-274.7"/>
<polygon fill="midnightblue" stroke="midnightblue" points="1320.27,-277.86 1328.35,-271.01 1317.76,-271.33 1320.27,-277.86"/>
</g>
<!-- Node15 -->
<g id="node15" class="node">
<title>Node15</title>
<g id="a_node15"><a xlink:title=" ">
<polygon fill="white" stroke="#bfbfbf" points="2674.02,-0.5 2674.02,-19.5 2721.02,-19.5 2721.02,-0.5 2674.02,-0.5"/>
<text text-anchor="middle" x="2697.52" y="-7.5" font-family="Helvetica,sans-Serif" font-size="10.00">deque</text>
</a>
</g>
</g>
<!-- Node1&#45;&gt;Node15 -->
<g id="edge14" class="edge">
<title>Node1&#45;&gt;Node15</title>
<path fill="none" stroke="midnightblue" d="M1283.64,-320.5C1646.17,-313.77 3003.52,-282.74 3003.52,-195.5 3003.52,-195.5 3003.52,-195.5 3003.52,-126.5 3003.52,-68.76 2810.41,-29.87 2731,-16.32"/>
<polygon fill="midnightblue" stroke="midnightblue" points="2731.46,-12.85 2721.02,-14.65 2730.31,-19.75 2731.46,-12.85"/>
</g>
<!-- Node16 -->
<g id="node16" class="node">
<title>Node16</title>
<g id="a_node16"><a xlink:title=" ">
<polygon fill="white" stroke="#bfbfbf" points="1482.02,-252 1482.02,-271 1537.02,-271 1537.02,-252 1482.02,-252"/>
<text text-anchor="middle" x="1509.52" y="-259" font-family="Helvetica,sans-Serif" font-size="10.00">fstream</text>
</a>
</g>
</g>
<!-- Node1&#45;&gt;Node16 -->
<g id="edge15" class="edge">
<title>Node1&#45;&gt;Node16</title>
<path fill="none" stroke="midnightblue" d="M1267.21,-313.5C1322.46,-306.14 1400.47,-293.99 1467.52,-277 1470.73,-276.19 1474.05,-275.23 1477.35,-274.22"/>
<polygon fill="midnightblue" stroke="midnightblue" points="1478.65,-277.48 1487.06,-271.03 1476.47,-270.82 1478.65,-277.48"/>
</g>
<!-- Node17 -->
<g id="node17" class="node">
<title>Node17</title>
<g id="a_node17"><a xlink:title=" ">
<polygon fill="white" stroke="#bfbfbf" points="1481.52,-185 1481.52,-204 1541.52,-204 1541.52,-185 1481.52,-185"/>
<text text-anchor="middle" x="1511.52" y="-192" font-family="Helvetica,sans-Serif" font-size="10.00">iostream</text>
</a>
</g>
</g>
<!-- Node1&#45;&gt;Node17 -->
<g id="edge16" class="edge">
<title>Node1&#45;&gt;Node17</title>
<path fill="none" stroke="midnightblue" d="M1283.64,-316.69C1381.9,-309.86 1529.37,-296.49 1546.52,-277 1563.46,-257.75 1543.56,-229.07 1527.57,-211.36"/>
<polygon fill="midnightblue" stroke="midnightblue" points="1530.07,-208.91 1520.65,-204.07 1525,-213.73 1530.07,-208.91"/>
</g>
<!-- Node18 -->
<g id="node18" class="node">
<title>Node18</title>
<g id="a_node18"><a xlink:title=" ">
<polygon fill="white" stroke="#bfbfbf" points="1594.02,-252 1594.02,-271 1647.02,-271 1647.02,-252 1594.02,-252"/>
<text text-anchor="middle" x="1620.52" y="-259" font-family="Helvetica,sans-Serif" font-size="10.00">iterator</text>
</a>
</g>
</g>
<!-- Node1&#45;&gt;Node18 -->
<g id="edge17" class="edge">
<title>Node1&#45;&gt;Node18</title>
<path fill="none" stroke="midnightblue" d="M1283.79,-317.27C1362.24,-311.74 1479.65,-300.2 1579.52,-277 1582.75,-276.25 1586.09,-275.33 1589.39,-274.32"/>
<polygon fill="midnightblue" stroke="midnightblue" points="1590.7,-277.57 1599.08,-271.1 1588.49,-270.93 1590.7,-277.57"/>
</g>
<!-- Node19 -->
<g id="node19" class="node">
<title>Node19</title>
<g id="a_node19"><a xlink:title=" ">
<polygon fill="white" stroke="#bfbfbf" points="2880.52,-0.5 2880.52,-19.5 2918.52,-19.5 2918.52,-0.5 2880.52,-0.5"/>
<text text-anchor="middle" x="2899.52" y="-7.5" font-family="Helvetica,sans-Serif" font-size="10.00">map</text>
</a>
</g>
</g>
<!-- Node1&#45;&gt;Node19 -->
<g id="edge18" class="edge">
<title>Node1&#45;&gt;Node19</title>
<path fill="none" stroke="midnightblue" d="M1283.55,-321.28C1559.82,-318.73 2407.47,-308.46 2680.52,-277 2843.92,-258.17 3041.52,-359.98 3041.52,-195.5 3041.52,-195.5 3041.52,-195.5 3041.52,-126.5 3041.52,-68.67 2969.75,-34.69 2928.26,-19.88"/>
<polygon fill="midnightblue" stroke="midnightblue" points="2929.26,-16.52 2918.67,-16.6 2927,-23.15 2929.26,-16.52"/>
</g>
<!-- Node20 -->
<g id="node20" class="node">
<title>Node20</title>
<g id="a_node20"><a xlink:title=" ">
<polygon fill="white" stroke="#bfbfbf" points="1307.52,-0.5 1307.52,-19.5 1363.52,-19.5 1363.52,-0.5 1307.52,-0.5"/>
<text text-anchor="middle" x="1335.52" y="-7.5" font-family="Helvetica,sans-Serif" font-size="10.00">sstream</text>
</a>
</g>
</g>
<!-- Node1&#45;&gt;Node20 -->
<g id="edge19" class="edge">
<title>Node1&#45;&gt;Node20</title>
<path fill="none" stroke="midnightblue" d="M1107.18,-320.78C851.6,-316.94 126.8,-303.74 83.52,-277 48.32,-255.25 38.52,-236.88 38.52,-195.5 38.52,-195.5 38.52,-195.5 38.52,-126.5 38.52,11.19 1115.4,-40.4 1297.32,-19.69"/>
<polygon fill="midnightblue" stroke="midnightblue" points="1297.89,-23.15 1307.33,-18.33 1296.95,-16.21 1297.89,-23.15"/>
</g>
<!-- Node21 -->
<g id="node21" class="node">
<title>Node21</title>
<g id="a_node21"><a xlink:title=" ">
<polygon fill="white" stroke="#bfbfbf" points="2115.02,-252 2115.02,-271 2160.02,-271 2160.02,-252 2115.02,-252"/>
<text text-anchor="middle" x="2137.52" y="-259" font-family="Helvetica,sans-Serif" font-size="10.00">utility</text>
</a>
</g>
</g>
<!-- Node1&#45;&gt;Node21 -->
<g id="edge21" class="edge">
<title>Node1&#45;&gt;Node21</title>
<path fill="none" stroke="midnightblue" d="M1283.68,-321.97C1480.9,-321.19 1952.45,-315.26 2106.52,-277 2108.51,-276.51 2110.52,-275.88 2112.52,-275.17"/>
<polygon fill="midnightblue" stroke="midnightblue" points="2114.32,-278.21 2122.18,-271.11 2111.61,-271.76 2114.32,-278.21"/>
</g>
<!-- Node22 -->
<g id="node22" class="node">
<title>Node22</title>
<g id="a_node22"><a xlink:href="String_8hpp.html" target="_top" xlink:title=" ">
<polygon fill="white" stroke="black" points="1251.52,-118 1251.52,-137 1341.52,-137 1341.52,-118 1251.52,-118"/>
<text text-anchor="middle" x="1296.52" y="-125" font-family="Helvetica,sans-Serif" font-size="10.00">utils/String.hpp</text>
</a>
</g>
</g>
<!-- Node1&#45;&gt;Node22 -->
<g id="edge22" class="edge">
<title>Node1&#45;&gt;Node22</title>
<path fill="none" stroke="midnightblue" d="M1107.38,-321.68C852.49,-320.33 130.37,-313.3 95.52,-277 85.98,-267.06 86.26,-256.21 95.52,-246 173.45,-160.07 1015.51,-134.88 1241.16,-129.65"/>
<polygon fill="midnightblue" stroke="midnightblue" points="1241.52,-133.14 1251.43,-129.41 1241.36,-126.14 1241.52,-133.14"/>
</g>
<!-- Node24 -->
<g id="node24" class="node">
<title>Node24</title>
<g id="a_node24"><a xlink:href="assertion_8hpp.html" target="_top" xlink:title=" ">
<polygon fill="white" stroke="black" points="1990.02,-252 1990.02,-271 2097.02,-271 2097.02,-252 1990.02,-252"/>
<text text-anchor="middle" x="2043.52" y="-259" font-family="Helvetica,sans-Serif" font-size="10.00">utils/assertion.hpp</text>
</a>
</g>
</g>
<!-- Node1&#45;&gt;Node24 -->
<g id="edge28" class="edge">
<title>Node1&#45;&gt;Node24</title>
<path fill="none" stroke="midnightblue" d="M1283.87,-315.8C1455.37,-303.77 1829.69,-277.5 1979.58,-266.99"/>
<polygon fill="midnightblue" stroke="midnightblue" points="1980.25,-270.45 1989.98,-266.26 1979.76,-263.46 1980.25,-270.45"/>
</g>
<!-- Node2&#45;&gt;Node3 -->
<g id="edge2" class="edge">
<title>Node2&#45;&gt;Node3</title>
<path fill="none" stroke="midnightblue" d="M1436.57,-117.98C1456.36,-108.08 1489.23,-91.64 1512.29,-80.12"/>
<polygon fill="midnightblue" stroke="midnightblue" points="1514.12,-83.11 1521.5,-75.51 1510.99,-76.85 1514.12,-83.11"/>
</g>
<!-- Node4 -->
<g id="node4" class="node">
<title>Node4</title>
<g id="a_node4"><a xlink:title=" ">
<polygon fill="white" stroke="#bfbfbf" points="1551.02,-0.5 1551.02,-19.5 1598.02,-19.5 1598.02,-0.5 1551.02,-0.5"/>
<text text-anchor="middle" x="1574.52" y="-7.5" font-family="Helvetica,sans-Serif" font-size="10.00">vector</text>
</a>
</g>
</g>
<!-- Node2&#45;&gt;Node4 -->
<g id="edge3" class="edge">
<title>Node2&#45;&gt;Node4</title>
<path fill="none" stroke="midnightblue" d="M1429.6,-117.97C1445.73,-104.41 1478.49,-77.32 1507.52,-56 1522.2,-45.22 1539.25,-33.78 1552.47,-25.14"/>
<polygon fill="midnightblue" stroke="midnightblue" points="1554.46,-28.02 1560.94,-19.64 1550.65,-22.15 1554.46,-28.02"/>
</g>
<!-- Node22&#45;&gt;Node3 -->
<g id="edge26" class="edge">
<title>Node22&#45;&gt;Node3</title>
<path fill="none" stroke="midnightblue" d="M1327.61,-118C1335.1,-115.99 1343.09,-113.89 1350.52,-112 1405.23,-98.11 1469.2,-83.05 1506.64,-74.35"/>
<polygon fill="midnightblue" stroke="midnightblue" points="1507.52,-77.74 1516.47,-72.07 1505.94,-70.92 1507.52,-77.74"/>
</g>
<!-- Node22&#45;&gt;Node4 -->
<g id="edge27" class="edge">
<title>Node22&#45;&gt;Node4</title>
<path fill="none" stroke="midnightblue" d="M1310.46,-117.99C1334.23,-103.73 1384.4,-74.77 1429.52,-56 1466.74,-40.52 1511.25,-27.47 1541.05,-19.48"/>
<polygon fill="midnightblue" stroke="midnightblue" points="1542.17,-22.8 1550.94,-16.86 1540.38,-16.03 1542.17,-22.8"/>
</g>
<!-- Node22&#45;&gt;Node5 -->
<g id="edge23" class="edge">
<title>Node22&#45;&gt;Node5</title>
<path fill="none" stroke="midnightblue" d="M1293.59,-117.82C1287.26,-99.09 1272.22,-54.55 1263.69,-29.29"/>
<polygon fill="midnightblue" stroke="midnightblue" points="1267,-28.14 1260.48,-19.78 1260.37,-30.38 1267,-28.14"/>
</g>
<!-- Node22&#45;&gt;Node20 -->
<g id="edge25" class="edge">
<title>Node22&#45;&gt;Node20</title>
<path fill="none" stroke="midnightblue" d="M1299.45,-117.82C1305.77,-99.09 1320.81,-54.55 1329.34,-29.29"/>
<polygon fill="midnightblue" stroke="midnightblue" points="1332.67,-30.38 1332.55,-19.78 1326.04,-28.14 1332.67,-30.38"/>
</g>
<!-- Node23 -->
<g id="node23" class="node">
<title>Node23</title>
<g id="a_node23"><a xlink:title=" ">
<polygon fill="white" stroke="#bfbfbf" points="1877.52,-0.5 1877.52,-19.5 1919.52,-19.5 1919.52,-0.5 1877.52,-0.5"/>
<text text-anchor="middle" x="1898.52" y="-7.5" font-family="Helvetica,sans-Serif" font-size="10.00">array</text>
</a>
</g>
</g>
<!-- Node22&#45;&gt;Node23 -->
<g id="edge24" class="edge">
<title>Node22&#45;&gt;Node23</title>
<path fill="none" stroke="midnightblue" d="M1317.37,-117.91C1354.78,-102.87 1436.07,-71.87 1507.52,-56 1639.26,-26.74 1800.46,-15.85 1867.24,-12.39"/>
<polygon fill="midnightblue" stroke="midnightblue" points="1867.68,-15.87 1877.49,-11.88 1867.33,-8.88 1867.68,-15.87"/>
</g>
<!-- Node24&#45;&gt;Node17 -->
<g id="edge30" class="edge">
<title>Node24&#45;&gt;Node17</title>
<path fill="none" stroke="midnightblue" d="M1989.67,-259.28C1898.42,-256.26 1708.04,-245.83 1551.52,-210 1548.28,-209.26 1544.94,-208.33 1541.64,-207.3"/>
<polygon fill="midnightblue" stroke="midnightblue" points="1542.58,-203.93 1531.99,-204.01 1540.32,-210.55 1542.58,-203.93"/>
</g>
<!-- Node25 -->
<g id="node25" class="node">
<title>Node25</title>
<g id="a_node25"><a xlink:title=" ">
<polygon fill="white" stroke="#bfbfbf" points="1762.02,-185 1762.02,-204 1811.02,-204 1811.02,-185 1762.02,-185"/>
<text text-anchor="middle" x="1786.52" y="-192" font-family="Helvetica,sans-Serif" font-size="10.00">cstdlib</text>
</a>
</g>
</g>
<!-- Node24&#45;&gt;Node25 -->
<g id="edge29" class="edge">
<title>Node24&#45;&gt;Node25</title>
<path fill="none" stroke="midnightblue" d="M1994.11,-251.97C1948.46,-243.46 1879.06,-228.94 1820.52,-210 1818.59,-209.38 1816.63,-208.69 1814.66,-207.96"/>
<polygon fill="midnightblue" stroke="midnightblue" points="1815.58,-204.56 1804.99,-204.09 1812.98,-211.06 1815.58,-204.56"/>
</g>
<!-- Node26 -->
<g id="node26" class="node">
<title>Node26</title>
<g id="a_node26"><a xlink:title=" ">
<polygon fill="white" stroke="#bfbfbf" points="2004.02,-56.5 2004.02,-75.5 2077.02,-75.5 2077.02,-56.5 2004.02,-56.5"/>
<text text-anchor="middle" x="2040.52" y="-63.5" font-family="Helvetica,sans-Serif" font-size="10.00">string_view</text>
</a>
</g>
</g>
<!-- Node24&#45;&gt;Node26 -->
<g id="edge31" class="edge">
<title>Node24&#45;&gt;Node26</title>
<path fill="none" stroke="midnightblue" d="M2080.64,-251.96C2141.06,-238.02 2254.14,-211.74 2255.52,-210 2264.06,-199.19 2261.35,-191.48 2255.52,-179 2254.29,-176.37 2178.05,-113.41 2175.52,-112 2147.88,-96.56 2114.09,-85.3 2087.23,-77.91"/>
<polygon fill="midnightblue" stroke="midnightblue" points="2087.87,-74.46 2077.3,-75.26 2086.06,-81.22 2087.87,-74.46"/>
</g>
<!-- Node27 -->
<g id="node27" class="node">
<title>Node27</title>
<g id="a_node27"><a xlink:href="fmt_8hpp.html" target="_top" xlink:title=" ">
<polygon fill="white" stroke="black" points="2223.02,-118 2223.02,-137 2302.02,-137 2302.02,-118 2223.02,-118"/>
<text text-anchor="middle" x="2262.52" y="-125" font-family="Helvetica,sans-Serif" font-size="10.00">utils/fmt.hpp</text>
</a>
</g>
</g>
<!-- Node24&#45;&gt;Node27 -->
<g id="edge32" class="edge">
<title>Node24&#45;&gt;Node27</title>
<path fill="none" stroke="midnightblue" d="M2079.79,-251.95C2088.53,-249.95 2097.85,-247.85 2106.52,-246 2187.15,-228.75 2236.17,-273.71 2288.52,-210 2303.93,-191.24 2289.05,-163.2 2276.29,-145.38"/>
<polygon fill="midnightblue" stroke="midnightblue" points="2278.82,-142.93 2269.97,-137.1 2273.25,-147.18 2278.82,-142.93"/>
</g>
<!-- Node35 -->
<g id="node33" class="node">
<title>Node35</title>
<g id="a_node33"><a xlink:title=" ">
<polygon fill="white" stroke="#bfbfbf" points="1829.02,-185 1829.02,-204 1976.02,-204 1976.02,-185 1829.02,-185"/>
<text text-anchor="middle" x="1902.52" y="-192" font-family="Helvetica,sans-Serif" font-size="10.00">boost/current_function.hpp</text>
</a>
</g>
</g>
<!-- Node24&#45;&gt;Node35 -->
<g id="edge48" class="edge">
<title>Node24&#45;&gt;Node35</title>
<path fill="none" stroke="midnightblue" d="M2024.79,-251.87C2000.67,-240.75 1958.52,-221.32 1930.56,-208.43"/>
<polygon fill="midnightblue" stroke="midnightblue" points="1931.87,-205.18 1921.32,-204.17 1928.94,-211.53 1931.87,-205.18"/>
</g>
<!-- Node36 -->
<g id="node34" class="node">
<title>Node36</title>
<g id="a_node34"><a xlink:title=" ">
<polygon fill="white" stroke="#bfbfbf" points="2111.02,-179.5 2111.02,-209.5 2246.02,-209.5 2246.02,-179.5 2111.02,-179.5"/>
<text text-anchor="start" x="2119.02" y="-197.5" font-family="Helvetica,sans-Serif" font-size="10.00">boost/preprocessor</text>
<text text-anchor="middle" x="2178.52" y="-186.5" font-family="Helvetica,sans-Serif" font-size="10.00">/comparison/greater.hpp</text>
</a>
</g>
</g>
<!-- Node24&#45;&gt;Node36 -->
<g id="edge49" class="edge">
<title>Node24&#45;&gt;Node36</title>
<path fill="none" stroke="midnightblue" d="M2061.45,-251.87C2081.44,-242.24 2114.37,-226.39 2140.22,-213.94"/>
<polygon fill="midnightblue" stroke="midnightblue" points="2141.89,-217.02 2149.38,-209.53 2138.85,-210.71 2141.89,-217.02"/>
</g>
<!-- Node37 -->
<g id="node35" class="node">
<title>Node37</title>
<g id="a_node35"><a xlink:title=" ">
<polygon fill="white" stroke="#bfbfbf" points="2865.52,-112.5 2865.52,-142.5 2975.52,-142.5 2975.52,-112.5 2865.52,-112.5"/>
<text text-anchor="start" x="2873.52" y="-130.5" font-family="Helvetica,sans-Serif" font-size="10.00">boost/preprocessor</text>
<text text-anchor="middle" x="2920.52" y="-119.5" font-family="Helvetica,sans-Serif" font-size="10.00">/control/if.hpp</text>
</a>
</g>
</g>
<!-- Node24&#45;&gt;Node37 -->
<g id="edge50" class="edge">
<title>Node24&#45;&gt;Node37</title>
<path fill="none" stroke="midnightblue" d="M2076.03,-251.96C2085.77,-249.68 2096.52,-247.46 2106.52,-246 2356.38,-209.56 2425.61,-257.95 2673.52,-210 2746.93,-195.8 2828.72,-165.87 2877.33,-146.5"/>
<polygon fill="midnightblue" stroke="midnightblue" points="2878.92,-149.64 2886.89,-142.66 2876.3,-143.14 2878.92,-149.64"/>
</g>
<!-- Node38 -->
<g id="node36" class="node">
<title>Node38</title>
<g id="a_node36"><a xlink:title=" ">
<polygon fill="white" stroke="#bfbfbf" points="2320.52,-112.5 2320.52,-142.5 2430.52,-142.5 2430.52,-112.5 2320.52,-112.5"/>
<text text-anchor="start" x="2328.52" y="-130.5" font-family="Helvetica,sans-Serif" font-size="10.00">boost/preprocessor</text>
<text text-anchor="middle" x="2375.52" y="-119.5" font-family="Helvetica,sans-Serif" font-size="10.00">/stringize.hpp</text>
</a>
</g>
</g>
<!-- Node24&#45;&gt;Node38 -->
<g id="edge51" class="edge">
<title>Node24&#45;&gt;Node38</title>
<path fill="none" stroke="midnightblue" d="M2079.44,-251.92C2088.27,-249.9 2097.72,-247.81 2106.52,-246 2194.56,-227.92 2227.52,-254.66 2305.52,-210 2330,-195.98 2349.99,-170.08 2362.25,-151.23"/>
<polygon fill="midnightblue" stroke="midnightblue" points="2365.29,-152.96 2367.63,-142.62 2359.36,-149.24 2365.29,-152.96"/>
</g>
<!-- Node39 -->
<g id="node37" class="node">
<title>Node39</title>
<g id="a_node37"><a xlink:title=" ">
<polygon fill="white" stroke="#bfbfbf" points="2378.52,-179.5 2378.52,-209.5 2488.52,-209.5 2488.52,-179.5 2378.52,-179.5"/>
<text text-anchor="start" x="2386.52" y="-197.5" font-family="Helvetica,sans-Serif" font-size="10.00">boost/preprocessor</text>
<text text-anchor="middle" x="2433.52" y="-186.5" font-family="Helvetica,sans-Serif" font-size="10.00">/variadic/size.hpp</text>
</a>
</g>
</g>
<!-- Node24&#45;&gt;Node39 -->
<g id="edge52" class="edge">
<title>Node24&#45;&gt;Node39</title>
<path fill="none" stroke="midnightblue" d="M2078.07,-251.98C2087.28,-249.86 2097.25,-247.71 2106.52,-246 2220.37,-225 2250.47,-229.92 2364.52,-210 2365.77,-209.78 2367.04,-209.56 2368.32,-209.33"/>
<polygon fill="midnightblue" stroke="midnightblue" points="2369.04,-212.75 2378.22,-207.47 2367.75,-205.87 2369.04,-212.75"/>
</g>
<!-- Node40 -->
<g id="node38" class="node">
<title>Node40</title>
<g id="a_node38"><a xlink:href="ArgumentFormatter_8hpp.html" target="_top" xlink:title=" ">
<polygon fill="white" stroke="black" points="2507.02,-185 2507.02,-204 2664.02,-204 2664.02,-185 2507.02,-185"/>
<text text-anchor="middle" x="2585.52" y="-192" font-family="Helvetica,sans-Serif" font-size="10.00">utils/ArgumentFormatter.hpp</text>
</a>
</g>
</g>
<!-- Node24&#45;&gt;Node40 -->
<g id="edge53" class="edge">
<title>Node24&#45;&gt;Node40</title>
<path fill="none" stroke="midnightblue" d="M2076.7,-251.98C2086.27,-249.77 2096.77,-247.56 2106.52,-246 2278.83,-218.37 2324.42,-232.2 2497.52,-210 2507.31,-208.74 2517.68,-207.21 2527.74,-205.63"/>
<polygon fill="midnightblue" stroke="midnightblue" points="2528.34,-209.07 2537.65,-204.02 2527.22,-202.16 2528.34,-209.07"/>
</g>
<!-- Node44 -->
<g id="node42" class="node">
<title>Node44</title>
<g id="a_node42"><a xlink:href="Parallel_8hpp.html" target="_top" xlink:title=" ">
<polygon fill="white" stroke="black" points="1994.52,-185 1994.52,-204 2092.52,-204 2092.52,-185 1994.52,-185"/>
<text text-anchor="middle" x="2043.52" y="-192" font-family="Helvetica,sans-Serif" font-size="10.00">utils/Parallel.hpp</text>
</a>
</g>
</g>
<!-- Node24&#45;&gt;Node44 -->
<g id="edge60" class="edge">
<title>Node24&#45;&gt;Node44</title>
<path fill="none" stroke="midnightblue" d="M2043.52,-251.73C2043.52,-242.18 2043.52,-226.62 2043.52,-214.28"/>
<polygon fill="midnightblue" stroke="midnightblue" points="2047.02,-214.13 2043.52,-204.13 2040.02,-214.13 2047.02,-214.13"/>
</g>
<!-- Node53 -->
<g id="node49" class="node">
<title>Node53</title>
<g id="a_node49"><a xlink:href="stacktrace_8hpp.html" target="_top" xlink:title=" ">
<polygon fill="white" stroke="black" points="1560.02,-185 1560.02,-204 1673.02,-204 1673.02,-185 1560.02,-185"/>
<text text-anchor="middle" x="1616.52" y="-192" font-family="Helvetica,sans-Serif" font-size="10.00">utils/stacktrace.hpp</text>
</a>
</g>
</g>
<!-- Node24&#45;&gt;Node53 -->
<g id="edge71" class="edge">
<title>Node24&#45;&gt;Node53</title>
<path fill="none" stroke="midnightblue" d="M1989.79,-254.3C1919.09,-245.84 1791.06,-229.48 1682.52,-210 1676.23,-208.87 1669.63,-207.57 1663.13,-206.21"/>
<polygon fill="midnightblue" stroke="midnightblue" points="1663.58,-202.73 1653.07,-204.06 1662.12,-209.57 1663.58,-202.73"/>
</g>
<!-- Node54 -->
<g id="node50" class="node">
<title>Node54</title>
<g id="a_node50"><a xlink:title=" ">
<polygon fill="white" stroke="#bfbfbf" points="1691.52,-185 1691.52,-204 1743.52,-204 1743.52,-185 1691.52,-185"/>
<text text-anchor="middle" x="1717.52" y="-192" font-family="Helvetica,sans-Serif" font-size="10.00">cassert</text>
</a>
</g>
</g>
<!-- Node24&#45;&gt;Node54 -->
<g id="edge73" class="edge">
<title>Node24&#45;&gt;Node54</title>
<path fill="none" stroke="midnightblue" d="M1989.84,-254.59C1931.05,-247.32 1834.37,-233.04 1753.52,-210 1751.08,-209.31 1748.58,-208.5 1746.09,-207.64"/>
<polygon fill="midnightblue" stroke="midnightblue" points="1747.28,-204.34 1736.69,-204.09 1744.81,-210.89 1747.28,-204.34"/>
</g>
<!-- Node27&#45;&gt;Node3 -->
<g id="edge33" class="edge">
<title>Node27&#45;&gt;Node3</title>
<path fill="none" stroke="midnightblue" d="M2222.79,-119.06C2207.99,-116.51 2191.03,-113.84 2175.52,-112 1944.65,-84.67 1664.59,-71.92 1570.84,-68.2"/>
<polygon fill="midnightblue" stroke="midnightblue" points="1570.72,-64.69 1560.59,-67.8 1570.45,-71.69 1570.72,-64.69"/>
</g>
<!-- Node27&#45;&gt;Node26 -->
<g id="edge34" class="edge">
<title>Node27&#45;&gt;Node26</title>
<path fill="none" stroke="midnightblue" d="M2230.82,-117.99C2223.5,-116.02 2215.74,-113.94 2208.52,-112 2165.57,-100.48 2116.44,-87.32 2082.45,-78.22"/>
<polygon fill="midnightblue" stroke="midnightblue" points="2082.98,-74.74 2072.41,-75.54 2081.17,-81.5 2082.98,-74.74"/>
</g>
<!-- Node28 -->
<g id="node28" class="node">
<title>Node28</title>
<g id="a_node28"><a xlink:title=" ">
<polygon fill="white" stroke="#bfbfbf" points="2294.02,-0.5 2294.02,-19.5 2373.02,-19.5 2373.02,-0.5 2294.02,-0.5"/>
<text text-anchor="middle" x="2333.52" y="-7.5" font-family="Helvetica,sans-Serif" font-size="10.00">fmt/format.h</text>
</a>
</g>
</g>
<!-- Node27&#45;&gt;Node28 -->
<g id="edge35" class="edge">
<title>Node27&#45;&gt;Node28</title>
<path fill="none" stroke="midnightblue" d="M2274.59,-117.8C2286.41,-108.66 2304.13,-93.25 2314.52,-76 2323.14,-61.68 2328.05,-43.22 2330.71,-29.63"/>
<polygon fill="midnightblue" stroke="midnightblue" points="2334.19,-30.01 2332.44,-19.56 2327.29,-28.82 2334.19,-30.01"/>
</g>
<!-- Node29 -->
<g id="node29" class="node">
<title>Node29</title>
<g id="a_node29"><a xlink:title=" ">
<polygon fill="white" stroke="#bfbfbf" points="2219.52,-56.5 2219.52,-75.5 2305.52,-75.5 2305.52,-56.5 2219.52,-56.5"/>
<text text-anchor="middle" x="2262.52" y="-63.5" font-family="Helvetica,sans-Serif" font-size="10.00">fmt/ostream.h</text>
</a>
</g>
</g>
<!-- Node27&#45;&gt;Node29 -->
<g id="edge36" class="edge">
<title>Node27&#45;&gt;Node29</title>
<path fill="none" stroke="midnightblue" d="M2262.52,-117.98C2262.52,-109.58 2262.52,-96.48 2262.52,-85.66"/>
<polygon fill="midnightblue" stroke="midnightblue" points="2266.02,-85.51 2262.52,-75.51 2259.02,-85.51 2266.02,-85.51"/>
</g>
<!-- Node30 -->
<g id="node30" class="node">
<title>Node30</title>
<g id="a_node30"><a xlink:href="fmtEigen_8hpp.html" target="_top" xlink:title=" ">
<polygon fill="white" stroke="red" points="2095.52,-56.5 2095.52,-75.5 2201.52,-75.5 2201.52,-56.5 2095.52,-56.5"/>
<text text-anchor="middle" x="2148.52" y="-63.5" font-family="Helvetica,sans-Serif" font-size="10.00">utils/fmtEigen.hpp</text>
</a>
</g>
</g>
<!-- Node27&#45;&gt;Node30 -->
<g id="edge37" class="edge">
<title>Node27&#45;&gt;Node30</title>
<path fill="none" stroke="midnightblue" d="M2246.18,-117.98C2227.31,-108.12 2196.01,-91.79 2173.94,-80.27"/>
<polygon fill="midnightblue" stroke="midnightblue" points="2175.31,-77.03 2164.82,-75.51 2172.07,-83.24 2175.31,-77.03"/>
</g>
<!-- Node33 -->
<g id="node32" class="node">
<title>Node33</title>
<g id="a_node32"><a xlink:href="fmtSTL_8hpp.html" target="_top" xlink:title=" ">
<polygon fill="white" stroke="red" points="2361.52,-56.5 2361.52,-75.5 2457.52,-75.5 2457.52,-56.5 2361.52,-56.5"/>
<text text-anchor="middle" x="2409.52" y="-63.5" font-family="Helvetica,sans-Serif" font-size="10.00">utils/fmtSTL.hpp</text>
</a>
</g>
</g>
<!-- Node27&#45;&gt;Node33 -->
<g id="edge42" class="edge">
<title>Node27&#45;&gt;Node33</title>
<path fill="none" stroke="midnightblue" d="M2283.58,-117.98C2308.58,-107.86 2350.46,-90.9 2379,-79.35"/>
<polygon fill="midnightblue" stroke="midnightblue" points="2380.54,-82.51 2388.5,-75.51 2377.91,-76.02 2380.54,-82.51"/>
</g>
<!-- Node30&#45;&gt;Node5 -->
<g id="edge39" class="edge">
<title>Node30&#45;&gt;Node5</title>
<path fill="none" stroke="midnightblue" d="M2095.46,-56.95C2092.44,-56.6 2089.44,-56.28 2086.52,-56 1740.83,-23.09 1647.87,-64.94 1299.77,-19.92"/>
<polygon fill="midnightblue" stroke="midnightblue" points="1300.03,-16.42 1289.66,-18.6 1299.12,-23.36 1300.03,-16.42"/>
</g>
<!-- Node30&#45;&gt;Node20 -->
<g id="edge41" class="edge">
<title>Node30&#45;&gt;Node20</title>
<path fill="none" stroke="midnightblue" d="M2095.45,-57C2092.43,-56.64 2089.44,-56.3 2086.52,-56 1945.93,-41.61 1506.43,-19.4 1373.8,-12.87"/>
<polygon fill="midnightblue" stroke="midnightblue" points="1373.87,-9.36 1363.71,-12.37 1373.52,-16.36 1373.87,-9.36"/>
</g>
<!-- Node30&#45;&gt;Node28 -->
<g id="edge40" class="edge">
<title>Node30&#45;&gt;Node28</title>
<path fill="none" stroke="midnightblue" d="M2177.83,-56.44C2209.36,-47.24 2259.65,-32.56 2294.5,-22.39"/>
<polygon fill="midnightblue" stroke="midnightblue" points="2295.72,-25.68 2304.34,-19.52 2293.76,-18.96 2295.72,-25.68"/>
</g>
<!-- Node31 -->
<g id="node31" class="node">
<title>Node31</title>
<g id="a_node31"><a xlink:title=" ">
<polygon fill="white" stroke="#bfbfbf" points="2114.02,-0.5 2114.02,-19.5 2183.02,-19.5 2183.02,-0.5 2114.02,-0.5"/>
<text text-anchor="middle" x="2148.52" y="-7.5" font-family="Helvetica,sans-Serif" font-size="10.00">Eigen/Core</text>
</a>
</g>
</g>
<!-- Node30&#45;&gt;Node31 -->
<g id="edge38" class="edge">
<title>Node30&#45;&gt;Node31</title>
<path fill="none" stroke="midnightblue" d="M2148.52,-56.08C2148.52,-49.01 2148.52,-38.86 2148.52,-29.99"/>
<polygon fill="midnightblue" stroke="midnightblue" points="2152.02,-29.75 2148.52,-19.75 2145.02,-29.75 2152.02,-29.75"/>
</g>
<!-- Node33&#45;&gt;Node4 -->
<g id="edge47" class="edge">
<title>Node33&#45;&gt;Node4</title>
<path fill="none" stroke="midnightblue" d="M2361.22,-60.11C2346.26,-58.68 2329.71,-57.18 2314.52,-56 2042.48,-34.85 1713.53,-17.87 1608.48,-12.66"/>
<polygon fill="midnightblue" stroke="midnightblue" points="1608.34,-9.15 1598.18,-12.15 1608,-16.14 1608.34,-9.15"/>
</g>
<!-- Node33&#45;&gt;Node15 -->
<g id="edge44" class="edge">
<title>Node33&#45;&gt;Node15</title>
<path fill="none" stroke="midnightblue" d="M2455.15,-56.44C2513.17,-45.56 2612,-27.03 2663.71,-17.34"/>
<polygon fill="midnightblue" stroke="midnightblue" points="2664.51,-20.75 2673.7,-15.47 2663.22,-13.87 2664.51,-20.75"/>
</g>
<!-- Node33&#45;&gt;Node19 -->
<g id="edge46" class="edge">
<title>Node33&#45;&gt;Node19</title>
<path fill="none" stroke="midnightblue" d="M2457.84,-59.67C2558.59,-48.57 2788.48,-23.24 2870.1,-14.24"/>
<polygon fill="midnightblue" stroke="midnightblue" points="2870.61,-17.71 2880.17,-13.13 2869.85,-10.75 2870.61,-17.71"/>
</g>
<!-- Node33&#45;&gt;Node23 -->
<g id="edge43" class="edge">
<title>Node33&#45;&gt;Node23</title>
<path fill="none" stroke="midnightblue" d="M2361.44,-59.92C2257.82,-48.97 2015.8,-23.39 1929.65,-14.29"/>
<polygon fill="midnightblue" stroke="midnightblue" points="1930.02,-10.81 1919.71,-13.24 1929.28,-17.77 1930.02,-10.81"/>
</g>
<!-- Node33&#45;&gt;Node28 -->
<g id="edge45" class="edge">
<title>Node33&#45;&gt;Node28</title>
<path fill="none" stroke="midnightblue" d="M2397.31,-56.32C2385.74,-48.11 2368.14,-35.6 2354.36,-25.81"/>
<polygon fill="midnightblue" stroke="midnightblue" points="2356.13,-22.77 2345.95,-19.83 2352.08,-28.48 2356.13,-22.77"/>
</g>
<!-- Node40&#45;&gt;Node27 -->
<g id="edge59" class="edge">
<title>Node40&#45;&gt;Node27</title>
<path fill="none" stroke="midnightblue" d="M2535.8,-184.99C2468.85,-173.41 2353.27,-153 2311.52,-143 2307.6,-142.06 2303.53,-141 2299.49,-139.89"/>
<polygon fill="midnightblue" stroke="midnightblue" points="2300.17,-136.44 2289.59,-137.07 2298.25,-143.18 2300.17,-136.44"/>
</g>
<!-- Node40&#45;&gt;Node37 -->
<g id="edge54" class="edge">
<title>Node40&#45;&gt;Node37</title>
<path fill="none" stroke="midnightblue" d="M2634.59,-184.94C2686.89,-175.69 2772.36,-160.2 2855.52,-143.16"/>
<polygon fill="midnightblue" stroke="midnightblue" points="2856.3,-146.58 2865.39,-141.13 2854.89,-139.72 2856.3,-146.58"/>
</g>
<!-- Node40&#45;&gt;Node38 -->
<g id="edge56" class="edge">
<title>Node40&#45;&gt;Node38</title>
<path fill="none" stroke="midnightblue" d="M2557.63,-184.87C2525.37,-174.88 2471.46,-158.2 2430.65,-145.56"/>
<polygon fill="midnightblue" stroke="midnightblue" points="2431.43,-142.14 2420.84,-142.53 2429.36,-148.83 2431.43,-142.14"/>
</g>
<!-- Node41 -->
<g id="node39" class="node">
<title>Node41</title>
<g id="a_node39"><a xlink:title=" ">
<polygon fill="white" stroke="#bfbfbf" points="2449.02,-112.5 2449.02,-142.5 2560.02,-142.5 2560.02,-112.5 2449.02,-112.5"/>
<text text-anchor="start" x="2457.02" y="-130.5" font-family="Helvetica,sans-Serif" font-size="10.00">boost/preprocessor</text>
<text text-anchor="middle" x="2504.52" y="-119.5" font-family="Helvetica,sans-Serif" font-size="10.00">/seq/for_each_i.hpp</text>
</a>
</g>
</g>
<!-- Node40&#45;&gt;Node41 -->
<g id="edge55" class="edge">
<title>Node40&#45;&gt;Node41</title>
<path fill="none" stroke="midnightblue" d="M2574.59,-184.73C2563.23,-175.61 2545.02,-161 2530.02,-148.96"/>
<polygon fill="midnightblue" stroke="midnightblue" points="2532.07,-146.12 2522.08,-142.59 2527.68,-151.58 2532.07,-146.12"/>
</g>
<!-- Node42 -->
<g id="node40" class="node">
<title>Node42</title>
<g id="a_node40"><a xlink:title=" ">
<polygon fill="white" stroke="#bfbfbf" points="2578.02,-112.5 2578.02,-142.5 2693.02,-142.5 2693.02,-112.5 2578.02,-112.5"/>
<text text-anchor="start" x="2586.02" y="-130.5" font-family="Helvetica,sans-Serif" font-size="10.00">boost/preprocessor</text>
<text text-anchor="middle" x="2635.52" y="-119.5" font-family="Helvetica,sans-Serif" font-size="10.00">/variadic/to_seq.hpp</text>
</a>
</g>
</g>
<!-- Node40&#45;&gt;Node42 -->
<g id="edge57" class="edge">
<title>Node40&#45;&gt;Node42</title>
<path fill="none" stroke="midnightblue" d="M2592.26,-184.73C2598.95,-176.03 2609.48,-162.34 2618.48,-150.65"/>
<polygon fill="midnightblue" stroke="midnightblue" points="2621.36,-152.65 2624.68,-142.59 2615.81,-148.38 2621.36,-152.65"/>
</g>
<!-- Node43 -->
<g id="node41" class="node">
<title>Node43</title>
<g id="a_node41"><a xlink:title=" ">
<polygon fill="white" stroke="#bfbfbf" points="2711.52,-118 2711.52,-137 2847.52,-137 2847.52,-118 2711.52,-118"/>
<text text-anchor="middle" x="2779.52" y="-125" font-family="Helvetica,sans-Serif" font-size="10.00">boost/vmd/is_empty.hpp</text>
</a>
</g>
</g>
<!-- Node40&#45;&gt;Node43 -->
<g id="edge58" class="edge">
<title>Node40&#45;&gt;Node43</title>
<path fill="none" stroke="midnightblue" d="M2611.28,-184.87C2645.44,-173.42 2705.86,-153.18 2744.23,-140.32"/>
<polygon fill="midnightblue" stroke="midnightblue" points="2745.59,-143.56 2753.96,-137.06 2743.37,-136.92 2745.59,-143.56"/>
</g>
<!-- Node44&#45;&gt;Node3 -->
<g id="edge64" class="edge">
<title>Node44&#45;&gt;Node3</title>
<path fill="none" stroke="midnightblue" d="M2012.69,-184.95C2003.96,-182.76 1994.41,-180.58 1985.52,-179 1837.65,-152.72 1790.42,-195 1649.52,-143 1612.35,-129.28 1575.7,-100.38 1555.21,-82.43"/>
<polygon fill="midnightblue" stroke="midnightblue" points="1557.48,-79.77 1547.69,-75.71 1552.81,-84.98 1557.48,-79.77"/>
</g>
<!-- Node44&#45;&gt;Node4 -->
<g id="edge65" class="edge">
<title>Node44&#45;&gt;Node4</title>
<path fill="none" stroke="midnightblue" d="M2012.06,-184.94C2003.49,-182.8 1994.19,-180.65 1985.52,-179 1865.29,-156.12 1822.87,-195.92 1712.52,-143 1656.14,-115.96 1607.94,-57.13 1586.46,-28.01"/>
<polygon fill="midnightblue" stroke="midnightblue" points="1589.14,-25.75 1580.45,-19.68 1583.46,-29.84 1589.14,-25.75"/>
</g>
<!-- Node45 -->
<g id="node43" class="node">
<title>Node45</title>
<g id="a_node43"><a xlink:title=" ">
<polygon fill="white" stroke="#bfbfbf" points="1990.52,-118 1990.52,-137 2038.52,-137 2038.52,-118 1990.52,-118"/>
<text text-anchor="middle" x="2014.52" y="-125" font-family="Helvetica,sans-Serif" font-size="10.00">iosfwd</text>
</a>
</g>
</g>
<!-- Node44&#45;&gt;Node45 -->
<g id="edge61" class="edge">
<title>Node44&#45;&gt;Node45</title>
<path fill="none" stroke="midnightblue" d="M2039.61,-184.73C2035.26,-174.99 2028.12,-158.98 2022.56,-146.53"/>
<polygon fill="midnightblue" stroke="midnightblue" points="2025.64,-144.83 2018.37,-137.13 2019.25,-147.69 2025.64,-144.83"/>
</g>
<!-- Node46 -->
<g id="node44" class="node">
<title>Node46</title>
<g id="a_node44"><a xlink:title=" ">
<polygon fill="white" stroke="#bfbfbf" points="1811.52,-56.5 1811.52,-75.5 1869.52,-75.5 1869.52,-56.5 1811.52,-56.5"/>
<text text-anchor="middle" x="1840.52" y="-63.5" font-family="Helvetica,sans-Serif" font-size="10.00">memory</text>
</a>
</g>
</g>
<!-- Node44&#45;&gt;Node46 -->
<g id="edge62" class="edge">
<title>Node44&#45;&gt;Node46</title>
<path fill="none" stroke="midnightblue" d="M2012.05,-184.97C2003.48,-182.83 1994.18,-180.67 1985.52,-179 1927.82,-167.86 1762.14,-187.29 1723.52,-143 1714.46,-132.62 1715.72,-123.36 1723.52,-112 1740.89,-86.71 1774.61,-75.62 1801.41,-70.77"/>
<polygon fill="midnightblue" stroke="midnightblue" points="1801.97,-74.23 1811.29,-69.2 1800.87,-67.31 1801.97,-74.23"/>
</g>
<!-- Node47 -->
<g id="node45" class="node">
<title>Node47</title>
<g id="a_node45"><a xlink:title=" ">
<polygon fill="white" stroke="#bfbfbf" points="1732.52,-118 1732.52,-137 1788.52,-137 1788.52,-118 1732.52,-118"/>
<text text-anchor="middle" x="1760.52" y="-125" font-family="Helvetica,sans-Serif" font-size="10.00">optional</text>
</a>
</g>
</g>
<!-- Node44&#45;&gt;Node47 -->
<g id="edge63" class="edge">
<title>Node44&#45;&gt;Node47</title>
<path fill="none" stroke="midnightblue" d="M2010.77,-184.98C2002.55,-182.93 1993.73,-180.81 1985.52,-179 1902.88,-160.73 1879.92,-166.17 1798.52,-143 1795.93,-142.26 1793.28,-141.43 1790.63,-140.53"/>
<polygon fill="midnightblue" stroke="midnightblue" points="1791.8,-137.24 1781.2,-137.14 1789.43,-143.82 1791.8,-137.24"/>
</g>
<!-- Node48 -->
<g id="node46" class="node">
<title>Node48</title>
<g id="a_node46"><a xlink:href="Logger_8hpp.html" target="_top" xlink:title=" ">
<polygon fill="white" stroke="red" points="2057.02,-118 2057.02,-137 2166.02,-137 2166.02,-118 2057.02,-118"/>
<text text-anchor="middle" x="2111.52" y="-125" font-family="Helvetica,sans-Serif" font-size="10.00">logging/Logger.hpp</text>
</a>
</g>
</g>
<!-- Node44&#45;&gt;Node48 -->
<g id="edge66" class="edge">
<title>Node44&#45;&gt;Node48</title>
<path fill="none" stroke="midnightblue" d="M2052.69,-184.73C2063.5,-174.4 2081.66,-157.04 2094.96,-144.33"/>
<polygon fill="midnightblue" stroke="midnightblue" points="2097.68,-146.57 2102.49,-137.13 2092.85,-141.51 2097.68,-146.57"/>
</g>
<!-- Node51 -->
<g id="node47" class="node">
<title>Node51</title>
<g id="a_node47"><a xlink:href="types_8hpp.html" target="_top" xlink:title=" ">
<polygon fill="white" stroke="black" points="1807.02,-118 1807.02,-137 1910.02,-137 1910.02,-118 1807.02,-118"/>
<text text-anchor="middle" x="1858.52" y="-125" font-family="Helvetica,sans-Serif" font-size="10.00">precice/types.hpp</text>
</a>
</g>
</g>
<!-- Node44&#45;&gt;Node51 -->
<g id="edge69" class="edge">
<title>Node44&#45;&gt;Node51</title>
<path fill="none" stroke="midnightblue" d="M2018.95,-184.87C1986.52,-173.47 1929.25,-153.35 1892.63,-140.49"/>
<polygon fill="midnightblue" stroke="midnightblue" points="1893.49,-137.08 1882.89,-137.06 1891.17,-143.68 1893.49,-137.08"/>
</g>
<!-- Node52 -->
<g id="node48" class="node">
<title>Node52</title>
<g id="a_node48"><a xlink:title=" ">
<polygon fill="white" stroke="#bfbfbf" points="1928.52,-118 1928.52,-137 1972.52,-137 1972.52,-118 1928.52,-118"/>
<text text-anchor="middle" x="1950.52" y="-125" font-family="Helvetica,sans-Serif" font-size="10.00">mpi.h</text>
</a>
</g>
</g>
<!-- Node44&#45;&gt;Node52 -->
<g id="edge70" class="edge">
<title>Node44&#45;&gt;Node52</title>
<path fill="none" stroke="midnightblue" d="M2030.98,-184.73C2015.64,-174.01 1989.46,-155.72 1971.14,-142.91"/>
<polygon fill="midnightblue" stroke="midnightblue" points="1973.06,-139.99 1962.86,-137.13 1969.05,-145.72 1973.06,-139.99"/>
</g>
<!-- Node48&#45;&gt;Node26 -->
<g id="edge68" class="edge">
<title>Node48&#45;&gt;Node26</title>
<path fill="none" stroke="midnightblue" d="M2101.35,-117.98C2090.17,-108.61 2072,-93.38 2058.43,-82.01"/>
<polygon fill="midnightblue" stroke="midnightblue" points="2060.58,-79.25 2050.67,-75.51 2056.09,-84.61 2060.58,-79.25"/>
</g>
<!-- Node48&#45;&gt;Node46 -->
<g id="edge67" class="edge">
<title>Node48&#45;&gt;Node46</title>
<path fill="none" stroke="midnightblue" d="M2073.97,-117.93C2065.28,-115.97 2056.08,-113.9 2047.52,-112 1989.1,-99.03 1921.32,-84.37 1879.68,-75.41"/>
<polygon fill="midnightblue" stroke="midnightblue" points="1880.19,-71.94 1869.67,-73.25 1878.71,-78.78 1880.19,-71.94"/>
</g>
<!-- Node53&#45;&gt;Node3 -->
<g id="edge72" class="edge">
<title>Node53&#45;&gt;Node3</title>
<path fill="none" stroke="midnightblue" d="M1611.16,-184.81C1598.41,-164.13 1566.1,-111.73 1549.2,-84.32"/>
<polygon fill="midnightblue" stroke="midnightblue" points="1552.14,-82.43 1543.92,-75.76 1546.19,-86.1 1552.14,-82.43"/>
</g>
</g>
</svg>
