<?xml version="1.0" encoding="UTF-8" standalone="no"?>
<!DOCTYPE svg PUBLIC "-//W3C//DTD SVG 1.1//EN"
 "http://www.w3.org/Graphics/SVG/1.1/DTD/svg11.dtd">
<!-- Generated by graphviz version 2.43.0 (0)
 -->
<!-- Title: src/logging/Logger.cpp Pages: 1 -->
<!--zoomable 565 -->
<svg id="main" version="1.1" xmlns="http://www.w3.org/2000/svg" xmlns:xlink="http://www.w3.org/1999/xlink" xml:space="preserve" onload="init(evt)">
<style type="text/css"><![CDATA[
.edge:hover path { stroke: red; }
.edge:hover polygon { stroke: red; fill: red; }
]]></style>
<script type="text/javascript"><![CDATA[
var edges = document.getElementsByTagName('g');
if (edges && edges.length) {
  for (var i=0;i<edges.length;i++) {
    if (edges[i].id.substr(0,4)=='edge') {
      edges[i].setAttribute('class','edge');
    }
  }
}
]]></script>
        <defs>
                <circle id="rim" cx="0" cy="0" r="7"/>
                <circle id="rim2" cx="0" cy="0" r="3.5"/>
                <g id="zoomPlus">
                        <use xlink:href="#rim" fill="#404040">
                                <set attributeName="fill" to="#808080" begin="zoomplus.mouseover" end="zoomplus.mouseout"/>
                        </use>
                        <path d="M-4,0h8M0,-4v8" fill="none" stroke="white" stroke-width="1.5" pointer-events="none"/>
                </g>
                <g id="zoomMin">
                        <use xlink:href="#rim" fill="#404040">
                                <set attributeName="fill" to="#808080" begin="zoomminus.mouseover" end="zoomminus.mouseout"/>
                        </use>
                        <path d="M-4,0h8" fill="none" stroke="white" stroke-width="1.5" pointer-events="none"/>
                </g>
                <g id="dirArrow">
                        <path fill="none" stroke="white" stroke-width="1.5" d="M0,-3.0v7 M-2.5,-0.5L0,-3.0L2.5,-0.5"/>
                </g>
               <g id="resetDef">
                       <use xlink:href="#rim2" fill="#404040">
                               <set attributeName="fill" to="#808080" begin="reset.mouseover" end="reset.mouseout"/>
                       </use>
               </g>
        </defs>

<script type="text/javascript">
var viewWidth = 2770;
var viewHeight = 565;
var sectionId = 'dynsection-0';
</script>
<script xlink:href="svgpan.js"/>
<svg id="graph" class="graph">
<g id="viewport">
<title>src/logging/Logger.cpp</title>
<polygon fill="white" stroke="transparent" points="-4,4 -4,-561 2766,-561 2766,4 -4,4"/>
<!-- Node1 -->
<g id="node1" class="node">
<title>Node1</title>
<g id="a_node1"><a xlink:title=" ">
<polygon fill="#bfbfbf" stroke="black" points="678.5,-537.5 678.5,-556.5 803.5,-556.5 803.5,-537.5 678.5,-537.5"/>
<text text-anchor="middle" x="741" y="-544.5" font-family="Helvetica,sans-Serif" font-size="10.00">src/logging/Logger.cpp</text>
</a>
</g>
</g>
<!-- Node2 -->
<g id="node2" class="node">
<title>Node2</title>
<g id="a_node2"><a xlink:title=" ">
<polygon fill="white" stroke="#bfbfbf" points="0,-470.5 0,-500.5 112,-500.5 112,-470.5 0,-470.5"/>
<text text-anchor="start" x="8" y="-488.5" font-family="Helvetica,sans-Serif" font-size="10.00">boost/log/attributes</text>
<text text-anchor="middle" x="56" y="-477.5" font-family="Helvetica,sans-Serif" font-size="10.00">/constant.hpp</text>
</a>
</g>
</g>
<!-- Node1&#45;&gt;Node2 -->
<g id="edge1" class="edge">
<title>Node1&#45;&gt;Node2</title>
<path fill="none" stroke="midnightblue" d="M678.19,-544.49C567.6,-541.16 330.88,-531.07 122.19,-501.03"/>
<polygon fill="midnightblue" stroke="midnightblue" points="122.68,-497.56 112.28,-499.59 121.67,-504.49 122.68,-497.56"/>
</g>
<!-- Node3 -->
<g id="node3" class="node">
<title>Node3</title>
<g id="a_node3"><a xlink:title=" ">
<polygon fill="white" stroke="#bfbfbf" points="130,-470.5 130,-500.5 242,-500.5 242,-470.5 130,-470.5"/>
<text text-anchor="start" x="138" y="-488.5" font-family="Helvetica,sans-Serif" font-size="10.00">boost/log/attributes</text>
<text text-anchor="middle" x="186" y="-477.5" font-family="Helvetica,sans-Serif" font-size="10.00">/function.hpp</text>
</a>
</g>
</g>
<!-- Node1&#45;&gt;Node3 -->
<g id="edge2" class="edge">
<title>Node1&#45;&gt;Node3</title>
<path fill="none" stroke="midnightblue" d="M678.42,-542.82C586.87,-537.6 410.95,-525.43 252.23,-501.07"/>
<polygon fill="midnightblue" stroke="midnightblue" points="252.71,-497.6 242.29,-499.52 251.63,-504.51 252.71,-497.6"/>
</g>
<!-- Node4 -->
<g id="node4" class="node">
<title>Node4</title>
<g id="a_node4"><a xlink:title=" ">
<polygon fill="white" stroke="#bfbfbf" points="260,-470.5 260,-500.5 372,-500.5 372,-470.5 260,-470.5"/>
<text text-anchor="start" x="268" y="-488.5" font-family="Helvetica,sans-Serif" font-size="10.00">boost/log/attributes</text>
<text text-anchor="middle" x="316" y="-477.5" font-family="Helvetica,sans-Serif" font-size="10.00">/named_scope.hpp</text>
</a>
</g>
</g>
<!-- Node1&#45;&gt;Node4 -->
<g id="edge3" class="edge">
<title>Node1&#45;&gt;Node4</title>
<path fill="none" stroke="midnightblue" d="M678.3,-539.99C608.37,-532.88 491.72,-519.79 382.2,-501.11"/>
<polygon fill="midnightblue" stroke="midnightblue" points="382.75,-497.65 372.3,-499.4 381.56,-504.55 382.75,-497.65"/>
</g>
<!-- Node5 -->
<g id="node5" class="node">
<title>Node5</title>
<g id="a_node5"><a xlink:title=" ">
<polygon fill="white" stroke="#bfbfbf" points="390,-470.5 390,-500.5 502,-500.5 502,-470.5 390,-470.5"/>
<text text-anchor="start" x="398" y="-488.5" font-family="Helvetica,sans-Serif" font-size="10.00">boost/log/attributes</text>
<text text-anchor="middle" x="446" y="-477.5" font-family="Helvetica,sans-Serif" font-size="10.00">/timer.hpp</text>
</a>
</g>
</g>
<!-- Node1&#45;&gt;Node5 -->
<g id="edge4" class="edge">
<title>Node1&#45;&gt;Node5</title>
<path fill="none" stroke="midnightblue" d="M695.54,-537.47C651.27,-529.08 581.81,-515.71 512.56,-501.3"/>
<polygon fill="midnightblue" stroke="midnightblue" points="512.85,-497.78 502.35,-499.17 511.42,-504.64 512.85,-497.78"/>
</g>
<!-- Node6 -->
<g id="node6" class="node">
<title>Node6</title>
<g id="a_node6"><a xlink:title=" ">
<polygon fill="white" stroke="#bfbfbf" points="520.5,-470.5 520.5,-500.5 665.5,-500.5 665.5,-470.5 520.5,-470.5"/>
<text text-anchor="start" x="528.5" y="-488.5" font-family="Helvetica,sans-Serif" font-size="10.00">boost/log/sources/severity</text>
<text text-anchor="middle" x="593" y="-477.5" font-family="Helvetica,sans-Serif" font-size="10.00">_feature.hpp</text>
</a>
</g>
</g>
<!-- Node1&#45;&gt;Node6 -->
<g id="edge5" class="edge">
<title>Node1&#45;&gt;Node6</title>
<path fill="none" stroke="midnightblue" d="M719.8,-537.48C698.35,-528.85 664.55,-515.26 637.24,-504.29"/>
<polygon fill="midnightblue" stroke="midnightblue" points="638.46,-501.01 627.88,-500.52 635.85,-507.5 638.46,-501.01"/>
</g>
<!-- Node7 -->
<g id="node7" class="node">
<title>Node7</title>
<g id="a_node7"><a xlink:title=" ">
<polygon fill="white" stroke="#bfbfbf" points="684,-476 684,-495 798,-495 798,-476 684,-476"/>
<text text-anchor="middle" x="741" y="-483" font-family="Helvetica,sans-Serif" font-size="10.00">boost/log/trivial.hpp</text>
</a>
</g>
</g>
<!-- Node1&#45;&gt;Node7 -->
<g id="edge6" class="edge">
<title>Node1&#45;&gt;Node7</title>
<path fill="none" stroke="midnightblue" d="M741,-537.48C741,-529.08 741,-515.98 741,-505.16"/>
<polygon fill="midnightblue" stroke="midnightblue" points="744.5,-505.01 741,-495.01 737.5,-505.01 744.5,-505.01"/>
</g>
<!-- Node8 -->
<g id="node8" class="node">
<title>Node8</title>
<g id="a_node8"><a xlink:title=" ">
<polygon fill="white" stroke="#bfbfbf" points="816,-470.5 816,-500.5 952,-500.5 952,-470.5 816,-470.5"/>
<text text-anchor="start" x="824" y="-488.5" font-family="Helvetica,sans-Serif" font-size="10.00">boost/log/utility/setup</text>
<text text-anchor="middle" x="884" y="-477.5" font-family="Helvetica,sans-Serif" font-size="10.00">/common_attributes.hpp</text>
</a>
</g>
</g>
<!-- Node1&#45;&gt;Node8 -->
<g id="edge7" class="edge">
<title>Node1&#45;&gt;Node8</title>
<path fill="none" stroke="midnightblue" d="M761.49,-537.48C782.12,-528.89 814.58,-515.38 840.91,-504.43"/>
<polygon fill="midnightblue" stroke="midnightblue" points="842.41,-507.6 850.3,-500.52 839.72,-501.13 842.41,-507.6"/>
</g>
<!-- Node9 -->
<g id="node9" class="node">
<title>Node9</title>
<g id="a_node9"><a xlink:title=" ">
<polygon fill="white" stroke="#bfbfbf" points="970.5,-476 970.5,-495 1015.5,-495 1015.5,-476 970.5,-476"/>
<text text-anchor="middle" x="993" y="-483" font-family="Helvetica,sans-Serif" font-size="10.00">utility</text>
</a>
</g>
</g>
<!-- Node1&#45;&gt;Node9 -->
<g id="edge8" class="edge">
<title>Node1&#45;&gt;Node9</title>
<path fill="none" stroke="midnightblue" d="M800.76,-537.49C845.54,-530.22 907.97,-518.2 961,-501 962.87,-500.39 964.78,-499.71 966.68,-498.98"/>
<polygon fill="midnightblue" stroke="midnightblue" points="968.15,-502.16 976.01,-495.05 965.43,-495.71 968.15,-502.16"/>
</g>
<!-- Node10 -->
<g id="node10" class="node">
<title>Node10</title>
<g id="a_node10"><a xlink:href="assertion_8hpp.html" target="_top" xlink:title=" ">
<polygon fill="white" stroke="black" points="2016.5,-476 2016.5,-495 2123.5,-495 2123.5,-476 2016.5,-476"/>
<text text-anchor="middle" x="2070" y="-483" font-family="Helvetica,sans-Serif" font-size="10.00">utils/assertion.hpp</text>
</a>
</g>
</g>
<!-- Node1&#45;&gt;Node10 -->
<g id="edge9" class="edge">
<title>Node1&#45;&gt;Node10</title>
<path fill="none" stroke="midnightblue" d="M803.76,-543.19C1026.99,-533.2 1781.14,-499.43 2006.13,-489.36"/>
<polygon fill="midnightblue" stroke="midnightblue" points="2006.6,-492.84 2016.44,-488.9 2006.29,-485.85 2006.6,-492.84"/>
</g>
<!-- Node42 -->
<g id="node42" class="node">
<title>Node42</title>
<g id="a_node42"><a xlink:href="Logger_8hpp.html" target="_top" xlink:title=" ">
<polygon fill="white" stroke="black" points="1342.5,-347.5 1342.5,-366.5 1451.5,-366.5 1451.5,-347.5 1342.5,-347.5"/>
<text text-anchor="middle" x="1397" y="-354.5" font-family="Helvetica,sans-Serif" font-size="10.00">logging/Logger.hpp</text>
</a>
</g>
</g>
<!-- Node1&#45;&gt;Node42 -->
<g id="edge66" class="edge">
<title>Node1&#45;&gt;Node42</title>
<path fill="none" stroke="midnightblue" d="M803.56,-540.62C874.92,-533.7 986.54,-520.22 1024,-501 1078.52,-473.02 1066.53,-431.09 1121,-403 1156.88,-384.5 1262.64,-371.04 1332.33,-363.89"/>
<polygon fill="midnightblue" stroke="midnightblue" points="1332.74,-367.36 1342.34,-362.88 1332.04,-360.4 1332.74,-367.36"/>
</g>
<!-- Node49 -->
<g id="node49" class="node">
<title>Node49</title>
<g id="a_node49"><a xlink:href="LogConfiguration_8hpp.html" target="_top" xlink:title=" ">
<polygon fill="white" stroke="black" points="1941.5,-174 1941.5,-193 2100.5,-193 2100.5,-174 1941.5,-174"/>
<text text-anchor="middle" x="2021" y="-181" font-family="Helvetica,sans-Serif" font-size="10.00">logging/LogConfiguration.hpp</text>
</a>
</g>
</g>
<!-- Node1&#45;&gt;Node49 -->
<g id="edge63" class="edge">
<title>Node1&#45;&gt;Node49</title>
<path fill="none" stroke="midnightblue" d="M803.76,-540.3C867.76,-533.73 969.66,-521.16 1056,-501 1432.21,-413.15 1871.36,-243.82 1990.1,-196.85"/>
<polygon fill="midnightblue" stroke="midnightblue" points="1991.65,-200 1999.66,-193.06 1989.07,-193.49 1991.65,-200"/>
</g>
<!-- Node11 -->
<g id="node11" class="node">
<title>Node11</title>
<g id="a_node11"><a xlink:title=" ">
<polygon fill="white" stroke="#bfbfbf" points="2634.5,-409 2634.5,-428 2683.5,-428 2683.5,-409 2634.5,-409"/>
<text text-anchor="middle" x="2659" y="-416" font-family="Helvetica,sans-Serif" font-size="10.00">cstdlib</text>
</a>
</g>
</g>
<!-- Node10&#45;&gt;Node11 -->
<g id="edge10" class="edge">
<title>Node10&#45;&gt;Node11</title>
<path fill="none" stroke="midnightblue" d="M2123.73,-485.12C2223.9,-485.08 2445.34,-479.29 2625,-434 2627.36,-433.4 2629.77,-432.67 2632.16,-431.84"/>
<polygon fill="midnightblue" stroke="midnightblue" points="2633.68,-435.01 2641.72,-428.1 2631.13,-428.49 2633.68,-435.01"/>
</g>
<!-- Node12 -->
<g id="node12" class="node">
<title>Node12</title>
<g id="a_node12"><a xlink:title=" ">
<polygon fill="white" stroke="#bfbfbf" points="2702,-409 2702,-428 2762,-428 2762,-409 2702,-409"/>
<text text-anchor="middle" x="2732" y="-416" font-family="Helvetica,sans-Serif" font-size="10.00">iostream</text>
</a>
</g>
</g>
<!-- Node10&#45;&gt;Node12 -->
<g id="edge11" class="edge">
<title>Node10&#45;&gt;Node12</title>
<path fill="none" stroke="midnightblue" d="M2123.66,-485.07C2232.43,-485.17 2486.16,-479.91 2693,-434 2696.07,-433.32 2699.23,-432.45 2702.36,-431.47"/>
<polygon fill="midnightblue" stroke="midnightblue" points="2703.77,-434.69 2712.08,-428.11 2701.48,-428.07 2703.77,-434.69"/>
</g>
<!-- Node13 -->
<g id="node13" class="node">
<title>Node13</title>
<g id="a_node13"><a xlink:title=" ">
<polygon fill="white" stroke="#bfbfbf" points="1068.5,-112.5 1068.5,-131.5 1141.5,-131.5 1141.5,-112.5 1068.5,-112.5"/>
<text text-anchor="middle" x="1105" y="-119.5" font-family="Helvetica,sans-Serif" font-size="10.00">string_view</text>
</a>
</g>
</g>
<!-- Node10&#45;&gt;Node13 -->
<g id="edge12" class="edge">
<title>Node10&#45;&gt;Node13</title>
<path fill="none" stroke="midnightblue" d="M2016.4,-483.24C1844.78,-478.91 1315.95,-463.32 1245,-434 1133.27,-387.83 1131.29,-317.63 1108,-199 1104.23,-179.79 1103.82,-157.35 1104.14,-141.86"/>
<polygon fill="midnightblue" stroke="midnightblue" points="1107.65,-141.65 1104.49,-131.53 1100.66,-141.41 1107.65,-141.65"/>
</g>
<!-- Node14 -->
<g id="node14" class="node">
<title>Node14</title>
<g id="a_node14"><a xlink:href="fmt_8hpp.html" target="_top" xlink:title=" ">
<polygon fill="white" stroke="black" points="1133.5,-174 1133.5,-193 1212.5,-193 1212.5,-174 1133.5,-174"/>
<text text-anchor="middle" x="1173" y="-181" font-family="Helvetica,sans-Serif" font-size="10.00">utils/fmt.hpp</text>
</a>
</g>
</g>
<!-- Node10&#45;&gt;Node14 -->
<g id="edge13" class="edge">
<title>Node10&#45;&gt;Node14</title>
<path fill="none" stroke="midnightblue" d="M2016.24,-482.62C1822.72,-475.14 1173,-443.66 1173,-358 1173,-358 1173,-358 1173,-300 1173,-265.86 1173,-226.05 1173,-203.21"/>
<polygon fill="midnightblue" stroke="midnightblue" points="1176.5,-203.19 1173,-193.19 1169.5,-203.19 1176.5,-203.19"/>
</g>
<!-- Node29 -->
<g id="node29" class="node">
<title>Node29</title>
<g id="a_node29"><a xlink:title=" ">
<polygon fill="white" stroke="#bfbfbf" points="2117.5,-409 2117.5,-428 2264.5,-428 2264.5,-409 2117.5,-409"/>
<text text-anchor="middle" x="2191" y="-416" font-family="Helvetica,sans-Serif" font-size="10.00">boost/current_function.hpp</text>
</a>
</g>
</g>
<!-- Node10&#45;&gt;Node29 -->
<g id="edge32" class="edge">
<title>Node10&#45;&gt;Node29</title>
<path fill="none" stroke="midnightblue" d="M2086.32,-475.73C2106.82,-464.72 2142.2,-445.71 2166.09,-432.88"/>
<polygon fill="midnightblue" stroke="midnightblue" points="2167.79,-435.94 2174.94,-428.13 2164.47,-429.78 2167.79,-435.94"/>
</g>
<!-- Node30 -->
<g id="node30" class="node">
<title>Node30</title>
<g id="a_node30"><a xlink:title=" ">
<polygon fill="white" stroke="#bfbfbf" points="2282.5,-403.5 2282.5,-433.5 2417.5,-433.5 2417.5,-403.5 2282.5,-403.5"/>
<text text-anchor="start" x="2290.5" y="-421.5" font-family="Helvetica,sans-Serif" font-size="10.00">boost/preprocessor</text>
<text text-anchor="middle" x="2350" y="-410.5" font-family="Helvetica,sans-Serif" font-size="10.00">/comparison/greater.hpp</text>
</a>
</g>
</g>
<!-- Node10&#45;&gt;Node30 -->
<g id="edge33" class="edge">
<title>Node10&#45;&gt;Node30</title>
<path fill="none" stroke="midnightblue" d="M2106.89,-475.94C2150.65,-465.78 2224.56,-448.62 2279.43,-435.88"/>
<polygon fill="midnightblue" stroke="midnightblue" points="2280.49,-439.23 2289.44,-433.56 2278.91,-432.41 2280.49,-439.23"/>
</g>
<!-- Node31 -->
<g id="node31" class="node">
<title>Node31</title>
<g id="a_node31"><a xlink:title=" ">
<polygon fill="white" stroke="#bfbfbf" points="1648,-168.5 1648,-198.5 1758,-198.5 1758,-168.5 1648,-168.5"/>
<text text-anchor="start" x="1656" y="-186.5" font-family="Helvetica,sans-Serif" font-size="10.00">boost/preprocessor</text>
<text text-anchor="middle" x="1703" y="-175.5" font-family="Helvetica,sans-Serif" font-size="10.00">/control/if.hpp</text>
</a>
</g>
</g>
<!-- Node10&#45;&gt;Node31 -->
<g id="edge34" class="edge">
<title>Node10&#45;&gt;Node31</title>
<path fill="none" stroke="midnightblue" d="M2016.43,-485C1945,-483.89 1815.87,-475.56 1715,-434 1662.73,-412.46 1613,-414.53 1613,-358 1613,-358 1613,-358 1613,-300 1613,-259.86 1647.24,-225.29 1673.49,-204.7"/>
<polygon fill="midnightblue" stroke="midnightblue" points="1675.8,-207.33 1681.67,-198.51 1671.58,-201.75 1675.8,-207.33"/>
</g>
<!-- Node32 -->
<g id="node32" class="node">
<title>Node32</title>
<g id="a_node32"><a xlink:title=" ">
<polygon fill="white" stroke="#bfbfbf" points="1776,-168.5 1776,-198.5 1886,-198.5 1886,-168.5 1776,-168.5"/>
<text text-anchor="start" x="1784" y="-186.5" font-family="Helvetica,sans-Serif" font-size="10.00">boost/preprocessor</text>
<text text-anchor="middle" x="1831" y="-175.5" font-family="Helvetica,sans-Serif" font-size="10.00">/stringize.hpp</text>
</a>
</g>
</g>
<!-- Node10&#45;&gt;Node32 -->
<g id="edge35" class="edge">
<title>Node10&#45;&gt;Node32</title>
<path fill="none" stroke="midnightblue" d="M2066.31,-475.95C2056.42,-453.56 2027.82,-391.87 1994,-347 1951.47,-290.58 1889.93,-234.57 1855.93,-205.33"/>
<polygon fill="midnightblue" stroke="midnightblue" points="1858.18,-202.65 1848.3,-198.82 1853.64,-207.97 1858.18,-202.65"/>
</g>
<!-- Node33 -->
<g id="node33" class="node">
<title>Node33</title>
<g id="a_node33"><a xlink:title=" ">
<polygon fill="white" stroke="#bfbfbf" points="2436,-403.5 2436,-433.5 2546,-433.5 2546,-403.5 2436,-403.5"/>
<text text-anchor="start" x="2444" y="-421.5" font-family="Helvetica,sans-Serif" font-size="10.00">boost/preprocessor</text>
<text text-anchor="middle" x="2491" y="-410.5" font-family="Helvetica,sans-Serif" font-size="10.00">/variadic/size.hpp</text>
</a>
</g>
</g>
<!-- Node10&#45;&gt;Node33 -->
<g id="edge36" class="edge">
<title>Node10&#45;&gt;Node33</title>
<path fill="none" stroke="midnightblue" d="M2123.75,-478.3C2191.83,-470.13 2312.92,-454.56 2426.03,-434.09"/>
<polygon fill="midnightblue" stroke="midnightblue" points="2426.69,-437.53 2435.9,-432.29 2425.44,-430.64 2426.69,-437.53"/>
</g>
<!-- Node34 -->
<g id="node34" class="node">
<title>Node34</title>
<g id="a_node34"><a xlink:href="ArgumentFormatter_8hpp.html" target="_top" xlink:title=" ">
<polygon fill="white" stroke="black" points="1239.5,-235.5 1239.5,-254.5 1396.5,-254.5 1396.5,-235.5 1239.5,-235.5"/>
<text text-anchor="middle" x="1318" y="-242.5" font-family="Helvetica,sans-Serif" font-size="10.00">utils/ArgumentFormatter.hpp</text>
</a>
</g>
</g>
<!-- Node10&#45;&gt;Node34 -->
<g id="edge37" class="edge">
<title>Node10&#45;&gt;Node34</title>
<path fill="none" stroke="midnightblue" d="M2016.32,-481.21C1928.53,-475.29 1748.96,-460.86 1599,-434 1479.42,-412.58 1441.35,-423.87 1334,-367 1300.9,-349.46 1286.35,-345.18 1271,-311 1262.45,-291.96 1280.02,-272.94 1296.06,-260.43"/>
<polygon fill="midnightblue" stroke="midnightblue" points="1298.14,-263.25 1304.16,-254.53 1294.02,-257.59 1298.14,-263.25"/>
</g>
<!-- Node38 -->
<g id="node38" class="node">
<title>Node38</title>
<g id="a_node38"><a xlink:href="Parallel_8hpp.html" target="_top" xlink:title=" ">
<polygon fill="white" stroke="black" points="1724,-409 1724,-428 1822,-428 1822,-409 1724,-409"/>
<text text-anchor="middle" x="1773" y="-416" font-family="Helvetica,sans-Serif" font-size="10.00">utils/Parallel.hpp</text>
</a>
</g>
</g>
<!-- Node10&#45;&gt;Node38 -->
<g id="edge44" class="edge">
<title>Node10&#45;&gt;Node38</title>
<path fill="none" stroke="midnightblue" d="M2030.87,-475.94C1977.22,-464.2 1880.86,-443.11 1822.33,-430.3"/>
<polygon fill="midnightblue" stroke="midnightblue" points="1822.74,-426.8 1812.22,-428.08 1821.24,-433.64 1822.74,-426.8"/>
</g>
<!-- Node47 -->
<g id="node47" class="node">
<title>Node47</title>
<g id="a_node47"><a xlink:href="stacktrace_8hpp.html" target="_top" xlink:title=" ">
<polygon fill="white" stroke="black" points="2075.5,-291.5 2075.5,-310.5 2188.5,-310.5 2188.5,-291.5 2075.5,-291.5"/>
<text text-anchor="middle" x="2132" y="-298.5" font-family="Helvetica,sans-Serif" font-size="10.00">utils/stacktrace.hpp</text>
</a>
</g>
</g>
<!-- Node10&#45;&gt;Node47 -->
<g id="edge60" class="edge">
<title>Node10&#45;&gt;Node47</title>
<path fill="none" stroke="midnightblue" d="M2072.99,-475.7C2082.55,-447.57 2112.48,-359.46 2125.66,-320.66"/>
<polygon fill="midnightblue" stroke="midnightblue" points="2129.14,-321.31 2129.04,-310.71 2122.51,-319.06 2129.14,-321.31"/>
</g>
<!-- Node48 -->
<g id="node48" class="node">
<title>Node48</title>
<g id="a_node48"><a xlink:title=" ">
<polygon fill="white" stroke="#bfbfbf" points="2564,-409 2564,-428 2616,-428 2616,-409 2564,-409"/>
<text text-anchor="middle" x="2590" y="-416" font-family="Helvetica,sans-Serif" font-size="10.00">cassert</text>
</a>
</g>
</g>
<!-- Node10&#45;&gt;Node48 -->
<g id="edge62" class="edge">
<title>Node10&#45;&gt;Node48</title>
<path fill="none" stroke="midnightblue" d="M2123.63,-483.94C2213.99,-481.89 2401.75,-472.85 2555,-434 2557.51,-433.36 2560.08,-432.58 2562.62,-431.71"/>
<polygon fill="midnightblue" stroke="midnightblue" points="2564.09,-434.9 2572.17,-428.05 2561.58,-428.36 2564.09,-434.9"/>
</g>
<!-- Node14&#45;&gt;Node13 -->
<g id="edge15" class="edge">
<title>Node14&#45;&gt;Node13</title>
<path fill="none" stroke="midnightblue" d="M1163.26,-173.98C1152.65,-164.7 1135.48,-149.67 1122.52,-138.33"/>
<polygon fill="midnightblue" stroke="midnightblue" points="1124.56,-135.46 1114.72,-131.51 1119.95,-140.73 1124.56,-135.46"/>
</g>
<!-- Node15 -->
<g id="node15" class="node">
<title>Node15</title>
<g id="a_node15"><a xlink:title=" ">
<polygon fill="white" stroke="#bfbfbf" points="2105,-112.5 2105,-131.5 2149,-131.5 2149,-112.5 2105,-112.5"/>
<text text-anchor="middle" x="2127" y="-119.5" font-family="Helvetica,sans-Serif" font-size="10.00">string</text>
</a>
</g>
</g>
<!-- Node14&#45;&gt;Node15 -->
<g id="edge14" class="edge">
<title>Node14&#45;&gt;Node15</title>
<path fill="none" stroke="midnightblue" d="M1197.4,-173.99C1205.17,-171.63 1213.86,-169.35 1222,-168 1601.82,-104.97 1709.65,-191.48 2094.75,-131.55"/>
<polygon fill="midnightblue" stroke="midnightblue" points="2095.44,-134.98 2104.77,-129.97 2094.34,-128.07 2095.44,-134.98"/>
</g>
<!-- Node16 -->
<g id="node16" class="node">
<title>Node16</title>
<g id="a_node16"><a xlink:title=" ">
<polygon fill="white" stroke="#bfbfbf" points="1710.5,-56.5 1710.5,-75.5 1789.5,-75.5 1789.5,-56.5 1710.5,-56.5"/>
<text text-anchor="middle" x="1750" y="-63.5" font-family="Helvetica,sans-Serif" font-size="10.00">fmt/format.h</text>
</a>
</g>
</g>
<!-- Node14&#45;&gt;Node16 -->
<g id="edge16" class="edge">
<title>Node14&#45;&gt;Node16</title>
<path fill="none" stroke="midnightblue" d="M1198.99,-173.94C1206.36,-171.75 1214.44,-169.57 1222,-168 1350.02,-141.36 1385.74,-157.43 1514,-132 1585.89,-117.75 1668.02,-93.2 1713.97,-78.7"/>
<polygon fill="midnightblue" stroke="midnightblue" points="1715.29,-81.95 1723.76,-75.59 1713.17,-75.28 1715.29,-81.95"/>
</g>
<!-- Node17 -->
<g id="node17" class="node">
<title>Node17</title>
<g id="a_node17"><a xlink:title=" ">
<polygon fill="white" stroke="#bfbfbf" points="1419,-112.5 1419,-131.5 1505,-131.5 1505,-112.5 1419,-112.5"/>
<text text-anchor="middle" x="1462" y="-119.5" font-family="Helvetica,sans-Serif" font-size="10.00">fmt/ostream.h</text>
</a>
</g>
</g>
<!-- Node14&#45;&gt;Node17 -->
<g id="edge17" class="edge">
<title>Node14&#45;&gt;Node17</title>
<path fill="none" stroke="midnightblue" d="M1200.08,-173.95C1207.17,-171.86 1214.84,-169.73 1222,-168 1256.67,-159.64 1349.45,-142.83 1408.97,-132.29"/>
<polygon fill="midnightblue" stroke="midnightblue" points="1409.71,-135.71 1418.95,-130.52 1408.49,-128.82 1409.71,-135.71"/>
</g>
<!-- Node18 -->
<g id="node18" class="node">
<title>Node18</title>
<g id="a_node18"><a xlink:href="fmtEigen_8hpp.html" target="_top" xlink:title=" ">
<polygon fill="white" stroke="black" points="1980,-112.5 1980,-131.5 2086,-131.5 2086,-112.5 1980,-112.5"/>
<text text-anchor="middle" x="2033" y="-119.5" font-family="Helvetica,sans-Serif" font-size="10.00">utils/fmtEigen.hpp</text>
</a>
</g>
</g>
<!-- Node14&#45;&gt;Node18 -->
<g id="edge18" class="edge">
<title>Node14&#45;&gt;Node18</title>
<path fill="none" stroke="midnightblue" d="M1197.66,-173.99C1205.37,-171.66 1213.96,-169.39 1222,-168 1365.35,-143.16 1804.51,-129.13 1969.48,-124.62"/>
<polygon fill="midnightblue" stroke="midnightblue" points="1970.04,-128.1 1979.94,-124.34 1969.85,-121.11 1970.04,-128.1"/>
</g>
<!-- Node23 -->
<g id="node23" class="node">
<title>Node23</title>
<g id="a_node23"><a xlink:href="fmtSTL_8hpp.html" target="_top" xlink:title=" ">
<polygon fill="white" stroke="black" points="1305,-112.5 1305,-131.5 1401,-131.5 1401,-112.5 1305,-112.5"/>
<text text-anchor="middle" x="1353" y="-119.5" font-family="Helvetica,sans-Serif" font-size="10.00">utils/fmtSTL.hpp</text>
</a>
</g>
</g>
<!-- Node14&#45;&gt;Node23 -->
<g id="edge25" class="edge">
<title>Node14&#45;&gt;Node23</title>
<path fill="none" stroke="midnightblue" d="M1198.79,-173.98C1229.93,-163.68 1282.48,-146.31 1317.45,-134.75"/>
<polygon fill="midnightblue" stroke="midnightblue" points="1318.86,-137.97 1327.26,-131.51 1316.66,-131.32 1318.86,-137.97"/>
</g>
<!-- Node18&#45;&gt;Node16 -->
<g id="edge21" class="edge">
<title>Node18&#45;&gt;Node16</title>
<path fill="none" stroke="midnightblue" d="M1988.16,-112.44C1936.76,-102.64 1852.79,-86.61 1799.51,-76.45"/>
<polygon fill="midnightblue" stroke="midnightblue" points="1800.09,-72.99 1789.61,-74.56 1798.78,-79.87 1800.09,-72.99"/>
</g>
<!-- Node19 -->
<g id="node19" class="node">
<title>Node19</title>
<g id="a_node19"><a xlink:title=" ">
<polygon fill="white" stroke="#bfbfbf" points="2065.5,-0.5 2065.5,-19.5 2134.5,-19.5 2134.5,-0.5 2065.5,-0.5"/>
<text text-anchor="middle" x="2100" y="-7.5" font-family="Helvetica,sans-Serif" font-size="10.00">Eigen/Core</text>
</a>
</g>
</g>
<!-- Node18&#45;&gt;Node19 -->
<g id="edge19" class="edge">
<title>Node18&#45;&gt;Node19</title>
<path fill="none" stroke="midnightblue" d="M2038.26,-112.37C2049.27,-94.3 2074.92,-52.18 2089.46,-28.31"/>
<polygon fill="midnightblue" stroke="midnightblue" points="2092.55,-29.95 2094.77,-19.59 2086.58,-26.31 2092.55,-29.95"/>
</g>
<!-- Node20 -->
<g id="node20" class="node">
<title>Node20</title>
<g id="a_node20"><a xlink:title=" ">
<polygon fill="white" stroke="#bfbfbf" points="1895,-56.5 1895,-75.5 1959,-75.5 1959,-56.5 1895,-56.5"/>
<text text-anchor="middle" x="1927" y="-63.5" font-family="Helvetica,sans-Serif" font-size="10.00">algorithm</text>
</a>
</g>
</g>
<!-- Node18&#45;&gt;Node20 -->
<g id="edge20" class="edge">
<title>Node18&#45;&gt;Node20</title>
<path fill="none" stroke="midnightblue" d="M2015.97,-112.32C1998.97,-103.66 1972.62,-90.24 1953.01,-80.25"/>
<polygon fill="midnightblue" stroke="midnightblue" points="1954.49,-77.08 1943.99,-75.65 1951.31,-83.31 1954.49,-77.08"/>
</g>
<!-- Node21 -->
<g id="node21" class="node">
<title>Node21</title>
<g id="a_node21"><a xlink:title=" ">
<polygon fill="white" stroke="#bfbfbf" points="1977,-56.5 1977,-75.5 2033,-75.5 2033,-56.5 1977,-56.5"/>
<text text-anchor="middle" x="2005" y="-63.5" font-family="Helvetica,sans-Serif" font-size="10.00">sstream</text>
</a>
</g>
</g>
<!-- Node18&#45;&gt;Node21 -->
<g id="edge22" class="edge">
<title>Node18&#45;&gt;Node21</title>
<path fill="none" stroke="midnightblue" d="M2028.38,-112.08C2024.54,-104.69 2018.98,-93.95 2014.24,-84.81"/>
<polygon fill="midnightblue" stroke="midnightblue" points="2017.25,-83.02 2009.54,-75.75 2011.03,-86.24 2017.25,-83.02"/>
</g>
<!-- Node22 -->
<g id="node22" class="node">
<title>Node22</title>
<g id="a_node22"><a xlink:href="EigenIO_8hpp.html" target="_top" xlink:title=" ">
<polygon fill="white" stroke="black" points="2089.5,-56.5 2089.5,-75.5 2188.5,-75.5 2188.5,-56.5 2089.5,-56.5"/>
<text text-anchor="middle" x="2139" y="-63.5" font-family="Helvetica,sans-Serif" font-size="10.00">utils/EigenIO.hpp</text>
</a>
</g>
</g>
<!-- Node18&#45;&gt;Node22 -->
<g id="edge23" class="edge">
<title>Node18&#45;&gt;Node22</title>
<path fill="none" stroke="midnightblue" d="M2050.03,-112.32C2067.03,-103.66 2093.38,-90.24 2112.99,-80.25"/>
<polygon fill="midnightblue" stroke="midnightblue" points="2114.69,-83.31 2122.01,-75.65 2111.51,-77.08 2114.69,-83.31"/>
</g>
<!-- Node22&#45;&gt;Node19 -->
<g id="edge24" class="edge">
<title>Node22&#45;&gt;Node19</title>
<path fill="none" stroke="midnightblue" d="M2132.56,-56.08C2127.05,-48.46 2118.97,-37.26 2112.24,-27.94"/>
<polygon fill="midnightblue" stroke="midnightblue" points="2115.01,-25.81 2106.32,-19.75 2109.34,-29.91 2115.01,-25.81"/>
</g>
<!-- Node23&#45;&gt;Node16 -->
<g id="edge28" class="edge">
<title>Node23&#45;&gt;Node16</title>
<path fill="none" stroke="midnightblue" d="M1401.18,-113.27C1404.17,-112.83 1407.12,-112.4 1410,-112 1536.33,-94.24 1571.1,-95.96 1700.58,-76.14"/>
<polygon fill="midnightblue" stroke="midnightblue" points="1701.13,-79.6 1710.48,-74.61 1700.06,-72.68 1701.13,-79.6"/>
</g>
<!-- Node24 -->
<g id="node24" class="node">
<title>Node24</title>
<g id="a_node24"><a xlink:title=" ">
<polygon fill="white" stroke="#bfbfbf" points="1239,-56.5 1239,-75.5 1281,-75.5 1281,-56.5 1239,-56.5"/>
<text text-anchor="middle" x="1260" y="-63.5" font-family="Helvetica,sans-Serif" font-size="10.00">array</text>
</a>
</g>
</g>
<!-- Node23&#45;&gt;Node24 -->
<g id="edge26" class="edge">
<title>Node23&#45;&gt;Node24</title>
<path fill="none" stroke="midnightblue" d="M1338.06,-112.32C1323.41,-103.82 1300.87,-90.73 1283.76,-80.8"/>
<polygon fill="midnightblue" stroke="midnightblue" points="1285.31,-77.65 1274.9,-75.65 1281.8,-83.7 1285.31,-77.65"/>
</g>
<!-- Node25 -->
<g id="node25" class="node">
<title>Node25</title>
<g id="a_node25"><a xlink:title=" ">
<polygon fill="white" stroke="#bfbfbf" points="1299.5,-56.5 1299.5,-75.5 1346.5,-75.5 1346.5,-56.5 1299.5,-56.5"/>
<text text-anchor="middle" x="1323" y="-63.5" font-family="Helvetica,sans-Serif" font-size="10.00">deque</text>
</a>
</g>
</g>
<!-- Node23&#45;&gt;Node25 -->
<g id="edge27" class="edge">
<title>Node23&#45;&gt;Node25</title>
<path fill="none" stroke="midnightblue" d="M1348.05,-112.08C1343.9,-104.61 1337.85,-93.72 1332.73,-84.52"/>
<polygon fill="midnightblue" stroke="midnightblue" points="1335.78,-82.79 1327.86,-75.75 1329.66,-86.19 1335.78,-82.79"/>
</g>
<!-- Node26 -->
<g id="node26" class="node">
<title>Node26</title>
<g id="a_node26"><a xlink:title=" ">
<polygon fill="white" stroke="#bfbfbf" points="1365,-56.5 1365,-75.5 1403,-75.5 1403,-56.5 1365,-56.5"/>
<text text-anchor="middle" x="1384" y="-63.5" font-family="Helvetica,sans-Serif" font-size="10.00">map</text>
</a>
</g>
</g>
<!-- Node23&#45;&gt;Node26 -->
<g id="edge29" class="edge">
<title>Node23&#45;&gt;Node26</title>
<path fill="none" stroke="midnightblue" d="M1358.12,-112.08C1362.41,-104.61 1368.66,-93.72 1373.94,-84.52"/>
<polygon fill="midnightblue" stroke="midnightblue" points="1377.03,-86.17 1378.98,-75.75 1370.96,-82.68 1377.03,-86.17"/>
</g>
<!-- Node27 -->
<g id="node27" class="node">
<title>Node27</title>
<g id="a_node27"><a xlink:title=" ">
<polygon fill="white" stroke="#bfbfbf" points="1421,-56.5 1421,-75.5 1453,-75.5 1453,-56.5 1421,-56.5"/>
<text text-anchor="middle" x="1437" y="-63.5" font-family="Helvetica,sans-Serif" font-size="10.00">set</text>
</a>
</g>
</g>
<!-- Node23&#45;&gt;Node27 -->
<g id="edge30" class="edge">
<title>Node23&#45;&gt;Node27</title>
<path fill="none" stroke="midnightblue" d="M1366.5,-112.32C1379.6,-103.9 1399.71,-90.97 1415.11,-81.07"/>
<polygon fill="midnightblue" stroke="midnightblue" points="1417.02,-84.01 1423.54,-75.65 1413.23,-78.12 1417.02,-84.01"/>
</g>
<!-- Node28 -->
<g id="node28" class="node">
<title>Node28</title>
<g id="a_node28"><a xlink:title=" ">
<polygon fill="white" stroke="#bfbfbf" points="1645.5,-56.5 1645.5,-75.5 1692.5,-75.5 1692.5,-56.5 1645.5,-56.5"/>
<text text-anchor="middle" x="1669" y="-63.5" font-family="Helvetica,sans-Serif" font-size="10.00">vector</text>
</a>
</g>
</g>
<!-- Node23&#45;&gt;Node28 -->
<g id="edge31" class="edge">
<title>Node23&#45;&gt;Node28</title>
<path fill="none" stroke="midnightblue" d="M1401.34,-112.74C1465.98,-101.69 1578.96,-82.39 1635.2,-72.78"/>
<polygon fill="midnightblue" stroke="midnightblue" points="1636.07,-76.18 1645.33,-71.04 1634.89,-69.28 1636.07,-76.18"/>
</g>
<!-- Node34&#45;&gt;Node14 -->
<g id="edge43" class="edge">
<title>Node34&#45;&gt;Node14</title>
<path fill="none" stroke="midnightblue" d="M1297.23,-235.48C1272.57,-225.36 1231.25,-208.4 1203.1,-196.85"/>
<polygon fill="midnightblue" stroke="midnightblue" points="1204.32,-193.57 1193.74,-193.01 1201.66,-200.04 1204.32,-193.57"/>
</g>
<!-- Node34&#45;&gt;Node31 -->
<g id="edge38" class="edge">
<title>Node34&#45;&gt;Node31</title>
<path fill="none" stroke="midnightblue" d="M1391.27,-235.5C1454.22,-227.79 1547.6,-215.39 1638.03,-199.09"/>
<polygon fill="midnightblue" stroke="midnightblue" points="1638.69,-202.52 1647.9,-197.29 1637.44,-195.64 1638.69,-202.52"/>
</g>
<!-- Node34&#45;&gt;Node32 -->
<g id="edge40" class="edge">
<title>Node34&#45;&gt;Node32</title>
<path fill="none" stroke="midnightblue" d="M1396.68,-235.94C1399.83,-235.62 1402.94,-235.31 1406,-235 1563.13,-219.13 1606.1,-224.62 1765.74,-199.08"/>
<polygon fill="midnightblue" stroke="midnightblue" points="1766.61,-202.48 1775.93,-197.43 1765.5,-195.57 1766.61,-202.48"/>
</g>
<!-- Node35 -->
<g id="node35" class="node">
<title>Node35</title>
<g id="a_node35"><a xlink:title=" ">
<polygon fill="white" stroke="#bfbfbf" points="1385.5,-168.5 1385.5,-198.5 1496.5,-198.5 1496.5,-168.5 1385.5,-168.5"/>
<text text-anchor="start" x="1393.5" y="-186.5" font-family="Helvetica,sans-Serif" font-size="10.00">boost/preprocessor</text>
<text text-anchor="middle" x="1441" y="-175.5" font-family="Helvetica,sans-Serif" font-size="10.00">/seq/for_each_i.hpp</text>
</a>
</g>
</g>
<!-- Node34&#45;&gt;Node35 -->
<g id="edge39" class="edge">
<title>Node34&#45;&gt;Node35</title>
<path fill="none" stroke="midnightblue" d="M1335.62,-235.48C1353.06,-227.04 1380.32,-213.86 1402.74,-203.01"/>
<polygon fill="midnightblue" stroke="midnightblue" points="1404.53,-206.03 1412.01,-198.52 1401.49,-199.73 1404.53,-206.03"/>
</g>
<!-- Node36 -->
<g id="node36" class="node">
<title>Node36</title>
<g id="a_node36"><a xlink:title=" ">
<polygon fill="white" stroke="#bfbfbf" points="1514.5,-168.5 1514.5,-198.5 1629.5,-198.5 1629.5,-168.5 1514.5,-168.5"/>
<text text-anchor="start" x="1522.5" y="-186.5" font-family="Helvetica,sans-Serif" font-size="10.00">boost/preprocessor</text>
<text text-anchor="middle" x="1572" y="-175.5" font-family="Helvetica,sans-Serif" font-size="10.00">/variadic/to_seq.hpp</text>
</a>
</g>
</g>
<!-- Node34&#45;&gt;Node36 -->
<g id="edge41" class="edge">
<title>Node34&#45;&gt;Node36</title>
<path fill="none" stroke="midnightblue" d="M1354.39,-235.48C1393.32,-226.36 1455.96,-211.68 1504.06,-200.42"/>
<polygon fill="midnightblue" stroke="midnightblue" points="1505.15,-203.76 1514.09,-198.07 1503.55,-196.94 1505.15,-203.76"/>
</g>
<!-- Node37 -->
<g id="node37" class="node">
<title>Node37</title>
<g id="a_node37"><a xlink:title=" ">
<polygon fill="white" stroke="#bfbfbf" points="1231,-174 1231,-193 1367,-193 1367,-174 1231,-174"/>
<text text-anchor="middle" x="1299" y="-181" font-family="Helvetica,sans-Serif" font-size="10.00">boost/vmd/is_empty.hpp</text>
</a>
</g>
</g>
<!-- Node34&#45;&gt;Node37 -->
<g id="edge42" class="edge">
<title>Node34&#45;&gt;Node37</title>
<path fill="none" stroke="midnightblue" d="M1315.28,-235.48C1312.57,-226.99 1308.33,-213.7 1304.85,-202.82"/>
<polygon fill="midnightblue" stroke="midnightblue" points="1308.09,-201.47 1301.72,-193.01 1301.43,-203.6 1308.09,-201.47"/>
</g>
<!-- Node38&#45;&gt;Node15 -->
<g id="edge48" class="edge">
<title>Node38&#45;&gt;Node15</title>
<path fill="none" stroke="midnightblue" d="M1822.28,-416.33C1869.95,-413.01 1942.36,-401.99 1994,-367 2031.56,-341.55 2091.83,-240.57 2110,-199 2118.11,-180.46 2122.55,-157.62 2124.83,-141.85"/>
<polygon fill="midnightblue" stroke="midnightblue" points="2128.32,-142.14 2126.14,-131.77 2121.38,-141.24 2128.32,-142.14"/>
</g>
<!-- Node38&#45;&gt;Node28 -->
<g id="edge49" class="edge">
<title>Node38&#45;&gt;Node28</title>
<path fill="none" stroke="midnightblue" d="M1736.45,-408.94C1700.44,-398.54 1653.08,-378.38 1670,-347 1730.64,-234.52 1964.52,-275.22 1895,-168 1872.83,-133.81 1759.52,-94.86 1702.24,-76.96"/>
<polygon fill="midnightblue" stroke="midnightblue" points="1703.15,-73.57 1692.56,-73.96 1701.08,-80.26 1703.15,-73.57"/>
</g>
<!-- Node39 -->
<g id="node39" class="node">
<title>Node39</title>
<g id="a_node39"><a xlink:title=" ">
<polygon fill="white" stroke="#bfbfbf" points="1679,-347.5 1679,-366.5 1727,-366.5 1727,-347.5 1679,-347.5"/>
<text text-anchor="middle" x="1703" y="-354.5" font-family="Helvetica,sans-Serif" font-size="10.00">iosfwd</text>
</a>
</g>
</g>
<!-- Node38&#45;&gt;Node39 -->
<g id="edge45" class="edge">
<title>Node38&#45;&gt;Node39</title>
<path fill="none" stroke="midnightblue" d="M1762.97,-408.98C1751.95,-399.61 1734.04,-384.38 1720.66,-373.01"/>
<polygon fill="midnightblue" stroke="midnightblue" points="1722.9,-370.32 1713.01,-366.51 1718.36,-375.65 1722.9,-370.32"/>
</g>
<!-- Node40 -->
<g id="node40" class="node">
<title>Node40</title>
<g id="a_node40"><a xlink:title=" ">
<polygon fill="white" stroke="#bfbfbf" points="1455,-291.5 1455,-310.5 1513,-310.5 1513,-291.5 1455,-291.5"/>
<text text-anchor="middle" x="1484" y="-298.5" font-family="Helvetica,sans-Serif" font-size="10.00">memory</text>
</a>
</g>
</g>
<!-- Node38&#45;&gt;Node40 -->
<g id="edge46" class="edge">
<title>Node38&#45;&gt;Node40</title>
<path fill="none" stroke="midnightblue" d="M1748.8,-408.89C1721.5,-399.1 1675.85,-382.46 1637,-367 1593.44,-349.67 1543.57,-328.17 1512.93,-314.76"/>
<polygon fill="midnightblue" stroke="midnightblue" points="1514.25,-311.52 1503.68,-310.71 1511.44,-317.93 1514.25,-311.52"/>
</g>
<!-- Node41 -->
<g id="node41" class="node">
<title>Node41</title>
<g id="a_node41"><a xlink:title=" ">
<polygon fill="white" stroke="#bfbfbf" points="1745,-347.5 1745,-366.5 1801,-366.5 1801,-347.5 1745,-347.5"/>
<text text-anchor="middle" x="1773" y="-354.5" font-family="Helvetica,sans-Serif" font-size="10.00">optional</text>
</a>
</g>
</g>
<!-- Node38&#45;&gt;Node41 -->
<g id="edge47" class="edge">
<title>Node38&#45;&gt;Node41</title>
<path fill="none" stroke="midnightblue" d="M1773,-408.98C1773,-400.58 1773,-387.48 1773,-376.66"/>
<polygon fill="midnightblue" stroke="midnightblue" points="1776.5,-376.51 1773,-366.51 1769.5,-376.51 1776.5,-376.51"/>
</g>
<!-- Node38&#45;&gt;Node42 -->
<g id="edge50" class="edge">
<title>Node38&#45;&gt;Node42</title>
<path fill="none" stroke="midnightblue" d="M1723.84,-409.72C1656.45,-399.06 1535.26,-379.88 1460.9,-368.11"/>
<polygon fill="midnightblue" stroke="midnightblue" points="1461.15,-364.61 1450.72,-366.5 1460.05,-371.52 1461.15,-364.61"/>
</g>
<!-- Node45 -->
<g id="node45" class="node">
<title>Node45</title>
<g id="a_node45"><a xlink:href="types_8hpp.html" target="_top" xlink:title=" ">
<polygon fill="white" stroke="black" points="1819.5,-347.5 1819.5,-366.5 1922.5,-366.5 1922.5,-347.5 1819.5,-347.5"/>
<text text-anchor="middle" x="1871" y="-354.5" font-family="Helvetica,sans-Serif" font-size="10.00">precice/types.hpp</text>
</a>
</g>
</g>
<!-- Node38&#45;&gt;Node45 -->
<g id="edge58" class="edge">
<title>Node38&#45;&gt;Node45</title>
<path fill="none" stroke="midnightblue" d="M1787.04,-408.98C1803.05,-399.25 1829.45,-383.23 1848.37,-371.74"/>
<polygon fill="midnightblue" stroke="midnightblue" points="1850.25,-374.69 1856.99,-366.51 1846.62,-368.71 1850.25,-374.69"/>
</g>
<!-- Node46 -->
<g id="node46" class="node">
<title>Node46</title>
<g id="a_node46"><a xlink:title=" ">
<polygon fill="white" stroke="#bfbfbf" points="1941,-347.5 1941,-366.5 1985,-366.5 1985,-347.5 1941,-347.5"/>
<text text-anchor="middle" x="1963" y="-354.5" font-family="Helvetica,sans-Serif" font-size="10.00">mpi.h</text>
</a>
</g>
</g>
<!-- Node38&#45;&gt;Node46 -->
<g id="edge59" class="edge">
<title>Node38&#45;&gt;Node46</title>
<path fill="none" stroke="midnightblue" d="M1800.22,-408.98C1834.83,-398.14 1894.48,-379.46 1931.16,-367.97"/>
<polygon fill="midnightblue" stroke="midnightblue" points="1932.36,-371.26 1940.86,-364.93 1930.27,-364.58 1932.36,-371.26"/>
</g>
<!-- Node42&#45;&gt;Node13 -->
<g id="edge52" class="edge">
<title>Node42&#45;&gt;Node13</title>
<path fill="none" stroke="midnightblue" d="M1363.99,-347.41C1305.05,-330.2 1182.52,-285.49 1125,-199 1113.57,-181.81 1108.66,-158.4 1106.56,-142.12"/>
<polygon fill="midnightblue" stroke="midnightblue" points="1110,-141.3 1105.48,-131.72 1103.04,-142.03 1110,-141.3"/>
</g>
<!-- Node42&#45;&gt;Node40 -->
<g id="edge51" class="edge">
<title>Node42&#45;&gt;Node40</title>
<path fill="none" stroke="midnightblue" d="M1410.98,-347.32C1424.55,-338.9 1445.38,-325.97 1461.32,-316.07"/>
<polygon fill="midnightblue" stroke="midnightblue" points="1463.41,-318.9 1470.06,-310.65 1459.71,-312.95 1463.41,-318.9"/>
</g>
<!-- Node43 -->
<g id="node43" class="node">
<title>Node43</title>
<g id="a_node43"><a xlink:href="LogMacros_8hpp.html" target="_top" xlink:title=" ">
<polygon fill="white" stroke="black" points="1280,-291.5 1280,-310.5 1370,-310.5 1370,-291.5 1280,-291.5"/>
<text text-anchor="middle" x="1325" y="-298.5" font-family="Helvetica,sans-Serif" font-size="10.00">LogMacros.hpp</text>
</a>
</g>
</g>
<!-- Node42&#45;&gt;Node43 -->
<g id="edge53" class="edge">
<title>Node42&#45;&gt;Node43</title>
<path fill="none" stroke="midnightblue" d="M1385.43,-347.32C1374.58,-339.18 1358.12,-326.84 1345.12,-317.09"/>
<polygon fill="midnightblue" stroke="midnightblue" points="1346.88,-314.03 1336.78,-310.83 1342.68,-319.63 1346.88,-314.03"/>
</g>
<!-- Node43&#45;&gt;Node14 -->
<g id="edge54" class="edge">
<title>Node43&#45;&gt;Node14</title>
<path fill="none" stroke="midnightblue" d="M1299.78,-291.39C1279.83,-283.8 1251.94,-271.4 1231,-255 1211.78,-239.95 1194.69,-217.49 1184.13,-201.98"/>
<polygon fill="midnightblue" stroke="midnightblue" points="1186.86,-199.77 1178.43,-193.35 1181.02,-203.63 1186.86,-199.77"/>
</g>
<!-- Node43&#45;&gt;Node34 -->
<g id="edge55" class="edge">
<title>Node43&#45;&gt;Node34</title>
<path fill="none" stroke="midnightblue" d="M1323.84,-291.08C1322.92,-283.93 1321.58,-273.64 1320.42,-264.69"/>
<polygon fill="midnightblue" stroke="midnightblue" points="1323.89,-264.22 1319.13,-254.75 1316.95,-265.12 1323.89,-264.22"/>
</g>
<!-- Node44 -->
<g id="node44" class="node">
<title>Node44</title>
<g id="a_node44"><a xlink:href="Tracer_8hpp.html" target="_top" xlink:title=" ">
<polygon fill="white" stroke="black" points="1414.5,-235.5 1414.5,-254.5 1519.5,-254.5 1519.5,-235.5 1414.5,-235.5"/>
<text text-anchor="middle" x="1467" y="-242.5" font-family="Helvetica,sans-Serif" font-size="10.00">logging/Tracer.hpp</text>
</a>
</g>
</g>
<!-- Node43&#45;&gt;Node44 -->
<g id="edge56" class="edge">
<title>Node43&#45;&gt;Node44</title>
<path fill="none" stroke="midnightblue" d="M1347.5,-291.44C1371.08,-282.48 1408.32,-268.31 1434.96,-258.18"/>
<polygon fill="midnightblue" stroke="midnightblue" points="1436.5,-261.34 1444.6,-254.52 1434.01,-254.8 1436.5,-261.34"/>
</g>
<!-- Node44&#45;&gt;Node42 -->
<g id="edge57" class="edge">
<title>Node44&#45;&gt;Node42</title>
<path fill="none" stroke="midnightblue" d="M1461.53,-254.59C1450.05,-272.63 1423.25,-314.74 1408.05,-338.64"/>
<polygon fill="midnightblue" stroke="midnightblue" points="1404.91,-337.05 1402.49,-347.37 1410.81,-340.81 1404.91,-337.05"/>
</g>
<!-- Node47&#45;&gt;Node15 -->
<g id="edge61" class="edge">
<title>Node47&#45;&gt;Node15</title>
<path fill="none" stroke="midnightblue" d="M2134.07,-291.29C2138.81,-270.07 2149.47,-214.05 2142,-168 2140.53,-158.96 2137.51,-149.28 2134.56,-141.22"/>
<polygon fill="midnightblue" stroke="midnightblue" points="2137.76,-139.79 2130.86,-131.75 2131.24,-142.34 2137.76,-139.79"/>
</g>
<!-- Node49&#45;&gt;Node15 -->
<g id="edge64" class="edge">
<title>Node49&#45;&gt;Node15</title>
<path fill="none" stroke="midnightblue" d="M2036.19,-173.98C2053.66,-164.17 2082.58,-147.93 2103.08,-136.42"/>
<polygon fill="midnightblue" stroke="midnightblue" points="2104.83,-139.46 2111.84,-131.51 2101.41,-133.35 2104.83,-139.46"/>
</g>
<!-- Node49&#45;&gt;Node28 -->
<g id="edge65" class="edge">
<title>Node49&#45;&gt;Node28</title>
<path fill="none" stroke="midnightblue" d="M2012.7,-173.87C1997.48,-158.62 1963.41,-127.11 1928,-112 1837.37,-73.33 1803.55,-95.89 1702.69,-75.87"/>
<polygon fill="midnightblue" stroke="midnightblue" points="1703.22,-72.41 1692.72,-73.8 1701.8,-79.26 1703.22,-72.41"/>
</g>
</g>
</svg>
        <g id="navigator" transform="translate(0 0)" fill="#404254">
                <rect fill="#f2f5e9" fill-opacity="0.5" stroke="#606060" stroke-width=".5" x="0" y="0" width="60" height="60"/>
                <use id="zoomplus" xlink:href="#zoomPlus" x="17" y="9" onmousedown="handleZoom(evt,'in')"/>
                <use id="zoomminus" xlink:href="#zoomMin" x="42" y="9" onmousedown="handleZoom(evt,'out')"/>
                <use id="reset" xlink:href="#resetDef" x="30" y="36" onmousedown="handleReset()"/>
                <g id="arrowUp" xlink:href="#dirArrow" transform="translate(30 24)" onmousedown="handlePan(0,-1)">
                  <use xlink:href="#rim" fill="#404040">
                        <set attributeName="fill" to="#808080" begin="arrowUp.mouseover" end="arrowUp.mouseout"/>
                  </use>
                  <path fill="none" stroke="white" stroke-width="1.5" d="M0,-3.0v7 M-2.5,-0.5L0,-3.0L2.5,-0.5"/>
                </g>
                <g id="arrowRight" xlink:href="#dirArrow" transform="rotate(90) translate(36 -43)" onmousedown="handlePan(1,0)">
                  <use xlink:href="#rim" fill="#404040">
                        <set attributeName="fill" to="#808080" begin="arrowRight.mouseover" end="arrowRight.mouseout"/>
                  </use>
                  <path fill="none" stroke="white" stroke-width="1.5" d="M0,-3.0v7 M-2.5,-0.5L0,-3.0L2.5,-0.5"/>
                </g>
                <g id="arrowDown" xlink:href="#dirArrow" transform="rotate(180) translate(-30 -48)" onmousedown="handlePan(0,1)">
                  <use xlink:href="#rim" fill="#404040">
                        <set attributeName="fill" to="#808080" begin="arrowDown.mouseover" end="arrowDown.mouseout"/>
                  </use>
                  <path fill="none" stroke="white" stroke-width="1.5" d="M0,-3.0v7 M-2.5,-0.5L0,-3.0L2.5,-0.5"/>
                </g>
                <g id="arrowLeft" xlink:href="#dirArrow" transform="rotate(270) translate(-36 17)" onmousedown="handlePan(-1,0)">
                  <use xlink:href="#rim" fill="#404040">
                        <set attributeName="fill" to="#808080" begin="arrowLeft.mouseover" end="arrowLeft.mouseout"/>
                  </use>
                  <path fill="none" stroke="white" stroke-width="1.5" d="M0,-3.0v7 M-2.5,-0.5L0,-3.0L2.5,-0.5"/>
                </g>
        </g>
        <svg viewBox="0 0 15 15" width="100%" height="30px" preserveAspectRatio="xMaxYMin meet">
         <g id="arrow_out" transform="scale(0.3 0.3)">
          <a xlink:href="Logger_8cpp__incl_org.svg" target="_base">
           <rect id="button" ry="5" rx="5" y="6" x="6" height="38" width="38"
                fill="#f2f5e9" fill-opacity="0.5" stroke="#606060" stroke-width="1.0"/>
           <path id="arrow"
             d="M 11.500037,31.436501 C 11.940474,20.09759 22.043105,11.32322 32.158766,21.979434 L 37.068811,17.246167 C 37.068811,17.246167 37.088388,32 37.088388,32 L 22.160133,31.978069 C 22.160133,31.978069 26.997745,27.140456 26.997745,27.140456 C 18.528582,18.264221 13.291696,25.230495 11.500037,31.436501 z"
             style="fill:#404040;"/>
          </a>
         </g>
        </svg>
</svg>
