<?xml version="1.0" encoding="UTF-8" standalone="no"?>
<!DOCTYPE svg PUBLIC "-//W3C//DTD SVG 1.1//EN"
 "http://www.w3.org/Graphics/SVG/1.1/DTD/svg11.dtd">
<!-- Generated by graphviz version 2.43.0 (0)
 -->
<!-- Title: src/utils/tests/ManageUniqueIDsTest.cpp Pages: 1 -->
<svg width="2131pt" height="632pt"
 viewBox="0.00 0.00 2130.50 632.00" xmlns="http://www.w3.org/2000/svg" xmlns:xlink="http://www.w3.org/1999/xlink">
<g id="graph0" class="graph" transform="scale(1 1) rotate(0) translate(4 628)">
<title>src/utils/tests/ManageUniqueIDsTest.cpp</title>
<polygon fill="white" stroke="transparent" points="-4,4 -4,-628 2126.5,-628 2126.5,4 -4,4"/>
<!-- Node1 -->
<g id="node1" class="node">
<title>Node1</title>
<g id="a_node1"><a xlink:title=" ">
<polygon fill="#bfbfbf" stroke="black" points="1531.5,-593.5 1531.5,-623.5 1689.5,-623.5 1689.5,-593.5 1531.5,-593.5"/>
<text text-anchor="start" x="1539.5" y="-611.5" font-family="Helvetica,sans-Serif" font-size="10.00">src/utils/tests/ManageUnique</text>
<text text-anchor="middle" x="1610.5" y="-600.5" font-family="Helvetica,sans-Serif" font-size="10.00">IDsTest.cpp</text>
</a>
</g>
</g>
<!-- Node2 -->
<g id="node2" class="node">
<title>Node2</title>
<g id="a_node2"><a xlink:href="constants_8hpp.html" target="_top" xlink:title=" ">
<polygon fill="white" stroke="black" points="0,-414.5 0,-433.5 113,-433.5 113,-414.5 0,-414.5"/>
<text text-anchor="middle" x="56.5" y="-421.5" font-family="Helvetica,sans-Serif" font-size="10.00">math/constants.hpp</text>
</a>
</g>
</g>
<!-- Node1&#45;&gt;Node2 -->
<g id="edge1" class="edge">
<title>Node1&#45;&gt;Node2</title>
<path fill="none" stroke="midnightblue" d="M1531.06,-605.18C1241.73,-596.27 254.52,-561.66 127.5,-501 100.58,-488.14 78.84,-460.23 66.8,-442.05"/>
<polygon fill="midnightblue" stroke="midnightblue" points="69.73,-440.13 61.41,-433.56 63.82,-443.88 69.73,-440.13"/>
</g>
<!-- Node3 -->
<g id="node3" class="node">
<title>Node3</title>
<g id="a_node3"><a xlink:href="TestContext_8hpp.html" target="_top" xlink:title=" ">
<polygon fill="white" stroke="black" points="1549.5,-358.5 1549.5,-377.5 1681.5,-377.5 1681.5,-358.5 1549.5,-358.5"/>
<text text-anchor="middle" x="1615.5" y="-365.5" font-family="Helvetica,sans-Serif" font-size="10.00">testing/TestContext.hpp</text>
</a>
</g>
</g>
<!-- Node1&#45;&gt;Node3 -->
<g id="edge2" class="edge">
<title>Node1&#45;&gt;Node3</title>
<path fill="none" stroke="midnightblue" d="M1610.8,-593.29C1611.65,-552.43 1614.13,-434.55 1615.1,-388.12"/>
<polygon fill="midnightblue" stroke="midnightblue" points="1618.6,-388.02 1615.31,-377.95 1611.6,-387.87 1618.6,-388.02"/>
</g>
<!-- Node39 -->
<g id="node23" class="node">
<title>Node39</title>
<g id="a_node23"><a xlink:href="Testing_8hpp.html" target="_top" xlink:title=" ">
<polygon fill="white" stroke="black" points="1008,-537.5 1008,-556.5 1117,-556.5 1117,-537.5 1008,-537.5"/>
<text text-anchor="middle" x="1062.5" y="-544.5" font-family="Helvetica,sans-Serif" font-size="10.00">testing/Testing.hpp</text>
</a>
</g>
</g>
<!-- Node1&#45;&gt;Node39 -->
<g id="edge30" class="edge">
<title>Node1&#45;&gt;Node39</title>
<path fill="none" stroke="midnightblue" d="M1531.4,-598.91C1422.36,-587.07 1227.95,-565.96 1127.13,-555.02"/>
<polygon fill="midnightblue" stroke="midnightblue" points="1127.41,-551.53 1117.09,-553.93 1126.65,-558.49 1127.41,-551.53"/>
</g>
<!-- Node59 -->
<g id="node45" class="node">
<title>Node59</title>
<g id="a_node45"><a xlink:href="ManageUniqueIDs_8hpp.html" target="_top" xlink:title=" ">
<polygon fill="white" stroke="black" points="1677,-537.5 1677,-556.5 1828,-556.5 1828,-537.5 1677,-537.5"/>
<text text-anchor="middle" x="1752.5" y="-544.5" font-family="Helvetica,sans-Serif" font-size="10.00">utils/ManageUniqueIDs.hpp</text>
</a>
</g>
</g>
<!-- Node1&#45;&gt;Node59 -->
<g id="edge72" class="edge">
<title>Node1&#45;&gt;Node59</title>
<path fill="none" stroke="midnightblue" d="M1644.15,-593.4C1667.98,-583.42 1699.65,-570.15 1722.59,-560.53"/>
<polygon fill="midnightblue" stroke="midnightblue" points="1723.97,-563.75 1731.84,-556.66 1721.26,-557.29 1723.97,-563.75"/>
</g>
<!-- Node62 -->
<g id="node48" class="node">
<title>Node62</title>
<g id="a_node48"><a xlink:href="String_8hpp.html" target="_top" xlink:title=" ">
<polygon fill="white" stroke="black" points="1892.5,-358.5 1892.5,-377.5 1982.5,-377.5 1982.5,-358.5 1892.5,-358.5"/>
<text text-anchor="middle" x="1937.5" y="-365.5" font-family="Helvetica,sans-Serif" font-size="10.00">utils/String.hpp</text>
</a>
</g>
</g>
<!-- Node1&#45;&gt;Node62 -->
<g id="edge75" class="edge">
<title>Node1&#45;&gt;Node62</title>
<path fill="none" stroke="midnightblue" d="M1614.97,-593.39C1624.32,-565.97 1648.47,-505.11 1688.5,-470 1745.12,-420.33 1829.36,-393.14 1883.86,-379.83"/>
<polygon fill="midnightblue" stroke="midnightblue" points="1884.76,-383.22 1893.68,-377.5 1883.14,-376.4 1884.76,-383.22"/>
</g>
<!-- Node4 -->
<g id="node4" class="node">
<title>Node4</title>
<g id="a_node4"><a xlink:title=" ">
<polygon fill="white" stroke="#bfbfbf" points="1749,-297 1749,-316 1814,-316 1814,-297 1749,-297"/>
<text text-anchor="middle" x="1781.5" y="-304" font-family="Helvetica,sans-Serif" font-size="10.00">stdexcept</text>
</a>
</g>
</g>
<!-- Node3&#45;&gt;Node4 -->
<g id="edge3" class="edge">
<title>Node3&#45;&gt;Node4</title>
<path fill="none" stroke="midnightblue" d="M1639.28,-358.48C1667.88,-348.22 1716.05,-330.96 1748.3,-319.4"/>
<polygon fill="midnightblue" stroke="midnightblue" points="1749.53,-322.68 1757.76,-316.01 1747.17,-316.09 1749.53,-322.68"/>
</g>
<!-- Node5 -->
<g id="node5" class="node">
<title>Node5</title>
<g id="a_node5"><a xlink:title=" ">
<polygon fill="white" stroke="#bfbfbf" points="1380.5,-0.5 1380.5,-19.5 1424.5,-19.5 1424.5,-0.5 1380.5,-0.5"/>
<text text-anchor="middle" x="1402.5" y="-7.5" font-family="Helvetica,sans-Serif" font-size="10.00">string</text>
</a>
</g>
</g>
<!-- Node3&#45;&gt;Node5 -->
<g id="edge4" class="edge">
<title>Node3&#45;&gt;Node5</title>
<path fill="none" stroke="midnightblue" d="M1681.5,-360.4C1739.24,-353.47 1817.66,-340.94 1842.5,-322 1872.53,-299.1 1880.5,-283.76 1880.5,-246 1880.5,-246 1880.5,-246 1880.5,-132 1880.5,-39.82 1542.24,-17.1 1434.82,-12.21"/>
<polygon fill="midnightblue" stroke="midnightblue" points="1434.74,-8.7 1424.6,-11.77 1434.44,-15.7 1434.74,-8.7"/>
</g>
<!-- Node6 -->
<g id="node6" class="node">
<title>Node6</title>
<g id="a_node6"><a xlink:title=" ">
<polygon fill="white" stroke="#bfbfbf" points="1461,-297 1461,-316 1530,-316 1530,-297 1461,-297"/>
<text text-anchor="middle" x="1495.5" y="-304" font-family="Helvetica,sans-Serif" font-size="10.00">type_traits</text>
</a>
</g>
</g>
<!-- Node3&#45;&gt;Node6 -->
<g id="edge5" class="edge">
<title>Node3&#45;&gt;Node6</title>
<path fill="none" stroke="midnightblue" d="M1598.31,-358.48C1578.26,-348.53 1544.9,-331.99 1521.64,-320.46"/>
<polygon fill="midnightblue" stroke="midnightblue" points="1523.18,-317.32 1512.66,-316.01 1520.07,-323.59 1523.18,-317.32"/>
</g>
<!-- Node7 -->
<g id="node7" class="node">
<title>Node7</title>
<g id="a_node7"><a xlink:title=" ">
<polygon fill="white" stroke="#bfbfbf" points="1587,-297 1587,-316 1632,-316 1632,-297 1587,-297"/>
<text text-anchor="middle" x="1609.5" y="-304" font-family="Helvetica,sans-Serif" font-size="10.00">utility</text>
</a>
</g>
</g>
<!-- Node3&#45;&gt;Node7 -->
<g id="edge6" class="edge">
<title>Node3&#45;&gt;Node7</title>
<path fill="none" stroke="midnightblue" d="M1614.64,-358.48C1613.79,-350.08 1612.47,-336.98 1611.38,-326.16"/>
<polygon fill="midnightblue" stroke="midnightblue" points="1614.84,-325.61 1610.36,-316.01 1607.88,-326.31 1614.84,-325.61"/>
</g>
<!-- Node8 -->
<g id="node8" class="node">
<title>Node8</title>
<g id="a_node8"><a xlink:title=" ">
<polygon fill="white" stroke="#bfbfbf" points="1805,-235.5 1805,-254.5 1852,-254.5 1852,-235.5 1805,-235.5"/>
<text text-anchor="middle" x="1828.5" y="-242.5" font-family="Helvetica,sans-Serif" font-size="10.00">vector</text>
</a>
</g>
</g>
<!-- Node3&#45;&gt;Node8 -->
<g id="edge7" class="edge">
<title>Node3&#45;&gt;Node8</title>
<path fill="none" stroke="midnightblue" d="M1681.51,-361.28C1735.27,-355.14 1805.16,-343.26 1823.5,-322 1836.96,-306.39 1835.88,-281.62 1832.98,-264.63"/>
<polygon fill="midnightblue" stroke="midnightblue" points="1836.39,-263.84 1830.95,-254.76 1829.54,-265.26 1836.39,-263.84"/>
</g>
<!-- Node9 -->
<g id="node9" class="node">
<title>Node9</title>
<g id="a_node9"><a xlink:href="m2n_2SharedPointer_8hpp.html" target="_top" xlink:title=" ">
<polygon fill="white" stroke="black" points="1654.5,-235.5 1654.5,-254.5 1784.5,-254.5 1784.5,-235.5 1654.5,-235.5"/>
<text text-anchor="middle" x="1719.5" y="-242.5" font-family="Helvetica,sans-Serif" font-size="10.00">m2n/SharedPointer.hpp</text>
</a>
</g>
</g>
<!-- Node3&#45;&gt;Node9 -->
<g id="edge8" class="edge">
<title>Node3&#45;&gt;Node9</title>
<path fill="none" stroke="midnightblue" d="M1645.62,-358.38C1664.39,-351.49 1687.54,-339.96 1701.5,-322 1714.21,-305.65 1718.16,-281.75 1719.28,-265.13"/>
<polygon fill="midnightblue" stroke="midnightblue" points="1722.78,-265.11 1719.68,-254.98 1715.79,-264.83 1722.78,-265.11"/>
</g>
<!-- Node11 -->
<g id="node11" class="node">
<title>Node11</title>
<g id="a_node11"><a xlink:href="types_8hpp.html" target="_top" xlink:title=" ">
<polygon fill="white" stroke="black" points="1531,-235.5 1531,-254.5 1634,-254.5 1634,-235.5 1531,-235.5"/>
<text text-anchor="middle" x="1582.5" y="-242.5" font-family="Helvetica,sans-Serif" font-size="10.00">precice/types.hpp</text>
</a>
</g>
</g>
<!-- Node3&#45;&gt;Node11 -->
<g id="edge10" class="edge">
<title>Node3&#45;&gt;Node11</title>
<path fill="none" stroke="midnightblue" d="M1604.79,-358.3C1595.56,-350.07 1582.91,-336.79 1577.5,-322 1570.7,-303.41 1573.56,-280.58 1577.11,-264.82"/>
<polygon fill="midnightblue" stroke="midnightblue" points="1580.6,-265.31 1579.69,-254.76 1573.82,-263.58 1580.6,-265.31"/>
</g>
<!-- Node12 -->
<g id="node12" class="node">
<title>Node12</title>
<g id="a_node12"><a xlink:href="Parallel_8hpp.html" target="_top" xlink:title=" ">
<polygon fill="white" stroke="black" points="1098.5,-297 1098.5,-316 1196.5,-316 1196.5,-297 1098.5,-297"/>
<text text-anchor="middle" x="1147.5" y="-304" font-family="Helvetica,sans-Serif" font-size="10.00">utils/Parallel.hpp</text>
</a>
</g>
</g>
<!-- Node3&#45;&gt;Node12 -->
<g id="edge11" class="edge">
<title>Node3&#45;&gt;Node12</title>
<path fill="none" stroke="midnightblue" d="M1549.23,-359.58C1474.78,-351.11 1350.34,-336.53 1243.5,-322 1231.63,-320.39 1218.94,-318.55 1206.82,-316.74"/>
<polygon fill="midnightblue" stroke="midnightblue" points="1207.2,-313.26 1196.79,-315.23 1206.16,-320.18 1207.2,-313.26"/>
</g>
<!-- Node10 -->
<g id="node10" class="node">
<title>Node10</title>
<g id="a_node10"><a xlink:title=" ">
<polygon fill="white" stroke="#bfbfbf" points="1187.5,-179.5 1187.5,-198.5 1245.5,-198.5 1245.5,-179.5 1187.5,-179.5"/>
<text text-anchor="middle" x="1216.5" y="-186.5" font-family="Helvetica,sans-Serif" font-size="10.00">memory</text>
</a>
</g>
</g>
<!-- Node9&#45;&gt;Node10 -->
<g id="edge9" class="edge">
<title>Node9&#45;&gt;Node10</title>
<path fill="none" stroke="midnightblue" d="M1654.39,-236.34C1650.37,-235.88 1646.38,-235.43 1642.5,-235 1500.08,-219.15 1330.71,-201.67 1255.65,-193.99"/>
<polygon fill="midnightblue" stroke="midnightblue" points="1256,-190.51 1245.69,-192.97 1255.29,-197.47 1256,-190.51"/>
</g>
<!-- Node12&#45;&gt;Node5 -->
<g id="edge15" class="edge">
<title>Node12&#45;&gt;Node5</title>
<path fill="none" stroke="midnightblue" d="M1179.51,-296.94C1188.22,-294.8 1197.69,-292.65 1206.5,-291 1267.51,-279.57 1436.34,-295.36 1483.5,-255 1506.37,-235.43 1502.5,-220.1 1502.5,-190 1502.5,-190 1502.5,-190 1502.5,-132 1502.5,-84.09 1455.34,-44.91 1425.79,-25.08"/>
<polygon fill="midnightblue" stroke="midnightblue" points="1427.55,-22.05 1417.26,-19.55 1423.75,-27.92 1427.55,-22.05"/>
</g>
<!-- Node12&#45;&gt;Node8 -->
<g id="edge16" class="edge">
<title>Node12&#45;&gt;Node8</title>
<path fill="none" stroke="midnightblue" d="M1196.73,-297.25C1211.71,-294.96 1228.25,-292.65 1243.5,-291 1487.05,-264.68 1551.6,-293.67 1793.5,-255 1793.96,-254.93 1794.43,-254.85 1794.9,-254.77"/>
<polygon fill="midnightblue" stroke="midnightblue" points="1795.82,-258.15 1804.9,-252.7 1794.4,-251.3 1795.82,-258.15"/>
</g>
<!-- Node12&#45;&gt;Node10 -->
<g id="edge13" class="edge">
<title>Node12&#45;&gt;Node10</title>
<path fill="none" stroke="midnightblue" d="M1181.93,-296.97C1203.42,-289.67 1229.42,-276.77 1242.5,-255 1251.74,-239.62 1241.67,-220.36 1231.5,-206.81"/>
<polygon fill="midnightblue" stroke="midnightblue" points="1234.02,-204.37 1224.99,-198.83 1228.6,-208.79 1234.02,-204.37"/>
</g>
<!-- Node12&#45;&gt;Node11 -->
<g id="edge28" class="edge">
<title>Node12&#45;&gt;Node11</title>
<path fill="none" stroke="midnightblue" d="M1181.37,-296.99C1190.76,-294.83 1200.99,-292.65 1210.5,-291 1345.43,-267.61 1380.65,-272.25 1516.5,-255 1517.97,-254.81 1519.46,-254.62 1520.96,-254.43"/>
<polygon fill="midnightblue" stroke="midnightblue" points="1521.53,-257.88 1530.99,-253.12 1520.62,-250.94 1521.53,-257.88"/>
</g>
<!-- Node13 -->
<g id="node13" class="node">
<title>Node13</title>
<g id="a_node13"><a xlink:title=" ">
<polygon fill="white" stroke="#bfbfbf" points="1290.5,-235.5 1290.5,-254.5 1338.5,-254.5 1338.5,-235.5 1290.5,-235.5"/>
<text text-anchor="middle" x="1314.5" y="-242.5" font-family="Helvetica,sans-Serif" font-size="10.00">iosfwd</text>
</a>
</g>
</g>
<!-- Node12&#45;&gt;Node13 -->
<g id="edge12" class="edge">
<title>Node12&#45;&gt;Node13</title>
<path fill="none" stroke="midnightblue" d="M1171.43,-296.98C1200.2,-286.72 1248.66,-269.46 1281.1,-257.9"/>
<polygon fill="midnightblue" stroke="midnightblue" points="1282.37,-261.16 1290.62,-254.51 1280.02,-254.57 1282.37,-261.16"/>
</g>
<!-- Node14 -->
<g id="node14" class="node">
<title>Node14</title>
<g id="a_node14"><a xlink:title=" ">
<polygon fill="white" stroke="#bfbfbf" points="1356.5,-235.5 1356.5,-254.5 1412.5,-254.5 1412.5,-235.5 1356.5,-235.5"/>
<text text-anchor="middle" x="1384.5" y="-242.5" font-family="Helvetica,sans-Serif" font-size="10.00">optional</text>
</a>
</g>
</g>
<!-- Node12&#45;&gt;Node14 -->
<g id="edge14" class="edge">
<title>Node12&#45;&gt;Node14</title>
<path fill="none" stroke="midnightblue" d="M1181.46,-296.98C1225.13,-286.01 1300.76,-267.02 1346.37,-255.57"/>
<polygon fill="midnightblue" stroke="midnightblue" points="1347.32,-258.94 1356.17,-253.11 1345.62,-252.15 1347.32,-258.94"/>
</g>
<!-- Node15 -->
<g id="node15" class="node">
<title>Node15</title>
<g id="a_node15"><a xlink:href="Logger_8hpp.html" target="_top" xlink:title=" ">
<polygon fill="white" stroke="black" points="978,-235.5 978,-254.5 1087,-254.5 1087,-235.5 978,-235.5"/>
<text text-anchor="middle" x="1032.5" y="-242.5" font-family="Helvetica,sans-Serif" font-size="10.00">logging/Logger.hpp</text>
</a>
</g>
</g>
<!-- Node12&#45;&gt;Node15 -->
<g id="edge17" class="edge">
<title>Node12&#45;&gt;Node15</title>
<path fill="none" stroke="midnightblue" d="M1131.02,-296.98C1111.89,-287.08 1080.13,-270.64 1057.85,-259.12"/>
<polygon fill="midnightblue" stroke="midnightblue" points="1059.44,-256 1048.95,-254.51 1056.22,-262.21 1059.44,-256"/>
</g>
<!-- Node38 -->
<g id="node22" class="node">
<title>Node38</title>
<g id="a_node22"><a xlink:title=" ">
<polygon fill="white" stroke="#bfbfbf" points="1430.5,-235.5 1430.5,-254.5 1474.5,-254.5 1474.5,-235.5 1430.5,-235.5"/>
<text text-anchor="middle" x="1452.5" y="-242.5" font-family="Helvetica,sans-Serif" font-size="10.00">mpi.h</text>
</a>
</g>
</g>
<!-- Node12&#45;&gt;Node38 -->
<g id="edge29" class="edge">
<title>Node12&#45;&gt;Node38</title>
<path fill="none" stroke="midnightblue" d="M1183.07,-296.94C1192.01,-294.89 1201.59,-292.78 1210.5,-291 1300.68,-272.94 1327.05,-276.06 1420.37,-255.05"/>
<polygon fill="midnightblue" stroke="midnightblue" points="1421.26,-258.43 1430.23,-252.79 1419.7,-251.61 1421.26,-258.43"/>
</g>
<!-- Node15&#45;&gt;Node10 -->
<g id="edge18" class="edge">
<title>Node15&#45;&gt;Node10</title>
<path fill="none" stroke="midnightblue" d="M1061.66,-235.44C1093.01,-226.24 1143.03,-211.56 1177.7,-201.39"/>
<polygon fill="midnightblue" stroke="midnightblue" points="1178.87,-204.69 1187.48,-198.52 1176.9,-197.97 1178.87,-204.69"/>
</g>
<!-- Node16 -->
<g id="node16" class="node">
<title>Node16</title>
<g id="a_node16"><a xlink:title=" ">
<polygon fill="white" stroke="#bfbfbf" points="851,-0.5 851,-19.5 924,-19.5 924,-0.5 851,-0.5"/>
<text text-anchor="middle" x="887.5" y="-7.5" font-family="Helvetica,sans-Serif" font-size="10.00">string_view</text>
</a>
</g>
</g>
<!-- Node15&#45;&gt;Node16 -->
<g id="edge19" class="edge">
<title>Node15&#45;&gt;Node16</title>
<path fill="none" stroke="midnightblue" d="M1037.98,-235.21C1050.19,-214.42 1076.97,-161.11 1056.5,-123 1028.5,-70.86 964.38,-38.9 923.66,-23.1"/>
<polygon fill="midnightblue" stroke="midnightblue" points="924.7,-19.75 914.1,-19.52 922.24,-26.3 924.7,-19.75"/>
</g>
<!-- Node17 -->
<g id="node17" class="node">
<title>Node17</title>
<g id="a_node17"><a xlink:href="LogMacros_8hpp.html" target="_top" xlink:title=" ">
<polygon fill="white" stroke="red" points="858.5,-179.5 858.5,-198.5 948.5,-198.5 948.5,-179.5 858.5,-179.5"/>
<text text-anchor="middle" x="903.5" y="-186.5" font-family="Helvetica,sans-Serif" font-size="10.00">LogMacros.hpp</text>
</a>
</g>
</g>
<!-- Node15&#45;&gt;Node17 -->
<g id="edge20" class="edge">
<title>Node15&#45;&gt;Node17</title>
<path fill="none" stroke="midnightblue" d="M1012.06,-235.44C990.83,-226.56 957.4,-212.56 933.25,-202.45"/>
<polygon fill="midnightblue" stroke="midnightblue" points="934.42,-199.15 923.84,-198.52 931.72,-205.61 934.42,-199.15"/>
</g>
<!-- Node18 -->
<g id="node18" class="node">
<title>Node18</title>
<g id="a_node18"><a xlink:href="fmt_8hpp.html" target="_top" xlink:title=" ">
<polygon fill="white" stroke="red" points="848,-62 848,-81 927,-81 927,-62 848,-62"/>
<text text-anchor="middle" x="887.5" y="-69" font-family="Helvetica,sans-Serif" font-size="10.00">utils/fmt.hpp</text>
</a>
</g>
</g>
<!-- Node17&#45;&gt;Node18 -->
<g id="edge21" class="edge">
<title>Node17&#45;&gt;Node18</title>
<path fill="none" stroke="midnightblue" d="M902.3,-179.32C899.73,-160.76 893.64,-116.84 890.13,-91.47"/>
<polygon fill="midnightblue" stroke="midnightblue" points="893.56,-90.71 888.72,-81.28 886.62,-91.67 893.56,-90.71"/>
</g>
<!-- Node31 -->
<g id="node19" class="node">
<title>Node31</title>
<g id="a_node19"><a xlink:href="ArgumentFormatter_8hpp.html" target="_top" xlink:title=" ">
<polygon fill="white" stroke="red" points="645,-123.5 645,-142.5 802,-142.5 802,-123.5 645,-123.5"/>
<text text-anchor="middle" x="723.5" y="-130.5" font-family="Helvetica,sans-Serif" font-size="10.00">utils/ArgumentFormatter.hpp</text>
</a>
</g>
</g>
<!-- Node17&#45;&gt;Node31 -->
<g id="edge24" class="edge">
<title>Node17&#45;&gt;Node31</title>
<path fill="none" stroke="midnightblue" d="M874.98,-179.44C844.43,-170.28 795.79,-155.69 761.9,-145.52"/>
<polygon fill="midnightblue" stroke="midnightblue" points="762.47,-142.04 751.89,-142.52 760.46,-148.74 762.47,-142.04"/>
</g>
<!-- Node18&#45;&gt;Node5 -->
<g id="edge22" class="edge">
<title>Node18&#45;&gt;Node5</title>
<path fill="none" stroke="midnightblue" d="M927.06,-65.93C1025.51,-54.56 1280.11,-25.14 1370.27,-14.72"/>
<polygon fill="midnightblue" stroke="midnightblue" points="1370.89,-18.17 1380.43,-13.55 1370.09,-11.22 1370.89,-18.17"/>
</g>
<!-- Node18&#45;&gt;Node16 -->
<g id="edge23" class="edge">
<title>Node18&#45;&gt;Node16</title>
<path fill="none" stroke="midnightblue" d="M887.5,-61.98C887.5,-53.58 887.5,-40.48 887.5,-29.66"/>
<polygon fill="midnightblue" stroke="midnightblue" points="891,-29.51 887.5,-19.51 884,-29.51 891,-29.51"/>
</g>
<!-- Node31&#45;&gt;Node18 -->
<g id="edge27" class="edge">
<title>Node31&#45;&gt;Node18</title>
<path fill="none" stroke="midnightblue" d="M747,-123.48C775.13,-113.27 822.43,-96.11 854.29,-84.55"/>
<polygon fill="midnightblue" stroke="midnightblue" points="855.84,-87.71 864.05,-81.01 853.45,-81.13 855.84,-87.71"/>
</g>
<!-- Node32 -->
<g id="node20" class="node">
<title>Node32</title>
<g id="a_node20"><a xlink:title=" ">
<polygon fill="white" stroke="#bfbfbf" points="569.5,-56.5 569.5,-86.5 679.5,-86.5 679.5,-56.5 569.5,-56.5"/>
<text text-anchor="start" x="577.5" y="-74.5" font-family="Helvetica,sans-Serif" font-size="10.00">boost/preprocessor</text>
<text text-anchor="middle" x="624.5" y="-63.5" font-family="Helvetica,sans-Serif" font-size="10.00">/control/if.hpp</text>
</a>
</g>
</g>
<!-- Node31&#45;&gt;Node32 -->
<g id="edge25" class="edge">
<title>Node31&#45;&gt;Node32</title>
<path fill="none" stroke="midnightblue" d="M709.32,-123.48C695.66,-115.27 674.51,-102.56 656.75,-91.88"/>
<polygon fill="midnightblue" stroke="midnightblue" points="658.21,-88.67 647.83,-86.52 654.6,-94.67 658.21,-88.67"/>
</g>
<!-- Node34 -->
<g id="node21" class="node">
<title>Node34</title>
<g id="a_node21"><a xlink:title=" ">
<polygon fill="white" stroke="#bfbfbf" points="712.5,-56.5 712.5,-86.5 822.5,-86.5 822.5,-56.5 712.5,-56.5"/>
<text text-anchor="start" x="720.5" y="-74.5" font-family="Helvetica,sans-Serif" font-size="10.00">boost/preprocessor</text>
<text text-anchor="middle" x="767.5" y="-63.5" font-family="Helvetica,sans-Serif" font-size="10.00">/stringize.hpp</text>
</a>
</g>
</g>
<!-- Node31&#45;&gt;Node34 -->
<g id="edge26" class="edge">
<title>Node31&#45;&gt;Node34</title>
<path fill="none" stroke="midnightblue" d="M729.8,-123.48C735.37,-115.94 743.74,-104.63 751.18,-94.57"/>
<polygon fill="midnightblue" stroke="midnightblue" points="754,-96.64 757.13,-86.52 748.37,-92.48 754,-96.64"/>
</g>
<!-- Node39&#45;&gt;Node3 -->
<g id="edge58" class="edge">
<title>Node39&#45;&gt;Node3</title>
<path fill="none" stroke="midnightblue" d="M1117.4,-546.83C1226.75,-547.51 1467.11,-543.91 1535.5,-501 1557.31,-487.31 1591.47,-419.77 1607.13,-386.96"/>
<polygon fill="midnightblue" stroke="midnightblue" points="1610.43,-388.17 1611.53,-377.64 1604.1,-385.19 1610.43,-388.17"/>
</g>
<!-- Node39&#45;&gt;Node5 -->
<g id="edge33" class="edge">
<title>Node39&#45;&gt;Node5</title>
<path fill="none" stroke="midnightblue" d="M1007.99,-544.61C810.14,-538.87 141.5,-512.94 141.5,-425 141.5,-425 141.5,-425 141.5,-132 141.5,57.26 372.52,-77.98 560.5,-56 874.29,-19.3 1257.41,-12.5 1369.97,-11.27"/>
<polygon fill="midnightblue" stroke="midnightblue" points="1370.33,-14.76 1380.3,-11.16 1370.26,-7.76 1370.33,-14.76"/>
</g>
<!-- Node39&#45;&gt;Node6 -->
<g id="edge34" class="edge">
<title>Node39&#45;&gt;Node6</title>
<path fill="none" stroke="midnightblue" d="M1117.09,-543.76C1213.84,-536.49 1413.5,-505.9 1501.5,-378 1512.02,-362.71 1508.03,-340.9 1502.99,-325.6"/>
<polygon fill="midnightblue" stroke="midnightblue" points="1506.27,-324.36 1499.51,-316.21 1499.71,-326.8 1506.27,-324.36"/>
</g>
<!-- Node22 -->
<g id="node24" class="node">
<title>Node22</title>
<g id="a_node24"><a xlink:title=" ">
<polygon fill="white" stroke="#bfbfbf" points="890,-358.5 890,-377.5 959,-377.5 959,-358.5 890,-358.5"/>
<text text-anchor="middle" x="924.5" y="-365.5" font-family="Helvetica,sans-Serif" font-size="10.00">Eigen/Core</text>
</a>
</g>
</g>
<!-- Node39&#45;&gt;Node22 -->
<g id="edge31" class="edge">
<title>Node39&#45;&gt;Node22</title>
<path fill="none" stroke="midnightblue" d="M1040.97,-537.44C1024.47,-529.95 1002.14,-517.65 987.5,-501 959.64,-469.31 968.21,-451.82 949.5,-414 944.94,-404.79 939.43,-394.77 934.75,-386.53"/>
<polygon fill="midnightblue" stroke="midnightblue" points="937.76,-384.75 929.73,-377.83 931.7,-388.24 937.76,-384.75"/>
</g>
<!-- Node40 -->
<g id="node25" class="node">
<title>Node40</title>
<g id="a_node25"><a xlink:title=" ">
<polygon fill="white" stroke="#bfbfbf" points="996.5,-476 996.5,-495 1128.5,-495 1128.5,-476 996.5,-476"/>
<text text-anchor="middle" x="1062.5" y="-483" font-family="Helvetica,sans-Serif" font-size="10.00">boost/test/unit_test.hpp</text>
</a>
</g>
</g>
<!-- Node39&#45;&gt;Node40 -->
<g id="edge32" class="edge">
<title>Node39&#45;&gt;Node40</title>
<path fill="none" stroke="midnightblue" d="M1062.5,-537.48C1062.5,-529.08 1062.5,-515.98 1062.5,-505.16"/>
<polygon fill="midnightblue" stroke="midnightblue" points="1066,-505.01 1062.5,-495.01 1059,-505.01 1066,-505.01"/>
</g>
<!-- Node41 -->
<g id="node26" class="node">
<title>Node41</title>
<g id="a_node26"><a xlink:href="differences_8hpp.html" target="_top" xlink:title=" ">
<polygon fill="white" stroke="black" points="820.5,-414.5 820.5,-433.5 940.5,-433.5 940.5,-414.5 820.5,-414.5"/>
<text text-anchor="middle" x="880.5" y="-421.5" font-family="Helvetica,sans-Serif" font-size="10.00">math/differences.hpp</text>
</a>
</g>
</g>
<!-- Node39&#45;&gt;Node41 -->
<g id="edge35" class="edge">
<title>Node39&#45;&gt;Node41</title>
<path fill="none" stroke="midnightblue" d="M1033.4,-537.45C1010.71,-529.96 979.03,-517.67 954.5,-501 929.85,-484.26 906.8,-458.32 893.17,-441.5"/>
<polygon fill="midnightblue" stroke="midnightblue" points="895.9,-439.3 886.95,-433.63 890.41,-443.64 895.9,-439.3"/>
</g>
<!-- Node50 -->
<g id="node35" class="node">
<title>Node50</title>
<g id="a_node35"><a xlink:href="math_8hpp.html" target="_top" xlink:title=" ">
<polygon fill="white" stroke="black" points="742.5,-476 742.5,-495 834.5,-495 834.5,-476 742.5,-476"/>
<text text-anchor="middle" x="788.5" y="-483" font-family="Helvetica,sans-Serif" font-size="10.00">math/math.hpp</text>
</a>
</g>
</g>
<!-- Node39&#45;&gt;Node50 -->
<g id="edge52" class="edge">
<title>Node39&#45;&gt;Node50</title>
<path fill="none" stroke="midnightblue" d="M1023.24,-537.48C974.31,-526.85 890.66,-508.68 837.55,-497.15"/>
<polygon fill="midnightblue" stroke="midnightblue" points="838.2,-493.71 827.68,-495.01 836.71,-500.55 838.2,-493.71"/>
</g>
<!-- Node52 -->
<g id="node37" class="node">
<title>Node52</title>
<g id="a_node37"><a xlink:href="IntraComm_8hpp.html" target="_top" xlink:title=" ">
<polygon fill="white" stroke="black" points="1098.5,-414.5 1098.5,-433.5 1214.5,-433.5 1214.5,-414.5 1098.5,-414.5"/>
<text text-anchor="middle" x="1156.5" y="-421.5" font-family="Helvetica,sans-Serif" font-size="10.00">utils/IntraComm.hpp</text>
</a>
</g>
</g>
<!-- Node39&#45;&gt;Node52 -->
<g id="edge59" class="edge">
<title>Node39&#45;&gt;Node52</title>
<path fill="none" stroke="midnightblue" d="M1086.24,-537.48C1102.99,-530.28 1124.66,-518.32 1137.5,-501 1149.87,-484.31 1154.24,-460.48 1155.76,-443.97"/>
<polygon fill="midnightblue" stroke="midnightblue" points="1159.26,-444.1 1156.41,-433.89 1152.27,-443.64 1159.26,-444.1"/>
</g>
<!-- Node41&#45;&gt;Node22 -->
<g id="edge36" class="edge">
<title>Node41&#45;&gt;Node22</title>
<path fill="none" stroke="midnightblue" d="M887.77,-414.08C894.04,-406.38 903.29,-395.03 910.93,-385.65"/>
<polygon fill="midnightblue" stroke="midnightblue" points="913.77,-387.71 917.37,-377.75 908.34,-383.29 913.77,-387.71"/>
</g>
<!-- Node42 -->
<g id="node27" class="node">
<title>Node42</title>
<g id="a_node27"><a xlink:href="assertion_8hpp.html" target="_top" xlink:title=" ">
<polygon fill="white" stroke="black" points="712,-358.5 712,-377.5 819,-377.5 819,-358.5 712,-358.5"/>
<text text-anchor="middle" x="765.5" y="-365.5" font-family="Helvetica,sans-Serif" font-size="10.00">utils/assertion.hpp</text>
</a>
</g>
</g>
<!-- Node41&#45;&gt;Node42 -->
<g id="edge37" class="edge">
<title>Node41&#45;&gt;Node42</title>
<path fill="none" stroke="midnightblue" d="M862.28,-414.44C843.6,-405.68 814.34,-391.94 792.88,-381.86"/>
<polygon fill="midnightblue" stroke="midnightblue" points="794.18,-378.6 783.64,-377.52 791.2,-384.93 794.18,-378.6"/>
</g>
<!-- Node42&#45;&gt;Node12 -->
<g id="edge48" class="edge">
<title>Node42&#45;&gt;Node12</title>
<path fill="none" stroke="midnightblue" d="M819.02,-358.66C889.91,-347.62 1014.56,-328.21 1088.23,-316.73"/>
<polygon fill="midnightblue" stroke="midnightblue" points="1088.94,-320.16 1098.28,-315.17 1087.86,-313.25 1088.94,-320.16"/>
</g>
<!-- Node42&#45;&gt;Node16 -->
<g id="edge40" class="edge">
<title>Node42&#45;&gt;Node16</title>
<path fill="none" stroke="midnightblue" d="M711.72,-367.58C585.4,-368.2 273.36,-365.16 179.5,-322 136.1,-302.04 103.5,-293.77 103.5,-246 103.5,-246 103.5,-246 103.5,-132 103.5,-96.58 99.56,-77.77 127.5,-56 183.61,-12.27 682.91,-10.27 840.24,-10.73"/>
<polygon fill="midnightblue" stroke="midnightblue" points="840.52,-14.24 850.53,-10.77 840.55,-7.24 840.52,-14.24"/>
</g>
<!-- Node42&#45;&gt;Node18 -->
<g id="edge41" class="edge">
<title>Node42&#45;&gt;Node18</title>
<path fill="none" stroke="midnightblue" d="M711.88,-366.46C583.79,-364.6 268.22,-356.53 236.5,-322 227.18,-311.85 228.06,-301.89 236.5,-291 397.87,-82.75 578.9,-268.58 810.5,-143 836.01,-129.17 859.73,-105.07 873.92,-88.95"/>
<polygon fill="midnightblue" stroke="midnightblue" points="876.58,-91.21 880.43,-81.34 871.27,-86.66 876.58,-91.21"/>
</g>
<!-- Node42&#45;&gt;Node31 -->
<g id="edge47" class="edge">
<title>Node42&#45;&gt;Node31</title>
<path fill="none" stroke="midnightblue" d="M711.52,-366.74C577.44,-365.54 237.53,-358.86 203.5,-322 74.79,-182.57 454.85,-146.38 634.75,-137.12"/>
<polygon fill="midnightblue" stroke="midnightblue" points="635.18,-140.6 644.99,-136.61 634.83,-133.61 635.18,-140.6"/>
</g>
<!-- Node42&#45;&gt;Node32 -->
<g id="edge44" class="edge">
<title>Node42&#45;&gt;Node32</title>
<path fill="none" stroke="midnightblue" d="M819.09,-363.57C847.92,-358.67 881.23,-347.4 899.5,-322 907.54,-310.81 906.46,-302.89 899.5,-291 831.51,-174.94 712.26,-253.46 635.5,-143 626.21,-129.62 623.56,-111.39 623.18,-96.82"/>
<polygon fill="midnightblue" stroke="midnightblue" points="626.68,-96.56 623.26,-86.53 619.68,-96.5 626.68,-96.56"/>
</g>
<!-- Node42&#45;&gt;Node34 -->
<g id="edge45" class="edge">
<title>Node42&#45;&gt;Node34</title>
<path fill="none" stroke="midnightblue" d="M819.35,-359.65C862.72,-352.5 918.67,-340.06 932.5,-322 940.88,-311.06 937.44,-303.86 932.5,-291 912.74,-239.6 880.78,-244.32 849.5,-199 827.94,-167.75 831.61,-154.55 810.5,-123 803.9,-113.14 795.64,-103.03 788.14,-94.48"/>
<polygon fill="midnightblue" stroke="midnightblue" points="790.53,-91.91 781.25,-86.81 785.33,-96.58 790.53,-91.91"/>
</g>
<!-- Node43 -->
<g id="node28" class="node">
<title>Node43</title>
<g id="a_node28"><a xlink:title=" ">
<polygon fill="white" stroke="#bfbfbf" points="246,-297 246,-316 295,-316 295,-297 246,-297"/>
<text text-anchor="middle" x="270.5" y="-304" font-family="Helvetica,sans-Serif" font-size="10.00">cstdlib</text>
</a>
</g>
</g>
<!-- Node42&#45;&gt;Node43 -->
<g id="edge38" class="edge">
<title>Node42&#45;&gt;Node43</title>
<path fill="none" stroke="midnightblue" d="M711.7,-367.03C624.72,-365.91 448.44,-358.79 304.5,-322 302.14,-321.4 299.73,-320.65 297.34,-319.82"/>
<polygon fill="midnightblue" stroke="midnightblue" points="298.38,-316.47 287.79,-316.08 295.82,-322.99 298.38,-316.47"/>
</g>
<!-- Node44 -->
<g id="node29" class="node">
<title>Node44</title>
<g id="a_node29"><a xlink:title=" ">
<polygon fill="white" stroke="#bfbfbf" points="313.5,-297 313.5,-316 373.5,-316 373.5,-297 313.5,-297"/>
<text text-anchor="middle" x="343.5" y="-304" font-family="Helvetica,sans-Serif" font-size="10.00">iostream</text>
</a>
</g>
</g>
<!-- Node42&#45;&gt;Node44 -->
<g id="edge39" class="edge">
<title>Node42&#45;&gt;Node44</title>
<path fill="none" stroke="midnightblue" d="M711.82,-364.74C637.09,-360.68 497.87,-349.8 382.5,-322 379.51,-321.28 376.43,-320.4 373.38,-319.42"/>
<polygon fill="midnightblue" stroke="midnightblue" points="374.45,-316.09 363.86,-316.11 372.15,-322.7 374.45,-316.09"/>
</g>
<!-- Node45 -->
<g id="node30" class="node">
<title>Node45</title>
<g id="a_node30"><a xlink:title=" ">
<polygon fill="white" stroke="#bfbfbf" points="392,-297 392,-316 539,-316 539,-297 392,-297"/>
<text text-anchor="middle" x="465.5" y="-304" font-family="Helvetica,sans-Serif" font-size="10.00">boost/current_function.hpp</text>
</a>
</g>
</g>
<!-- Node42&#45;&gt;Node45 -->
<g id="edge42" class="edge">
<title>Node42&#45;&gt;Node45</title>
<path fill="none" stroke="midnightblue" d="M722.52,-358.48C668.72,-347.8 576.59,-329.53 518.49,-318.01"/>
<polygon fill="midnightblue" stroke="midnightblue" points="518.89,-314.52 508.4,-316.01 517.53,-321.39 518.89,-314.52"/>
</g>
<!-- Node46 -->
<g id="node31" class="node">
<title>Node46</title>
<g id="a_node31"><a xlink:title=" ">
<polygon fill="white" stroke="#bfbfbf" points="557,-291.5 557,-321.5 692,-321.5 692,-291.5 557,-291.5"/>
<text text-anchor="start" x="565" y="-309.5" font-family="Helvetica,sans-Serif" font-size="10.00">boost/preprocessor</text>
<text text-anchor="middle" x="624.5" y="-298.5" font-family="Helvetica,sans-Serif" font-size="10.00">/comparison/greater.hpp</text>
</a>
</g>
</g>
<!-- Node42&#45;&gt;Node46 -->
<g id="edge43" class="edge">
<title>Node42&#45;&gt;Node46</title>
<path fill="none" stroke="midnightblue" d="M745.3,-358.48C724.95,-349.89 692.94,-336.38 666.99,-325.43"/>
<polygon fill="midnightblue" stroke="midnightblue" points="668.3,-322.19 657.73,-321.52 665.58,-328.64 668.3,-322.19"/>
</g>
<!-- Node47 -->
<g id="node32" class="node">
<title>Node47</title>
<g id="a_node32"><a xlink:title=" ">
<polygon fill="white" stroke="#bfbfbf" points="710.5,-291.5 710.5,-321.5 820.5,-321.5 820.5,-291.5 710.5,-291.5"/>
<text text-anchor="start" x="718.5" y="-309.5" font-family="Helvetica,sans-Serif" font-size="10.00">boost/preprocessor</text>
<text text-anchor="middle" x="765.5" y="-298.5" font-family="Helvetica,sans-Serif" font-size="10.00">/variadic/size.hpp</text>
</a>
</g>
</g>
<!-- Node42&#45;&gt;Node47 -->
<g id="edge46" class="edge">
<title>Node42&#45;&gt;Node47</title>
<path fill="none" stroke="midnightblue" d="M765.5,-358.48C765.5,-351.47 765.5,-341.19 765.5,-331.7"/>
<polygon fill="midnightblue" stroke="midnightblue" points="769,-331.52 765.5,-321.52 762,-331.52 769,-331.52"/>
</g>
<!-- Node48 -->
<g id="node33" class="node">
<title>Node48</title>
<g id="a_node33"><a xlink:href="stacktrace_8hpp.html" target="_top" xlink:title=" ">
<polygon fill="white" stroke="black" points="935,-123.5 935,-142.5 1048,-142.5 1048,-123.5 935,-123.5"/>
<text text-anchor="middle" x="991.5" y="-130.5" font-family="Helvetica,sans-Serif" font-size="10.00">utils/stacktrace.hpp</text>
</a>
</g>
</g>
<!-- Node42&#45;&gt;Node48 -->
<g id="edge49" class="edge">
<title>Node42&#45;&gt;Node48</title>
<path fill="none" stroke="midnightblue" d="M819.14,-362.71C873.39,-357.13 951.83,-345.21 970.5,-322 973.47,-318.31 968.52,-255.67 968.5,-255 968.25,-246.11 967.51,-243.83 968.5,-235 971.81,-205.6 980.36,-172.27 986.06,-152.21"/>
<polygon fill="midnightblue" stroke="midnightblue" points="989.44,-153.11 988.87,-142.53 982.72,-151.16 989.44,-153.11"/>
</g>
<!-- Node49 -->
<g id="node34" class="node">
<title>Node49</title>
<g id="a_node34"><a xlink:title=" ">
<polygon fill="white" stroke="#bfbfbf" points="838.5,-297 838.5,-316 890.5,-316 890.5,-297 838.5,-297"/>
<text text-anchor="middle" x="864.5" y="-304" font-family="Helvetica,sans-Serif" font-size="10.00">cassert</text>
</a>
</g>
</g>
<!-- Node42&#45;&gt;Node49 -->
<g id="edge51" class="edge">
<title>Node42&#45;&gt;Node49</title>
<path fill="none" stroke="midnightblue" d="M779.68,-358.48C795.86,-348.75 822.53,-332.73 841.64,-321.24"/>
<polygon fill="midnightblue" stroke="midnightblue" points="843.57,-324.16 850.34,-316.01 839.97,-318.16 843.57,-324.16"/>
</g>
<!-- Node48&#45;&gt;Node5 -->
<g id="edge50" class="edge">
<title>Node48&#45;&gt;Node5</title>
<path fill="none" stroke="midnightblue" d="M1020.4,-123.49C1094.89,-101.56 1293.03,-43.23 1370.66,-20.37"/>
<polygon fill="midnightblue" stroke="midnightblue" points="1371.76,-23.7 1380.37,-17.52 1369.79,-16.98 1371.76,-23.7"/>
</g>
<!-- Node50&#45;&gt;Node2 -->
<g id="edge53" class="edge">
<title>Node50&#45;&gt;Node2</title>
<path fill="none" stroke="midnightblue" d="M742.43,-480.76C617.16,-470.57 269.91,-442.35 123.24,-430.43"/>
<polygon fill="midnightblue" stroke="midnightblue" points="123.29,-426.92 113.04,-429.6 122.72,-433.89 123.29,-426.92"/>
</g>
<!-- Node50&#45;&gt;Node41 -->
<g id="edge54" class="edge">
<title>Node50&#45;&gt;Node41</title>
<path fill="none" stroke="midnightblue" d="M801.68,-475.98C816.57,-466.34 841.04,-450.52 858.77,-439.05"/>
<polygon fill="midnightblue" stroke="midnightblue" points="860.85,-441.88 867.34,-433.51 857.05,-436 860.85,-441.88"/>
</g>
<!-- Node51 -->
<g id="node36" class="node">
<title>Node51</title>
<g id="a_node36"><a xlink:href="la_8hpp.html" target="_top" xlink:title=" ">
<polygon fill="white" stroke="black" points="728,-414.5 728,-433.5 803,-433.5 803,-414.5 728,-414.5"/>
<text text-anchor="middle" x="765.5" y="-421.5" font-family="Helvetica,sans-Serif" font-size="10.00">math/la.hpp</text>
</a>
</g>
</g>
<!-- Node50&#45;&gt;Node51 -->
<g id="edge55" class="edge">
<title>Node50&#45;&gt;Node51</title>
<path fill="none" stroke="midnightblue" d="M785.2,-475.98C781.89,-467.4 776.68,-453.93 772.45,-442.98"/>
<polygon fill="midnightblue" stroke="midnightblue" points="775.66,-441.57 768.79,-433.51 769.13,-444.1 775.66,-441.57"/>
</g>
<!-- Node51&#45;&gt;Node22 -->
<g id="edge56" class="edge">
<title>Node51&#45;&gt;Node22</title>
<path fill="none" stroke="midnightblue" d="M790.69,-414.44C817.44,-405.36 859.9,-390.94 889.81,-380.78"/>
<polygon fill="midnightblue" stroke="midnightblue" points="891.08,-384.05 899.42,-377.52 888.83,-377.42 891.08,-384.05"/>
</g>
<!-- Node51&#45;&gt;Node42 -->
<g id="edge57" class="edge">
<title>Node51&#45;&gt;Node42</title>
<path fill="none" stroke="midnightblue" d="M765.5,-414.08C765.5,-407.01 765.5,-396.86 765.5,-387.99"/>
<polygon fill="midnightblue" stroke="midnightblue" points="769,-387.75 765.5,-377.75 762,-387.75 769,-387.75"/>
</g>
<!-- Node52&#45;&gt;Node11 -->
<g id="edge71" class="edge">
<title>Node52&#45;&gt;Node11</title>
<path fill="none" stroke="midnightblue" d="M1159.3,-414.37C1167.66,-390.16 1194.89,-321.45 1243.5,-291 1295.36,-258.52 1455.85,-263.13 1516.5,-255 1517.97,-254.8 1519.46,-254.6 1520.96,-254.4"/>
<polygon fill="midnightblue" stroke="midnightblue" points="1521.54,-257.85 1530.98,-253.05 1520.6,-250.92 1521.54,-257.85"/>
</g>
<!-- Node52&#45;&gt;Node15 -->
<g id="edge64" class="edge">
<title>Node52&#45;&gt;Node15</title>
<path fill="none" stroke="midnightblue" d="M1139.93,-414.39C1126.04,-406.48 1106.45,-393.63 1093.5,-378 1064.34,-342.8 1045.92,-291.36 1037.63,-264.26"/>
<polygon fill="midnightblue" stroke="midnightblue" points="1040.95,-263.16 1034.78,-254.56 1034.24,-265.14 1040.95,-263.16"/>
</g>
<!-- Node52&#45;&gt;Node22 -->
<g id="edge60" class="edge">
<title>Node52&#45;&gt;Node22</title>
<path fill="none" stroke="midnightblue" d="M1119.74,-414.44C1078.84,-404.92 1012.78,-389.55 969,-379.36"/>
<polygon fill="midnightblue" stroke="midnightblue" points="969.73,-375.93 959.19,-377.08 968.14,-382.75 969.73,-375.93"/>
</g>
<!-- Node53 -->
<g id="node38" class="node">
<title>Node53</title>
<g id="a_node38"><a xlink:title=" ">
<polygon fill="white" stroke="#bfbfbf" points="1364,-358.5 1364,-377.5 1493,-377.5 1493,-358.5 1364,-358.5"/>
<text text-anchor="middle" x="1428.5" y="-365.5" font-family="Helvetica,sans-Serif" font-size="10.00">boost/range/irange.hpp</text>
</a>
</g>
</g>
<!-- Node52&#45;&gt;Node53 -->
<g id="edge61" class="edge">
<title>Node52&#45;&gt;Node53</title>
<path fill="none" stroke="midnightblue" d="M1199.6,-414.44C1247.35,-404.96 1324.36,-389.67 1375.69,-379.48"/>
<polygon fill="midnightblue" stroke="midnightblue" points="1376.48,-382.9 1385.6,-377.52 1375.11,-376.03 1376.48,-382.9"/>
</g>
<!-- Node54 -->
<g id="node39" class="node">
<title>Node54</title>
<g id="a_node39"><a xlink:href="com_2SharedPointer_8hpp.html" target="_top" xlink:title=" ">
<polygon fill="white" stroke="black" points="1105,-235.5 1105,-254.5 1234,-254.5 1234,-235.5 1105,-235.5"/>
<text text-anchor="middle" x="1169.5" y="-242.5" font-family="Helvetica,sans-Serif" font-size="10.00">com/SharedPointer.hpp</text>
</a>
</g>
</g>
<!-- Node52&#45;&gt;Node54 -->
<g id="edge62" class="edge">
<title>Node52&#45;&gt;Node54</title>
<path fill="none" stroke="midnightblue" d="M1146.05,-414.48C1121.29,-393.21 1063.03,-336.26 1089.5,-291 1098.36,-275.85 1114.41,-265.41 1129.81,-258.42"/>
<polygon fill="midnightblue" stroke="midnightblue" points="1131.35,-261.57 1139.25,-254.51 1128.67,-255.11 1131.35,-261.57"/>
</g>
<!-- Node55 -->
<g id="node40" class="node">
<title>Node55</title>
<g id="a_node40"><a xlink:href="span_8hpp.html" target="_top" xlink:title=" ">
<polygon fill="white" stroke="black" points="1247,-358.5 1247,-377.5 1346,-377.5 1346,-358.5 1247,-358.5"/>
<text text-anchor="middle" x="1296.5" y="-365.5" font-family="Helvetica,sans-Serif" font-size="10.00">precice/span.hpp</text>
</a>
</g>
</g>
<!-- Node52&#45;&gt;Node55 -->
<g id="edge65" class="edge">
<title>Node52&#45;&gt;Node55</title>
<path fill="none" stroke="midnightblue" d="M1178.68,-414.44C1201.93,-405.48 1238.65,-391.31 1264.92,-381.18"/>
<polygon fill="midnightblue" stroke="midnightblue" points="1266.35,-384.38 1274.42,-377.52 1263.83,-377.85 1266.35,-384.38"/>
</g>
<!-- Node54&#45;&gt;Node10 -->
<g id="edge63" class="edge">
<title>Node54&#45;&gt;Node10</title>
<path fill="none" stroke="midnightblue" d="M1177.26,-235.08C1184.04,-227.3 1194.04,-215.8 1202.26,-206.37"/>
<polygon fill="midnightblue" stroke="midnightblue" points="1204.96,-208.59 1208.88,-198.75 1199.68,-204 1204.96,-208.59"/>
</g>
<!-- Node55&#45;&gt;Node6 -->
<g id="edge70" class="edge">
<title>Node55&#45;&gt;Node6</title>
<path fill="none" stroke="midnightblue" d="M1327.18,-358.44C1358.52,-349.62 1408.54,-335.31 1451.5,-322 1454.4,-321.1 1457.41,-320.15 1460.42,-319.19"/>
<polygon fill="midnightblue" stroke="midnightblue" points="1461.53,-322.51 1469.96,-316.09 1459.36,-315.85 1461.53,-322.51"/>
</g>
<!-- Node27 -->
<g id="node41" class="node">
<title>Node27</title>
<g id="a_node41"><a xlink:title=" ">
<polygon fill="white" stroke="#bfbfbf" points="1650.5,-297 1650.5,-316 1692.5,-316 1692.5,-297 1650.5,-297"/>
<text text-anchor="middle" x="1671.5" y="-304" font-family="Helvetica,sans-Serif" font-size="10.00">array</text>
</a>
</g>
</g>
<!-- Node55&#45;&gt;Node27 -->
<g id="edge66" class="edge">
<title>Node55&#45;&gt;Node27</title>
<path fill="none" stroke="midnightblue" d="M1346.16,-359.2C1348.98,-358.78 1351.78,-358.38 1354.5,-358 1481.37,-340.18 1517.42,-357.57 1640.5,-322 1642.43,-321.44 1644.38,-320.78 1646.33,-320.05"/>
<polygon fill="midnightblue" stroke="midnightblue" points="1647.96,-323.16 1655.78,-316.01 1645.21,-316.72 1647.96,-323.16"/>
</g>
<!-- Node56 -->
<g id="node42" class="node">
<title>Node56</title>
<g id="a_node42"><a xlink:title=" ">
<polygon fill="white" stroke="#bfbfbf" points="1321,-297 1321,-316 1374,-316 1374,-297 1321,-297"/>
<text text-anchor="middle" x="1347.5" y="-304" font-family="Helvetica,sans-Serif" font-size="10.00">cstddef</text>
</a>
</g>
</g>
<!-- Node55&#45;&gt;Node56 -->
<g id="edge67" class="edge">
<title>Node55&#45;&gt;Node56</title>
<path fill="none" stroke="midnightblue" d="M1303.81,-358.48C1311.53,-349.46 1323.91,-335.02 1333.52,-323.81"/>
<polygon fill="midnightblue" stroke="midnightblue" points="1336.36,-325.88 1340.21,-316.01 1331.04,-321.32 1336.36,-325.88"/>
</g>
<!-- Node57 -->
<g id="node43" class="node">
<title>Node57</title>
<g id="a_node43"><a xlink:title=" ">
<polygon fill="white" stroke="#bfbfbf" points="1392.5,-297 1392.5,-316 1442.5,-316 1442.5,-297 1392.5,-297"/>
<text text-anchor="middle" x="1417.5" y="-304" font-family="Helvetica,sans-Serif" font-size="10.00">cstdint</text>
</a>
</g>
</g>
<!-- Node55&#45;&gt;Node57 -->
<g id="edge68" class="edge">
<title>Node55&#45;&gt;Node57</title>
<path fill="none" stroke="midnightblue" d="M1313.84,-358.48C1334.05,-348.53 1367.69,-331.99 1391.14,-320.46"/>
<polygon fill="midnightblue" stroke="midnightblue" points="1392.77,-323.56 1400.2,-316.01 1389.68,-317.28 1392.77,-323.56"/>
</g>
<!-- Node58 -->
<g id="node44" class="node">
<title>Node58</title>
<g id="a_node44"><a xlink:title=" ">
<polygon fill="white" stroke="#bfbfbf" points="1252.5,-297 1252.5,-316 1302.5,-316 1302.5,-297 1252.5,-297"/>
<text text-anchor="middle" x="1277.5" y="-304" font-family="Helvetica,sans-Serif" font-size="10.00">cstring</text>
</a>
</g>
</g>
<!-- Node55&#45;&gt;Node58 -->
<g id="edge69" class="edge">
<title>Node55&#45;&gt;Node58</title>
<path fill="none" stroke="midnightblue" d="M1293.78,-358.48C1291.07,-349.99 1286.83,-336.7 1283.35,-325.82"/>
<polygon fill="midnightblue" stroke="midnightblue" points="1286.59,-324.47 1280.22,-316.01 1279.93,-326.6 1286.59,-324.47"/>
</g>
<!-- Node60 -->
<g id="node46" class="node">
<title>Node60</title>
<g id="a_node46"><a xlink:title=" ">
<polygon fill="white" stroke="#bfbfbf" points="1781,-470.5 1781,-500.5 1892,-500.5 1892,-470.5 1781,-470.5"/>
<text text-anchor="start" x="1789" y="-488.5" font-family="Helvetica,sans-Serif" font-size="10.00">boost/container/flat</text>
<text text-anchor="middle" x="1836.5" y="-477.5" font-family="Helvetica,sans-Serif" font-size="10.00">_set.hpp</text>
</a>
</g>
</g>
<!-- Node59&#45;&gt;Node60 -->
<g id="edge73" class="edge">
<title>Node59&#45;&gt;Node60</title>
<path fill="none" stroke="midnightblue" d="M1764.54,-537.48C1775.91,-529.42 1793.41,-517.02 1808.3,-506.47"/>
<polygon fill="midnightblue" stroke="midnightblue" points="1810.57,-509.16 1816.7,-500.52 1806.52,-503.45 1810.57,-509.16"/>
</g>
<!-- Node61 -->
<g id="node47" class="node">
<title>Node61</title>
<g id="a_node47"><a xlink:title=" ">
<polygon fill="white" stroke="#bfbfbf" points="1698,-476 1698,-495 1763,-495 1763,-476 1698,-476"/>
<text text-anchor="middle" x="1730.5" y="-483" font-family="Helvetica,sans-Serif" font-size="10.00">functional</text>
</a>
</g>
</g>
<!-- Node59&#45;&gt;Node61 -->
<g id="edge74" class="edge">
<title>Node59&#45;&gt;Node61</title>
<path fill="none" stroke="midnightblue" d="M1749.35,-537.48C1746.18,-528.9 1741.2,-515.43 1737.15,-504.48"/>
<polygon fill="midnightblue" stroke="midnightblue" points="1740.4,-503.17 1733.65,-495.01 1733.83,-505.6 1740.4,-503.17"/>
</g>
<!-- Node62&#45;&gt;Node5 -->
<g id="edge79" class="edge">
<title>Node62&#45;&gt;Node5</title>
<path fill="none" stroke="midnightblue" d="M1939.83,-358.27C1944.9,-338.46 1956.5,-288.53 1956.5,-246 1956.5,-246 1956.5,-246 1956.5,-132 1956.5,-24.48 1553.17,-12.35 1434.79,-11.11"/>
<polygon fill="midnightblue" stroke="midnightblue" points="1434.59,-7.6 1424.56,-11.02 1434.53,-14.6 1434.59,-7.6"/>
</g>
<!-- Node62&#45;&gt;Node8 -->
<g id="edge80" class="edge">
<title>Node62&#45;&gt;Node8</title>
<path fill="none" stroke="midnightblue" d="M1929.66,-358.3C1911.51,-338.15 1866.39,-288.06 1843.03,-262.12"/>
<polygon fill="midnightblue" stroke="midnightblue" points="1845.56,-259.71 1836.27,-254.62 1840.36,-264.4 1845.56,-259.71"/>
</g>
<!-- Node62&#45;&gt;Node27 -->
<g id="edge77" class="edge">
<title>Node62&#45;&gt;Node27</title>
<path fill="none" stroke="midnightblue" d="M1899.39,-358.48C1846.39,-346.62 1751.45,-325.38 1702.52,-314.44"/>
<polygon fill="midnightblue" stroke="midnightblue" points="1703.06,-310.97 1692.53,-312.2 1701.53,-317.8 1703.06,-310.97"/>
</g>
<!-- Node23 -->
<g id="node49" class="node">
<title>Node23</title>
<g id="a_node49"><a xlink:title=" ">
<polygon fill="white" stroke="#bfbfbf" points="1984.5,-297 1984.5,-316 2048.5,-316 2048.5,-297 1984.5,-297"/>
<text text-anchor="middle" x="2016.5" y="-304" font-family="Helvetica,sans-Serif" font-size="10.00">algorithm</text>
</a>
</g>
</g>
<!-- Node62&#45;&gt;Node23 -->
<g id="edge76" class="edge">
<title>Node62&#45;&gt;Node23</title>
<path fill="none" stroke="midnightblue" d="M1948.82,-358.48C1961.37,-349.02 1981.85,-333.6 1997,-322.19"/>
<polygon fill="midnightblue" stroke="midnightblue" points="1999.32,-324.82 2005.2,-316.01 1995.11,-319.23 1999.32,-324.82"/>
</g>
<!-- Node24 -->
<g id="node50" class="node">
<title>Node24</title>
<g id="a_node50"><a xlink:title=" ">
<polygon fill="white" stroke="#bfbfbf" points="2066.5,-297 2066.5,-316 2122.5,-316 2122.5,-297 2066.5,-297"/>
<text text-anchor="middle" x="2094.5" y="-304" font-family="Helvetica,sans-Serif" font-size="10.00">sstream</text>
</a>
</g>
</g>
<!-- Node62&#45;&gt;Node24 -->
<g id="edge78" class="edge">
<title>Node62&#45;&gt;Node24</title>
<path fill="none" stroke="midnightblue" d="M1960.54,-358.47C1984.73,-349.5 2023.84,-334.9 2057.5,-322 2059.34,-321.3 2061.22,-320.57 2063.12,-319.83"/>
<polygon fill="midnightblue" stroke="midnightblue" points="2064.56,-323.03 2072.61,-316.14 2062.02,-316.51 2064.56,-323.03"/>
</g>
</g>
</svg>
