<?xml version="1.0" encoding="UTF-8" standalone="no"?>
<!DOCTYPE svg PUBLIC "-//W3C//DTD SVG 1.1//EN"
 "http://www.w3.org/Graphics/SVG/1.1/DTD/svg11.dtd">
<!-- Generated by graphviz version 2.43.0 (0)
 -->
<!-- Title: src/math/math.hpp Pages: 1 -->
<svg width="1399pt" height="610pt"
 viewBox="0.00 0.00 1399.00 610.00" xmlns="http://www.w3.org/2000/svg" xmlns:xlink="http://www.w3.org/1999/xlink">
<g id="graph0" class="graph" transform="scale(1 1) rotate(0) translate(4 606)">
<title>src/math/math.hpp</title>
<polygon fill="white" stroke="transparent" points="-4,4 -4,-606 1395,-606 1395,4 -4,4"/>
<!-- Node1 -->
<g id="node1" class="node">
<title>Node1</title>
<g id="a_node1"><a xlink:title=" ">
<polygon fill="#bfbfbf" stroke="black" points="810.5,-582.5 810.5,-601.5 919.5,-601.5 919.5,-582.5 810.5,-582.5"/>
<text text-anchor="middle" x="865" y="-589.5" font-family="Helvetica,sans-Serif" font-size="10.00">src/math/math.hpp</text>
</a>
</g>
</g>
<!-- Node2 -->
<g id="node2" class="node">
<title>Node2</title>
<g id="a_node2"><a xlink:href="constants_8hpp.html" target="_top" xlink:title=" ">
<polygon fill="white" stroke="black" points="673.5,-526.5 673.5,-545.5 786.5,-545.5 786.5,-526.5 673.5,-526.5"/>
<text text-anchor="middle" x="730" y="-533.5" font-family="Helvetica,sans-Serif" font-size="10.00">math/constants.hpp</text>
</a>
</g>
</g>
<!-- Node1&#45;&gt;Node2 -->
<g id="edge1" class="edge">
<title>Node1&#45;&gt;Node2</title>
<path fill="none" stroke="midnightblue" d="M843.61,-582.44C821.29,-573.52 786.1,-559.44 760.79,-549.32"/>
<polygon fill="midnightblue" stroke="midnightblue" points="761.88,-545.98 751.29,-545.52 759.28,-552.48 761.88,-545.98"/>
</g>
<!-- Node3 -->
<g id="node3" class="node">
<title>Node3</title>
<g id="a_node3"><a xlink:href="differences_8hpp.html" target="_top" xlink:title=" ">
<polygon fill="white" stroke="black" points="805,-526.5 805,-545.5 925,-545.5 925,-526.5 805,-526.5"/>
<text text-anchor="middle" x="865" y="-533.5" font-family="Helvetica,sans-Serif" font-size="10.00">math/differences.hpp</text>
</a>
</g>
</g>
<!-- Node1&#45;&gt;Node3 -->
<g id="edge2" class="edge">
<title>Node1&#45;&gt;Node3</title>
<path fill="none" stroke="midnightblue" d="M865,-582.08C865,-575.01 865,-564.86 865,-555.99"/>
<polygon fill="midnightblue" stroke="midnightblue" points="868.5,-555.75 865,-545.75 861.5,-555.75 868.5,-555.75"/>
</g>
<!-- Node43 -->
<g id="node43" class="node">
<title>Node43</title>
<g id="a_node43"><a xlink:href="la_8hpp.html" target="_top" xlink:title=" ">
<polygon fill="white" stroke="black" points="943.5,-526.5 943.5,-545.5 1018.5,-545.5 1018.5,-526.5 943.5,-526.5"/>
<text text-anchor="middle" x="981" y="-533.5" font-family="Helvetica,sans-Serif" font-size="10.00">math/la.hpp</text>
</a>
</g>
</g>
<!-- Node1&#45;&gt;Node43 -->
<g id="edge58" class="edge">
<title>Node1&#45;&gt;Node43</title>
<path fill="none" stroke="midnightblue" d="M883.38,-582.44C902.22,-573.68 931.73,-559.94 953.38,-549.86"/>
<polygon fill="midnightblue" stroke="midnightblue" points="955.12,-552.91 962.71,-545.52 952.16,-546.56 955.12,-552.91"/>
</g>
<!-- Node4 -->
<g id="node4" class="node">
<title>Node4</title>
<g id="a_node4"><a xlink:title=" ">
<polygon fill="white" stroke="#bfbfbf" points="659.5,-0.5 659.5,-19.5 728.5,-19.5 728.5,-0.5 659.5,-0.5"/>
<text text-anchor="middle" x="694" y="-7.5" font-family="Helvetica,sans-Serif" font-size="10.00">Eigen/Core</text>
</a>
</g>
</g>
<!-- Node3&#45;&gt;Node4 -->
<g id="edge3" class="edge">
<title>Node3&#45;&gt;Node4</title>
<path fill="none" stroke="midnightblue" d="M804.86,-527.17C608.7,-501.6 0,-422.04 0,-419.5 0,-419.5 0,-419.5 0,-121 0,-73.79 39.92,-72.9 84,-56 187.33,-16.38 526.75,-11.45 649.34,-10.98"/>
<polygon fill="midnightblue" stroke="midnightblue" points="649.5,-14.48 659.49,-10.95 649.48,-7.48 649.5,-14.48"/>
</g>
<!-- Node5 -->
<g id="node5" class="node">
<title>Node5</title>
<g id="a_node5"><a xlink:href="assertion_8hpp.html" target="_top" xlink:title=" ">
<polygon fill="white" stroke="black" points="869.5,-470.5 869.5,-489.5 976.5,-489.5 976.5,-470.5 869.5,-470.5"/>
<text text-anchor="middle" x="923" y="-477.5" font-family="Helvetica,sans-Serif" font-size="10.00">utils/assertion.hpp</text>
</a>
</g>
</g>
<!-- Node3&#45;&gt;Node5 -->
<g id="edge4" class="edge">
<title>Node3&#45;&gt;Node5</title>
<path fill="none" stroke="midnightblue" d="M874.32,-526.32C882.89,-518.34 895.81,-506.31 906.19,-496.65"/>
<polygon fill="midnightblue" stroke="midnightblue" points="908.58,-499.21 913.51,-489.83 903.81,-494.09 908.58,-499.21"/>
</g>
<!-- Node6 -->
<g id="node6" class="node">
<title>Node6</title>
<g id="a_node6"><a xlink:title=" ">
<polygon fill="white" stroke="#bfbfbf" points="544.5,-409 544.5,-428 593.5,-428 593.5,-409 544.5,-409"/>
<text text-anchor="middle" x="569" y="-416" font-family="Helvetica,sans-Serif" font-size="10.00">cstdlib</text>
</a>
</g>
</g>
<!-- Node5&#45;&gt;Node6 -->
<g id="edge5" class="edge">
<title>Node5&#45;&gt;Node6</title>
<path fill="none" stroke="midnightblue" d="M869.46,-475.79C805.19,-470.96 694.61,-459.49 603,-434 600.7,-433.36 598.36,-432.6 596.03,-431.77"/>
<polygon fill="midnightblue" stroke="midnightblue" points="597.27,-428.5 586.68,-428.08 594.7,-435.01 597.27,-428.5"/>
</g>
<!-- Node7 -->
<g id="node7" class="node">
<title>Node7</title>
<g id="a_node7"><a xlink:title=" ">
<polygon fill="white" stroke="#bfbfbf" points="612,-409 612,-428 672,-428 672,-409 612,-409"/>
<text text-anchor="middle" x="642" y="-416" font-family="Helvetica,sans-Serif" font-size="10.00">iostream</text>
</a>
</g>
</g>
<!-- Node5&#45;&gt;Node7 -->
<g id="edge6" class="edge">
<title>Node5&#45;&gt;Node7</title>
<path fill="none" stroke="midnightblue" d="M869.05,-471.69C819.6,-464.35 744.63,-451.6 681,-434 678.35,-433.27 675.63,-432.43 672.91,-431.54"/>
<polygon fill="midnightblue" stroke="midnightblue" points="673.83,-428.16 663.24,-428.15 671.52,-434.76 673.83,-428.16"/>
</g>
<!-- Node8 -->
<g id="node8" class="node">
<title>Node8</title>
<g id="a_node8"><a xlink:title=" ">
<polygon fill="white" stroke="#bfbfbf" points="186.5,-112.5 186.5,-131.5 259.5,-131.5 259.5,-112.5 186.5,-112.5"/>
<text text-anchor="middle" x="223" y="-119.5" font-family="Helvetica,sans-Serif" font-size="10.00">string_view</text>
</a>
</g>
</g>
<!-- Node5&#45;&gt;Node8 -->
<g id="edge7" class="edge">
<title>Node5&#45;&gt;Node8</title>
<path fill="none" stroke="midnightblue" d="M869.04,-477.65C734.67,-473.91 387.87,-461.79 276,-434 204.75,-416.3 165.03,-428.55 125,-367 73.9,-288.43 167.8,-178.94 206.99,-138.67"/>
<polygon fill="midnightblue" stroke="midnightblue" points="209.48,-141.13 214.03,-131.57 204.51,-136.2 209.48,-141.13"/>
</g>
<!-- Node9 -->
<g id="node9" class="node">
<title>Node9</title>
<g id="a_node9"><a xlink:href="fmt_8hpp.html" target="_top" xlink:title=" ">
<polygon fill="white" stroke="black" points="496.5,-174 496.5,-193 575.5,-193 575.5,-174 496.5,-174"/>
<text text-anchor="middle" x="536" y="-181" font-family="Helvetica,sans-Serif" font-size="10.00">utils/fmt.hpp</text>
</a>
</g>
</g>
<!-- Node5&#45;&gt;Node9 -->
<g id="edge8" class="edge">
<title>Node5&#45;&gt;Node9</title>
<path fill="none" stroke="midnightblue" d="M869.21,-476.66C767.87,-471.7 556.85,-458.53 535,-434 525.84,-423.71 527.79,-414.74 535,-403 553.52,-372.85 587.48,-397.15 606,-367 610.65,-359.43 607.65,-355.73 606,-347 595.42,-291.11 563.52,-231.06 546.68,-202.1"/>
<polygon fill="midnightblue" stroke="midnightblue" points="549.52,-200.03 541.41,-193.21 543.5,-203.6 549.52,-200.03"/>
</g>
<!-- Node23 -->
<g id="node23" class="node">
<title>Node23</title>
<g id="a_node23"><a xlink:title=" ">
<polygon fill="white" stroke="#bfbfbf" points="690.5,-409 690.5,-428 837.5,-428 837.5,-409 690.5,-409"/>
<text text-anchor="middle" x="764" y="-416" font-family="Helvetica,sans-Serif" font-size="10.00">boost/current_function.hpp</text>
</a>
</g>
</g>
<!-- Node5&#45;&gt;Node23 -->
<g id="edge27" class="edge">
<title>Node5&#45;&gt;Node23</title>
<path fill="none" stroke="midnightblue" d="M900.22,-470.48C872.95,-460.27 827.09,-443.11 796.2,-431.55"/>
<polygon fill="midnightblue" stroke="midnightblue" points="797.33,-428.24 786.74,-428.01 794.88,-434.79 797.33,-428.24"/>
</g>
<!-- Node24 -->
<g id="node24" class="node">
<title>Node24</title>
<g id="a_node24"><a xlink:title=" ">
<polygon fill="white" stroke="#bfbfbf" points="855.5,-403.5 855.5,-433.5 990.5,-433.5 990.5,-403.5 855.5,-403.5"/>
<text text-anchor="start" x="863.5" y="-421.5" font-family="Helvetica,sans-Serif" font-size="10.00">boost/preprocessor</text>
<text text-anchor="middle" x="923" y="-410.5" font-family="Helvetica,sans-Serif" font-size="10.00">/comparison/greater.hpp</text>
</a>
</g>
</g>
<!-- Node5&#45;&gt;Node24 -->
<g id="edge28" class="edge">
<title>Node5&#45;&gt;Node24</title>
<path fill="none" stroke="midnightblue" d="M923,-470.48C923,-463.47 923,-453.19 923,-443.7"/>
<polygon fill="midnightblue" stroke="midnightblue" points="926.5,-443.52 923,-433.52 919.5,-443.52 926.5,-443.52"/>
</g>
<!-- Node25 -->
<g id="node25" class="node">
<title>Node25</title>
<g id="a_node25"><a xlink:title=" ">
<polygon fill="white" stroke="#bfbfbf" points="1125,-168.5 1125,-198.5 1235,-198.5 1235,-168.5 1125,-168.5"/>
<text text-anchor="start" x="1133" y="-186.5" font-family="Helvetica,sans-Serif" font-size="10.00">boost/preprocessor</text>
<text text-anchor="middle" x="1180" y="-175.5" font-family="Helvetica,sans-Serif" font-size="10.00">/control/if.hpp</text>
</a>
</g>
</g>
<!-- Node5&#45;&gt;Node25 -->
<g id="edge29" class="edge">
<title>Node5&#45;&gt;Node25</title>
<path fill="none" stroke="midnightblue" d="M960.32,-470.48C1010.91,-456.47 1095,-423.35 1095,-358 1095,-358 1095,-358 1095,-300 1095,-260.86 1127.06,-226.23 1151.8,-205.33"/>
<polygon fill="midnightblue" stroke="midnightblue" points="1154.3,-207.81 1159.86,-198.79 1149.89,-202.38 1154.3,-207.81"/>
</g>
<!-- Node26 -->
<g id="node26" class="node">
<title>Node26</title>
<g id="a_node26"><a xlink:title=" ">
<polygon fill="white" stroke="#bfbfbf" points="1253,-168.5 1253,-198.5 1363,-198.5 1363,-168.5 1253,-168.5"/>
<text text-anchor="start" x="1261" y="-186.5" font-family="Helvetica,sans-Serif" font-size="10.00">boost/preprocessor</text>
<text text-anchor="middle" x="1308" y="-175.5" font-family="Helvetica,sans-Serif" font-size="10.00">/stringize.hpp</text>
</a>
</g>
</g>
<!-- Node5&#45;&gt;Node26 -->
<g id="edge30" class="edge">
<title>Node5&#45;&gt;Node26</title>
<path fill="none" stroke="midnightblue" d="M976.82,-476.14C1077.69,-470.3 1287.29,-455.7 1312,-434 1338.16,-411.03 1331,-392.82 1331,-358 1331,-358 1331,-358 1331,-300 1331,-267.73 1322.26,-231.35 1315.55,-208.19"/>
<polygon fill="midnightblue" stroke="midnightblue" points="1318.88,-207.12 1312.65,-198.55 1312.18,-209.13 1318.88,-207.12"/>
</g>
<!-- Node27 -->
<g id="node27" class="node">
<title>Node27</title>
<g id="a_node27"><a xlink:title=" ">
<polygon fill="white" stroke="#bfbfbf" points="1123,-403.5 1123,-433.5 1233,-433.5 1233,-403.5 1123,-403.5"/>
<text text-anchor="start" x="1131" y="-421.5" font-family="Helvetica,sans-Serif" font-size="10.00">boost/preprocessor</text>
<text text-anchor="middle" x="1178" y="-410.5" font-family="Helvetica,sans-Serif" font-size="10.00">/variadic/size.hpp</text>
</a>
</g>
</g>
<!-- Node5&#45;&gt;Node27 -->
<g id="edge31" class="edge">
<title>Node5&#45;&gt;Node27</title>
<path fill="none" stroke="midnightblue" d="M959.54,-470.48C999.48,-461.16 1064.26,-446.04 1112.94,-434.68"/>
<polygon fill="midnightblue" stroke="midnightblue" points="1113.81,-438.07 1122.75,-432.39 1112.22,-431.26 1113.81,-438.07"/>
</g>
<!-- Node28 -->
<g id="node28" class="node">
<title>Node28</title>
<g id="a_node28"><a xlink:href="ArgumentFormatter_8hpp.html" target="_top" xlink:title=" ">
<polygon fill="white" stroke="black" points="852.5,-235.5 852.5,-254.5 1009.5,-254.5 1009.5,-235.5 852.5,-235.5"/>
<text text-anchor="middle" x="931" y="-242.5" font-family="Helvetica,sans-Serif" font-size="10.00">utils/ArgumentFormatter.hpp</text>
</a>
</g>
</g>
<!-- Node5&#45;&gt;Node28 -->
<g id="edge32" class="edge">
<title>Node5&#45;&gt;Node28</title>
<path fill="none" stroke="midnightblue" d="M962.25,-470.48C982,-463.99 1004.18,-452.84 1016,-434 1053.52,-374.16 982.81,-294.96 948.34,-261.73"/>
<polygon fill="midnightblue" stroke="midnightblue" points="950.5,-258.96 940.82,-254.66 945.7,-264.06 950.5,-258.96"/>
</g>
<!-- Node32 -->
<g id="node32" class="node">
<title>Node32</title>
<g id="a_node32"><a xlink:href="Parallel_8hpp.html" target="_top" xlink:title=" ">
<polygon fill="white" stroke="black" points="285,-409 285,-428 383,-428 383,-409 285,-409"/>
<text text-anchor="middle" x="334" y="-416" font-family="Helvetica,sans-Serif" font-size="10.00">utils/Parallel.hpp</text>
</a>
</g>
</g>
<!-- Node5&#45;&gt;Node32 -->
<g id="edge39" class="edge">
<title>Node5&#45;&gt;Node32</title>
<path fill="none" stroke="midnightblue" d="M869.43,-473.59C759.32,-462.47 508.28,-437.11 393.39,-425.5"/>
<polygon fill="midnightblue" stroke="midnightblue" points="393.67,-422.01 383.37,-424.49 392.97,-428.97 393.67,-422.01"/>
</g>
<!-- Node41 -->
<g id="node41" class="node">
<title>Node41</title>
<g id="a_node41"><a xlink:href="stacktrace_8hpp.html" target="_top" xlink:title=" ">
<polygon fill="white" stroke="black" points="782.5,-291.5 782.5,-310.5 895.5,-310.5 895.5,-291.5 782.5,-291.5"/>
<text text-anchor="middle" x="839" y="-298.5" font-family="Helvetica,sans-Serif" font-size="10.00">utils/stacktrace.hpp</text>
</a>
</g>
</g>
<!-- Node5&#45;&gt;Node41 -->
<g id="edge55" class="edge">
<title>Node5&#45;&gt;Node41</title>
<path fill="none" stroke="midnightblue" d="M951.02,-470.4C968.17,-463.51 988.75,-451.98 999,-434 1005.82,-422.03 1005.65,-415.07 999,-403 973.38,-356.52 916.37,-328.48 877.8,-314.12"/>
<polygon fill="midnightblue" stroke="midnightblue" points="878.53,-310.66 867.93,-310.59 876.17,-317.25 878.53,-310.66"/>
</g>
<!-- Node42 -->
<g id="node42" class="node">
<title>Node42</title>
<g id="a_node42"><a xlink:title=" ">
<polygon fill="white" stroke="#bfbfbf" points="1251,-409 1251,-428 1303,-428 1303,-409 1251,-409"/>
<text text-anchor="middle" x="1277" y="-416" font-family="Helvetica,sans-Serif" font-size="10.00">cassert</text>
</a>
</g>
</g>
<!-- Node5&#45;&gt;Node42 -->
<g id="edge57" class="edge">
<title>Node5&#45;&gt;Node42</title>
<path fill="none" stroke="midnightblue" d="M976.61,-475.59C1040.67,-470.56 1150.68,-458.93 1242,-434 1244.44,-433.33 1246.94,-432.54 1249.43,-431.67"/>
<polygon fill="midnightblue" stroke="midnightblue" points="1250.7,-434.93 1258.78,-428.07 1248.19,-428.4 1250.7,-434.93"/>
</g>
<!-- Node9&#45;&gt;Node8 -->
<g id="edge10" class="edge">
<title>Node9&#45;&gt;Node8</title>
<path fill="none" stroke="midnightblue" d="M496.18,-175.05C445.92,-165.63 356.55,-148.82 269.68,-132.12"/>
<polygon fill="midnightblue" stroke="midnightblue" points="270.14,-128.64 259.65,-130.19 268.81,-135.52 270.14,-128.64"/>
</g>
<!-- Node10 -->
<g id="node10" class="node">
<title>Node10</title>
<g id="a_node10"><a xlink:title=" ">
<polygon fill="white" stroke="#bfbfbf" points="658,-112.5 658,-131.5 702,-131.5 702,-112.5 658,-112.5"/>
<text text-anchor="middle" x="680" y="-119.5" font-family="Helvetica,sans-Serif" font-size="10.00">string</text>
</a>
</g>
</g>
<!-- Node9&#45;&gt;Node10 -->
<g id="edge9" class="edge">
<title>Node9&#45;&gt;Node10</title>
<path fill="none" stroke="midnightblue" d="M556.63,-173.98C581.12,-163.86 622.15,-146.9 650.11,-135.35"/>
<polygon fill="midnightblue" stroke="midnightblue" points="651.5,-138.56 659.41,-131.51 648.83,-132.09 651.5,-138.56"/>
</g>
<!-- Node11 -->
<g id="node11" class="node">
<title>Node11</title>
<g id="a_node11"><a xlink:title=" ">
<polygon fill="white" stroke="#bfbfbf" points="430.5,-56.5 430.5,-75.5 509.5,-75.5 509.5,-56.5 430.5,-56.5"/>
<text text-anchor="middle" x="470" y="-63.5" font-family="Helvetica,sans-Serif" font-size="10.00">fmt/format.h</text>
</a>
</g>
</g>
<!-- Node9&#45;&gt;Node11 -->
<g id="edge11" class="edge">
<title>Node9&#45;&gt;Node11</title>
<path fill="none" stroke="midnightblue" d="M531.04,-173.82C520.24,-154.92 494.43,-109.75 480.07,-84.62"/>
<polygon fill="midnightblue" stroke="midnightblue" points="483.02,-82.73 475.02,-75.78 476.94,-86.2 483.02,-82.73"/>
</g>
<!-- Node12 -->
<g id="node12" class="node">
<title>Node12</title>
<g id="a_node12"><a xlink:title=" ">
<polygon fill="white" stroke="#bfbfbf" points="392,-112.5 392,-131.5 478,-131.5 478,-112.5 392,-112.5"/>
<text text-anchor="middle" x="435" y="-119.5" font-family="Helvetica,sans-Serif" font-size="10.00">fmt/ostream.h</text>
</a>
</g>
</g>
<!-- Node9&#45;&gt;Node12 -->
<g id="edge12" class="edge">
<title>Node9&#45;&gt;Node12</title>
<path fill="none" stroke="midnightblue" d="M521.53,-173.98C505.03,-164.25 477.82,-148.23 458.32,-136.74"/>
<polygon fill="midnightblue" stroke="midnightblue" points="459.84,-133.57 449.44,-131.51 456.28,-139.6 459.84,-133.57"/>
</g>
<!-- Node13 -->
<g id="node13" class="node">
<title>Node13</title>
<g id="a_node13"><a xlink:href="fmtEigen_8hpp.html" target="_top" xlink:title=" ">
<polygon fill="white" stroke="black" points="534,-112.5 534,-131.5 640,-131.5 640,-112.5 534,-112.5"/>
<text text-anchor="middle" x="587" y="-119.5" font-family="Helvetica,sans-Serif" font-size="10.00">utils/fmtEigen.hpp</text>
</a>
</g>
</g>
<!-- Node9&#45;&gt;Node13 -->
<g id="edge13" class="edge">
<title>Node9&#45;&gt;Node13</title>
<path fill="none" stroke="midnightblue" d="M543.31,-173.98C551.03,-164.96 563.41,-150.52 573.02,-139.31"/>
<polygon fill="midnightblue" stroke="midnightblue" points="575.86,-141.38 579.71,-131.51 570.54,-136.82 575.86,-141.38"/>
</g>
<!-- Node17 -->
<g id="node17" class="node">
<title>Node17</title>
<g id="a_node17"><a xlink:href="fmtSTL_8hpp.html" target="_top" xlink:title=" ">
<polygon fill="white" stroke="black" points="278,-112.5 278,-131.5 374,-131.5 374,-112.5 278,-112.5"/>
<text text-anchor="middle" x="326" y="-119.5" font-family="Helvetica,sans-Serif" font-size="10.00">utils/fmtSTL.hpp</text>
</a>
</g>
</g>
<!-- Node9&#45;&gt;Node17 -->
<g id="edge20" class="edge">
<title>Node9&#45;&gt;Node17</title>
<path fill="none" stroke="midnightblue" d="M505.91,-173.98C469.11,-163.55 406.69,-145.86 365.91,-134.31"/>
<polygon fill="midnightblue" stroke="midnightblue" points="366.61,-130.87 356.03,-131.51 364.7,-137.6 366.61,-130.87"/>
</g>
<!-- Node13&#45;&gt;Node4 -->
<g id="edge14" class="edge">
<title>Node13&#45;&gt;Node4</title>
<path fill="none" stroke="midnightblue" d="M640.13,-112.85C697.63,-103.49 782.44,-87.89 792,-76 811.51,-51.75 773.03,-33.33 738.71,-22.4"/>
<polygon fill="midnightblue" stroke="midnightblue" points="739.31,-18.92 728.72,-19.38 737.28,-25.62 739.31,-18.92"/>
</g>
<!-- Node13&#45;&gt;Node11 -->
<g id="edge16" class="edge">
<title>Node13&#45;&gt;Node11</title>
<path fill="none" stroke="midnightblue" d="M568.46,-112.44C549.38,-103.64 519.43,-89.81 497.56,-79.72"/>
<polygon fill="midnightblue" stroke="midnightblue" points="499,-76.53 488.45,-75.52 496.07,-82.88 499,-76.53"/>
</g>
<!-- Node14 -->
<g id="node14" class="node">
<title>Node14</title>
<g id="a_node14"><a xlink:title=" ">
<polygon fill="white" stroke="#bfbfbf" points="645,-56.5 645,-75.5 709,-75.5 709,-56.5 645,-56.5"/>
<text text-anchor="middle" x="677" y="-63.5" font-family="Helvetica,sans-Serif" font-size="10.00">algorithm</text>
</a>
</g>
</g>
<!-- Node13&#45;&gt;Node14 -->
<g id="edge15" class="edge">
<title>Node13&#45;&gt;Node14</title>
<path fill="none" stroke="midnightblue" d="M601.46,-112.32C615.5,-103.9 637.05,-90.97 653.54,-81.07"/>
<polygon fill="midnightblue" stroke="midnightblue" points="655.8,-83.8 662.58,-75.65 652.2,-77.8 655.8,-83.8"/>
</g>
<!-- Node15 -->
<g id="node15" class="node">
<title>Node15</title>
<g id="a_node15"><a xlink:title=" ">
<polygon fill="white" stroke="#bfbfbf" points="727,-56.5 727,-75.5 783,-75.5 783,-56.5 727,-56.5"/>
<text text-anchor="middle" x="755" y="-63.5" font-family="Helvetica,sans-Serif" font-size="10.00">sstream</text>
</a>
</g>
</g>
<!-- Node13&#45;&gt;Node15 -->
<g id="edge17" class="edge">
<title>Node13&#45;&gt;Node15</title>
<path fill="none" stroke="midnightblue" d="M613.62,-112.44C642.01,-103.32 687.14,-88.81 718.75,-78.65"/>
<polygon fill="midnightblue" stroke="midnightblue" points="720.06,-81.91 728.5,-75.52 717.91,-75.24 720.06,-81.91"/>
</g>
<!-- Node16 -->
<g id="node16" class="node">
<title>Node16</title>
<g id="a_node16"><a xlink:href="EigenIO_8hpp.html" target="_top" xlink:title=" ">
<polygon fill="white" stroke="black" points="527.5,-56.5 527.5,-75.5 626.5,-75.5 626.5,-56.5 527.5,-56.5"/>
<text text-anchor="middle" x="577" y="-63.5" font-family="Helvetica,sans-Serif" font-size="10.00">utils/EigenIO.hpp</text>
</a>
</g>
</g>
<!-- Node13&#45;&gt;Node16 -->
<g id="edge18" class="edge">
<title>Node13&#45;&gt;Node16</title>
<path fill="none" stroke="midnightblue" d="M585.35,-112.08C584.02,-104.93 582.12,-94.64 580.46,-85.69"/>
<polygon fill="midnightblue" stroke="midnightblue" points="583.88,-84.95 578.62,-75.75 577,-86.22 583.88,-84.95"/>
</g>
<!-- Node16&#45;&gt;Node4 -->
<g id="edge19" class="edge">
<title>Node16&#45;&gt;Node4</title>
<path fill="none" stroke="midnightblue" d="M595.54,-56.44C614.62,-47.64 644.57,-33.81 666.44,-23.72"/>
<polygon fill="midnightblue" stroke="midnightblue" points="667.93,-26.88 675.55,-19.52 665,-20.53 667.93,-26.88"/>
</g>
<!-- Node17&#45;&gt;Node11 -->
<g id="edge23" class="edge">
<title>Node17&#45;&gt;Node11</title>
<path fill="none" stroke="midnightblue" d="M348.82,-112.44C372.83,-103.44 410.83,-89.19 437.87,-79.05"/>
<polygon fill="midnightblue" stroke="midnightblue" points="439.16,-82.3 447.29,-75.52 436.7,-75.75 439.16,-82.3"/>
</g>
<!-- Node18 -->
<g id="node18" class="node">
<title>Node18</title>
<g id="a_node18"><a xlink:title=" ">
<polygon fill="white" stroke="#bfbfbf" points="305,-56.5 305,-75.5 347,-75.5 347,-56.5 305,-56.5"/>
<text text-anchor="middle" x="326" y="-63.5" font-family="Helvetica,sans-Serif" font-size="10.00">array</text>
</a>
</g>
</g>
<!-- Node17&#45;&gt;Node18 -->
<g id="edge21" class="edge">
<title>Node17&#45;&gt;Node18</title>
<path fill="none" stroke="midnightblue" d="M326,-112.08C326,-105.01 326,-94.86 326,-85.99"/>
<polygon fill="midnightblue" stroke="midnightblue" points="329.5,-85.75 326,-75.75 322.5,-85.75 329.5,-85.75"/>
</g>
<!-- Node19 -->
<g id="node19" class="node">
<title>Node19</title>
<g id="a_node19"><a xlink:title=" ">
<polygon fill="white" stroke="#bfbfbf" points="365.5,-56.5 365.5,-75.5 412.5,-75.5 412.5,-56.5 365.5,-56.5"/>
<text text-anchor="middle" x="389" y="-63.5" font-family="Helvetica,sans-Serif" font-size="10.00">deque</text>
</a>
</g>
</g>
<!-- Node17&#45;&gt;Node19 -->
<g id="edge22" class="edge">
<title>Node17&#45;&gt;Node19</title>
<path fill="none" stroke="midnightblue" d="M336.12,-112.32C345.53,-104.26 359.74,-92.08 371.07,-82.37"/>
<polygon fill="midnightblue" stroke="midnightblue" points="373.38,-85 378.69,-75.83 368.82,-79.68 373.38,-85"/>
</g>
<!-- Node20 -->
<g id="node20" class="node">
<title>Node20</title>
<g id="a_node20"><a xlink:title=" ">
<polygon fill="white" stroke="#bfbfbf" points="199,-56.5 199,-75.5 237,-75.5 237,-56.5 199,-56.5"/>
<text text-anchor="middle" x="218" y="-63.5" font-family="Helvetica,sans-Serif" font-size="10.00">map</text>
</a>
</g>
</g>
<!-- Node17&#45;&gt;Node20 -->
<g id="edge24" class="edge">
<title>Node17&#45;&gt;Node20</title>
<path fill="none" stroke="midnightblue" d="M308.65,-112.32C291.33,-103.66 264.48,-90.24 244.5,-80.25"/>
<polygon fill="midnightblue" stroke="midnightblue" points="245.82,-77 235.31,-75.65 242.69,-83.26 245.82,-77"/>
</g>
<!-- Node21 -->
<g id="node21" class="node">
<title>Node21</title>
<g id="a_node21"><a xlink:title=" ">
<polygon fill="white" stroke="#bfbfbf" points="255,-56.5 255,-75.5 287,-75.5 287,-56.5 255,-56.5"/>
<text text-anchor="middle" x="271" y="-63.5" font-family="Helvetica,sans-Serif" font-size="10.00">set</text>
</a>
</g>
</g>
<!-- Node17&#45;&gt;Node21 -->
<g id="edge25" class="edge">
<title>Node17&#45;&gt;Node21</title>
<path fill="none" stroke="midnightblue" d="M316.92,-112.08C308.83,-104.14 296.8,-92.34 287.09,-82.8"/>
<polygon fill="midnightblue" stroke="midnightblue" points="289.5,-80.26 279.91,-75.75 284.6,-85.25 289.5,-80.26"/>
</g>
<!-- Node22 -->
<g id="node22" class="node">
<title>Node22</title>
<g id="a_node22"><a xlink:title=" ">
<polygon fill="white" stroke="#bfbfbf" points="93.5,-56.5 93.5,-75.5 140.5,-75.5 140.5,-56.5 93.5,-56.5"/>
<text text-anchor="middle" x="117" y="-63.5" font-family="Helvetica,sans-Serif" font-size="10.00">vector</text>
</a>
</g>
</g>
<!-- Node17&#45;&gt;Node22 -->
<g id="edge26" class="edge">
<title>Node17&#45;&gt;Node22</title>
<path fill="none" stroke="midnightblue" d="M292.88,-112.44C253.89,-102.37 189.51,-85.74 150.4,-75.63"/>
<polygon fill="midnightblue" stroke="midnightblue" points="151.11,-72.2 140.56,-73.09 149.36,-78.98 151.11,-72.2"/>
</g>
<!-- Node28&#45;&gt;Node9 -->
<g id="edge38" class="edge">
<title>Node28&#45;&gt;Node9</title>
<path fill="none" stroke="midnightblue" d="M874.41,-235.48C796.99,-223.81 659.29,-203.07 585.67,-191.98"/>
<polygon fill="midnightblue" stroke="midnightblue" points="586.13,-188.51 575.72,-190.48 585.08,-195.43 586.13,-188.51"/>
</g>
<!-- Node28&#45;&gt;Node25 -->
<g id="edge33" class="edge">
<title>Node28&#45;&gt;Node25</title>
<path fill="none" stroke="midnightblue" d="M966.68,-235.48C1005.22,-226.27 1067.46,-211.39 1114.79,-200.08"/>
<polygon fill="midnightblue" stroke="midnightblue" points="1115.73,-203.46 1124.64,-197.73 1114.1,-196.65 1115.73,-203.46"/>
</g>
<!-- Node28&#45;&gt;Node26 -->
<g id="edge35" class="edge">
<title>Node28&#45;&gt;Node26</title>
<path fill="none" stroke="midnightblue" d="M1001.81,-235.46C1063.12,-227.69 1154.38,-215.23 1242.95,-199.11"/>
<polygon fill="midnightblue" stroke="midnightblue" points="1243.7,-202.53 1252.9,-197.28 1242.43,-195.64 1243.7,-202.53"/>
</g>
<!-- Node29 -->
<g id="node29" class="node">
<title>Node29</title>
<g id="a_node29"><a xlink:title=" ">
<polygon fill="white" stroke="#bfbfbf" points="708.5,-168.5 708.5,-198.5 819.5,-198.5 819.5,-168.5 708.5,-168.5"/>
<text text-anchor="start" x="716.5" y="-186.5" font-family="Helvetica,sans-Serif" font-size="10.00">boost/preprocessor</text>
<text text-anchor="middle" x="764" y="-175.5" font-family="Helvetica,sans-Serif" font-size="10.00">/seq/for_each_i.hpp</text>
</a>
</g>
</g>
<!-- Node28&#45;&gt;Node29 -->
<g id="edge34" class="edge">
<title>Node28&#45;&gt;Node29</title>
<path fill="none" stroke="midnightblue" d="M907.07,-235.48C882.66,-226.78 844.07,-213.03 813.11,-202"/>
<polygon fill="midnightblue" stroke="midnightblue" points="813.95,-198.58 803.36,-198.52 811.6,-205.18 813.95,-198.58"/>
</g>
<!-- Node30 -->
<g id="node30" class="node">
<title>Node30</title>
<g id="a_node30"><a xlink:title=" ">
<polygon fill="white" stroke="#bfbfbf" points="837.5,-168.5 837.5,-198.5 952.5,-198.5 952.5,-168.5 837.5,-168.5"/>
<text text-anchor="start" x="845.5" y="-186.5" font-family="Helvetica,sans-Serif" font-size="10.00">boost/preprocessor</text>
<text text-anchor="middle" x="895" y="-175.5" font-family="Helvetica,sans-Serif" font-size="10.00">/variadic/to_seq.hpp</text>
</a>
</g>
</g>
<!-- Node28&#45;&gt;Node30 -->
<g id="edge36" class="edge">
<title>Node28&#45;&gt;Node30</title>
<path fill="none" stroke="midnightblue" d="M925.84,-235.48C921.38,-228.09 914.71,-217.08 908.72,-207.17"/>
<polygon fill="midnightblue" stroke="midnightblue" points="911.66,-205.27 903.48,-198.52 905.67,-208.89 911.66,-205.27"/>
</g>
<!-- Node31 -->
<g id="node31" class="node">
<title>Node31</title>
<g id="a_node31"><a xlink:title=" ">
<polygon fill="white" stroke="#bfbfbf" points="971,-174 971,-193 1107,-193 1107,-174 971,-174"/>
<text text-anchor="middle" x="1039" y="-181" font-family="Helvetica,sans-Serif" font-size="10.00">boost/vmd/is_empty.hpp</text>
</a>
</g>
</g>
<!-- Node28&#45;&gt;Node31 -->
<g id="edge37" class="edge">
<title>Node28&#45;&gt;Node31</title>
<path fill="none" stroke="midnightblue" d="M946.47,-235.48C964.28,-225.67 993.74,-209.43 1014.63,-197.92"/>
<polygon fill="midnightblue" stroke="midnightblue" points="1016.49,-200.9 1023.55,-193.01 1013.11,-194.77 1016.49,-200.9"/>
</g>
<!-- Node32&#45;&gt;Node10 -->
<g id="edge43" class="edge">
<title>Node32&#45;&gt;Node10</title>
<path fill="none" stroke="midnightblue" d="M383.25,-413.48C447.48,-407.25 555.07,-393.19 584,-367 606.41,-346.71 604,-332.23 604,-302 604,-302 604,-302 604,-244 604,-200.48 639.7,-159.77 662.16,-138.47"/>
<polygon fill="midnightblue" stroke="midnightblue" points="664.73,-140.86 669.75,-131.53 660.01,-135.7 664.73,-140.86"/>
</g>
<!-- Node32&#45;&gt;Node22 -->
<g id="edge44" class="edge">
<title>Node32&#45;&gt;Node22</title>
<path fill="none" stroke="midnightblue" d="M284.86,-416.69C210.01,-412.57 76,-392.54 76,-302 76,-302 76,-302 76,-182.5 76,-145.97 94.44,-106.48 106.59,-84.44"/>
<polygon fill="midnightblue" stroke="midnightblue" points="109.71,-86.03 111.64,-75.61 103.64,-82.55 109.71,-86.03"/>
</g>
<!-- Node33 -->
<g id="node33" class="node">
<title>Node33</title>
<g id="a_node33"><a xlink:title=" ">
<polygon fill="white" stroke="#bfbfbf" points="142,-347.5 142,-366.5 190,-366.5 190,-347.5 142,-347.5"/>
<text text-anchor="middle" x="166" y="-354.5" font-family="Helvetica,sans-Serif" font-size="10.00">iosfwd</text>
</a>
</g>
</g>
<!-- Node32&#45;&gt;Node33 -->
<g id="edge40" class="edge">
<title>Node32&#45;&gt;Node33</title>
<path fill="none" stroke="midnightblue" d="M309.93,-408.98C280.99,-398.72 232.24,-381.46 199.6,-369.9"/>
<polygon fill="midnightblue" stroke="midnightblue" points="200.62,-366.55 190.03,-366.51 198.28,-373.15 200.62,-366.55"/>
</g>
<!-- Node34 -->
<g id="node34" class="node">
<title>Node34</title>
<g id="a_node34"><a xlink:title=" ">
<polygon fill="white" stroke="#bfbfbf" points="196,-291.5 196,-310.5 254,-310.5 254,-291.5 196,-291.5"/>
<text text-anchor="middle" x="225" y="-298.5" font-family="Helvetica,sans-Serif" font-size="10.00">memory</text>
</a>
</g>
</g>
<!-- Node32&#45;&gt;Node34 -->
<g id="edge41" class="edge">
<title>Node32&#45;&gt;Node34</title>
<path fill="none" stroke="midnightblue" d="M284.71,-412.02C231.38,-404.96 151.48,-390.69 133,-367 114.09,-342.75 153.12,-323.77 186.04,-312.73"/>
<polygon fill="midnightblue" stroke="midnightblue" points="187.53,-315.93 195.99,-309.56 185.4,-309.26 187.53,-315.93"/>
</g>
<!-- Node35 -->
<g id="node35" class="node">
<title>Node35</title>
<g id="a_node35"><a xlink:title=" ">
<polygon fill="white" stroke="#bfbfbf" points="208,-347.5 208,-366.5 264,-366.5 264,-347.5 208,-347.5"/>
<text text-anchor="middle" x="236" y="-354.5" font-family="Helvetica,sans-Serif" font-size="10.00">optional</text>
</a>
</g>
</g>
<!-- Node32&#45;&gt;Node35 -->
<g id="edge42" class="edge">
<title>Node32&#45;&gt;Node35</title>
<path fill="none" stroke="midnightblue" d="M319.96,-408.98C303.95,-399.25 277.55,-383.23 258.63,-371.74"/>
<polygon fill="midnightblue" stroke="midnightblue" points="260.38,-368.71 250.01,-366.51 256.75,-374.69 260.38,-368.71"/>
</g>
<!-- Node36 -->
<g id="node36" class="node">
<title>Node36</title>
<g id="a_node36"><a xlink:href="Logger_8hpp.html" target="_top" xlink:title=" ">
<polygon fill="white" stroke="black" points="466.5,-347.5 466.5,-366.5 575.5,-366.5 575.5,-347.5 466.5,-347.5"/>
<text text-anchor="middle" x="521" y="-354.5" font-family="Helvetica,sans-Serif" font-size="10.00">logging/Logger.hpp</text>
</a>
</g>
</g>
<!-- Node32&#45;&gt;Node36 -->
<g id="edge45" class="edge">
<title>Node32&#45;&gt;Node36</title>
<path fill="none" stroke="midnightblue" d="M360.79,-408.98C393.29,-398.64 448.21,-381.16 484.54,-369.6"/>
<polygon fill="midnightblue" stroke="midnightblue" points="485.79,-372.88 494.26,-366.51 483.67,-366.21 485.79,-372.88"/>
</g>
<!-- Node39 -->
<g id="node39" class="node">
<title>Node39</title>
<g id="a_node39"><a xlink:href="types_8hpp.html" target="_top" xlink:title=" ">
<polygon fill="white" stroke="black" points="282.5,-347.5 282.5,-366.5 385.5,-366.5 385.5,-347.5 282.5,-347.5"/>
<text text-anchor="middle" x="334" y="-354.5" font-family="Helvetica,sans-Serif" font-size="10.00">precice/types.hpp</text>
</a>
</g>
</g>
<!-- Node32&#45;&gt;Node39 -->
<g id="edge53" class="edge">
<title>Node32&#45;&gt;Node39</title>
<path fill="none" stroke="midnightblue" d="M334,-408.98C334,-400.58 334,-387.48 334,-376.66"/>
<polygon fill="midnightblue" stroke="midnightblue" points="337.5,-376.51 334,-366.51 330.5,-376.51 337.5,-376.51"/>
</g>
<!-- Node40 -->
<g id="node40" class="node">
<title>Node40</title>
<g id="a_node40"><a xlink:title=" ">
<polygon fill="white" stroke="#bfbfbf" points="404,-347.5 404,-366.5 448,-366.5 448,-347.5 404,-347.5"/>
<text text-anchor="middle" x="426" y="-354.5" font-family="Helvetica,sans-Serif" font-size="10.00">mpi.h</text>
</a>
</g>
</g>
<!-- Node32&#45;&gt;Node40 -->
<g id="edge54" class="edge">
<title>Node32&#45;&gt;Node40</title>
<path fill="none" stroke="midnightblue" d="M347.18,-408.98C362.07,-399.34 386.54,-383.52 404.27,-372.05"/>
<polygon fill="midnightblue" stroke="midnightblue" points="406.35,-374.88 412.84,-366.51 402.55,-369 406.35,-374.88"/>
</g>
<!-- Node36&#45;&gt;Node8 -->
<g id="edge47" class="edge">
<title>Node36&#45;&gt;Node8</title>
<path fill="none" stroke="midnightblue" d="M510.04,-347.43C465.69,-312.75 299.15,-182.54 242.22,-138.03"/>
<polygon fill="midnightblue" stroke="midnightblue" points="244.09,-135.05 234.06,-131.65 239.78,-140.56 244.09,-135.05"/>
</g>
<!-- Node36&#45;&gt;Node34 -->
<g id="edge46" class="edge">
<title>Node36&#45;&gt;Node34</title>
<path fill="none" stroke="midnightblue" d="M474.1,-347.44C416.06,-336.85 318.28,-319.02 264.1,-309.13"/>
<polygon fill="midnightblue" stroke="midnightblue" points="264.65,-305.68 254.19,-307.32 263.4,-312.56 264.65,-305.68"/>
</g>
<!-- Node37 -->
<g id="node37" class="node">
<title>Node37</title>
<g id="a_node37"><a xlink:href="LogMacros_8hpp.html" target="_top" xlink:title=" ">
<polygon fill="white" stroke="black" points="485,-291.5 485,-310.5 575,-310.5 575,-291.5 485,-291.5"/>
<text text-anchor="middle" x="530" y="-298.5" font-family="Helvetica,sans-Serif" font-size="10.00">LogMacros.hpp</text>
</a>
</g>
</g>
<!-- Node36&#45;&gt;Node37 -->
<g id="edge48" class="edge">
<title>Node36&#45;&gt;Node37</title>
<path fill="none" stroke="midnightblue" d="M522.49,-347.08C523.68,-339.93 525.39,-329.64 526.88,-320.69"/>
<polygon fill="midnightblue" stroke="midnightblue" points="530.35,-321.19 528.54,-310.75 523.45,-320.04 530.35,-321.19"/>
</g>
<!-- Node37&#45;&gt;Node9 -->
<g id="edge49" class="edge">
<title>Node37&#45;&gt;Node9</title>
<path fill="none" stroke="midnightblue" d="M530.45,-291.32C531.42,-272.76 533.7,-228.84 535.01,-203.47"/>
<polygon fill="midnightblue" stroke="midnightblue" points="538.52,-203.45 535.54,-193.28 531.53,-203.09 538.52,-203.45"/>
</g>
<!-- Node37&#45;&gt;Node28 -->
<g id="edge50" class="edge">
<title>Node37&#45;&gt;Node28</title>
<path fill="none" stroke="midnightblue" d="M575.22,-293.91C643.94,-284.66 775.37,-266.96 857.81,-255.86"/>
<polygon fill="midnightblue" stroke="midnightblue" points="858.42,-259.31 867.87,-254.5 857.49,-252.37 858.42,-259.31"/>
</g>
<!-- Node38 -->
<g id="node38" class="node">
<title>Node38</title>
<g id="a_node38"><a xlink:href="Tracer_8hpp.html" target="_top" xlink:title=" ">
<polygon fill="white" stroke="black" points="403.5,-235.5 403.5,-254.5 508.5,-254.5 508.5,-235.5 403.5,-235.5"/>
<text text-anchor="middle" x="456" y="-242.5" font-family="Helvetica,sans-Serif" font-size="10.00">logging/Tracer.hpp</text>
</a>
</g>
</g>
<!-- Node37&#45;&gt;Node38 -->
<g id="edge51" class="edge">
<title>Node37&#45;&gt;Node38</title>
<path fill="none" stroke="midnightblue" d="M518.11,-291.32C506.85,-283.11 489.71,-270.6 476.29,-260.81"/>
<polygon fill="midnightblue" stroke="midnightblue" points="478.25,-257.9 468.11,-254.83 474.12,-263.56 478.25,-257.9"/>
</g>
<!-- Node38&#45;&gt;Node36 -->
<g id="edge52" class="edge">
<title>Node38&#45;&gt;Node36</title>
<path fill="none" stroke="midnightblue" d="M457.27,-254.54C459.48,-267.5 464.92,-292.59 476,-311 482.72,-322.16 492.79,-332.59 501.71,-340.59"/>
<polygon fill="midnightblue" stroke="midnightblue" points="499.57,-343.36 509.44,-347.2 504.12,-338.04 499.57,-343.36"/>
</g>
<!-- Node41&#45;&gt;Node10 -->
<g id="edge56" class="edge">
<title>Node41&#45;&gt;Node10</title>
<path fill="none" stroke="midnightblue" d="M819.35,-291.36C788.72,-276.86 729.93,-244.66 699,-199 687.46,-181.97 682.92,-158.52 681.14,-142.2"/>
<polygon fill="midnightblue" stroke="midnightblue" points="684.59,-141.43 680.27,-131.76 677.62,-142.01 684.59,-141.43"/>
</g>
<!-- Node43&#45;&gt;Node4 -->
<g id="edge59" class="edge">
<title>Node43&#45;&gt;Node4</title>
<path fill="none" stroke="midnightblue" d="M1018.84,-532.45C1120.34,-524.59 1391,-496.41 1391,-419.5 1391,-419.5 1391,-419.5 1391,-121 1391,-54.69 892.38,-21.86 738.61,-13.31"/>
<polygon fill="midnightblue" stroke="midnightblue" points="738.74,-9.81 728.56,-12.76 738.36,-16.8 738.74,-9.81"/>
</g>
<!-- Node43&#45;&gt;Node5 -->
<g id="edge60" class="edge">
<title>Node43&#45;&gt;Node5</title>
<path fill="none" stroke="midnightblue" d="M971.68,-526.32C963.11,-518.34 950.19,-506.31 939.81,-496.65"/>
<polygon fill="midnightblue" stroke="midnightblue" points="942.19,-494.09 932.49,-489.83 937.42,-499.21 942.19,-494.09"/>
</g>
</g>
</svg>
