<?xml version="1.0" encoding="UTF-8" standalone="no"?>
<!DOCTYPE svg PUBLIC "-//W3C//DTD SVG 1.1//EN"
 "http://www.w3.org/Graphics/SVG/1.1/DTD/svg11.dtd">
<!-- Generated by graphviz version 2.43.0 (0)
 -->
<!-- Title: src/math/tests/MathTest.cpp Pages: 1 -->
<svg width="2106pt" height="543pt"
 viewBox="0.00 0.00 2106.00 543.00" xmlns="http://www.w3.org/2000/svg" xmlns:xlink="http://www.w3.org/1999/xlink">
<g id="graph0" class="graph" transform="scale(1 1) rotate(0) translate(4 539)">
<title>src/math/tests/MathTest.cpp</title>
<polygon fill="white" stroke="transparent" points="-4,4 -4,-539 2102,-539 2102,4 -4,4"/>
<!-- Node1 -->
<g id="node1" class="node">
<title>Node1</title>
<g id="a_node1"><a xlink:title=" ">
<polygon fill="#bfbfbf" stroke="black" points="981,-515.5 981,-534.5 1135,-534.5 1135,-515.5 981,-515.5"/>
<text text-anchor="middle" x="1058" y="-522.5" font-family="Helvetica,sans-Serif" font-size="10.00">src/math/tests/MathTest.cpp</text>
</a>
</g>
</g>
<!-- Node2 -->
<g id="node2" class="node">
<title>Node2</title>
<g id="a_node2"><a xlink:href="LogMacros_8hpp.html" target="_top" xlink:title=" ">
<polygon fill="white" stroke="black" points="498.5,-291.5 498.5,-310.5 627.5,-310.5 627.5,-291.5 498.5,-291.5"/>
<text text-anchor="middle" x="563" y="-298.5" font-family="Helvetica,sans-Serif" font-size="10.00">logging/LogMacros.hpp</text>
</a>
</g>
</g>
<!-- Node1&#45;&gt;Node2 -->
<g id="edge1" class="edge">
<title>Node1&#45;&gt;Node2</title>
<path fill="none" stroke="midnightblue" d="M1034.35,-515.46C973.82,-493.33 808.77,-431.39 677,-367 644.26,-351 607.92,-329.62 585.27,-315.82"/>
<polygon fill="midnightblue" stroke="midnightblue" points="587.09,-312.83 576.73,-310.59 583.43,-318.8 587.09,-312.83"/>
</g>
<!-- Node26 -->
<g id="node26" class="node">
<title>Node26</title>
<g id="a_node26"><a xlink:href="Logger_8hpp.html" target="_top" xlink:title=" ">
<polygon fill="white" stroke="black" points="874,-174 874,-193 944,-193 944,-174 874,-174"/>
<text text-anchor="middle" x="909" y="-181" font-family="Helvetica,sans-Serif" font-size="10.00">Logger.hpp</text>
</a>
</g>
</g>
<!-- Node1&#45;&gt;Node26 -->
<g id="edge33" class="edge">
<title>Node1&#45;&gt;Node26</title>
<path fill="none" stroke="midnightblue" d="M1058,-515.44C1058,-496.94 1058,-451.81 1058,-414 1058,-414 1058,-414 1058,-300 1058,-260.98 1029.52,-259.31 999,-235 980.02,-219.89 955.94,-206.63 937.47,-197.5"/>
<polygon fill="midnightblue" stroke="midnightblue" points="938.9,-194.31 928.37,-193.11 935.86,-200.61 938.9,-194.31"/>
</g>
<!-- Node28 -->
<g id="node28" class="node">
<title>Node28</title>
<g id="a_node28"><a xlink:href="math_8hpp.html" target="_top" xlink:title=" ">
<polygon fill="white" stroke="black" points="900,-403.5 900,-422.5 992,-422.5 992,-403.5 900,-403.5"/>
<text text-anchor="middle" x="946" y="-410.5" font-family="Helvetica,sans-Serif" font-size="10.00">math/math.hpp</text>
</a>
</g>
</g>
<!-- Node1&#45;&gt;Node28 -->
<g id="edge34" class="edge">
<title>Node1&#45;&gt;Node28</title>
<path fill="none" stroke="midnightblue" d="M1049.21,-515.37C1030.4,-496.89 986.01,-453.29 962.03,-429.74"/>
<polygon fill="midnightblue" stroke="midnightblue" points="964.33,-427.1 954.75,-422.59 959.43,-432.1 964.33,-427.1"/>
</g>
<!-- Node45 -->
<g id="node40" class="node">
<title>Node45</title>
<g id="a_node40"><a xlink:href="TestContext_8hpp.html" target="_top" xlink:title=" ">
<polygon fill="white" stroke="black" points="1382,-291.5 1382,-310.5 1514,-310.5 1514,-291.5 1382,-291.5"/>
<text text-anchor="middle" x="1448" y="-298.5" font-family="Helvetica,sans-Serif" font-size="10.00">testing/TestContext.hpp</text>
</a>
</g>
</g>
<!-- Node1&#45;&gt;Node45 -->
<g id="edge58" class="edge">
<title>Node1&#45;&gt;Node45</title>
<path fill="none" stroke="midnightblue" d="M1135.01,-521.3C1218.89,-517.01 1346.41,-506.13 1386,-479 1432.58,-447.08 1431.79,-421.65 1446,-367 1449.95,-351.79 1450.2,-333.9 1449.6,-320.74"/>
<polygon fill="midnightblue" stroke="midnightblue" points="1453.08,-320.33 1448.93,-310.58 1446.1,-320.79 1453.08,-320.33"/>
</g>
<!-- Node50 -->
<g id="node45" class="node">
<title>Node50</title>
<g id="a_node45"><a xlink:href="Testing_8hpp.html" target="_top" xlink:title=" ">
<polygon fill="white" stroke="black" points="1267.5,-459.5 1267.5,-478.5 1376.5,-478.5 1376.5,-459.5 1267.5,-459.5"/>
<text text-anchor="middle" x="1322" y="-466.5" font-family="Helvetica,sans-Serif" font-size="10.00">testing/Testing.hpp</text>
</a>
</g>
</g>
<!-- Node1&#45;&gt;Node50 -->
<g id="edge68" class="edge">
<title>Node1&#45;&gt;Node50</title>
<path fill="none" stroke="midnightblue" d="M1099.83,-515.44C1146.08,-505.98 1220.61,-490.74 1270.44,-480.55"/>
<polygon fill="midnightblue" stroke="midnightblue" points="1271.27,-483.95 1280.36,-478.52 1269.87,-477.09 1271.27,-483.95"/>
</g>
<!-- Node3 -->
<g id="node3" class="node">
<title>Node3</title>
<g id="a_node3"><a xlink:href="fmt_8hpp.html" target="_top" xlink:title=" ">
<polygon fill="white" stroke="black" points="28.5,-174 28.5,-193 107.5,-193 107.5,-174 28.5,-174"/>
<text text-anchor="middle" x="68" y="-181" font-family="Helvetica,sans-Serif" font-size="10.00">utils/fmt.hpp</text>
</a>
</g>
</g>
<!-- Node2&#45;&gt;Node3 -->
<g id="edge2" class="edge">
<title>Node2&#45;&gt;Node3</title>
<path fill="none" stroke="midnightblue" d="M498.37,-293.22C439.37,-286.26 350.04,-273.78 274,-255 210.23,-239.25 138.11,-212.4 98.37,-196.77"/>
<polygon fill="midnightblue" stroke="midnightblue" points="99.57,-193.49 88.98,-193.06 96.99,-199.99 99.57,-193.49"/>
</g>
<!-- Node19 -->
<g id="node19" class="node">
<title>Node19</title>
<g id="a_node19"><a xlink:href="ArgumentFormatter_8hpp.html" target="_top" xlink:title=" ">
<polygon fill="white" stroke="black" points="377.5,-235.5 377.5,-254.5 534.5,-254.5 534.5,-235.5 377.5,-235.5"/>
<text text-anchor="middle" x="456" y="-242.5" font-family="Helvetica,sans-Serif" font-size="10.00">utils/ArgumentFormatter.hpp</text>
</a>
</g>
</g>
<!-- Node2&#45;&gt;Node19 -->
<g id="edge21" class="edge">
<title>Node2&#45;&gt;Node19</title>
<path fill="none" stroke="midnightblue" d="M545.81,-291.32C528.65,-282.66 502.05,-269.24 482.25,-259.25"/>
<polygon fill="midnightblue" stroke="midnightblue" points="483.65,-256.04 473.15,-254.65 480.5,-262.28 483.65,-256.04"/>
</g>
<!-- Node25 -->
<g id="node25" class="node">
<title>Node25</title>
<g id="a_node25"><a xlink:href="Tracer_8hpp.html" target="_top" xlink:title=" ">
<polygon fill="white" stroke="black" points="667.5,-235.5 667.5,-254.5 772.5,-254.5 772.5,-235.5 667.5,-235.5"/>
<text text-anchor="middle" x="720" y="-242.5" font-family="Helvetica,sans-Serif" font-size="10.00">logging/Tracer.hpp</text>
</a>
</g>
</g>
<!-- Node2&#45;&gt;Node25 -->
<g id="edge28" class="edge">
<title>Node2&#45;&gt;Node25</title>
<path fill="none" stroke="midnightblue" d="M587.88,-291.44C614.29,-282.36 656.22,-267.94 685.74,-257.78"/>
<polygon fill="midnightblue" stroke="midnightblue" points="686.92,-261.08 695.24,-254.52 684.64,-254.46 686.92,-261.08"/>
</g>
<!-- Node4 -->
<g id="node4" class="node">
<title>Node4</title>
<g id="a_node4"><a xlink:title=" ">
<polygon fill="white" stroke="#bfbfbf" points="1171,-112.5 1171,-131.5 1215,-131.5 1215,-112.5 1171,-112.5"/>
<text text-anchor="middle" x="1193" y="-119.5" font-family="Helvetica,sans-Serif" font-size="10.00">string</text>
</a>
</g>
</g>
<!-- Node3&#45;&gt;Node4 -->
<g id="edge3" class="edge">
<title>Node3&#45;&gt;Node4</title>
<path fill="none" stroke="midnightblue" d="M92.14,-173.92C99.68,-171.58 108.1,-169.34 116,-168 221.06,-150.23 991.6,-128.46 1160.39,-123.87"/>
<polygon fill="midnightblue" stroke="midnightblue" points="1160.72,-127.37 1170.62,-123.6 1160.53,-120.37 1160.72,-127.37"/>
</g>
<!-- Node5 -->
<g id="node5" class="node">
<title>Node5</title>
<g id="a_node5"><a xlink:title=" ">
<polygon fill="white" stroke="#bfbfbf" points="744.5,-112.5 744.5,-131.5 817.5,-131.5 817.5,-112.5 744.5,-112.5"/>
<text text-anchor="middle" x="781" y="-119.5" font-family="Helvetica,sans-Serif" font-size="10.00">string_view</text>
</a>
</g>
</g>
<!-- Node3&#45;&gt;Node5 -->
<g id="edge4" class="edge">
<title>Node3&#45;&gt;Node5</title>
<path fill="none" stroke="midnightblue" d="M92.15,-174C99.7,-171.67 108.11,-169.4 116,-168 384.02,-120.41 459.75,-165.41 734.15,-131.9"/>
<polygon fill="midnightblue" stroke="midnightblue" points="734.92,-135.33 744.41,-130.62 734.06,-128.38 734.92,-135.33"/>
</g>
<!-- Node6 -->
<g id="node6" class="node">
<title>Node6</title>
<g id="a_node6"><a xlink:title=" ">
<polygon fill="white" stroke="#bfbfbf" points="548.5,-56.5 548.5,-75.5 627.5,-75.5 627.5,-56.5 548.5,-56.5"/>
<text text-anchor="middle" x="588" y="-63.5" font-family="Helvetica,sans-Serif" font-size="10.00">fmt/format.h</text>
</a>
</g>
</g>
<!-- Node3&#45;&gt;Node6 -->
<g id="edge5" class="edge">
<title>Node3&#45;&gt;Node6</title>
<path fill="none" stroke="midnightblue" d="M93.18,-173.92C100.47,-171.71 108.49,-169.52 116,-168 264.94,-137.9 310.03,-174.22 456,-132 496.69,-120.23 540.05,-96.44 565.55,-81.14"/>
<polygon fill="midnightblue" stroke="midnightblue" points="567.69,-83.93 574.4,-75.73 564.04,-77.95 567.69,-83.93"/>
</g>
<!-- Node7 -->
<g id="node7" class="node">
<title>Node7</title>
<g id="a_node7"><a xlink:title=" ">
<polygon fill="white" stroke="#bfbfbf" points="28,-112.5 28,-131.5 114,-131.5 114,-112.5 28,-112.5"/>
<text text-anchor="middle" x="71" y="-119.5" font-family="Helvetica,sans-Serif" font-size="10.00">fmt/ostream.h</text>
</a>
</g>
</g>
<!-- Node3&#45;&gt;Node7 -->
<g id="edge6" class="edge">
<title>Node3&#45;&gt;Node7</title>
<path fill="none" stroke="midnightblue" d="M68.43,-173.98C68.85,-165.58 69.51,-152.48 70.06,-141.66"/>
<polygon fill="midnightblue" stroke="midnightblue" points="73.56,-141.67 70.57,-131.51 66.57,-141.32 73.56,-141.67"/>
</g>
<!-- Node8 -->
<g id="node8" class="node">
<title>Node8</title>
<g id="a_node8"><a xlink:href="fmtEigen_8hpp.html" target="_top" xlink:title=" ">
<polygon fill="white" stroke="black" points="341,-112.5 341,-131.5 447,-131.5 447,-112.5 341,-112.5"/>
<text text-anchor="middle" x="394" y="-119.5" font-family="Helvetica,sans-Serif" font-size="10.00">utils/fmtEigen.hpp</text>
</a>
</g>
</g>
<!-- Node3&#45;&gt;Node8 -->
<g id="edge7" class="edge">
<title>Node3&#45;&gt;Node8</title>
<path fill="none" stroke="midnightblue" d="M93.99,-173.96C101.08,-171.82 108.79,-169.66 116,-168 188.88,-151.17 273.93,-138.39 330.58,-130.82"/>
<polygon fill="midnightblue" stroke="midnightblue" points="331.36,-134.25 340.82,-129.47 330.44,-127.31 331.36,-134.25"/>
</g>
<!-- Node13 -->
<g id="node13" class="node">
<title>Node13</title>
<g id="a_node13"><a xlink:href="fmtSTL_8hpp.html" target="_top" xlink:title=" ">
<polygon fill="white" stroke="black" points="630,-112.5 630,-131.5 726,-131.5 726,-112.5 630,-112.5"/>
<text text-anchor="middle" x="678" y="-119.5" font-family="Helvetica,sans-Serif" font-size="10.00">utils/fmtSTL.hpp</text>
</a>
</g>
</g>
<!-- Node3&#45;&gt;Node13 -->
<g id="edge14" class="edge">
<title>Node3&#45;&gt;Node13</title>
<path fill="none" stroke="midnightblue" d="M92.66,-173.93C100.08,-171.66 108.3,-169.44 116,-168 321.49,-129.55 376.72,-150.07 585,-132 596.25,-131.02 608.26,-129.91 619.78,-128.81"/>
<polygon fill="midnightblue" stroke="midnightblue" points="620.13,-132.3 629.75,-127.85 619.46,-125.33 620.13,-132.3"/>
</g>
<!-- Node8&#45;&gt;Node6 -->
<g id="edge10" class="edge">
<title>Node8&#45;&gt;Node6</title>
<path fill="none" stroke="midnightblue" d="M424.74,-112.44C457.94,-103.2 510.99,-88.44 547.56,-78.26"/>
<polygon fill="midnightblue" stroke="midnightblue" points="548.71,-81.57 557.4,-75.52 546.83,-74.83 548.71,-81.57"/>
</g>
<!-- Node9 -->
<g id="node9" class="node">
<title>Node9</title>
<g id="a_node9"><a xlink:title=" ">
<polygon fill="white" stroke="#bfbfbf" points="640.5,-0.5 640.5,-19.5 709.5,-19.5 709.5,-0.5 640.5,-0.5"/>
<text text-anchor="middle" x="675" y="-7.5" font-family="Helvetica,sans-Serif" font-size="10.00">Eigen/Core</text>
</a>
</g>
</g>
<!-- Node8&#45;&gt;Node9 -->
<g id="edge8" class="edge">
<title>Node8&#45;&gt;Node9</title>
<path fill="none" stroke="midnightblue" d="M415.29,-112.42C436.81,-103.64 470.96,-89.41 500,-76 518.05,-67.67 521.64,-63.61 540,-56 571.47,-42.96 608.21,-30.92 635.4,-22.57"/>
<polygon fill="midnightblue" stroke="midnightblue" points="636.77,-25.81 645.33,-19.56 634.74,-19.12 636.77,-25.81"/>
</g>
<!-- Node10 -->
<g id="node10" class="node">
<title>Node10</title>
<g id="a_node10"><a xlink:title=" ">
<polygon fill="white" stroke="#bfbfbf" points="236,-56.5 236,-75.5 300,-75.5 300,-56.5 236,-56.5"/>
<text text-anchor="middle" x="268" y="-63.5" font-family="Helvetica,sans-Serif" font-size="10.00">algorithm</text>
</a>
</g>
</g>
<!-- Node8&#45;&gt;Node10 -->
<g id="edge9" class="edge">
<title>Node8&#45;&gt;Node10</title>
<path fill="none" stroke="midnightblue" d="M374.03,-112.44C353.39,-103.6 320.94,-89.69 297.37,-79.59"/>
<polygon fill="midnightblue" stroke="midnightblue" points="298.44,-76.24 287.87,-75.52 295.68,-82.67 298.44,-76.24"/>
</g>
<!-- Node11 -->
<g id="node11" class="node">
<title>Node11</title>
<g id="a_node11"><a xlink:title=" ">
<polygon fill="white" stroke="#bfbfbf" points="318,-56.5 318,-75.5 374,-75.5 374,-56.5 318,-56.5"/>
<text text-anchor="middle" x="346" y="-63.5" font-family="Helvetica,sans-Serif" font-size="10.00">sstream</text>
</a>
</g>
</g>
<!-- Node8&#45;&gt;Node11 -->
<g id="edge11" class="edge">
<title>Node8&#45;&gt;Node11</title>
<path fill="none" stroke="midnightblue" d="M386.07,-112.08C379.15,-104.3 368.93,-92.8 360.55,-83.37"/>
<polygon fill="midnightblue" stroke="midnightblue" points="363.04,-80.9 353.78,-75.75 357.81,-85.55 363.04,-80.9"/>
</g>
<!-- Node12 -->
<g id="node12" class="node">
<title>Node12</title>
<g id="a_node12"><a xlink:href="EigenIO_8hpp.html" target="_top" xlink:title=" ">
<polygon fill="white" stroke="black" points="392.5,-56.5 392.5,-75.5 491.5,-75.5 491.5,-56.5 392.5,-56.5"/>
<text text-anchor="middle" x="442" y="-63.5" font-family="Helvetica,sans-Serif" font-size="10.00">utils/EigenIO.hpp</text>
</a>
</g>
</g>
<!-- Node8&#45;&gt;Node12 -->
<g id="edge12" class="edge">
<title>Node8&#45;&gt;Node12</title>
<path fill="none" stroke="midnightblue" d="M401.93,-112.08C408.85,-104.3 419.07,-92.8 427.45,-83.37"/>
<polygon fill="midnightblue" stroke="midnightblue" points="430.19,-85.55 434.22,-75.75 424.96,-80.9 430.19,-85.55"/>
</g>
<!-- Node12&#45;&gt;Node9 -->
<g id="edge13" class="edge">
<title>Node12&#45;&gt;Node9</title>
<path fill="none" stroke="midnightblue" d="M478.92,-56.44C519.99,-46.92 586.34,-31.55 630.31,-21.36"/>
<polygon fill="midnightblue" stroke="midnightblue" points="631.2,-24.74 640.16,-19.08 629.62,-17.92 631.2,-24.74"/>
</g>
<!-- Node13&#45;&gt;Node6 -->
<g id="edge17" class="edge">
<title>Node13&#45;&gt;Node6</title>
<path fill="none" stroke="midnightblue" d="M663.54,-112.32C649.5,-103.9 627.95,-90.97 611.46,-81.07"/>
<polygon fill="midnightblue" stroke="midnightblue" points="612.8,-77.8 602.42,-75.65 609.2,-83.8 612.8,-77.8"/>
</g>
<!-- Node14 -->
<g id="node14" class="node">
<title>Node14</title>
<g id="a_node14"><a xlink:title=" ">
<polygon fill="white" stroke="#bfbfbf" points="1058,-56.5 1058,-75.5 1100,-75.5 1100,-56.5 1058,-56.5"/>
<text text-anchor="middle" x="1079" y="-63.5" font-family="Helvetica,sans-Serif" font-size="10.00">array</text>
</a>
</g>
</g>
<!-- Node13&#45;&gt;Node14 -->
<g id="edge15" class="edge">
<title>Node13&#45;&gt;Node14</title>
<path fill="none" stroke="midnightblue" d="M726.09,-113.45C729.44,-112.95 732.77,-112.46 736,-112 850.69,-95.58 987.31,-78.35 1047.68,-70.86"/>
<polygon fill="midnightblue" stroke="midnightblue" points="1048.21,-74.32 1057.7,-69.62 1047.35,-67.37 1048.21,-74.32"/>
</g>
<!-- Node15 -->
<g id="node15" class="node">
<title>Node15</title>
<g id="a_node15"><a xlink:title=" ">
<polygon fill="white" stroke="#bfbfbf" points="696.5,-56.5 696.5,-75.5 743.5,-75.5 743.5,-56.5 696.5,-56.5"/>
<text text-anchor="middle" x="720" y="-63.5" font-family="Helvetica,sans-Serif" font-size="10.00">deque</text>
</a>
</g>
</g>
<!-- Node13&#45;&gt;Node15 -->
<g id="edge16" class="edge">
<title>Node13&#45;&gt;Node15</title>
<path fill="none" stroke="midnightblue" d="M684.94,-112.08C690.93,-104.38 699.75,-93.03 707.05,-83.65"/>
<polygon fill="midnightblue" stroke="midnightblue" points="709.82,-85.79 713.19,-75.75 704.29,-81.5 709.82,-85.79"/>
</g>
<!-- Node16 -->
<g id="node16" class="node">
<title>Node16</title>
<g id="a_node16"><a xlink:title=" ">
<polygon fill="white" stroke="#bfbfbf" points="762,-56.5 762,-75.5 800,-75.5 800,-56.5 762,-56.5"/>
<text text-anchor="middle" x="781" y="-63.5" font-family="Helvetica,sans-Serif" font-size="10.00">map</text>
</a>
</g>
</g>
<!-- Node13&#45;&gt;Node16 -->
<g id="edge18" class="edge">
<title>Node13&#45;&gt;Node16</title>
<path fill="none" stroke="midnightblue" d="M694.55,-112.32C710.99,-103.7 736.43,-90.36 755.47,-80.39"/>
<polygon fill="midnightblue" stroke="midnightblue" points="757.26,-83.4 764.49,-75.65 754.01,-77.2 757.26,-83.4"/>
</g>
<!-- Node17 -->
<g id="node17" class="node">
<title>Node17</title>
<g id="a_node17"><a xlink:title=" ">
<polygon fill="white" stroke="#bfbfbf" points="646,-56.5 646,-75.5 678,-75.5 678,-56.5 646,-56.5"/>
<text text-anchor="middle" x="662" y="-63.5" font-family="Helvetica,sans-Serif" font-size="10.00">set</text>
</a>
</g>
</g>
<!-- Node13&#45;&gt;Node17 -->
<g id="edge19" class="edge">
<title>Node13&#45;&gt;Node17</title>
<path fill="none" stroke="midnightblue" d="M675.36,-112.08C673.21,-104.85 670.12,-94.41 667.45,-85.4"/>
<polygon fill="midnightblue" stroke="midnightblue" points="670.79,-84.34 664.59,-75.75 664.08,-86.33 670.79,-84.34"/>
</g>
<!-- Node18 -->
<g id="node18" class="node">
<title>Node18</title>
<g id="a_node18"><a xlink:title=" ">
<polygon fill="white" stroke="#bfbfbf" points="1302.5,-56.5 1302.5,-75.5 1349.5,-75.5 1349.5,-56.5 1302.5,-56.5"/>
<text text-anchor="middle" x="1326" y="-63.5" font-family="Helvetica,sans-Serif" font-size="10.00">vector</text>
</a>
</g>
</g>
<!-- Node13&#45;&gt;Node18 -->
<g id="edge20" class="edge">
<title>Node13&#45;&gt;Node18</title>
<path fill="none" stroke="midnightblue" d="M726.07,-113.25C729.43,-112.8 732.76,-112.37 736,-112 946.84,-87.64 1201.64,-73.29 1292.12,-68.66"/>
<polygon fill="midnightblue" stroke="midnightblue" points="1292.52,-72.14 1302.33,-68.14 1292.17,-65.15 1292.52,-72.14"/>
</g>
<!-- Node19&#45;&gt;Node3 -->
<g id="edge27" class="edge">
<title>Node19&#45;&gt;Node3</title>
<path fill="none" stroke="midnightblue" d="M377.4,-237.24C308.08,-230.41 204.61,-218.12 116,-199 111.84,-198.1 107.51,-197.02 103.24,-195.85"/>
<polygon fill="midnightblue" stroke="midnightblue" points="104.04,-192.44 93.46,-193.03 102.09,-199.16 104.04,-192.44"/>
</g>
<!-- Node20 -->
<g id="node20" class="node">
<title>Node20</title>
<g id="a_node20"><a xlink:title=" ">
<polygon fill="white" stroke="#bfbfbf" points="542,-168.5 542,-198.5 652,-198.5 652,-168.5 542,-168.5"/>
<text text-anchor="start" x="550" y="-186.5" font-family="Helvetica,sans-Serif" font-size="10.00">boost/preprocessor</text>
<text text-anchor="middle" x="597" y="-175.5" font-family="Helvetica,sans-Serif" font-size="10.00">/control/if.hpp</text>
</a>
</g>
</g>
<!-- Node19&#45;&gt;Node20 -->
<g id="edge22" class="edge">
<title>Node19&#45;&gt;Node20</title>
<path fill="none" stroke="midnightblue" d="M476.2,-235.48C496.55,-226.89 528.56,-213.38 554.51,-202.43"/>
<polygon fill="midnightblue" stroke="midnightblue" points="555.92,-205.64 563.77,-198.52 553.2,-199.19 555.92,-205.64"/>
</g>
<!-- Node21 -->
<g id="node21" class="node">
<title>Node21</title>
<g id="a_node21"><a xlink:title=" ">
<polygon fill="white" stroke="#bfbfbf" points="125.5,-168.5 125.5,-198.5 236.5,-198.5 236.5,-168.5 125.5,-168.5"/>
<text text-anchor="start" x="133.5" y="-186.5" font-family="Helvetica,sans-Serif" font-size="10.00">boost/preprocessor</text>
<text text-anchor="middle" x="181" y="-175.5" font-family="Helvetica,sans-Serif" font-size="10.00">/seq/for_each_i.hpp</text>
</a>
</g>
</g>
<!-- Node19&#45;&gt;Node21 -->
<g id="edge23" class="edge">
<title>Node19&#45;&gt;Node21</title>
<path fill="none" stroke="midnightblue" d="M415.12,-235.44C374.67,-226.94 310.71,-213.4 246.69,-199.36"/>
<polygon fill="midnightblue" stroke="midnightblue" points="247.36,-195.92 236.84,-197.19 245.85,-202.76 247.36,-195.92"/>
</g>
<!-- Node22 -->
<g id="node22" class="node">
<title>Node22</title>
<g id="a_node22"><a xlink:title=" ">
<polygon fill="white" stroke="#bfbfbf" points="670,-168.5 670,-198.5 780,-198.5 780,-168.5 670,-168.5"/>
<text text-anchor="start" x="678" y="-186.5" font-family="Helvetica,sans-Serif" font-size="10.00">boost/preprocessor</text>
<text text-anchor="middle" x="725" y="-175.5" font-family="Helvetica,sans-Serif" font-size="10.00">/stringize.hpp</text>
</a>
</g>
</g>
<!-- Node19&#45;&gt;Node22 -->
<g id="edge24" class="edge">
<title>Node19&#45;&gt;Node22</title>
<path fill="none" stroke="midnightblue" d="M495.32,-235.45C534.5,-226.91 596.67,-213.32 659.72,-199.28"/>
<polygon fill="midnightblue" stroke="midnightblue" points="660.85,-202.61 669.85,-197.02 659.33,-195.78 660.85,-202.61"/>
</g>
<!-- Node23 -->
<g id="node23" class="node">
<title>Node23</title>
<g id="a_node23"><a xlink:title=" ">
<polygon fill="white" stroke="#bfbfbf" points="254.5,-168.5 254.5,-198.5 369.5,-198.5 369.5,-168.5 254.5,-168.5"/>
<text text-anchor="start" x="262.5" y="-186.5" font-family="Helvetica,sans-Serif" font-size="10.00">boost/preprocessor</text>
<text text-anchor="middle" x="312" y="-175.5" font-family="Helvetica,sans-Serif" font-size="10.00">/variadic/to_seq.hpp</text>
</a>
</g>
</g>
<!-- Node19&#45;&gt;Node23 -->
<g id="edge25" class="edge">
<title>Node19&#45;&gt;Node23</title>
<path fill="none" stroke="midnightblue" d="M435.37,-235.48C414.59,-226.89 381.9,-213.38 355.39,-202.43"/>
<polygon fill="midnightblue" stroke="midnightblue" points="356.52,-199.11 345.94,-198.52 353.84,-205.58 356.52,-199.11"/>
</g>
<!-- Node24 -->
<g id="node24" class="node">
<title>Node24</title>
<g id="a_node24"><a xlink:title=" ">
<polygon fill="white" stroke="#bfbfbf" points="388,-174 388,-193 524,-193 524,-174 388,-174"/>
<text text-anchor="middle" x="456" y="-181" font-family="Helvetica,sans-Serif" font-size="10.00">boost/vmd/is_empty.hpp</text>
</a>
</g>
</g>
<!-- Node19&#45;&gt;Node24 -->
<g id="edge26" class="edge">
<title>Node19&#45;&gt;Node24</title>
<path fill="none" stroke="midnightblue" d="M456,-235.48C456,-227.08 456,-213.98 456,-203.16"/>
<polygon fill="midnightblue" stroke="midnightblue" points="459.5,-203.01 456,-193.01 452.5,-203.01 459.5,-203.01"/>
</g>
<!-- Node25&#45;&gt;Node26 -->
<g id="edge29" class="edge">
<title>Node25&#45;&gt;Node26</title>
<path fill="none" stroke="midnightblue" d="M747.08,-235.48C779.92,-225.14 835.43,-207.66 872.15,-196.1"/>
<polygon fill="midnightblue" stroke="midnightblue" points="873.48,-199.35 881.97,-193.01 871.38,-192.67 873.48,-199.35"/>
</g>
<!-- Node26&#45;&gt;Node2 -->
<g id="edge32" class="edge">
<title>Node26&#45;&gt;Node2</title>
<path fill="none" stroke="midnightblue" d="M873.58,-189.89C814.22,-199.21 697.38,-218.9 659,-235 629.33,-247.45 599.29,-269.69 580.9,-284.65"/>
<polygon fill="midnightblue" stroke="midnightblue" points="578.32,-282.24 572.86,-291.33 582.79,-287.63 578.32,-282.24"/>
</g>
<!-- Node26&#45;&gt;Node5 -->
<g id="edge31" class="edge">
<title>Node26&#45;&gt;Node5</title>
<path fill="none" stroke="midnightblue" d="M890.66,-173.98C869.18,-163.99 833.38,-147.35 808.55,-135.81"/>
<polygon fill="midnightblue" stroke="midnightblue" points="809.85,-132.55 799.31,-131.51 806.9,-138.9 809.85,-132.55"/>
</g>
<!-- Node27 -->
<g id="node27" class="node">
<title>Node27</title>
<g id="a_node27"><a xlink:title=" ">
<polygon fill="white" stroke="#bfbfbf" points="1406,-112.5 1406,-131.5 1464,-131.5 1464,-112.5 1406,-112.5"/>
<text text-anchor="middle" x="1435" y="-119.5" font-family="Helvetica,sans-Serif" font-size="10.00">memory</text>
</a>
</g>
</g>
<!-- Node26&#45;&gt;Node27 -->
<g id="edge30" class="edge">
<title>Node26&#45;&gt;Node27</title>
<path fill="none" stroke="midnightblue" d="M931.57,-173.98C938.37,-171.71 945.91,-169.48 953,-168 1114.97,-134.2 1312.88,-125.77 1395.66,-123.68"/>
<polygon fill="midnightblue" stroke="midnightblue" points="1395.95,-127.18 1405.87,-123.44 1395.79,-120.18 1395.95,-127.18"/>
</g>
<!-- Node29 -->
<g id="node29" class="node">
<title>Node29</title>
<g id="a_node29"><a xlink:href="constants_8hpp.html" target="_top" xlink:title=" ">
<polygon fill="white" stroke="black" points="778.5,-347.5 778.5,-366.5 891.5,-366.5 891.5,-347.5 778.5,-347.5"/>
<text text-anchor="middle" x="835" y="-354.5" font-family="Helvetica,sans-Serif" font-size="10.00">math/constants.hpp</text>
</a>
</g>
</g>
<!-- Node28&#45;&gt;Node29 -->
<g id="edge35" class="edge">
<title>Node28&#45;&gt;Node29</title>
<path fill="none" stroke="midnightblue" d="M928.17,-403.32C910.28,-394.62 882.52,-381.12 861.95,-371.11"/>
<polygon fill="midnightblue" stroke="midnightblue" points="863.31,-367.88 852.79,-366.65 860.25,-374.18 863.31,-367.88"/>
</g>
<!-- Node30 -->
<g id="node30" class="node">
<title>Node30</title>
<g id="a_node30"><a xlink:href="differences_8hpp.html" target="_top" xlink:title=" ">
<polygon fill="white" stroke="black" points="910,-347.5 910,-366.5 1030,-366.5 1030,-347.5 910,-347.5"/>
<text text-anchor="middle" x="970" y="-354.5" font-family="Helvetica,sans-Serif" font-size="10.00">math/differences.hpp</text>
</a>
</g>
</g>
<!-- Node28&#45;&gt;Node30 -->
<g id="edge36" class="edge">
<title>Node28&#45;&gt;Node30</title>
<path fill="none" stroke="midnightblue" d="M949.96,-403.08C953.21,-395.77 957.92,-385.18 961.95,-376.1"/>
<polygon fill="midnightblue" stroke="midnightblue" points="965.25,-377.31 966.11,-366.75 958.85,-374.47 965.25,-377.31"/>
</g>
<!-- Node44 -->
<g id="node39" class="node">
<title>Node44</title>
<g id="a_node39"><a xlink:href="la_8hpp.html" target="_top" xlink:title=" ">
<polygon fill="white" stroke="black" points="685.5,-347.5 685.5,-366.5 760.5,-366.5 760.5,-347.5 685.5,-347.5"/>
<text text-anchor="middle" x="723" y="-354.5" font-family="Helvetica,sans-Serif" font-size="10.00">math/la.hpp</text>
</a>
</g>
</g>
<!-- Node28&#45;&gt;Node44 -->
<g id="edge55" class="edge">
<title>Node28&#45;&gt;Node44</title>
<path fill="none" stroke="midnightblue" d="M910.66,-403.44C872.09,-394.1 810.22,-379.12 768.15,-368.93"/>
<polygon fill="midnightblue" stroke="midnightblue" points="768.71,-365.47 758.17,-366.52 767.07,-372.27 768.71,-365.47"/>
</g>
<!-- Node30&#45;&gt;Node9 -->
<g id="edge37" class="edge">
<title>Node30&#45;&gt;Node9</title>
<path fill="none" stroke="midnightblue" d="M972.7,-347.34C978.81,-325.9 991.29,-269.63 966,-235 937.9,-196.51 899.21,-232.17 865,-199 816,-151.49 858.44,-103.06 809,-56 784.86,-33.02 748.61,-21.76 719.91,-16.25"/>
<polygon fill="midnightblue" stroke="midnightblue" points="720.16,-12.74 709.71,-14.47 718.96,-19.63 720.16,-12.74"/>
</g>
<!-- Node31 -->
<g id="node31" class="node">
<title>Node31</title>
<g id="a_node31"><a xlink:href="assertion_8hpp.html" target="_top" xlink:title=" ">
<polygon fill="white" stroke="red" points="708.5,-291.5 708.5,-310.5 815.5,-310.5 815.5,-291.5 708.5,-291.5"/>
<text text-anchor="middle" x="762" y="-298.5" font-family="Helvetica,sans-Serif" font-size="10.00">utils/assertion.hpp</text>
</a>
</g>
</g>
<!-- Node30&#45;&gt;Node31 -->
<g id="edge38" class="edge">
<title>Node30&#45;&gt;Node31</title>
<path fill="none" stroke="midnightblue" d="M937.04,-347.44C901.21,-338.14 843.84,-323.25 804.61,-313.06"/>
<polygon fill="midnightblue" stroke="midnightblue" points="805.36,-309.64 794.8,-310.52 803.6,-316.42 805.36,-309.64"/>
</g>
<!-- Node31&#45;&gt;Node3 -->
<g id="edge42" class="edge">
<title>Node31&#45;&gt;Node3</title>
<path fill="none" stroke="midnightblue" d="M708.22,-295.66C632.13,-289.11 488.86,-275.27 368,-255 254.85,-236.02 226.99,-228.05 116,-199 112.38,-198.05 108.61,-197.01 104.86,-195.94"/>
<polygon fill="midnightblue" stroke="midnightblue" points="105.64,-192.52 95.06,-193.06 103.67,-199.24 105.64,-192.52"/>
</g>
<!-- Node31&#45;&gt;Node5 -->
<g id="edge41" class="edge">
<title>Node31&#45;&gt;Node5</title>
<path fill="none" stroke="midnightblue" d="M766.78,-291.32C771.44,-282.46 778.33,-268.18 782,-255 792.4,-217.63 792.41,-206.64 789,-168 788.22,-159.2 786.61,-149.54 785.03,-141.43"/>
<polygon fill="midnightblue" stroke="midnightblue" points="788.44,-140.65 782.99,-131.57 781.59,-142.07 788.44,-140.65"/>
</g>
<!-- Node31&#45;&gt;Node19 -->
<g id="edge45" class="edge">
<title>Node31&#45;&gt;Node19</title>
<path fill="none" stroke="midnightblue" d="M713.51,-291.44C659.46,-281.9 572.07,-266.48 514.33,-256.29"/>
<polygon fill="midnightblue" stroke="midnightblue" points="514.72,-252.81 504.26,-254.52 513.5,-259.7 514.72,-252.81"/>
</g>
<!-- Node31&#45;&gt;Node20 -->
<g id="edge43" class="edge">
<title>Node31&#45;&gt;Node20</title>
<path fill="none" stroke="midnightblue" d="M728.29,-291.45C704.96,-284.36 674.07,-272.58 651,-255 634.14,-242.15 619.82,-222.78 610.17,-207.58"/>
<polygon fill="midnightblue" stroke="midnightblue" points="612.98,-205.47 604.78,-198.76 607.01,-209.12 612.98,-205.47"/>
</g>
<!-- Node31&#45;&gt;Node22 -->
<g id="edge44" class="edge">
<title>Node31&#45;&gt;Node22</title>
<path fill="none" stroke="midnightblue" d="M714.67,-291.42C693.9,-285.05 671.45,-274.02 659,-255 646.49,-235.89 665.99,-217.15 686.97,-203.8"/>
<polygon fill="midnightblue" stroke="midnightblue" points="688.86,-206.75 695.64,-198.61 685.26,-200.74 688.86,-206.75"/>
</g>
<!-- Node32 -->
<g id="node32" class="node">
<title>Node32</title>
<g id="a_node32"><a xlink:title=" ">
<polygon fill="white" stroke="#bfbfbf" points="829.5,-235.5 829.5,-254.5 878.5,-254.5 878.5,-235.5 829.5,-235.5"/>
<text text-anchor="middle" x="854" y="-242.5" font-family="Helvetica,sans-Serif" font-size="10.00">cstdlib</text>
</a>
</g>
</g>
<!-- Node31&#45;&gt;Node32 -->
<g id="edge39" class="edge">
<title>Node31&#45;&gt;Node32</title>
<path fill="none" stroke="midnightblue" d="M776.78,-291.32C791.27,-282.82 813.57,-269.73 830.49,-259.8"/>
<polygon fill="midnightblue" stroke="midnightblue" points="832.4,-262.74 839.26,-254.65 828.86,-256.7 832.4,-262.74"/>
</g>
<!-- Node33 -->
<g id="node33" class="node">
<title>Node33</title>
<g id="a_node33"><a xlink:title=" ">
<polygon fill="white" stroke="#bfbfbf" points="897,-235.5 897,-254.5 957,-254.5 957,-235.5 897,-235.5"/>
<text text-anchor="middle" x="927" y="-242.5" font-family="Helvetica,sans-Serif" font-size="10.00">iostream</text>
</a>
</g>
</g>
<!-- Node31&#45;&gt;Node33 -->
<g id="edge40" class="edge">
<title>Node31&#45;&gt;Node33</title>
<path fill="none" stroke="midnightblue" d="M788.14,-291.44C816.02,-282.32 860.35,-267.81 891.4,-257.65"/>
<polygon fill="midnightblue" stroke="midnightblue" points="892.56,-260.95 900.98,-254.52 890.38,-254.3 892.56,-260.95"/>
</g>
<!-- Node37 -->
<g id="node34" class="node">
<title>Node37</title>
<g id="a_node34"><a xlink:href="Parallel_8hpp.html" target="_top" xlink:title=" ">
<polygon fill="white" stroke="black" points="1086,-235.5 1086,-254.5 1184,-254.5 1184,-235.5 1086,-235.5"/>
<text text-anchor="middle" x="1135" y="-242.5" font-family="Helvetica,sans-Serif" font-size="10.00">utils/Parallel.hpp</text>
</a>
</g>
</g>
<!-- Node31&#45;&gt;Node37 -->
<g id="edge46" class="edge">
<title>Node31&#45;&gt;Node37</title>
<path fill="none" stroke="midnightblue" d="M815.84,-292.21C884.87,-282.21 1004.18,-264.94 1075.74,-254.58"/>
<polygon fill="midnightblue" stroke="midnightblue" points="1076.54,-258 1085.93,-253.1 1075.54,-251.07 1076.54,-258"/>
</g>
<!-- Node37&#45;&gt;Node4 -->
<g id="edge50" class="edge">
<title>Node37&#45;&gt;Node4</title>
<path fill="none" stroke="midnightblue" d="M1139.17,-235.3C1148.62,-215.59 1171.81,-167.21 1184.45,-140.84"/>
<polygon fill="midnightblue" stroke="midnightblue" points="1187.7,-142.15 1188.87,-131.62 1181.39,-139.13 1187.7,-142.15"/>
</g>
<!-- Node37&#45;&gt;Node18 -->
<g id="edge51" class="edge">
<title>Node37&#45;&gt;Node18</title>
<path fill="none" stroke="midnightblue" d="M1144.21,-235.46C1174.27,-207.61 1269.77,-119.11 1308.97,-82.79"/>
<polygon fill="midnightblue" stroke="midnightblue" points="1311.47,-85.23 1316.43,-75.87 1306.72,-80.1 1311.47,-85.23"/>
</g>
<!-- Node37&#45;&gt;Node26 -->
<g id="edge52" class="edge">
<title>Node37&#45;&gt;Node26</title>
<path fill="none" stroke="midnightblue" d="M1096.78,-235.44C1059.8,-226.95 1002.26,-213.19 953,-199 950.01,-198.14 946.91,-197.2 943.81,-196.24"/>
<polygon fill="midnightblue" stroke="midnightblue" points="944.62,-192.82 934.03,-193.11 942.49,-199.49 944.62,-192.82"/>
</g>
<!-- Node37&#45;&gt;Node27 -->
<g id="edge48" class="edge">
<title>Node37&#45;&gt;Node27</title>
<path fill="none" stroke="midnightblue" d="M1156.1,-235.49C1208.15,-214.5 1342.9,-160.15 1404.03,-135.49"/>
<polygon fill="midnightblue" stroke="midnightblue" points="1405.56,-138.65 1413.53,-131.66 1402.94,-132.16 1405.56,-138.65"/>
</g>
<!-- Node38 -->
<g id="node35" class="node">
<title>Node38</title>
<g id="a_node35"><a xlink:title=" ">
<polygon fill="white" stroke="#bfbfbf" points="962,-174 962,-193 1010,-193 1010,-174 962,-174"/>
<text text-anchor="middle" x="986" y="-181" font-family="Helvetica,sans-Serif" font-size="10.00">iosfwd</text>
</a>
</g>
</g>
<!-- Node37&#45;&gt;Node38 -->
<g id="edge47" class="edge">
<title>Node37&#45;&gt;Node38</title>
<path fill="none" stroke="midnightblue" d="M1112.21,-235.5C1088.73,-226.66 1051.14,-212.29 1019,-199 1017.59,-198.42 1016.15,-197.81 1014.7,-197.2"/>
<polygon fill="midnightblue" stroke="midnightblue" points="1015.7,-193.82 1005.13,-193.08 1012.93,-200.25 1015.7,-193.82"/>
</g>
<!-- Node39 -->
<g id="node36" class="node">
<title>Node39</title>
<g id="a_node36"><a xlink:title=" ">
<polygon fill="white" stroke="#bfbfbf" points="1028,-174 1028,-193 1084,-193 1084,-174 1028,-174"/>
<text text-anchor="middle" x="1056" y="-181" font-family="Helvetica,sans-Serif" font-size="10.00">optional</text>
</a>
</g>
</g>
<!-- Node37&#45;&gt;Node39 -->
<g id="edge49" class="edge">
<title>Node37&#45;&gt;Node39</title>
<path fill="none" stroke="midnightblue" d="M1123.68,-235.48C1111.13,-226.02 1090.65,-210.6 1075.5,-199.19"/>
<polygon fill="midnightblue" stroke="midnightblue" points="1077.39,-196.23 1067.3,-193.01 1073.18,-201.82 1077.39,-196.23"/>
</g>
<!-- Node40 -->
<g id="node37" class="node">
<title>Node40</title>
<g id="a_node37"><a xlink:href="types_8hpp.html" target="_top" xlink:title=" ">
<polygon fill="white" stroke="black" points="1354.5,-174 1354.5,-193 1457.5,-193 1457.5,-174 1354.5,-174"/>
<text text-anchor="middle" x="1406" y="-181" font-family="Helvetica,sans-Serif" font-size="10.00">precice/types.hpp</text>
</a>
</g>
</g>
<!-- Node37&#45;&gt;Node40 -->
<g id="edge53" class="edge">
<title>Node37&#45;&gt;Node40</title>
<path fill="none" stroke="midnightblue" d="M1173.92,-235.46C1215.15,-226.41 1282.17,-211.7 1340,-199 1345.65,-197.76 1351.58,-196.46 1357.46,-195.17"/>
<polygon fill="midnightblue" stroke="midnightblue" points="1358.25,-198.58 1367.26,-193.01 1356.74,-191.74 1358.25,-198.58"/>
</g>
<!-- Node41 -->
<g id="node38" class="node">
<title>Node41</title>
<g id="a_node38"><a xlink:title=" ">
<polygon fill="white" stroke="#bfbfbf" points="1102,-174 1102,-193 1146,-193 1146,-174 1102,-174"/>
<text text-anchor="middle" x="1124" y="-181" font-family="Helvetica,sans-Serif" font-size="10.00">mpi.h</text>
</a>
</g>
</g>
<!-- Node37&#45;&gt;Node41 -->
<g id="edge54" class="edge">
<title>Node37&#45;&gt;Node41</title>
<path fill="none" stroke="midnightblue" d="M1133.42,-235.48C1131.87,-227.08 1129.45,-213.98 1127.45,-203.16"/>
<polygon fill="midnightblue" stroke="midnightblue" points="1130.83,-202.21 1125.57,-193.01 1123.95,-203.48 1130.83,-202.21"/>
</g>
<!-- Node44&#45;&gt;Node9 -->
<g id="edge56" class="edge">
<title>Node44&#45;&gt;Node9</title>
<path fill="none" stroke="midnightblue" d="M685.4,-354.29C536.99,-347.05 0,-316.03 0,-246 0,-246 0,-246 0,-121 0,-57.01 478.66,-22.79 629.82,-13.58"/>
<polygon fill="midnightblue" stroke="midnightblue" points="630.36,-17.05 640.13,-12.96 629.94,-10.06 630.36,-17.05"/>
</g>
<!-- Node44&#45;&gt;Node31 -->
<g id="edge57" class="edge">
<title>Node44&#45;&gt;Node31</title>
<path fill="none" stroke="midnightblue" d="M729.44,-347.08C734.95,-339.46 743.03,-328.26 749.76,-318.94"/>
<polygon fill="midnightblue" stroke="midnightblue" points="752.66,-320.91 755.68,-310.75 746.99,-316.81 752.66,-320.91"/>
</g>
<!-- Node45&#45;&gt;Node4 -->
<g id="edge60" class="edge">
<title>Node45&#45;&gt;Node4</title>
<path fill="none" stroke="midnightblue" d="M1432.06,-291.36C1416.27,-282.64 1391.55,-268.56 1371,-255 1311.13,-215.48 1244.04,-163.5 1212.01,-138.18"/>
<polygon fill="midnightblue" stroke="midnightblue" points="1213.95,-135.25 1203.94,-131.77 1209.6,-140.73 1213.95,-135.25"/>
</g>
<!-- Node45&#45;&gt;Node18 -->
<g id="edge63" class="edge">
<title>Node45&#45;&gt;Node18</title>
<path fill="none" stroke="midnightblue" d="M1514.24,-294.21C1664.9,-279.73 2015.71,-238.04 1956,-168 1877.96,-76.45 1478.86,-67.55 1359.66,-66.95"/>
<polygon fill="midnightblue" stroke="midnightblue" points="1359.66,-63.45 1349.65,-66.91 1359.64,-70.45 1359.66,-63.45"/>
</g>
<!-- Node45&#45;&gt;Node37 -->
<g id="edge67" class="edge">
<title>Node45&#45;&gt;Node37</title>
<path fill="none" stroke="midnightblue" d="M1398.4,-291.44C1342.92,-281.87 1253.09,-266.37 1194.03,-256.18"/>
<polygon fill="midnightblue" stroke="midnightblue" points="1194.56,-252.72 1184.11,-254.47 1193.37,-259.62 1194.56,-252.72"/>
</g>
<!-- Node45&#45;&gt;Node40 -->
<g id="edge66" class="edge">
<title>Node45&#45;&gt;Node40</title>
<path fill="none" stroke="midnightblue" d="M1424.21,-291.5C1408.28,-284.41 1388.54,-272.61 1379,-255 1369.49,-237.44 1380.86,-215.81 1391.63,-201.17"/>
<polygon fill="midnightblue" stroke="midnightblue" points="1394.59,-203.07 1398.07,-193.06 1389.11,-198.72 1394.59,-203.07"/>
</g>
<!-- Node46 -->
<g id="node41" class="node">
<title>Node46</title>
<g id="a_node41"><a xlink:title=" ">
<polygon fill="white" stroke="#bfbfbf" points="1925.5,-235.5 1925.5,-254.5 1990.5,-254.5 1990.5,-235.5 1925.5,-235.5"/>
<text text-anchor="middle" x="1958" y="-242.5" font-family="Helvetica,sans-Serif" font-size="10.00">stdexcept</text>
</a>
</g>
</g>
<!-- Node45&#45;&gt;Node46 -->
<g id="edge59" class="edge">
<title>Node45&#45;&gt;Node46</title>
<path fill="none" stroke="midnightblue" d="M1514.17,-295.5C1604.23,-288.93 1770.31,-275.26 1911,-255 1912.46,-254.79 1913.95,-254.56 1915.45,-254.33"/>
<polygon fill="midnightblue" stroke="midnightblue" points="1916.17,-257.76 1925.45,-252.64 1915.01,-250.85 1916.17,-257.76"/>
</g>
<!-- Node47 -->
<g id="node42" class="node">
<title>Node47</title>
<g id="a_node42"><a xlink:title=" ">
<polygon fill="white" stroke="#bfbfbf" points="2000.5,-112.5 2000.5,-131.5 2069.5,-131.5 2069.5,-112.5 2000.5,-112.5"/>
<text text-anchor="middle" x="2035" y="-119.5" font-family="Helvetica,sans-Serif" font-size="10.00">type_traits</text>
</a>
</g>
</g>
<!-- Node45&#45;&gt;Node47 -->
<g id="edge61" class="edge">
<title>Node45&#45;&gt;Node47</title>
<path fill="none" stroke="midnightblue" d="M1514.02,-298.83C1652.46,-295.78 1963.44,-285.57 2000,-255 2033.4,-227.07 2036.89,-171.29 2036.2,-141.99"/>
<polygon fill="midnightblue" stroke="midnightblue" points="2039.69,-141.68 2035.76,-131.85 2032.69,-141.99 2039.69,-141.68"/>
</g>
<!-- Node48 -->
<g id="node43" class="node">
<title>Node48</title>
<g id="a_node43"><a xlink:title=" ">
<polygon fill="white" stroke="#bfbfbf" points="1536.5,-235.5 1536.5,-254.5 1581.5,-254.5 1581.5,-235.5 1536.5,-235.5"/>
<text text-anchor="middle" x="1559" y="-242.5" font-family="Helvetica,sans-Serif" font-size="10.00">utility</text>
</a>
</g>
</g>
<!-- Node45&#45;&gt;Node48 -->
<g id="edge62" class="edge">
<title>Node45&#45;&gt;Node48</title>
<path fill="none" stroke="midnightblue" d="M1465.83,-291.32C1483.72,-282.62 1511.48,-269.12 1532.05,-259.11"/>
<polygon fill="midnightblue" stroke="midnightblue" points="1533.75,-262.18 1541.21,-254.65 1530.69,-255.88 1533.75,-262.18"/>
</g>
<!-- Node49 -->
<g id="node44" class="node">
<title>Node49</title>
<g id="a_node44"><a xlink:href="m2n_2SharedPointer_8hpp.html" target="_top" xlink:title=" ">
<polygon fill="white" stroke="black" points="1388,-235.5 1388,-254.5 1518,-254.5 1518,-235.5 1388,-235.5"/>
<text text-anchor="middle" x="1453" y="-242.5" font-family="Helvetica,sans-Serif" font-size="10.00">m2n/SharedPointer.hpp</text>
</a>
</g>
</g>
<!-- Node45&#45;&gt;Node49 -->
<g id="edge64" class="edge">
<title>Node45&#45;&gt;Node49</title>
<path fill="none" stroke="midnightblue" d="M1448.83,-291.08C1449.48,-284.01 1450.42,-273.86 1451.24,-264.99"/>
<polygon fill="midnightblue" stroke="midnightblue" points="1454.75,-265.03 1452.19,-254.75 1447.78,-264.39 1454.75,-265.03"/>
</g>
<!-- Node49&#45;&gt;Node27 -->
<g id="edge65" class="edge">
<title>Node49&#45;&gt;Node27</title>
<path fill="none" stroke="midnightblue" d="M1457.27,-235.39C1463.76,-221.12 1474.59,-191.77 1467,-168 1463.66,-157.54 1456.9,-147.43 1450.45,-139.45"/>
<polygon fill="midnightblue" stroke="midnightblue" points="1452.94,-136.98 1443.75,-131.71 1447.65,-141.56 1452.94,-136.98"/>
</g>
<!-- Node50&#45;&gt;Node4 -->
<g id="edge71" class="edge">
<title>Node50&#45;&gt;Node4</title>
<path fill="none" stroke="midnightblue" d="M1302.59,-459.46C1271.01,-444.11 1212,-408.64 1212,-358 1212,-358 1212,-358 1212,-244 1212,-207.29 1203.36,-165.06 1197.73,-141.45"/>
<polygon fill="midnightblue" stroke="midnightblue" points="1201.13,-140.6 1195.33,-131.73 1194.33,-142.28 1201.13,-140.6"/>
</g>
<!-- Node50&#45;&gt;Node9 -->
<g id="edge69" class="edge">
<title>Node50&#45;&gt;Node9</title>
<path fill="none" stroke="midnightblue" d="M1376.94,-466.14C1506.95,-461.39 1830.44,-447.42 1936,-423 2011.58,-405.51 2098,-435.58 2098,-358 2098,-358 2098,-358 2098,-121 2098,-50.16 962.07,-18.1 720.02,-12.07"/>
<polygon fill="midnightblue" stroke="midnightblue" points="719.91,-8.56 709.82,-11.82 719.73,-15.56 719.91,-8.56"/>
</g>
<!-- Node50&#45;&gt;Node28 -->
<g id="edge74" class="edge">
<title>Node50&#45;&gt;Node28</title>
<path fill="none" stroke="midnightblue" d="M1267.46,-460.36C1204.46,-451.5 1097.71,-436.41 1006,-423 1004.74,-422.82 1003.46,-422.63 1002.18,-422.44"/>
<polygon fill="midnightblue" stroke="midnightblue" points="1002.59,-418.96 992.18,-420.96 1001.56,-425.89 1002.59,-418.96"/>
</g>
<!-- Node50&#45;&gt;Node30 -->
<g id="edge73" class="edge">
<title>Node50&#45;&gt;Node30</title>
<path fill="none" stroke="midnightblue" d="M1294.67,-459.46C1232.16,-439.93 1078.68,-391.96 1007.45,-369.7"/>
<polygon fill="midnightblue" stroke="midnightblue" points="1008.14,-366.25 997.55,-366.61 1006.05,-372.93 1008.14,-366.25"/>
</g>
<!-- Node50&#45;&gt;Node45 -->
<g id="edge75" class="edge">
<title>Node50&#45;&gt;Node45</title>
<path fill="none" stroke="midnightblue" d="M1343.59,-459.49C1360.12,-452.03 1382.47,-439.75 1397,-423 1423.55,-392.4 1437.81,-345.98 1444.06,-320.45"/>
<polygon fill="midnightblue" stroke="midnightblue" points="1447.49,-321.13 1446.31,-310.6 1440.67,-319.57 1447.49,-321.13"/>
</g>
<!-- Node50&#45;&gt;Node47 -->
<g id="edge72" class="edge">
<title>Node50&#45;&gt;Node47</title>
<path fill="none" stroke="midnightblue" d="M1376.64,-465.58C1546.98,-457.3 2057,-426.79 2057,-358 2057,-358 2057,-358 2057,-244 2057,-207.14 2046.99,-164.96 2040.48,-141.4"/>
<polygon fill="midnightblue" stroke="midnightblue" points="2043.82,-140.36 2037.7,-131.71 2037.09,-142.28 2043.82,-140.36"/>
</g>
<!-- Node51 -->
<g id="node46" class="node">
<title>Node51</title>
<g id="a_node46"><a xlink:title=" ">
<polygon fill="white" stroke="#bfbfbf" points="1256,-403.5 1256,-422.5 1388,-422.5 1388,-403.5 1256,-403.5"/>
<text text-anchor="middle" x="1322" y="-410.5" font-family="Helvetica,sans-Serif" font-size="10.00">boost/test/unit_test.hpp</text>
</a>
</g>
</g>
<!-- Node50&#45;&gt;Node51 -->
<g id="edge70" class="edge">
<title>Node50&#45;&gt;Node51</title>
<path fill="none" stroke="midnightblue" d="M1322,-459.08C1322,-452.01 1322,-441.86 1322,-432.99"/>
<polygon fill="midnightblue" stroke="midnightblue" points="1325.5,-432.75 1322,-422.75 1318.5,-432.75 1325.5,-432.75"/>
</g>
<!-- Node52 -->
<g id="node47" class="node">
<title>Node52</title>
<g id="a_node47"><a xlink:href="IntraComm_8hpp.html" target="_top" xlink:title=" ">
<polygon fill="white" stroke="black" points="1600,-235.5 1600,-254.5 1716,-254.5 1716,-235.5 1600,-235.5"/>
<text text-anchor="middle" x="1658" y="-242.5" font-family="Helvetica,sans-Serif" font-size="10.00">utils/IntraComm.hpp</text>
</a>
</g>
</g>
<!-- Node50&#45;&gt;Node52 -->
<g id="edge76" class="edge">
<title>Node50&#45;&gt;Node52</title>
<path fill="none" stroke="midnightblue" d="M1342.97,-459.44C1362.62,-451.11 1392.55,-437.59 1417,-423 1505.28,-370.33 1601.19,-293.24 1640.1,-261.02"/>
<polygon fill="midnightblue" stroke="midnightblue" points="1642.48,-263.6 1647.92,-254.51 1638,-258.21 1642.48,-263.6"/>
</g>
<!-- Node52&#45;&gt;Node9 -->
<g id="edge77" class="edge">
<title>Node52&#45;&gt;Node9</title>
<path fill="none" stroke="midnightblue" d="M1711.68,-235.44C1762.76,-224.95 1827.98,-203.98 1800,-168 1675.85,-8.38 1558.73,-87.66 1359,-56 1120.17,-18.14 829.55,-12.03 719.82,-11.12"/>
<polygon fill="midnightblue" stroke="midnightblue" points="719.79,-7.62 709.77,-11.05 719.74,-14.62 719.79,-7.62"/>
</g>
<!-- Node52&#45;&gt;Node26 -->
<g id="edge81" class="edge">
<title>Node52&#45;&gt;Node26</title>
<path fill="none" stroke="midnightblue" d="M1599.93,-235.92C1596.91,-235.59 1593.92,-235.28 1591,-235 1308.27,-208.07 1232.04,-251.9 953,-199 949.02,-198.25 944.91,-197.23 940.87,-196.08"/>
<polygon fill="midnightblue" stroke="midnightblue" points="941.67,-192.66 931.09,-193.03 939.59,-199.35 941.67,-192.66"/>
</g>
<!-- Node52&#45;&gt;Node40 -->
<g id="edge85" class="edge">
<title>Node52&#45;&gt;Node40</title>
<path fill="none" stroke="midnightblue" d="M1621.89,-235.48C1577.17,-224.92 1500.92,-206.91 1452.03,-195.37"/>
<polygon fill="midnightblue" stroke="midnightblue" points="1452.58,-191.9 1442.04,-193.01 1450.97,-198.71 1452.58,-191.9"/>
</g>
<!-- Node53 -->
<g id="node48" class="node">
<title>Node53</title>
<g id="a_node48"><a xlink:title=" ">
<polygon fill="white" stroke="#bfbfbf" points="1661.5,-174 1661.5,-193 1790.5,-193 1790.5,-174 1661.5,-174"/>
<text text-anchor="middle" x="1726" y="-181" font-family="Helvetica,sans-Serif" font-size="10.00">boost/range/irange.hpp</text>
</a>
</g>
</g>
<!-- Node52&#45;&gt;Node53 -->
<g id="edge78" class="edge">
<title>Node52&#45;&gt;Node53</title>
<path fill="none" stroke="midnightblue" d="M1667.74,-235.48C1678.35,-226.2 1695.52,-211.17 1708.48,-199.83"/>
<polygon fill="midnightblue" stroke="midnightblue" points="1711.05,-202.23 1716.28,-193.01 1706.44,-196.96 1711.05,-202.23"/>
</g>
<!-- Node54 -->
<g id="node49" class="node">
<title>Node54</title>
<g id="a_node49"><a xlink:href="com_2SharedPointer_8hpp.html" target="_top" xlink:title=" ">
<polygon fill="white" stroke="black" points="1514.5,-174 1514.5,-193 1643.5,-193 1643.5,-174 1514.5,-174"/>
<text text-anchor="middle" x="1579" y="-181" font-family="Helvetica,sans-Serif" font-size="10.00">com/SharedPointer.hpp</text>
</a>
</g>
</g>
<!-- Node52&#45;&gt;Node54 -->
<g id="edge79" class="edge">
<title>Node52&#45;&gt;Node54</title>
<path fill="none" stroke="midnightblue" d="M1646.68,-235.48C1634.13,-226.02 1613.65,-210.6 1598.5,-199.19"/>
<polygon fill="midnightblue" stroke="midnightblue" points="1600.39,-196.23 1590.3,-193.01 1596.18,-201.82 1600.39,-196.23"/>
</g>
<!-- Node55 -->
<g id="node50" class="node">
<title>Node55</title>
<g id="a_node50"><a xlink:href="span_8hpp.html" target="_top" xlink:title=" ">
<polygon fill="white" stroke="red" points="1847.5,-174 1847.5,-193 1946.5,-193 1946.5,-174 1847.5,-174"/>
<text text-anchor="middle" x="1897" y="-181" font-family="Helvetica,sans-Serif" font-size="10.00">precice/span.hpp</text>
</a>
</g>
</g>
<!-- Node52&#45;&gt;Node55 -->
<g id="edge82" class="edge">
<title>Node52&#45;&gt;Node55</title>
<path fill="none" stroke="midnightblue" d="M1692.24,-235.48C1734.57,-224.94 1806.68,-206.99 1853.05,-195.44"/>
<polygon fill="midnightblue" stroke="midnightblue" points="1853.96,-198.82 1862.82,-193.01 1852.27,-192.03 1853.96,-198.82"/>
</g>
<!-- Node54&#45;&gt;Node27 -->
<g id="edge80" class="edge">
<title>Node54&#45;&gt;Node27</title>
<path fill="none" stroke="midnightblue" d="M1558.37,-173.98C1533.88,-163.86 1492.85,-146.9 1464.89,-135.35"/>
<polygon fill="midnightblue" stroke="midnightblue" points="1466.17,-132.09 1455.59,-131.51 1463.5,-138.56 1466.17,-132.09"/>
</g>
<!-- Node55&#45;&gt;Node14 -->
<g id="edge83" class="edge">
<title>Node55&#45;&gt;Node14</title>
<path fill="none" stroke="midnightblue" d="M1850.38,-173.95C1772.43,-159.83 1610.64,-131.29 1473,-112 1338.66,-93.17 1177.72,-76.67 1110.7,-70.07"/>
<polygon fill="midnightblue" stroke="midnightblue" points="1110.7,-66.55 1100.4,-69.06 1110.01,-73.52 1110.7,-66.55"/>
</g>
<!-- Node55&#45;&gt;Node47 -->
<g id="edge84" class="edge">
<title>Node55&#45;&gt;Node47</title>
<path fill="none" stroke="midnightblue" d="M1916.77,-173.98C1940.14,-163.9 1979.21,-147.05 2006,-135.5"/>
<polygon fill="midnightblue" stroke="midnightblue" points="2007.47,-138.68 2015.26,-131.51 2004.7,-132.25 2007.47,-138.68"/>
</g>
</g>
</svg>
