<?xml version="1.0" encoding="UTF-8" standalone="no"?>
<!DOCTYPE svg PUBLIC "-//W3C//DTD SVG 1.1//EN"
 "http://www.w3.org/Graphics/SVG/1.1/DTD/svg11.dtd">
<!-- Generated by graphviz version 2.43.0 (0)
 -->
<!-- Title: src/utils/tests/MultiLockTest.cpp Pages: 1 -->
<svg width="2213pt" height="621pt"
 viewBox="0.00 0.00 2213.00 621.00" xmlns="http://www.w3.org/2000/svg" xmlns:xlink="http://www.w3.org/1999/xlink">
<g id="graph0" class="graph" transform="scale(1 1) rotate(0) translate(4 617)">
<title>src/utils/tests/MultiLockTest.cpp</title>
<polygon fill="white" stroke="transparent" points="-4,4 -4,-617 2209,-617 2209,4 -4,4"/>
<!-- Node1 -->
<g id="node1" class="node">
<title>Node1</title>
<g id="a_node1"><a xlink:title=" ">
<polygon fill="#bfbfbf" stroke="black" points="788,-582.5 788,-612.5 920,-612.5 920,-582.5 788,-582.5"/>
<text text-anchor="start" x="796" y="-600.5" font-family="Helvetica,sans-Serif" font-size="10.00">src/utils/tests/MultiLock</text>
<text text-anchor="middle" x="854" y="-589.5" font-family="Helvetica,sans-Serif" font-size="10.00">Test.cpp</text>
</a>
</g>
</g>
<!-- Node2 -->
<g id="node2" class="node">
<title>Node2</title>
<g id="a_node2"><a xlink:title=" ">
<polygon fill="white" stroke="#bfbfbf" points="1309,-470.5 1309,-489.5 1347,-489.5 1347,-470.5 1309,-470.5"/>
<text text-anchor="middle" x="1328" y="-477.5" font-family="Helvetica,sans-Serif" font-size="10.00">map</text>
</a>
</g>
</g>
<!-- Node1&#45;&gt;Node2 -->
<g id="edge1" class="edge">
<title>Node1&#45;&gt;Node2</title>
<path fill="none" stroke="midnightblue" d="M920.01,-592.71C1017.33,-586.36 1194.05,-571.66 1252,-546 1277.18,-534.85 1300.34,-512.56 1314.31,-497.22"/>
<polygon fill="midnightblue" stroke="midnightblue" points="1317.1,-499.34 1321.08,-489.52 1311.84,-494.72 1317.1,-499.34"/>
</g>
<!-- Node3 -->
<g id="node3" class="node">
<title>Node3</title>
<g id="a_node3"><a xlink:title=" ">
<polygon fill="white" stroke="#bfbfbf" points="886,-0.5 886,-19.5 930,-19.5 930,-0.5 886,-0.5"/>
<text text-anchor="middle" x="908" y="-7.5" font-family="Helvetica,sans-Serif" font-size="10.00">string</text>
</a>
</g>
</g>
<!-- Node1&#45;&gt;Node3 -->
<g id="edge2" class="edge">
<title>Node1&#45;&gt;Node3</title>
<path fill="none" stroke="midnightblue" d="M787.7,-594.49C587.05,-587.53 0,-560.39 0,-481 0,-481 0,-481 0,-132 0,-90.31 18.38,-75.94 55,-56 128.06,-16.22 728.37,-11.6 875.53,-11.07"/>
<polygon fill="midnightblue" stroke="midnightblue" points="875.72,-14.57 885.71,-11.04 875.7,-7.57 875.72,-14.57"/>
</g>
<!-- Node4 -->
<g id="node4" class="node">
<title>Node4</title>
<g id="a_node4"><a xlink:href="constants_8hpp.html" target="_top" xlink:title=" ">
<polygon fill="white" stroke="black" points="1001.5,-414.5 1001.5,-433.5 1114.5,-433.5 1114.5,-414.5 1001.5,-414.5"/>
<text text-anchor="middle" x="1058" y="-421.5" font-family="Helvetica,sans-Serif" font-size="10.00">math/constants.hpp</text>
</a>
</g>
</g>
<!-- Node1&#45;&gt;Node4 -->
<g id="edge3" class="edge">
<title>Node1&#45;&gt;Node4</title>
<path fill="none" stroke="midnightblue" d="M871.98,-582.42C884.84,-572.32 902.53,-558.38 918,-546 948.84,-521.32 957.09,-515.79 987,-490 1006.04,-473.58 1027.23,-454.01 1041.46,-440.66"/>
<polygon fill="midnightblue" stroke="midnightblue" points="1044.09,-442.99 1048.97,-433.59 1039.29,-437.9 1044.09,-442.99"/>
</g>
<!-- Node5 -->
<g id="node5" class="node">
<title>Node5</title>
<g id="a_node5"><a xlink:href="TestContext_8hpp.html" target="_top" xlink:title=" ">
<polygon fill="white" stroke="black" points="755,-358.5 755,-377.5 887,-377.5 887,-358.5 755,-358.5"/>
<text text-anchor="middle" x="821" y="-365.5" font-family="Helvetica,sans-Serif" font-size="10.00">testing/TestContext.hpp</text>
</a>
</g>
</g>
<!-- Node1&#45;&gt;Node5 -->
<g id="edge4" class="edge">
<title>Node1&#45;&gt;Node5</title>
<path fill="none" stroke="midnightblue" d="M826.7,-582.36C813.3,-573.81 798.46,-561.54 791,-546 781.7,-526.62 748.53,-575.74 795,-414 797.83,-404.15 803.27,-394.19 808.44,-386.14"/>
<polygon fill="midnightblue" stroke="midnightblue" points="811.45,-387.94 814.22,-377.71 805.68,-383.98 811.45,-387.94"/>
</g>
<!-- Node39 -->
<g id="node24" class="node">
<title>Node39</title>
<g id="a_node24"><a xlink:href="Testing_8hpp.html" target="_top" xlink:title=" ">
<polygon fill="white" stroke="black" points="799.5,-526.5 799.5,-545.5 908.5,-545.5 908.5,-526.5 799.5,-526.5"/>
<text text-anchor="middle" x="854" y="-533.5" font-family="Helvetica,sans-Serif" font-size="10.00">testing/Testing.hpp</text>
</a>
</g>
</g>
<!-- Node1&#45;&gt;Node39 -->
<g id="edge32" class="edge">
<title>Node1&#45;&gt;Node39</title>
<path fill="none" stroke="midnightblue" d="M854,-582.4C854,-574.47 854,-564.46 854,-555.86"/>
<polygon fill="midnightblue" stroke="midnightblue" points="857.5,-555.66 854,-545.66 850.5,-555.66 857.5,-555.66"/>
</g>
<!-- Node59 -->
<g id="node46" class="node">
<title>Node59</title>
<g id="a_node46"><a xlink:href="MultiLock_8hpp.html" target="_top" xlink:title=" ">
<polygon fill="white" stroke="black" points="1133.5,-526.5 1133.5,-545.5 1242.5,-545.5 1242.5,-526.5 1133.5,-526.5"/>
<text text-anchor="middle" x="1188" y="-533.5" font-family="Helvetica,sans-Serif" font-size="10.00">utils/MultiLock.hpp</text>
</a>
</g>
</g>
<!-- Node1&#45;&gt;Node59 -->
<g id="edge74" class="edge">
<title>Node1&#45;&gt;Node59</title>
<path fill="none" stroke="midnightblue" d="M920.39,-584.67C981.59,-573.77 1071.52,-557.75 1129.93,-547.34"/>
<polygon fill="midnightblue" stroke="midnightblue" points="1130.86,-550.73 1140.1,-545.53 1129.64,-543.84 1130.86,-550.73"/>
</g>
<!-- Node61 -->
<g id="node49" class="node">
<title>Node61</title>
<g id="a_node49"><a xlink:href="String_8hpp.html" target="_top" xlink:title=" ">
<polygon fill="white" stroke="black" points="115,-358.5 115,-377.5 205,-377.5 205,-358.5 115,-358.5"/>
<text text-anchor="middle" x="160" y="-365.5" font-family="Helvetica,sans-Serif" font-size="10.00">utils/String.hpp</text>
</a>
</g>
</g>
<!-- Node1&#45;&gt;Node61 -->
<g id="edge78" class="edge">
<title>Node1&#45;&gt;Node61</title>
<path fill="none" stroke="midnightblue" d="M811.11,-582.44C684.33,-540.88 312.89,-419.12 195.79,-380.73"/>
<polygon fill="midnightblue" stroke="midnightblue" points="196.81,-377.38 186.21,-377.59 194.63,-384.03 196.81,-377.38"/>
</g>
<!-- Node5&#45;&gt;Node3 -->
<g id="edge6" class="edge">
<title>Node5&#45;&gt;Node3</title>
<path fill="none" stroke="midnightblue" d="M887.24,-362.19C914.34,-356.56 943.21,-345.08 960,-322 968.1,-310.86 963.24,-304.39 960,-291 948.11,-241.93 908,-240.49 908,-190 908,-190 908,-190 908,-132 908,-95.71 908,-53.31 908,-29.56"/>
<polygon fill="midnightblue" stroke="midnightblue" points="911.5,-29.51 908,-19.51 904.5,-29.51 911.5,-29.51"/>
</g>
<!-- Node6 -->
<g id="node6" class="node">
<title>Node6</title>
<g id="a_node6"><a xlink:title=" ">
<polygon fill="white" stroke="#bfbfbf" points="806.5,-297 806.5,-316 871.5,-316 871.5,-297 806.5,-297"/>
<text text-anchor="middle" x="839" y="-304" font-family="Helvetica,sans-Serif" font-size="10.00">stdexcept</text>
</a>
</g>
</g>
<!-- Node5&#45;&gt;Node6 -->
<g id="edge5" class="edge">
<title>Node5&#45;&gt;Node6</title>
<path fill="none" stroke="midnightblue" d="M823.58,-358.48C826.15,-349.99 830.17,-336.7 833.46,-325.82"/>
<polygon fill="midnightblue" stroke="midnightblue" points="836.88,-326.59 836.43,-316.01 830.18,-324.57 836.88,-326.59"/>
</g>
<!-- Node7 -->
<g id="node7" class="node">
<title>Node7</title>
<g id="a_node7"><a xlink:title=" ">
<polygon fill="white" stroke="#bfbfbf" points="642.5,-297 642.5,-316 711.5,-316 711.5,-297 642.5,-297"/>
<text text-anchor="middle" x="677" y="-304" font-family="Helvetica,sans-Serif" font-size="10.00">type_traits</text>
</a>
</g>
</g>
<!-- Node5&#45;&gt;Node7 -->
<g id="edge7" class="edge">
<title>Node5&#45;&gt;Node7</title>
<path fill="none" stroke="midnightblue" d="M800.37,-358.48C775.88,-348.36 734.85,-331.4 706.89,-319.85"/>
<polygon fill="midnightblue" stroke="midnightblue" points="708.17,-316.59 697.59,-316.01 705.5,-323.06 708.17,-316.59"/>
</g>
<!-- Node8 -->
<g id="node8" class="node">
<title>Node8</title>
<g id="a_node8"><a xlink:title=" ">
<polygon fill="white" stroke="#bfbfbf" points="889.5,-297 889.5,-316 934.5,-316 934.5,-297 889.5,-297"/>
<text text-anchor="middle" x="912" y="-304" font-family="Helvetica,sans-Serif" font-size="10.00">utility</text>
</a>
</g>
</g>
<!-- Node5&#45;&gt;Node8 -->
<g id="edge8" class="edge">
<title>Node5&#45;&gt;Node8</title>
<path fill="none" stroke="midnightblue" d="M834.04,-358.48C848.77,-348.84 872.97,-333.02 890.51,-321.55"/>
<polygon fill="midnightblue" stroke="midnightblue" points="892.53,-324.41 898.99,-316.01 888.7,-318.55 892.53,-324.41"/>
</g>
<!-- Node9 -->
<g id="node9" class="node">
<title>Node9</title>
<g id="a_node9"><a xlink:title=" ">
<polygon fill="white" stroke="#bfbfbf" points="832.5,-235.5 832.5,-254.5 879.5,-254.5 879.5,-235.5 832.5,-235.5"/>
<text text-anchor="middle" x="856" y="-242.5" font-family="Helvetica,sans-Serif" font-size="10.00">vector</text>
</a>
</g>
</g>
<!-- Node5&#45;&gt;Node9 -->
<g id="edge9" class="edge">
<title>Node5&#45;&gt;Node9</title>
<path fill="none" stroke="midnightblue" d="M886.23,-358.47C908.27,-352.12 930.65,-341.1 944,-322 951.89,-310.71 951.19,-302.75 944,-291 932.18,-271.68 909.15,-260.32 889.62,-253.85"/>
<polygon fill="midnightblue" stroke="midnightblue" points="890.39,-250.42 879.8,-250.89 888.37,-257.13 890.39,-250.42"/>
</g>
<!-- Node10 -->
<g id="node10" class="node">
<title>Node10</title>
<g id="a_node10"><a xlink:href="m2n_2SharedPointer_8hpp.html" target="_top" xlink:title=" ">
<polygon fill="white" stroke="black" points="684,-235.5 684,-254.5 814,-254.5 814,-235.5 684,-235.5"/>
<text text-anchor="middle" x="749" y="-242.5" font-family="Helvetica,sans-Serif" font-size="10.00">m2n/SharedPointer.hpp</text>
</a>
</g>
</g>
<!-- Node5&#45;&gt;Node10 -->
<g id="edge10" class="edge">
<title>Node5&#45;&gt;Node10</title>
<path fill="none" stroke="midnightblue" d="M815.82,-358.3C804.04,-338.5 775.05,-289.78 759.41,-263.49"/>
<polygon fill="midnightblue" stroke="midnightblue" points="762.25,-261.43 754.13,-254.62 756.24,-265.01 762.25,-261.43"/>
</g>
<!-- Node12 -->
<g id="node12" class="node">
<title>Node12</title>
<g id="a_node12"><a xlink:href="types_8hpp.html" target="_top" xlink:title=" ">
<polygon fill="white" stroke="black" points="562.5,-235.5 562.5,-254.5 665.5,-254.5 665.5,-235.5 562.5,-235.5"/>
<text text-anchor="middle" x="614" y="-242.5" font-family="Helvetica,sans-Serif" font-size="10.00">precice/types.hpp</text>
</a>
</g>
</g>
<!-- Node5&#45;&gt;Node12 -->
<g id="edge12" class="edge">
<title>Node5&#45;&gt;Node12</title>
<path fill="none" stroke="midnightblue" d="M811.37,-358.34C794.18,-343.22 756.68,-311.62 721,-291 697.85,-277.62 669.95,-266.02 648.45,-257.95"/>
<polygon fill="midnightblue" stroke="midnightblue" points="649.65,-254.67 639.06,-254.5 647.24,-261.24 649.65,-254.67"/>
</g>
<!-- Node13 -->
<g id="node13" class="node">
<title>Node13</title>
<g id="a_node13"><a xlink:href="Parallel_8hpp.html" target="_top" xlink:title=" ">
<polygon fill="white" stroke="black" points="1029,-297 1029,-316 1127,-316 1127,-297 1029,-297"/>
<text text-anchor="middle" x="1078" y="-304" font-family="Helvetica,sans-Serif" font-size="10.00">utils/Parallel.hpp</text>
</a>
</g>
</g>
<!-- Node5&#45;&gt;Node13 -->
<g id="edge13" class="edge">
<title>Node5&#45;&gt;Node13</title>
<path fill="none" stroke="midnightblue" d="M857.82,-358.48C903.53,-347.89 981.53,-329.84 1031.37,-318.3"/>
<polygon fill="midnightblue" stroke="midnightblue" points="1032.29,-321.67 1041.25,-316.01 1030.71,-314.85 1032.29,-321.67"/>
</g>
<!-- Node11 -->
<g id="node11" class="node">
<title>Node11</title>
<g id="a_node11"><a xlink:title=" ">
<polygon fill="white" stroke="#bfbfbf" points="771,-179.5 771,-198.5 829,-198.5 829,-179.5 771,-179.5"/>
<text text-anchor="middle" x="800" y="-186.5" font-family="Helvetica,sans-Serif" font-size="10.00">memory</text>
</a>
</g>
</g>
<!-- Node10&#45;&gt;Node11 -->
<g id="edge11" class="edge">
<title>Node10&#45;&gt;Node11</title>
<path fill="none" stroke="midnightblue" d="M757.42,-235.08C764.85,-227.22 775.85,-215.57 784.81,-206.08"/>
<polygon fill="midnightblue" stroke="midnightblue" points="787.41,-208.42 791.74,-198.75 782.32,-203.62 787.41,-208.42"/>
</g>
<!-- Node13&#45;&gt;Node3 -->
<g id="edge17" class="edge">
<title>Node13&#45;&gt;Node3</title>
<path fill="none" stroke="midnightblue" d="M1058.23,-296.97C1041.2,-288.64 1017.17,-274.39 1003,-255 985.24,-230.7 984,-220.1 984,-190 984,-190 984,-190 984,-132 984,-88.48 948.3,-47.77 925.84,-26.47"/>
<polygon fill="midnightblue" stroke="midnightblue" points="927.99,-23.7 918.25,-19.53 923.27,-28.86 927.99,-23.7"/>
</g>
<!-- Node13&#45;&gt;Node9 -->
<g id="edge18" class="edge">
<title>Node13&#45;&gt;Node9</title>
<path fill="none" stroke="midnightblue" d="M1046.19,-296.98C1004.55,-285.81 931.87,-266.33 889.43,-254.96"/>
<polygon fill="midnightblue" stroke="midnightblue" points="890.15,-251.53 879.59,-252.32 888.34,-258.29 890.15,-251.53"/>
</g>
<!-- Node13&#45;&gt;Node11 -->
<g id="edge15" class="edge">
<title>Node13&#45;&gt;Node11</title>
<path fill="none" stroke="midnightblue" d="M1057.1,-296.82C1008.38,-276.58 887.09,-226.18 830.27,-202.57"/>
<polygon fill="midnightblue" stroke="midnightblue" points="831.34,-199.23 820.76,-198.62 828.65,-205.69 831.34,-199.23"/>
</g>
<!-- Node13&#45;&gt;Node12 -->
<g id="edge30" class="edge">
<title>Node13&#45;&gt;Node12</title>
<path fill="none" stroke="midnightblue" d="M1028.95,-299.7C954.88,-290.87 809.81,-273.28 675.63,-255.06"/>
<polygon fill="midnightblue" stroke="midnightblue" points="675.95,-251.57 665.57,-253.69 675.01,-258.51 675.95,-251.57"/>
</g>
<!-- Node14 -->
<g id="node14" class="node">
<title>Node14</title>
<g id="a_node14"><a xlink:title=" ">
<polygon fill="white" stroke="#bfbfbf" points="1012,-235.5 1012,-254.5 1060,-254.5 1060,-235.5 1012,-235.5"/>
<text text-anchor="middle" x="1036" y="-242.5" font-family="Helvetica,sans-Serif" font-size="10.00">iosfwd</text>
</a>
</g>
</g>
<!-- Node13&#45;&gt;Node14 -->
<g id="edge14" class="edge">
<title>Node13&#45;&gt;Node14</title>
<path fill="none" stroke="midnightblue" d="M1071.98,-296.98C1065.74,-288.14 1055.83,-274.09 1047.98,-262.98"/>
<polygon fill="midnightblue" stroke="midnightblue" points="1050.63,-260.66 1042.01,-254.51 1044.91,-264.7 1050.63,-260.66"/>
</g>
<!-- Node15 -->
<g id="node15" class="node">
<title>Node15</title>
<g id="a_node15"><a xlink:title=" ">
<polygon fill="white" stroke="#bfbfbf" points="1078,-235.5 1078,-254.5 1134,-254.5 1134,-235.5 1078,-235.5"/>
<text text-anchor="middle" x="1106" y="-242.5" font-family="Helvetica,sans-Serif" font-size="10.00">optional</text>
</a>
</g>
</g>
<!-- Node13&#45;&gt;Node15 -->
<g id="edge16" class="edge">
<title>Node13&#45;&gt;Node15</title>
<path fill="none" stroke="midnightblue" d="M1082.01,-296.98C1086.09,-288.32 1092.52,-274.65 1097.7,-263.65"/>
<polygon fill="midnightblue" stroke="midnightblue" points="1100.9,-265.05 1102,-254.51 1094.57,-262.07 1100.9,-265.05"/>
</g>
<!-- Node16 -->
<g id="node16" class="node">
<title>Node16</title>
<g id="a_node16"><a xlink:href="Logger_8hpp.html" target="_top" xlink:title=" ">
<polygon fill="white" stroke="black" points="1214.5,-235.5 1214.5,-254.5 1323.5,-254.5 1323.5,-235.5 1214.5,-235.5"/>
<text text-anchor="middle" x="1269" y="-242.5" font-family="Helvetica,sans-Serif" font-size="10.00">logging/Logger.hpp</text>
</a>
</g>
</g>
<!-- Node13&#45;&gt;Node16 -->
<g id="edge19" class="edge">
<title>Node13&#45;&gt;Node16</title>
<path fill="none" stroke="midnightblue" d="M1105.37,-296.98C1138.55,-286.64 1194.65,-269.16 1231.76,-257.6"/>
<polygon fill="midnightblue" stroke="midnightblue" points="1233.18,-260.82 1241.69,-254.51 1231.1,-254.14 1233.18,-260.82"/>
</g>
<!-- Node38 -->
<g id="node23" class="node">
<title>Node38</title>
<g id="a_node23"><a xlink:title=" ">
<polygon fill="white" stroke="#bfbfbf" points="1152,-235.5 1152,-254.5 1196,-254.5 1196,-235.5 1152,-235.5"/>
<text text-anchor="middle" x="1174" y="-242.5" font-family="Helvetica,sans-Serif" font-size="10.00">mpi.h</text>
</a>
</g>
</g>
<!-- Node13&#45;&gt;Node38 -->
<g id="edge31" class="edge">
<title>Node13&#45;&gt;Node38</title>
<path fill="none" stroke="midnightblue" d="M1091.75,-296.98C1107.37,-287.3 1133.06,-271.37 1151.58,-259.89"/>
<polygon fill="midnightblue" stroke="midnightblue" points="1153.62,-262.75 1160.27,-254.51 1149.93,-256.8 1153.62,-262.75"/>
</g>
<!-- Node16&#45;&gt;Node11 -->
<g id="edge20" class="edge">
<title>Node16&#45;&gt;Node11</title>
<path fill="none" stroke="midnightblue" d="M1214.2,-236.19C1211.09,-235.78 1208.01,-235.38 1205,-235 1070.86,-218.12 911.3,-201.37 839.03,-193.96"/>
<polygon fill="midnightblue" stroke="midnightblue" points="839.31,-190.47 829.01,-192.93 838.6,-197.43 839.31,-190.47"/>
</g>
<!-- Node17 -->
<g id="node17" class="node">
<title>Node17</title>
<g id="a_node17"><a xlink:title=" ">
<polygon fill="white" stroke="#bfbfbf" points="1377.5,-0.5 1377.5,-19.5 1450.5,-19.5 1450.5,-0.5 1377.5,-0.5"/>
<text text-anchor="middle" x="1414" y="-7.5" font-family="Helvetica,sans-Serif" font-size="10.00">string_view</text>
</a>
</g>
</g>
<!-- Node16&#45;&gt;Node17 -->
<g id="edge21" class="edge">
<title>Node16&#45;&gt;Node17</title>
<path fill="none" stroke="midnightblue" d="M1262.88,-235.23C1249.24,-214.5 1219.1,-161.31 1240,-123 1268.83,-70.15 1334.47,-38.5 1376.38,-22.94"/>
<polygon fill="midnightblue" stroke="midnightblue" points="1377.73,-26.18 1385.97,-19.51 1375.37,-19.59 1377.73,-26.18"/>
</g>
<!-- Node18 -->
<g id="node18" class="node">
<title>Node18</title>
<g id="a_node18"><a xlink:href="LogMacros_8hpp.html" target="_top" xlink:title=" ">
<polygon fill="white" stroke="red" points="1418,-179.5 1418,-198.5 1508,-198.5 1508,-179.5 1418,-179.5"/>
<text text-anchor="middle" x="1463" y="-186.5" font-family="Helvetica,sans-Serif" font-size="10.00">LogMacros.hpp</text>
</a>
</g>
</g>
<!-- Node16&#45;&gt;Node18 -->
<g id="edge22" class="edge">
<title>Node16&#45;&gt;Node18</title>
<path fill="none" stroke="midnightblue" d="M1299.74,-235.44C1332.94,-226.2 1385.99,-211.44 1422.56,-201.26"/>
<polygon fill="midnightblue" stroke="midnightblue" points="1423.71,-204.57 1432.4,-198.52 1421.83,-197.83 1423.71,-204.57"/>
</g>
<!-- Node19 -->
<g id="node19" class="node">
<title>Node19</title>
<g id="a_node19"><a xlink:href="fmt_8hpp.html" target="_top" xlink:title=" ">
<polygon fill="white" stroke="red" points="1374.5,-62 1374.5,-81 1453.5,-81 1453.5,-62 1374.5,-62"/>
<text text-anchor="middle" x="1414" y="-69" font-family="Helvetica,sans-Serif" font-size="10.00">utils/fmt.hpp</text>
</a>
</g>
</g>
<!-- Node18&#45;&gt;Node19 -->
<g id="edge23" class="edge">
<title>Node18&#45;&gt;Node19</title>
<path fill="none" stroke="midnightblue" d="M1459.32,-179.32C1451.37,-160.59 1432.47,-116.05 1421.76,-90.79"/>
<polygon fill="midnightblue" stroke="midnightblue" points="1424.85,-89.12 1417.73,-81.28 1418.41,-91.85 1424.85,-89.12"/>
</g>
<!-- Node31 -->
<g id="node20" class="node">
<title>Node31</title>
<g id="a_node20"><a xlink:href="ArgumentFormatter_8hpp.html" target="_top" xlink:title=" ">
<polygon fill="white" stroke="red" points="1478.5,-123.5 1478.5,-142.5 1635.5,-142.5 1635.5,-123.5 1478.5,-123.5"/>
<text text-anchor="middle" x="1557" y="-130.5" font-family="Helvetica,sans-Serif" font-size="10.00">utils/ArgumentFormatter.hpp</text>
</a>
</g>
</g>
<!-- Node18&#45;&gt;Node31 -->
<g id="edge26" class="edge">
<title>Node18&#45;&gt;Node31</title>
<path fill="none" stroke="midnightblue" d="M1478.1,-179.32C1492.9,-170.82 1515.69,-157.73 1532.98,-147.8"/>
<polygon fill="midnightblue" stroke="midnightblue" points="1535.01,-150.67 1541.93,-142.65 1531.52,-144.6 1535.01,-150.67"/>
</g>
<!-- Node19&#45;&gt;Node3 -->
<g id="edge24" class="edge">
<title>Node19&#45;&gt;Node3</title>
<path fill="none" stroke="midnightblue" d="M1374.41,-65.57C1351.5,-62.73 1322.13,-59.12 1296,-56 1164.29,-40.27 1007.32,-22.31 940.6,-14.7"/>
<polygon fill="midnightblue" stroke="midnightblue" points="940.65,-11.19 930.31,-13.53 939.85,-18.14 940.65,-11.19"/>
</g>
<!-- Node19&#45;&gt;Node17 -->
<g id="edge25" class="edge">
<title>Node19&#45;&gt;Node17</title>
<path fill="none" stroke="midnightblue" d="M1414,-61.98C1414,-53.58 1414,-40.48 1414,-29.66"/>
<polygon fill="midnightblue" stroke="midnightblue" points="1417.5,-29.51 1414,-19.51 1410.5,-29.51 1417.5,-29.51"/>
</g>
<!-- Node31&#45;&gt;Node19 -->
<g id="edge29" class="edge">
<title>Node31&#45;&gt;Node19</title>
<path fill="none" stroke="midnightblue" d="M1536.51,-123.48C1512.19,-113.36 1471.45,-96.4 1443.68,-84.85"/>
<polygon fill="midnightblue" stroke="midnightblue" points="1445.03,-81.62 1434.45,-81.01 1442.34,-88.08 1445.03,-81.62"/>
</g>
<!-- Node32 -->
<g id="node21" class="node">
<title>Node32</title>
<g id="a_node21"><a xlink:title=" ">
<polygon fill="white" stroke="#bfbfbf" points="1555,-56.5 1555,-86.5 1665,-86.5 1665,-56.5 1555,-56.5"/>
<text text-anchor="start" x="1563" y="-74.5" font-family="Helvetica,sans-Serif" font-size="10.00">boost/preprocessor</text>
<text text-anchor="middle" x="1610" y="-63.5" font-family="Helvetica,sans-Serif" font-size="10.00">/control/if.hpp</text>
</a>
</g>
</g>
<!-- Node31&#45;&gt;Node32 -->
<g id="edge27" class="edge">
<title>Node31&#45;&gt;Node32</title>
<path fill="none" stroke="midnightblue" d="M1564.59,-123.48C1571.37,-115.87 1581.59,-104.4 1590.61,-94.26"/>
<polygon fill="midnightblue" stroke="midnightblue" points="1593.47,-96.32 1597.51,-86.52 1588.24,-91.66 1593.47,-96.32"/>
</g>
<!-- Node34 -->
<g id="node22" class="node">
<title>Node34</title>
<g id="a_node22"><a xlink:title=" ">
<polygon fill="white" stroke="#bfbfbf" points="1849,-56.5 1849,-86.5 1959,-86.5 1959,-56.5 1849,-56.5"/>
<text text-anchor="start" x="1857" y="-74.5" font-family="Helvetica,sans-Serif" font-size="10.00">boost/preprocessor</text>
<text text-anchor="middle" x="1904" y="-63.5" font-family="Helvetica,sans-Serif" font-size="10.00">/stringize.hpp</text>
</a>
</g>
</g>
<!-- Node31&#45;&gt;Node34 -->
<g id="edge28" class="edge">
<title>Node31&#45;&gt;Node34</title>
<path fill="none" stroke="midnightblue" d="M1606.72,-123.48C1667.77,-113.01 1771.48,-95.22 1838.85,-83.67"/>
<polygon fill="midnightblue" stroke="midnightblue" points="1839.67,-87.08 1848.93,-81.94 1838.48,-80.18 1839.67,-87.08"/>
</g>
<!-- Node39&#45;&gt;Node3 -->
<g id="edge35" class="edge">
<title>Node39&#45;&gt;Node3</title>
<path fill="none" stroke="midnightblue" d="M799.19,-535.55C616.24,-535.92 38,-524.77 38,-369 38,-369 38,-369 38,-132 38,-68.87 97.92,-75.39 158,-56 294.45,-11.95 749.65,-10.37 875.51,-10.8"/>
<polygon fill="midnightblue" stroke="midnightblue" points="875.64,-14.3 885.66,-10.85 875.67,-7.3 875.64,-14.3"/>
</g>
<!-- Node39&#45;&gt;Node5 -->
<g id="edge60" class="edge">
<title>Node39&#45;&gt;Node5</title>
<path fill="none" stroke="midnightblue" d="M839.05,-526.47C827.07,-518.7 811.13,-506 804,-490 788.81,-455.9 802.54,-411.51 812.6,-387.09"/>
<polygon fill="midnightblue" stroke="midnightblue" points="815.93,-388.22 816.72,-377.66 809.51,-385.42 815.93,-388.22"/>
</g>
<!-- Node39&#45;&gt;Node7 -->
<g id="edge36" class="edge">
<title>Node39&#45;&gt;Node7</title>
<path fill="none" stroke="midnightblue" d="M839.77,-526.42C826.84,-518.16 807.74,-504.79 794,-490 744.55,-436.78 703.15,-360.06 685.78,-325.53"/>
<polygon fill="midnightblue" stroke="midnightblue" points="688.75,-323.65 681.18,-316.25 682.48,-326.76 688.75,-323.65"/>
</g>
<!-- Node23 -->
<g id="node25" class="node">
<title>Node23</title>
<g id="a_node25"><a xlink:title=" ">
<polygon fill="white" stroke="#bfbfbf" points="1183.5,-358.5 1183.5,-377.5 1252.5,-377.5 1252.5,-358.5 1183.5,-358.5"/>
<text text-anchor="middle" x="1218" y="-365.5" font-family="Helvetica,sans-Serif" font-size="10.00">Eigen/Core</text>
</a>
</g>
</g>
<!-- Node39&#45;&gt;Node23 -->
<g id="edge33" class="edge">
<title>Node39&#45;&gt;Node23</title>
<path fill="none" stroke="midnightblue" d="M886.94,-526.36C908.18,-519.42 935.23,-507.83 954,-490 981.52,-463.85 962.71,-436.89 993,-414 996.61,-411.27 1108.54,-389.73 1173.13,-377.47"/>
<polygon fill="midnightblue" stroke="midnightblue" points="1173.9,-380.88 1183.07,-375.58 1172.6,-374.01 1173.9,-380.88"/>
</g>
<!-- Node40 -->
<g id="node26" class="node">
<title>Node40</title>
<g id="a_node26"><a xlink:title=" ">
<polygon fill="white" stroke="#bfbfbf" points="813,-470.5 813,-489.5 945,-489.5 945,-470.5 813,-470.5"/>
<text text-anchor="middle" x="879" y="-477.5" font-family="Helvetica,sans-Serif" font-size="10.00">boost/test/unit_test.hpp</text>
</a>
</g>
</g>
<!-- Node39&#45;&gt;Node40 -->
<g id="edge34" class="edge">
<title>Node39&#45;&gt;Node40</title>
<path fill="none" stroke="midnightblue" d="M858.13,-526.08C861.51,-518.77 866.42,-508.18 870.62,-499.1"/>
<polygon fill="midnightblue" stroke="midnightblue" points="873.92,-500.3 874.95,-489.75 867.57,-497.36 873.92,-500.3"/>
</g>
<!-- Node41 -->
<g id="node27" class="node">
<title>Node41</title>
<g id="a_node27"><a xlink:href="differences_8hpp.html" target="_top" xlink:title=" ">
<polygon fill="white" stroke="black" points="1225,-414.5 1225,-433.5 1345,-433.5 1345,-414.5 1225,-414.5"/>
<text text-anchor="middle" x="1285" y="-421.5" font-family="Helvetica,sans-Serif" font-size="10.00">math/differences.hpp</text>
</a>
</g>
</g>
<!-- Node39&#45;&gt;Node41 -->
<g id="edge37" class="edge">
<title>Node39&#45;&gt;Node41</title>
<path fill="none" stroke="midnightblue" d="M908.62,-534.13C974.35,-531.57 1087.18,-522.33 1178,-490 1195.68,-483.71 1238.18,-456.34 1263.98,-439.19"/>
<polygon fill="midnightblue" stroke="midnightblue" points="1265.97,-442.06 1272.34,-433.59 1262.08,-436.24 1265.97,-442.06"/>
</g>
<!-- Node50 -->
<g id="node36" class="node">
<title>Node50</title>
<g id="a_node36"><a xlink:href="math_8hpp.html" target="_top" xlink:title=" ">
<polygon fill="white" stroke="black" points="1077,-470.5 1077,-489.5 1169,-489.5 1169,-470.5 1077,-470.5"/>
<text text-anchor="middle" x="1123" y="-477.5" font-family="Helvetica,sans-Serif" font-size="10.00">math/math.hpp</text>
</a>
</g>
</g>
<!-- Node39&#45;&gt;Node50 -->
<g id="edge54" class="edge">
<title>Node39&#45;&gt;Node50</title>
<path fill="none" stroke="midnightblue" d="M896.62,-526.44C943.75,-516.98 1019.69,-501.74 1070.46,-491.55"/>
<polygon fill="midnightblue" stroke="midnightblue" points="1071.46,-494.92 1080.58,-489.52 1070.08,-488.05 1071.46,-494.92"/>
</g>
<!-- Node52 -->
<g id="node38" class="node">
<title>Node52</title>
<g id="a_node38"><a xlink:href="IntraComm_8hpp.html" target="_top" xlink:title=" ">
<polygon fill="white" stroke="black" points="565,-414.5 565,-433.5 681,-433.5 681,-414.5 565,-414.5"/>
<text text-anchor="middle" x="623" y="-421.5" font-family="Helvetica,sans-Serif" font-size="10.00">utils/IntraComm.hpp</text>
</a>
</g>
</g>
<!-- Node39&#45;&gt;Node52 -->
<g id="edge61" class="edge">
<title>Node39&#45;&gt;Node52</title>
<path fill="none" stroke="midnightblue" d="M801.55,-526.45C769.38,-519.72 728.14,-508.32 695,-490 672.09,-477.33 650.45,-456.07 636.99,-441.33"/>
<polygon fill="midnightblue" stroke="midnightblue" points="639.31,-438.68 630.06,-433.52 634.07,-443.33 639.31,-438.68"/>
</g>
<!-- Node41&#45;&gt;Node23 -->
<g id="edge38" class="edge">
<title>Node41&#45;&gt;Node23</title>
<path fill="none" stroke="midnightblue" d="M1274.24,-414.32C1264.23,-406.26 1249.11,-394.08 1237.07,-384.37"/>
<polygon fill="midnightblue" stroke="midnightblue" points="1238.94,-381.38 1228.96,-377.83 1234.55,-386.83 1238.94,-381.38"/>
</g>
<!-- Node42 -->
<g id="node28" class="node">
<title>Node42</title>
<g id="a_node28"><a xlink:href="assertion_8hpp.html" target="_top" xlink:title=" ">
<polygon fill="white" stroke="black" points="1572.5,-358.5 1572.5,-377.5 1679.5,-377.5 1679.5,-358.5 1572.5,-358.5"/>
<text text-anchor="middle" x="1626" y="-365.5" font-family="Helvetica,sans-Serif" font-size="10.00">utils/assertion.hpp</text>
</a>
</g>
</g>
<!-- Node41&#45;&gt;Node42 -->
<g id="edge39" class="edge">
<title>Node41&#45;&gt;Node42</title>
<path fill="none" stroke="midnightblue" d="M1339.03,-414.44C1399.64,-404.85 1497.86,-389.29 1562.2,-379.1"/>
<polygon fill="midnightblue" stroke="midnightblue" points="1562.89,-382.54 1572.22,-377.52 1561.8,-375.62 1562.89,-382.54"/>
</g>
<!-- Node42&#45;&gt;Node13 -->
<g id="edge50" class="edge">
<title>Node42&#45;&gt;Node13</title>
<path fill="none" stroke="midnightblue" d="M1572.46,-361.19C1469.53,-350.01 1244.77,-325.61 1137.4,-313.95"/>
<polygon fill="midnightblue" stroke="midnightblue" points="1137.7,-310.46 1127.38,-312.86 1136.95,-317.42 1137.7,-310.46"/>
</g>
<!-- Node42&#45;&gt;Node17 -->
<g id="edge42" class="edge">
<title>Node42&#45;&gt;Node17</title>
<path fill="none" stroke="midnightblue" d="M1679.91,-365.63C1809.66,-361.92 2131.54,-349.95 2171,-322 2201.2,-300.61 2205,-283 2205,-246 2205,-246 2205,-246 2205,-132 2205,-21.38 2076.51,-77.51 1968,-56 1782.79,-19.29 1557.06,-12.41 1460.95,-11.2"/>
<polygon fill="midnightblue" stroke="midnightblue" points="1460.73,-7.7 1450.7,-11.09 1460.66,-14.7 1460.73,-7.7"/>
</g>
<!-- Node42&#45;&gt;Node19 -->
<g id="edge43" class="edge">
<title>Node42&#45;&gt;Node19</title>
<path fill="none" stroke="midnightblue" d="M1572.43,-362.37C1515.93,-356.4 1431.96,-344.05 1409,-322 1383.89,-297.88 1390,-280.82 1390,-246 1390,-246 1390,-246 1390,-188 1390,-152.98 1400.71,-113.2 1407.82,-90.66"/>
<polygon fill="midnightblue" stroke="midnightblue" points="1411.18,-91.66 1410.96,-81.07 1404.52,-89.48 1411.18,-91.66"/>
</g>
<!-- Node42&#45;&gt;Node31 -->
<g id="edge49" class="edge">
<title>Node42&#45;&gt;Node31</title>
<path fill="none" stroke="midnightblue" d="M1623.96,-358.06C1620.66,-343.8 1613.84,-315.07 1607,-291 1592.66,-240.49 1573.18,-181.7 1563.3,-152.47"/>
<polygon fill="midnightblue" stroke="midnightblue" points="1566.55,-151.14 1560.02,-142.79 1559.92,-153.39 1566.55,-151.14"/>
</g>
<!-- Node42&#45;&gt;Node32 -->
<g id="edge46" class="edge">
<title>Node42&#45;&gt;Node32</title>
<path fill="none" stroke="midnightblue" d="M1630.66,-358.48C1640.81,-339.12 1664,-290.04 1664,-246 1664,-246 1664,-246 1664,-188 1664,-153.02 1643.42,-117.22 1627.67,-94.93"/>
<polygon fill="midnightblue" stroke="midnightblue" points="1630.45,-92.8 1621.72,-86.81 1624.81,-96.94 1630.45,-92.8"/>
</g>
<!-- Node42&#45;&gt;Node34 -->
<g id="edge47" class="edge">
<title>Node42&#45;&gt;Node34</title>
<path fill="none" stroke="midnightblue" d="M1679.81,-365.85C1805.98,-362.67 2112.91,-351.91 2148,-322 2174.5,-299.41 2167,-280.82 2167,-246 2167,-246 2167,-246 2167,-188 2167,-101.85 2047.25,-79.38 1969.36,-73.87"/>
<polygon fill="midnightblue" stroke="midnightblue" points="1969.33,-70.36 1959.13,-73.22 1968.89,-77.35 1969.33,-70.36"/>
</g>
<!-- Node43 -->
<g id="node29" class="node">
<title>Node43</title>
<g id="a_node29"><a xlink:title=" ">
<polygon fill="white" stroke="#bfbfbf" points="1692.5,-297 1692.5,-316 1741.5,-316 1741.5,-297 1692.5,-297"/>
<text text-anchor="middle" x="1717" y="-304" font-family="Helvetica,sans-Serif" font-size="10.00">cstdlib</text>
</a>
</g>
</g>
<!-- Node42&#45;&gt;Node43 -->
<g id="edge40" class="edge">
<title>Node42&#45;&gt;Node43</title>
<path fill="none" stroke="midnightblue" d="M1639.04,-358.48C1653.77,-348.84 1677.97,-333.02 1695.51,-321.55"/>
<polygon fill="midnightblue" stroke="midnightblue" points="1697.53,-324.41 1703.99,-316.01 1693.7,-318.55 1697.53,-324.41"/>
</g>
<!-- Node44 -->
<g id="node30" class="node">
<title>Node44</title>
<g id="a_node30"><a xlink:title=" ">
<polygon fill="white" stroke="#bfbfbf" points="1760,-297 1760,-316 1820,-316 1820,-297 1760,-297"/>
<text text-anchor="middle" x="1790" y="-304" font-family="Helvetica,sans-Serif" font-size="10.00">iostream</text>
</a>
</g>
</g>
<!-- Node42&#45;&gt;Node44 -->
<g id="edge41" class="edge">
<title>Node42&#45;&gt;Node44</title>
<path fill="none" stroke="midnightblue" d="M1649.99,-358.45C1675.17,-349.45 1715.91,-334.84 1751,-322 1753.09,-321.23 1755.25,-320.44 1757.42,-319.64"/>
<polygon fill="midnightblue" stroke="midnightblue" points="1758.75,-322.88 1766.92,-316.13 1756.32,-316.32 1758.75,-322.88"/>
</g>
<!-- Node45 -->
<g id="node31" class="node">
<title>Node45</title>
<g id="a_node31"><a xlink:title=" ">
<polygon fill="white" stroke="#bfbfbf" points="1838.5,-297 1838.5,-316 1985.5,-316 1985.5,-297 1838.5,-297"/>
<text text-anchor="middle" x="1912" y="-304" font-family="Helvetica,sans-Serif" font-size="10.00">boost/current_function.hpp</text>
</a>
</g>
</g>
<!-- Node42&#45;&gt;Node45 -->
<g id="edge44" class="edge">
<title>Node42&#45;&gt;Node45</title>
<path fill="none" stroke="midnightblue" d="M1666.98,-358.48C1718.16,-347.83 1805.73,-329.61 1861.14,-318.08"/>
<polygon fill="midnightblue" stroke="midnightblue" points="1862.02,-321.47 1871.1,-316.01 1860.6,-314.62 1862.02,-321.47"/>
</g>
<!-- Node46 -->
<g id="node32" class="node">
<title>Node46</title>
<g id="a_node32"><a xlink:title=" ">
<polygon fill="white" stroke="#bfbfbf" points="2003.5,-291.5 2003.5,-321.5 2138.5,-321.5 2138.5,-291.5 2003.5,-291.5"/>
<text text-anchor="start" x="2011.5" y="-309.5" font-family="Helvetica,sans-Serif" font-size="10.00">boost/preprocessor</text>
<text text-anchor="middle" x="2071" y="-298.5" font-family="Helvetica,sans-Serif" font-size="10.00">/comparison/greater.hpp</text>
</a>
</g>
</g>
<!-- Node42&#45;&gt;Node46 -->
<g id="edge45" class="edge">
<title>Node42&#45;&gt;Node46</title>
<path fill="none" stroke="midnightblue" d="M1679.63,-361.6C1749.61,-354.3 1876.1,-340.25 1993.61,-322.16"/>
<polygon fill="midnightblue" stroke="midnightblue" points="1994.15,-325.62 2003.5,-320.62 1993.08,-318.7 1994.15,-325.62"/>
</g>
<!-- Node47 -->
<g id="node33" class="node">
<title>Node47</title>
<g id="a_node33"><a xlink:title=" ">
<polygon fill="white" stroke="#bfbfbf" points="1418,-291.5 1418,-321.5 1528,-321.5 1528,-291.5 1418,-291.5"/>
<text text-anchor="start" x="1426" y="-309.5" font-family="Helvetica,sans-Serif" font-size="10.00">boost/preprocessor</text>
<text text-anchor="middle" x="1473" y="-298.5" font-family="Helvetica,sans-Serif" font-size="10.00">/variadic/size.hpp</text>
</a>
</g>
</g>
<!-- Node42&#45;&gt;Node47 -->
<g id="edge48" class="edge">
<title>Node42&#45;&gt;Node47</title>
<path fill="none" stroke="midnightblue" d="M1604.08,-358.48C1581.9,-349.85 1546.96,-336.26 1518.73,-325.29"/>
<polygon fill="midnightblue" stroke="midnightblue" points="1519.65,-321.89 1509.06,-321.52 1517.11,-328.41 1519.65,-321.89"/>
</g>
<!-- Node48 -->
<g id="node34" class="node">
<title>Node48</title>
<g id="a_node34"><a xlink:href="stacktrace_8hpp.html" target="_top" xlink:title=" ">
<polygon fill="white" stroke="black" points="1248.5,-123.5 1248.5,-142.5 1361.5,-142.5 1361.5,-123.5 1248.5,-123.5"/>
<text text-anchor="middle" x="1305" y="-130.5" font-family="Helvetica,sans-Serif" font-size="10.00">utils/stacktrace.hpp</text>
</a>
</g>
</g>
<!-- Node42&#45;&gt;Node48 -->
<g id="edge51" class="edge">
<title>Node42&#45;&gt;Node48</title>
<path fill="none" stroke="midnightblue" d="M1572.33,-363.48C1507.99,-358.23 1405.16,-346.26 1376,-322 1348.92,-299.47 1320.38,-195.49 1309.54,-152.59"/>
<polygon fill="midnightblue" stroke="midnightblue" points="1312.88,-151.51 1307.07,-142.65 1306.08,-153.2 1312.88,-151.51"/>
</g>
<!-- Node49 -->
<g id="node35" class="node">
<title>Node49</title>
<g id="a_node35"><a xlink:title=" ">
<polygon fill="white" stroke="#bfbfbf" points="1546,-297 1546,-316 1598,-316 1598,-297 1546,-297"/>
<text text-anchor="middle" x="1572" y="-304" font-family="Helvetica,sans-Serif" font-size="10.00">cassert</text>
</a>
</g>
</g>
<!-- Node42&#45;&gt;Node49 -->
<g id="edge53" class="edge">
<title>Node42&#45;&gt;Node49</title>
<path fill="none" stroke="midnightblue" d="M1618.26,-358.48C1610,-349.37 1596.72,-334.74 1586.51,-323.48"/>
<polygon fill="midnightblue" stroke="midnightblue" points="1589.03,-321.06 1579.72,-316.01 1583.85,-325.77 1589.03,-321.06"/>
</g>
<!-- Node48&#45;&gt;Node3 -->
<g id="edge52" class="edge">
<title>Node48&#45;&gt;Node3</title>
<path fill="none" stroke="midnightblue" d="M1277.08,-123.49C1205.61,-101.71 1016.31,-44.01 940.28,-20.84"/>
<polygon fill="midnightblue" stroke="midnightblue" points="940.92,-17.37 930.33,-17.81 938.87,-24.07 940.92,-17.37"/>
</g>
<!-- Node50&#45;&gt;Node4 -->
<g id="edge55" class="edge">
<title>Node50&#45;&gt;Node4</title>
<path fill="none" stroke="midnightblue" d="M1112.56,-470.32C1102.85,-462.26 1088.18,-450.08 1076.5,-440.37"/>
<polygon fill="midnightblue" stroke="midnightblue" points="1078.56,-437.53 1068.63,-433.83 1074.09,-442.92 1078.56,-437.53"/>
</g>
<!-- Node50&#45;&gt;Node41 -->
<g id="edge56" class="edge">
<title>Node50&#45;&gt;Node41</title>
<path fill="none" stroke="midnightblue" d="M1148.67,-470.44C1175.92,-461.36 1219.18,-446.94 1249.65,-436.78"/>
<polygon fill="midnightblue" stroke="midnightblue" points="1251.07,-440 1259.45,-433.52 1248.86,-433.36 1251.07,-440"/>
</g>
<!-- Node51 -->
<g id="node37" class="node">
<title>Node51</title>
<g id="a_node37"><a xlink:href="la_8hpp.html" target="_top" xlink:title=" ">
<polygon fill="white" stroke="black" points="1132.5,-414.5 1132.5,-433.5 1207.5,-433.5 1207.5,-414.5 1132.5,-414.5"/>
<text text-anchor="middle" x="1170" y="-421.5" font-family="Helvetica,sans-Serif" font-size="10.00">math/la.hpp</text>
</a>
</g>
</g>
<!-- Node50&#45;&gt;Node51 -->
<g id="edge57" class="edge">
<title>Node50&#45;&gt;Node51</title>
<path fill="none" stroke="midnightblue" d="M1130.76,-470.08C1137.54,-462.3 1147.54,-450.8 1155.76,-441.37"/>
<polygon fill="midnightblue" stroke="midnightblue" points="1158.46,-443.59 1162.38,-433.75 1153.18,-439 1158.46,-443.59"/>
</g>
<!-- Node51&#45;&gt;Node23 -->
<g id="edge58" class="edge">
<title>Node51&#45;&gt;Node23</title>
<path fill="none" stroke="midnightblue" d="M1177.93,-414.08C1184.85,-406.3 1195.07,-394.8 1203.45,-385.37"/>
<polygon fill="midnightblue" stroke="midnightblue" points="1206.19,-387.55 1210.22,-377.75 1200.96,-382.9 1206.19,-387.55"/>
</g>
<!-- Node51&#45;&gt;Node42 -->
<g id="edge59" class="edge">
<title>Node51&#45;&gt;Node42</title>
<path fill="none" stroke="midnightblue" d="M1207.61,-415.37C1210.44,-414.88 1213.26,-414.42 1216,-414 1338.03,-395.4 1481.61,-381.45 1562.4,-374.31"/>
<polygon fill="midnightblue" stroke="midnightblue" points="1562.76,-377.8 1572.41,-373.44 1562.15,-370.82 1562.76,-377.8"/>
</g>
<!-- Node52&#45;&gt;Node12 -->
<g id="edge73" class="edge">
<title>Node52&#45;&gt;Node12</title>
<path fill="none" stroke="midnightblue" d="M630.67,-414.46C637.78,-405.93 647.85,-392.09 652,-378 654.51,-369.47 654.04,-366.65 652,-358 647.89,-340.59 640.31,-338.74 634,-322 626.8,-302.89 621.18,-280.15 617.76,-264.55"/>
<polygon fill="midnightblue" stroke="midnightblue" points="621.15,-263.68 615.66,-254.61 614.3,-265.12 621.15,-263.68"/>
</g>
<!-- Node52&#45;&gt;Node16 -->
<g id="edge66" class="edge">
<title>Node52&#45;&gt;Node16</title>
<path fill="none" stroke="midnightblue" d="M681.06,-418.39C778.17,-409.2 978.42,-383.88 1136,-322 1178.11,-305.46 1222.98,-277.35 1248.35,-260.34"/>
<polygon fill="midnightblue" stroke="midnightblue" points="1250.47,-263.13 1256.78,-254.62 1246.54,-257.34 1250.47,-263.13"/>
</g>
<!-- Node52&#45;&gt;Node23 -->
<g id="edge62" class="edge">
<title>Node52&#45;&gt;Node23</title>
<path fill="none" stroke="midnightblue" d="M681.38,-420.1C781.49,-414.7 992.21,-401.46 1169,-378 1170.3,-377.83 1171.62,-377.64 1172.95,-377.45"/>
<polygon fill="midnightblue" stroke="midnightblue" points="1173.94,-380.84 1183.27,-375.82 1172.85,-373.92 1173.94,-380.84"/>
</g>
<!-- Node53 -->
<g id="node39" class="node">
<title>Node53</title>
<g id="a_node39"><a xlink:title=" ">
<polygon fill="white" stroke="#bfbfbf" points="513.5,-358.5 513.5,-377.5 642.5,-377.5 642.5,-358.5 513.5,-358.5"/>
<text text-anchor="middle" x="578" y="-365.5" font-family="Helvetica,sans-Serif" font-size="10.00">boost/range/irange.hpp</text>
</a>
</g>
</g>
<!-- Node52&#45;&gt;Node53 -->
<g id="edge63" class="edge">
<title>Node52&#45;&gt;Node53</title>
<path fill="none" stroke="midnightblue" d="M615.57,-414.08C609.15,-406.38 599.69,-395.03 591.88,-385.65"/>
<polygon fill="midnightblue" stroke="midnightblue" points="594.38,-383.19 585.29,-377.75 589.01,-387.67 594.38,-383.19"/>
</g>
<!-- Node54 -->
<g id="node40" class="node">
<title>Node54</title>
<g id="a_node40"><a xlink:href="com_2SharedPointer_8hpp.html" target="_top" xlink:title=" ">
<polygon fill="white" stroke="black" points="359.5,-235.5 359.5,-254.5 488.5,-254.5 488.5,-235.5 359.5,-235.5"/>
<text text-anchor="middle" x="424" y="-242.5" font-family="Helvetica,sans-Serif" font-size="10.00">com/SharedPointer.hpp</text>
</a>
</g>
</g>
<!-- Node52&#45;&gt;Node54 -->
<g id="edge64" class="edge">
<title>Node52&#45;&gt;Node54</title>
<path fill="none" stroke="midnightblue" d="M564.8,-420.03C502.7,-415.5 410.24,-404.42 388,-378 363.1,-348.42 373.96,-327.4 387,-291 390.94,-280 398.86,-269.77 406.36,-261.85"/>
<polygon fill="midnightblue" stroke="midnightblue" points="408.89,-264.27 413.56,-254.76 403.98,-259.28 408.89,-264.27"/>
</g>
<!-- Node55 -->
<g id="node41" class="node">
<title>Node55</title>
<g id="a_node41"><a xlink:href="span_8hpp.html" target="_top" xlink:title=" ">
<polygon fill="white" stroke="black" points="396.5,-358.5 396.5,-377.5 495.5,-377.5 495.5,-358.5 396.5,-358.5"/>
<text text-anchor="middle" x="446" y="-365.5" font-family="Helvetica,sans-Serif" font-size="10.00">precice/span.hpp</text>
</a>
</g>
</g>
<!-- Node52&#45;&gt;Node55 -->
<g id="edge67" class="edge">
<title>Node52&#45;&gt;Node55</title>
<path fill="none" stroke="midnightblue" d="M594.95,-414.44C564.92,-405.28 517.09,-390.69 483.76,-380.52"/>
<polygon fill="midnightblue" stroke="midnightblue" points="484.5,-377.09 473.91,-377.52 482.46,-383.78 484.5,-377.09"/>
</g>
<!-- Node54&#45;&gt;Node11 -->
<g id="edge65" class="edge">
<title>Node54&#45;&gt;Node11</title>
<path fill="none" stroke="midnightblue" d="M483.58,-235.44C561.22,-224.29 694.83,-205.1 760.81,-195.63"/>
<polygon fill="midnightblue" stroke="midnightblue" points="761.39,-199.08 770.8,-194.19 760.4,-192.15 761.39,-199.08"/>
</g>
<!-- Node55&#45;&gt;Node7 -->
<g id="edge72" class="edge">
<title>Node55&#45;&gt;Node7</title>
<path fill="none" stroke="midnightblue" d="M479.1,-358.48C519.92,-347.96 589.41,-330.06 634.24,-318.51"/>
<polygon fill="midnightblue" stroke="midnightblue" points="635.15,-321.89 643.96,-316.01 633.41,-315.11 635.15,-321.89"/>
</g>
<!-- Node28 -->
<g id="node42" class="node">
<title>Node28</title>
<g id="a_node42"><a xlink:title=" ">
<polygon fill="white" stroke="#bfbfbf" points="298,-297 298,-316 340,-316 340,-297 298,-297"/>
<text text-anchor="middle" x="319" y="-304" font-family="Helvetica,sans-Serif" font-size="10.00">array</text>
</a>
</g>
</g>
<!-- Node55&#45;&gt;Node28 -->
<g id="edge68" class="edge">
<title>Node55&#45;&gt;Node28</title>
<path fill="none" stroke="midnightblue" d="M427.8,-358.48C406.49,-348.49 370.97,-331.85 346.34,-320.31"/>
<polygon fill="midnightblue" stroke="midnightblue" points="347.7,-317.08 337.16,-316.01 344.73,-323.42 347.7,-317.08"/>
</g>
<!-- Node56 -->
<g id="node43" class="node">
<title>Node56</title>
<g id="a_node43"><a xlink:title=" ">
<polygon fill="white" stroke="#bfbfbf" points="532.5,-297 532.5,-316 585.5,-316 585.5,-297 532.5,-297"/>
<text text-anchor="middle" x="559" y="-304" font-family="Helvetica,sans-Serif" font-size="10.00">cstddef</text>
</a>
</g>
</g>
<!-- Node55&#45;&gt;Node56 -->
<g id="edge69" class="edge">
<title>Node55&#45;&gt;Node56</title>
<path fill="none" stroke="midnightblue" d="M462.19,-358.48C480.9,-348.62 511.92,-332.29 533.8,-320.77"/>
<polygon fill="midnightblue" stroke="midnightblue" points="535.62,-323.77 542.84,-316.01 532.36,-317.57 535.62,-323.77"/>
</g>
<!-- Node57 -->
<g id="node44" class="node">
<title>Node57</title>
<g id="a_node44"><a xlink:title=" ">
<polygon fill="white" stroke="#bfbfbf" points="396,-297 396,-316 446,-316 446,-297 396,-297"/>
<text text-anchor="middle" x="421" y="-304" font-family="Helvetica,sans-Serif" font-size="10.00">cstdint</text>
</a>
</g>
</g>
<!-- Node55&#45;&gt;Node57 -->
<g id="edge70" class="edge">
<title>Node55&#45;&gt;Node57</title>
<path fill="none" stroke="midnightblue" d="M442.42,-358.48C438.82,-349.9 433.15,-336.43 428.56,-325.48"/>
<polygon fill="midnightblue" stroke="midnightblue" points="431.68,-323.87 424.58,-316.01 425.22,-326.58 431.68,-323.87"/>
</g>
<!-- Node58 -->
<g id="node45" class="node">
<title>Node58</title>
<g id="a_node45"><a xlink:title=" ">
<polygon fill="white" stroke="#bfbfbf" points="464,-297 464,-316 514,-316 514,-297 464,-297"/>
<text text-anchor="middle" x="489" y="-304" font-family="Helvetica,sans-Serif" font-size="10.00">cstring</text>
</a>
</g>
</g>
<!-- Node55&#45;&gt;Node58 -->
<g id="edge71" class="edge">
<title>Node55&#45;&gt;Node58</title>
<path fill="none" stroke="midnightblue" d="M452.16,-358.48C458.61,-349.55 468.9,-335.31 476.97,-324.14"/>
<polygon fill="midnightblue" stroke="midnightblue" points="479.83,-326.16 482.85,-316.01 474.16,-322.06 479.83,-326.16"/>
</g>
<!-- Node59&#45;&gt;Node2 -->
<g id="edge77" class="edge">
<title>Node59&#45;&gt;Node2</title>
<path fill="none" stroke="midnightblue" d="M1210.18,-526.44C1234.25,-517.16 1272.76,-502.31 1299.16,-492.13"/>
<polygon fill="midnightblue" stroke="midnightblue" points="1300.56,-495.34 1308.63,-488.47 1298.04,-488.81 1300.56,-495.34"/>
</g>
<!-- Node24 -->
<g id="node47" class="node">
<title>Node24</title>
<g id="a_node47"><a xlink:title=" ">
<polygon fill="white" stroke="#bfbfbf" points="216,-297 216,-316 280,-316 280,-297 216,-297"/>
<text text-anchor="middle" x="248" y="-304" font-family="Helvetica,sans-Serif" font-size="10.00">algorithm</text>
</a>
</g>
</g>
<!-- Node59&#45;&gt;Node24 -->
<g id="edge75" class="edge">
<title>Node59&#45;&gt;Node24</title>
<path fill="none" stroke="midnightblue" d="M1163.07,-526.47C1120.67,-512.32 1031.56,-484.16 954,-470 696.38,-422.97 612.57,-481.48 372,-378 334.44,-361.85 293.76,-337.21 269.6,-321.75"/>
<polygon fill="midnightblue" stroke="midnightblue" points="271.19,-318.61 260.9,-316.12 267.39,-324.49 271.19,-318.61"/>
</g>
<!-- Node60 -->
<g id="node48" class="node">
<title>Node60</title>
<g id="a_node48"><a xlink:title=" ">
<polygon fill="white" stroke="#bfbfbf" points="1225.5,-470.5 1225.5,-489.5 1290.5,-489.5 1290.5,-470.5 1225.5,-470.5"/>
<text text-anchor="middle" x="1258" y="-477.5" font-family="Helvetica,sans-Serif" font-size="10.00">exception</text>
</a>
</g>
</g>
<!-- Node59&#45;&gt;Node60 -->
<g id="edge76" class="edge">
<title>Node59&#45;&gt;Node60</title>
<path fill="none" stroke="midnightblue" d="M1199.25,-526.32C1209.8,-518.18 1225.8,-505.84 1238.44,-496.09"/>
<polygon fill="midnightblue" stroke="midnightblue" points="1240.77,-498.71 1246.55,-489.83 1236.49,-493.17 1240.77,-498.71"/>
</g>
<!-- Node61&#45;&gt;Node3 -->
<g id="edge82" class="edge">
<title>Node61&#45;&gt;Node3</title>
<path fill="none" stroke="midnightblue" d="M140.93,-358.5C126.21,-350.97 106.48,-338.59 95,-322 75.19,-293.36 76,-280.82 76,-246 76,-246 76,-246 76,-132 76,-49.68 722.05,-18.48 875.56,-12.23"/>
<polygon fill="midnightblue" stroke="midnightblue" points="875.89,-15.72 885.75,-11.82 875.61,-8.73 875.89,-15.72"/>
</g>
<!-- Node61&#45;&gt;Node9 -->
<g id="edge83" class="edge">
<title>Node61&#45;&gt;Node9</title>
<path fill="none" stroke="midnightblue" d="M162.39,-358.5C167.49,-342.11 181.15,-306.41 207,-291 263.76,-257.16 720.53,-265.4 822.41,-254.41"/>
<polygon fill="midnightblue" stroke="midnightblue" points="822.89,-257.88 832.34,-253.09 821.96,-250.94 822.89,-257.88"/>
</g>
<!-- Node61&#45;&gt;Node28 -->
<g id="edge80" class="edge">
<title>Node61&#45;&gt;Node28</title>
<path fill="none" stroke="midnightblue" d="M187.27,-358.49C213.61,-350.04 254.49,-336.3 289,-322 290.2,-321.5 291.43,-320.98 292.66,-320.44"/>
<polygon fill="midnightblue" stroke="midnightblue" points="294.4,-323.49 302.02,-316.12 291.47,-317.13 294.4,-323.49"/>
</g>
<!-- Node61&#45;&gt;Node24 -->
<g id="edge79" class="edge">
<title>Node61&#45;&gt;Node24</title>
<path fill="none" stroke="midnightblue" d="M172.61,-358.48C186.72,-348.93 209.83,-333.31 226.75,-321.87"/>
<polygon fill="midnightblue" stroke="midnightblue" points="229.09,-324.51 235.42,-316.01 225.17,-318.71 229.09,-324.51"/>
</g>
<!-- Node25 -->
<g id="node50" class="node">
<title>Node25</title>
<g id="a_node50"><a xlink:title=" ">
<polygon fill="white" stroke="#bfbfbf" points="104,-297 104,-316 160,-316 160,-297 104,-297"/>
<text text-anchor="middle" x="132" y="-304" font-family="Helvetica,sans-Serif" font-size="10.00">sstream</text>
</a>
</g>
</g>
<!-- Node61&#45;&gt;Node25 -->
<g id="edge81" class="edge">
<title>Node61&#45;&gt;Node25</title>
<path fill="none" stroke="midnightblue" d="M155.99,-358.48C151.91,-349.82 145.48,-336.15 140.3,-325.15"/>
<polygon fill="midnightblue" stroke="midnightblue" points="143.43,-323.57 136,-316.01 137.1,-326.55 143.43,-323.57"/>
</g>
</g>
</svg>
