<?xml version="1.0" encoding="UTF-8" standalone="no"?>
<!DOCTYPE svg PUBLIC "-//W3C//DTD SVG 1.1//EN"
 "http://www.w3.org/Graphics/SVG/1.1/DTD/svg11.dtd">
<!-- Generated by graphviz version 2.43.0 (0)
 -->
<!-- Title: src/utils/Petsc.hpp Pages: 1 -->
<!--zoomable 487 -->
<svg id="main" version="1.1" xmlns="http://www.w3.org/2000/svg" xmlns:xlink="http://www.w3.org/1999/xlink" xml:space="preserve" onload="init(evt)">
<style type="text/css"><![CDATA[
.edge:hover path { stroke: red; }
.edge:hover polygon { stroke: red; fill: red; }
]]></style>
<script type="text/javascript"><![CDATA[
var edges = document.getElementsByTagName('g');
if (edges && edges.length) {
  for (var i=0;i<edges.length;i++) {
    if (edges[i].id.substr(0,4)=='edge') {
      edges[i].setAttribute('class','edge');
    }
  }
}
]]></script>
        <defs>
                <circle id="rim" cx="0" cy="0" r="7"/>
                <circle id="rim2" cx="0" cy="0" r="3.5"/>
                <g id="zoomPlus">
                        <use xlink:href="#rim" fill="#404040">
                                <set attributeName="fill" to="#808080" begin="zoomplus.mouseover" end="zoomplus.mouseout"/>
                        </use>
                        <path d="M-4,0h8M0,-4v8" fill="none" stroke="white" stroke-width="1.5" pointer-events="none"/>
                </g>
                <g id="zoomMin">
                        <use xlink:href="#rim" fill="#404040">
                                <set attributeName="fill" to="#808080" begin="zoomminus.mouseover" end="zoomminus.mouseout"/>
                        </use>
                        <path d="M-4,0h8" fill="none" stroke="white" stroke-width="1.5" pointer-events="none"/>
                </g>
                <g id="dirArrow">
                        <path fill="none" stroke="white" stroke-width="1.5" d="M0,-3.0v7 M-2.5,-0.5L0,-3.0L2.5,-0.5"/>
                </g>
               <g id="resetDef">
                       <use xlink:href="#rim2" fill="#404040">
                               <set attributeName="fill" to="#808080" begin="reset.mouseover" end="reset.mouseout"/>
                       </use>
               </g>
        </defs>

<script type="text/javascript">
var viewWidth = 1600;
var viewHeight = 487;
var sectionId = 'dynsection-0';
</script>
<script xlink:href="svgpan.js"/>
<svg id="graph" class="graph">
<g id="viewport">
<title>src/utils/Petsc.hpp</title>
<polygon fill="white" stroke="transparent" points="-4,4 -4,-483 1595.5,-483 1595.5,4 -4,4"/>
<!-- Node1 -->
<g id="node1" class="node">
<title>Node1</title>
<g id="a_node1"><a xlink:title=" ">
<polygon fill="#bfbfbf" stroke="black" points="1128.5,-459.5 1128.5,-478.5 1233.5,-478.5 1233.5,-459.5 1128.5,-459.5"/>
<text text-anchor="middle" x="1181" y="-466.5" font-family="Helvetica,sans-Serif" font-size="10.00">src/utils/Petsc.hpp</text>
</a>
</g>
</g>
<!-- Node2 -->
<g id="node2" class="node">
<title>Node2</title>
<g id="a_node2"><a xlink:href="Logger_8hpp.html" target="_top" xlink:title=" ">
<polygon fill="white" stroke="black" points="879.5,-347.5 879.5,-366.5 988.5,-366.5 988.5,-347.5 879.5,-347.5"/>
<text text-anchor="middle" x="934" y="-354.5" font-family="Helvetica,sans-Serif" font-size="10.00">logging/Logger.hpp</text>
</a>
</g>
</g>
<!-- Node1&#45;&gt;Node2 -->
<g id="edge1" class="edge">
<title>Node1&#45;&gt;Node2</title>
<path fill="none" stroke="midnightblue" d="M1128.14,-462.99C1089.7,-457.53 1037.52,-446.22 997,-423 976,-410.96 957.46,-389.88 946.03,-374.99"/>
<polygon fill="midnightblue" stroke="midnightblue" points="948.63,-372.62 939.87,-366.66 943,-376.78 948.63,-372.62"/>
</g>
<!-- Node7 -->
<g id="node7" class="node">
<title>Node7</title>
<g id="a_node7"><a xlink:title=" ">
<polygon fill="white" stroke="#bfbfbf" points="863,-112.5 863,-131.5 907,-131.5 907,-112.5 863,-112.5"/>
<text text-anchor="middle" x="885" y="-119.5" font-family="Helvetica,sans-Serif" font-size="10.00">string</text>
</a>
</g>
</g>
<!-- Node1&#45;&gt;Node7 -->
<g id="edge48" class="edge">
<title>Node1&#45;&gt;Node7</title>
<path fill="none" stroke="midnightblue" d="M1128.26,-466.65C944.43,-461.26 343,-437.56 343,-358 343,-358 343,-358 343,-244 343,-209.18 335.5,-190.58 362,-168 399.34,-136.17 743.97,-126.05 852.46,-123.64"/>
<polygon fill="midnightblue" stroke="midnightblue" points="852.86,-127.13 862.78,-123.41 852.71,-120.13 852.86,-127.13"/>
</g>
<!-- Node28 -->
<g id="node28" class="node">
<title>Node28</title>
<g id="a_node28"><a xlink:href="span_8hpp.html" target="_top" xlink:title=" ">
<polygon fill="white" stroke="black" points="131.5,-403.5 131.5,-422.5 230.5,-422.5 230.5,-403.5 131.5,-403.5"/>
<text text-anchor="middle" x="181" y="-410.5" font-family="Helvetica,sans-Serif" font-size="10.00">precice/span.hpp</text>
</a>
</g>
</g>
<!-- Node1&#45;&gt;Node28 -->
<g id="edge33" class="edge">
<title>Node1&#45;&gt;Node28</title>
<path fill="none" stroke="midnightblue" d="M1128.15,-465.36C994.36,-458.63 631.42,-440.18 329,-423 299.94,-421.35 267.69,-419.4 240.72,-417.74"/>
<polygon fill="midnightblue" stroke="midnightblue" points="240.86,-414.24 230.67,-417.12 240.43,-421.23 240.86,-414.24"/>
</g>
<!-- Node33 -->
<g id="node33" class="node">
<title>Node33</title>
<g id="a_node33"><a xlink:href="Parallel_8hpp.html" target="_top" xlink:title=" ">
<polygon fill="white" stroke="black" points="1006,-403.5 1006,-422.5 1104,-422.5 1104,-403.5 1006,-403.5"/>
<text text-anchor="middle" x="1055" y="-410.5" font-family="Helvetica,sans-Serif" font-size="10.00">utils/Parallel.hpp</text>
</a>
</g>
</g>
<!-- Node1&#45;&gt;Node33 -->
<g id="edge39" class="edge">
<title>Node1&#45;&gt;Node33</title>
<path fill="none" stroke="midnightblue" d="M1161.03,-459.44C1140.39,-450.6 1107.94,-436.69 1084.37,-426.59"/>
<polygon fill="midnightblue" stroke="midnightblue" points="1085.44,-423.24 1074.87,-422.52 1082.68,-429.67 1085.44,-423.24"/>
</g>
<!-- Node38 -->
<g id="node38" class="node">
<title>Node38</title>
<g id="a_node38"><a xlink:title=" ">
<polygon fill="white" stroke="#bfbfbf" points="1122.5,-403.5 1122.5,-422.5 1167.5,-422.5 1167.5,-403.5 1122.5,-403.5"/>
<text text-anchor="middle" x="1145" y="-410.5" font-family="Helvetica,sans-Serif" font-size="10.00">utility</text>
</a>
</g>
</g>
<!-- Node1&#45;&gt;Node38 -->
<g id="edge49" class="edge">
<title>Node1&#45;&gt;Node38</title>
<path fill="none" stroke="midnightblue" d="M1175.06,-459.08C1170.02,-451.53 1162.66,-440.49 1156.49,-431.23"/>
<polygon fill="midnightblue" stroke="midnightblue" points="1159.29,-429.13 1150.83,-422.75 1153.47,-433.01 1159.29,-429.13"/>
</g>
<!-- Node39 -->
<g id="node39" class="node">
<title>Node39</title>
<g id="a_node39"><a xlink:title=" ">
<polygon fill="white" stroke="#bfbfbf" points="1186,-403.5 1186,-422.5 1250,-422.5 1250,-403.5 1186,-403.5"/>
<text text-anchor="middle" x="1218" y="-410.5" font-family="Helvetica,sans-Serif" font-size="10.00">petscao.h</text>
</a>
</g>
</g>
<!-- Node1&#45;&gt;Node39 -->
<g id="edge50" class="edge">
<title>Node1&#45;&gt;Node39</title>
<path fill="none" stroke="midnightblue" d="M1187.11,-459.08C1192.28,-451.53 1199.85,-440.49 1206.19,-431.23"/>
<polygon fill="midnightblue" stroke="midnightblue" points="1209.24,-432.98 1212,-422.75 1203.46,-429.02 1209.24,-432.98"/>
</g>
<!-- Node40 -->
<g id="node40" class="node">
<title>Node40</title>
<g id="a_node40"><a xlink:title=" ">
<polygon fill="white" stroke="#bfbfbf" points="1268,-403.5 1268,-422.5 1328,-422.5 1328,-403.5 1268,-403.5"/>
<text text-anchor="middle" x="1298" y="-410.5" font-family="Helvetica,sans-Serif" font-size="10.00">petscis.h</text>
</a>
</g>
</g>
<!-- Node1&#45;&gt;Node40 -->
<g id="edge51" class="edge">
<title>Node1&#45;&gt;Node40</title>
<path fill="none" stroke="midnightblue" d="M1199.54,-459.44C1218.62,-450.64 1248.57,-436.81 1270.44,-426.72"/>
<polygon fill="midnightblue" stroke="midnightblue" points="1271.93,-429.88 1279.55,-422.52 1269,-423.53 1271.93,-429.88"/>
</g>
<!-- Node41 -->
<g id="node41" class="node">
<title>Node41</title>
<g id="a_node41"><a xlink:title=" ">
<polygon fill="white" stroke="#bfbfbf" points="1346.5,-403.5 1346.5,-422.5 1415.5,-422.5 1415.5,-403.5 1346.5,-403.5"/>
<text text-anchor="middle" x="1381" y="-410.5" font-family="Helvetica,sans-Serif" font-size="10.00">petscksp.h</text>
</a>
</g>
</g>
<!-- Node1&#45;&gt;Node41 -->
<g id="edge52" class="edge">
<title>Node1&#45;&gt;Node41</title>
<path fill="none" stroke="midnightblue" d="M1212.69,-459.44C1247.07,-450.16 1302.08,-435.31 1339.79,-425.13"/>
<polygon fill="midnightblue" stroke="midnightblue" points="1340.72,-428.5 1349.46,-422.52 1338.89,-421.74 1340.72,-428.5"/>
</g>
<!-- Node42 -->
<g id="node42" class="node">
<title>Node42</title>
<g id="a_node42"><a xlink:title=" ">
<polygon fill="white" stroke="#bfbfbf" points="1433.5,-403.5 1433.5,-422.5 1504.5,-422.5 1504.5,-403.5 1433.5,-403.5"/>
<text text-anchor="middle" x="1469" y="-410.5" font-family="Helvetica,sans-Serif" font-size="10.00">petscmat.h</text>
</a>
</g>
</g>
<!-- Node1&#45;&gt;Node42 -->
<g id="edge53" class="edge">
<title>Node1&#45;&gt;Node42</title>
<path fill="none" stroke="midnightblue" d="M1228.74,-459.48C1275.85,-451 1350.19,-437.46 1423.59,-423.25"/>
<polygon fill="midnightblue" stroke="midnightblue" points="1424.32,-426.67 1433.47,-421.33 1422.99,-419.8 1424.32,-426.67"/>
</g>
<!-- Node43 -->
<g id="node43" class="node">
<title>Node43</title>
<g id="a_node43"><a xlink:title=" ">
<polygon fill="white" stroke="#bfbfbf" points="1522.5,-403.5 1522.5,-422.5 1591.5,-422.5 1591.5,-403.5 1522.5,-403.5"/>
<text text-anchor="middle" x="1557" y="-410.5" font-family="Helvetica,sans-Serif" font-size="10.00">petscvec.h</text>
</a>
</g>
</g>
<!-- Node1&#45;&gt;Node43 -->
<g id="edge54" class="edge">
<title>Node1&#45;&gt;Node43</title>
<path fill="none" stroke="midnightblue" d="M1233.66,-462.07C1297.4,-454.63 1408.2,-440.85 1512.26,-423.2"/>
<polygon fill="midnightblue" stroke="midnightblue" points="1513.04,-426.62 1522.31,-421.48 1511.86,-419.72 1513.04,-426.62"/>
</g>
<!-- Node3 -->
<g id="node3" class="node">
<title>Node3</title>
<g id="a_node3"><a xlink:title=" ">
<polygon fill="white" stroke="#bfbfbf" points="969,-291.5 969,-310.5 1027,-310.5 1027,-291.5 969,-291.5"/>
<text text-anchor="middle" x="998" y="-298.5" font-family="Helvetica,sans-Serif" font-size="10.00">memory</text>
</a>
</g>
</g>
<!-- Node2&#45;&gt;Node3 -->
<g id="edge2" class="edge">
<title>Node2&#45;&gt;Node3</title>
<path fill="none" stroke="midnightblue" d="M944.28,-347.32C953.84,-339.26 968.28,-327.08 979.78,-317.37"/>
<polygon fill="midnightblue" stroke="midnightblue" points="982.14,-319.96 987.53,-310.83 977.63,-314.61 982.14,-319.96"/>
</g>
<!-- Node4 -->
<g id="node4" class="node">
<title>Node4</title>
<g id="a_node4"><a xlink:title=" ">
<polygon fill="white" stroke="#bfbfbf" points="520.5,-112.5 520.5,-131.5 593.5,-131.5 593.5,-112.5 520.5,-112.5"/>
<text text-anchor="middle" x="557" y="-119.5" font-family="Helvetica,sans-Serif" font-size="10.00">string_view</text>
</a>
</g>
</g>
<!-- Node2&#45;&gt;Node4 -->
<g id="edge3" class="edge">
<title>Node2&#45;&gt;Node4</title>
<path fill="none" stroke="midnightblue" d="M879.14,-350.21C743.23,-334.61 396.98,-286.87 329,-199 280.44,-136.23 429.91,-124.78 509.94,-123.04"/>
<polygon fill="midnightblue" stroke="midnightblue" points="510.34,-126.53 520.28,-122.86 510.22,-119.54 510.34,-126.53"/>
</g>
<!-- Node5 -->
<g id="node5" class="node">
<title>Node5</title>
<g id="a_node5"><a xlink:href="LogMacros_8hpp.html" target="_top" xlink:title=" ">
<polygon fill="white" stroke="black" points="823,-291.5 823,-310.5 913,-310.5 913,-291.5 823,-291.5"/>
<text text-anchor="middle" x="868" y="-298.5" font-family="Helvetica,sans-Serif" font-size="10.00">LogMacros.hpp</text>
</a>
</g>
</g>
<!-- Node2&#45;&gt;Node5 -->
<g id="edge4" class="edge">
<title>Node2&#45;&gt;Node5</title>
<path fill="none" stroke="midnightblue" d="M923.4,-347.32C913.54,-339.26 898.65,-327.08 886.78,-317.37"/>
<polygon fill="midnightblue" stroke="midnightblue" points="888.75,-314.46 878.8,-310.83 884.32,-319.88 888.75,-314.46"/>
</g>
<!-- Node6 -->
<g id="node6" class="node">
<title>Node6</title>
<g id="a_node6"><a xlink:href="fmt_8hpp.html" target="_top" xlink:title=" ">
<polygon fill="white" stroke="black" points="1083.5,-174 1083.5,-193 1162.5,-193 1162.5,-174 1083.5,-174"/>
<text text-anchor="middle" x="1123" y="-181" font-family="Helvetica,sans-Serif" font-size="10.00">utils/fmt.hpp</text>
</a>
</g>
</g>
<!-- Node5&#45;&gt;Node6 -->
<g id="edge5" class="edge">
<title>Node5&#45;&gt;Node6</title>
<path fill="none" stroke="midnightblue" d="M867.89,-291.42C868.21,-277.45 870.98,-249.88 887,-235 893.86,-228.63 1006.29,-206.52 1073.45,-193.76"/>
<polygon fill="midnightblue" stroke="midnightblue" points="1074.24,-197.18 1083.42,-191.88 1072.94,-190.3 1074.24,-197.18"/>
</g>
<!-- Node21 -->
<g id="node21" class="node">
<title>Node21</title>
<g id="a_node21"><a xlink:href="ArgumentFormatter_8hpp.html" target="_top" xlink:title=" ">
<polygon fill="white" stroke="black" points="682.5,-235.5 682.5,-254.5 839.5,-254.5 839.5,-235.5 682.5,-235.5"/>
<text text-anchor="middle" x="761" y="-242.5" font-family="Helvetica,sans-Serif" font-size="10.00">utils/ArgumentFormatter.hpp</text>
</a>
</g>
</g>
<!-- Node5&#45;&gt;Node21 -->
<g id="edge24" class="edge">
<title>Node5&#45;&gt;Node21</title>
<path fill="none" stroke="midnightblue" d="M850.81,-291.32C833.65,-282.66 807.05,-269.24 787.25,-259.25"/>
<polygon fill="midnightblue" stroke="midnightblue" points="788.65,-256.04 778.15,-254.65 785.5,-262.28 788.65,-256.04"/>
</g>
<!-- Node27 -->
<g id="node27" class="node">
<title>Node27</title>
<g id="a_node27"><a xlink:href="Tracer_8hpp.html" target="_top" xlink:title=" ">
<polygon fill="white" stroke="black" points="896.5,-235.5 896.5,-254.5 1001.5,-254.5 1001.5,-235.5 896.5,-235.5"/>
<text text-anchor="middle" x="949" y="-242.5" font-family="Helvetica,sans-Serif" font-size="10.00">logging/Tracer.hpp</text>
</a>
</g>
</g>
<!-- Node5&#45;&gt;Node27 -->
<g id="edge31" class="edge">
<title>Node5&#45;&gt;Node27</title>
<path fill="none" stroke="midnightblue" d="M881.01,-291.32C893.53,-282.98 912.68,-270.21 927.47,-260.35"/>
<polygon fill="midnightblue" stroke="midnightblue" points="929.64,-263.11 936.02,-254.65 925.76,-257.29 929.64,-263.11"/>
</g>
<!-- Node6&#45;&gt;Node4 -->
<g id="edge7" class="edge">
<title>Node6&#45;&gt;Node4</title>
<path fill="none" stroke="midnightblue" d="M1083.24,-175.26C1068.45,-172.73 1051.49,-170.02 1036,-168 878.17,-147.46 689.91,-132.57 603.97,-126.29"/>
<polygon fill="midnightblue" stroke="midnightblue" points="603.98,-122.78 593.76,-125.55 603.48,-129.77 603.98,-122.78"/>
</g>
<!-- Node6&#45;&gt;Node7 -->
<g id="edge6" class="edge">
<title>Node6&#45;&gt;Node7</title>
<path fill="none" stroke="midnightblue" d="M1091.92,-173.98C1084.43,-171.97 1076.44,-169.87 1069,-168 1004.3,-151.71 985.26,-149.88 917.24,-132.23"/>
<polygon fill="midnightblue" stroke="midnightblue" points="917.87,-128.77 907.31,-129.63 916.1,-135.55 917.87,-128.77"/>
</g>
<!-- Node8 -->
<g id="node8" class="node">
<title>Node8</title>
<g id="a_node8"><a xlink:title=" ">
<polygon fill="white" stroke="#bfbfbf" points="1150.5,-56.5 1150.5,-75.5 1229.5,-75.5 1229.5,-56.5 1150.5,-56.5"/>
<text text-anchor="middle" x="1190" y="-63.5" font-family="Helvetica,sans-Serif" font-size="10.00">fmt/format.h</text>
</a>
</g>
</g>
<!-- Node6&#45;&gt;Node8 -->
<g id="edge8" class="edge">
<title>Node6&#45;&gt;Node8</title>
<path fill="none" stroke="midnightblue" d="M1128.04,-173.82C1139,-154.92 1165.2,-109.75 1179.78,-84.62"/>
<polygon fill="midnightblue" stroke="midnightblue" points="1182.92,-86.19 1184.91,-75.78 1176.86,-82.68 1182.92,-86.19"/>
</g>
<!-- Node9 -->
<g id="node9" class="node">
<title>Node9</title>
<g id="a_node9"><a xlink:title=" ">
<polygon fill="white" stroke="#bfbfbf" points="925,-112.5 925,-131.5 1011,-131.5 1011,-112.5 925,-112.5"/>
<text text-anchor="middle" x="968" y="-119.5" font-family="Helvetica,sans-Serif" font-size="10.00">fmt/ostream.h</text>
</a>
</g>
</g>
<!-- Node6&#45;&gt;Node9 -->
<g id="edge9" class="edge">
<title>Node6&#45;&gt;Node9</title>
<path fill="none" stroke="midnightblue" d="M1100.79,-173.98C1074.32,-163.81 1029.89,-146.76 999.78,-135.2"/>
<polygon fill="midnightblue" stroke="midnightblue" points="1000.76,-131.83 990.17,-131.51 998.25,-138.36 1000.76,-131.83"/>
</g>
<!-- Node10 -->
<g id="node10" class="node">
<title>Node10</title>
<g id="a_node10"><a xlink:href="fmtEigen_8hpp.html" target="_top" xlink:title=" ">
<polygon fill="white" stroke="black" points="1278,-112.5 1278,-131.5 1384,-131.5 1384,-112.5 1278,-112.5"/>
<text text-anchor="middle" x="1331" y="-119.5" font-family="Helvetica,sans-Serif" font-size="10.00">utils/fmtEigen.hpp</text>
</a>
</g>
</g>
<!-- Node6&#45;&gt;Node10 -->
<g id="edge10" class="edge">
<title>Node6&#45;&gt;Node10</title>
<path fill="none" stroke="midnightblue" d="M1152.8,-173.98C1189.25,-163.55 1251.08,-145.86 1291.47,-134.31"/>
<polygon fill="midnightblue" stroke="midnightblue" points="1292.6,-137.62 1301.25,-131.51 1290.68,-130.89 1292.6,-137.62"/>
</g>
<!-- Node15 -->
<g id="node15" class="node">
<title>Node15</title>
<g id="a_node15"><a xlink:href="fmtSTL_8hpp.html" target="_top" xlink:title=" ">
<polygon fill="white" stroke="black" points="1029,-112.5 1029,-131.5 1125,-131.5 1125,-112.5 1029,-112.5"/>
<text text-anchor="middle" x="1077" y="-119.5" font-family="Helvetica,sans-Serif" font-size="10.00">utils/fmtSTL.hpp</text>
</a>
</g>
</g>
<!-- Node6&#45;&gt;Node15 -->
<g id="edge17" class="edge">
<title>Node6&#45;&gt;Node15</title>
<path fill="none" stroke="midnightblue" d="M1116.41,-173.98C1109.51,-165.05 1098.5,-150.81 1089.87,-139.64"/>
<polygon fill="midnightblue" stroke="midnightblue" points="1092.46,-137.28 1083.58,-131.51 1086.93,-141.56 1092.46,-137.28"/>
</g>
<!-- Node10&#45;&gt;Node8 -->
<g id="edge13" class="edge">
<title>Node10&#45;&gt;Node8</title>
<path fill="none" stroke="midnightblue" d="M1308.66,-112.44C1285.25,-103.48 1248.26,-89.31 1221.81,-79.18"/>
<polygon fill="midnightblue" stroke="midnightblue" points="1222.83,-75.82 1212.24,-75.52 1220.32,-82.36 1222.83,-75.82"/>
</g>
<!-- Node11 -->
<g id="node11" class="node">
<title>Node11</title>
<g id="a_node11"><a xlink:title=" ">
<polygon fill="white" stroke="#bfbfbf" points="1458.5,-0.5 1458.5,-19.5 1527.5,-19.5 1527.5,-0.5 1458.5,-0.5"/>
<text text-anchor="middle" x="1493" y="-7.5" font-family="Helvetica,sans-Serif" font-size="10.00">Eigen/Core</text>
</a>
</g>
</g>
<!-- Node10&#45;&gt;Node11 -->
<g id="edge11" class="edge">
<title>Node10&#45;&gt;Node11</title>
<path fill="none" stroke="midnightblue" d="M1384.08,-115.1C1431.95,-108.56 1497.2,-96.18 1513,-76 1523.87,-62.12 1515.26,-42.32 1506.19,-28.23"/>
<polygon fill="midnightblue" stroke="midnightblue" points="1508.97,-26.1 1500.37,-19.91 1503.24,-30.11 1508.97,-26.1"/>
</g>
<!-- Node12 -->
<g id="node12" class="node">
<title>Node12</title>
<g id="a_node12"><a xlink:title=" ">
<polygon fill="white" stroke="#bfbfbf" points="1248,-56.5 1248,-75.5 1312,-75.5 1312,-56.5 1248,-56.5"/>
<text text-anchor="middle" x="1280" y="-63.5" font-family="Helvetica,sans-Serif" font-size="10.00">algorithm</text>
</a>
</g>
</g>
<!-- Node10&#45;&gt;Node12 -->
<g id="edge12" class="edge">
<title>Node10&#45;&gt;Node12</title>
<path fill="none" stroke="midnightblue" d="M1322.58,-112.08C1315.15,-104.22 1304.15,-92.57 1295.19,-83.08"/>
<polygon fill="midnightblue" stroke="midnightblue" points="1297.68,-80.62 1288.26,-75.75 1292.59,-85.42 1297.68,-80.62"/>
</g>
<!-- Node13 -->
<g id="node13" class="node">
<title>Node13</title>
<g id="a_node13"><a xlink:title=" ">
<polygon fill="white" stroke="#bfbfbf" points="1330,-56.5 1330,-75.5 1386,-75.5 1386,-56.5 1330,-56.5"/>
<text text-anchor="middle" x="1358" y="-63.5" font-family="Helvetica,sans-Serif" font-size="10.00">sstream</text>
</a>
</g>
</g>
<!-- Node10&#45;&gt;Node13 -->
<g id="edge14" class="edge">
<title>Node10&#45;&gt;Node13</title>
<path fill="none" stroke="midnightblue" d="M1335.46,-112.08C1339.15,-104.69 1344.52,-93.95 1349.09,-84.81"/>
<polygon fill="midnightblue" stroke="midnightblue" points="1352.28,-86.26 1353.62,-75.75 1346.02,-83.13 1352.28,-86.26"/>
</g>
<!-- Node14 -->
<g id="node14" class="node">
<title>Node14</title>
<g id="a_node14"><a xlink:href="EigenIO_8hpp.html" target="_top" xlink:title=" ">
<polygon fill="white" stroke="black" points="1404.5,-56.5 1404.5,-75.5 1503.5,-75.5 1503.5,-56.5 1404.5,-56.5"/>
<text text-anchor="middle" x="1454" y="-63.5" font-family="Helvetica,sans-Serif" font-size="10.00">utils/EigenIO.hpp</text>
</a>
</g>
</g>
<!-- Node10&#45;&gt;Node14 -->
<g id="edge15" class="edge">
<title>Node10&#45;&gt;Node14</title>
<path fill="none" stroke="midnightblue" d="M1350.49,-112.44C1370.64,-103.6 1402.32,-89.69 1425.33,-79.59"/>
<polygon fill="midnightblue" stroke="midnightblue" points="1426.85,-82.74 1434.6,-75.52 1424.04,-76.33 1426.85,-82.74"/>
</g>
<!-- Node14&#45;&gt;Node11 -->
<g id="edge16" class="edge">
<title>Node14&#45;&gt;Node11</title>
<path fill="none" stroke="midnightblue" d="M1460.44,-56.08C1465.95,-48.46 1474.03,-37.26 1480.76,-27.94"/>
<polygon fill="midnightblue" stroke="midnightblue" points="1483.66,-29.91 1486.68,-19.75 1477.99,-25.81 1483.66,-29.91"/>
</g>
<!-- Node15&#45;&gt;Node8 -->
<g id="edge20" class="edge">
<title>Node15&#45;&gt;Node8</title>
<path fill="none" stroke="midnightblue" d="M1094.91,-112.44C1113.25,-103.68 1142.01,-89.94 1163.09,-79.86"/>
<polygon fill="midnightblue" stroke="midnightblue" points="1164.67,-82.99 1172.18,-75.52 1161.65,-76.67 1164.67,-82.99"/>
</g>
<!-- Node16 -->
<g id="node16" class="node">
<title>Node16</title>
<g id="a_node16"><a xlink:title=" ">
<polygon fill="white" stroke="#bfbfbf" points="472,-56.5 472,-75.5 514,-75.5 514,-56.5 472,-56.5"/>
<text text-anchor="middle" x="493" y="-63.5" font-family="Helvetica,sans-Serif" font-size="10.00">array</text>
</a>
</g>
</g>
<!-- Node15&#45;&gt;Node16 -->
<g id="edge18" class="edge">
<title>Node15&#45;&gt;Node16</title>
<path fill="none" stroke="midnightblue" d="M1028.83,-113.15C1025.85,-112.74 1022.88,-112.35 1020,-112 832.44,-89.21 605.93,-73.99 524.25,-68.89"/>
<polygon fill="midnightblue" stroke="midnightblue" points="524.34,-65.39 514.14,-68.26 523.91,-72.37 524.34,-65.39"/>
</g>
<!-- Node17 -->
<g id="node17" class="node">
<title>Node17</title>
<g id="a_node17"><a xlink:title=" ">
<polygon fill="white" stroke="#bfbfbf" points="1020.5,-56.5 1020.5,-75.5 1067.5,-75.5 1067.5,-56.5 1020.5,-56.5"/>
<text text-anchor="middle" x="1044" y="-63.5" font-family="Helvetica,sans-Serif" font-size="10.00">deque</text>
</a>
</g>
</g>
<!-- Node15&#45;&gt;Node17 -->
<g id="edge19" class="edge">
<title>Node15&#45;&gt;Node17</title>
<path fill="none" stroke="midnightblue" d="M1071.55,-112.08C1066.99,-104.61 1060.33,-93.72 1054.71,-84.52"/>
<polygon fill="midnightblue" stroke="midnightblue" points="1057.55,-82.46 1049.35,-75.75 1051.58,-86.11 1057.55,-82.46"/>
</g>
<!-- Node18 -->
<g id="node18" class="node">
<title>Node18</title>
<g id="a_node18"><a xlink:title=" ">
<polygon fill="white" stroke="#bfbfbf" points="914,-56.5 914,-75.5 952,-75.5 952,-56.5 914,-56.5"/>
<text text-anchor="middle" x="933" y="-63.5" font-family="Helvetica,sans-Serif" font-size="10.00">map</text>
</a>
</g>
</g>
<!-- Node15&#45;&gt;Node18 -->
<g id="edge21" class="edge">
<title>Node15&#45;&gt;Node18</title>
<path fill="none" stroke="midnightblue" d="M1054.18,-112.44C1029.15,-103.06 988.92,-87.97 961.75,-77.78"/>
<polygon fill="midnightblue" stroke="midnightblue" points="962.62,-74.37 952.03,-74.14 960.17,-80.93 962.62,-74.37"/>
</g>
<!-- Node19 -->
<g id="node19" class="node">
<title>Node19</title>
<g id="a_node19"><a xlink:title=" ">
<polygon fill="white" stroke="#bfbfbf" points="970,-56.5 970,-75.5 1002,-75.5 1002,-56.5 970,-56.5"/>
<text text-anchor="middle" x="986" y="-63.5" font-family="Helvetica,sans-Serif" font-size="10.00">set</text>
</a>
</g>
</g>
<!-- Node15&#45;&gt;Node19 -->
<g id="edge22" class="edge">
<title>Node15&#45;&gt;Node19</title>
<path fill="none" stroke="midnightblue" d="M1062.38,-112.32C1048.05,-103.82 1025.99,-90.73 1009.25,-80.8"/>
<polygon fill="midnightblue" stroke="midnightblue" points="1010.97,-77.75 1000.58,-75.65 1007.4,-83.77 1010.97,-77.75"/>
</g>
<!-- Node20 -->
<g id="node20" class="node">
<title>Node20</title>
<g id="a_node20"><a xlink:title=" ">
<polygon fill="white" stroke="#bfbfbf" points="1085.5,-56.5 1085.5,-75.5 1132.5,-75.5 1132.5,-56.5 1085.5,-56.5"/>
<text text-anchor="middle" x="1109" y="-63.5" font-family="Helvetica,sans-Serif" font-size="10.00">vector</text>
</a>
</g>
</g>
<!-- Node15&#45;&gt;Node20 -->
<g id="edge23" class="edge">
<title>Node15&#45;&gt;Node20</title>
<path fill="none" stroke="midnightblue" d="M1082.28,-112.08C1086.71,-104.61 1093.16,-93.72 1098.62,-84.52"/>
<polygon fill="midnightblue" stroke="midnightblue" points="1101.73,-86.14 1103.81,-75.75 1095.71,-82.57 1101.73,-86.14"/>
</g>
<!-- Node21&#45;&gt;Node6 -->
<g id="edge30" class="edge">
<title>Node21&#45;&gt;Node6</title>
<path fill="none" stroke="midnightblue" d="M813.47,-235.46C868.81,-226.44 958.56,-211.79 1036,-199 1048.04,-197.01 1061.01,-194.86 1073.17,-192.83"/>
<polygon fill="midnightblue" stroke="midnightblue" points="1073.87,-196.26 1083.16,-191.17 1072.72,-189.36 1073.87,-196.26"/>
</g>
<!-- Node22 -->
<g id="node22" class="node">
<title>Node22</title>
<g id="a_node22"><a xlink:title=" ">
<polygon fill="white" stroke="#bfbfbf" points="787,-168.5 787,-198.5 897,-198.5 897,-168.5 787,-168.5"/>
<text text-anchor="start" x="795" y="-186.5" font-family="Helvetica,sans-Serif" font-size="10.00">boost/preprocessor</text>
<text text-anchor="middle" x="842" y="-175.5" font-family="Helvetica,sans-Serif" font-size="10.00">/control/if.hpp</text>
</a>
</g>
</g>
<!-- Node21&#45;&gt;Node22 -->
<g id="edge25" class="edge">
<title>Node21&#45;&gt;Node22</title>
<path fill="none" stroke="midnightblue" d="M772.61,-235.48C783.58,-227.42 800.45,-215.02 814.81,-204.47"/>
<polygon fill="midnightblue" stroke="midnightblue" points="816.92,-207.26 822.91,-198.52 812.78,-201.62 816.92,-207.26"/>
</g>
<!-- Node23 -->
<g id="node23" class="node">
<title>Node23</title>
<g id="a_node23"><a xlink:title=" ">
<polygon fill="white" stroke="#bfbfbf" points="915.5,-168.5 915.5,-198.5 1026.5,-198.5 1026.5,-168.5 915.5,-168.5"/>
<text text-anchor="start" x="923.5" y="-186.5" font-family="Helvetica,sans-Serif" font-size="10.00">boost/preprocessor</text>
<text text-anchor="middle" x="971" y="-175.5" font-family="Helvetica,sans-Serif" font-size="10.00">/seq/for_each_i.hpp</text>
</a>
</g>
</g>
<!-- Node21&#45;&gt;Node23 -->
<g id="edge26" class="edge">
<title>Node21&#45;&gt;Node23</title>
<path fill="none" stroke="midnightblue" d="M791.09,-235.48C822.45,-226.59 872.43,-212.43 911.76,-201.29"/>
<polygon fill="midnightblue" stroke="midnightblue" points="912.84,-204.62 921.51,-198.52 910.93,-197.88 912.84,-204.62"/>
</g>
<!-- Node24 -->
<g id="node24" class="node">
<title>Node24</title>
<g id="a_node24"><a xlink:title=" ">
<polygon fill="white" stroke="#bfbfbf" points="371,-168.5 371,-198.5 481,-198.5 481,-168.5 371,-168.5"/>
<text text-anchor="start" x="379" y="-186.5" font-family="Helvetica,sans-Serif" font-size="10.00">boost/preprocessor</text>
<text text-anchor="middle" x="426" y="-175.5" font-family="Helvetica,sans-Serif" font-size="10.00">/stringize.hpp</text>
</a>
</g>
</g>
<!-- Node21&#45;&gt;Node24 -->
<g id="edge27" class="edge">
<title>Node21&#45;&gt;Node24</title>
<path fill="none" stroke="midnightblue" d="M703.73,-235.48C651.01,-227.42 570.42,-214.52 491.26,-199.18"/>
<polygon fill="midnightblue" stroke="midnightblue" points="491.6,-195.68 481.11,-197.2 490.26,-202.55 491.6,-195.68"/>
</g>
<!-- Node25 -->
<g id="node25" class="node">
<title>Node25</title>
<g id="a_node25"><a xlink:title=" ">
<polygon fill="white" stroke="#bfbfbf" points="499.5,-168.5 499.5,-198.5 614.5,-198.5 614.5,-168.5 499.5,-168.5"/>
<text text-anchor="start" x="507.5" y="-186.5" font-family="Helvetica,sans-Serif" font-size="10.00">boost/preprocessor</text>
<text text-anchor="middle" x="557" y="-175.5" font-family="Helvetica,sans-Serif" font-size="10.00">/variadic/to_seq.hpp</text>
</a>
</g>
</g>
<!-- Node21&#45;&gt;Node25 -->
<g id="edge28" class="edge">
<title>Node21&#45;&gt;Node25</title>
<path fill="none" stroke="midnightblue" d="M731.77,-235.48C701.43,-226.63 653.17,-212.55 615.04,-201.43"/>
<polygon fill="midnightblue" stroke="midnightblue" points="615.66,-197.96 605.08,-198.52 613.7,-204.68 615.66,-197.96"/>
</g>
<!-- Node26 -->
<g id="node26" class="node">
<title>Node26</title>
<g id="a_node26"><a xlink:title=" ">
<polygon fill="white" stroke="#bfbfbf" points="633,-174 633,-193 769,-193 769,-174 633,-174"/>
<text text-anchor="middle" x="701" y="-181" font-family="Helvetica,sans-Serif" font-size="10.00">boost/vmd/is_empty.hpp</text>
</a>
</g>
</g>
<!-- Node21&#45;&gt;Node26 -->
<g id="edge29" class="edge">
<title>Node21&#45;&gt;Node26</title>
<path fill="none" stroke="midnightblue" d="M752.4,-235.48C743.14,-226.28 728.18,-211.46 716.79,-200.16"/>
<polygon fill="midnightblue" stroke="midnightblue" points="719.15,-197.57 709.58,-193.01 714.22,-202.54 719.15,-197.57"/>
</g>
<!-- Node27&#45;&gt;Node2 -->
<g id="edge32" class="edge">
<title>Node27&#45;&gt;Node2</title>
<path fill="none" stroke="midnightblue" d="M947.83,-254.59C945.41,-272.31 939.83,-313.25 936.54,-337.35"/>
<polygon fill="midnightblue" stroke="midnightblue" points="933.06,-336.99 935.18,-347.37 940,-337.93 933.06,-336.99"/>
</g>
<!-- Node28&#45;&gt;Node16 -->
<g id="edge34" class="edge">
<title>Node28&#45;&gt;Node16</title>
<path fill="none" stroke="midnightblue" d="M153.08,-403.43C134.67,-396.42 111.39,-384.73 97,-367 78.04,-343.63 78,-332.1 78,-302 78,-302 78,-302 78,-182.5 78,-102.85 365.33,-75.78 461.83,-68.94"/>
<polygon fill="midnightblue" stroke="midnightblue" points="462.11,-72.43 471.85,-68.25 461.63,-65.44 462.11,-72.43"/>
</g>
<!-- Node29 -->
<g id="node29" class="node">
<title>Node29</title>
<g id="a_node29"><a xlink:title=" ">
<polygon fill="white" stroke="#bfbfbf" points="193.5,-347.5 193.5,-366.5 246.5,-366.5 246.5,-347.5 193.5,-347.5"/>
<text text-anchor="middle" x="220" y="-354.5" font-family="Helvetica,sans-Serif" font-size="10.00">cstddef</text>
</a>
</g>
</g>
<!-- Node28&#45;&gt;Node29 -->
<g id="edge35" class="edge">
<title>Node28&#45;&gt;Node29</title>
<path fill="none" stroke="midnightblue" d="M187.44,-403.08C192.95,-395.46 201.03,-384.26 207.76,-374.94"/>
<polygon fill="midnightblue" stroke="midnightblue" points="210.66,-376.91 213.68,-366.75 204.99,-372.81 210.66,-376.91"/>
</g>
<!-- Node30 -->
<g id="node30" class="node">
<title>Node30</title>
<g id="a_node30"><a xlink:title=" ">
<polygon fill="white" stroke="#bfbfbf" points="265,-347.5 265,-366.5 315,-366.5 315,-347.5 265,-347.5"/>
<text text-anchor="middle" x="290" y="-354.5" font-family="Helvetica,sans-Serif" font-size="10.00">cstdint</text>
</a>
</g>
</g>
<!-- Node28&#45;&gt;Node30 -->
<g id="edge36" class="edge">
<title>Node28&#45;&gt;Node30</title>
<path fill="none" stroke="midnightblue" d="M198.51,-403.32C216.07,-394.62 243.33,-381.12 263.53,-371.11"/>
<polygon fill="midnightblue" stroke="midnightblue" points="265.12,-374.23 272.53,-366.65 262.02,-367.96 265.12,-374.23"/>
</g>
<!-- Node31 -->
<g id="node31" class="node">
<title>Node31</title>
<g id="a_node31"><a xlink:title=" ">
<polygon fill="white" stroke="#bfbfbf" points="0,-347.5 0,-366.5 50,-366.5 50,-347.5 0,-347.5"/>
<text text-anchor="middle" x="25" y="-354.5" font-family="Helvetica,sans-Serif" font-size="10.00">cstring</text>
</a>
</g>
</g>
<!-- Node28&#45;&gt;Node31 -->
<g id="edge37" class="edge">
<title>Node28&#45;&gt;Node31</title>
<path fill="none" stroke="midnightblue" d="M156.28,-403.44C130.15,-394.4 88.74,-380.06 59.42,-369.92"/>
<polygon fill="midnightblue" stroke="midnightblue" points="60.2,-366.48 49.6,-366.52 57.91,-373.1 60.2,-366.48"/>
</g>
<!-- Node32 -->
<g id="node32" class="node">
<title>Node32</title>
<g id="a_node32"><a xlink:title=" ">
<polygon fill="white" stroke="#bfbfbf" points="106.5,-347.5 106.5,-366.5 175.5,-366.5 175.5,-347.5 106.5,-347.5"/>
<text text-anchor="middle" x="141" y="-354.5" font-family="Helvetica,sans-Serif" font-size="10.00">type_traits</text>
</a>
</g>
</g>
<!-- Node28&#45;&gt;Node32 -->
<g id="edge38" class="edge">
<title>Node28&#45;&gt;Node32</title>
<path fill="none" stroke="midnightblue" d="M174.39,-403.08C168.74,-395.46 160.46,-384.26 153.55,-374.94"/>
<polygon fill="midnightblue" stroke="midnightblue" points="156.25,-372.7 147.48,-366.75 150.62,-376.87 156.25,-372.7"/>
</g>
<!-- Node33&#45;&gt;Node2 -->
<g id="edge45" class="edge">
<title>Node33&#45;&gt;Node2</title>
<path fill="none" stroke="midnightblue" d="M1035.83,-403.44C1016.09,-394.64 985.11,-380.81 962.51,-370.72"/>
<polygon fill="midnightblue" stroke="midnightblue" points="963.64,-367.4 953.08,-366.52 960.79,-373.79 963.64,-367.4"/>
</g>
<!-- Node33&#45;&gt;Node3 -->
<g id="edge41" class="edge">
<title>Node33&#45;&gt;Node3</title>
<path fill="none" stroke="midnightblue" d="M1050.53,-403.37C1041.2,-385.38 1019.53,-343.55 1007.13,-319.63"/>
<polygon fill="midnightblue" stroke="midnightblue" points="1010.16,-317.86 1002.45,-310.59 1003.95,-321.08 1010.16,-317.86"/>
</g>
<!-- Node33&#45;&gt;Node7 -->
<g id="edge43" class="edge">
<title>Node33&#45;&gt;Node7</title>
<path fill="none" stroke="midnightblue" d="M1055,-403.44C1055,-384.94 1055,-339.81 1055,-302 1055,-302 1055,-302 1055,-244 1055,-209.18 1060.06,-193.16 1036,-168 1034.94,-166.89 960.73,-145.1 916.76,-132.25"/>
<polygon fill="midnightblue" stroke="midnightblue" points="917.66,-128.87 907.08,-129.43 915.7,-135.59 917.66,-128.87"/>
</g>
<!-- Node33&#45;&gt;Node20 -->
<g id="edge44" class="edge">
<title>Node33&#45;&gt;Node20</title>
<path fill="none" stroke="midnightblue" d="M1061.9,-403.36C1083.5,-375.7 1149.67,-286.05 1172,-199 1183.4,-154.56 1147.32,-107.09 1125.11,-83.01"/>
<polygon fill="midnightblue" stroke="midnightblue" points="1127.37,-80.31 1117.93,-75.51 1122.32,-85.15 1127.37,-80.31"/>
</g>
<!-- Node34 -->
<g id="node34" class="node">
<title>Node34</title>
<g id="a_node34"><a xlink:title=" ">
<polygon fill="white" stroke="#bfbfbf" points="1121,-347.5 1121,-366.5 1169,-366.5 1169,-347.5 1121,-347.5"/>
<text text-anchor="middle" x="1145" y="-354.5" font-family="Helvetica,sans-Serif" font-size="10.00">iosfwd</text>
</a>
</g>
</g>
<!-- Node33&#45;&gt;Node34 -->
<g id="edge40" class="edge">
<title>Node33&#45;&gt;Node34</title>
<path fill="none" stroke="midnightblue" d="M1069.46,-403.32C1083.5,-394.9 1105.05,-381.97 1121.54,-372.07"/>
<polygon fill="midnightblue" stroke="midnightblue" points="1123.8,-374.8 1130.58,-366.65 1120.2,-368.8 1123.8,-374.8"/>
</g>
<!-- Node35 -->
<g id="node35" class="node">
<title>Node35</title>
<g id="a_node35"><a xlink:title=" ">
<polygon fill="white" stroke="#bfbfbf" points="1187,-347.5 1187,-366.5 1243,-366.5 1243,-347.5 1187,-347.5"/>
<text text-anchor="middle" x="1215" y="-354.5" font-family="Helvetica,sans-Serif" font-size="10.00">optional</text>
</a>
</g>
</g>
<!-- Node33&#45;&gt;Node35 -->
<g id="edge42" class="edge">
<title>Node33&#45;&gt;Node35</title>
<path fill="none" stroke="midnightblue" d="M1080.35,-403.44C1107.27,-394.36 1150,-379.94 1180.09,-369.78"/>
<polygon fill="midnightblue" stroke="midnightblue" points="1181.41,-373.03 1189.77,-366.52 1179.17,-366.4 1181.41,-373.03"/>
</g>
<!-- Node36 -->
<g id="node36" class="node">
<title>Node36</title>
<g id="a_node36"><a xlink:href="types_8hpp.html" target="_top" xlink:title=" ">
<polygon fill="white" stroke="black" points="1261.5,-347.5 1261.5,-366.5 1364.5,-366.5 1364.5,-347.5 1261.5,-347.5"/>
<text text-anchor="middle" x="1313" y="-354.5" font-family="Helvetica,sans-Serif" font-size="10.00">precice/types.hpp</text>
</a>
</g>
</g>
<!-- Node33&#45;&gt;Node36 -->
<g id="edge46" class="edge">
<title>Node33&#45;&gt;Node36</title>
<path fill="none" stroke="midnightblue" d="M1095.88,-403.44C1140.98,-394 1213.61,-378.8 1262.3,-368.61"/>
<polygon fill="midnightblue" stroke="midnightblue" points="1263.24,-371.99 1272.31,-366.52 1261.81,-365.14 1263.24,-371.99"/>
</g>
<!-- Node37 -->
<g id="node37" class="node">
<title>Node37</title>
<g id="a_node37"><a xlink:title=" ">
<polygon fill="white" stroke="#bfbfbf" points="1383,-347.5 1383,-366.5 1427,-366.5 1427,-347.5 1383,-347.5"/>
<text text-anchor="middle" x="1405" y="-354.5" font-family="Helvetica,sans-Serif" font-size="10.00">mpi.h</text>
</a>
</g>
</g>
<!-- Node33&#45;&gt;Node37 -->
<g id="edge47" class="edge">
<title>Node33&#45;&gt;Node37</title>
<path fill="none" stroke="midnightblue" d="M1104.25,-404.44C1107.55,-403.94 1110.82,-403.46 1114,-403 1226.29,-386.66 1258.18,-391.06 1372.87,-366.98"/>
<polygon fill="midnightblue" stroke="midnightblue" points="1373.69,-370.38 1382.75,-364.88 1372.24,-363.54 1373.69,-370.38"/>
</g>
</g>
</svg>
        <g id="navigator" transform="translate(0 0)" fill="#404254">
                <rect fill="#f2f5e9" fill-opacity="0.5" stroke="#606060" stroke-width=".5" x="0" y="0" width="60" height="60"/>
                <use id="zoomplus" xlink:href="#zoomPlus" x="17" y="9" onmousedown="handleZoom(evt,'in')"/>
                <use id="zoomminus" xlink:href="#zoomMin" x="42" y="9" onmousedown="handleZoom(evt,'out')"/>
                <use id="reset" xlink:href="#resetDef" x="30" y="36" onmousedown="handleReset()"/>
                <g id="arrowUp" xlink:href="#dirArrow" transform="translate(30 24)" onmousedown="handlePan(0,-1)">
                  <use xlink:href="#rim" fill="#404040">
                        <set attributeName="fill" to="#808080" begin="arrowUp.mouseover" end="arrowUp.mouseout"/>
                  </use>
                  <path fill="none" stroke="white" stroke-width="1.5" d="M0,-3.0v7 M-2.5,-0.5L0,-3.0L2.5,-0.5"/>
                </g>
                <g id="arrowRight" xlink:href="#dirArrow" transform="rotate(90) translate(36 -43)" onmousedown="handlePan(1,0)">
                  <use xlink:href="#rim" fill="#404040">
                        <set attributeName="fill" to="#808080" begin="arrowRight.mouseover" end="arrowRight.mouseout"/>
                  </use>
                  <path fill="none" stroke="white" stroke-width="1.5" d="M0,-3.0v7 M-2.5,-0.5L0,-3.0L2.5,-0.5"/>
                </g>
                <g id="arrowDown" xlink:href="#dirArrow" transform="rotate(180) translate(-30 -48)" onmousedown="handlePan(0,1)">
                  <use xlink:href="#rim" fill="#404040">
                        <set attributeName="fill" to="#808080" begin="arrowDown.mouseover" end="arrowDown.mouseout"/>
                  </use>
                  <path fill="none" stroke="white" stroke-width="1.5" d="M0,-3.0v7 M-2.5,-0.5L0,-3.0L2.5,-0.5"/>
                </g>
                <g id="arrowLeft" xlink:href="#dirArrow" transform="rotate(270) translate(-36 17)" onmousedown="handlePan(-1,0)">
                  <use xlink:href="#rim" fill="#404040">
                        <set attributeName="fill" to="#808080" begin="arrowLeft.mouseover" end="arrowLeft.mouseout"/>
                  </use>
                  <path fill="none" stroke="white" stroke-width="1.5" d="M0,-3.0v7 M-2.5,-0.5L0,-3.0L2.5,-0.5"/>
                </g>
        </g>
        <svg viewBox="0 0 15 15" width="100%" height="30px" preserveAspectRatio="xMaxYMin meet">
         <g id="arrow_out" transform="scale(0.3 0.3)">
          <a xlink:href="Petsc_8hpp__incl_org.svg" target="_base">
           <rect id="button" ry="5" rx="5" y="6" x="6" height="38" width="38"
                fill="#f2f5e9" fill-opacity="0.5" stroke="#606060" stroke-width="1.0"/>
           <path id="arrow"
             d="M 11.500037,31.436501 C 11.940474,20.09759 22.043105,11.32322 32.158766,21.979434 L 37.068811,17.246167 C 37.068811,17.246167 37.088388,32 37.088388,32 L 22.160133,31.978069 C 22.160133,31.978069 26.997745,27.140456 26.997745,27.140456 C 18.528582,18.264221 13.291696,25.230495 11.500037,31.436501 z"
             style="fill:#404040;"/>
          </a>
         </g>
        </svg>
</svg>
