<?xml version="1.0" encoding="UTF-8" standalone="no"?>
<!DOCTYPE svg PUBLIC "-//W3C//DTD SVG 1.1//EN"
 "http://www.w3.org/Graphics/SVG/1.1/DTD/svg11.dtd">
<!-- Generated by graphviz version 2.43.0 (0)
 -->
<!-- Title: src/utils/Petsc.cpp Pages: 1 -->
<svg width="2085pt" height="498pt"
 viewBox="0.00 0.00 2085.33 498.00" xmlns="http://www.w3.org/2000/svg" xmlns:xlink="http://www.w3.org/1999/xlink">
<g id="graph0" class="graph" transform="scale(1 1) rotate(0) translate(4 494)">
<title>src/utils/Petsc.cpp</title>
<polygon fill="white" stroke="transparent" points="-4,4 -4,-494 2081.33,-494 2081.33,4 -4,4"/>
<!-- Node1 -->
<g id="node1" class="node">
<title>Node1</title>
<g id="a_node1"><a xlink:title=" ">
<polygon fill="#bfbfbf" stroke="black" points="923.33,-470.5 923.33,-489.5 1027.33,-489.5 1027.33,-470.5 923.33,-470.5"/>
<text text-anchor="middle" x="975.33" y="-477.5" font-family="Helvetica,sans-Serif" font-size="10.00">src/utils/Petsc.cpp</text>
</a>
</g>
</g>
<!-- Node2 -->
<g id="node2" class="node">
<title>Node2</title>
<g id="a_node2"><a xlink:href="Petsc_8hpp.html" target="_top" xlink:title=" ">
<polygon fill="white" stroke="black" points="424.33,-414.5 424.33,-433.5 488.33,-433.5 488.33,-414.5 424.33,-414.5"/>
<text text-anchor="middle" x="456.33" y="-421.5" font-family="Helvetica,sans-Serif" font-size="10.00">Petsc.hpp</text>
</a>
</g>
</g>
<!-- Node1&#45;&gt;Node2 -->
<g id="edge1" class="edge">
<title>Node1&#45;&gt;Node2</title>
<path fill="none" stroke="midnightblue" d="M923.19,-473.58C820.25,-462.86 592.71,-439.19 498.47,-429.38"/>
<polygon fill="midnightblue" stroke="midnightblue" points="498.76,-425.9 488.45,-428.34 498.04,-432.86 498.76,-425.9"/>
</g>
<!-- Node3 -->
<g id="node3" class="node">
<title>Node3</title>
<g id="a_node3"><a xlink:href="Logger_8hpp.html" target="_top" xlink:title=" ">
<polygon fill="white" stroke="black" points="710.83,-291.5 710.83,-310.5 819.83,-310.5 819.83,-291.5 710.83,-291.5"/>
<text text-anchor="middle" x="765.33" y="-298.5" font-family="Helvetica,sans-Serif" font-size="10.00">logging/Logger.hpp</text>
</a>
</g>
</g>
<!-- Node1&#45;&gt;Node3 -->
<g id="edge42" class="edge">
<title>Node1&#45;&gt;Node3</title>
<path fill="none" stroke="midnightblue" d="M969.97,-470.27C953.61,-443.83 903.98,-365.35 880.33,-347 860.19,-331.37 833.95,-320.55 811.62,-313.45"/>
<polygon fill="midnightblue" stroke="midnightblue" points="812.59,-310.08 802,-310.53 810.56,-316.78 812.59,-310.08"/>
</g>
<!-- Node4 -->
<g id="node4" class="node">
<title>Node4</title>
<g id="a_node4"><a xlink:title=" ">
<polygon fill="white" stroke="#bfbfbf" points="541.33,-235.5 541.33,-254.5 599.33,-254.5 599.33,-235.5 541.33,-235.5"/>
<text text-anchor="middle" x="570.33" y="-242.5" font-family="Helvetica,sans-Serif" font-size="10.00">memory</text>
</a>
</g>
</g>
<!-- Node1&#45;&gt;Node4 -->
<g id="edge43" class="edge">
<title>Node1&#45;&gt;Node4</title>
<path fill="none" stroke="midnightblue" d="M949.94,-470.49C926.1,-462.19 889.66,-448.7 859.33,-434 815.23,-412.62 805.37,-404.8 764.33,-378 744.61,-365.12 742.73,-356.86 721.33,-347 659.85,-318.68 616.38,-363.25 573.33,-311 562.9,-298.34 563.34,-279.13 565.67,-264.88"/>
<polygon fill="midnightblue" stroke="midnightblue" points="569.17,-265.23 567.77,-254.73 562.32,-263.81 569.17,-265.23"/>
</g>
<!-- Node6 -->
<g id="node6" class="node">
<title>Node6</title>
<g id="a_node6"><a xlink:href="LogMacros_8hpp.html" target="_top" xlink:title=" ">
<polygon fill="white" stroke="black" points="989.33,-235.5 989.33,-254.5 1079.33,-254.5 1079.33,-235.5 989.33,-235.5"/>
<text text-anchor="middle" x="1034.33" y="-242.5" font-family="Helvetica,sans-Serif" font-size="10.00">LogMacros.hpp</text>
</a>
</g>
</g>
<!-- Node1&#45;&gt;Node6 -->
<g id="edge50" class="edge">
<title>Node1&#45;&gt;Node6</title>
<path fill="none" stroke="midnightblue" d="M983.25,-470.48C994.92,-457.95 1017.53,-433.89 1037.33,-414 1060.62,-390.61 1131.41,-341.37 1144.33,-311 1156.46,-282.48 1122.59,-265.73 1089.32,-256.4"/>
<polygon fill="midnightblue" stroke="midnightblue" points="1090.08,-252.98 1079.53,-253.85 1088.32,-259.76 1090.08,-252.98"/>
</g>
<!-- Node8 -->
<g id="node8" class="node">
<title>Node8</title>
<g id="a_node8"><a xlink:title=" ">
<polygon fill="white" stroke="#bfbfbf" points="660.33,-56.5 660.33,-75.5 704.33,-75.5 704.33,-56.5 660.33,-56.5"/>
<text text-anchor="middle" x="682.33" y="-63.5" font-family="Helvetica,sans-Serif" font-size="10.00">string</text>
</a>
</g>
</g>
<!-- Node1&#45;&gt;Node8 -->
<g id="edge75" class="edge">
<title>Node1&#45;&gt;Node8</title>
<path fill="none" stroke="midnightblue" d="M935.1,-470.49C902.59,-462.92 856.04,-450.49 817.33,-434 771.89,-414.64 760.92,-407.54 721.33,-378 705.21,-365.96 705.84,-356.91 688.33,-347 637.28,-318.09 612.15,-340.32 561.33,-311 525.4,-290.27 494.33,-287.49 494.33,-246 494.33,-246 494.33,-246 494.33,-188 494.33,-114.86 596.19,-83.83 649.96,-72.55"/>
<polygon fill="midnightblue" stroke="midnightblue" points="650.9,-75.93 660.03,-70.55 649.54,-69.07 650.9,-75.93"/>
</g>
<!-- Node14 -->
<g id="node12" class="node">
<title>Node14</title>
<g id="a_node12"><a xlink:title=" ">
<polygon fill="white" stroke="#bfbfbf" points="1213.33,-0.5 1213.33,-19.5 1269.33,-19.5 1269.33,-0.5 1213.33,-0.5"/>
<text text-anchor="middle" x="1241.33" y="-7.5" font-family="Helvetica,sans-Serif" font-size="10.00">sstream</text>
</a>
</g>
</g>
<!-- Node1&#45;&gt;Node14 -->
<g id="edge46" class="edge">
<title>Node1&#45;&gt;Node14</title>
<path fill="none" stroke="midnightblue" d="M987.29,-470.47C999.82,-461.48 1020.06,-446.89 1037.33,-434 1128.51,-365.95 1179.74,-361.28 1220.33,-255 1251.89,-172.38 1201.18,-142.35 1220.33,-56 1222.46,-46.43 1226.84,-36.48 1231.05,-28.37"/>
<polygon fill="midnightblue" stroke="midnightblue" points="1234.15,-30 1235.95,-19.56 1228.03,-26.6 1234.15,-30"/>
</g>
<!-- Node33 -->
<g id="node22" class="node">
<title>Node33</title>
<g id="a_node22"><a xlink:title=" ">
<polygon fill="white" stroke="#bfbfbf" points="21.83,-291.5 21.83,-310.5 90.83,-310.5 90.83,-291.5 21.83,-291.5"/>
<text text-anchor="middle" x="56.33" y="-298.5" font-family="Helvetica,sans-Serif" font-size="10.00">type_traits</text>
</a>
</g>
</g>
<!-- Node1&#45;&gt;Node33 -->
<g id="edge47" class="edge">
<title>Node1&#45;&gt;Node33</title>
<path fill="none" stroke="midnightblue" d="M923.16,-477.74C770.29,-473.77 325.25,-460.24 182.33,-434 101.18,-419.1 54.09,-444.56 5.33,-378 -2.81,-366.88 -0.33,-359.56 5.33,-347 10.95,-334.56 21.9,-324.17 32.21,-316.53"/>
<polygon fill="midnightblue" stroke="midnightblue" points="34.34,-319.31 40.6,-310.76 30.37,-313.54 34.34,-319.31"/>
</g>
<!-- Node34 -->
<g id="node23" class="node">
<title>Node34</title>
<g id="a_node23"><a xlink:href="Parallel_8hpp.html" target="_top" xlink:title=" ">
<polygon fill="white" stroke="black" points="773.33,-353 773.33,-372 871.33,-372 871.33,-353 773.33,-353"/>
<text text-anchor="middle" x="822.33" y="-360" font-family="Helvetica,sans-Serif" font-size="10.00">utils/Parallel.hpp</text>
</a>
</g>
</g>
<!-- Node1&#45;&gt;Node34 -->
<g id="edge58" class="edge">
<title>Node1&#45;&gt;Node34</title>
<path fill="none" stroke="midnightblue" d="M952.53,-470.43C933.47,-462.63 906.15,-449.91 885.33,-434 865.06,-418.5 846.17,-395.82 834.46,-380.4"/>
<polygon fill="midnightblue" stroke="midnightblue" points="837.21,-378.23 828.45,-372.27 831.58,-382.39 837.21,-378.23"/>
</g>
<!-- Node21 -->
<g id="node26" class="node">
<title>Node21</title>
<g id="a_node26"><a xlink:title=" ">
<polygon fill="white" stroke="#bfbfbf" points="1025.83,-291.5 1025.83,-310.5 1072.83,-310.5 1072.83,-291.5 1025.83,-291.5"/>
<text text-anchor="middle" x="1049.33" y="-298.5" font-family="Helvetica,sans-Serif" font-size="10.00">vector</text>
</a>
</g>
</g>
<!-- Node1&#45;&gt;Node21 -->
<g id="edge49" class="edge">
<title>Node1&#45;&gt;Node21</title>
<path fill="none" stroke="midnightblue" d="M971.1,-470.5C960.72,-448.29 936.56,-387.5 961.33,-347 967.73,-336.54 994.39,-323.74 1016.71,-314.47"/>
<polygon fill="midnightblue" stroke="midnightblue" points="1018.3,-317.61 1026.25,-310.61 1015.67,-311.12 1018.3,-317.61"/>
</g>
<!-- Node38 -->
<g id="node28" class="node">
<title>Node38</title>
<g id="a_node28"><a xlink:title=" ">
<polygon fill="white" stroke="#bfbfbf" points="1091.33,-291.5 1091.33,-310.5 1135.33,-310.5 1135.33,-291.5 1091.33,-291.5"/>
<text text-anchor="middle" x="1113.33" y="-298.5" font-family="Helvetica,sans-Serif" font-size="10.00">mpi.h</text>
</a>
</g>
</g>
<!-- Node1&#45;&gt;Node38 -->
<g id="edge44" class="edge">
<title>Node1&#45;&gt;Node38</title>
<path fill="none" stroke="midnightblue" d="M976.53,-470.47C980.14,-447.69 992.87,-384.57 1027.33,-347 1042.04,-330.97 1063.78,-319.66 1081.72,-312.39"/>
<polygon fill="midnightblue" stroke="midnightblue" points="1083.14,-315.6 1091.23,-308.77 1080.64,-309.06 1083.14,-315.6"/>
</g>
<!-- Node39 -->
<g id="node29" class="node">
<title>Node39</title>
<g id="a_node29"><a xlink:title=" ">
<polygon fill="white" stroke="#bfbfbf" points="14.83,-353 14.83,-372 59.83,-372 59.83,-353 14.83,-353"/>
<text text-anchor="middle" x="37.33" y="-360" font-family="Helvetica,sans-Serif" font-size="10.00">utility</text>
</a>
</g>
</g>
<!-- Node1&#45;&gt;Node39 -->
<g id="edge48" class="edge">
<title>Node1&#45;&gt;Node39</title>
<path fill="none" stroke="midnightblue" d="M922.98,-478.81C807.86,-477.68 524.29,-471.01 290.33,-434 190.25,-418.17 164.97,-411.49 69.33,-378 67.67,-377.42 65.98,-376.78 64.28,-376.11"/>
<polygon fill="midnightblue" stroke="midnightblue" points="65.28,-372.74 54.71,-372.05 62.54,-379.18 65.28,-372.74"/>
</g>
<!-- Node41 -->
<g id="node31" class="node">
<title>Node41</title>
<g id="a_node31"><a xlink:title=" ">
<polygon fill="white" stroke="#bfbfbf" points="78.33,-353 78.33,-372 138.33,-372 138.33,-353 78.33,-353"/>
<text text-anchor="middle" x="108.33" y="-360" font-family="Helvetica,sans-Serif" font-size="10.00">petscis.h</text>
</a>
</g>
</g>
<!-- Node1&#45;&gt;Node41 -->
<g id="edge53" class="edge">
<title>Node1&#45;&gt;Node41</title>
<path fill="none" stroke="midnightblue" d="M922.98,-476.99C823.59,-472.7 600.93,-460.74 415.33,-434 294.89,-416.65 264.24,-411.74 147.33,-378 144.69,-377.24 141.97,-376.38 139.26,-375.48"/>
<polygon fill="midnightblue" stroke="midnightblue" points="140.19,-372.09 129.6,-372.06 137.86,-378.69 140.19,-372.09"/>
</g>
<!-- Node42 -->
<g id="node32" class="node">
<title>Node42</title>
<g id="a_node32"><a xlink:title=" ">
<polygon fill="white" stroke="#bfbfbf" points="522.83,-353 522.83,-372 591.83,-372 591.83,-353 522.83,-353"/>
<text text-anchor="middle" x="557.33" y="-360" font-family="Helvetica,sans-Serif" font-size="10.00">petscksp.h</text>
</a>
</g>
</g>
<!-- Node1&#45;&gt;Node42 -->
<g id="edge54" class="edge">
<title>Node1&#45;&gt;Node42</title>
<path fill="none" stroke="midnightblue" d="M923.18,-477.95C860.76,-475.22 753.92,-465.8 668.33,-434 632.76,-420.78 596.57,-395 575.58,-378.55"/>
<polygon fill="midnightblue" stroke="midnightblue" points="577.55,-375.64 567.55,-372.13 573.18,-381.11 577.55,-375.64"/>
</g>
<!-- Node44 -->
<g id="node34" class="node">
<title>Node44</title>
<g id="a_node34"><a xlink:title=" ">
<polygon fill="white" stroke="#bfbfbf" points="609.83,-353 609.83,-372 678.83,-372 678.83,-353 609.83,-353"/>
<text text-anchor="middle" x="644.33" y="-360" font-family="Helvetica,sans-Serif" font-size="10.00">petscvec.h</text>
</a>
</g>
</g>
<!-- Node1&#45;&gt;Node44 -->
<g id="edge56" class="edge">
<title>Node1&#45;&gt;Node44</title>
<path fill="none" stroke="midnightblue" d="M923.15,-475.55C852.44,-470.06 730.7,-457.47 693.33,-434 673.47,-421.53 659.52,-397.75 651.71,-381.28"/>
<polygon fill="midnightblue" stroke="midnightblue" points="654.9,-379.85 647.64,-372.14 648.51,-382.7 654.9,-379.85"/>
</g>
<!-- Node45 -->
<g id="node35" class="node">
<title>Node45</title>
<g id="a_node35"><a xlink:title=" ">
<polygon fill="white" stroke="#bfbfbf" points="1079.33,-414.5 1079.33,-433.5 1135.33,-433.5 1135.33,-414.5 1079.33,-414.5"/>
<text text-anchor="middle" x="1107.33" y="-421.5" font-family="Helvetica,sans-Serif" font-size="10.00">numeric</text>
</a>
</g>
</g>
<!-- Node1&#45;&gt;Node45 -->
<g id="edge45" class="edge">
<title>Node1&#45;&gt;Node45</title>
<path fill="none" stroke="midnightblue" d="M996.25,-470.44C1018.07,-461.52 1052.48,-447.44 1077.23,-437.32"/>
<polygon fill="midnightblue" stroke="midnightblue" points="1078.58,-440.54 1086.51,-433.52 1075.93,-434.06 1078.58,-440.54"/>
</g>
<!-- Node46 -->
<g id="node36" class="node">
<title>Node46</title>
<g id="a_node36"><a xlink:title=" ">
<polygon fill="white" stroke="#bfbfbf" points="1153.33,-414.5 1153.33,-433.5 1205.33,-433.5 1205.33,-414.5 1153.33,-414.5"/>
<text text-anchor="middle" x="1179.33" y="-421.5" font-family="Helvetica,sans-Serif" font-size="10.00">petsc.h</text>
</a>
</g>
</g>
<!-- Node1&#45;&gt;Node46 -->
<g id="edge51" class="edge">
<title>Node1&#45;&gt;Node46</title>
<path fill="none" stroke="midnightblue" d="M1007.66,-470.44C1044.68,-460.64 1105.17,-444.63 1143.57,-434.47"/>
<polygon fill="midnightblue" stroke="midnightblue" points="1144.54,-437.83 1153.31,-431.89 1142.75,-431.06 1144.54,-437.83"/>
</g>
<!-- Node47 -->
<g id="node37" class="node">
<title>Node47</title>
<g id="a_node37"><a xlink:title=" ">
<polygon fill="white" stroke="#bfbfbf" points="1223.83,-414.5 1223.83,-433.5 1326.83,-433.5 1326.83,-414.5 1223.83,-414.5"/>
<text text-anchor="middle" x="1275.33" y="-421.5" font-family="Helvetica,sans-Serif" font-size="10.00">petscdrawtypes.h</text>
</a>
</g>
</g>
<!-- Node1&#45;&gt;Node47 -->
<g id="edge52" class="edge">
<title>Node1&#45;&gt;Node47</title>
<path fill="none" stroke="midnightblue" d="M1022.87,-470.44C1075.86,-460.9 1161.54,-445.48 1218.15,-435.29"/>
<polygon fill="midnightblue" stroke="midnightblue" points="1218.8,-438.73 1228.02,-433.52 1217.56,-431.84 1218.8,-438.73"/>
</g>
<!-- Node48 -->
<g id="node38" class="node">
<title>Node48</title>
<g id="a_node38"><a xlink:title=" ">
<polygon fill="white" stroke="#bfbfbf" points="1344.83,-414.5 1344.83,-433.5 1439.83,-433.5 1439.83,-414.5 1344.83,-414.5"/>
<text text-anchor="middle" x="1392.33" y="-421.5" font-family="Helvetica,sans-Serif" font-size="10.00">petscsystypes.h</text>
</a>
</g>
</g>
<!-- Node1&#45;&gt;Node48 -->
<g id="edge55" class="edge">
<title>Node1&#45;&gt;Node48</title>
<path fill="none" stroke="midnightblue" d="M1027.42,-473.09C1095.67,-465.22 1219.34,-450.52 1334.63,-434.2"/>
<polygon fill="midnightblue" stroke="midnightblue" points="1335.28,-437.65 1344.69,-432.77 1334.3,-430.72 1335.28,-437.65"/>
</g>
<!-- Node49 -->
<g id="node39" class="node">
<title>Node49</title>
<g id="a_node39"><a xlink:title=" ">
<polygon fill="white" stroke="#bfbfbf" points="1458.33,-414.5 1458.33,-433.5 1570.33,-433.5 1570.33,-414.5 1458.33,-414.5"/>
<text text-anchor="middle" x="1514.33" y="-421.5" font-family="Helvetica,sans-Serif" font-size="10.00">petscviewertypes.h</text>
</a>
</g>
</g>
<!-- Node1&#45;&gt;Node49 -->
<g id="edge57" class="edge">
<title>Node1&#45;&gt;Node49</title>
<path fill="none" stroke="midnightblue" d="M1027.66,-474.77C1113.32,-467.69 1289.02,-452.48 1448.35,-434.07"/>
<polygon fill="midnightblue" stroke="midnightblue" points="1448.8,-437.54 1458.33,-432.91 1448,-430.59 1448.8,-437.54"/>
</g>
<!-- Node50 -->
<g id="node40" class="node">
<title>Node50</title>
<g id="a_node40"><a xlink:href="assertion_8hpp.html" target="_top" xlink:title=" ">
<polygon fill="white" stroke="black" points="1588.83,-414.5 1588.83,-433.5 1695.83,-433.5 1695.83,-414.5 1588.83,-414.5"/>
<text text-anchor="middle" x="1642.33" y="-421.5" font-family="Helvetica,sans-Serif" font-size="10.00">utils/assertion.hpp</text>
</a>
</g>
</g>
<!-- Node1&#45;&gt;Node50 -->
<g id="edge59" class="edge">
<title>Node1&#45;&gt;Node50</title>
<path fill="none" stroke="midnightblue" d="M1027.55,-476.3C1130.72,-470.71 1368.17,-456.55 1578.74,-433.99"/>
<polygon fill="midnightblue" stroke="midnightblue" points="1579.18,-437.46 1588.75,-432.91 1578.43,-430.5 1579.18,-437.46"/>
</g>
<!-- Node58 -->
<g id="node48" class="node">
<title>Node58</title>
<g id="a_node48"><a xlink:title=" ">
<polygon fill="white" stroke="#bfbfbf" points="1714.33,-414.5 1714.33,-433.5 1768.33,-433.5 1768.33,-414.5 1714.33,-414.5"/>
<text text-anchor="middle" x="1741.33" y="-421.5" font-family="Helvetica,sans-Serif" font-size="10.00">random</text>
</a>
</g>
</g>
<!-- Node1&#45;&gt;Node58 -->
<g id="edge74" class="edge">
<title>Node1&#45;&gt;Node58</title>
<path fill="none" stroke="midnightblue" d="M1027.46,-479.05C1146.16,-478.48 1445.68,-473.06 1704.36,-433.85"/>
<polygon fill="midnightblue" stroke="midnightblue" points="1704.96,-437.3 1714.31,-432.32 1703.9,-430.38 1704.96,-437.3"/>
</g>
<!-- Node59 -->
<g id="node49" class="node">
<title>Node59</title>
<g id="a_node49"><a xlink:title=" ">
<polygon fill="white" stroke="#bfbfbf" points="1786.83,-414.5 1786.83,-433.5 1861.83,-433.5 1861.83,-414.5 1786.83,-414.5"/>
<text text-anchor="middle" x="1824.33" y="-421.5" font-family="Helvetica,sans-Serif" font-size="10.00">petscdraw.h</text>
</a>
</g>
</g>
<!-- Node1&#45;&gt;Node59 -->
<g id="edge76" class="edge">
<title>Node1&#45;&gt;Node59</title>
<path fill="none" stroke="midnightblue" d="M1027.62,-478.47C1154.36,-476.67 1488.08,-468.86 1776.45,-433.92"/>
<polygon fill="midnightblue" stroke="midnightblue" points="1777.19,-437.35 1786.69,-432.66 1776.34,-430.41 1777.19,-437.35"/>
</g>
<!-- Node60 -->
<g id="node50" class="node">
<title>Node60</title>
<g id="a_node50"><a xlink:title=" ">
<polygon fill="white" stroke="#bfbfbf" points="1879.33,-414.5 1879.33,-433.5 1963.33,-433.5 1963.33,-414.5 1879.33,-414.5"/>
<text text-anchor="middle" x="1921.33" y="-421.5" font-family="Helvetica,sans-Serif" font-size="10.00">petscviewer.h</text>
</a>
</g>
</g>
<!-- Node1&#45;&gt;Node60 -->
<g id="edge77" class="edge">
<title>Node1&#45;&gt;Node60</title>
<path fill="none" stroke="midnightblue" d="M1027.54,-478.71C1164.28,-477.44 1544.29,-470.73 1869.03,-434.14"/>
<polygon fill="midnightblue" stroke="midnightblue" points="1869.57,-437.6 1879.11,-432.99 1868.77,-430.65 1869.57,-437.6"/>
</g>
<!-- Node2&#45;&gt;Node3 -->
<g id="edge2" class="edge">
<title>Node2&#45;&gt;Node3</title>
<path fill="none" stroke="midnightblue" d="M460.18,-414.24C467.79,-398.05 486.37,-363.61 513.33,-347 543.95,-328.14 636.58,-315.14 700.57,-308.13"/>
<polygon fill="midnightblue" stroke="midnightblue" points="701.01,-311.6 710.58,-307.06 700.26,-304.64 701.01,-311.6"/>
</g>
<!-- Node2&#45;&gt;Node8 -->
<g id="edge35" class="edge">
<title>Node2&#45;&gt;Node8</title>
<path fill="none" stroke="midnightblue" d="M456.33,-414.49C456.33,-394.74 456.33,-344.22 456.33,-302 456.33,-302 456.33,-302 456.33,-188 456.33,-152.58 454.22,-135.94 480.33,-112 504.87,-89.5 599.74,-75.99 650.25,-70.25"/>
<polygon fill="midnightblue" stroke="midnightblue" points="650.76,-73.72 660.32,-69.14 649.99,-66.76 650.76,-73.72"/>
</g>
<!-- Node29 -->
<g id="node17" class="node">
<title>Node29</title>
<g id="a_node17"><a xlink:href="span_8hpp.html" target="_top" xlink:title=" ">
<polygon fill="white" stroke="black" points="328.83,-353 328.83,-372 427.83,-372 427.83,-353 328.83,-353"/>
<text text-anchor="middle" x="378.33" y="-360" font-family="Helvetica,sans-Serif" font-size="10.00">precice/span.hpp</text>
</a>
</g>
</g>
<!-- Node2&#45;&gt;Node29 -->
<g id="edge20" class="edge">
<title>Node2&#45;&gt;Node29</title>
<path fill="none" stroke="midnightblue" d="M445.16,-414.48C432.76,-405.02 412.54,-389.6 397.59,-378.19"/>
<polygon fill="midnightblue" stroke="midnightblue" points="399.56,-375.29 389.49,-372.01 395.32,-380.86 399.56,-375.29"/>
</g>
<!-- Node2&#45;&gt;Node34 -->
<g id="edge26" class="edge">
<title>Node2&#45;&gt;Node34</title>
<path fill="none" stroke="midnightblue" d="M488.49,-417.77C549.93,-407.78 684.8,-385.86 763.02,-373.14"/>
<polygon fill="midnightblue" stroke="midnightblue" points="763.89,-376.55 773.2,-371.49 762.77,-369.64 763.89,-376.55"/>
</g>
<!-- Node2&#45;&gt;Node39 -->
<g id="edge36" class="edge">
<title>Node2&#45;&gt;Node39</title>
<path fill="none" stroke="midnightblue" d="M424.09,-422.6C356.88,-421.03 197.41,-413.53 69.33,-378 67.18,-377.4 65,-376.68 62.82,-375.88"/>
<polygon fill="midnightblue" stroke="midnightblue" points="64.15,-372.65 53.58,-372.03 61.46,-379.11 64.15,-372.65"/>
</g>
<!-- Node40 -->
<g id="node30" class="node">
<title>Node40</title>
<g id="a_node30"><a xlink:title=" ">
<polygon fill="white" stroke="#bfbfbf" points="246.33,-353 246.33,-372 310.33,-372 310.33,-353 246.33,-353"/>
<text text-anchor="middle" x="278.33" y="-360" font-family="Helvetica,sans-Serif" font-size="10.00">petscao.h</text>
</a>
</g>
</g>
<!-- Node2&#45;&gt;Node40 -->
<g id="edge37" class="edge">
<title>Node2&#45;&gt;Node40</title>
<path fill="none" stroke="midnightblue" d="M429.75,-414.47C402.11,-405.54 357.6,-391.05 319.33,-378 316.89,-377.17 314.38,-376.3 311.85,-375.42"/>
<polygon fill="midnightblue" stroke="midnightblue" points="312.74,-372.03 302.15,-372.03 310.43,-378.63 312.74,-372.03"/>
</g>
<!-- Node2&#45;&gt;Node41 -->
<g id="edge38" class="edge">
<title>Node2&#45;&gt;Node41</title>
<path fill="none" stroke="midnightblue" d="M424.31,-420.58C367.72,-415.81 246.6,-403.38 147.33,-378 144.35,-377.24 141.28,-376.33 138.23,-375.34"/>
<polygon fill="midnightblue" stroke="midnightblue" points="139.31,-372.01 128.72,-372 137,-378.61 139.31,-372.01"/>
</g>
<!-- Node2&#45;&gt;Node42 -->
<g id="edge39" class="edge">
<title>Node2&#45;&gt;Node42</title>
<path fill="none" stroke="midnightblue" d="M470.8,-414.48C487.3,-404.75 514.51,-388.73 534.01,-377.24"/>
<polygon fill="midnightblue" stroke="midnightblue" points="536.05,-380.1 542.89,-372.01 532.5,-374.07 536.05,-380.1"/>
</g>
<!-- Node43 -->
<g id="node33" class="node">
<title>Node43</title>
<g id="a_node33"><a xlink:title=" ">
<polygon fill="white" stroke="#bfbfbf" points="156.83,-353 156.83,-372 227.83,-372 227.83,-353 156.83,-353"/>
<text text-anchor="middle" x="192.33" y="-360" font-family="Helvetica,sans-Serif" font-size="10.00">petscmat.h</text>
</a>
</g>
</g>
<!-- Node2&#45;&gt;Node43 -->
<g id="edge40" class="edge">
<title>Node2&#45;&gt;Node43</title>
<path fill="none" stroke="midnightblue" d="M424.16,-417.52C381.24,-409.96 303.03,-395.28 237.33,-378 233.98,-377.12 230.5,-376.13 227.04,-375.1"/>
<polygon fill="midnightblue" stroke="midnightblue" points="228.01,-371.73 217.42,-372.12 225.93,-378.42 228.01,-371.73"/>
</g>
<!-- Node2&#45;&gt;Node44 -->
<g id="edge41" class="edge">
<title>Node2&#45;&gt;Node44</title>
<path fill="none" stroke="midnightblue" d="M483.98,-414.5C513,-405.54 559.93,-390.97 600.33,-378 603.23,-377.07 606.22,-376.1 609.23,-375.12"/>
<polygon fill="midnightblue" stroke="midnightblue" points="610.35,-378.44 618.76,-372 608.17,-371.79 610.35,-378.44"/>
</g>
<!-- Node3&#45;&gt;Node4 -->
<g id="edge3" class="edge">
<title>Node3&#45;&gt;Node4</title>
<path fill="none" stroke="midnightblue" d="M734.43,-291.44C700.57,-282.07 646.17,-267 609.37,-256.81"/>
<polygon fill="midnightblue" stroke="midnightblue" points="610.07,-253.37 599.49,-254.08 608.2,-260.12 610.07,-253.37"/>
</g>
<!-- Node5 -->
<g id="node5" class="node">
<title>Node5</title>
<g id="a_node5"><a xlink:title=" ">
<polygon fill="white" stroke="#bfbfbf" points="1495.83,-56.5 1495.83,-75.5 1568.83,-75.5 1568.83,-56.5 1495.83,-56.5"/>
<text text-anchor="middle" x="1532.33" y="-63.5" font-family="Helvetica,sans-Serif" font-size="10.00">string_view</text>
</a>
</g>
</g>
<!-- Node3&#45;&gt;Node5 -->
<g id="edge4" class="edge">
<title>Node3&#45;&gt;Node5</title>
<path fill="none" stroke="midnightblue" d="M775.32,-291.3C802.48,-268.22 880.85,-205.41 958.33,-179 1114.72,-125.7 1168.54,-184.99 1328.33,-143 1361.24,-134.35 1366.62,-124.32 1398.33,-112 1430.38,-99.55 1467.49,-87.25 1494.51,-78.67"/>
<polygon fill="midnightblue" stroke="midnightblue" points="1495.86,-81.91 1504.35,-75.56 1493.76,-75.23 1495.86,-81.91"/>
</g>
<!-- Node3&#45;&gt;Node6 -->
<g id="edge5" class="edge">
<title>Node3&#45;&gt;Node6</title>
<path fill="none" stroke="midnightblue" d="M807.96,-291.44C855.08,-281.98 931.02,-266.74 981.79,-256.55"/>
<polygon fill="midnightblue" stroke="midnightblue" points="982.79,-259.92 991.91,-254.52 981.42,-253.05 982.79,-259.92"/>
</g>
<!-- Node7 -->
<g id="node7" class="node">
<title>Node7</title>
<g id="a_node7"><a xlink:href="fmt_8hpp.html" target="_top" xlink:title=" ">
<polygon fill="white" stroke="red" points="1239.83,-118 1239.83,-137 1318.83,-137 1318.83,-118 1239.83,-118"/>
<text text-anchor="middle" x="1279.33" y="-125" font-family="Helvetica,sans-Serif" font-size="10.00">utils/fmt.hpp</text>
</a>
</g>
</g>
<!-- Node6&#45;&gt;Node7 -->
<g id="edge6" class="edge">
<title>Node6&#45;&gt;Node7</title>
<path fill="none" stroke="midnightblue" d="M1052.75,-235.32C1095.42,-215.2 1201.26,-165.31 1251.72,-141.52"/>
<polygon fill="midnightblue" stroke="midnightblue" points="1253.49,-144.55 1261.04,-137.12 1250.5,-138.22 1253.49,-144.55"/>
</g>
<!-- Node22 -->
<g id="node13" class="node">
<title>Node22</title>
<g id="a_node13"><a xlink:href="ArgumentFormatter_8hpp.html" target="_top" xlink:title=" ">
<polygon fill="white" stroke="red" points="1307.83,-179.5 1307.83,-198.5 1464.83,-198.5 1464.83,-179.5 1307.83,-179.5"/>
<text text-anchor="middle" x="1386.33" y="-186.5" font-family="Helvetica,sans-Serif" font-size="10.00">utils/ArgumentFormatter.hpp</text>
</a>
</g>
</g>
<!-- Node6&#45;&gt;Node22 -->
<g id="edge14" class="edge">
<title>Node6&#45;&gt;Node22</title>
<path fill="none" stroke="midnightblue" d="M1079.35,-236.59C1082.73,-236.05 1086.08,-235.51 1089.33,-235 1167.98,-222.61 1258.45,-208.99 1318.67,-200.02"/>
<polygon fill="midnightblue" stroke="midnightblue" points="1319.43,-203.44 1328.81,-198.51 1318.4,-196.52 1319.43,-203.44"/>
</g>
<!-- Node28 -->
<g id="node16" class="node">
<title>Node28</title>
<g id="a_node16"><a xlink:href="Tracer_8hpp.html" target="_top" xlink:title=" ">
<polygon fill="white" stroke="black" points="966.83,-179.5 966.83,-198.5 1071.83,-198.5 1071.83,-179.5 966.83,-179.5"/>
<text text-anchor="middle" x="1019.33" y="-186.5" font-family="Helvetica,sans-Serif" font-size="10.00">logging/Tracer.hpp</text>
</a>
</g>
</g>
<!-- Node6&#45;&gt;Node28 -->
<g id="edge18" class="edge">
<title>Node6&#45;&gt;Node28</title>
<path fill="none" stroke="midnightblue" d="M1031.86,-235.08C1029.85,-227.85 1026.95,-217.41 1024.44,-208.4"/>
<polygon fill="midnightblue" stroke="midnightblue" points="1027.81,-207.45 1021.76,-198.75 1021.07,-209.32 1027.81,-207.45"/>
</g>
<!-- Node7&#45;&gt;Node5 -->
<g id="edge8" class="edge">
<title>Node7&#45;&gt;Node5</title>
<path fill="none" stroke="midnightblue" d="M1310.4,-117.93C1317.9,-115.93 1325.89,-113.84 1333.33,-112 1385.32,-99.15 1445.31,-85.78 1485.72,-76.99"/>
<polygon fill="midnightblue" stroke="midnightblue" points="1486.52,-80.4 1495.55,-74.86 1485.04,-73.56 1486.52,-80.4"/>
</g>
<!-- Node7&#45;&gt;Node8 -->
<g id="edge7" class="edge">
<title>Node7&#45;&gt;Node8</title>
<path fill="none" stroke="midnightblue" d="M1239.78,-122.27C1212.2,-119.34 1174.53,-115.37 1141.33,-112 981.51,-95.77 790.27,-77.34 715.03,-70.13"/>
<polygon fill="midnightblue" stroke="midnightblue" points="715.07,-66.62 704.79,-69.15 714.41,-73.58 715.07,-66.62"/>
</g>
<!-- Node9 -->
<g id="node9" class="node">
<title>Node9</title>
<g id="a_node9"><a xlink:title=" ">
<polygon fill="white" stroke="#bfbfbf" points="1357.83,-0.5 1357.83,-19.5 1436.83,-19.5 1436.83,-0.5 1357.83,-0.5"/>
<text text-anchor="middle" x="1397.33" y="-7.5" font-family="Helvetica,sans-Serif" font-size="10.00">fmt/format.h</text>
</a>
</g>
</g>
<!-- Node7&#45;&gt;Node9 -->
<g id="edge9" class="edge">
<title>Node7&#45;&gt;Node9</title>
<path fill="none" stroke="midnightblue" d="M1309.47,-117.99C1357.48,-104.36 1446.2,-78.86 1448.33,-76 1461.63,-58.14 1440.05,-38.04 1421,-24.99"/>
<polygon fill="midnightblue" stroke="midnightblue" points="1422.86,-22.02 1412.56,-19.52 1419.05,-27.89 1422.86,-22.02"/>
</g>
<!-- Node10 -->
<g id="node10" class="node">
<title>Node10</title>
<g id="a_node10"><a xlink:title=" ">
<polygon fill="white" stroke="#bfbfbf" points="1353.33,-56.5 1353.33,-75.5 1439.33,-75.5 1439.33,-56.5 1353.33,-56.5"/>
<text text-anchor="middle" x="1396.33" y="-63.5" font-family="Helvetica,sans-Serif" font-size="10.00">fmt/ostream.h</text>
</a>
</g>
</g>
<!-- Node7&#45;&gt;Node10 -->
<g id="edge10" class="edge">
<title>Node7&#45;&gt;Node10</title>
<path fill="none" stroke="midnightblue" d="M1296.1,-117.98C1315.56,-108.08 1347.88,-91.64 1370.54,-80.12"/>
<polygon fill="midnightblue" stroke="midnightblue" points="1372.27,-83.16 1379.6,-75.51 1369.1,-76.92 1372.27,-83.16"/>
</g>
<!-- Node11 -->
<g id="node11" class="node">
<title>Node11</title>
<g id="a_node11"><a xlink:href="fmtEigen_8hpp.html" target="_top" xlink:title=" ">
<polygon fill="white" stroke="red" points="1229.33,-56.5 1229.33,-75.5 1335.33,-75.5 1335.33,-56.5 1229.33,-56.5"/>
<text text-anchor="middle" x="1282.33" y="-63.5" font-family="Helvetica,sans-Serif" font-size="10.00">utils/fmtEigen.hpp</text>
</a>
</g>
</g>
<!-- Node7&#45;&gt;Node11 -->
<g id="edge11" class="edge">
<title>Node7&#45;&gt;Node11</title>
<path fill="none" stroke="midnightblue" d="M1279.76,-117.98C1280.19,-109.58 1280.85,-96.48 1281.39,-85.66"/>
<polygon fill="midnightblue" stroke="midnightblue" points="1284.9,-85.67 1281.9,-75.51 1277.9,-85.32 1284.9,-85.67"/>
</g>
<!-- Node11&#45;&gt;Node9 -->
<g id="edge12" class="edge">
<title>Node11&#45;&gt;Node9</title>
<path fill="none" stroke="midnightblue" d="M1300.55,-56.44C1319.23,-47.68 1348.49,-33.94 1369.95,-23.86"/>
<polygon fill="midnightblue" stroke="midnightblue" points="1371.63,-26.93 1379.2,-19.52 1368.66,-20.6 1371.63,-26.93"/>
</g>
<!-- Node11&#45;&gt;Node14 -->
<g id="edge13" class="edge">
<title>Node11&#45;&gt;Node14</title>
<path fill="none" stroke="midnightblue" d="M1275.56,-56.08C1269.77,-48.46 1261.27,-37.26 1254.2,-27.94"/>
<polygon fill="midnightblue" stroke="midnightblue" points="1256.81,-25.6 1247.98,-19.75 1251.24,-29.83 1256.81,-25.6"/>
</g>
<!-- Node22&#45;&gt;Node7 -->
<g id="edge17" class="edge">
<title>Node22&#45;&gt;Node7</title>
<path fill="none" stroke="midnightblue" d="M1371,-179.48C1353.36,-169.67 1324.17,-153.43 1303.48,-141.92"/>
<polygon fill="midnightblue" stroke="midnightblue" points="1305.08,-138.81 1294.63,-137.01 1301.67,-144.93 1305.08,-138.81"/>
</g>
<!-- Node23 -->
<g id="node14" class="node">
<title>Node23</title>
<g id="a_node14"><a xlink:title=" ">
<polygon fill="white" stroke="#bfbfbf" points="1738.33,-112.5 1738.33,-142.5 1848.33,-142.5 1848.33,-112.5 1738.33,-112.5"/>
<text text-anchor="start" x="1746.33" y="-130.5" font-family="Helvetica,sans-Serif" font-size="10.00">boost/preprocessor</text>
<text text-anchor="middle" x="1793.33" y="-119.5" font-family="Helvetica,sans-Serif" font-size="10.00">/control/if.hpp</text>
</a>
</g>
</g>
<!-- Node22&#45;&gt;Node23 -->
<g id="edge15" class="edge">
<title>Node22&#45;&gt;Node23</title>
<path fill="none" stroke="midnightblue" d="M1444.65,-179.48C1519.64,-168.51 1649.52,-149.52 1727.84,-138.07"/>
<polygon fill="midnightblue" stroke="midnightblue" points="1728.68,-141.49 1738.06,-136.58 1727.66,-134.56 1728.68,-141.49"/>
</g>
<!-- Node25 -->
<g id="node15" class="node">
<title>Node25</title>
<g id="a_node15"><a xlink:title=" ">
<polygon fill="white" stroke="#bfbfbf" points="1407.33,-112.5 1407.33,-142.5 1517.33,-142.5 1517.33,-112.5 1407.33,-112.5"/>
<text text-anchor="start" x="1415.33" y="-130.5" font-family="Helvetica,sans-Serif" font-size="10.00">boost/preprocessor</text>
<text text-anchor="middle" x="1462.33" y="-119.5" font-family="Helvetica,sans-Serif" font-size="10.00">/stringize.hpp</text>
</a>
</g>
</g>
<!-- Node22&#45;&gt;Node25 -->
<g id="edge16" class="edge">
<title>Node22&#45;&gt;Node25</title>
<path fill="none" stroke="midnightblue" d="M1397.22,-179.48C1407.42,-171.49 1423.05,-159.25 1436.44,-148.77"/>
<polygon fill="midnightblue" stroke="midnightblue" points="1438.7,-151.44 1444.42,-142.52 1434.39,-145.93 1438.7,-151.44"/>
</g>
<!-- Node28&#45;&gt;Node3 -->
<g id="edge19" class="edge">
<title>Node28&#45;&gt;Node3</title>
<path fill="none" stroke="midnightblue" d="M1011.07,-198.54C997.15,-212.43 967.56,-239.91 937.33,-255 903.8,-271.74 863.37,-282.73 830.14,-289.65"/>
<polygon fill="midnightblue" stroke="midnightblue" points="829.19,-286.27 820.08,-291.67 830.57,-293.13 829.19,-286.27"/>
</g>
<!-- Node17 -->
<g id="node18" class="node">
<title>Node17</title>
<g id="a_node18"><a xlink:title=" ">
<polygon fill="white" stroke="#bfbfbf" points="246.33,-291.5 246.33,-310.5 288.33,-310.5 288.33,-291.5 246.33,-291.5"/>
<text text-anchor="middle" x="267.33" y="-298.5" font-family="Helvetica,sans-Serif" font-size="10.00">array</text>
</a>
</g>
</g>
<!-- Node29&#45;&gt;Node17 -->
<g id="edge21" class="edge">
<title>Node29&#45;&gt;Node17</title>
<path fill="none" stroke="midnightblue" d="M362.43,-352.98C344.05,-343.12 313.58,-326.79 292.09,-315.27"/>
<polygon fill="midnightblue" stroke="midnightblue" points="293.67,-312.15 283.21,-310.51 290.37,-318.32 293.67,-312.15"/>
</g>
<!-- Node30 -->
<g id="node19" class="node">
<title>Node30</title>
<g id="a_node19"><a xlink:title=" ">
<polygon fill="white" stroke="#bfbfbf" points="306.83,-291.5 306.83,-310.5 359.83,-310.5 359.83,-291.5 306.83,-291.5"/>
<text text-anchor="middle" x="333.33" y="-298.5" font-family="Helvetica,sans-Serif" font-size="10.00">cstddef</text>
</a>
</g>
</g>
<!-- Node29&#45;&gt;Node30 -->
<g id="edge22" class="edge">
<title>Node29&#45;&gt;Node30</title>
<path fill="none" stroke="midnightblue" d="M371.89,-352.98C365.14,-344.05 354.36,-329.81 345.92,-318.64"/>
<polygon fill="midnightblue" stroke="midnightblue" points="348.59,-316.37 339.77,-310.51 343.01,-320.6 348.59,-316.37"/>
</g>
<!-- Node31 -->
<g id="node20" class="node">
<title>Node31</title>
<g id="a_node20"><a xlink:title=" ">
<polygon fill="white" stroke="#bfbfbf" points="378.33,-291.5 378.33,-310.5 428.33,-310.5 428.33,-291.5 378.33,-291.5"/>
<text text-anchor="middle" x="403.33" y="-298.5" font-family="Helvetica,sans-Serif" font-size="10.00">cstdint</text>
</a>
</g>
</g>
<!-- Node29&#45;&gt;Node31 -->
<g id="edge23" class="edge">
<title>Node29&#45;&gt;Node31</title>
<path fill="none" stroke="midnightblue" d="M381.91,-352.98C385.52,-344.4 391.18,-330.93 395.78,-319.98"/>
<polygon fill="midnightblue" stroke="midnightblue" points="399.11,-321.08 399.76,-310.51 392.66,-318.37 399.11,-321.08"/>
</g>
<!-- Node32 -->
<g id="node21" class="node">
<title>Node32</title>
<g id="a_node21"><a xlink:title=" ">
<polygon fill="white" stroke="#bfbfbf" points="178.33,-291.5 178.33,-310.5 228.33,-310.5 228.33,-291.5 178.33,-291.5"/>
<text text-anchor="middle" x="203.33" y="-298.5" font-family="Helvetica,sans-Serif" font-size="10.00">cstring</text>
</a>
</g>
</g>
<!-- Node29&#45;&gt;Node32 -->
<g id="edge24" class="edge">
<title>Node29&#45;&gt;Node32</title>
<path fill="none" stroke="midnightblue" d="M353.26,-352.98C322.98,-342.68 271.89,-325.31 237.89,-313.75"/>
<polygon fill="midnightblue" stroke="midnightblue" points="238.95,-310.41 228.36,-310.51 236.7,-317.04 238.95,-310.41"/>
</g>
<!-- Node29&#45;&gt;Node33 -->
<g id="edge25" class="edge">
<title>Node29&#45;&gt;Node33</title>
<path fill="none" stroke="midnightblue" d="M345.35,-352.95C336.9,-350.88 327.8,-348.76 319.33,-347 243.02,-331.11 153.39,-316.67 100.93,-308.63"/>
<polygon fill="midnightblue" stroke="midnightblue" points="101.36,-305.16 90.94,-307.11 100.3,-312.08 101.36,-305.16"/>
</g>
<!-- Node34&#45;&gt;Node3 -->
<g id="edge32" class="edge">
<title>Node34&#45;&gt;Node3</title>
<path fill="none" stroke="midnightblue" d="M814.17,-352.98C805.45,-343.87 791.43,-329.24 780.64,-317.98"/>
<polygon fill="midnightblue" stroke="midnightblue" points="782.93,-315.31 773.48,-310.51 777.87,-320.15 782.93,-315.31"/>
</g>
<!-- Node34&#45;&gt;Node4 -->
<g id="edge28" class="edge">
<title>Node34&#45;&gt;Node4</title>
<path fill="none" stroke="midnightblue" d="M785.71,-352.96C777.07,-350.97 767.88,-348.89 759.33,-347 683.92,-330.34 645.97,-363.5 589.33,-311 576.68,-299.27 572.29,-279.63 570.85,-265"/>
<polygon fill="midnightblue" stroke="midnightblue" points="574.31,-264.36 570.22,-254.59 567.33,-264.78 574.31,-264.36"/>
</g>
<!-- Node34&#45;&gt;Node8 -->
<g id="edge30" class="edge">
<title>Node34&#45;&gt;Node8</title>
<path fill="none" stroke="midnightblue" d="M778.94,-352.92C753.39,-345.76 722.28,-333.04 702.33,-311 682.05,-288.59 682.33,-276.23 682.33,-246 682.33,-246 682.33,-246 682.33,-188 682.33,-151.71 682.33,-109.31 682.33,-85.56"/>
<polygon fill="midnightblue" stroke="midnightblue" points="685.83,-85.51 682.33,-75.51 678.83,-85.51 685.83,-85.51"/>
</g>
<!-- Node35 -->
<g id="node24" class="node">
<title>Node35</title>
<g id="a_node24"><a xlink:title=" ">
<polygon fill="white" stroke="#bfbfbf" points="959.33,-291.5 959.33,-310.5 1007.33,-310.5 1007.33,-291.5 959.33,-291.5"/>
<text text-anchor="middle" x="983.33" y="-298.5" font-family="Helvetica,sans-Serif" font-size="10.00">iosfwd</text>
</a>
</g>
</g>
<!-- Node34&#45;&gt;Node35 -->
<g id="edge27" class="edge">
<title>Node34&#45;&gt;Node35</title>
<path fill="none" stroke="midnightblue" d="M845.4,-352.98C873.02,-342.77 919.45,-325.61 950.73,-314.05"/>
<polygon fill="midnightblue" stroke="midnightblue" points="952.14,-317.26 960.31,-310.51 949.72,-310.69 952.14,-317.26"/>
</g>
<!-- Node36 -->
<g id="node25" class="node">
<title>Node36</title>
<g id="a_node25"><a xlink:title=" ">
<polygon fill="white" stroke="#bfbfbf" points="598.33,-291.5 598.33,-310.5 654.33,-310.5 654.33,-291.5 598.33,-291.5"/>
<text text-anchor="middle" x="626.33" y="-298.5" font-family="Helvetica,sans-Serif" font-size="10.00">optional</text>
</a>
</g>
</g>
<!-- Node34&#45;&gt;Node36 -->
<g id="edge29" class="edge">
<title>Node34&#45;&gt;Node36</title>
<path fill="none" stroke="midnightblue" d="M794.25,-352.98C760.05,-342.59 702.14,-325.01 664.06,-313.45"/>
<polygon fill="midnightblue" stroke="midnightblue" points="664.95,-310.06 654.36,-310.51 662.91,-316.76 664.95,-310.06"/>
</g>
<!-- Node34&#45;&gt;Node21 -->
<g id="edge31" class="edge">
<title>Node34&#45;&gt;Node21</title>
<path fill="none" stroke="midnightblue" d="M855.66,-352.95C892.37,-343.5 953.4,-327.72 1015.57,-311.18"/>
<polygon fill="midnightblue" stroke="midnightblue" points="1016.79,-314.48 1025.55,-308.52 1014.98,-307.71 1016.79,-314.48"/>
</g>
<!-- Node37 -->
<g id="node27" class="node">
<title>Node37</title>
<g id="a_node27"><a xlink:href="types_8hpp.html" target="_top" xlink:title=" ">
<polygon fill="white" stroke="black" points="837.83,-291.5 837.83,-310.5 940.83,-310.5 940.83,-291.5 837.83,-291.5"/>
<text text-anchor="middle" x="889.33" y="-298.5" font-family="Helvetica,sans-Serif" font-size="10.00">precice/types.hpp</text>
</a>
</g>
</g>
<!-- Node34&#45;&gt;Node37 -->
<g id="edge33" class="edge">
<title>Node34&#45;&gt;Node37</title>
<path fill="none" stroke="midnightblue" d="M831.93,-352.98C842.38,-343.7 859.3,-328.67 872.07,-317.33"/>
<polygon fill="midnightblue" stroke="midnightblue" points="874.6,-319.77 879.75,-310.51 869.95,-314.53 874.6,-319.77"/>
</g>
<!-- Node34&#45;&gt;Node38 -->
<g id="edge34" class="edge">
<title>Node34&#45;&gt;Node38</title>
<path fill="none" stroke="midnightblue" d="M871.5,-353.32C921.84,-344.64 1002.52,-329.89 1080.99,-311.16"/>
<polygon fill="midnightblue" stroke="midnightblue" points="1082.15,-314.48 1091.05,-308.73 1080.5,-307.67 1082.15,-314.48"/>
</g>
<!-- Node50&#45;&gt;Node5 -->
<g id="edge62" class="edge">
<title>Node50&#45;&gt;Node5</title>
<path fill="none" stroke="midnightblue" d="M1695.93,-415.21C1699.11,-414.79 1702.26,-414.38 1705.33,-414 1780.29,-404.66 1982.21,-422.39 2043.33,-378 2073.27,-356.26 2077.33,-339 2077.33,-302 2077.33,-302 2077.33,-302 2077.33,-188 2077.33,-86.32 1711.23,-70.03 1579.14,-67.47"/>
<polygon fill="midnightblue" stroke="midnightblue" points="1579,-63.96 1568.94,-67.29 1578.87,-70.96 1579,-63.96"/>
</g>
<!-- Node50&#45;&gt;Node7 -->
<g id="edge63" class="edge">
<title>Node50&#45;&gt;Node7</title>
<path fill="none" stroke="midnightblue" d="M1588.64,-415.03C1505.42,-402.64 1354.55,-379.94 1352.33,-378 1282.8,-317.2 1277.79,-194.16 1278.57,-147.25"/>
<polygon fill="midnightblue" stroke="midnightblue" points="1282.08,-147.14 1278.86,-137.04 1275.08,-146.94 1282.08,-147.14"/>
</g>
<!-- Node50&#45;&gt;Node22 -->
<g id="edge69" class="edge">
<title>Node50&#45;&gt;Node22</title>
<path fill="none" stroke="midnightblue" d="M1588.74,-415.09C1542.78,-407.34 1481.11,-394.33 1462.33,-378 1410.33,-332.78 1393.42,-246.79 1388.34,-208.82"/>
<polygon fill="midnightblue" stroke="midnightblue" points="1391.79,-208.19 1387.12,-198.68 1384.84,-209.03 1391.79,-208.19"/>
</g>
<!-- Node50&#45;&gt;Node23 -->
<g id="edge66" class="edge">
<title>Node50&#45;&gt;Node23</title>
<path fill="none" stroke="midnightblue" d="M1695.94,-415.24C1699.11,-414.81 1702.26,-414.39 1705.33,-414 1775.21,-405.02 1967.35,-424.45 2020.33,-378 2046.51,-355.05 2039.33,-336.82 2039.33,-302 2039.33,-302 2039.33,-302 2039.33,-244 2039.33,-164.02 1931.46,-139.31 1858.58,-131.75"/>
<polygon fill="midnightblue" stroke="midnightblue" points="1858.83,-128.26 1848.54,-130.8 1858.16,-135.23 1858.83,-128.26"/>
</g>
<!-- Node50&#45;&gt;Node25 -->
<g id="edge67" class="edge">
<title>Node50&#45;&gt;Node25</title>
<path fill="none" stroke="midnightblue" d="M1595.28,-414.42C1557.32,-406.5 1508.19,-393.6 1495.33,-378 1438.76,-309.38 1489.31,-266.67 1474.33,-179 1472.84,-170.26 1470.72,-160.77 1468.68,-152.4"/>
<polygon fill="midnightblue" stroke="midnightblue" points="1472.03,-151.39 1466.18,-142.55 1465.24,-153.1 1472.03,-151.39"/>
</g>
<!-- Node50&#45;&gt;Node34 -->
<g id="edge70" class="edge">
<title>Node50&#45;&gt;Node34</title>
<path fill="none" stroke="midnightblue" d="M1588.75,-415.07C1585.57,-414.68 1582.41,-414.32 1579.33,-414 1320.35,-386.9 1009.93,-371.54 881.95,-365.95"/>
<polygon fill="midnightblue" stroke="midnightblue" points="881.74,-362.44 871.6,-365.5 881.43,-369.43 881.74,-362.44"/>
</g>
<!-- Node51 -->
<g id="node41" class="node">
<title>Node51</title>
<g id="a_node41"><a xlink:title=" ">
<polygon fill="white" stroke="#bfbfbf" points="1360.83,-353 1360.83,-372 1409.83,-372 1409.83,-353 1360.83,-353"/>
<text text-anchor="middle" x="1385.33" y="-360" font-family="Helvetica,sans-Serif" font-size="10.00">cstdlib</text>
</a>
</g>
</g>
<!-- Node50&#45;&gt;Node51 -->
<g id="edge60" class="edge">
<title>Node50&#45;&gt;Node51</title>
<path fill="none" stroke="midnightblue" d="M1589.81,-414.48C1545.32,-406.7 1480.05,-394.01 1424.33,-378 1421.69,-377.24 1418.97,-376.39 1416.26,-375.48"/>
<polygon fill="midnightblue" stroke="midnightblue" points="1417.19,-372.1 1406.59,-372.07 1414.86,-378.7 1417.19,-372.1"/>
</g>
<!-- Node52 -->
<g id="node42" class="node">
<title>Node52</title>
<g id="a_node42"><a xlink:title=" ">
<polygon fill="white" stroke="#bfbfbf" points="1504.33,-353 1504.33,-372 1564.33,-372 1564.33,-353 1504.33,-353"/>
<text text-anchor="middle" x="1534.33" y="-360" font-family="Helvetica,sans-Serif" font-size="10.00">iostream</text>
</a>
</g>
</g>
<!-- Node50&#45;&gt;Node52 -->
<g id="edge61" class="edge">
<title>Node50&#45;&gt;Node52</title>
<path fill="none" stroke="midnightblue" d="M1626.86,-414.48C1609.06,-404.67 1579.59,-388.43 1558.7,-376.92"/>
<polygon fill="midnightblue" stroke="midnightblue" points="1560.23,-373.77 1549.78,-372.01 1556.85,-379.9 1560.23,-373.77"/>
</g>
<!-- Node53 -->
<g id="node43" class="node">
<title>Node53</title>
<g id="a_node43"><a xlink:title=" ">
<polygon fill="white" stroke="#bfbfbf" points="1582.83,-353 1582.83,-372 1729.83,-372 1729.83,-353 1582.83,-353"/>
<text text-anchor="middle" x="1656.33" y="-360" font-family="Helvetica,sans-Serif" font-size="10.00">boost/current_function.hpp</text>
</a>
</g>
</g>
<!-- Node50&#45;&gt;Node53 -->
<g id="edge64" class="edge">
<title>Node50&#45;&gt;Node53</title>
<path fill="none" stroke="midnightblue" d="M1644.34,-414.48C1646.33,-405.99 1649.46,-392.7 1652.02,-381.82"/>
<polygon fill="midnightblue" stroke="midnightblue" points="1655.45,-382.54 1654.33,-372.01 1648.63,-380.94 1655.45,-382.54"/>
</g>
<!-- Node54 -->
<g id="node44" class="node">
<title>Node54</title>
<g id="a_node44"><a xlink:title=" ">
<polygon fill="white" stroke="#bfbfbf" points="1747.83,-347.5 1747.83,-377.5 1882.83,-377.5 1882.83,-347.5 1747.83,-347.5"/>
<text text-anchor="start" x="1755.83" y="-365.5" font-family="Helvetica,sans-Serif" font-size="10.00">boost/preprocessor</text>
<text text-anchor="middle" x="1815.33" y="-354.5" font-family="Helvetica,sans-Serif" font-size="10.00">/comparison/greater.hpp</text>
</a>
</g>
</g>
<!-- Node50&#45;&gt;Node54 -->
<g id="edge65" class="edge">
<title>Node50&#45;&gt;Node54</title>
<path fill="none" stroke="midnightblue" d="M1667.12,-414.48C1692.52,-405.74 1732.74,-391.91 1764.87,-380.86"/>
<polygon fill="midnightblue" stroke="midnightblue" points="1766.24,-384.09 1774.56,-377.52 1763.97,-377.47 1766.24,-384.09"/>
</g>
<!-- Node55 -->
<g id="node45" class="node">
<title>Node55</title>
<g id="a_node45"><a xlink:title=" ">
<polygon fill="white" stroke="#bfbfbf" points="1901.33,-347.5 1901.33,-377.5 2011.33,-377.5 2011.33,-347.5 1901.33,-347.5"/>
<text text-anchor="start" x="1909.33" y="-365.5" font-family="Helvetica,sans-Serif" font-size="10.00">boost/preprocessor</text>
<text text-anchor="middle" x="1956.33" y="-354.5" font-family="Helvetica,sans-Serif" font-size="10.00">/variadic/size.hpp</text>
</a>
</g>
</g>
<!-- Node50&#45;&gt;Node55 -->
<g id="edge68" class="edge">
<title>Node50&#45;&gt;Node55</title>
<path fill="none" stroke="midnightblue" d="M1693.69,-414.45C1742.15,-406.22 1817.05,-393.1 1891.23,-378.18"/>
<polygon fill="midnightblue" stroke="midnightblue" points="1892.1,-381.57 1901.21,-376.15 1890.71,-374.71 1892.1,-381.57"/>
</g>
<!-- Node56 -->
<g id="node46" class="node">
<title>Node56</title>
<g id="a_node46"><a xlink:href="stacktrace_8hpp.html" target="_top" xlink:title=" ">
<polygon fill="white" stroke="black" points="1097.83,-235.5 1097.83,-254.5 1210.83,-254.5 1210.83,-235.5 1097.83,-235.5"/>
<text text-anchor="middle" x="1154.33" y="-242.5" font-family="Helvetica,sans-Serif" font-size="10.00">utils/stacktrace.hpp</text>
</a>
</g>
</g>
<!-- Node50&#45;&gt;Node56 -->
<g id="edge71" class="edge">
<title>Node50&#45;&gt;Node56</title>
<path fill="none" stroke="midnightblue" d="M1588.74,-415.19C1585.56,-414.77 1582.4,-414.37 1579.33,-414 1499.74,-404.33 1286.24,-423.66 1220.33,-378 1184.88,-353.44 1196.7,-329.54 1177.33,-291 1172.79,-281.97 1167.68,-271.96 1163.44,-263.67"/>
<polygon fill="midnightblue" stroke="midnightblue" points="1166.46,-261.9 1158.78,-254.61 1160.23,-265.1 1166.46,-261.9"/>
</g>
<!-- Node57 -->
<g id="node47" class="node">
<title>Node57</title>
<g id="a_node47"><a xlink:title=" ">
<polygon fill="white" stroke="#bfbfbf" points="1229.33,-353 1229.33,-372 1281.33,-372 1281.33,-353 1229.33,-353"/>
<text text-anchor="middle" x="1255.33" y="-360" font-family="Helvetica,sans-Serif" font-size="10.00">cassert</text>
</a>
</g>
</g>
<!-- Node50&#45;&gt;Node57 -->
<g id="edge73" class="edge">
<title>Node50&#45;&gt;Node57</title>
<path fill="none" stroke="midnightblue" d="M1588.72,-415.28C1585.55,-414.84 1582.4,-414.41 1579.33,-414 1453.24,-397 1419.01,-407.86 1295.33,-378 1292.27,-377.26 1289.12,-376.37 1286,-375.39"/>
<polygon fill="midnightblue" stroke="midnightblue" points="1286.83,-371.98 1276.24,-372.07 1284.58,-378.6 1286.83,-371.98"/>
</g>
<!-- Node56&#45;&gt;Node8 -->
<g id="edge72" class="edge">
<title>Node56&#45;&gt;Node8</title>
<path fill="none" stroke="midnightblue" d="M1147.15,-235.48C1135.01,-221.6 1109.02,-194.15 1081.33,-179 955.85,-110.36 784.65,-80.78 714.4,-71"/>
<polygon fill="midnightblue" stroke="midnightblue" points="714.78,-67.51 704.4,-69.64 713.84,-74.45 714.78,-67.51"/>
</g>
</g>
</svg>
