<?xml version="1.0" encoding="UTF-8" standalone="no"?>
<!DOCTYPE svg PUBLIC "-//W3C//DTD SVG 1.1//EN"
 "http://www.w3.org/Graphics/SVG/1.1/DTD/svg11.dtd">
<!-- Generated by graphviz version 2.43.0 (0)
 -->
<!-- Title: src/acceleration/impl/Preconditioner.hpp Pages: 1 -->
<svg width="2039pt" height="397pt"
 viewBox="0.00 0.00 2038.79 397.00" xmlns="http://www.w3.org/2000/svg" xmlns:xlink="http://www.w3.org/1999/xlink">
<g id="graph0" class="graph" transform="scale(1 1) rotate(0) translate(4 393)">
<title>src/acceleration/impl/Preconditioner.hpp</title>
<polygon fill="white" stroke="transparent" points="-4,4 -4,-393 2034.79,-393 2034.79,4 -4,4"/>
<!-- Node1 -->
<g id="node1" class="node">
<title>Node1</title>
<g id="a_node1"><a xlink:title=" ">
<polygon fill="#bfbfbf" stroke="black" points="280.29,-358.5 280.29,-388.5 399.29,-388.5 399.29,-358.5 280.29,-358.5"/>
<text text-anchor="start" x="288.29" y="-376.5" font-family="Helvetica,sans-Serif" font-size="10.00">src/acceleration/impl</text>
<text text-anchor="middle" x="339.79" y="-365.5" font-family="Helvetica,sans-Serif" font-size="10.00">/Preconditioner.hpp</text>
</a>
</g>
</g>
<!-- Node2 -->
<g id="node2" class="node">
<title>Node2</title>
<g id="a_node2"><a xlink:title=" ">
<polygon fill="white" stroke="#bfbfbf" points="1734.29,-0.5 1734.29,-19.5 1803.29,-19.5 1803.29,-0.5 1734.29,-0.5"/>
<text text-anchor="middle" x="1768.79" y="-7.5" font-family="Helvetica,sans-Serif" font-size="10.00">Eigen/Core</text>
</a>
</g>
</g>
<!-- Node1&#45;&gt;Node2 -->
<g id="edge1" class="edge">
<title>Node1&#45;&gt;Node2</title>
<path fill="none" stroke="midnightblue" d="M399.48,-371.42C699.75,-365.59 2030.79,-335.06 2030.79,-251.5 2030.79,-251.5 2030.79,-251.5 2030.79,-121 2030.79,-27.83 1888.19,-12.26 1813.4,-10.5"/>
<polygon fill="midnightblue" stroke="midnightblue" points="1813.37,-7 1803.31,-10.34 1813.26,-14 1813.37,-7"/>
</g>
<!-- Node3 -->
<g id="node3" class="node">
<title>Node3</title>
<g id="a_node3"><a xlink:title=" ">
<polygon fill="white" stroke="#bfbfbf" points="1070.29,-56.5 1070.29,-75.5 1117.29,-75.5 1117.29,-56.5 1070.29,-56.5"/>
<text text-anchor="middle" x="1093.79" y="-63.5" font-family="Helvetica,sans-Serif" font-size="10.00">vector</text>
</a>
</g>
</g>
<!-- Node1&#45;&gt;Node3 -->
<g id="edge2" class="edge">
<title>Node1&#45;&gt;Node3</title>
<path fill="none" stroke="midnightblue" d="M280.13,-361.2C192.12,-342.81 37.79,-303.18 37.79,-251.5 37.79,-251.5 37.79,-251.5 37.79,-182.5 37.79,-143.74 -116.88,-179.75 201.79,-112 370.12,-76.21 917.15,-68.65 1059.62,-67.28"/>
<polygon fill="midnightblue" stroke="midnightblue" points="1059.95,-70.77 1069.91,-67.18 1059.88,-63.77 1059.95,-70.77"/>
</g>
<!-- Node4 -->
<g id="node4" class="node">
<title>Node4</title>
<g id="a_node4"><a xlink:href="cplscheme_2SharedPointer_8hpp.html" target="_top" xlink:title=" ">
<polygon fill="white" stroke="black" points="66.29,-174 66.29,-193 227.29,-193 227.29,-174 66.29,-174"/>
<text text-anchor="middle" x="146.79" y="-181" font-family="Helvetica,sans-Serif" font-size="10.00">cplscheme/SharedPointer.hpp</text>
</a>
</g>
</g>
<!-- Node1&#45;&gt;Node4 -->
<g id="edge3" class="edge">
<title>Node1&#45;&gt;Node4</title>
<path fill="none" stroke="midnightblue" d="M325.29,-358.37C290.08,-324.07 200.28,-236.6 163.19,-200.48"/>
<polygon fill="midnightblue" stroke="midnightblue" points="165.34,-197.68 155.73,-193.21 160.45,-202.69 165.34,-197.68"/>
</g>
<!-- Node7 -->
<g id="node7" class="node">
<title>Node7</title>
<g id="a_node7"><a xlink:href="LogMacros_8hpp.html" target="_top" xlink:title=" ">
<polygon fill="white" stroke="black" points="335.29,-302.5 335.29,-321.5 464.29,-321.5 464.29,-302.5 335.29,-302.5"/>
<text text-anchor="middle" x="399.79" y="-309.5" font-family="Helvetica,sans-Serif" font-size="10.00">logging/LogMacros.hpp</text>
</a>
</g>
</g>
<!-- Node1&#45;&gt;Node7 -->
<g id="edge6" class="edge">
<title>Node1&#45;&gt;Node7</title>
<path fill="none" stroke="midnightblue" d="M354.01,-358.4C363,-349.49 374.63,-337.95 383.92,-328.74"/>
<polygon fill="midnightblue" stroke="midnightblue" points="386.43,-331.18 391.06,-321.66 381.5,-326.21 386.43,-331.18"/>
</g>
<!-- Node28 -->
<g id="node28" class="node">
<title>Node28</title>
<g id="a_node28"><a xlink:href="Logger_8hpp.html" target="_top" xlink:title=" ">
<polygon fill="white" stroke="black" points="245.79,-174 245.79,-193 315.79,-193 315.79,-174 245.79,-174"/>
<text text-anchor="middle" x="280.79" y="-181" font-family="Helvetica,sans-Serif" font-size="10.00">Logger.hpp</text>
</a>
</g>
</g>
<!-- Node1&#45;&gt;Node28 -->
<g id="edge38" class="edge">
<title>Node1&#45;&gt;Node28</title>
<path fill="none" stroke="midnightblue" d="M335.36,-358.37C324.82,-324.79 298.29,-240.25 286.54,-202.82"/>
<polygon fill="midnightblue" stroke="midnightblue" points="289.86,-201.7 283.52,-193.21 283.18,-203.8 289.86,-201.7"/>
</g>
<!-- Node29 -->
<g id="node29" class="node">
<title>Node29</title>
<g id="a_node29"><a xlink:href="assertion_8hpp.html" target="_top" xlink:title=" ">
<polygon fill="white" stroke="black" points="1196.29,-302.5 1196.29,-321.5 1303.29,-321.5 1303.29,-302.5 1196.29,-302.5"/>
<text text-anchor="middle" x="1249.79" y="-309.5" font-family="Helvetica,sans-Serif" font-size="10.00">utils/assertion.hpp</text>
</a>
</g>
</g>
<!-- Node1&#45;&gt;Node29 -->
<g id="edge39" class="edge">
<title>Node1&#45;&gt;Node29</title>
<path fill="none" stroke="midnightblue" d="M399.5,-368.6C563.14,-357.9 1017.75,-328.17 1186.05,-317.17"/>
<polygon fill="midnightblue" stroke="midnightblue" points="1186.49,-320.65 1196.24,-316.5 1186.04,-313.66 1186.49,-320.65"/>
</g>
<!-- Node5 -->
<g id="node5" class="node">
<title>Node5</title>
<g id="a_node5"><a xlink:title=" ">
<polygon fill="white" stroke="#bfbfbf" points="1148.79,-56.5 1148.79,-75.5 1186.79,-75.5 1186.79,-56.5 1148.79,-56.5"/>
<text text-anchor="middle" x="1167.79" y="-63.5" font-family="Helvetica,sans-Serif" font-size="10.00">map</text>
</a>
</g>
</g>
<!-- Node4&#45;&gt;Node5 -->
<g id="edge4" class="edge">
<title>Node4&#45;&gt;Node5</title>
<path fill="none" stroke="midnightblue" d="M154.77,-173.95C170.06,-158.22 205.32,-125.13 242.79,-112 428.13,-47.05 930.96,-100.66 1125.79,-76 1130.04,-75.46 1134.49,-74.71 1138.84,-73.88"/>
<polygon fill="midnightblue" stroke="midnightblue" points="1139.61,-77.29 1148.67,-71.82 1138.17,-70.44 1139.61,-77.29"/>
</g>
<!-- Node6 -->
<g id="node6" class="node">
<title>Node6</title>
<g id="a_node6"><a xlink:title=" ">
<polygon fill="white" stroke="#bfbfbf" points="251.79,-112.5 251.79,-131.5 309.79,-131.5 309.79,-112.5 251.79,-112.5"/>
<text text-anchor="middle" x="280.79" y="-119.5" font-family="Helvetica,sans-Serif" font-size="10.00">memory</text>
</a>
</g>
</g>
<!-- Node4&#45;&gt;Node6 -->
<g id="edge5" class="edge">
<title>Node4&#45;&gt;Node6</title>
<path fill="none" stroke="midnightblue" d="M165.99,-173.98C188.58,-163.95 226.29,-147.2 252.29,-135.65"/>
<polygon fill="midnightblue" stroke="midnightblue" points="253.91,-138.77 261.63,-131.51 251.07,-132.37 253.91,-138.77"/>
</g>
<!-- Node8 -->
<g id="node8" class="node">
<title>Node8</title>
<g id="a_node8"><a xlink:href="fmt_8hpp.html" target="_top" xlink:title=" ">
<polygon fill="white" stroke="black" points="1446.29,-174 1446.29,-193 1525.29,-193 1525.29,-174 1446.29,-174"/>
<text text-anchor="middle" x="1485.79" y="-181" font-family="Helvetica,sans-Serif" font-size="10.00">utils/fmt.hpp</text>
</a>
</g>
</g>
<!-- Node7&#45;&gt;Node8 -->
<g id="edge7" class="edge">
<title>Node7&#45;&gt;Node8</title>
<path fill="none" stroke="midnightblue" d="M464.3,-309.3C633.01,-304.55 1078.55,-289.86 1140.79,-266 1161.47,-258.07 1159.45,-243.73 1179.79,-235 1285.78,-189.51 1324.07,-223.43 1436.79,-199 1440.99,-198.09 1445.35,-197.01 1449.66,-195.85"/>
<polygon fill="midnightblue" stroke="midnightblue" points="1450.86,-199.14 1459.53,-193.05 1448.96,-192.41 1450.86,-199.14"/>
</g>
<!-- Node21 -->
<g id="node21" class="node">
<title>Node21</title>
<g id="a_node21"><a xlink:href="ArgumentFormatter_8hpp.html" target="_top" xlink:title=" ">
<polygon fill="white" stroke="black" points="638.29,-241 638.29,-260 795.29,-260 795.29,-241 638.29,-241"/>
<text text-anchor="middle" x="716.79" y="-248" font-family="Helvetica,sans-Serif" font-size="10.00">utils/ArgumentFormatter.hpp</text>
</a>
</g>
</g>
<!-- Node7&#45;&gt;Node21 -->
<g id="edge26" class="edge">
<title>Node7&#45;&gt;Node21</title>
<path fill="none" stroke="midnightblue" d="M445.21,-302.48C502.29,-291.76 600.21,-273.38 661.56,-261.87"/>
<polygon fill="midnightblue" stroke="midnightblue" points="662.28,-265.29 671.46,-260.01 660.98,-258.41 662.28,-265.29"/>
</g>
<!-- Node27 -->
<g id="node27" class="node">
<title>Node27</title>
<g id="a_node27"><a xlink:href="Tracer_8hpp.html" target="_top" xlink:title=" ">
<polygon fill="white" stroke="black" points="347.29,-241 347.29,-260 452.29,-260 452.29,-241 347.29,-241"/>
<text text-anchor="middle" x="399.79" y="-248" font-family="Helvetica,sans-Serif" font-size="10.00">logging/Tracer.hpp</text>
</a>
</g>
</g>
<!-- Node7&#45;&gt;Node27 -->
<g id="edge33" class="edge">
<title>Node7&#45;&gt;Node27</title>
<path fill="none" stroke="midnightblue" d="M399.79,-302.48C399.79,-294.08 399.79,-280.98 399.79,-270.16"/>
<polygon fill="midnightblue" stroke="midnightblue" points="403.29,-270.01 399.79,-260.01 396.29,-270.01 403.29,-270.01"/>
</g>
<!-- Node9 -->
<g id="node9" class="node">
<title>Node9</title>
<g id="a_node9"><a xlink:title=" ">
<polygon fill="white" stroke="#bfbfbf" points="1605.79,-112.5 1605.79,-131.5 1649.79,-131.5 1649.79,-112.5 1605.79,-112.5"/>
<text text-anchor="middle" x="1627.79" y="-119.5" font-family="Helvetica,sans-Serif" font-size="10.00">string</text>
</a>
</g>
</g>
<!-- Node8&#45;&gt;Node9 -->
<g id="edge8" class="edge">
<title>Node8&#45;&gt;Node9</title>
<path fill="none" stroke="midnightblue" d="M1506.14,-173.98C1530.18,-163.9 1570.39,-147.05 1597.96,-135.5"/>
<polygon fill="midnightblue" stroke="midnightblue" points="1599.61,-138.6 1607.49,-131.51 1596.91,-132.15 1599.61,-138.6"/>
</g>
<!-- Node10 -->
<g id="node10" class="node">
<title>Node10</title>
<g id="a_node10"><a xlink:title=" ">
<polygon fill="white" stroke="#bfbfbf" points="992.29,-112.5 992.29,-131.5 1065.29,-131.5 1065.29,-112.5 992.29,-112.5"/>
<text text-anchor="middle" x="1028.79" y="-119.5" font-family="Helvetica,sans-Serif" font-size="10.00">string_view</text>
</a>
</g>
</g>
<!-- Node8&#45;&gt;Node10 -->
<g id="edge9" class="edge">
<title>Node8&#45;&gt;Node10</title>
<path fill="none" stroke="midnightblue" d="M1460.07,-173.95C1452.63,-171.74 1444.45,-169.54 1436.79,-168 1368.68,-154.28 1167.63,-135.35 1075.67,-127.11"/>
<polygon fill="midnightblue" stroke="midnightblue" points="1075.81,-123.61 1065.53,-126.21 1075.18,-130.58 1075.81,-123.61"/>
</g>
<!-- Node11 -->
<g id="node11" class="node">
<title>Node11</title>
<g id="a_node11"><a xlink:title=" ">
<polygon fill="white" stroke="#bfbfbf" points="1388.29,-56.5 1388.29,-75.5 1467.29,-75.5 1467.29,-56.5 1388.29,-56.5"/>
<text text-anchor="middle" x="1427.79" y="-63.5" font-family="Helvetica,sans-Serif" font-size="10.00">fmt/format.h</text>
</a>
</g>
</g>
<!-- Node8&#45;&gt;Node11 -->
<g id="edge10" class="edge">
<title>Node8&#45;&gt;Node11</title>
<path fill="none" stroke="midnightblue" d="M1481.43,-173.82C1471.99,-155.01 1449.46,-110.15 1436.81,-84.96"/>
<polygon fill="midnightblue" stroke="midnightblue" points="1439.82,-83.15 1432.2,-75.78 1433.56,-86.29 1439.82,-83.15"/>
</g>
<!-- Node12 -->
<g id="node12" class="node">
<title>Node12</title>
<g id="a_node12"><a xlink:title=" ">
<polygon fill="white" stroke="#bfbfbf" points="1148.79,-112.5 1148.79,-131.5 1234.79,-131.5 1234.79,-112.5 1148.79,-112.5"/>
<text text-anchor="middle" x="1191.79" y="-119.5" font-family="Helvetica,sans-Serif" font-size="10.00">fmt/ostream.h</text>
</a>
</g>
</g>
<!-- Node8&#45;&gt;Node12 -->
<g id="edge11" class="edge">
<title>Node8&#45;&gt;Node12</title>
<path fill="none" stroke="midnightblue" d="M1458.72,-173.93C1451.62,-171.84 1443.95,-169.71 1436.79,-168 1418.44,-163.61 1311.22,-144.29 1244.85,-132.44"/>
<polygon fill="midnightblue" stroke="midnightblue" points="1245.43,-128.98 1234.97,-130.67 1244.2,-135.88 1245.43,-128.98"/>
</g>
<!-- Node13 -->
<g id="node13" class="node">
<title>Node13</title>
<g id="a_node13"><a xlink:href="fmtEigen_8hpp.html" target="_top" xlink:title=" ">
<polygon fill="white" stroke="black" points="1481.79,-112.5 1481.79,-131.5 1587.79,-131.5 1587.79,-112.5 1481.79,-112.5"/>
<text text-anchor="middle" x="1534.79" y="-119.5" font-family="Helvetica,sans-Serif" font-size="10.00">utils/fmtEigen.hpp</text>
</a>
</g>
</g>
<!-- Node8&#45;&gt;Node13 -->
<g id="edge12" class="edge">
<title>Node8&#45;&gt;Node13</title>
<path fill="none" stroke="midnightblue" d="M1492.81,-173.98C1500.24,-164.96 1512.13,-150.52 1521.36,-139.31"/>
<polygon fill="midnightblue" stroke="midnightblue" points="1524.13,-141.45 1527.79,-131.51 1518.73,-137 1524.13,-141.45"/>
</g>
<!-- Node17 -->
<g id="node17" class="node">
<title>Node17</title>
<g id="a_node17"><a xlink:href="fmtSTL_8hpp.html" target="_top" xlink:title=" ">
<polygon fill="white" stroke="black" points="1252.79,-112.5 1252.79,-131.5 1348.79,-131.5 1348.79,-112.5 1252.79,-112.5"/>
<text text-anchor="middle" x="1300.79" y="-119.5" font-family="Helvetica,sans-Serif" font-size="10.00">utils/fmtSTL.hpp</text>
</a>
</g>
</g>
<!-- Node8&#45;&gt;Node17 -->
<g id="edge19" class="edge">
<title>Node8&#45;&gt;Node17</title>
<path fill="none" stroke="midnightblue" d="M1459.29,-173.98C1427.14,-163.64 1372.81,-146.16 1336.87,-134.6"/>
<polygon fill="midnightblue" stroke="midnightblue" points="1337.84,-131.24 1327.25,-131.51 1335.7,-137.9 1337.84,-131.24"/>
</g>
<!-- Node13&#45;&gt;Node2 -->
<g id="edge13" class="edge">
<title>Node13&#45;&gt;Node2</title>
<path fill="none" stroke="midnightblue" d="M1588.05,-112.77C1647.79,-103.09 1737.95,-86.96 1749.79,-76 1762.46,-64.28 1766.85,-44.64 1768.29,-30"/>
<polygon fill="midnightblue" stroke="midnightblue" points="1771.81,-29.78 1768.91,-19.59 1764.82,-29.36 1771.81,-29.78"/>
</g>
<!-- Node13&#45;&gt;Node11 -->
<g id="edge15" class="edge">
<title>Node13&#45;&gt;Node11</title>
<path fill="none" stroke="midnightblue" d="M1517.6,-112.32C1500.44,-103.66 1473.85,-90.24 1454.05,-80.25"/>
<polygon fill="midnightblue" stroke="midnightblue" points="1455.45,-77.04 1444.94,-75.65 1452.29,-83.28 1455.45,-77.04"/>
</g>
<!-- Node14 -->
<g id="node14" class="node">
<title>Node14</title>
<g id="a_node14"><a xlink:title=" ">
<polygon fill="white" stroke="#bfbfbf" points="1602.79,-56.5 1602.79,-75.5 1666.79,-75.5 1666.79,-56.5 1602.79,-56.5"/>
<text text-anchor="middle" x="1634.79" y="-63.5" font-family="Helvetica,sans-Serif" font-size="10.00">algorithm</text>
</a>
</g>
</g>
<!-- Node13&#45;&gt;Node14 -->
<g id="edge14" class="edge">
<title>Node13&#45;&gt;Node14</title>
<path fill="none" stroke="midnightblue" d="M1550.86,-112.32C1566.75,-103.74 1591.3,-90.49 1609.75,-80.52"/>
<polygon fill="midnightblue" stroke="midnightblue" points="1611.63,-83.49 1618.77,-75.65 1608.3,-77.33 1611.63,-83.49"/>
</g>
<!-- Node15 -->
<g id="node15" class="node">
<title>Node15</title>
<g id="a_node15"><a xlink:title=" ">
<polygon fill="white" stroke="#bfbfbf" points="1684.79,-56.5 1684.79,-75.5 1740.79,-75.5 1740.79,-56.5 1684.79,-56.5"/>
<text text-anchor="middle" x="1712.79" y="-63.5" font-family="Helvetica,sans-Serif" font-size="10.00">sstream</text>
</a>
</g>
</g>
<!-- Node13&#45;&gt;Node15 -->
<g id="edge16" class="edge">
<title>Node13&#45;&gt;Node15</title>
<path fill="none" stroke="midnightblue" d="M1563,-112.44C1593.2,-103.28 1641.3,-88.69 1674.82,-78.52"/>
<polygon fill="midnightblue" stroke="midnightblue" points="1676.17,-81.77 1684.72,-75.52 1674.13,-75.07 1676.17,-81.77"/>
</g>
<!-- Node16 -->
<g id="node16" class="node">
<title>Node16</title>
<g id="a_node16"><a xlink:href="EigenIO_8hpp.html" target="_top" xlink:title=" ">
<polygon fill="white" stroke="black" points="1485.29,-56.5 1485.29,-75.5 1584.29,-75.5 1584.29,-56.5 1485.29,-56.5"/>
<text text-anchor="middle" x="1534.79" y="-63.5" font-family="Helvetica,sans-Serif" font-size="10.00">utils/EigenIO.hpp</text>
</a>
</g>
</g>
<!-- Node13&#45;&gt;Node16 -->
<g id="edge17" class="edge">
<title>Node13&#45;&gt;Node16</title>
<path fill="none" stroke="midnightblue" d="M1534.79,-112.08C1534.79,-105.01 1534.79,-94.86 1534.79,-85.99"/>
<polygon fill="midnightblue" stroke="midnightblue" points="1538.29,-85.75 1534.79,-75.75 1531.29,-85.75 1538.29,-85.75"/>
</g>
<!-- Node16&#45;&gt;Node2 -->
<g id="edge18" class="edge">
<title>Node16&#45;&gt;Node2</title>
<path fill="none" stroke="midnightblue" d="M1571.87,-56.44C1613.24,-46.9 1680.14,-31.46 1724.29,-21.27"/>
<polygon fill="midnightblue" stroke="midnightblue" points="1725.22,-24.65 1734.18,-18.99 1723.65,-17.83 1725.22,-24.65"/>
</g>
<!-- Node17&#45;&gt;Node3 -->
<g id="edge25" class="edge">
<title>Node17&#45;&gt;Node3</title>
<path fill="none" stroke="midnightblue" d="M1267.99,-112.44C1229.48,-102.4 1165.96,-85.83 1127.19,-75.71"/>
<polygon fill="midnightblue" stroke="midnightblue" points="1127.98,-72.3 1117.42,-73.16 1126.22,-79.08 1127.98,-72.3"/>
</g>
<!-- Node17&#45;&gt;Node5 -->
<g id="edge23" class="edge">
<title>Node17&#45;&gt;Node5</title>
<path fill="none" stroke="midnightblue" d="M1279.72,-112.44C1257.22,-103.31 1221.42,-88.77 1196.39,-78.61"/>
<polygon fill="midnightblue" stroke="midnightblue" points="1197.62,-75.33 1187.04,-74.82 1194.99,-81.82 1197.62,-75.33"/>
</g>
<!-- Node17&#45;&gt;Node11 -->
<g id="edge22" class="edge">
<title>Node17&#45;&gt;Node11</title>
<path fill="none" stroke="midnightblue" d="M1320.92,-112.44C1341.82,-103.56 1374.73,-89.56 1398.51,-79.45"/>
<polygon fill="midnightblue" stroke="midnightblue" points="1399.93,-82.65 1407.76,-75.52 1397.19,-76.21 1399.93,-82.65"/>
</g>
<!-- Node18 -->
<g id="node18" class="node">
<title>Node18</title>
<g id="a_node18"><a xlink:title=" ">
<polygon fill="white" stroke="#bfbfbf" points="1327.79,-56.5 1327.79,-75.5 1369.79,-75.5 1369.79,-56.5 1327.79,-56.5"/>
<text text-anchor="middle" x="1348.79" y="-63.5" font-family="Helvetica,sans-Serif" font-size="10.00">array</text>
</a>
</g>
</g>
<!-- Node17&#45;&gt;Node18 -->
<g id="edge20" class="edge">
<title>Node17&#45;&gt;Node18</title>
<path fill="none" stroke="midnightblue" d="M1308.72,-112.08C1315.64,-104.3 1325.86,-92.8 1334.24,-83.37"/>
<polygon fill="midnightblue" stroke="midnightblue" points="1336.99,-85.55 1341.01,-75.75 1331.75,-80.9 1336.99,-85.55"/>
</g>
<!-- Node19 -->
<g id="node19" class="node">
<title>Node19</title>
<g id="a_node19"><a xlink:title=" ">
<polygon fill="white" stroke="#bfbfbf" points="1212.29,-56.5 1212.29,-75.5 1259.29,-75.5 1259.29,-56.5 1212.29,-56.5"/>
<text text-anchor="middle" x="1235.79" y="-63.5" font-family="Helvetica,sans-Serif" font-size="10.00">deque</text>
</a>
</g>
</g>
<!-- Node17&#45;&gt;Node19 -->
<g id="edge21" class="edge">
<title>Node17&#45;&gt;Node19</title>
<path fill="none" stroke="midnightblue" d="M1290.35,-112.32C1280.65,-104.26 1265.98,-92.08 1254.29,-82.37"/>
<polygon fill="midnightblue" stroke="midnightblue" points="1256.35,-79.53 1246.43,-75.83 1251.88,-84.92 1256.35,-79.53"/>
</g>
<!-- Node20 -->
<g id="node20" class="node">
<title>Node20</title>
<g id="a_node20"><a xlink:title=" ">
<polygon fill="white" stroke="#bfbfbf" points="1277.79,-56.5 1277.79,-75.5 1309.79,-75.5 1309.79,-56.5 1277.79,-56.5"/>
<text text-anchor="middle" x="1293.79" y="-63.5" font-family="Helvetica,sans-Serif" font-size="10.00">set</text>
</a>
</g>
</g>
<!-- Node17&#45;&gt;Node20 -->
<g id="edge24" class="edge">
<title>Node17&#45;&gt;Node20</title>
<path fill="none" stroke="midnightblue" d="M1299.64,-112.08C1298.71,-104.93 1297.37,-94.64 1296.22,-85.69"/>
<polygon fill="midnightblue" stroke="midnightblue" points="1299.68,-85.22 1294.93,-75.75 1292.74,-86.12 1299.68,-85.22"/>
</g>
<!-- Node21&#45;&gt;Node8 -->
<g id="edge32" class="edge">
<title>Node21&#45;&gt;Node8</title>
<path fill="none" stroke="midnightblue" d="M795.46,-246.15C955.81,-238.96 1315.57,-220.92 1436.79,-199 1441.51,-198.15 1446.42,-197.01 1451.23,-195.74"/>
<polygon fill="midnightblue" stroke="midnightblue" points="1452.2,-199.11 1460.87,-193.02 1450.29,-192.37 1452.2,-199.11"/>
</g>
<!-- Node22 -->
<g id="node22" class="node">
<title>Node22</title>
<g id="a_node22"><a xlink:title=" ">
<polygon fill="white" stroke="#bfbfbf" points="751.79,-168.5 751.79,-198.5 861.79,-198.5 861.79,-168.5 751.79,-168.5"/>
<text text-anchor="start" x="759.79" y="-186.5" font-family="Helvetica,sans-Serif" font-size="10.00">boost/preprocessor</text>
<text text-anchor="middle" x="806.79" y="-175.5" font-family="Helvetica,sans-Serif" font-size="10.00">/control/if.hpp</text>
</a>
</g>
</g>
<!-- Node21&#45;&gt;Node22 -->
<g id="edge27" class="edge">
<title>Node21&#45;&gt;Node22</title>
<path fill="none" stroke="midnightblue" d="M728.93,-240.73C741.68,-231.53 762.16,-216.73 778.92,-204.63"/>
<polygon fill="midnightblue" stroke="midnightblue" points="781.23,-207.28 787.28,-198.59 777.13,-201.61 781.23,-207.28"/>
</g>
<!-- Node23 -->
<g id="node23" class="node">
<title>Node23</title>
<g id="a_node23"><a xlink:title=" ">
<polygon fill="white" stroke="#bfbfbf" points="622.29,-168.5 622.29,-198.5 733.29,-198.5 733.29,-168.5 622.29,-168.5"/>
<text text-anchor="start" x="630.29" y="-186.5" font-family="Helvetica,sans-Serif" font-size="10.00">boost/preprocessor</text>
<text text-anchor="middle" x="677.79" y="-175.5" font-family="Helvetica,sans-Serif" font-size="10.00">/seq/for_each_i.hpp</text>
</a>
</g>
</g>
<!-- Node21&#45;&gt;Node23 -->
<g id="edge28" class="edge">
<title>Node21&#45;&gt;Node23</title>
<path fill="none" stroke="midnightblue" d="M711.53,-240.73C706.41,-232.2 698.42,-218.87 691.49,-207.33"/>
<polygon fill="midnightblue" stroke="midnightblue" points="694.39,-205.36 686.25,-198.59 688.39,-208.96 694.39,-205.36"/>
</g>
<!-- Node24 -->
<g id="node24" class="node">
<title>Node24</title>
<g id="a_node24"><a xlink:title=" ">
<polygon fill="white" stroke="#bfbfbf" points="879.79,-168.5 879.79,-198.5 989.79,-198.5 989.79,-168.5 879.79,-168.5"/>
<text text-anchor="start" x="887.79" y="-186.5" font-family="Helvetica,sans-Serif" font-size="10.00">boost/preprocessor</text>
<text text-anchor="middle" x="934.79" y="-175.5" font-family="Helvetica,sans-Serif" font-size="10.00">/stringize.hpp</text>
</a>
</g>
</g>
<!-- Node21&#45;&gt;Node24 -->
<g id="edge29" class="edge">
<title>Node21&#45;&gt;Node24</title>
<path fill="none" stroke="midnightblue" d="M745.74,-240.87C779.37,-230.84 835.67,-214.06 878.1,-201.4"/>
<polygon fill="midnightblue" stroke="midnightblue" points="879.16,-204.74 887.74,-198.53 877.16,-198.03 879.16,-204.74"/>
</g>
<!-- Node25 -->
<g id="node25" class="node">
<title>Node25</title>
<g id="a_node25"><a xlink:title=" ">
<polygon fill="white" stroke="#bfbfbf" points="334.29,-168.5 334.29,-198.5 449.29,-198.5 449.29,-168.5 334.29,-168.5"/>
<text text-anchor="start" x="342.29" y="-186.5" font-family="Helvetica,sans-Serif" font-size="10.00">boost/preprocessor</text>
<text text-anchor="middle" x="391.79" y="-175.5" font-family="Helvetica,sans-Serif" font-size="10.00">/variadic/to_seq.hpp</text>
</a>
</g>
</g>
<!-- Node21&#45;&gt;Node25 -->
<g id="edge30" class="edge">
<title>Node21&#45;&gt;Node25</title>
<path fill="none" stroke="midnightblue" d="M671.53,-240.92C621.99,-231.47 539.95,-215.63 459.34,-199.09"/>
<polygon fill="midnightblue" stroke="midnightblue" points="460.02,-195.66 449.52,-197.07 458.61,-202.51 460.02,-195.66"/>
</g>
<!-- Node26 -->
<g id="node26" class="node">
<title>Node26</title>
<g id="a_node26"><a xlink:title=" ">
<polygon fill="white" stroke="#bfbfbf" points="467.79,-174 467.79,-193 603.79,-193 603.79,-174 467.79,-174"/>
<text text-anchor="middle" x="535.79" y="-181" font-family="Helvetica,sans-Serif" font-size="10.00">boost/vmd/is_empty.hpp</text>
</a>
</g>
</g>
<!-- Node21&#45;&gt;Node26 -->
<g id="edge31" class="edge">
<title>Node21&#45;&gt;Node26</title>
<path fill="none" stroke="midnightblue" d="M692.76,-240.87C661.03,-229.47 605,-209.35 569.17,-196.49"/>
<polygon fill="midnightblue" stroke="midnightblue" points="570.23,-193.15 559.64,-193.06 567.87,-199.74 570.23,-193.15"/>
</g>
<!-- Node27&#45;&gt;Node28 -->
<g id="edge34" class="edge">
<title>Node27&#45;&gt;Node28</title>
<path fill="none" stroke="midnightblue" d="M383.74,-240.73C363.67,-229.77 329.09,-210.88 305.6,-198.05"/>
<polygon fill="midnightblue" stroke="midnightblue" points="307.04,-194.85 296.59,-193.13 303.69,-200.99 307.04,-194.85"/>
</g>
<!-- Node28&#45;&gt;Node6 -->
<g id="edge35" class="edge">
<title>Node28&#45;&gt;Node6</title>
<path fill="none" stroke="midnightblue" d="M280.79,-173.98C280.79,-165.58 280.79,-152.48 280.79,-141.66"/>
<polygon fill="midnightblue" stroke="midnightblue" points="284.29,-141.51 280.79,-131.51 277.29,-141.51 284.29,-141.51"/>
</g>
<!-- Node28&#45;&gt;Node7 -->
<g id="edge37" class="edge">
<title>Node28&#45;&gt;Node7</title>
<path fill="none" stroke="midnightblue" d="M285.48,-193.04C294.33,-208.69 314.68,-242.48 337.79,-266 349.42,-277.83 364.43,-288.82 376.78,-296.97"/>
<polygon fill="midnightblue" stroke="midnightblue" points="374.9,-299.92 385.2,-302.38 378.68,-294.03 374.9,-299.92"/>
</g>
<!-- Node28&#45;&gt;Node10 -->
<g id="edge36" class="edge">
<title>Node28&#45;&gt;Node10</title>
<path fill="none" stroke="midnightblue" d="M303.34,-173.85C310.14,-171.58 317.69,-169.37 324.79,-168 451.36,-143.52 845.83,-128.87 982,-124.44"/>
<polygon fill="midnightblue" stroke="midnightblue" points="982.23,-127.93 992.11,-124.11 982,-120.94 982.23,-127.93"/>
</g>
<!-- Node29&#45;&gt;Node8 -->
<g id="edge43" class="edge">
<title>Node29&#45;&gt;Node8</title>
<path fill="none" stroke="midnightblue" d="M1303.32,-310.98C1442.17,-310.38 1805.6,-305.05 1841.79,-266 1851.16,-255.9 1850.82,-245.4 1841.79,-235 1831.83,-223.53 1631.19,-200.31 1535.6,-189.83"/>
<polygon fill="midnightblue" stroke="midnightblue" points="1535.91,-186.35 1525.59,-188.74 1535.15,-193.3 1535.91,-186.35"/>
</g>
<!-- Node29&#45;&gt;Node10 -->
<g id="edge42" class="edge">
<title>Node29&#45;&gt;Node10</title>
<path fill="none" stroke="midnightblue" d="M1196.1,-307.9C1136.55,-303.2 1046.04,-291.92 1024.79,-266 995.48,-230.25 1010.91,-170.88 1021.51,-141.15"/>
<polygon fill="midnightblue" stroke="midnightblue" points="1024.85,-142.22 1025.11,-131.63 1018.3,-139.75 1024.85,-142.22"/>
</g>
<!-- Node29&#45;&gt;Node21 -->
<g id="edge49" class="edge">
<title>Node29&#45;&gt;Node21</title>
<path fill="none" stroke="midnightblue" d="M1196.25,-305.02C1104.09,-294.73 914.7,-273.59 803.52,-261.18"/>
<polygon fill="midnightblue" stroke="midnightblue" points="803.67,-257.68 793.34,-260.05 802.89,-264.63 803.67,-257.68"/>
</g>
<!-- Node29&#45;&gt;Node22 -->
<g id="edge46" class="edge">
<title>Node29&#45;&gt;Node22</title>
<path fill="none" stroke="midnightblue" d="M1196.29,-308.23C1136.73,-303.91 1038.27,-293.02 957.79,-266 912.75,-250.88 865.22,-222.96 835.78,-204.06"/>
<polygon fill="midnightblue" stroke="midnightblue" points="837.54,-201.03 827.25,-198.51 833.73,-206.9 837.54,-201.03"/>
</g>
<!-- Node29&#45;&gt;Node24 -->
<g id="edge47" class="edge">
<title>Node29&#45;&gt;Node24</title>
<path fill="none" stroke="midnightblue" d="M1196.2,-306.51C1130.83,-300.2 1024.93,-287.08 991.79,-266 969.96,-252.11 954.15,-226.55 944.8,-207.74"/>
<polygon fill="midnightblue" stroke="midnightblue" points="947.93,-206.18 940.5,-198.62 941.6,-209.16 947.93,-206.18"/>
</g>
<!-- Node30 -->
<g id="node30" class="node">
<title>Node30</title>
<g id="a_node30"><a xlink:title=" ">
<polygon fill="white" stroke="#bfbfbf" points="1188.29,-241 1188.29,-260 1237.29,-260 1237.29,-241 1188.29,-241"/>
<text text-anchor="middle" x="1212.79" y="-248" font-family="Helvetica,sans-Serif" font-size="10.00">cstdlib</text>
</a>
</g>
</g>
<!-- Node29&#45;&gt;Node30 -->
<g id="edge40" class="edge">
<title>Node29&#45;&gt;Node30</title>
<path fill="none" stroke="midnightblue" d="M1244.49,-302.48C1239.05,-293.73 1230.43,-279.87 1223.56,-268.81"/>
<polygon fill="midnightblue" stroke="midnightblue" points="1226.34,-266.65 1218.08,-260.01 1220.39,-270.35 1226.34,-266.65"/>
</g>
<!-- Node31 -->
<g id="node31" class="node">
<title>Node31</title>
<g id="a_node31"><a xlink:title=" ">
<polygon fill="white" stroke="#bfbfbf" points="1255.79,-241 1255.79,-260 1315.79,-260 1315.79,-241 1255.79,-241"/>
<text text-anchor="middle" x="1285.79" y="-248" font-family="Helvetica,sans-Serif" font-size="10.00">iostream</text>
</a>
</g>
</g>
<!-- Node29&#45;&gt;Node31 -->
<g id="edge41" class="edge">
<title>Node29&#45;&gt;Node31</title>
<path fill="none" stroke="midnightblue" d="M1254.95,-302.48C1260.24,-293.73 1268.63,-279.87 1275.32,-268.81"/>
<polygon fill="midnightblue" stroke="midnightblue" points="1278.46,-270.38 1280.64,-260.01 1272.47,-266.75 1278.46,-270.38"/>
</g>
<!-- Node32 -->
<g id="node32" class="node">
<title>Node32</title>
<g id="a_node32"><a xlink:title=" ">
<polygon fill="white" stroke="#bfbfbf" points="1334.29,-241 1334.29,-260 1481.29,-260 1481.29,-241 1334.29,-241"/>
<text text-anchor="middle" x="1407.79" y="-248" font-family="Helvetica,sans-Serif" font-size="10.00">boost/current_function.hpp</text>
</a>
</g>
</g>
<!-- Node29&#45;&gt;Node32 -->
<g id="edge44" class="edge">
<title>Node29&#45;&gt;Node32</title>
<path fill="none" stroke="midnightblue" d="M1272.43,-302.48C1299.53,-292.27 1345.1,-275.11 1375.8,-263.55"/>
<polygon fill="midnightblue" stroke="midnightblue" points="1377.07,-266.81 1385.2,-260.01 1374.61,-260.26 1377.07,-266.81"/>
</g>
<!-- Node33 -->
<g id="node33" class="node">
<title>Node33</title>
<g id="a_node33"><a xlink:title=" ">
<polygon fill="white" stroke="#bfbfbf" points="1499.29,-235.5 1499.29,-265.5 1634.29,-265.5 1634.29,-235.5 1499.29,-235.5"/>
<text text-anchor="start" x="1507.29" y="-253.5" font-family="Helvetica,sans-Serif" font-size="10.00">boost/preprocessor</text>
<text text-anchor="middle" x="1566.79" y="-242.5" font-family="Helvetica,sans-Serif" font-size="10.00">/comparison/greater.hpp</text>
</a>
</g>
</g>
<!-- Node29&#45;&gt;Node33 -->
<g id="edge45" class="edge">
<title>Node29&#45;&gt;Node33</title>
<path fill="none" stroke="midnightblue" d="M1296,-302.43C1342.44,-293.8 1416.34,-280.04 1489.42,-266.26"/>
<polygon fill="midnightblue" stroke="midnightblue" points="1490.07,-269.69 1499.25,-264.4 1488.77,-262.82 1490.07,-269.69"/>
</g>
<!-- Node34 -->
<g id="node34" class="node">
<title>Node34</title>
<g id="a_node34"><a xlink:title=" ">
<polygon fill="white" stroke="#bfbfbf" points="1652.79,-235.5 1652.79,-265.5 1762.79,-265.5 1762.79,-235.5 1652.79,-235.5"/>
<text text-anchor="start" x="1660.79" y="-253.5" font-family="Helvetica,sans-Serif" font-size="10.00">boost/preprocessor</text>
<text text-anchor="middle" x="1707.79" y="-242.5" font-family="Helvetica,sans-Serif" font-size="10.00">/variadic/size.hpp</text>
</a>
</g>
</g>
<!-- Node29&#45;&gt;Node34 -->
<g id="edge48" class="edge">
<title>Node29&#45;&gt;Node34</title>
<path fill="none" stroke="midnightblue" d="M1303.59,-306.73C1377.75,-300.43 1515.74,-287.22 1642.8,-266.05"/>
<polygon fill="midnightblue" stroke="midnightblue" points="1643.43,-269.49 1652.71,-264.38 1642.27,-262.59 1643.43,-269.49"/>
</g>
<!-- Node35 -->
<g id="node35" class="node">
<title>Node35</title>
<g id="a_node35"><a xlink:href="Parallel_8hpp.html" target="_top" xlink:title=" ">
<polygon fill="white" stroke="black" points="1033.79,-241 1033.79,-260 1131.79,-260 1131.79,-241 1033.79,-241"/>
<text text-anchor="middle" x="1082.79" y="-248" font-family="Helvetica,sans-Serif" font-size="10.00">utils/Parallel.hpp</text>
</a>
</g>
</g>
<!-- Node29&#45;&gt;Node35 -->
<g id="edge50" class="edge">
<title>Node29&#45;&gt;Node35</title>
<path fill="none" stroke="midnightblue" d="M1225.87,-302.48C1197.1,-292.22 1148.64,-274.96 1116.19,-263.4"/>
<polygon fill="midnightblue" stroke="midnightblue" points="1117.27,-260.07 1106.68,-260.01 1114.92,-266.66 1117.27,-260.07"/>
</g>
<!-- Node40 -->
<g id="node40" class="node">
<title>Node40</title>
<g id="a_node40"><a xlink:href="stacktrace_8hpp.html" target="_top" xlink:title=" ">
<polygon fill="white" stroke="black" points="1889.29,-241 1889.29,-260 2002.29,-260 2002.29,-241 1889.29,-241"/>
<text text-anchor="middle" x="1945.79" y="-248" font-family="Helvetica,sans-Serif" font-size="10.00">utils/stacktrace.hpp</text>
</a>
</g>
</g>
<!-- Node29&#45;&gt;Node40 -->
<g id="edge59" class="edge">
<title>Node29&#45;&gt;Node40</title>
<path fill="none" stroke="midnightblue" d="M1303.54,-309.48C1412,-305.88 1664.63,-294.9 1874.79,-266 1882.59,-264.93 1890.82,-263.51 1898.8,-261.99"/>
<polygon fill="midnightblue" stroke="midnightblue" points="1899.61,-265.4 1908.73,-260.01 1898.24,-258.53 1899.61,-265.4"/>
</g>
<!-- Node41 -->
<g id="node41" class="node">
<title>Node41</title>
<g id="a_node41"><a xlink:title=" ">
<polygon fill="white" stroke="#bfbfbf" points="1780.79,-241 1780.79,-260 1832.79,-260 1832.79,-241 1780.79,-241"/>
<text text-anchor="middle" x="1806.79" y="-248" font-family="Helvetica,sans-Serif" font-size="10.00">cassert</text>
</a>
</g>
</g>
<!-- Node29&#45;&gt;Node41 -->
<g id="edge61" class="edge">
<title>Node29&#45;&gt;Node41</title>
<path fill="none" stroke="midnightblue" d="M1303.64,-311.74C1399.31,-311.88 1604.56,-306.81 1771.79,-266 1774.31,-265.39 1776.88,-264.62 1779.43,-263.76"/>
<polygon fill="midnightblue" stroke="midnightblue" points="1780.89,-266.95 1788.98,-260.11 1778.39,-260.41 1780.89,-266.95"/>
</g>
<!-- Node35&#45;&gt;Node3 -->
<g id="edge55" class="edge">
<title>Node35&#45;&gt;Node3</title>
<path fill="none" stroke="midnightblue" d="M1083.32,-240.7C1085.01,-212.69 1090.28,-125.21 1092.64,-86.16"/>
<polygon fill="midnightblue" stroke="midnightblue" points="1096.16,-85.91 1093.27,-75.71 1089.17,-85.49 1096.16,-85.91"/>
</g>
<!-- Node35&#45;&gt;Node6 -->
<g id="edge52" class="edge">
<title>Node35&#45;&gt;Node6</title>
<path fill="none" stroke="midnightblue" d="M1077.11,-240.82C1065.1,-223.33 1035.21,-184.11 998.79,-168 936.66,-140.52 461.48,-127.24 320.25,-123.88"/>
<polygon fill="midnightblue" stroke="midnightblue" points="319.99,-120.37 309.91,-123.64 319.82,-127.37 319.99,-120.37"/>
</g>
<!-- Node35&#45;&gt;Node9 -->
<g id="edge54" class="edge">
<title>Node35&#45;&gt;Node9</title>
<path fill="none" stroke="midnightblue" d="M1132.08,-241.67C1147.35,-239.37 1164.25,-236.95 1179.79,-235 1337.15,-215.27 1388.3,-259.75 1534.79,-199 1566.86,-185.7 1596.56,-157.55 1613.4,-139.5"/>
<polygon fill="midnightblue" stroke="midnightblue" points="1616.07,-141.76 1620.2,-132 1610.89,-137.06 1616.07,-141.76"/>
</g>
<!-- Node35&#45;&gt;Node28 -->
<g id="edge56" class="edge">
<title>Node35&#45;&gt;Node28</title>
<path fill="none" stroke="midnightblue" d="M1033.6,-246.94C876.64,-238.69 394.01,-212.49 324.79,-199 320.91,-198.24 316.89,-197.24 312.93,-196.12"/>
<polygon fill="midnightblue" stroke="midnightblue" points="313.93,-192.76 303.34,-193.14 311.85,-199.45 313.93,-192.76"/>
</g>
<!-- Node36 -->
<g id="node36" class="node">
<title>Node36</title>
<g id="a_node36"><a xlink:title=" ">
<polygon fill="white" stroke="#bfbfbf" points="1379.79,-174 1379.79,-193 1427.79,-193 1427.79,-174 1379.79,-174"/>
<text text-anchor="middle" x="1403.79" y="-181" font-family="Helvetica,sans-Serif" font-size="10.00">iosfwd</text>
</a>
</g>
</g>
<!-- Node35&#45;&gt;Node36 -->
<g id="edge51" class="edge">
<title>Node35&#45;&gt;Node36</title>
<path fill="none" stroke="midnightblue" d="M1118.02,-240.95C1127.05,-238.88 1136.76,-236.76 1145.79,-235 1245.2,-215.63 1273.64,-227.6 1370.79,-199 1372.94,-198.37 1375.13,-197.63 1377.31,-196.83"/>
<polygon fill="midnightblue" stroke="midnightblue" points="1378.69,-200.04 1386.64,-193.03 1376.05,-193.56 1378.69,-200.04"/>
</g>
<!-- Node37 -->
<g id="node37" class="node">
<title>Node37</title>
<g id="a_node37"><a xlink:title=" ">
<polygon fill="white" stroke="#bfbfbf" points="1121.79,-174 1121.79,-193 1177.79,-193 1177.79,-174 1121.79,-174"/>
<text text-anchor="middle" x="1149.79" y="-181" font-family="Helvetica,sans-Serif" font-size="10.00">optional</text>
</a>
</g>
</g>
<!-- Node35&#45;&gt;Node37 -->
<g id="edge53" class="edge">
<title>Node35&#45;&gt;Node37</title>
<path fill="none" stroke="midnightblue" d="M1091.83,-240.73C1102.48,-230.4 1120.38,-213.04 1133.47,-200.33"/>
<polygon fill="midnightblue" stroke="midnightblue" points="1136.16,-202.6 1140.9,-193.13 1131.29,-197.58 1136.16,-202.6"/>
</g>
<!-- Node38 -->
<g id="node38" class="node">
<title>Node38</title>
<g id="a_node38"><a xlink:href="types_8hpp.html" target="_top" xlink:title=" ">
<polygon fill="white" stroke="black" points="1196.29,-174 1196.29,-193 1299.29,-193 1299.29,-174 1196.29,-174"/>
<text text-anchor="middle" x="1247.79" y="-181" font-family="Helvetica,sans-Serif" font-size="10.00">precice/types.hpp</text>
</a>
</g>
</g>
<!-- Node35&#45;&gt;Node38 -->
<g id="edge57" class="edge">
<title>Node35&#45;&gt;Node38</title>
<path fill="none" stroke="midnightblue" d="M1104.7,-240.87C1133.38,-229.57 1183.83,-209.7 1216.52,-196.82"/>
<polygon fill="midnightblue" stroke="midnightblue" points="1218.03,-199.99 1226.05,-193.06 1215.47,-193.47 1218.03,-199.99"/>
</g>
<!-- Node39 -->
<g id="node39" class="node">
<title>Node39</title>
<g id="a_node39"><a xlink:title=" ">
<polygon fill="white" stroke="#bfbfbf" points="1317.79,-174 1317.79,-193 1361.79,-193 1361.79,-174 1317.79,-174"/>
<text text-anchor="middle" x="1339.79" y="-181" font-family="Helvetica,sans-Serif" font-size="10.00">mpi.h</text>
</a>
</g>
</g>
<!-- Node35&#45;&gt;Node39 -->
<g id="edge58" class="edge">
<title>Node35&#45;&gt;Node39</title>
<path fill="none" stroke="midnightblue" d="M1119.76,-240.93C1128.3,-238.97 1137.36,-236.9 1145.79,-235 1218.17,-218.68 1238.54,-222.86 1308.79,-199 1310.46,-198.44 1312.15,-197.81 1313.84,-197.14"/>
<polygon fill="midnightblue" stroke="midnightblue" points="1315.56,-200.21 1323.34,-193.02 1312.77,-193.79 1315.56,-200.21"/>
</g>
<!-- Node40&#45;&gt;Node9 -->
<g id="edge60" class="edge">
<title>Node40&#45;&gt;Node9</title>
<path fill="none" stroke="midnightblue" d="M1923.94,-240.81C1868.66,-218.82 1723.14,-160.93 1658.96,-135.4"/>
<polygon fill="midnightblue" stroke="midnightblue" points="1659.97,-132.03 1649.38,-131.59 1657.38,-138.54 1659.97,-132.03"/>
</g>
</g>
</svg>
