<?xml version="1.0" encoding="UTF-8" standalone="no"?>
<!DOCTYPE svg PUBLIC "-//W3C//DTD SVG 1.1//EN"
 "http://www.w3.org/Graphics/SVG/1.1/DTD/svg11.dtd">
<!-- Generated by graphviz version 2.43.0 (0)
 -->
<!-- Title: extras/bindings/c/src/preciceC.cpp Pages: 1 -->
<svg width="2352pt" height="397pt"
 viewBox="0.00 0.00 2351.50 397.00" xmlns="http://www.w3.org/2000/svg" xmlns:xlink="http://www.w3.org/1999/xlink">
<g id="graph0" class="graph" transform="scale(1 1) rotate(0) translate(4 393)">
<title>extras/bindings/c/src/preciceC.cpp</title>
<polygon fill="white" stroke="transparent" points="-4,4 -4,-393 2347.5,-393 2347.5,4 -4,4"/>
<!-- Node1 -->
<g id="node1" class="node">
<title>Node1</title>
<g id="a_node1"><a xlink:title=" ">
<polygon fill="#bfbfbf" stroke="black" points="483,-358.5 483,-388.5 600,-388.5 600,-358.5 483,-358.5"/>
<text text-anchor="start" x="491" y="-376.5" font-family="Helvetica,sans-Serif" font-size="10.00">extras/bindings/c/src</text>
<text text-anchor="middle" x="541.5" y="-365.5" font-family="Helvetica,sans-Serif" font-size="10.00">/preciceC.cpp</text>
</a>
</g>
</g>
<!-- Node2 -->
<g id="node2" class="node">
<title>Node2</title>
<g id="a_node2"><a xlink:href="preciceC_8h.html" target="_top" xlink:title=" ">
<polygon fill="white" stroke="black" points="41.5,-241 41.5,-260 147.5,-260 147.5,-241 41.5,-241"/>
<text text-anchor="middle" x="94.5" y="-248" font-family="Helvetica,sans-Serif" font-size="10.00">precice/preciceC.h</text>
</a>
</g>
</g>
<!-- Node1&#45;&gt;Node2 -->
<g id="edge1" class="edge">
<title>Node1&#45;&gt;Node2</title>
<path fill="none" stroke="midnightblue" d="M482.72,-369C418.19,-363.82 312.21,-351.32 225.5,-322 184.28,-308.06 140.58,-281.93 115.51,-265.7"/>
<polygon fill="midnightblue" stroke="midnightblue" points="117.14,-262.58 106.86,-260.01 113.29,-268.43 117.14,-262.58"/>
</g>
<!-- Node5 -->
<g id="node5" class="node">
<title>Node5</title>
<g id="a_node5"><a xlink:title=" ">
<polygon fill="white" stroke="#bfbfbf" points="447.5,-112.5 447.5,-131.5 505.5,-131.5 505.5,-112.5 447.5,-112.5"/>
<text text-anchor="middle" x="476.5" y="-119.5" font-family="Helvetica,sans-Serif" font-size="10.00">memory</text>
</a>
</g>
</g>
<!-- Node1&#45;&gt;Node5 -->
<g id="edge4" class="edge">
<title>Node1&#45;&gt;Node5</title>
<path fill="none" stroke="midnightblue" d="M525.66,-358.24C496.65,-330.85 436.18,-267.51 416.5,-199 412.7,-185.76 410.34,-180.32 416.5,-168 423.23,-154.54 436.11,-144.07 448.21,-136.62"/>
<polygon fill="midnightblue" stroke="midnightblue" points="450.23,-139.5 457.2,-131.52 446.78,-133.41 450.23,-139.5"/>
</g>
<!-- Node6 -->
<g id="node6" class="node">
<title>Node6</title>
<g id="a_node6"><a xlink:title=" ">
<polygon fill="white" stroke="#bfbfbf" points="1728.5,-112.5 1728.5,-131.5 1772.5,-131.5 1772.5,-112.5 1728.5,-112.5"/>
<text text-anchor="middle" x="1750.5" y="-119.5" font-family="Helvetica,sans-Serif" font-size="10.00">string</text>
</a>
</g>
</g>
<!-- Node1&#45;&gt;Node6 -->
<g id="edge5" class="edge">
<title>Node1&#45;&gt;Node6</title>
<path fill="none" stroke="midnightblue" d="M600.08,-370.87C883.45,-362.7 2100.71,-324.3 2154.5,-266 2264.11,-147.21 1896.76,-127.05 1783.01,-123.67"/>
<polygon fill="midnightblue" stroke="midnightblue" points="1782.91,-120.17 1772.82,-123.39 1782.72,-127.17 1782.91,-120.17"/>
</g>
<!-- Node7 -->
<g id="node7" class="node">
<title>Node7</title>
<g id="a_node7"><a xlink:href="LogMacros_8hpp.html" target="_top" xlink:title=" ">
<polygon fill="white" stroke="black" points="558,-302.5 558,-321.5 687,-321.5 687,-302.5 558,-302.5"/>
<text text-anchor="middle" x="622.5" y="-309.5" font-family="Helvetica,sans-Serif" font-size="10.00">logging/LogMacros.hpp</text>
</a>
</g>
</g>
<!-- Node1&#45;&gt;Node7 -->
<g id="edge6" class="edge">
<title>Node1&#45;&gt;Node7</title>
<path fill="none" stroke="midnightblue" d="M560.7,-358.4C573.32,-349.13 589.79,-337.03 602.56,-327.65"/>
<polygon fill="midnightblue" stroke="midnightblue" points="604.73,-330.4 610.71,-321.66 600.58,-324.76 604.73,-330.4"/>
</g>
<!-- Node30 -->
<g id="node29" class="node">
<title>Node30</title>
<g id="a_node29"><a xlink:href="Logger_8hpp.html" target="_top" xlink:title=" ">
<polygon fill="white" stroke="black" points="425.5,-174 425.5,-193 495.5,-193 495.5,-174 425.5,-174"/>
<text text-anchor="middle" x="460.5" y="-181" font-family="Helvetica,sans-Serif" font-size="10.00">Logger.hpp</text>
</a>
</g>
</g>
<!-- Node1&#45;&gt;Node30 -->
<g id="edge37" class="edge">
<title>Node1&#45;&gt;Node30</title>
<path fill="none" stroke="midnightblue" d="M531.43,-358.39C517.77,-338.63 493.48,-301.19 479.5,-266 471.31,-245.38 466.13,-220.35 463.28,-203.51"/>
<polygon fill="midnightblue" stroke="midnightblue" points="466.69,-202.66 461.68,-193.32 459.77,-203.75 466.69,-202.66"/>
</g>
<!-- Node31 -->
<g id="node30" class="node">
<title>Node31</title>
<g id="a_node30"><a xlink:title=" ">
<polygon fill="white" stroke="#bfbfbf" points="2201.5,-302.5 2201.5,-321.5 2343.5,-321.5 2343.5,-302.5 2201.5,-302.5"/>
<text text-anchor="middle" x="2272.5" y="-309.5" font-family="Helvetica,sans-Serif" font-size="10.00">precice/impl/versions.hpp</text>
</a>
</g>
</g>
<!-- Node1&#45;&gt;Node31 -->
<g id="edge38" class="edge">
<title>Node1&#45;&gt;Node31</title>
<path fill="none" stroke="midnightblue" d="M600.26,-372.29C813.62,-371.17 1567.47,-364.28 2187.5,-322 2188.61,-321.92 2189.73,-321.85 2190.85,-321.76"/>
<polygon fill="midnightblue" stroke="midnightblue" points="2191.42,-325.23 2201.11,-320.95 2190.87,-318.25 2191.42,-325.23"/>
</g>
<!-- Node32 -->
<g id="node31" class="node">
<title>Node32</title>
<g id="a_node31"><a xlink:href="precice_8hpp.html" target="_top" xlink:title=" ">
<polygon fill="white" stroke="black" points="235,-302.5 235,-321.5 346,-321.5 346,-302.5 235,-302.5"/>
<text text-anchor="middle" x="290.5" y="-309.5" font-family="Helvetica,sans-Serif" font-size="10.00">precice/precice.hpp</text>
</a>
</g>
</g>
<!-- Node1&#45;&gt;Node32 -->
<g id="edge39" class="edge">
<title>Node1&#45;&gt;Node32</title>
<path fill="none" stroke="midnightblue" d="M482.97,-358.62C438.27,-348.03 377.54,-333.63 336.34,-323.87"/>
<polygon fill="midnightblue" stroke="midnightblue" points="337.11,-320.45 326.57,-321.55 335.49,-327.26 337.11,-320.45"/>
</g>
<!-- Node40 -->
<g id="node39" class="node">
<title>Node40</title>
<g id="a_node39"><a xlink:href="assertion_8hpp.html" target="_top" xlink:title=" ">
<polygon fill="white" stroke="black" points="1343,-302.5 1343,-321.5 1450,-321.5 1450,-302.5 1343,-302.5"/>
<text text-anchor="middle" x="1396.5" y="-309.5" font-family="Helvetica,sans-Serif" font-size="10.00">utils/assertion.hpp</text>
</a>
</g>
</g>
<!-- Node1&#45;&gt;Node40 -->
<g id="edge53" class="edge">
<title>Node1&#45;&gt;Node40</title>
<path fill="none" stroke="midnightblue" d="M600.27,-368.41C754.95,-357.65 1172.48,-328.59 1332.7,-317.44"/>
<polygon fill="midnightblue" stroke="midnightblue" points="1333.15,-320.92 1342.88,-316.73 1332.66,-313.93 1333.15,-320.92"/>
</g>
<!-- Node3 -->
<g id="node3" class="node">
<title>Node3</title>
<g id="a_node3"><a xlink:title=" ">
<polygon fill="white" stroke="#bfbfbf" points="113.5,-174 113.5,-193 213.5,-193 213.5,-174 113.5,-174"/>
<text text-anchor="middle" x="163.5" y="-181" font-family="Helvetica,sans-Serif" font-size="10.00">precice/Version.h</text>
</a>
</g>
</g>
<!-- Node2&#45;&gt;Node3 -->
<g id="edge2" class="edge">
<title>Node2&#45;&gt;Node3</title>
<path fill="none" stroke="midnightblue" d="M103.81,-240.73C114.77,-230.4 133.21,-213.04 146.69,-200.33"/>
<polygon fill="midnightblue" stroke="midnightblue" points="149.46,-202.53 154.34,-193.13 144.66,-197.44 149.46,-202.53"/>
</g>
<!-- Node4 -->
<g id="node4" class="node">
<title>Node4</title>
<g id="a_node4"><a xlink:title=" ">
<polygon fill="white" stroke="#bfbfbf" points="0,-174 0,-193 95,-193 95,-174 0,-174"/>
<text text-anchor="middle" x="47.5" y="-181" font-family="Helvetica,sans-Serif" font-size="10.00">precice/export.h</text>
</a>
</g>
</g>
<!-- Node2&#45;&gt;Node4 -->
<g id="edge3" class="edge">
<title>Node2&#45;&gt;Node4</title>
<path fill="none" stroke="midnightblue" d="M88.16,-240.73C80.9,-230.7 68.84,-214.01 59.74,-201.42"/>
<polygon fill="midnightblue" stroke="midnightblue" points="62.43,-199.18 53.74,-193.13 56.76,-203.28 62.43,-199.18"/>
</g>
<!-- Node8 -->
<g id="node8" class="node">
<title>Node8</title>
<g id="a_node8"><a xlink:href="fmt_8hpp.html" target="_top" xlink:title=" ">
<polygon fill="white" stroke="black" points="1384,-174 1384,-193 1463,-193 1463,-174 1384,-174"/>
<text text-anchor="middle" x="1423.5" y="-181" font-family="Helvetica,sans-Serif" font-size="10.00">utils/fmt.hpp</text>
</a>
</g>
</g>
<!-- Node7&#45;&gt;Node8 -->
<g id="edge7" class="edge">
<title>Node7&#45;&gt;Node8</title>
<path fill="none" stroke="midnightblue" d="M687.17,-309.95C772.51,-307.27 926.86,-297.99 1054.5,-266 1089.89,-257.13 1095.43,-245.05 1130.5,-235 1214.06,-211.06 1314.46,-196.77 1373.4,-189.79"/>
<polygon fill="midnightblue" stroke="midnightblue" points="1374.02,-193.24 1383.55,-188.61 1373.22,-186.28 1374.02,-193.24"/>
</g>
<!-- Node23 -->
<g id="node22" class="node">
<title>Node23</title>
<g id="a_node22"><a xlink:href="ArgumentFormatter_8hpp.html" target="_top" xlink:title=" ">
<polygon fill="white" stroke="black" points="888,-241 888,-260 1045,-260 1045,-241 888,-241"/>
<text text-anchor="middle" x="966.5" y="-248" font-family="Helvetica,sans-Serif" font-size="10.00">utils/ArgumentFormatter.hpp</text>
</a>
</g>
</g>
<!-- Node7&#45;&gt;Node23 -->
<g id="edge25" class="edge">
<title>Node7&#45;&gt;Node23</title>
<path fill="none" stroke="midnightblue" d="M671.79,-302.48C733.99,-291.72 840.87,-273.23 907.39,-261.72"/>
<polygon fill="midnightblue" stroke="midnightblue" points="908.05,-265.16 917.3,-260.01 906.85,-258.26 908.05,-265.16"/>
</g>
<!-- Node29 -->
<g id="node28" class="node">
<title>Node29</title>
<g id="a_node28"><a xlink:href="Tracer_8hpp.html" target="_top" xlink:title=" ">
<polygon fill="white" stroke="black" points="489,-241 489,-260 594,-260 594,-241 489,-241"/>
<text text-anchor="middle" x="541.5" y="-248" font-family="Helvetica,sans-Serif" font-size="10.00">logging/Tracer.hpp</text>
</a>
</g>
</g>
<!-- Node7&#45;&gt;Node29 -->
<g id="edge32" class="edge">
<title>Node7&#45;&gt;Node29</title>
<path fill="none" stroke="midnightblue" d="M610.89,-302.48C598.02,-293.02 577.03,-277.6 561.49,-266.19"/>
<polygon fill="midnightblue" stroke="midnightblue" points="563.22,-263.11 553.08,-260.01 559.07,-268.75 563.22,-263.11"/>
</g>
<!-- Node8&#45;&gt;Node6 -->
<g id="edge8" class="edge">
<title>Node8&#45;&gt;Node6</title>
<path fill="none" stroke="midnightblue" d="M1463.27,-175.26C1528.78,-163.34 1658.11,-139.81 1718.29,-128.86"/>
<polygon fill="midnightblue" stroke="midnightblue" points="1719.15,-132.26 1728.36,-127.03 1717.89,-125.38 1719.15,-132.26"/>
</g>
<!-- Node9 -->
<g id="node9" class="node">
<title>Node9</title>
<g id="a_node9"><a xlink:title=" ">
<polygon fill="white" stroke="#bfbfbf" points="1134,-112.5 1134,-131.5 1207,-131.5 1207,-112.5 1134,-112.5"/>
<text text-anchor="middle" x="1170.5" y="-119.5" font-family="Helvetica,sans-Serif" font-size="10.00">string_view</text>
</a>
</g>
</g>
<!-- Node8&#45;&gt;Node9 -->
<g id="edge9" class="edge">
<title>Node8&#45;&gt;Node9</title>
<path fill="none" stroke="midnightblue" d="M1392.43,-173.93C1384.94,-171.93 1376.94,-169.84 1369.5,-168 1317.51,-155.15 1257.52,-141.78 1217.12,-132.99"/>
<polygon fill="midnightblue" stroke="midnightblue" points="1217.8,-129.56 1207.28,-130.86 1216.31,-136.4 1217.8,-129.56"/>
</g>
<!-- Node10 -->
<g id="node10" class="node">
<title>Node10</title>
<g id="a_node10"><a xlink:title=" ">
<polygon fill="white" stroke="#bfbfbf" points="1376,-56.5 1376,-75.5 1455,-75.5 1455,-56.5 1376,-56.5"/>
<text text-anchor="middle" x="1415.5" y="-63.5" font-family="Helvetica,sans-Serif" font-size="10.00">fmt/format.h</text>
</a>
</g>
</g>
<!-- Node8&#45;&gt;Node10 -->
<g id="edge10" class="edge">
<title>Node8&#45;&gt;Node10</title>
<path fill="none" stroke="midnightblue" d="M1426.85,-173.77C1431.53,-160.41 1438.97,-134.1 1434.5,-112 1432.61,-102.65 1428.71,-92.83 1424.93,-84.75"/>
<polygon fill="midnightblue" stroke="midnightblue" points="1427.97,-83.01 1420.38,-75.63 1421.71,-86.14 1427.97,-83.01"/>
</g>
<!-- Node11 -->
<g id="node11" class="node">
<title>Node11</title>
<g id="a_node11"><a xlink:title=" ">
<polygon fill="white" stroke="#bfbfbf" points="1339.5,-112.5 1339.5,-131.5 1425.5,-131.5 1425.5,-112.5 1339.5,-112.5"/>
<text text-anchor="middle" x="1382.5" y="-119.5" font-family="Helvetica,sans-Serif" font-size="10.00">fmt/ostream.h</text>
</a>
</g>
</g>
<!-- Node8&#45;&gt;Node11 -->
<g id="edge11" class="edge">
<title>Node8&#45;&gt;Node11</title>
<path fill="none" stroke="midnightblue" d="M1417.63,-173.98C1411.54,-165.14 1401.86,-151.09 1394.2,-139.98"/>
<polygon fill="midnightblue" stroke="midnightblue" points="1396.92,-137.76 1388.36,-131.51 1391.16,-141.73 1396.92,-137.76"/>
</g>
<!-- Node12 -->
<g id="node12" class="node">
<title>Node12</title>
<g id="a_node12"><a xlink:href="fmtEigen_8hpp.html" target="_top" xlink:title=" ">
<polygon fill="white" stroke="black" points="1525.5,-112.5 1525.5,-131.5 1631.5,-131.5 1631.5,-112.5 1525.5,-112.5"/>
<text text-anchor="middle" x="1578.5" y="-119.5" font-family="Helvetica,sans-Serif" font-size="10.00">utils/fmtEigen.hpp</text>
</a>
</g>
</g>
<!-- Node8&#45;&gt;Node12 -->
<g id="edge12" class="edge">
<title>Node8&#45;&gt;Node12</title>
<path fill="none" stroke="midnightblue" d="M1445.71,-173.98C1472.18,-163.81 1516.61,-146.76 1546.72,-135.2"/>
<polygon fill="midnightblue" stroke="midnightblue" points="1548.25,-138.36 1556.33,-131.51 1545.74,-131.83 1548.25,-138.36"/>
</g>
<!-- Node17 -->
<g id="node17" class="node">
<title>Node17</title>
<g id="a_node17"><a xlink:href="fmtSTL_8hpp.html" target="_top" xlink:title=" ">
<polygon fill="white" stroke="red" points="1225.5,-112.5 1225.5,-131.5 1321.5,-131.5 1321.5,-112.5 1225.5,-112.5"/>
<text text-anchor="middle" x="1273.5" y="-119.5" font-family="Helvetica,sans-Serif" font-size="10.00">utils/fmtSTL.hpp</text>
</a>
</g>
</g>
<!-- Node8&#45;&gt;Node17 -->
<g id="edge19" class="edge">
<title>Node8&#45;&gt;Node17</title>
<path fill="none" stroke="midnightblue" d="M1402.01,-173.98C1376.39,-163.81 1333.39,-146.76 1304.26,-135.2"/>
<polygon fill="midnightblue" stroke="midnightblue" points="1305.54,-131.94 1294.95,-131.51 1302.96,-138.45 1305.54,-131.94"/>
</g>
<!-- Node12&#45;&gt;Node10 -->
<g id="edge15" class="edge">
<title>Node12&#45;&gt;Node10</title>
<path fill="none" stroke="midnightblue" d="M1552.67,-112.44C1525.25,-103.36 1481.72,-88.94 1451.07,-78.78"/>
<polygon fill="midnightblue" stroke="midnightblue" points="1451.8,-75.34 1441.21,-75.52 1449.6,-81.98 1451.8,-75.34"/>
</g>
<!-- Node13 -->
<g id="node13" class="node">
<title>Node13</title>
<g id="a_node13"><a xlink:title=" ">
<polygon fill="white" stroke="#bfbfbf" points="1644,-0.5 1644,-19.5 1713,-19.5 1713,-0.5 1644,-0.5"/>
<text text-anchor="middle" x="1678.5" y="-7.5" font-family="Helvetica,sans-Serif" font-size="10.00">Eigen/Core</text>
</a>
</g>
</g>
<!-- Node12&#45;&gt;Node13 -->
<g id="edge13" class="edge">
<title>Node12&#45;&gt;Node13</title>
<path fill="none" stroke="midnightblue" d="M1586.61,-112.43C1595.11,-103.41 1608.83,-88.79 1620.5,-76 1635.39,-59.69 1652.16,-40.84 1663.83,-27.65"/>
<polygon fill="midnightblue" stroke="midnightblue" points="1666.69,-29.7 1670.68,-19.89 1661.44,-25.07 1666.69,-29.7"/>
</g>
<!-- Node14 -->
<g id="node14" class="node">
<title>Node14</title>
<g id="a_node14"><a xlink:title=" ">
<polygon fill="white" stroke="#bfbfbf" points="1473.5,-56.5 1473.5,-75.5 1537.5,-75.5 1537.5,-56.5 1473.5,-56.5"/>
<text text-anchor="middle" x="1505.5" y="-63.5" font-family="Helvetica,sans-Serif" font-size="10.00">algorithm</text>
</a>
</g>
</g>
<!-- Node12&#45;&gt;Node14 -->
<g id="edge14" class="edge">
<title>Node12&#45;&gt;Node14</title>
<path fill="none" stroke="midnightblue" d="M1566.77,-112.32C1555.66,-104.11 1538.76,-91.6 1525.52,-81.81"/>
<polygon fill="midnightblue" stroke="midnightblue" points="1527.56,-78.97 1517.44,-75.83 1523.4,-84.59 1527.56,-78.97"/>
</g>
<!-- Node15 -->
<g id="node15" class="node">
<title>Node15</title>
<g id="a_node15"><a xlink:title=" ">
<polygon fill="white" stroke="#bfbfbf" points="1555.5,-56.5 1555.5,-75.5 1611.5,-75.5 1611.5,-56.5 1555.5,-56.5"/>
<text text-anchor="middle" x="1583.5" y="-63.5" font-family="Helvetica,sans-Serif" font-size="10.00">sstream</text>
</a>
</g>
</g>
<!-- Node12&#45;&gt;Node15 -->
<g id="edge16" class="edge">
<title>Node12&#45;&gt;Node15</title>
<path fill="none" stroke="midnightblue" d="M1579.33,-112.08C1579.98,-105.01 1580.92,-94.86 1581.74,-85.99"/>
<polygon fill="midnightblue" stroke="midnightblue" points="1585.25,-86.03 1582.69,-75.75 1578.28,-85.39 1585.25,-86.03"/>
</g>
<!-- Node16 -->
<g id="node16" class="node">
<title>Node16</title>
<g id="a_node16"><a xlink:href="EigenIO_8hpp.html" target="_top" xlink:title=" ">
<polygon fill="white" stroke="black" points="1668,-56.5 1668,-75.5 1767,-75.5 1767,-56.5 1668,-56.5"/>
<text text-anchor="middle" x="1717.5" y="-63.5" font-family="Helvetica,sans-Serif" font-size="10.00">utils/EigenIO.hpp</text>
</a>
</g>
</g>
<!-- Node12&#45;&gt;Node16 -->
<g id="edge17" class="edge">
<title>Node12&#45;&gt;Node16</title>
<path fill="none" stroke="midnightblue" d="M1600.52,-112.44C1623.6,-103.48 1660.06,-89.31 1686.14,-79.18"/>
<polygon fill="midnightblue" stroke="midnightblue" points="1687.52,-82.4 1695.58,-75.52 1684.99,-75.88 1687.52,-82.4"/>
</g>
<!-- Node16&#45;&gt;Node13 -->
<g id="edge18" class="edge">
<title>Node16&#45;&gt;Node13</title>
<path fill="none" stroke="midnightblue" d="M1711.06,-56.08C1705.55,-48.46 1697.47,-37.26 1690.74,-27.94"/>
<polygon fill="midnightblue" stroke="midnightblue" points="1693.51,-25.81 1684.82,-19.75 1687.84,-29.91 1693.51,-25.81"/>
</g>
<!-- Node17&#45;&gt;Node10 -->
<g id="edge22" class="edge">
<title>Node17&#45;&gt;Node10</title>
<path fill="none" stroke="midnightblue" d="M1296,-112.44C1319.58,-103.48 1356.82,-89.31 1383.46,-79.18"/>
<polygon fill="midnightblue" stroke="midnightblue" points="1385,-82.34 1393.1,-75.52 1382.51,-75.8 1385,-82.34"/>
</g>
<!-- Node18 -->
<g id="node18" class="node">
<title>Node18</title>
<g id="a_node18"><a xlink:title=" ">
<polygon fill="white" stroke="#bfbfbf" points="667.5,-56.5 667.5,-75.5 709.5,-75.5 709.5,-56.5 667.5,-56.5"/>
<text text-anchor="middle" x="688.5" y="-63.5" font-family="Helvetica,sans-Serif" font-size="10.00">array</text>
</a>
</g>
</g>
<!-- Node17&#45;&gt;Node18 -->
<g id="edge20" class="edge">
<title>Node17&#45;&gt;Node18</title>
<path fill="none" stroke="midnightblue" d="M1225.33,-113.15C1222.35,-112.74 1219.38,-112.35 1216.5,-112 1028.58,-89.19 801.64,-73.97 719.81,-68.88"/>
<polygon fill="midnightblue" stroke="midnightblue" points="719.88,-65.38 709.68,-68.26 719.45,-72.37 719.88,-65.38"/>
</g>
<!-- Node19 -->
<g id="node19" class="node">
<title>Node19</title>
<g id="a_node19"><a xlink:title=" ">
<polygon fill="white" stroke="#bfbfbf" points="1189,-56.5 1189,-75.5 1236,-75.5 1236,-56.5 1189,-56.5"/>
<text text-anchor="middle" x="1212.5" y="-63.5" font-family="Helvetica,sans-Serif" font-size="10.00">deque</text>
</a>
</g>
</g>
<!-- Node17&#45;&gt;Node19 -->
<g id="edge21" class="edge">
<title>Node17&#45;&gt;Node19</title>
<path fill="none" stroke="midnightblue" d="M1263.7,-112.32C1254.68,-104.34 1241.09,-92.31 1230.18,-82.65"/>
<polygon fill="midnightblue" stroke="midnightblue" points="1232.29,-79.84 1222.48,-75.83 1227.65,-85.08 1232.29,-79.84"/>
</g>
<!-- Node20 -->
<g id="node20" class="node">
<title>Node20</title>
<g id="a_node20"><a xlink:title=" ">
<polygon fill="white" stroke="#bfbfbf" points="1254.5,-56.5 1254.5,-75.5 1292.5,-75.5 1292.5,-56.5 1254.5,-56.5"/>
<text text-anchor="middle" x="1273.5" y="-63.5" font-family="Helvetica,sans-Serif" font-size="10.00">map</text>
</a>
</g>
</g>
<!-- Node17&#45;&gt;Node20 -->
<g id="edge23" class="edge">
<title>Node17&#45;&gt;Node20</title>
<path fill="none" stroke="midnightblue" d="M1273.5,-112.08C1273.5,-105.01 1273.5,-94.86 1273.5,-85.99"/>
<polygon fill="midnightblue" stroke="midnightblue" points="1277,-85.75 1273.5,-75.75 1270,-85.75 1277,-85.75"/>
</g>
<!-- Node22 -->
<g id="node21" class="node">
<title>Node22</title>
<g id="a_node21"><a xlink:title=" ">
<polygon fill="white" stroke="#bfbfbf" points="1311,-56.5 1311,-75.5 1358,-75.5 1358,-56.5 1311,-56.5"/>
<text text-anchor="middle" x="1334.5" y="-63.5" font-family="Helvetica,sans-Serif" font-size="10.00">vector</text>
</a>
</g>
</g>
<!-- Node17&#45;&gt;Node22 -->
<g id="edge24" class="edge">
<title>Node17&#45;&gt;Node22</title>
<path fill="none" stroke="midnightblue" d="M1283.3,-112.32C1292.32,-104.34 1305.91,-92.31 1316.82,-82.65"/>
<polygon fill="midnightblue" stroke="midnightblue" points="1319.35,-85.08 1324.52,-75.83 1314.71,-79.84 1319.35,-85.08"/>
</g>
<!-- Node23&#45;&gt;Node8 -->
<g id="edge31" class="edge">
<title>Node23&#45;&gt;Node8</title>
<path fill="none" stroke="midnightblue" d="M1020.08,-240.99C1032.98,-238.98 1046.73,-236.88 1059.5,-235 1171.62,-218.48 1303.4,-200.57 1373.57,-191.16"/>
<polygon fill="midnightblue" stroke="midnightblue" points="1374.43,-194.57 1383.88,-189.77 1373.5,-187.63 1374.43,-194.57"/>
</g>
<!-- Node24 -->
<g id="node23" class="node">
<title>Node24</title>
<g id="a_node23"><a xlink:title=" ">
<polygon fill="white" stroke="#bfbfbf" points="1051.5,-168.5 1051.5,-198.5 1161.5,-198.5 1161.5,-168.5 1051.5,-168.5"/>
<text text-anchor="start" x="1059.5" y="-186.5" font-family="Helvetica,sans-Serif" font-size="10.00">boost/preprocessor</text>
<text text-anchor="middle" x="1106.5" y="-175.5" font-family="Helvetica,sans-Serif" font-size="10.00">/control/if.hpp</text>
</a>
</g>
</g>
<!-- Node23&#45;&gt;Node24 -->
<g id="edge26" class="edge">
<title>Node23&#45;&gt;Node24</title>
<path fill="none" stroke="midnightblue" d="M985.09,-240.87C1005.92,-231.2 1040.27,-215.25 1067.13,-202.78"/>
<polygon fill="midnightblue" stroke="midnightblue" points="1068.69,-205.91 1076.29,-198.53 1065.74,-199.56 1068.69,-205.91"/>
</g>
<!-- Node25 -->
<g id="node24" class="node">
<title>Node25</title>
<g id="a_node24"><a xlink:title=" ">
<polygon fill="white" stroke="#bfbfbf" points="789,-168.5 789,-198.5 900,-198.5 900,-168.5 789,-168.5"/>
<text text-anchor="start" x="797" y="-186.5" font-family="Helvetica,sans-Serif" font-size="10.00">boost/preprocessor</text>
<text text-anchor="middle" x="844.5" y="-175.5" font-family="Helvetica,sans-Serif" font-size="10.00">/seq/for_each_i.hpp</text>
</a>
</g>
</g>
<!-- Node23&#45;&gt;Node25 -->
<g id="edge27" class="edge">
<title>Node23&#45;&gt;Node25</title>
<path fill="none" stroke="midnightblue" d="M950.3,-240.87C932.45,-231.36 903.18,-215.77 879.95,-203.39"/>
<polygon fill="midnightblue" stroke="midnightblue" points="881.53,-200.26 871.06,-198.65 878.24,-206.44 881.53,-200.26"/>
</g>
<!-- Node26 -->
<g id="node25" class="node">
<title>Node26</title>
<g id="a_node25"><a xlink:title=" ">
<polygon fill="white" stroke="#bfbfbf" points="1179.5,-168.5 1179.5,-198.5 1289.5,-198.5 1289.5,-168.5 1179.5,-168.5"/>
<text text-anchor="start" x="1187.5" y="-186.5" font-family="Helvetica,sans-Serif" font-size="10.00">boost/preprocessor</text>
<text text-anchor="middle" x="1234.5" y="-175.5" font-family="Helvetica,sans-Serif" font-size="10.00">/stringize.hpp</text>
</a>
</g>
</g>
<!-- Node23&#45;&gt;Node26 -->
<g id="edge28" class="edge">
<title>Node23&#45;&gt;Node26</title>
<path fill="none" stroke="midnightblue" d="M1001.81,-240.94C1044.34,-230.62 1116.63,-213.09 1169.37,-200.3"/>
<polygon fill="midnightblue" stroke="midnightblue" points="1170.42,-203.64 1179.31,-197.88 1168.77,-196.84 1170.42,-203.64"/>
</g>
<!-- Node27 -->
<g id="node26" class="node">
<title>Node27</title>
<g id="a_node26"><a xlink:title=" ">
<polygon fill="white" stroke="#bfbfbf" points="918,-168.5 918,-198.5 1033,-198.5 1033,-168.5 918,-168.5"/>
<text text-anchor="start" x="926" y="-186.5" font-family="Helvetica,sans-Serif" font-size="10.00">boost/preprocessor</text>
<text text-anchor="middle" x="975.5" y="-175.5" font-family="Helvetica,sans-Serif" font-size="10.00">/variadic/to_seq.hpp</text>
</a>
</g>
</g>
<!-- Node23&#45;&gt;Node27 -->
<g id="edge29" class="edge">
<title>Node23&#45;&gt;Node27</title>
<path fill="none" stroke="midnightblue" d="M967.71,-240.73C968.85,-232.54 970.6,-219.92 972.15,-208.71"/>
<polygon fill="midnightblue" stroke="midnightblue" points="975.64,-208.97 973.55,-198.59 968.71,-208.01 975.64,-208.97"/>
</g>
<!-- Node28 -->
<g id="node27" class="node">
<title>Node28</title>
<g id="a_node27"><a xlink:title=" ">
<polygon fill="white" stroke="#bfbfbf" points="513.5,-174 513.5,-193 649.5,-193 649.5,-174 513.5,-174"/>
<text text-anchor="middle" x="581.5" y="-181" font-family="Helvetica,sans-Serif" font-size="10.00">boost/vmd/is_empty.hpp</text>
</a>
</g>
</g>
<!-- Node23&#45;&gt;Node28 -->
<g id="edge30" class="edge">
<title>Node23&#45;&gt;Node28</title>
<path fill="none" stroke="midnightblue" d="M912.65,-240.99C851.3,-231.21 748.09,-214.52 659.5,-199 652.05,-197.69 644.2,-196.28 636.48,-194.87"/>
<polygon fill="midnightblue" stroke="midnightblue" points="636.9,-191.39 626.43,-193.02 635.63,-198.27 636.9,-191.39"/>
</g>
<!-- Node29&#45;&gt;Node30 -->
<g id="edge33" class="edge">
<title>Node29&#45;&gt;Node30</title>
<path fill="none" stroke="midnightblue" d="M530.58,-240.73C517.46,-230.21 495.24,-212.38 479.34,-199.62"/>
<polygon fill="midnightblue" stroke="midnightblue" points="481.24,-196.66 471.25,-193.13 476.86,-202.12 481.24,-196.66"/>
</g>
<!-- Node30&#45;&gt;Node5 -->
<g id="edge34" class="edge">
<title>Node30&#45;&gt;Node5</title>
<path fill="none" stroke="midnightblue" d="M462.79,-173.98C465.07,-165.49 468.65,-152.2 471.57,-141.32"/>
<polygon fill="midnightblue" stroke="midnightblue" points="474.99,-142.07 474.21,-131.51 468.24,-140.26 474.99,-142.07"/>
</g>
<!-- Node30&#45;&gt;Node7 -->
<g id="edge36" class="edge">
<title>Node30&#45;&gt;Node7</title>
<path fill="none" stroke="midnightblue" d="M485.61,-193.03C526.08,-206.83 601.43,-232.72 603.5,-235 617.63,-250.53 621.63,-274.97 622.57,-291.92"/>
<polygon fill="midnightblue" stroke="midnightblue" points="619.08,-292.35 622.83,-302.26 626.08,-292.18 619.08,-292.35"/>
</g>
<!-- Node30&#45;&gt;Node9 -->
<g id="edge35" class="edge">
<title>Node30&#45;&gt;Node9</title>
<path fill="none" stroke="midnightblue" d="M483.05,-173.87C489.85,-171.59 497.4,-169.39 504.5,-168 623.41,-144.77 992.35,-129.47 1123.58,-124.64"/>
<polygon fill="midnightblue" stroke="midnightblue" points="1123.84,-128.13 1133.71,-124.27 1123.59,-121.14 1123.84,-128.13"/>
</g>
<!-- Node32&#45;&gt;Node3 -->
<g id="edge51" class="edge">
<title>Node32&#45;&gt;Node3</title>
<path fill="none" stroke="midnightblue" d="M257.3,-302.4C236.79,-295.56 211.28,-284.08 194.5,-266 178.13,-248.35 170.14,-221.19 166.43,-203.14"/>
<polygon fill="midnightblue" stroke="midnightblue" points="169.86,-202.46 164.64,-193.24 162.97,-203.7 169.86,-202.46"/>
</g>
<!-- Node33 -->
<g id="node32" class="node">
<title>Node33</title>
<g id="a_node32"><a xlink:href="Participant_8hpp.html" target="_top" xlink:title=" ">
<polygon fill="white" stroke="black" points="203.5,-241 203.5,-260 331.5,-260 331.5,-241 203.5,-241"/>
<text text-anchor="middle" x="267.5" y="-248" font-family="Helvetica,sans-Serif" font-size="10.00">precice/Participant.hpp</text>
</a>
</g>
</g>
<!-- Node32&#45;&gt;Node33 -->
<g id="edge40" class="edge">
<title>Node32&#45;&gt;Node33</title>
<path fill="none" stroke="midnightblue" d="M287.2,-302.48C283.89,-293.9 278.68,-280.43 274.45,-269.48"/>
<polygon fill="midnightblue" stroke="midnightblue" points="277.66,-268.07 270.79,-260.01 271.13,-270.6 277.66,-268.07"/>
</g>
<!-- Node34 -->
<g id="node33" class="node">
<title>Node34</title>
<g id="a_node33"><a xlink:href="span_8hpp.html" target="_top" xlink:title=" ">
<polygon fill="white" stroke="black" points="232,-174 232,-193 331,-193 331,-174 232,-174"/>
<text text-anchor="middle" x="281.5" y="-181" font-family="Helvetica,sans-Serif" font-size="10.00">precice/span.hpp</text>
</a>
</g>
</g>
<!-- Node32&#45;&gt;Node34 -->
<g id="edge52" class="edge">
<title>Node32&#45;&gt;Node34</title>
<path fill="none" stroke="midnightblue" d="M305.45,-302.47C317.43,-294.7 333.37,-282 340.5,-266 346.11,-253.41 346.26,-247.52 340.5,-235 333.4,-219.58 319.01,-207.11 306.21,-198.42"/>
<polygon fill="midnightblue" stroke="midnightblue" points="308.04,-195.43 297.72,-193.01 304.28,-201.34 308.04,-195.43"/>
</g>
<!-- Node33&#45;&gt;Node3 -->
<g id="edge42" class="edge">
<title>Node33&#45;&gt;Node3</title>
<path fill="none" stroke="midnightblue" d="M253.47,-240.73C236.17,-229.92 206.51,-211.38 186.01,-198.57"/>
<polygon fill="midnightblue" stroke="midnightblue" points="187.64,-195.46 177.3,-193.13 183.93,-201.4 187.64,-195.46"/>
</g>
<!-- Node33&#45;&gt;Node4 -->
<g id="edge43" class="edge">
<title>Node33&#45;&gt;Node4</title>
<path fill="none" stroke="midnightblue" d="M238.29,-240.87C199.14,-229.3 129.57,-208.75 86.13,-195.91"/>
<polygon fill="midnightblue" stroke="midnightblue" points="87.07,-192.54 76.48,-193.06 85.08,-199.25 87.07,-192.54"/>
</g>
<!-- Node33&#45;&gt;Node5 -->
<g id="edge41" class="edge">
<title>Node33&#45;&gt;Node5</title>
<path fill="none" stroke="midnightblue" d="M279.74,-240.93C294.07,-230.89 318.52,-213.75 339.5,-199 359.07,-185.24 362.89,-180.14 383.5,-168 404.16,-155.83 428.61,-144.1 447.25,-135.67"/>
<polygon fill="midnightblue" stroke="midnightblue" points="448.72,-138.85 456.42,-131.57 445.86,-132.45 448.72,-138.85"/>
</g>
<!-- Node33&#45;&gt;Node34 -->
<g id="edge44" class="edge">
<title>Node33&#45;&gt;Node34</title>
<path fill="none" stroke="midnightblue" d="M269.39,-240.73C271.47,-231.09 274.87,-215.3 277.54,-202.91"/>
<polygon fill="midnightblue" stroke="midnightblue" points="280.96,-203.64 279.64,-193.13 274.11,-202.17 280.96,-203.64"/>
</g>
<!-- Node39 -->
<g id="node38" class="node">
<title>Node39</title>
<g id="a_node38"><a xlink:href="types_8hpp.html" target="_top" xlink:title=" ">
<polygon fill="white" stroke="black" points="668,-174 668,-193 771,-193 771,-174 668,-174"/>
<text text-anchor="middle" x="719.5" y="-181" font-family="Helvetica,sans-Serif" font-size="10.00">precice/types.hpp</text>
</a>
</g>
</g>
<!-- Node33&#45;&gt;Node39 -->
<g id="edge50" class="edge">
<title>Node33&#45;&gt;Node39</title>
<path fill="none" stroke="midnightblue" d="M331.82,-243.28C409.57,-235.29 544.21,-219.9 658.5,-199 664.33,-197.93 670.44,-196.66 676.45,-195.33"/>
<polygon fill="midnightblue" stroke="midnightblue" points="677.43,-198.69 686.39,-193.04 675.86,-191.87 677.43,-198.69"/>
</g>
<!-- Node34&#45;&gt;Node18 -->
<g id="edge45" class="edge">
<title>Node34&#45;&gt;Node18</title>
<path fill="none" stroke="midnightblue" d="M267.24,-173.79C246.35,-160 211.83,-132.59 230.5,-112 259.14,-80.41 558.55,-70.21 657.19,-67.7"/>
<polygon fill="midnightblue" stroke="midnightblue" points="657.5,-71.19 667.41,-67.45 657.32,-64.19 657.5,-71.19"/>
</g>
<!-- Node35 -->
<g id="node34" class="node">
<title>Node35</title>
<g id="a_node34"><a xlink:title=" ">
<polygon fill="white" stroke="#bfbfbf" points="240,-112.5 240,-131.5 293,-131.5 293,-112.5 240,-112.5"/>
<text text-anchor="middle" x="266.5" y="-119.5" font-family="Helvetica,sans-Serif" font-size="10.00">cstddef</text>
</a>
</g>
</g>
<!-- Node34&#45;&gt;Node35 -->
<g id="edge46" class="edge">
<title>Node34&#45;&gt;Node35</title>
<path fill="none" stroke="midnightblue" d="M279.35,-173.98C277.21,-165.49 273.86,-152.2 271.12,-141.32"/>
<polygon fill="midnightblue" stroke="midnightblue" points="274.48,-140.35 268.65,-131.51 267.7,-142.06 274.48,-140.35"/>
</g>
<!-- Node36 -->
<g id="node35" class="node">
<title>Node36</title>
<g id="a_node35"><a xlink:title=" ">
<polygon fill="white" stroke="#bfbfbf" points="311.5,-112.5 311.5,-131.5 361.5,-131.5 361.5,-112.5 311.5,-112.5"/>
<text text-anchor="middle" x="336.5" y="-119.5" font-family="Helvetica,sans-Serif" font-size="10.00">cstdint</text>
</a>
</g>
</g>
<!-- Node34&#45;&gt;Node36 -->
<g id="edge47" class="edge">
<title>Node34&#45;&gt;Node36</title>
<path fill="none" stroke="midnightblue" d="M289.38,-173.98C297.79,-164.87 311.32,-150.24 321.73,-138.98"/>
<polygon fill="midnightblue" stroke="midnightblue" points="324.42,-141.23 328.63,-131.51 319.28,-136.48 324.42,-141.23"/>
</g>
<!-- Node37 -->
<g id="node36" class="node">
<title>Node37</title>
<g id="a_node36"><a xlink:title=" ">
<polygon fill="white" stroke="#bfbfbf" points="379.5,-112.5 379.5,-131.5 429.5,-131.5 429.5,-112.5 379.5,-112.5"/>
<text text-anchor="middle" x="404.5" y="-119.5" font-family="Helvetica,sans-Serif" font-size="10.00">cstring</text>
</a>
</g>
</g>
<!-- Node34&#45;&gt;Node37 -->
<g id="edge48" class="edge">
<title>Node34&#45;&gt;Node37</title>
<path fill="none" stroke="midnightblue" d="M299.12,-173.98C319.67,-164.03 353.86,-147.49 377.71,-135.96"/>
<polygon fill="midnightblue" stroke="midnightblue" points="379.43,-139.01 386.91,-131.51 376.38,-132.71 379.43,-139.01"/>
</g>
<!-- Node38 -->
<g id="node37" class="node">
<title>Node38</title>
<g id="a_node37"><a xlink:title=" ">
<polygon fill="white" stroke="#bfbfbf" points="114,-112.5 114,-131.5 183,-131.5 183,-112.5 114,-112.5"/>
<text text-anchor="middle" x="148.5" y="-119.5" font-family="Helvetica,sans-Serif" font-size="10.00">type_traits</text>
</a>
</g>
</g>
<!-- Node34&#45;&gt;Node38 -->
<g id="edge49" class="edge">
<title>Node34&#45;&gt;Node38</title>
<path fill="none" stroke="midnightblue" d="M262.44,-173.98C240.03,-163.95 202.59,-147.2 176.79,-135.65"/>
<polygon fill="midnightblue" stroke="midnightblue" points="178.08,-132.4 167.52,-131.51 175.22,-138.79 178.08,-132.4"/>
</g>
<!-- Node40&#45;&gt;Node8 -->
<g id="edge57" class="edge">
<title>Node40&#45;&gt;Node8</title>
<path fill="none" stroke="midnightblue" d="M1398.36,-302.31C1402.69,-281.99 1413.56,-231.05 1419.49,-203.28"/>
<polygon fill="midnightblue" stroke="midnightblue" points="1422.97,-203.77 1421.63,-193.26 1416.12,-202.3 1422.97,-203.77"/>
</g>
<!-- Node40&#45;&gt;Node9 -->
<g id="edge56" class="edge">
<title>Node40&#45;&gt;Node9</title>
<path fill="none" stroke="midnightblue" d="M1379.6,-302.43C1365.75,-294.63 1346.53,-281.91 1334.5,-266 1306.51,-228.99 1331.54,-200.58 1298.5,-168 1286.35,-156.02 1246.99,-143.2 1215.08,-134.31"/>
<polygon fill="midnightblue" stroke="midnightblue" points="1215.6,-130.83 1205.03,-131.57 1213.76,-137.58 1215.6,-130.83"/>
</g>
<!-- Node40&#45;&gt;Node23 -->
<g id="edge63" class="edge">
<title>Node40&#45;&gt;Node23</title>
<path fill="none" stroke="midnightblue" d="M1342.91,-303.58C1265.92,-292.93 1123.86,-273.27 1038,-261.39"/>
<polygon fill="midnightblue" stroke="midnightblue" points="1038.46,-257.92 1028.07,-260.02 1037.5,-264.86 1038.46,-257.92"/>
</g>
<!-- Node40&#45;&gt;Node24 -->
<g id="edge60" class="edge">
<title>Node40&#45;&gt;Node24</title>
<path fill="none" stroke="midnightblue" d="M1342.96,-308.53C1274.52,-304.28 1161.19,-293.25 1130.5,-266 1114.36,-251.67 1108.83,-227.11 1107.05,-208.68"/>
<polygon fill="midnightblue" stroke="midnightblue" points="1110.54,-208.41 1106.39,-198.67 1103.56,-208.88 1110.54,-208.41"/>
</g>
<!-- Node40&#45;&gt;Node26 -->
<g id="edge61" class="edge">
<title>Node40&#45;&gt;Node26</title>
<path fill="none" stroke="midnightblue" d="M1371,-302.45C1350.84,-294.89 1322.65,-282.5 1301.5,-266 1280.35,-249.5 1261.47,-225.2 1249.18,-207.43"/>
<polygon fill="midnightblue" stroke="midnightblue" points="1251.87,-205.15 1243.38,-198.81 1246.06,-209.06 1251.87,-205.15"/>
</g>
<!-- Node41 -->
<g id="node40" class="node">
<title>Node41</title>
<g id="a_node40"><a xlink:title=" ">
<polygon fill="white" stroke="#bfbfbf" points="1699,-241 1699,-260 1748,-260 1748,-241 1699,-241"/>
<text text-anchor="middle" x="1723.5" y="-248" font-family="Helvetica,sans-Serif" font-size="10.00">cstdlib</text>
</a>
</g>
</g>
<!-- Node40&#45;&gt;Node41 -->
<g id="edge54" class="edge">
<title>Node40&#45;&gt;Node41</title>
<path fill="none" stroke="midnightblue" d="M1450.25,-307.03C1509.9,-301.64 1608.56,-289.82 1690.5,-266 1692.65,-265.38 1694.84,-264.64 1697.02,-263.84"/>
<polygon fill="midnightblue" stroke="midnightblue" points="1698.4,-267.06 1706.35,-260.05 1695.77,-260.58 1698.4,-267.06"/>
</g>
<!-- Node42 -->
<g id="node41" class="node">
<title>Node42</title>
<g id="a_node41"><a xlink:title=" ">
<polygon fill="white" stroke="#bfbfbf" points="1766.5,-241 1766.5,-260 1826.5,-260 1826.5,-241 1766.5,-241"/>
<text text-anchor="middle" x="1796.5" y="-248" font-family="Helvetica,sans-Serif" font-size="10.00">iostream</text>
</a>
</g>
</g>
<!-- Node40&#45;&gt;Node42 -->
<g id="edge55" class="edge">
<title>Node40&#45;&gt;Node42</title>
<path fill="none" stroke="midnightblue" d="M1450.11,-308.21C1521.24,-303.62 1650.29,-292.23 1757.5,-266 1760.49,-265.27 1763.57,-264.38 1766.62,-263.4"/>
<polygon fill="midnightblue" stroke="midnightblue" points="1767.84,-266.68 1776.13,-260.09 1765.54,-260.07 1767.84,-266.68"/>
</g>
<!-- Node43 -->
<g id="node42" class="node">
<title>Node43</title>
<g id="a_node42"><a xlink:title=" ">
<polygon fill="white" stroke="#bfbfbf" points="1845,-241 1845,-260 1992,-260 1992,-241 1845,-241"/>
<text text-anchor="middle" x="1918.5" y="-248" font-family="Helvetica,sans-Serif" font-size="10.00">boost/current_function.hpp</text>
</a>
</g>
</g>
<!-- Node40&#45;&gt;Node43 -->
<g id="edge58" class="edge">
<title>Node40&#45;&gt;Node43</title>
<path fill="none" stroke="midnightblue" d="M1450.03,-306.74C1532.86,-299.88 1697,-285.17 1835.5,-266 1844.34,-264.78 1853.69,-263.31 1862.79,-261.79"/>
<polygon fill="midnightblue" stroke="midnightblue" points="1863.66,-265.19 1872.93,-260.06 1862.48,-258.29 1863.66,-265.19"/>
</g>
<!-- Node44 -->
<g id="node43" class="node">
<title>Node44</title>
<g id="a_node43"><a xlink:title=" ">
<polygon fill="white" stroke="#bfbfbf" points="2010,-235.5 2010,-265.5 2145,-265.5 2145,-235.5 2010,-235.5"/>
<text text-anchor="start" x="2018" y="-253.5" font-family="Helvetica,sans-Serif" font-size="10.00">boost/preprocessor</text>
<text text-anchor="middle" x="2077.5" y="-242.5" font-family="Helvetica,sans-Serif" font-size="10.00">/comparison/greater.hpp</text>
</a>
</g>
</g>
<!-- Node40&#45;&gt;Node44 -->
<g id="edge59" class="edge">
<title>Node40&#45;&gt;Node44</title>
<path fill="none" stroke="midnightblue" d="M1450.12,-309.07C1554.24,-304.88 1791.14,-293.15 1999.4,-266.19"/>
<polygon fill="midnightblue" stroke="midnightblue" points="2000.15,-269.62 2009.61,-264.85 1999.24,-262.68 2000.15,-269.62"/>
</g>
<!-- Node45 -->
<g id="node44" class="node">
<title>Node45</title>
<g id="a_node44"><a xlink:title=" ">
<polygon fill="white" stroke="#bfbfbf" points="1139.5,-235.5 1139.5,-265.5 1249.5,-265.5 1249.5,-235.5 1139.5,-235.5"/>
<text text-anchor="start" x="1147.5" y="-253.5" font-family="Helvetica,sans-Serif" font-size="10.00">boost/preprocessor</text>
<text text-anchor="middle" x="1194.5" y="-242.5" font-family="Helvetica,sans-Serif" font-size="10.00">/variadic/size.hpp</text>
</a>
</g>
</g>
<!-- Node40&#45;&gt;Node45 -->
<g id="edge62" class="edge">
<title>Node40&#45;&gt;Node45</title>
<path fill="none" stroke="midnightblue" d="M1367.56,-302.48C1337.52,-293.63 1289.72,-279.55 1251.97,-268.43"/>
<polygon fill="midnightblue" stroke="midnightblue" points="1252.69,-264.99 1242.11,-265.52 1250.71,-271.71 1252.69,-264.99"/>
</g>
<!-- Node46 -->
<g id="node45" class="node">
<title>Node46</title>
<g id="a_node45"><a xlink:href="Parallel_8hpp.html" target="_top" xlink:title=" ">
<polygon fill="white" stroke="black" points="1451.5,-241 1451.5,-260 1549.5,-260 1549.5,-241 1451.5,-241"/>
<text text-anchor="middle" x="1500.5" y="-248" font-family="Helvetica,sans-Serif" font-size="10.00">utils/Parallel.hpp</text>
</a>
</g>
</g>
<!-- Node40&#45;&gt;Node46 -->
<g id="edge64" class="edge">
<title>Node40&#45;&gt;Node46</title>
<path fill="none" stroke="midnightblue" d="M1411.4,-302.48C1428.47,-292.71 1456.66,-276.58 1476.76,-265.08"/>
<polygon fill="midnightblue" stroke="midnightblue" points="1478.69,-268.01 1485.63,-260.01 1475.21,-261.94 1478.69,-268.01"/>
</g>
<!-- Node50 -->
<g id="node49" class="node">
<title>Node50</title>
<g id="a_node49"><a xlink:href="stacktrace_8hpp.html" target="_top" xlink:title=" ">
<polygon fill="white" stroke="black" points="1568,-241 1568,-260 1681,-260 1681,-241 1568,-241"/>
<text text-anchor="middle" x="1624.5" y="-248" font-family="Helvetica,sans-Serif" font-size="10.00">utils/stacktrace.hpp</text>
</a>
</g>
</g>
<!-- Node40&#45;&gt;Node50 -->
<g id="edge73" class="edge">
<title>Node40&#45;&gt;Node50</title>
<path fill="none" stroke="midnightblue" d="M1429.17,-302.48C1469.38,-291.98 1537.76,-274.14 1582.02,-262.59"/>
<polygon fill="midnightblue" stroke="midnightblue" points="1583.1,-265.92 1591.89,-260.01 1581.33,-259.15 1583.1,-265.92"/>
</g>
<!-- Node51 -->
<g id="node50" class="node">
<title>Node51</title>
<g id="a_node50"><a xlink:title=" ">
<polygon fill="white" stroke="#bfbfbf" points="1343.5,-241 1343.5,-260 1395.5,-260 1395.5,-241 1343.5,-241"/>
<text text-anchor="middle" x="1369.5" y="-248" font-family="Helvetica,sans-Serif" font-size="10.00">cassert</text>
</a>
</g>
</g>
<!-- Node40&#45;&gt;Node51 -->
<g id="edge75" class="edge">
<title>Node40&#45;&gt;Node51</title>
<path fill="none" stroke="midnightblue" d="M1392.63,-302.48C1388.7,-293.82 1382.5,-280.15 1377.51,-269.15"/>
<polygon fill="midnightblue" stroke="midnightblue" points="1380.68,-267.67 1373.36,-260.01 1374.31,-270.56 1380.68,-267.67"/>
</g>
<!-- Node46&#45;&gt;Node5 -->
<g id="edge66" class="edge">
<title>Node46&#45;&gt;Node5</title>
<path fill="none" stroke="midnightblue" d="M1479.34,-240.95C1427.64,-220.06 1299.09,-168.13 1298.5,-168 1146.58,-134.17 658.18,-125.33 515.8,-123.45"/>
<polygon fill="midnightblue" stroke="midnightblue" points="515.81,-119.95 505.77,-123.32 515.73,-126.95 515.81,-119.95"/>
</g>
<!-- Node46&#45;&gt;Node6 -->
<g id="edge68" class="edge">
<title>Node46&#45;&gt;Node6</title>
<path fill="none" stroke="midnightblue" d="M1535.12,-240.93C1543.12,-238.97 1551.6,-236.9 1559.5,-235 1627.42,-218.66 1657.71,-242.33 1712.5,-199 1730.72,-184.59 1740.91,-159.14 1746.05,-141.69"/>
<polygon fill="midnightblue" stroke="midnightblue" points="1749.55,-142.14 1748.73,-131.58 1742.78,-140.35 1749.55,-142.14"/>
</g>
<!-- Node46&#45;&gt;Node22 -->
<g id="edge69" class="edge">
<title>Node46&#45;&gt;Node22</title>
<path fill="none" stroke="midnightblue" d="M1498.93,-240.9C1494.05,-216.72 1476.87,-147.6 1434.5,-112 1415.08,-95.69 1388.8,-84.17 1368.05,-76.87"/>
<polygon fill="midnightblue" stroke="midnightblue" points="1368.96,-73.48 1358.36,-73.62 1366.73,-80.12 1368.96,-73.48"/>
</g>
<!-- Node46&#45;&gt;Node30 -->
<g id="edge70" class="edge">
<title>Node46&#45;&gt;Node30</title>
<path fill="none" stroke="midnightblue" d="M1451.3,-241.01C1436.31,-238.71 1419.77,-236.45 1404.5,-235 1005.98,-197.05 898.41,-270.34 504.5,-199 500.52,-198.28 496.4,-197.28 492.36,-196.14"/>
<polygon fill="midnightblue" stroke="midnightblue" points="493.16,-192.73 482.57,-193.1 491.08,-199.41 493.16,-192.73"/>
</g>
<!-- Node46&#45;&gt;Node39 -->
<g id="edge71" class="edge">
<title>Node46&#45;&gt;Node39</title>
<path fill="none" stroke="midnightblue" d="M1451.28,-241.17C1436.3,-238.88 1419.76,-236.59 1404.5,-235 1128.2,-206.23 1055.36,-239.28 780.5,-199 774.07,-198.06 767.32,-196.77 760.75,-195.34"/>
<polygon fill="midnightblue" stroke="midnightblue" points="761.17,-191.85 750.64,-193.02 759.6,-198.67 761.17,-191.85"/>
</g>
<!-- Node47 -->
<g id="node46" class="node">
<title>Node47</title>
<g id="a_node46"><a xlink:title=" ">
<polygon fill="white" stroke="#bfbfbf" points="1519.5,-174 1519.5,-193 1567.5,-193 1567.5,-174 1519.5,-174"/>
<text text-anchor="middle" x="1543.5" y="-181" font-family="Helvetica,sans-Serif" font-size="10.00">iosfwd</text>
</a>
</g>
</g>
<!-- Node46&#45;&gt;Node47 -->
<g id="edge65" class="edge">
<title>Node46&#45;&gt;Node47</title>
<path fill="none" stroke="midnightblue" d="M1506.3,-240.73C1512.88,-230.79 1523.76,-214.34 1532.06,-201.79"/>
<polygon fill="midnightblue" stroke="midnightblue" points="1535.19,-203.4 1537.79,-193.13 1529.36,-199.54 1535.19,-203.4"/>
</g>
<!-- Node48 -->
<g id="node47" class="node">
<title>Node48</title>
<g id="a_node47"><a xlink:title=" ">
<polygon fill="white" stroke="#bfbfbf" points="1585.5,-174 1585.5,-193 1641.5,-193 1641.5,-174 1585.5,-174"/>
<text text-anchor="middle" x="1613.5" y="-181" font-family="Helvetica,sans-Serif" font-size="10.00">optional</text>
</a>
</g>
</g>
<!-- Node46&#45;&gt;Node48 -->
<g id="edge67" class="edge">
<title>Node46&#45;&gt;Node48</title>
<path fill="none" stroke="midnightblue" d="M1515.74,-240.73C1534.72,-229.82 1567.35,-211.05 1589.65,-198.22"/>
<polygon fill="midnightblue" stroke="midnightblue" points="1591.58,-201.15 1598.5,-193.13 1588.09,-195.08 1591.58,-201.15"/>
</g>
<!-- Node49 -->
<g id="node48" class="node">
<title>Node49</title>
<g id="a_node48"><a xlink:title=" ">
<polygon fill="white" stroke="#bfbfbf" points="1659.5,-174 1659.5,-193 1703.5,-193 1703.5,-174 1659.5,-174"/>
<text text-anchor="middle" x="1681.5" y="-181" font-family="Helvetica,sans-Serif" font-size="10.00">mpi.h</text>
</a>
</g>
</g>
<!-- Node46&#45;&gt;Node49 -->
<g id="edge72" class="edge">
<title>Node46&#45;&gt;Node49</title>
<path fill="none" stroke="midnightblue" d="M1529.04,-240.94C1559.48,-231.58 1608.92,-215.66 1650.5,-199 1651.88,-198.45 1653.28,-197.86 1654.7,-197.26"/>
<polygon fill="midnightblue" stroke="midnightblue" points="1656.24,-200.4 1663.95,-193.13 1653.39,-194.01 1656.24,-200.4"/>
</g>
<!-- Node50&#45;&gt;Node6 -->
<g id="edge74" class="edge">
<title>Node50&#45;&gt;Node6</title>
<path fill="none" stroke="midnightblue" d="M1654.49,-240.95C1686.61,-231.14 1734.48,-214.42 1745.5,-199 1757.24,-182.57 1756.75,-158.69 1754.45,-142.1"/>
<polygon fill="midnightblue" stroke="midnightblue" points="1757.85,-141.21 1752.69,-131.96 1750.95,-142.41 1757.85,-141.21"/>
</g>
</g>
</svg>
