<?xml version="1.0" encoding="UTF-8" standalone="no"?>
<!DOCTYPE svg PUBLIC "-//W3C//DTD SVG 1.1//EN"
 "http://www.w3.org/Graphics/SVG/1.1/DTD/svg11.dtd">
<!-- Generated by graphviz version 2.43.0 (0)
 -->
<!-- Title: src/cplscheme/impl/RelativeConvergenceMeasure.hpp Pages: 1 -->
<svg width="2501pt" height="565pt"
 viewBox="0.00 0.00 2500.50 565.00" xmlns="http://www.w3.org/2000/svg" xmlns:xlink="http://www.w3.org/1999/xlink">
<g id="graph0" class="graph" transform="scale(1 1) rotate(0) translate(4 561)">
<title>src/cplscheme/impl/RelativeConvergenceMeasure.hpp</title>
<polygon fill="white" stroke="transparent" points="-4,4 -4,-561 2496.5,-561 2496.5,4 -4,4"/>
<!-- Node1 -->
<g id="node1" class="node">
<title>Node1</title>
<g id="a_node1"><a xlink:title=" ">
<polygon fill="#bfbfbf" stroke="black" points="1606.5,-526.5 1606.5,-556.5 1793.5,-556.5 1793.5,-526.5 1606.5,-526.5"/>
<text text-anchor="start" x="1614.5" y="-544.5" font-family="Helvetica,sans-Serif" font-size="10.00">src/cplscheme/impl</text>
<text text-anchor="middle" x="1700" y="-533.5" font-family="Helvetica,sans-Serif" font-size="10.00">/RelativeConvergenceMeasure.hpp</text>
</a>
</g>
</g>
<!-- Node2 -->
<g id="node2" class="node">
<title>Node2</title>
<g id="a_node2"><a xlink:title=" ">
<polygon fill="white" stroke="#bfbfbf" points="1083.5,-235.5 1083.5,-254.5 1152.5,-254.5 1152.5,-235.5 1083.5,-235.5"/>
<text text-anchor="middle" x="1118" y="-242.5" font-family="Helvetica,sans-Serif" font-size="10.00">Eigen/Core</text>
</a>
</g>
</g>
<!-- Node1&#45;&gt;Node2 -->
<g id="edge1" class="edge">
<title>Node1&#45;&gt;Node2</title>
<path fill="none" stroke="midnightblue" d="M1606.42,-532.05C1437.5,-515.52 1099,-476.03 1099,-425 1099,-425 1099,-425 1099,-367 1099,-330.29 1107.64,-288.06 1113.27,-264.45"/>
<polygon fill="midnightblue" stroke="midnightblue" points="1116.67,-265.28 1115.67,-254.73 1109.87,-263.6 1116.67,-265.28"/>
</g>
<!-- Node3 -->
<g id="node3" class="node">
<title>Node3</title>
<g id="a_node3"><a xlink:title=" ">
<polygon fill="white" stroke="#bfbfbf" points="1903,-470.5 1903,-489.5 1959,-489.5 1959,-470.5 1903,-470.5"/>
<text text-anchor="middle" x="1931" y="-477.5" font-family="Helvetica,sans-Serif" font-size="10.00">iomanip</text>
</a>
</g>
</g>
<!-- Node1&#45;&gt;Node3 -->
<g id="edge2" class="edge">
<title>Node1&#45;&gt;Node3</title>
<path fill="none" stroke="midnightblue" d="M1754.45,-526.47C1797,-515.51 1855.07,-500.56 1892.79,-490.84"/>
<polygon fill="midnightblue" stroke="midnightblue" points="1894.06,-494.13 1902.87,-488.25 1892.31,-487.35 1894.06,-494.13"/>
</g>
<!-- Node4 -->
<g id="node4" class="node">
<title>Node4</title>
<g id="a_node4"><a xlink:title=" ">
<polygon fill="white" stroke="#bfbfbf" points="1977,-470.5 1977,-489.5 2021,-489.5 2021,-470.5 1977,-470.5"/>
<text text-anchor="middle" x="1999" y="-477.5" font-family="Helvetica,sans-Serif" font-size="10.00">limits</text>
</a>
</g>
</g>
<!-- Node1&#45;&gt;Node4 -->
<g id="edge3" class="edge">
<title>Node1&#45;&gt;Node4</title>
<path fill="none" stroke="midnightblue" d="M1785.84,-526.49C1836.07,-517.79 1900.87,-505.68 1966.59,-490.16"/>
<polygon fill="midnightblue" stroke="midnightblue" points="1967.8,-493.47 1976.72,-487.75 1966.18,-486.66 1967.8,-493.47"/>
</g>
<!-- Node5 -->
<g id="node5" class="node">
<title>Node5</title>
<g id="a_node5"><a xlink:title=" ">
<polygon fill="white" stroke="#bfbfbf" points="2039.5,-470.5 2039.5,-489.5 2090.5,-489.5 2090.5,-470.5 2039.5,-470.5"/>
<text text-anchor="middle" x="2065" y="-477.5" font-family="Helvetica,sans-Serif" font-size="10.00">math.h</text>
</a>
</g>
</g>
<!-- Node1&#45;&gt;Node5 -->
<g id="edge4" class="edge">
<title>Node1&#45;&gt;Node5</title>
<path fill="none" stroke="midnightblue" d="M1793.61,-528.71C1857.45,-520.08 1944.08,-507.2 2029.58,-489.9"/>
<polygon fill="midnightblue" stroke="midnightblue" points="2030.36,-493.32 2039.45,-487.88 2028.96,-486.46 2030.36,-493.32"/>
</g>
<!-- Node6 -->
<g id="node6" class="node">
<title>Node6</title>
<g id="a_node6"><a xlink:title=" ">
<polygon fill="white" stroke="#bfbfbf" points="2108.5,-470.5 2108.5,-489.5 2165.5,-489.5 2165.5,-470.5 2108.5,-470.5"/>
<text text-anchor="middle" x="2137" y="-477.5" font-family="Helvetica,sans-Serif" font-size="10.00">ostream</text>
</a>
</g>
</g>
<!-- Node1&#45;&gt;Node6 -->
<g id="edge5" class="edge">
<title>Node1&#45;&gt;Node6</title>
<path fill="none" stroke="midnightblue" d="M1793.81,-531.68C1872.78,-523.56 1988.84,-510 2098.48,-490.12"/>
<polygon fill="midnightblue" stroke="midnightblue" points="2099.18,-493.55 2108.39,-488.3 2097.92,-486.66 2099.18,-493.55"/>
</g>
<!-- Node7 -->
<g id="node7" class="node">
<title>Node7</title>
<g id="a_node7"><a xlink:title=" ">
<polygon fill="white" stroke="#bfbfbf" points="1187,-0.5 1187,-19.5 1231,-19.5 1231,-0.5 1187,-0.5"/>
<text text-anchor="middle" x="1209" y="-7.5" font-family="Helvetica,sans-Serif" font-size="10.00">string</text>
</a>
</g>
</g>
<!-- Node1&#45;&gt;Node7 -->
<g id="edge6" class="edge">
<title>Node1&#45;&gt;Node7</title>
<path fill="none" stroke="midnightblue" d="M1606.48,-539.08C1250.5,-533.07 0,-506.19 0,-425 0,-425 0,-425 0,-132 0,-80.66 39.3,-75 87,-56 190.5,-14.77 1003.81,-11.29 1176.74,-11.02"/>
<polygon fill="midnightblue" stroke="midnightblue" points="1176.98,-14.52 1186.97,-11.01 1176.97,-7.52 1176.98,-14.52"/>
</g>
<!-- Node8 -->
<g id="node8" class="node">
<title>Node8</title>
<g id="a_node8"><a xlink:href="CouplingData_8hpp.html" target="_top" xlink:title=" ">
<polygon fill="white" stroke="black" points="1483.5,-414.5 1483.5,-433.5 1596.5,-433.5 1596.5,-414.5 1483.5,-414.5"/>
<text text-anchor="middle" x="1540" y="-421.5" font-family="Helvetica,sans-Serif" font-size="10.00">../CouplingData.hpp</text>
</a>
</g>
</g>
<!-- Node1&#45;&gt;Node8 -->
<g id="edge7" class="edge">
<title>Node1&#45;&gt;Node8</title>
<path fill="none" stroke="midnightblue" d="M1680.38,-526.34C1649.85,-504.3 1591.27,-462.01 1560.31,-439.66"/>
<polygon fill="midnightblue" stroke="midnightblue" points="1562.17,-436.68 1552.01,-433.67 1558.07,-442.36 1562.17,-436.68"/>
</g>
<!-- Node19 -->
<g id="node19" class="node">
<title>Node19</title>
<g id="a_node19"><a xlink:href="Logger_8hpp.html" target="_top" xlink:title=" ">
<polygon fill="white" stroke="black" points="1986.5,-235.5 1986.5,-254.5 2095.5,-254.5 2095.5,-235.5 1986.5,-235.5"/>
<text text-anchor="middle" x="2041" y="-242.5" font-family="Helvetica,sans-Serif" font-size="10.00">logging/Logger.hpp</text>
</a>
</g>
</g>
<!-- Node1&#45;&gt;Node19 -->
<g id="edge62" class="edge">
<title>Node1&#45;&gt;Node19</title>
<path fill="none" stroke="midnightblue" d="M1738.89,-526.45C1835.18,-490.8 2080.05,-394.5 2124,-322 2131.14,-310.22 2131.05,-302.84 2124,-291 2114.9,-275.72 2098.61,-265.31 2082.86,-258.39"/>
<polygon fill="midnightblue" stroke="midnightblue" points="2083.77,-254.98 2073.18,-254.51 2081.17,-261.48 2083.77,-254.98"/>
</g>
<!-- Node54 -->
<g id="node38" class="node">
<title>Node54</title>
<g id="a_node38"><a xlink:href="ConvergenceMeasure_8hpp.html" target="_top" xlink:title=" ">
<polygon fill="white" stroke="black" points="391.5,-358.5 391.5,-377.5 534.5,-377.5 534.5,-358.5 391.5,-358.5"/>
<text text-anchor="middle" x="463" y="-365.5" font-family="Helvetica,sans-Serif" font-size="10.00">ConvergenceMeasure.hpp</text>
</a>
</g>
</g>
<!-- Node1&#45;&gt;Node54 -->
<g id="edge60" class="edge">
<title>Node1&#45;&gt;Node54</title>
<path fill="none" stroke="midnightblue" d="M1606.25,-537.52C1419.58,-531.14 1007.37,-514.71 868,-490 725.39,-464.72 561.95,-406.5 494.56,-381.15"/>
<polygon fill="midnightblue" stroke="midnightblue" points="495.55,-377.79 484.96,-377.52 493.07,-384.33 495.55,-377.79"/>
</g>
<!-- Node55 -->
<g id="node39" class="node">
<title>Node55</title>
<g id="a_node39"><a xlink:href="differences_8hpp.html" target="_top" xlink:title=" ">
<polygon fill="white" stroke="black" points="726,-414.5 726,-433.5 846,-433.5 846,-414.5 726,-414.5"/>
<text text-anchor="middle" x="786" y="-421.5" font-family="Helvetica,sans-Serif" font-size="10.00">math/differences.hpp</text>
</a>
</g>
</g>
<!-- Node1&#45;&gt;Node55 -->
<g id="edge63" class="edge">
<title>Node1&#45;&gt;Node55</title>
<path fill="none" stroke="midnightblue" d="M1606.4,-538.57C1429.98,-534.25 1054.71,-521.57 929,-490 884.52,-478.83 836.77,-454.29 809.24,-438.76"/>
<polygon fill="midnightblue" stroke="midnightblue" points="810.8,-435.62 800.38,-433.68 807.32,-441.69 810.8,-435.62"/>
</g>
<!-- Node56 -->
<g id="node40" class="node">
<title>Node56</title>
<g id="a_node40"><a xlink:href="math_8hpp.html" target="_top" xlink:title=" ">
<polygon fill="white" stroke="black" points="938,-470.5 938,-489.5 1030,-489.5 1030,-470.5 938,-470.5"/>
<text text-anchor="middle" x="984" y="-477.5" font-family="Helvetica,sans-Serif" font-size="10.00">math/math.hpp</text>
</a>
</g>
</g>
<!-- Node1&#45;&gt;Node56 -->
<g id="edge66" class="edge">
<title>Node1&#45;&gt;Node56</title>
<path fill="none" stroke="midnightblue" d="M1606.47,-533.02C1485.91,-523.34 1269.79,-505.82 1085,-490 1070.6,-488.77 1055.06,-487.4 1040.58,-486.11"/>
<polygon fill="midnightblue" stroke="midnightblue" points="1040.52,-482.59 1030.25,-485.19 1039.9,-489.56 1040.52,-482.59"/>
</g>
<!-- Node59 -->
<g id="node43" class="node">
<title>Node59</title>
<g id="a_node43"><a xlink:href="IntraComm_8hpp.html" target="_top" xlink:title=" ">
<polygon fill="white" stroke="black" points="1983,-297 1983,-316 2099,-316 2099,-297 1983,-297"/>
<text text-anchor="middle" x="2041" y="-304" font-family="Helvetica,sans-Serif" font-size="10.00">utils/IntraComm.hpp</text>
</a>
</g>
</g>
<!-- Node1&#45;&gt;Node59 -->
<g id="edge72" class="edge">
<title>Node1&#45;&gt;Node59</title>
<path fill="none" stroke="midnightblue" d="M1720.56,-526.45C1781.1,-485.09 1958.28,-364.02 2019.72,-322.04"/>
<polygon fill="midnightblue" stroke="midnightblue" points="2021.96,-324.75 2028.24,-316.22 2018.01,-318.97 2021.96,-324.75"/>
</g>
<!-- Node8&#45;&gt;Node2 -->
<g id="edge8" class="edge">
<title>Node8&#45;&gt;Node2</title>
<path fill="none" stroke="midnightblue" d="M1483.48,-417.29C1430.37,-410.97 1349.09,-398.81 1281,-378 1222.78,-360.21 1199.95,-364.12 1156,-322 1139.4,-306.09 1128.93,-281.38 1123.27,-264.49"/>
<polygon fill="midnightblue" stroke="midnightblue" points="1126.54,-263.2 1120.24,-254.68 1119.85,-265.27 1126.54,-263.2"/>
</g>
<!-- Node9 -->
<g id="node9" class="node">
<title>Node9</title>
<g id="a_node9"><a xlink:title=" ">
<polygon fill="white" stroke="#bfbfbf" points="1558.5,-235.5 1558.5,-254.5 1605.5,-254.5 1605.5,-235.5 1558.5,-235.5"/>
<text text-anchor="middle" x="1582" y="-242.5" font-family="Helvetica,sans-Serif" font-size="10.00">vector</text>
</a>
</g>
</g>
<!-- Node8&#45;&gt;Node9 -->
<g id="edge9" class="edge">
<title>Node8&#45;&gt;Node9</title>
<path fill="none" stroke="midnightblue" d="M1586.42,-414.44C1634.8,-402.77 1708.19,-376.7 1742,-322 1749.24,-310.28 1750.32,-301.98 1742,-291 1738.09,-285.84 1661.06,-265.81 1615.33,-254.28"/>
<polygon fill="midnightblue" stroke="midnightblue" points="1616.09,-250.87 1605.54,-251.83 1614.38,-257.66 1616.09,-250.87"/>
</g>
<!-- Node10 -->
<g id="node10" class="node">
<title>Node10</title>
<g id="a_node10"><a xlink:href="CouplingScheme_8hpp.html" target="_top" xlink:title=" ">
<polygon fill="white" stroke="black" points="1789.5,-297 1789.5,-316 1964.5,-316 1964.5,-297 1789.5,-297"/>
<text text-anchor="middle" x="1877" y="-304" font-family="Helvetica,sans-Serif" font-size="10.00">cplscheme/CouplingScheme.hpp</text>
</a>
</g>
</g>
<!-- Node8&#45;&gt;Node10 -->
<g id="edge10" class="edge">
<title>Node8&#45;&gt;Node10</title>
<path fill="none" stroke="midnightblue" d="M1596.98,-418.74C1645.79,-413.55 1717.15,-402.25 1775,-378 1807.68,-364.3 1840.52,-339.06 1859.79,-322.79"/>
<polygon fill="midnightblue" stroke="midnightblue" points="1862.12,-325.41 1867.41,-316.23 1857.55,-320.1 1862.12,-325.41"/>
</g>
<!-- Node15 -->
<g id="node15" class="node">
<title>Node15</title>
<g id="a_node15"><a xlink:href="mesh_2SharedPointer_8hpp.html" target="_top" xlink:title=" ">
<polygon fill="white" stroke="black" points="1289.5,-358.5 1289.5,-377.5 1424.5,-377.5 1424.5,-358.5 1289.5,-358.5"/>
<text text-anchor="middle" x="1357" y="-365.5" font-family="Helvetica,sans-Serif" font-size="10.00">mesh/SharedPointer.hpp</text>
</a>
</g>
</g>
<!-- Node8&#45;&gt;Node15 -->
<g id="edge17" class="edge">
<title>Node8&#45;&gt;Node15</title>
<path fill="none" stroke="midnightblue" d="M1511,-414.44C1479.82,-405.24 1430.07,-390.56 1395.59,-380.39"/>
<polygon fill="midnightblue" stroke="midnightblue" points="1396.44,-376.99 1385.86,-377.52 1394.46,-383.7 1396.44,-376.99"/>
</g>
<!-- Node16 -->
<g id="node16" class="node">
<title>Node16</title>
<g id="a_node16"><a xlink:href="Storage_8hpp.html" target="_top" xlink:title=" ">
<polygon fill="white" stroke="black" points="1489.5,-358.5 1489.5,-377.5 1590.5,-377.5 1590.5,-358.5 1489.5,-358.5"/>
<text text-anchor="middle" x="1540" y="-365.5" font-family="Helvetica,sans-Serif" font-size="10.00">time/Storage.hpp</text>
</a>
</g>
</g>
<!-- Node8&#45;&gt;Node16 -->
<g id="edge19" class="edge">
<title>Node8&#45;&gt;Node16</title>
<path fill="none" stroke="midnightblue" d="M1540,-414.08C1540,-407.01 1540,-396.86 1540,-387.99"/>
<polygon fill="midnightblue" stroke="midnightblue" points="1543.5,-387.75 1540,-377.75 1536.5,-387.75 1543.5,-387.75"/>
</g>
<!-- Node43 -->
<g id="node29" class="node">
<title>Node43</title>
<g id="a_node29"><a xlink:href="assertion_8hpp.html" target="_top" xlink:title=" ">
<polygon fill="white" stroke="black" points="731.5,-358.5 731.5,-377.5 838.5,-377.5 838.5,-358.5 731.5,-358.5"/>
<text text-anchor="middle" x="785" y="-365.5" font-family="Helvetica,sans-Serif" font-size="10.00">utils/assertion.hpp</text>
</a>
</g>
</g>
<!-- Node8&#45;&gt;Node43 -->
<g id="edge39" class="edge">
<title>Node8&#45;&gt;Node43</title>
<path fill="none" stroke="midnightblue" d="M1483.25,-418.94C1345.36,-409.08 993.39,-383.9 848.64,-373.55"/>
<polygon fill="midnightblue" stroke="midnightblue" points="848.81,-370.06 838.59,-372.83 848.31,-377.04 848.81,-370.06"/>
</g>
<!-- Node10&#45;&gt;Node7 -->
<g id="edge12" class="edge">
<title>Node10&#45;&gt;Node7</title>
<path fill="none" stroke="midnightblue" d="M1803.09,-296.98C1746.49,-289.01 1674.58,-275.26 1653,-255 1631.06,-234.39 1634,-220.1 1634,-190 1634,-190 1634,-190 1634,-132 1634,-50.39 1340.48,-20.86 1241.3,-13.21"/>
<polygon fill="midnightblue" stroke="midnightblue" points="1241.48,-9.71 1231.25,-12.46 1240.96,-16.69 1241.48,-9.71"/>
</g>
<!-- Node10&#45;&gt;Node9 -->
<g id="edge13" class="edge">
<title>Node10&#45;&gt;Node9</title>
<path fill="none" stroke="midnightblue" d="M1830.46,-296.91C1778.89,-287.27 1693.33,-270.88 1620,-255 1618.55,-254.69 1617.07,-254.36 1615.58,-254.03"/>
<polygon fill="midnightblue" stroke="midnightblue" points="1616.21,-250.58 1605.68,-251.76 1614.65,-257.4 1616.21,-250.58"/>
</g>
<!-- Node11 -->
<g id="node11" class="node">
<title>Node11</title>
<g id="a_node11"><a xlink:title=" ">
<polygon fill="white" stroke="#bfbfbf" points="1662,-235.5 1662,-254.5 1700,-254.5 1700,-235.5 1662,-235.5"/>
<text text-anchor="middle" x="1681" y="-242.5" font-family="Helvetica,sans-Serif" font-size="10.00">map</text>
</a>
</g>
</g>
<!-- Node10&#45;&gt;Node11 -->
<g id="edge11" class="edge">
<title>Node10&#45;&gt;Node11</title>
<path fill="none" stroke="midnightblue" d="M1848.61,-296.98C1815.37,-287 1758.65,-269.91 1710,-255 1709.9,-254.97 1709.8,-254.94 1709.7,-254.91"/>
<polygon fill="midnightblue" stroke="midnightblue" points="1710.61,-251.53 1700.03,-251.93 1708.55,-258.22 1710.61,-251.53"/>
</g>
<!-- Node12 -->
<g id="node12" class="node">
<title>Node12</title>
<g id="a_node12"><a xlink:href="com_2SharedPointer_8hpp.html" target="_top" xlink:title=" ">
<polygon fill="white" stroke="black" points="1839.5,-235.5 1839.5,-254.5 1968.5,-254.5 1968.5,-235.5 1839.5,-235.5"/>
<text text-anchor="middle" x="1904" y="-242.5" font-family="Helvetica,sans-Serif" font-size="10.00">com/SharedPointer.hpp</text>
</a>
</g>
</g>
<!-- Node10&#45;&gt;Node12 -->
<g id="edge14" class="edge">
<title>Node10&#45;&gt;Node12</title>
<path fill="none" stroke="midnightblue" d="M1880.87,-296.98C1884.8,-288.32 1891,-274.65 1895.99,-263.65"/>
<polygon fill="midnightblue" stroke="midnightblue" points="1899.19,-265.06 1900.14,-254.51 1892.82,-262.17 1899.19,-265.06"/>
</g>
<!-- Node14 -->
<g id="node14" class="node">
<title>Node14</title>
<g id="a_node14"><a xlink:href="types_8hpp.html" target="_top" xlink:title=" ">
<polygon fill="white" stroke="black" points="1718.5,-235.5 1718.5,-254.5 1821.5,-254.5 1821.5,-235.5 1718.5,-235.5"/>
<text text-anchor="middle" x="1770" y="-242.5" font-family="Helvetica,sans-Serif" font-size="10.00">precice/types.hpp</text>
</a>
</g>
</g>
<!-- Node10&#45;&gt;Node14 -->
<g id="edge16" class="edge">
<title>Node10&#45;&gt;Node14</title>
<path fill="none" stroke="midnightblue" d="M1861.67,-296.98C1844.03,-287.17 1814.84,-270.93 1794.14,-259.42"/>
<polygon fill="midnightblue" stroke="midnightblue" points="1795.74,-256.31 1785.3,-254.51 1792.34,-262.43 1795.74,-256.31"/>
</g>
<!-- Node13 -->
<g id="node13" class="node">
<title>Node13</title>
<g id="a_node13"><a xlink:title=" ">
<polygon fill="white" stroke="#bfbfbf" points="1513,-179.5 1513,-198.5 1571,-198.5 1571,-179.5 1513,-179.5"/>
<text text-anchor="middle" x="1542" y="-186.5" font-family="Helvetica,sans-Serif" font-size="10.00">memory</text>
</a>
</g>
</g>
<!-- Node12&#45;&gt;Node13 -->
<g id="edge15" class="edge">
<title>Node12&#45;&gt;Node13</title>
<path fill="none" stroke="midnightblue" d="M1846.64,-235.44C1772.42,-224.37 1645.08,-205.38 1581.1,-195.83"/>
<polygon fill="midnightblue" stroke="midnightblue" points="1581.43,-192.34 1571.02,-194.33 1580.4,-199.27 1581.43,-192.34"/>
</g>
<!-- Node15&#45;&gt;Node13 -->
<g id="edge18" class="edge">
<title>Node15&#45;&gt;Node13</title>
<path fill="none" stroke="midnightblue" d="M1353.28,-358.44C1344,-335.56 1322.55,-272.24 1352,-235 1370.4,-211.73 1452.48,-199.24 1502.54,-193.67"/>
<polygon fill="midnightblue" stroke="midnightblue" points="1503.13,-197.13 1512.7,-192.59 1502.39,-190.17 1503.13,-197.13"/>
</g>
<!-- Node16&#45;&gt;Node2 -->
<g id="edge20" class="edge">
<title>Node16&#45;&gt;Node2</title>
<path fill="none" stroke="midnightblue" d="M1507.55,-358.43C1474.4,-349.6 1421.49,-335.29 1376,-322 1331.34,-308.95 1320.6,-304.26 1276,-291 1236.16,-279.15 1190.48,-266.21 1158.52,-257.26"/>
<polygon fill="midnightblue" stroke="midnightblue" points="1159.22,-253.82 1148.65,-254.5 1157.33,-260.56 1159.22,-253.82"/>
</g>
<!-- Node17 -->
<g id="node17" class="node">
<title>Node17</title>
<g id="a_node17"><a xlink:title=" ">
<polygon fill="white" stroke="#bfbfbf" points="1515.5,-297 1515.5,-316 1610.5,-316 1610.5,-297 1515.5,-297"/>
<text text-anchor="middle" x="1563" y="-304" font-family="Helvetica,sans-Serif" font-size="10.00">boost/range.hpp</text>
</a>
</g>
</g>
<!-- Node16&#45;&gt;Node17 -->
<g id="edge21" class="edge">
<title>Node16&#45;&gt;Node17</title>
<path fill="none" stroke="midnightblue" d="M1543.3,-358.48C1546.61,-349.9 1551.82,-336.43 1556.05,-325.48"/>
<polygon fill="midnightblue" stroke="midnightblue" points="1559.37,-326.6 1559.71,-316.01 1552.84,-324.07 1559.37,-326.6"/>
</g>
<!-- Node18 -->
<g id="node18" class="node">
<title>Node18</title>
<g id="a_node18"><a xlink:title=" ">
<polygon fill="white" stroke="#bfbfbf" points="1361,-235.5 1361,-254.5 1417,-254.5 1417,-235.5 1361,-235.5"/>
<text text-anchor="middle" x="1389" y="-242.5" font-family="Helvetica,sans-Serif" font-size="10.00">optional</text>
</a>
</g>
</g>
<!-- Node16&#45;&gt;Node18 -->
<g id="edge22" class="edge">
<title>Node16&#45;&gt;Node18</title>
<path fill="none" stroke="midnightblue" d="M1489.27,-366.34C1455.33,-362.92 1412.84,-352.28 1390,-322 1377.61,-305.58 1379.94,-280.98 1383.65,-264.25"/>
<polygon fill="midnightblue" stroke="midnightblue" points="1387.05,-265.12 1386.15,-254.56 1380.27,-263.37 1387.05,-265.12"/>
</g>
<!-- Node16&#45;&gt;Node19 -->
<g id="edge23" class="edge">
<title>Node16&#45;&gt;Node19</title>
<path fill="none" stroke="midnightblue" d="M1590.64,-366.82C1723.33,-365.82 2073.26,-359.6 2108,-322 2117.35,-311.88 2114.48,-303.16 2108,-291 2100.45,-276.83 2086.24,-266.33 2072.84,-259.06"/>
<polygon fill="midnightblue" stroke="midnightblue" points="2074.3,-255.87 2063.79,-254.53 2071.17,-262.13 2074.3,-255.87"/>
</g>
<!-- Node40 -->
<g id="node27" class="node">
<title>Node40</title>
<g id="a_node27"><a xlink:href="Bspline_8hpp.html" target="_top" xlink:title=" ">
<polygon fill="white" stroke="black" points="1165,-297 1165,-316 1267,-316 1267,-297 1165,-297"/>
<text text-anchor="middle" x="1216" y="-304" font-family="Helvetica,sans-Serif" font-size="10.00">math/Bspline.hpp</text>
</a>
</g>
</g>
<!-- Node16&#45;&gt;Node40 -->
<g id="edge36" class="edge">
<title>Node16&#45;&gt;Node40</title>
<path fill="none" stroke="midnightblue" d="M1489.25,-358.91C1436.93,-350.41 1353.08,-336.29 1281,-322 1275.11,-320.83 1268.95,-319.54 1262.85,-318.23"/>
<polygon fill="midnightblue" stroke="midnightblue" points="1263.23,-314.73 1252.72,-316.01 1261.74,-321.57 1263.23,-314.73"/>
</g>
<!-- Node41 -->
<g id="node28" class="node">
<title>Node41</title>
<g id="a_node28"><a xlink:href="Stample_8hpp.html" target="_top" xlink:title=" ">
<polygon fill="white" stroke="red" points="1629,-297 1629,-316 1733,-316 1733,-297 1629,-297"/>
<text text-anchor="middle" x="1681" y="-304" font-family="Helvetica,sans-Serif" font-size="10.00">time/Stample.hpp</text>
</a>
</g>
</g>
<!-- Node16&#45;&gt;Node41 -->
<g id="edge38" class="edge">
<title>Node16&#45;&gt;Node41</title>
<path fill="none" stroke="midnightblue" d="M1560.2,-358.48C1584.07,-348.4 1624,-331.55 1651.37,-320"/>
<polygon fill="midnightblue" stroke="midnightblue" points="1652.98,-323.12 1660.84,-316.01 1650.26,-316.67 1652.98,-323.12"/>
</g>
<!-- Node19&#45;&gt;Node13 -->
<g id="edge24" class="edge">
<title>Node19&#45;&gt;Node13</title>
<path fill="none" stroke="midnightblue" d="M1986.38,-236.06C1983.55,-235.69 1980.74,-235.34 1978,-235 1831.93,-217.04 1657.72,-200.53 1581.26,-193.53"/>
<polygon fill="midnightblue" stroke="midnightblue" points="1581.4,-190.03 1571.13,-192.61 1580.77,-197 1581.4,-190.03"/>
</g>
<!-- Node20 -->
<g id="node20" class="node">
<title>Node20</title>
<g id="a_node20"><a xlink:title=" ">
<polygon fill="white" stroke="#bfbfbf" points="2004.5,-0.5 2004.5,-19.5 2077.5,-19.5 2077.5,-0.5 2004.5,-0.5"/>
<text text-anchor="middle" x="2041" y="-7.5" font-family="Helvetica,sans-Serif" font-size="10.00">string_view</text>
</a>
</g>
</g>
<!-- Node19&#45;&gt;Node20 -->
<g id="edge25" class="edge">
<title>Node19&#45;&gt;Node20</title>
<path fill="none" stroke="midnightblue" d="M2041,-235.43C2041,-201.75 2041,-77.99 2041,-30.1"/>
<polygon fill="midnightblue" stroke="midnightblue" points="2044.5,-29.9 2041,-19.9 2037.5,-29.9 2044.5,-29.9"/>
</g>
<!-- Node21 -->
<g id="node21" class="node">
<title>Node21</title>
<g id="a_node21"><a xlink:href="LogMacros_8hpp.html" target="_top" xlink:title=" ">
<polygon fill="white" stroke="black" points="1751,-179.5 1751,-198.5 1841,-198.5 1841,-179.5 1751,-179.5"/>
<text text-anchor="middle" x="1796" y="-186.5" font-family="Helvetica,sans-Serif" font-size="10.00">LogMacros.hpp</text>
</a>
</g>
</g>
<!-- Node19&#45;&gt;Node21 -->
<g id="edge26" class="edge">
<title>Node19&#45;&gt;Node21</title>
<path fill="none" stroke="midnightblue" d="M2002.18,-235.44C1959.44,-226.02 1890.67,-210.87 1844.43,-200.68"/>
<polygon fill="midnightblue" stroke="midnightblue" points="1845.16,-197.25 1834.64,-198.52 1843.65,-204.09 1845.16,-197.25"/>
</g>
<!-- Node22 -->
<g id="node22" class="node">
<title>Node22</title>
<g id="a_node22"><a xlink:href="fmt_8hpp.html" target="_top" xlink:title=" ">
<polygon fill="white" stroke="red" points="1237.5,-62 1237.5,-81 1316.5,-81 1316.5,-62 1237.5,-62"/>
<text text-anchor="middle" x="1277" y="-69" font-family="Helvetica,sans-Serif" font-size="10.00">utils/fmt.hpp</text>
</a>
</g>
</g>
<!-- Node21&#45;&gt;Node22 -->
<g id="edge27" class="edge">
<title>Node21&#45;&gt;Node22</title>
<path fill="none" stroke="midnightblue" d="M1757.41,-179.41C1664.41,-158.72 1427.99,-106.1 1325.56,-83.31"/>
<polygon fill="midnightblue" stroke="midnightblue" points="1326.01,-79.82 1315.49,-81.06 1324.49,-86.65 1326.01,-79.82"/>
</g>
<!-- Node33 -->
<g id="node23" class="node">
<title>Node33</title>
<g id="a_node23"><a xlink:href="ArgumentFormatter_8hpp.html" target="_top" xlink:title=" ">
<polygon fill="white" stroke="red" points="236.5,-123.5 236.5,-142.5 393.5,-142.5 393.5,-123.5 236.5,-123.5"/>
<text text-anchor="middle" x="315" y="-130.5" font-family="Helvetica,sans-Serif" font-size="10.00">utils/ArgumentFormatter.hpp</text>
</a>
</g>
</g>
<!-- Node21&#45;&gt;Node33 -->
<g id="edge30" class="edge">
<title>Node21&#45;&gt;Node33</title>
<path fill="none" stroke="midnightblue" d="M1750.91,-186.04C1707.21,-184.16 1639.07,-181.28 1580,-179 1138.66,-161.96 610.6,-143.94 404.02,-136.98"/>
<polygon fill="midnightblue" stroke="midnightblue" points="403.94,-133.48 393.83,-136.64 403.71,-140.47 403.94,-133.48"/>
</g>
<!-- Node39 -->
<g id="node26" class="node">
<title>Node39</title>
<g id="a_node26"><a xlink:href="Tracer_8hpp.html" target="_top" xlink:title=" ">
<polygon fill="white" stroke="black" points="1862.5,-123.5 1862.5,-142.5 1967.5,-142.5 1967.5,-123.5 1862.5,-123.5"/>
<text text-anchor="middle" x="1915" y="-130.5" font-family="Helvetica,sans-Serif" font-size="10.00">logging/Tracer.hpp</text>
</a>
</g>
</g>
<!-- Node21&#45;&gt;Node39 -->
<g id="edge34" class="edge">
<title>Node21&#45;&gt;Node39</title>
<path fill="none" stroke="midnightblue" d="M1814.86,-179.44C1834.27,-170.64 1864.73,-156.81 1886.96,-146.72"/>
<polygon fill="midnightblue" stroke="midnightblue" points="1888.57,-149.84 1896.23,-142.52 1885.68,-143.46 1888.57,-149.84"/>
</g>
<!-- Node22&#45;&gt;Node7 -->
<g id="edge28" class="edge">
<title>Node22&#45;&gt;Node7</title>
<path fill="none" stroke="midnightblue" d="M1267.26,-61.98C1256.65,-52.7 1239.48,-37.67 1226.52,-26.33"/>
<polygon fill="midnightblue" stroke="midnightblue" points="1228.56,-23.46 1218.72,-19.51 1223.95,-28.73 1228.56,-23.46"/>
</g>
<!-- Node22&#45;&gt;Node20 -->
<g id="edge29" class="edge">
<title>Node22&#45;&gt;Node20</title>
<path fill="none" stroke="midnightblue" d="M1316.73,-67.41C1445.99,-57.34 1854.21,-25.55 1993.72,-14.68"/>
<polygon fill="midnightblue" stroke="midnightblue" points="1994.37,-18.14 2004.06,-13.88 1993.82,-11.16 1994.37,-18.14"/>
</g>
<!-- Node33&#45;&gt;Node22 -->
<g id="edge33" class="edge">
<title>Node33&#45;&gt;Node22</title>
<path fill="none" stroke="midnightblue" d="M393.72,-127.13C584.98,-115.3 1069.88,-85.31 1227.02,-75.59"/>
<polygon fill="midnightblue" stroke="midnightblue" points="1227.56,-79.06 1237.32,-74.95 1227.13,-72.08 1227.56,-79.06"/>
</g>
<!-- Node34 -->
<g id="node24" class="node">
<title>Node34</title>
<g id="a_node24"><a xlink:title=" ">
<polygon fill="white" stroke="#bfbfbf" points="119,-56.5 119,-86.5 229,-86.5 229,-56.5 119,-56.5"/>
<text text-anchor="start" x="127" y="-74.5" font-family="Helvetica,sans-Serif" font-size="10.00">boost/preprocessor</text>
<text text-anchor="middle" x="174" y="-63.5" font-family="Helvetica,sans-Serif" font-size="10.00">/control/if.hpp</text>
</a>
</g>
</g>
<!-- Node33&#45;&gt;Node34 -->
<g id="edge31" class="edge">
<title>Node33&#45;&gt;Node34</title>
<path fill="none" stroke="midnightblue" d="M294.8,-123.48C274.45,-114.89 242.44,-101.38 216.49,-90.43"/>
<polygon fill="midnightblue" stroke="midnightblue" points="217.8,-87.19 207.23,-86.52 215.08,-93.64 217.8,-87.19"/>
</g>
<!-- Node36 -->
<g id="node25" class="node">
<title>Node36</title>
<g id="a_node25"><a xlink:title=" ">
<polygon fill="white" stroke="#bfbfbf" points="255,-56.5 255,-86.5 365,-86.5 365,-56.5 255,-56.5"/>
<text text-anchor="start" x="263" y="-74.5" font-family="Helvetica,sans-Serif" font-size="10.00">boost/preprocessor</text>
<text text-anchor="middle" x="310" y="-63.5" font-family="Helvetica,sans-Serif" font-size="10.00">/stringize.hpp</text>
</a>
</g>
</g>
<!-- Node33&#45;&gt;Node36 -->
<g id="edge32" class="edge">
<title>Node33&#45;&gt;Node36</title>
<path fill="none" stroke="midnightblue" d="M314.28,-123.48C313.7,-116.47 312.83,-106.19 312.03,-96.7"/>
<polygon fill="midnightblue" stroke="midnightblue" points="315.5,-96.19 311.18,-86.52 308.53,-96.78 315.5,-96.19"/>
</g>
<!-- Node39&#45;&gt;Node19 -->
<g id="edge35" class="edge">
<title>Node39&#45;&gt;Node19</title>
<path fill="none" stroke="midnightblue" d="M1924.84,-142.59C1946.05,-161.11 1996.34,-205.01 2023.26,-228.51"/>
<polygon fill="midnightblue" stroke="midnightblue" points="2021.28,-231.43 2031.11,-235.37 2025.88,-226.16 2021.28,-231.43"/>
</g>
<!-- Node40&#45;&gt;Node2 -->
<g id="edge37" class="edge">
<title>Node40&#45;&gt;Node2</title>
<path fill="none" stroke="midnightblue" d="M1201.96,-296.98C1185.95,-287.25 1159.55,-271.23 1140.63,-259.74"/>
<polygon fill="midnightblue" stroke="midnightblue" points="1142.38,-256.71 1132.01,-254.51 1138.75,-262.69 1142.38,-256.71"/>
</g>
<!-- Node43&#45;&gt;Node20 -->
<g id="edge42" class="edge">
<title>Node43&#45;&gt;Node20</title>
<path fill="none" stroke="midnightblue" d="M838.62,-366.05C1083.27,-361.62 2082.91,-342.29 2108,-322 2135.08,-300.11 2127,-280.82 2127,-246 2127,-246 2127,-246 2127,-132 2127,-86.62 2086.31,-46.42 2060.91,-25.74"/>
<polygon fill="midnightblue" stroke="midnightblue" points="2062.98,-22.92 2052.96,-19.5 2058.66,-28.43 2062.98,-22.92"/>
</g>
<!-- Node43&#45;&gt;Node22 -->
<g id="edge43" class="edge">
<title>Node43&#45;&gt;Node22</title>
<path fill="none" stroke="midnightblue" d="M838.69,-360.95C876.15,-355.03 926.34,-343.61 966,-322 983.67,-312.37 983.74,-304.12 999,-291 1092.61,-210.52 1210.69,-121.65 1257.04,-87.24"/>
<polygon fill="midnightblue" stroke="midnightblue" points="1259.37,-89.86 1265.32,-81.1 1255.2,-84.24 1259.37,-89.86"/>
</g>
<!-- Node43&#45;&gt;Node33 -->
<g id="edge49" class="edge">
<title>Node43&#45;&gt;Node33</title>
<path fill="none" stroke="midnightblue" d="M731.16,-363.9C608.41,-356.59 317.27,-337.67 303,-322 259.7,-274.47 289.98,-189.07 306.37,-151.99"/>
<polygon fill="midnightblue" stroke="midnightblue" points="309.73,-153.06 310.73,-142.51 303.37,-150.13 309.73,-153.06"/>
</g>
<!-- Node43&#45;&gt;Node34 -->
<g id="edge46" class="edge">
<title>Node43&#45;&gt;Node34</title>
<path fill="none" stroke="midnightblue" d="M731.08,-365.32C598.72,-360.83 265.37,-347.14 222,-322 186.59,-301.48 170,-286.93 170,-246 170,-246 170,-246 170,-188 170,-156.48 171.51,-120.14 172.67,-96.77"/>
<polygon fill="midnightblue" stroke="midnightblue" points="176.17,-96.89 173.19,-86.72 169.18,-96.53 176.17,-96.89"/>
</g>
<!-- Node43&#45;&gt;Node36 -->
<g id="edge47" class="edge">
<title>Node43&#45;&gt;Node36</title>
<path fill="none" stroke="midnightblue" d="M731.29,-364.31C609.9,-357.91 321.83,-340.95 282,-322 239.43,-301.75 208,-293.14 208,-246 208,-246 208,-246 208,-188 208,-157.9 208.68,-146.88 227,-123 237.11,-109.83 251.71,-99.32 265.86,-91.37"/>
<polygon fill="midnightblue" stroke="midnightblue" points="267.84,-94.28 275.04,-86.52 264.57,-88.1 267.84,-94.28"/>
</g>
<!-- Node44 -->
<g id="node30" class="node">
<title>Node44</title>
<g id="a_node30"><a xlink:title=" ">
<polygon fill="white" stroke="#bfbfbf" points="829.5,-297 829.5,-316 878.5,-316 878.5,-297 829.5,-297"/>
<text text-anchor="middle" x="854" y="-304" font-family="Helvetica,sans-Serif" font-size="10.00">cstdlib</text>
</a>
</g>
</g>
<!-- Node43&#45;&gt;Node44 -->
<g id="edge40" class="edge">
<title>Node43&#45;&gt;Node44</title>
<path fill="none" stroke="midnightblue" d="M794.89,-358.48C805.65,-349.2 823.07,-334.17 836.22,-322.83"/>
<polygon fill="midnightblue" stroke="midnightblue" points="838.84,-325.19 844.13,-316.01 834.27,-319.89 838.84,-325.19"/>
</g>
<!-- Node45 -->
<g id="node31" class="node">
<title>Node45</title>
<g id="a_node31"><a xlink:title=" ">
<polygon fill="white" stroke="#bfbfbf" points="897,-297 897,-316 957,-316 957,-297 897,-297"/>
<text text-anchor="middle" x="927" y="-304" font-family="Helvetica,sans-Serif" font-size="10.00">iostream</text>
</a>
</g>
</g>
<!-- Node43&#45;&gt;Node45 -->
<g id="edge41" class="edge">
<title>Node43&#45;&gt;Node45</title>
<path fill="none" stroke="midnightblue" d="M805.35,-358.48C829.39,-348.4 869.6,-331.55 897.16,-320"/>
<polygon fill="midnightblue" stroke="midnightblue" points="898.82,-323.1 906.69,-316.01 896.12,-316.65 898.82,-323.1"/>
</g>
<!-- Node46 -->
<g id="node32" class="node">
<title>Node46</title>
<g id="a_node32"><a xlink:title=" ">
<polygon fill="white" stroke="#bfbfbf" points="312.5,-297 312.5,-316 459.5,-316 459.5,-297 312.5,-297"/>
<text text-anchor="middle" x="386" y="-304" font-family="Helvetica,sans-Serif" font-size="10.00">boost/current_function.hpp</text>
</a>
</g>
</g>
<!-- Node43&#45;&gt;Node46 -->
<g id="edge44" class="edge">
<title>Node43&#45;&gt;Node46</title>
<path fill="none" stroke="midnightblue" d="M731.35,-359.95C668.24,-351.53 560.36,-336.72 468,-322 459.79,-320.69 451.13,-319.24 442.64,-317.77"/>
<polygon fill="midnightblue" stroke="midnightblue" points="443.24,-314.33 432.79,-316.06 442.04,-321.22 443.24,-314.33"/>
</g>
<!-- Node47 -->
<g id="node33" class="node">
<title>Node47</title>
<g id="a_node33"><a xlink:title=" ">
<polygon fill="white" stroke="#bfbfbf" points="477.5,-291.5 477.5,-321.5 612.5,-321.5 612.5,-291.5 477.5,-291.5"/>
<text text-anchor="start" x="485.5" y="-309.5" font-family="Helvetica,sans-Serif" font-size="10.00">boost/preprocessor</text>
<text text-anchor="middle" x="545" y="-298.5" font-family="Helvetica,sans-Serif" font-size="10.00">/comparison/greater.hpp</text>
</a>
</g>
</g>
<!-- Node43&#45;&gt;Node47 -->
<g id="edge45" class="edge">
<title>Node43&#45;&gt;Node47</title>
<path fill="none" stroke="midnightblue" d="M750.61,-358.48C714.39,-349.49 656.44,-335.13 611.28,-323.93"/>
<polygon fill="midnightblue" stroke="midnightblue" points="612.11,-320.53 601.56,-321.52 610.43,-327.33 612.11,-320.53"/>
</g>
<!-- Node48 -->
<g id="node34" class="node">
<title>Node48</title>
<g id="a_node34"><a xlink:title=" ">
<polygon fill="white" stroke="#bfbfbf" points="631,-291.5 631,-321.5 741,-321.5 741,-291.5 631,-291.5"/>
<text text-anchor="start" x="639" y="-309.5" font-family="Helvetica,sans-Serif" font-size="10.00">boost/preprocessor</text>
<text text-anchor="middle" x="686" y="-298.5" font-family="Helvetica,sans-Serif" font-size="10.00">/variadic/size.hpp</text>
</a>
</g>
</g>
<!-- Node43&#45;&gt;Node48 -->
<g id="edge48" class="edge">
<title>Node43&#45;&gt;Node48</title>
<path fill="none" stroke="midnightblue" d="M770.82,-358.48C757.16,-350.27 736.01,-337.56 718.25,-326.88"/>
<polygon fill="midnightblue" stroke="midnightblue" points="719.71,-323.67 709.33,-321.52 716.1,-329.67 719.71,-323.67"/>
</g>
<!-- Node49 -->
<g id="node35" class="node">
<title>Node49</title>
<g id="a_node35"><a xlink:href="Parallel_8hpp.html" target="_top" xlink:title=" ">
<polygon fill="white" stroke="red" points="1399,-297 1399,-316 1497,-316 1497,-297 1399,-297"/>
<text text-anchor="middle" x="1448" y="-304" font-family="Helvetica,sans-Serif" font-size="10.00">utils/Parallel.hpp</text>
</a>
</g>
</g>
<!-- Node43&#45;&gt;Node49 -->
<g id="edge50" class="edge">
<title>Node43&#45;&gt;Node49</title>
<path fill="none" stroke="midnightblue" d="M838.69,-362.18C961.3,-351.18 1261.1,-324.27 1388.82,-312.81"/>
<polygon fill="midnightblue" stroke="midnightblue" points="1389.16,-316.29 1398.81,-311.91 1388.54,-309.32 1389.16,-316.29"/>
</g>
<!-- Node52 -->
<g id="node36" class="node">
<title>Node52</title>
<g id="a_node36"><a xlink:href="stacktrace_8hpp.html" target="_top" xlink:title=" ">
<polygon fill="white" stroke="black" points="28.5,-123.5 28.5,-142.5 141.5,-142.5 141.5,-123.5 28.5,-123.5"/>
<text text-anchor="middle" x="85" y="-130.5" font-family="Helvetica,sans-Serif" font-size="10.00">utils/stacktrace.hpp</text>
</a>
</g>
</g>
<!-- Node43&#45;&gt;Node52 -->
<g id="edge57" class="edge">
<title>Node43&#45;&gt;Node52</title>
<path fill="none" stroke="midnightblue" d="M731.5,-364.74C583.66,-358.27 178.93,-339.09 156,-322 100.99,-280.99 88.6,-192.05 85.81,-153.01"/>
<polygon fill="midnightblue" stroke="midnightblue" points="89.28,-152.39 85.22,-142.61 82.29,-152.79 89.28,-152.39"/>
</g>
<!-- Node53 -->
<g id="node37" class="node">
<title>Node53</title>
<g id="a_node37"><a xlink:title=" ">
<polygon fill="white" stroke="#bfbfbf" points="759,-297 759,-316 811,-316 811,-297 759,-297"/>
<text text-anchor="middle" x="785" y="-304" font-family="Helvetica,sans-Serif" font-size="10.00">cassert</text>
</a>
</g>
</g>
<!-- Node43&#45;&gt;Node53 -->
<g id="edge59" class="edge">
<title>Node43&#45;&gt;Node53</title>
<path fill="none" stroke="midnightblue" d="M785,-358.48C785,-350.08 785,-336.98 785,-326.16"/>
<polygon fill="midnightblue" stroke="midnightblue" points="788.5,-326.01 785,-316.01 781.5,-326.01 788.5,-326.01"/>
</g>
<!-- Node49&#45;&gt;Node7 -->
<g id="edge53" class="edge">
<title>Node49&#45;&gt;Node7</title>
<path fill="none" stroke="midnightblue" d="M1447.05,-296.94C1445.13,-282.87 1439.75,-254.49 1426,-235 1362.86,-145.52 1290.1,-177.88 1229,-87 1217.48,-69.87 1212.59,-46.45 1210.52,-30.15"/>
<polygon fill="midnightblue" stroke="midnightblue" points="1213.95,-29.32 1209.45,-19.73 1206.99,-30.04 1213.95,-29.32"/>
</g>
<!-- Node49&#45;&gt;Node9 -->
<g id="edge54" class="edge">
<title>Node49&#45;&gt;Node9</title>
<path fill="none" stroke="midnightblue" d="M1467.2,-296.98C1489.79,-286.95 1527.5,-270.2 1553.5,-258.65"/>
<polygon fill="midnightblue" stroke="midnightblue" points="1555.12,-261.77 1562.84,-254.51 1552.28,-255.37 1555.12,-261.77"/>
</g>
<!-- Node49&#45;&gt;Node13 -->
<g id="edge51" class="edge">
<title>Node49&#45;&gt;Node13</title>
<path fill="none" stroke="midnightblue" d="M1455.07,-296.82C1470.65,-277.67 1508.19,-231.54 1528.47,-206.63"/>
<polygon fill="midnightblue" stroke="midnightblue" points="1531.26,-208.75 1534.85,-198.78 1525.83,-204.33 1531.26,-208.75"/>
</g>
<!-- Node49&#45;&gt;Node14 -->
<g id="edge56" class="edge">
<title>Node49&#45;&gt;Node14</title>
<path fill="none" stroke="midnightblue" d="M1480.98,-296.95C1489.44,-294.88 1498.53,-292.76 1507,-291 1575.59,-276.72 1654.94,-263.61 1708.39,-255.27"/>
<polygon fill="midnightblue" stroke="midnightblue" points="1709.05,-258.71 1718.39,-253.71 1707.97,-251.79 1709.05,-258.71"/>
</g>
<!-- Node49&#45;&gt;Node18 -->
<g id="edge52" class="edge">
<title>Node49&#45;&gt;Node18</title>
<path fill="none" stroke="midnightblue" d="M1439.55,-296.98C1430.43,-287.78 1415.73,-272.96 1404.52,-261.66"/>
<polygon fill="midnightblue" stroke="midnightblue" points="1406.96,-259.15 1397.44,-254.51 1401.99,-264.07 1406.96,-259.15"/>
</g>
<!-- Node49&#45;&gt;Node19 -->
<g id="edge55" class="edge">
<title>Node49&#45;&gt;Node19</title>
<path fill="none" stroke="midnightblue" d="M1478.73,-296.93C1487.77,-294.69 1497.73,-292.48 1507,-291 1711.07,-258.35 1767.55,-277.24 1976.33,-255.11"/>
<polygon fill="midnightblue" stroke="midnightblue" points="1976.83,-258.58 1986.39,-254.02 1976.07,-251.62 1976.83,-258.58"/>
</g>
<!-- Node52&#45;&gt;Node7 -->
<g id="edge58" class="edge">
<title>Node52&#45;&gt;Node7</title>
<path fill="none" stroke="midnightblue" d="M84.92,-123.14C85.3,-106.79 88.72,-72.07 110,-56 153.63,-23.04 999.12,-13.04 1176.52,-11.29"/>
<polygon fill="midnightblue" stroke="midnightblue" points="1176.58,-14.79 1186.55,-11.2 1176.51,-7.8 1176.58,-14.79"/>
</g>
<!-- Node54&#45;&gt;Node2 -->
<g id="edge61" class="edge">
<title>Node54&#45;&gt;Node2</title>
<path fill="none" stroke="midnightblue" d="M400.55,-358.47C342.15,-348.07 268.7,-327.24 303,-291 329.64,-262.85 906.2,-249.94 1073.11,-246.79"/>
<polygon fill="midnightblue" stroke="midnightblue" points="1073.57,-250.28 1083.5,-246.6 1073.44,-243.28 1073.57,-250.28"/>
</g>
<!-- Node55&#45;&gt;Node2 -->
<g id="edge64" class="edge">
<title>Node55&#45;&gt;Node2</title>
<path fill="none" stroke="midnightblue" d="M806.09,-414.48C844.37,-398.04 930.07,-360.15 999,-322 1034.6,-302.3 1074.05,-276.2 1097.41,-260.28"/>
<polygon fill="midnightblue" stroke="midnightblue" points="1099.54,-263.06 1105.81,-254.51 1095.58,-257.28 1099.54,-263.06"/>
</g>
<!-- Node55&#45;&gt;Node43 -->
<g id="edge65" class="edge">
<title>Node55&#45;&gt;Node43</title>
<path fill="none" stroke="midnightblue" d="M785.83,-414.08C785.7,-407.01 785.52,-396.86 785.35,-387.99"/>
<polygon fill="midnightblue" stroke="midnightblue" points="788.85,-387.68 785.16,-377.75 781.85,-387.81 788.85,-387.68"/>
</g>
<!-- Node56&#45;&gt;Node55 -->
<g id="edge68" class="edge">
<title>Node56&#45;&gt;Node55</title>
<path fill="none" stroke="midnightblue" d="M952.63,-470.44C918.74,-461.2 864.6,-446.44 827.28,-436.26"/>
<polygon fill="midnightblue" stroke="midnightblue" points="827.8,-432.77 817.23,-433.52 825.95,-439.52 827.8,-432.77"/>
</g>
<!-- Node57 -->
<g id="node41" class="node">
<title>Node57</title>
<g id="a_node41"><a xlink:href="constants_8hpp.html" target="_top" xlink:title=" ">
<polygon fill="white" stroke="black" points="864.5,-414.5 864.5,-433.5 977.5,-433.5 977.5,-414.5 864.5,-414.5"/>
<text text-anchor="middle" x="921" y="-421.5" font-family="Helvetica,sans-Serif" font-size="10.00">math/constants.hpp</text>
</a>
</g>
</g>
<!-- Node56&#45;&gt;Node57 -->
<g id="edge67" class="edge">
<title>Node56&#45;&gt;Node57</title>
<path fill="none" stroke="midnightblue" d="M973.88,-470.32C964.47,-462.26 950.26,-450.08 938.93,-440.37"/>
<polygon fill="midnightblue" stroke="midnightblue" points="941.18,-437.68 931.31,-433.83 936.62,-443 941.18,-437.68"/>
</g>
<!-- Node58 -->
<g id="node42" class="node">
<title>Node58</title>
<g id="a_node42"><a xlink:href="la_8hpp.html" target="_top" xlink:title=" ">
<polygon fill="white" stroke="black" points="995.5,-414.5 995.5,-433.5 1070.5,-433.5 1070.5,-414.5 995.5,-414.5"/>
<text text-anchor="middle" x="1033" y="-421.5" font-family="Helvetica,sans-Serif" font-size="10.00">math/la.hpp</text>
</a>
</g>
</g>
<!-- Node56&#45;&gt;Node58 -->
<g id="edge69" class="edge">
<title>Node56&#45;&gt;Node58</title>
<path fill="none" stroke="midnightblue" d="M992.09,-470.08C999.16,-462.3 1009.59,-450.8 1018.15,-441.37"/>
<polygon fill="midnightblue" stroke="midnightblue" points="1020.93,-443.51 1025.06,-433.75 1015.75,-438.8 1020.93,-443.51"/>
</g>
<!-- Node58&#45;&gt;Node2 -->
<g id="edge70" class="edge">
<title>Node58&#45;&gt;Node2</title>
<path fill="none" stroke="midnightblue" d="M1035.56,-414.32C1042.12,-392.7 1060.73,-335 1085,-291 1090.5,-281.03 1097.9,-270.73 1104.3,-262.51"/>
<polygon fill="midnightblue" stroke="midnightblue" points="1107.19,-264.5 1110.72,-254.51 1101.73,-260.12 1107.19,-264.5"/>
</g>
<!-- Node58&#45;&gt;Node43 -->
<g id="edge71" class="edge">
<title>Node58&#45;&gt;Node43</title>
<path fill="none" stroke="midnightblue" d="M995.33,-414.8C952.29,-405.43 881.68,-390.05 834.29,-379.73"/>
<polygon fill="midnightblue" stroke="midnightblue" points="834.77,-376.25 824.25,-377.55 833.28,-383.09 834.77,-376.25"/>
</g>
<!-- Node59&#45;&gt;Node2 -->
<g id="edge73" class="edge">
<title>Node59&#45;&gt;Node2</title>
<path fill="none" stroke="midnightblue" d="M2006.76,-296.98C1996.3,-294.68 1984.73,-292.43 1974,-291 1893.49,-280.24 1327.68,-255.1 1162.92,-247.94"/>
<polygon fill="midnightblue" stroke="midnightblue" points="1162.8,-244.43 1152.65,-247.49 1162.49,-251.42 1162.8,-244.43"/>
</g>
<!-- Node59&#45;&gt;Node12 -->
<g id="edge75" class="edge">
<title>Node59&#45;&gt;Node12</title>
<path fill="none" stroke="midnightblue" d="M2021.37,-296.98C1998.18,-286.9 1959.38,-270.05 1932.79,-258.5"/>
<polygon fill="midnightblue" stroke="midnightblue" points="1934.16,-255.28 1923.59,-254.51 1931.37,-261.7 1934.16,-255.28"/>
</g>
<!-- Node59&#45;&gt;Node14 -->
<g id="edge83" class="edge">
<title>Node59&#45;&gt;Node14</title>
<path fill="none" stroke="midnightblue" d="M2002.17,-296.98C1953.88,-286.37 1871.39,-268.26 1818.85,-256.72"/>
<polygon fill="midnightblue" stroke="midnightblue" points="1819.27,-253.24 1808.76,-254.51 1817.77,-260.07 1819.27,-253.24"/>
</g>
<!-- Node59&#45;&gt;Node19 -->
<g id="edge76" class="edge">
<title>Node59&#45;&gt;Node19</title>
<path fill="none" stroke="midnightblue" d="M2041,-296.98C2041,-288.58 2041,-275.48 2041,-264.66"/>
<polygon fill="midnightblue" stroke="midnightblue" points="2044.5,-264.51 2041,-254.51 2037.5,-264.51 2044.5,-264.51"/>
</g>
<!-- Node60 -->
<g id="node44" class="node">
<title>Node60</title>
<g id="a_node44"><a xlink:title=" ">
<polygon fill="white" stroke="#bfbfbf" points="2309.5,-235.5 2309.5,-254.5 2438.5,-254.5 2438.5,-235.5 2309.5,-235.5"/>
<text text-anchor="middle" x="2374" y="-242.5" font-family="Helvetica,sans-Serif" font-size="10.00">boost/range/irange.hpp</text>
</a>
</g>
</g>
<!-- Node59&#45;&gt;Node60 -->
<g id="edge74" class="edge">
<title>Node59&#45;&gt;Node60</title>
<path fill="none" stroke="midnightblue" d="M2088.71,-296.98C2148.8,-286.24 2251.96,-267.81 2316.38,-256.29"/>
<polygon fill="midnightblue" stroke="midnightblue" points="2317.15,-259.71 2326.38,-254.51 2315.92,-252.82 2317.15,-259.71"/>
</g>
<!-- Node61 -->
<g id="node45" class="node">
<title>Node61</title>
<g id="a_node45"><a xlink:href="span_8hpp.html" target="_top" xlink:title=" ">
<polygon fill="white" stroke="black" points="2192.5,-235.5 2192.5,-254.5 2291.5,-254.5 2291.5,-235.5 2192.5,-235.5"/>
<text text-anchor="middle" x="2242" y="-242.5" font-family="Helvetica,sans-Serif" font-size="10.00">precice/span.hpp</text>
</a>
</g>
</g>
<!-- Node59&#45;&gt;Node61 -->
<g id="edge77" class="edge">
<title>Node59&#45;&gt;Node61</title>
<path fill="none" stroke="midnightblue" d="M2069.8,-296.98C2104.87,-286.59 2164.26,-269.01 2203.31,-257.45"/>
<polygon fill="midnightblue" stroke="midnightblue" points="2204.66,-260.7 2213.26,-254.51 2202.67,-253.99 2204.66,-260.7"/>
</g>
<!-- Node30 -->
<g id="node46" class="node">
<title>Node30</title>
<g id="a_node46"><a xlink:title=" ">
<polygon fill="white" stroke="#bfbfbf" points="2155,-179.5 2155,-198.5 2197,-198.5 2197,-179.5 2155,-179.5"/>
<text text-anchor="middle" x="2176" y="-186.5" font-family="Helvetica,sans-Serif" font-size="10.00">array</text>
</a>
</g>
</g>
<!-- Node61&#45;&gt;Node30 -->
<g id="edge78" class="edge">
<title>Node61&#45;&gt;Node30</title>
<path fill="none" stroke="midnightblue" d="M2231.4,-235.32C2221.54,-227.26 2206.65,-215.08 2194.78,-205.37"/>
<polygon fill="midnightblue" stroke="midnightblue" points="2196.75,-202.46 2186.8,-198.83 2192.32,-207.88 2196.75,-202.46"/>
</g>
<!-- Node62 -->
<g id="node47" class="node">
<title>Node62</title>
<g id="a_node47"><a xlink:title=" ">
<polygon fill="white" stroke="#bfbfbf" points="2215.5,-179.5 2215.5,-198.5 2268.5,-198.5 2268.5,-179.5 2215.5,-179.5"/>
<text text-anchor="middle" x="2242" y="-186.5" font-family="Helvetica,sans-Serif" font-size="10.00">cstddef</text>
</a>
</g>
</g>
<!-- Node61&#45;&gt;Node62 -->
<g id="edge79" class="edge">
<title>Node61&#45;&gt;Node62</title>
<path fill="none" stroke="midnightblue" d="M2242,-235.08C2242,-228.01 2242,-217.86 2242,-208.99"/>
<polygon fill="midnightblue" stroke="midnightblue" points="2245.5,-208.75 2242,-198.75 2238.5,-208.75 2245.5,-208.75"/>
</g>
<!-- Node63 -->
<g id="node48" class="node">
<title>Node63</title>
<g id="a_node48"><a xlink:title=" ">
<polygon fill="white" stroke="#bfbfbf" points="2287,-179.5 2287,-198.5 2337,-198.5 2337,-179.5 2287,-179.5"/>
<text text-anchor="middle" x="2312" y="-186.5" font-family="Helvetica,sans-Serif" font-size="10.00">cstdint</text>
</a>
</g>
</g>
<!-- Node61&#45;&gt;Node63 -->
<g id="edge80" class="edge">
<title>Node61&#45;&gt;Node63</title>
<path fill="none" stroke="midnightblue" d="M2253.25,-235.32C2263.8,-227.18 2279.8,-214.84 2292.44,-205.09"/>
<polygon fill="midnightblue" stroke="midnightblue" points="2294.77,-207.71 2300.55,-198.83 2290.49,-202.17 2294.77,-207.71"/>
</g>
<!-- Node64 -->
<g id="node49" class="node">
<title>Node64</title>
<g id="a_node49"><a xlink:title=" ">
<polygon fill="white" stroke="#bfbfbf" points="2355,-179.5 2355,-198.5 2405,-198.5 2405,-179.5 2355,-179.5"/>
<text text-anchor="middle" x="2380" y="-186.5" font-family="Helvetica,sans-Serif" font-size="10.00">cstring</text>
</a>
</g>
</g>
<!-- Node61&#45;&gt;Node64 -->
<g id="edge81" class="edge">
<title>Node61&#45;&gt;Node64</title>
<path fill="none" stroke="midnightblue" d="M2263.87,-235.44C2286.78,-226.48 2322.98,-212.31 2348.87,-202.18"/>
<polygon fill="midnightblue" stroke="midnightblue" points="2350.2,-205.42 2358.24,-198.52 2347.65,-198.9 2350.2,-205.42"/>
</g>
<!-- Node65 -->
<g id="node50" class="node">
<title>Node65</title>
<g id="a_node50"><a xlink:title=" ">
<polygon fill="white" stroke="#bfbfbf" points="2423.5,-179.5 2423.5,-198.5 2492.5,-198.5 2492.5,-179.5 2423.5,-179.5"/>
<text text-anchor="middle" x="2458" y="-186.5" font-family="Helvetica,sans-Serif" font-size="10.00">type_traits</text>
</a>
</g>
</g>
<!-- Node61&#45;&gt;Node65 -->
<g id="edge82" class="edge">
<title>Node61&#45;&gt;Node65</title>
<path fill="none" stroke="midnightblue" d="M2276.23,-235.44C2313.51,-226.12 2373.27,-211.18 2414.01,-201"/>
<polygon fill="midnightblue" stroke="midnightblue" points="2415.08,-204.34 2423.93,-198.52 2413.38,-197.55 2415.08,-204.34"/>
</g>
</g>
</svg>
