<?xml version="1.0" encoding="UTF-8" standalone="no"?>
<!DOCTYPE svg PUBLIC "-//W3C//DTD SVG 1.1//EN"
 "http://www.w3.org/Graphics/SVG/1.1/DTD/svg11.dtd">
<!-- Generated by graphviz version 2.43.0 (0)
 -->
<!-- Title: src/acceleration/impl/ResidualSumPreconditioner.cpp Pages: 1 -->
<svg width="2590pt" height="464pt"
 viewBox="0.00 0.00 2589.50 464.00" xmlns="http://www.w3.org/2000/svg" xmlns:xlink="http://www.w3.org/1999/xlink">
<g id="graph0" class="graph" transform="scale(1 1) rotate(0) translate(4 460)">
<title>src/acceleration/impl/ResidualSumPreconditioner.cpp</title>
<polygon fill="white" stroke="transparent" points="-4,4 -4,-460 2585.5,-460 2585.5,4 -4,4"/>
<!-- Node1 -->
<g id="node1" class="node">
<title>Node1</title>
<g id="a_node1"><a xlink:title=" ">
<polygon fill="#bfbfbf" stroke="black" points="884.5,-425.5 884.5,-455.5 1057.5,-455.5 1057.5,-425.5 884.5,-425.5"/>
<text text-anchor="start" x="892.5" y="-443.5" font-family="Helvetica,sans-Serif" font-size="10.00">src/acceleration/impl</text>
<text text-anchor="middle" x="971" y="-432.5" font-family="Helvetica,sans-Serif" font-size="10.00">/ResidualSumPreconditioner.cpp</text>
</a>
</g>
</g>
<!-- Node2 -->
<g id="node2" class="node">
<title>Node2</title>
<g id="a_node2"><a xlink:href="ResidualSumPreconditioner_8hpp.html" target="_top" xlink:title=" ">
<polygon fill="white" stroke="black" points="269,-358.5 269,-388.5 415,-388.5 415,-358.5 269,-358.5"/>
<text text-anchor="start" x="277" y="-376.5" font-family="Helvetica,sans-Serif" font-size="10.00">acceleration/impl/Residual</text>
<text text-anchor="middle" x="342" y="-365.5" font-family="Helvetica,sans-Serif" font-size="10.00">SumPreconditioner.hpp</text>
</a>
</g>
</g>
<!-- Node1&#45;&gt;Node2 -->
<g id="edge1" class="edge">
<title>Node1&#45;&gt;Node2</title>
<path fill="none" stroke="midnightblue" d="M884.2,-430.53C763.04,-418.01 544.69,-395.45 425.38,-383.12"/>
<polygon fill="midnightblue" stroke="midnightblue" points="425.52,-379.61 415.21,-382.07 424.8,-386.57 425.52,-379.61"/>
</g>
<!-- Node11 -->
<g id="node11" class="node">
<title>Node11</title>
<g id="a_node11"><a xlink:href="LogMacros_8hpp.html" target="_top" xlink:title=" ">
<polygon fill="white" stroke="black" points="643.5,-246.5 643.5,-265.5 772.5,-265.5 772.5,-246.5 643.5,-246.5"/>
<text text-anchor="middle" x="708" y="-253.5" font-family="Helvetica,sans-Serif" font-size="10.00">logging/LogMacros.hpp</text>
</a>
</g>
</g>
<!-- Node1&#45;&gt;Node11 -->
<g id="edge66" class="edge">
<title>Node1&#45;&gt;Node11</title>
<path fill="none" stroke="midnightblue" d="M950.8,-425.48C902,-391.62 778.06,-305.62 728.72,-271.38"/>
<polygon fill="midnightblue" stroke="midnightblue" points="730.63,-268.44 720.42,-265.62 726.64,-274.19 730.63,-268.44"/>
</g>
<!-- Node17 -->
<g id="node17" class="node">
<title>Node17</title>
<g id="a_node17"><a xlink:title=" ">
<polygon fill="white" stroke="#bfbfbf" points="0,-0.5 0,-19.5 64,-19.5 64,-0.5 0,-0.5"/>
<text text-anchor="middle" x="32" y="-7.5" font-family="Helvetica,sans-Serif" font-size="10.00">algorithm</text>
</a>
</g>
</g>
<!-- Node1&#45;&gt;Node17 -->
<g id="edge64" class="edge">
<title>Node1&#45;&gt;Node17</title>
<path fill="none" stroke="midnightblue" d="M884.4,-437.24C646.42,-429.9 0,-401.77 0,-313 0,-313 0,-313 0,-126.5 0,-90.93 14.27,-51.37 23.75,-29"/>
<polygon fill="midnightblue" stroke="midnightblue" points="26.99,-30.32 27.82,-19.76 20.59,-27.5 26.99,-30.32"/>
</g>
<!-- Node32 -->
<g id="node28" class="node">
<title>Node32</title>
<g id="a_node28"><a xlink:href="assertion_8hpp.html" target="_top" xlink:title=" ">
<polygon fill="white" stroke="black" points="1150.5,-246.5 1150.5,-265.5 1257.5,-265.5 1257.5,-246.5 1150.5,-246.5"/>
<text text-anchor="middle" x="1204" y="-253.5" font-family="Helvetica,sans-Serif" font-size="10.00">utils/assertion.hpp</text>
</a>
</g>
</g>
<!-- Node1&#45;&gt;Node32 -->
<g id="edge83" class="edge">
<title>Node1&#45;&gt;Node32</title>
<path fill="none" stroke="midnightblue" d="M970.93,-425.21C971.58,-407.53 975.16,-377.42 991,-358 1031.78,-308.01 1103.11,-281.29 1151.89,-268.13"/>
<polygon fill="midnightblue" stroke="midnightblue" points="1152.84,-271.5 1161.64,-265.61 1151.08,-264.73 1152.84,-271.5"/>
</g>
<!-- Node45 -->
<g id="node41" class="node">
<title>Node45</title>
<g id="a_node41"><a xlink:title=" ">
<polygon fill="white" stroke="#bfbfbf" points="999.5,-364 999.5,-383 1046.5,-383 1046.5,-364 999.5,-364"/>
<text text-anchor="middle" x="1023" y="-371" font-family="Helvetica,sans-Serif" font-size="10.00">cmath</text>
</a>
</g>
</g>
<!-- Node1&#45;&gt;Node45 -->
<g id="edge65" class="edge">
<title>Node1&#45;&gt;Node45</title>
<path fill="none" stroke="midnightblue" d="M982.28,-425.4C990.31,-415.36 1001.13,-401.84 1009.6,-391.25"/>
<polygon fill="midnightblue" stroke="midnightblue" points="1012.53,-393.19 1016.04,-383.19 1007.06,-388.82 1012.53,-393.19"/>
</g>
<!-- Node46 -->
<g id="node42" class="node">
<title>Node46</title>
<g id="a_node42"><a xlink:href="differences_8hpp.html" target="_top" xlink:title=" ">
<polygon fill="white" stroke="black" points="1144,-302.5 1144,-321.5 1264,-321.5 1264,-302.5 1144,-302.5"/>
<text text-anchor="middle" x="1204" y="-309.5" font-family="Helvetica,sans-Serif" font-size="10.00">math/differences.hpp</text>
</a>
</g>
</g>
<!-- Node1&#45;&gt;Node46 -->
<g id="edge67" class="edge">
<title>Node1&#45;&gt;Node46</title>
<path fill="none" stroke="midnightblue" d="M996.83,-425.48C1041.97,-400.97 1134.67,-350.64 1179.13,-326.5"/>
<polygon fill="midnightblue" stroke="midnightblue" points="1180.99,-329.48 1188.1,-321.63 1177.65,-323.33 1180.99,-329.48"/>
</g>
<!-- Node47 -->
<g id="node43" class="node">
<title>Node47</title>
<g id="a_node43"><a xlink:href="IntraComm_8hpp.html" target="_top" xlink:title=" ">
<polygon fill="white" stroke="black" points="2074,-185 2074,-204 2190,-204 2190,-185 2074,-185"/>
<text text-anchor="middle" x="2132" y="-192" font-family="Helvetica,sans-Serif" font-size="10.00">utils/IntraComm.hpp</text>
</a>
</g>
</g>
<!-- Node1&#45;&gt;Node47 -->
<g id="edge70" class="edge">
<title>Node1&#45;&gt;Node47</title>
<path fill="none" stroke="midnightblue" d="M1057.55,-433.93C1236.84,-420.44 1660.11,-378.41 1996,-266 2038.45,-251.79 2083.88,-225.79 2110.01,-209.64"/>
<polygon fill="midnightblue" stroke="midnightblue" points="2112.11,-212.46 2118.72,-204.18 2108.39,-206.53 2112.11,-212.46"/>
</g>
<!-- Node3 -->
<g id="node3" class="node">
<title>Node3</title>
<g id="a_node3"><a xlink:title=" ">
<polygon fill="white" stroke="#bfbfbf" points="443.5,-0.5 443.5,-19.5 512.5,-19.5 512.5,-0.5 443.5,-0.5"/>
<text text-anchor="middle" x="478" y="-7.5" font-family="Helvetica,sans-Serif" font-size="10.00">Eigen/Core</text>
</a>
</g>
</g>
<!-- Node2&#45;&gt;Node3 -->
<g id="edge2" class="edge">
<title>Node2&#45;&gt;Node3</title>
<path fill="none" stroke="midnightblue" d="M283.84,-358.47C234.95,-342.81 173,-312.08 173,-257 173,-257 173,-257 173,-193.5 173,-156.31 164.76,-137.32 192,-112 267.47,-41.86 330.75,-125.7 421,-76 441.25,-64.85 457.77,-43.58 467.71,-28.41"/>
<polygon fill="midnightblue" stroke="midnightblue" points="470.7,-30.24 473.03,-19.9 464.76,-26.53 470.7,-30.24"/>
</g>
<!-- Node4 -->
<g id="node4" class="node">
<title>Node4</title>
<g id="a_node4"><a xlink:title=" ">
<polygon fill="white" stroke="#bfbfbf" points="28,-302.5 28,-321.5 84,-321.5 84,-302.5 28,-302.5"/>
<text text-anchor="middle" x="56" y="-309.5" font-family="Helvetica,sans-Serif" font-size="10.00">stddef.h</text>
</a>
</g>
</g>
<!-- Node2&#45;&gt;Node4 -->
<g id="edge3" class="edge">
<title>Node2&#45;&gt;Node4</title>
<path fill="none" stroke="midnightblue" d="M273.61,-358.48C224.68,-348.41 157.26,-334.48 98,-322 96.73,-321.73 95.43,-321.46 94.13,-321.18"/>
<polygon fill="midnightblue" stroke="midnightblue" points="94.52,-317.69 84.01,-319.03 93.06,-324.53 94.52,-317.69"/>
</g>
<!-- Node5 -->
<g id="node5" class="node">
<title>Node5</title>
<g id="a_node5"><a xlink:title=" ">
<polygon fill="white" stroke="#bfbfbf" points="648,-56.5 648,-75.5 692,-75.5 692,-56.5 648,-56.5"/>
<text text-anchor="middle" x="670" y="-63.5" font-family="Helvetica,sans-Serif" font-size="10.00">string</text>
</a>
</g>
</g>
<!-- Node2&#45;&gt;Node5 -->
<g id="edge4" class="edge">
<title>Node2&#45;&gt;Node5</title>
<path fill="none" stroke="midnightblue" d="M389.02,-358.47C409.49,-350.46 432.51,-338.63 449,-322 521.4,-249 470.29,-181.56 546,-112 571.57,-88.51 610.35,-77.06 637.72,-71.62"/>
<polygon fill="midnightblue" stroke="midnightblue" points="638.39,-75.06 647.6,-69.83 637.14,-68.17 638.39,-75.06"/>
</g>
<!-- Node6 -->
<g id="node6" class="node">
<title>Node6</title>
<g id="a_node6"><a xlink:title=" ">
<polygon fill="white" stroke="#bfbfbf" points="151.5,-0.5 151.5,-19.5 198.5,-19.5 198.5,-0.5 151.5,-0.5"/>
<text text-anchor="middle" x="175" y="-7.5" font-family="Helvetica,sans-Serif" font-size="10.00">vector</text>
</a>
</g>
</g>
<!-- Node2&#45;&gt;Node6 -->
<g id="edge5" class="edge">
<title>Node2&#45;&gt;Node6</title>
<path fill="none" stroke="midnightblue" d="M280.51,-358.44C205.34,-337.18 88,-289.02 88,-195.5 88,-195.5 88,-195.5 88,-126.5 88,-82.97 127.91,-45.42 153.67,-25.72"/>
<polygon fill="midnightblue" stroke="midnightblue" points="155.81,-28.49 161.79,-19.74 151.66,-22.85 155.81,-28.49"/>
</g>
<!-- Node7 -->
<g id="node7" class="node">
<title>Node7</title>
<g id="a_node7"><a xlink:href="Preconditioner_8hpp.html" target="_top" xlink:title=" ">
<polygon fill="white" stroke="black" points="244.5,-302.5 244.5,-321.5 439.5,-321.5 439.5,-302.5 244.5,-302.5"/>
<text text-anchor="middle" x="342" y="-309.5" font-family="Helvetica,sans-Serif" font-size="10.00">acceleration/impl/Preconditioner.hpp</text>
</a>
</g>
</g>
<!-- Node2&#45;&gt;Node7 -->
<g id="edge6" class="edge">
<title>Node2&#45;&gt;Node7</title>
<path fill="none" stroke="midnightblue" d="M342,-358.4C342,-350.47 342,-340.46 342,-331.86"/>
<polygon fill="midnightblue" stroke="midnightblue" points="345.5,-331.66 342,-321.66 338.5,-331.66 345.5,-331.66"/>
</g>
<!-- Node31 -->
<g id="node27" class="node">
<title>Node31</title>
<g id="a_node27"><a xlink:href="Logger_8hpp.html" target="_top" xlink:title=" ">
<polygon fill="white" stroke="black" points="555,-118 555,-137 625,-137 625,-118 555,-118"/>
<text text-anchor="middle" x="590" y="-125" font-family="Helvetica,sans-Serif" font-size="10.00">Logger.hpp</text>
</a>
</g>
</g>
<!-- Node2&#45;&gt;Node31 -->
<g id="edge63" class="edge">
<title>Node2&#45;&gt;Node31</title>
<path fill="none" stroke="midnightblue" d="M409.28,-358.49C433.87,-350.84 460.63,-339.27 481,-322 538.82,-272.99 572.12,-185.14 584.46,-147.01"/>
<polygon fill="midnightblue" stroke="midnightblue" points="587.86,-147.84 587.5,-137.25 581.18,-145.75 587.86,-147.84"/>
</g>
<!-- Node7&#45;&gt;Node3 -->
<g id="edge7" class="edge">
<title>Node7&#45;&gt;Node3</title>
<path fill="none" stroke="midnightblue" d="M343.31,-302.3C348.03,-273.09 366.36,-176.72 411,-112 425.15,-91.48 439.65,-96.38 454,-76 463.95,-61.88 470.29,-43.14 473.94,-29.42"/>
<polygon fill="midnightblue" stroke="midnightblue" points="477.35,-30.21 476.3,-19.67 470.54,-28.56 477.35,-30.21"/>
</g>
<!-- Node7&#45;&gt;Node6 -->
<g id="edge8" class="edge">
<title>Node7&#45;&gt;Node6</title>
<path fill="none" stroke="midnightblue" d="M270.08,-302.49C207.24,-290.58 126,-262.26 126,-195.5 126,-195.5 126,-195.5 126,-126.5 126,-89.12 148.02,-49.96 162.54,-28.19"/>
<polygon fill="midnightblue" stroke="midnightblue" points="165.57,-29.95 168.39,-19.74 159.82,-25.97 165.57,-29.95"/>
</g>
<!-- Node8 -->
<g id="node8" class="node">
<title>Node8</title>
<g id="a_node8"><a xlink:href="cplscheme_2SharedPointer_8hpp.html" target="_top" xlink:title=" ">
<polygon fill="white" stroke="black" points="201.5,-118 201.5,-137 362.5,-137 362.5,-118 201.5,-118"/>
<text text-anchor="middle" x="282" y="-125" font-family="Helvetica,sans-Serif" font-size="10.00">cplscheme/SharedPointer.hpp</text>
</a>
</g>
</g>
<!-- Node7&#45;&gt;Node8 -->
<g id="edge9" class="edge">
<title>Node7&#45;&gt;Node8</title>
<path fill="none" stroke="midnightblue" d="M339.11,-302.2C329.86,-274.07 300.89,-185.96 288.13,-147.16"/>
<polygon fill="midnightblue" stroke="midnightblue" points="291.31,-145.62 284.86,-137.21 284.66,-147.81 291.31,-145.62"/>
</g>
<!-- Node7&#45;&gt;Node11 -->
<g id="edge12" class="edge">
<title>Node7&#45;&gt;Node11</title>
<path fill="none" stroke="midnightblue" d="M399.99,-302.44C465.31,-292.81 571.34,-277.16 640.37,-266.98"/>
<polygon fill="midnightblue" stroke="midnightblue" points="640.9,-270.44 650.28,-265.52 639.87,-263.51 640.9,-270.44"/>
</g>
<!-- Node7&#45;&gt;Node31 -->
<g id="edge39" class="edge">
<title>Node7&#45;&gt;Node31</title>
<path fill="none" stroke="midnightblue" d="M354.13,-302.44C366.85,-293.44 387.4,-278.82 405,-266 465.57,-221.87 536.52,-168.73 570.25,-143.37"/>
<polygon fill="midnightblue" stroke="midnightblue" points="572.48,-146.07 578.37,-137.26 568.27,-140.48 572.48,-146.07"/>
</g>
<!-- Node7&#45;&gt;Node32 -->
<g id="edge40" class="edge">
<title>Node7&#45;&gt;Node32</title>
<path fill="none" stroke="midnightblue" d="M439.62,-304.88C617.62,-293.73 990.31,-270.39 1139.87,-261.02"/>
<polygon fill="midnightblue" stroke="midnightblue" points="1140.49,-264.49 1150.25,-260.37 1140.05,-257.5 1140.49,-264.49"/>
</g>
<!-- Node9 -->
<g id="node9" class="node">
<title>Node9</title>
<g id="a_node9"><a xlink:title=" ">
<polygon fill="white" stroke="#bfbfbf" points="251,-0.5 251,-19.5 289,-19.5 289,-0.5 251,-0.5"/>
<text text-anchor="middle" x="270" y="-7.5" font-family="Helvetica,sans-Serif" font-size="10.00">map</text>
</a>
</g>
</g>
<!-- Node8&#45;&gt;Node9 -->
<g id="edge10" class="edge">
<title>Node8&#45;&gt;Node9</title>
<path fill="none" stroke="midnightblue" d="M244.68,-117.88C222.6,-110.66 196.4,-97.88 183,-76 166.29,-48.73 209.93,-29.06 241.27,-18.89"/>
<polygon fill="midnightblue" stroke="midnightblue" points="242.4,-22.21 250.93,-15.92 240.34,-15.51 242.4,-22.21"/>
</g>
<!-- Node10 -->
<g id="node10" class="node">
<title>Node10</title>
<g id="a_node10"><a xlink:title=" ">
<polygon fill="white" stroke="#bfbfbf" points="1041,-56.5 1041,-75.5 1099,-75.5 1099,-56.5 1041,-56.5"/>
<text text-anchor="middle" x="1070" y="-63.5" font-family="Helvetica,sans-Serif" font-size="10.00">memory</text>
</a>
</g>
</g>
<!-- Node8&#45;&gt;Node10 -->
<g id="edge11" class="edge">
<title>Node8&#45;&gt;Node10</title>
<path fill="none" stroke="midnightblue" d="M352.91,-117.96C371.78,-115.85 392.15,-113.7 411,-112 645.68,-90.81 928.19,-74.64 1030.55,-69.09"/>
<polygon fill="midnightblue" stroke="midnightblue" points="1030.94,-72.57 1040.73,-68.54 1030.56,-65.58 1030.94,-72.57"/>
</g>
<!-- Node12 -->
<g id="node12" class="node">
<title>Node12</title>
<g id="a_node12"><a xlink:href="fmt_8hpp.html" target="_top" xlink:title=" ">
<polygon fill="white" stroke="black" points="419.5,-118 419.5,-137 498.5,-137 498.5,-118 419.5,-118"/>
<text text-anchor="middle" x="459" y="-125" font-family="Helvetica,sans-Serif" font-size="10.00">utils/fmt.hpp</text>
</a>
</g>
</g>
<!-- Node11&#45;&gt;Node12 -->
<g id="edge13" class="edge">
<title>Node11&#45;&gt;Node12</title>
<path fill="none" stroke="midnightblue" d="M643.39,-248.47C607.59,-242.55 563.48,-231.32 529,-210 502.79,-193.8 481.26,-164.57 469.28,-145.87"/>
<polygon fill="midnightblue" stroke="midnightblue" points="472.14,-143.85 463.91,-137.18 466.19,-147.52 472.14,-143.85"/>
</g>
<!-- Node24 -->
<g id="node20" class="node">
<title>Node24</title>
<g id="a_node20"><a xlink:href="ArgumentFormatter_8hpp.html" target="_top" xlink:title=" ">
<polygon fill="white" stroke="black" points="771.5,-185 771.5,-204 928.5,-204 928.5,-185 771.5,-185"/>
<text text-anchor="middle" x="850" y="-192" font-family="Helvetica,sans-Serif" font-size="10.00">utils/ArgumentFormatter.hpp</text>
</a>
</g>
</g>
<!-- Node11&#45;&gt;Node24 -->
<g id="edge27" class="edge">
<title>Node11&#45;&gt;Node24</title>
<path fill="none" stroke="midnightblue" d="M728.35,-246.48C752.39,-236.4 792.6,-219.55 820.16,-208"/>
<polygon fill="midnightblue" stroke="midnightblue" points="821.82,-211.1 829.69,-204.01 819.12,-204.65 821.82,-211.1"/>
</g>
<!-- Node30 -->
<g id="node26" class="node">
<title>Node30</title>
<g id="a_node26"><a xlink:href="Tracer_8hpp.html" target="_top" xlink:title=" ">
<polygon fill="white" stroke="black" points="609.5,-185 609.5,-204 714.5,-204 714.5,-185 609.5,-185"/>
<text text-anchor="middle" x="662" y="-192" font-family="Helvetica,sans-Serif" font-size="10.00">logging/Tracer.hpp</text>
</a>
</g>
</g>
<!-- Node11&#45;&gt;Node30 -->
<g id="edge34" class="edge">
<title>Node11&#45;&gt;Node30</title>
<path fill="none" stroke="midnightblue" d="M701.41,-246.48C694.51,-237.55 683.5,-223.31 674.87,-212.14"/>
<polygon fill="midnightblue" stroke="midnightblue" points="677.46,-209.78 668.58,-204.01 671.93,-214.06 677.46,-209.78"/>
</g>
<!-- Node12&#45;&gt;Node5 -->
<g id="edge14" class="edge">
<title>Node12&#45;&gt;Node5</title>
<path fill="none" stroke="midnightblue" d="M489.23,-117.98C528.75,-106.83 597.67,-87.4 638.03,-76.01"/>
<polygon fill="midnightblue" stroke="midnightblue" points="639.21,-79.32 647.88,-73.24 637.31,-72.58 639.21,-79.32"/>
</g>
<!-- Node13 -->
<g id="node13" class="node">
<title>Node13</title>
<g id="a_node13"><a xlink:title=" ">
<polygon fill="white" stroke="#bfbfbf" points="710.5,-56.5 710.5,-75.5 783.5,-75.5 783.5,-56.5 710.5,-56.5"/>
<text text-anchor="middle" x="747" y="-63.5" font-family="Helvetica,sans-Serif" font-size="10.00">string_view</text>
</a>
</g>
</g>
<!-- Node12&#45;&gt;Node13 -->
<g id="edge15" class="edge">
<title>Node12&#45;&gt;Node13</title>
<path fill="none" stroke="midnightblue" d="M498.74,-118.29C551.47,-107.39 644.41,-88.2 700.39,-76.63"/>
<polygon fill="midnightblue" stroke="midnightblue" points="701.31,-80.01 710.39,-74.56 699.89,-73.16 701.31,-80.01"/>
</g>
<!-- Node14 -->
<g id="node14" class="node">
<title>Node14</title>
<g id="a_node14"><a xlink:title=" ">
<polygon fill="white" stroke="#bfbfbf" points="324.5,-0.5 324.5,-19.5 403.5,-19.5 403.5,-0.5 324.5,-0.5"/>
<text text-anchor="middle" x="364" y="-7.5" font-family="Helvetica,sans-Serif" font-size="10.00">fmt/format.h</text>
</a>
</g>
</g>
<!-- Node12&#45;&gt;Node14 -->
<g id="edge16" class="edge">
<title>Node12&#45;&gt;Node14</title>
<path fill="none" stroke="midnightblue" d="M488.64,-117.94C528.26,-106.21 594.29,-85.51 601,-76 606.13,-68.74 606.67,-62.85 601,-56 595.02,-48.78 481.46,-29.64 413.74,-18.79"/>
<polygon fill="midnightblue" stroke="midnightblue" points="414.12,-15.31 403.69,-17.19 413.01,-22.22 414.12,-15.31"/>
</g>
<!-- Node15 -->
<g id="node15" class="node">
<title>Node15</title>
<g id="a_node15"><a xlink:title=" ">
<polygon fill="white" stroke="#bfbfbf" points="506,-56.5 506,-75.5 592,-75.5 592,-56.5 506,-56.5"/>
<text text-anchor="middle" x="549" y="-63.5" font-family="Helvetica,sans-Serif" font-size="10.00">fmt/ostream.h</text>
</a>
</g>
</g>
<!-- Node12&#45;&gt;Node15 -->
<g id="edge17" class="edge">
<title>Node12&#45;&gt;Node15</title>
<path fill="none" stroke="midnightblue" d="M471.89,-117.98C486.46,-108.34 510.4,-92.52 527.75,-81.05"/>
<polygon fill="midnightblue" stroke="midnightblue" points="529.72,-83.94 536.13,-75.51 525.86,-78.1 529.72,-83.94"/>
</g>
<!-- Node16 -->
<g id="node16" class="node">
<title>Node16</title>
<g id="a_node16"><a xlink:href="fmtEigen_8hpp.html" target="_top" xlink:title=" ">
<polygon fill="white" stroke="red" points="192,-56.5 192,-75.5 298,-75.5 298,-56.5 192,-56.5"/>
<text text-anchor="middle" x="245" y="-63.5" font-family="Helvetica,sans-Serif" font-size="10.00">utils/fmtEigen.hpp</text>
</a>
</g>
</g>
<!-- Node12&#45;&gt;Node16 -->
<g id="edge18" class="edge">
<title>Node12&#45;&gt;Node16</title>
<path fill="none" stroke="midnightblue" d="M428.34,-117.98C390.76,-107.53 326.96,-89.79 285.4,-78.23"/>
<polygon fill="midnightblue" stroke="midnightblue" points="286.18,-74.82 275.6,-75.51 284.3,-81.56 286.18,-74.82"/>
</g>
<!-- Node20 -->
<g id="node18" class="node">
<title>Node20</title>
<g id="a_node18"><a xlink:href="fmtSTL_8hpp.html" target="_top" xlink:title=" ">
<polygon fill="white" stroke="red" points="316,-56.5 316,-75.5 412,-75.5 412,-56.5 316,-56.5"/>
<text text-anchor="middle" x="364" y="-63.5" font-family="Helvetica,sans-Serif" font-size="10.00">utils/fmtSTL.hpp</text>
</a>
</g>
</g>
<!-- Node12&#45;&gt;Node20 -->
<g id="edge22" class="edge">
<title>Node12&#45;&gt;Node20</title>
<path fill="none" stroke="midnightblue" d="M445.39,-117.98C429.94,-108.3 404.51,-92.37 386.18,-80.89"/>
<polygon fill="midnightblue" stroke="midnightblue" points="387.92,-77.85 377.59,-75.51 384.2,-83.78 387.92,-77.85"/>
</g>
<!-- Node16&#45;&gt;Node3 -->
<g id="edge19" class="edge">
<title>Node16&#45;&gt;Node3</title>
<path fill="none" stroke="midnightblue" d="M281.92,-56.44C322.99,-46.92 389.34,-31.55 433.31,-21.36"/>
<polygon fill="midnightblue" stroke="midnightblue" points="434.2,-24.74 443.16,-19.08 432.62,-17.92 434.2,-24.74"/>
</g>
<!-- Node16&#45;&gt;Node14 -->
<g id="edge21" class="edge">
<title>Node16&#45;&gt;Node14</title>
<path fill="none" stroke="midnightblue" d="M263.86,-56.44C283.27,-47.64 313.73,-33.81 335.96,-23.72"/>
<polygon fill="midnightblue" stroke="midnightblue" points="337.57,-26.84 345.23,-19.52 334.68,-20.46 337.57,-26.84"/>
</g>
<!-- Node16&#45;&gt;Node17 -->
<g id="edge20" class="edge">
<title>Node16&#45;&gt;Node17</title>
<path fill="none" stroke="midnightblue" d="M211.25,-56.44C174.05,-47.01 114.16,-31.83 73.97,-21.64"/>
<polygon fill="midnightblue" stroke="midnightblue" points="74.75,-18.23 64.2,-19.16 73.03,-25.01 74.75,-18.23"/>
</g>
<!-- Node20&#45;&gt;Node6 -->
<g id="edge26" class="edge">
<title>Node20&#45;&gt;Node6</title>
<path fill="none" stroke="midnightblue" d="M334.05,-56.44C299.85,-46.67 244.05,-30.73 208.45,-20.56"/>
<polygon fill="midnightblue" stroke="midnightblue" points="209.11,-17.11 198.54,-17.73 207.19,-23.84 209.11,-17.11"/>
</g>
<!-- Node20&#45;&gt;Node9 -->
<g id="edge25" class="edge">
<title>Node20&#45;&gt;Node9</title>
<path fill="none" stroke="midnightblue" d="M348.9,-56.32C334.1,-47.82 311.31,-34.73 294.02,-24.8"/>
<polygon fill="midnightblue" stroke="midnightblue" points="295.48,-21.6 285.07,-19.65 291.99,-27.67 295.48,-21.6"/>
</g>
<!-- Node20&#45;&gt;Node14 -->
<g id="edge24" class="edge">
<title>Node20&#45;&gt;Node14</title>
<path fill="none" stroke="midnightblue" d="M364,-56.08C364,-49.01 364,-38.86 364,-29.99"/>
<polygon fill="midnightblue" stroke="midnightblue" points="367.5,-29.75 364,-19.75 360.5,-29.75 367.5,-29.75"/>
</g>
<!-- Node21 -->
<g id="node19" class="node">
<title>Node21</title>
<g id="a_node19"><a xlink:title=" ">
<polygon fill="white" stroke="#bfbfbf" points="1462,-0.5 1462,-19.5 1504,-19.5 1504,-0.5 1462,-0.5"/>
<text text-anchor="middle" x="1483" y="-7.5" font-family="Helvetica,sans-Serif" font-size="10.00">array</text>
</a>
</g>
</g>
<!-- Node20&#45;&gt;Node21 -->
<g id="edge23" class="edge">
<title>Node20&#45;&gt;Node21</title>
<path fill="none" stroke="midnightblue" d="M412,-61.5C437.28,-59.72 468.81,-57.6 497,-56 872.74,-34.72 1329.47,-16.83 1451.69,-12.18"/>
<polygon fill="midnightblue" stroke="midnightblue" points="1451.97,-15.67 1461.83,-11.79 1451.7,-8.68 1451.97,-15.67"/>
</g>
<!-- Node24&#45;&gt;Node12 -->
<g id="edge33" class="edge">
<title>Node24&#45;&gt;Node12</title>
<path fill="none" stroke="midnightblue" d="M798.63,-184.98C738.18,-174.94 634.79,-157.77 546,-143 533.96,-141 520.99,-138.84 508.83,-136.81"/>
<polygon fill="midnightblue" stroke="midnightblue" points="509.28,-133.34 498.85,-135.15 508.13,-140.24 509.28,-133.34"/>
</g>
<!-- Node25 -->
<g id="node21" class="node">
<title>Node25</title>
<g id="a_node21"><a xlink:title=" ">
<polygon fill="white" stroke="#bfbfbf" points="1189,-112.5 1189,-142.5 1299,-142.5 1299,-112.5 1189,-112.5"/>
<text text-anchor="start" x="1197" y="-130.5" font-family="Helvetica,sans-Serif" font-size="10.00">boost/preprocessor</text>
<text text-anchor="middle" x="1244" y="-119.5" font-family="Helvetica,sans-Serif" font-size="10.00">/control/if.hpp</text>
</a>
</g>
</g>
<!-- Node24&#45;&gt;Node25 -->
<g id="edge28" class="edge">
<title>Node24&#45;&gt;Node25</title>
<path fill="none" stroke="midnightblue" d="M914.73,-184.98C979.22,-176.17 1081.27,-161.4 1178.86,-143.14"/>
<polygon fill="midnightblue" stroke="midnightblue" points="1179.72,-146.54 1188.89,-141.25 1178.42,-139.66 1179.72,-146.54"/>
</g>
<!-- Node26 -->
<g id="node22" class="node">
<title>Node26</title>
<g id="a_node22"><a xlink:title=" ">
<polygon fill="white" stroke="#bfbfbf" points="931.5,-112.5 931.5,-142.5 1042.5,-142.5 1042.5,-112.5 931.5,-112.5"/>
<text text-anchor="start" x="939.5" y="-130.5" font-family="Helvetica,sans-Serif" font-size="10.00">boost/preprocessor</text>
<text text-anchor="middle" x="987" y="-119.5" font-family="Helvetica,sans-Serif" font-size="10.00">/seq/for_each_i.hpp</text>
</a>
</g>
</g>
<!-- Node24&#45;&gt;Node26 -->
<g id="edge29" class="edge">
<title>Node24&#45;&gt;Node26</title>
<path fill="none" stroke="midnightblue" d="M868.19,-184.87C888.48,-175.24 921.9,-159.39 948.13,-146.94"/>
<polygon fill="midnightblue" stroke="midnightblue" points="949.9,-149.98 957.43,-142.53 946.9,-143.65 949.9,-149.98"/>
</g>
<!-- Node27 -->
<g id="node23" class="node">
<title>Node27</title>
<g id="a_node23"><a xlink:title=" ">
<polygon fill="white" stroke="#bfbfbf" points="1061,-112.5 1061,-142.5 1171,-142.5 1171,-112.5 1061,-112.5"/>
<text text-anchor="start" x="1069" y="-130.5" font-family="Helvetica,sans-Serif" font-size="10.00">boost/preprocessor</text>
<text text-anchor="middle" x="1116" y="-119.5" font-family="Helvetica,sans-Serif" font-size="10.00">/stringize.hpp</text>
</a>
</g>
</g>
<!-- Node24&#45;&gt;Node27 -->
<g id="edge30" class="edge">
<title>Node24&#45;&gt;Node27</title>
<path fill="none" stroke="midnightblue" d="M885.05,-184.94C927.19,-174.64 998.79,-157.14 1051.11,-144.36"/>
<polygon fill="midnightblue" stroke="midnightblue" points="1052.09,-147.72 1060.98,-141.95 1050.43,-140.92 1052.09,-147.72"/>
</g>
<!-- Node28 -->
<g id="node24" class="node">
<title>Node28</title>
<g id="a_node24"><a xlink:title=" ">
<polygon fill="white" stroke="#bfbfbf" points="643.5,-112.5 643.5,-142.5 758.5,-142.5 758.5,-112.5 643.5,-112.5"/>
<text text-anchor="start" x="651.5" y="-130.5" font-family="Helvetica,sans-Serif" font-size="10.00">boost/preprocessor</text>
<text text-anchor="middle" x="701" y="-119.5" font-family="Helvetica,sans-Serif" font-size="10.00">/variadic/to_seq.hpp</text>
</a>
</g>
</g>
<!-- Node24&#45;&gt;Node28 -->
<g id="edge31" class="edge">
<title>Node24&#45;&gt;Node28</title>
<path fill="none" stroke="midnightblue" d="M830.21,-184.87C807.95,-175.16 771.17,-159.11 742.52,-146.61"/>
<polygon fill="midnightblue" stroke="midnightblue" points="743.72,-143.32 733.16,-142.53 740.92,-149.73 743.72,-143.32"/>
</g>
<!-- Node29 -->
<g id="node25" class="node">
<title>Node29</title>
<g id="a_node25"><a xlink:title=" ">
<polygon fill="white" stroke="#bfbfbf" points="777,-118 777,-137 913,-137 913,-118 777,-118"/>
<text text-anchor="middle" x="845" y="-125" font-family="Helvetica,sans-Serif" font-size="10.00">boost/vmd/is_empty.hpp</text>
</a>
</g>
</g>
<!-- Node24&#45;&gt;Node29 -->
<g id="edge32" class="edge">
<title>Node24&#45;&gt;Node29</title>
<path fill="none" stroke="midnightblue" d="M849.33,-184.73C848.59,-175.18 847.39,-159.62 846.44,-147.28"/>
<polygon fill="midnightblue" stroke="midnightblue" points="849.92,-146.83 845.66,-137.13 842.94,-147.37 849.92,-146.83"/>
</g>
<!-- Node30&#45;&gt;Node31 -->
<g id="edge35" class="edge">
<title>Node30&#45;&gt;Node31</title>
<path fill="none" stroke="midnightblue" d="M652.29,-184.73C640.74,-174.31 621.25,-156.71 607.14,-143.97"/>
<polygon fill="midnightblue" stroke="midnightblue" points="609.32,-141.23 599.56,-137.13 604.63,-146.43 609.32,-141.23"/>
</g>
<!-- Node31&#45;&gt;Node10 -->
<g id="edge36" class="edge">
<title>Node31&#45;&gt;Node10</title>
<path fill="none" stroke="midnightblue" d="M613.57,-117.88C620.41,-115.67 627.93,-113.49 635,-112 778.87,-81.73 953.98,-71.5 1030.75,-68.32"/>
<polygon fill="midnightblue" stroke="midnightblue" points="1031.07,-71.81 1040.92,-67.92 1030.79,-64.82 1031.07,-71.81"/>
</g>
<!-- Node31&#45;&gt;Node11 -->
<g id="edge38" class="edge">
<title>Node31&#45;&gt;Node11</title>
<path fill="none" stroke="midnightblue" d="M614.76,-137.01C652.58,-150.14 720.74,-174.28 724,-179 735.94,-196.26 727.44,-220.64 718.95,-237.09"/>
<polygon fill="midnightblue" stroke="midnightblue" points="715.69,-235.74 713.84,-246.17 721.79,-239.17 715.69,-235.74"/>
</g>
<!-- Node31&#45;&gt;Node13 -->
<g id="edge37" class="edge">
<title>Node31&#45;&gt;Node13</title>
<path fill="none" stroke="midnightblue" d="M612.49,-117.98C639.31,-107.81 684.32,-90.76 714.81,-79.2"/>
<polygon fill="midnightblue" stroke="midnightblue" points="716.44,-82.33 724.55,-75.51 713.96,-75.78 716.44,-82.33"/>
</g>
<!-- Node32&#45;&gt;Node12 -->
<g id="edge44" class="edge">
<title>Node32&#45;&gt;Node12</title>
<path fill="none" stroke="midnightblue" d="M1150.26,-254.03C1022.34,-251.24 702.86,-241.26 601,-210 553.36,-195.38 504.37,-162.56 478.22,-143.32"/>
<polygon fill="midnightblue" stroke="midnightblue" points="480.07,-140.33 469.97,-137.14 475.87,-145.94 480.07,-140.33"/>
</g>
<!-- Node32&#45;&gt;Node13 -->
<g id="edge43" class="edge">
<title>Node32&#45;&gt;Node13</title>
<path fill="none" stroke="midnightblue" d="M1257.69,-253.64C1421.02,-249.24 1902.2,-234.26 1925,-210 1934.43,-199.96 1933.45,-189.88 1925,-179 1850.98,-83.76 1781.28,-129.94 1662,-112 1575.93,-99.05 968.03,-75.34 793.65,-68.75"/>
<polygon fill="midnightblue" stroke="midnightblue" points="793.64,-65.24 783.52,-68.36 793.38,-72.24 793.64,-65.24"/>
</g>
<!-- Node32&#45;&gt;Node24 -->
<g id="edge50" class="edge">
<title>Node32&#45;&gt;Node24</title>
<path fill="none" stroke="midnightblue" d="M1153.28,-246.48C1089.27,-235.72 979.29,-217.23 910.83,-205.72"/>
<polygon fill="midnightblue" stroke="midnightblue" points="911.07,-202.22 900.63,-204.01 909.91,-209.12 911.07,-202.22"/>
</g>
<!-- Node32&#45;&gt;Node25 -->
<g id="edge47" class="edge">
<title>Node32&#45;&gt;Node25</title>
<path fill="none" stroke="midnightblue" d="M1150.48,-251.74C1081.71,-245.52 975.63,-227.89 1015,-179 1060.15,-122.94 1103.06,-156.28 1178.93,-143"/>
<polygon fill="midnightblue" stroke="midnightblue" points="1179.72,-146.41 1188.85,-141.02 1178.36,-139.54 1179.72,-146.41"/>
</g>
<!-- Node32&#45;&gt;Node27 -->
<g id="edge48" class="edge">
<title>Node32&#45;&gt;Node27</title>
<path fill="none" stroke="midnightblue" d="M1150.15,-250.49C1096.73,-244.77 1020.26,-232.78 1002,-210 980.11,-182.7 1018.79,-160.35 1056.9,-146.01"/>
<polygon fill="midnightblue" stroke="midnightblue" points="1058.32,-149.22 1066.54,-142.54 1055.94,-142.63 1058.32,-149.22"/>
</g>
<!-- Node33 -->
<g id="node29" class="node">
<title>Node33</title>
<g id="a_node29"><a xlink:title=" ">
<polygon fill="white" stroke="#bfbfbf" points="1271.5,-185 1271.5,-204 1320.5,-204 1320.5,-185 1271.5,-185"/>
<text text-anchor="middle" x="1296" y="-192" font-family="Helvetica,sans-Serif" font-size="10.00">cstdlib</text>
</a>
</g>
</g>
<!-- Node32&#45;&gt;Node33 -->
<g id="edge41" class="edge">
<title>Node32&#45;&gt;Node33</title>
<path fill="none" stroke="midnightblue" d="M1217.18,-246.48C1232.07,-236.84 1256.54,-221.02 1274.27,-209.55"/>
<polygon fill="midnightblue" stroke="midnightblue" points="1276.35,-212.38 1282.84,-204.01 1272.55,-206.5 1276.35,-212.38"/>
</g>
<!-- Node34 -->
<g id="node30" class="node">
<title>Node34</title>
<g id="a_node30"><a xlink:title=" ">
<polygon fill="white" stroke="#bfbfbf" points="1339,-185 1339,-204 1399,-204 1399,-185 1339,-185"/>
<text text-anchor="middle" x="1369" y="-192" font-family="Helvetica,sans-Serif" font-size="10.00">iostream</text>
</a>
</g>
</g>
<!-- Node32&#45;&gt;Node34 -->
<g id="edge42" class="edge">
<title>Node32&#45;&gt;Node34</title>
<path fill="none" stroke="midnightblue" d="M1228.19,-246.47C1253.58,-237.48 1294.65,-222.89 1330,-210 1332.1,-209.24 1334.25,-208.45 1336.43,-207.65"/>
<polygon fill="midnightblue" stroke="midnightblue" points="1337.75,-210.89 1345.92,-204.14 1335.33,-204.32 1337.75,-210.89"/>
</g>
<!-- Node35 -->
<g id="node31" class="node">
<title>Node35</title>
<g id="a_node31"><a xlink:title=" ">
<polygon fill="white" stroke="#bfbfbf" points="1417.5,-185 1417.5,-204 1564.5,-204 1564.5,-185 1417.5,-185"/>
<text text-anchor="middle" x="1491" y="-192" font-family="Helvetica,sans-Serif" font-size="10.00">boost/current_function.hpp</text>
</a>
</g>
</g>
<!-- Node32&#45;&gt;Node35 -->
<g id="edge45" class="edge">
<title>Node32&#45;&gt;Node35</title>
<path fill="none" stroke="midnightblue" d="M1245.12,-246.48C1296.48,-235.83 1384.36,-217.61 1439.96,-206.08"/>
<polygon fill="midnightblue" stroke="midnightblue" points="1440.87,-209.47 1449.96,-204.01 1439.45,-202.61 1440.87,-209.47"/>
</g>
<!-- Node36 -->
<g id="node32" class="node">
<title>Node36</title>
<g id="a_node32"><a xlink:title=" ">
<polygon fill="white" stroke="#bfbfbf" points="1582.5,-179.5 1582.5,-209.5 1717.5,-209.5 1717.5,-179.5 1582.5,-179.5"/>
<text text-anchor="start" x="1590.5" y="-197.5" font-family="Helvetica,sans-Serif" font-size="10.00">boost/preprocessor</text>
<text text-anchor="middle" x="1650" y="-186.5" font-family="Helvetica,sans-Serif" font-size="10.00">/comparison/greater.hpp</text>
</a>
</g>
</g>
<!-- Node32&#45;&gt;Node36 -->
<g id="edge46" class="edge">
<title>Node32&#45;&gt;Node36</title>
<path fill="none" stroke="midnightblue" d="M1257.77,-249.61C1327.95,-242.32 1454.78,-228.28 1572.58,-210.16"/>
<polygon fill="midnightblue" stroke="midnightblue" points="1573.15,-213.62 1582.5,-208.62 1572.08,-206.7 1573.15,-213.62"/>
</g>
<!-- Node37 -->
<g id="node33" class="node">
<title>Node37</title>
<g id="a_node33"><a xlink:title=" ">
<polygon fill="white" stroke="#bfbfbf" points="1736,-179.5 1736,-209.5 1846,-209.5 1846,-179.5 1736,-179.5"/>
<text text-anchor="start" x="1744" y="-197.5" font-family="Helvetica,sans-Serif" font-size="10.00">boost/preprocessor</text>
<text text-anchor="middle" x="1791" y="-186.5" font-family="Helvetica,sans-Serif" font-size="10.00">/variadic/size.hpp</text>
</a>
</g>
</g>
<!-- Node32&#45;&gt;Node37 -->
<g id="edge49" class="edge">
<title>Node32&#45;&gt;Node37</title>
<path fill="none" stroke="midnightblue" d="M1257.75,-252.81C1351.08,-248.47 1549.27,-236.91 1725.94,-210.02"/>
<polygon fill="midnightblue" stroke="midnightblue" points="1726.58,-213.46 1735.93,-208.48 1725.52,-206.54 1726.58,-213.46"/>
</g>
<!-- Node38 -->
<g id="node34" class="node">
<title>Node38</title>
<g id="a_node34"><a xlink:href="Parallel_8hpp.html" target="_top" xlink:title=" ">
<polygon fill="white" stroke="black" points="1155,-185 1155,-204 1253,-204 1253,-185 1155,-185"/>
<text text-anchor="middle" x="1204" y="-192" font-family="Helvetica,sans-Serif" font-size="10.00">utils/Parallel.hpp</text>
</a>
</g>
</g>
<!-- Node32&#45;&gt;Node38 -->
<g id="edge51" class="edge">
<title>Node32&#45;&gt;Node38</title>
<path fill="none" stroke="midnightblue" d="M1204,-246.48C1204,-238.08 1204,-224.98 1204,-214.16"/>
<polygon fill="midnightblue" stroke="midnightblue" points="1207.5,-214.01 1204,-204.01 1200.5,-214.01 1207.5,-214.01"/>
</g>
<!-- Node43 -->
<g id="node39" class="node">
<title>Node43</title>
<g id="a_node39"><a xlink:href="stacktrace_8hpp.html" target="_top" xlink:title=" ">
<polygon fill="white" stroke="black" points="1023.5,-185 1023.5,-204 1136.5,-204 1136.5,-185 1023.5,-185"/>
<text text-anchor="middle" x="1080" y="-192" font-family="Helvetica,sans-Serif" font-size="10.00">utils/stacktrace.hpp</text>
</a>
</g>
</g>
<!-- Node32&#45;&gt;Node43 -->
<g id="edge60" class="edge">
<title>Node32&#45;&gt;Node43</title>
<path fill="none" stroke="midnightblue" d="M1186.23,-246.48C1165.52,-236.53 1131.05,-219.99 1107.01,-208.46"/>
<polygon fill="midnightblue" stroke="midnightblue" points="1108.26,-205.18 1097.73,-204.01 1105.23,-211.49 1108.26,-205.18"/>
</g>
<!-- Node44 -->
<g id="node40" class="node">
<title>Node44</title>
<g id="a_node40"><a xlink:title=" ">
<polygon fill="white" stroke="#bfbfbf" points="1864,-185 1864,-204 1916,-204 1916,-185 1864,-185"/>
<text text-anchor="middle" x="1890" y="-192" font-family="Helvetica,sans-Serif" font-size="10.00">cassert</text>
</a>
</g>
</g>
<!-- Node32&#45;&gt;Node44 -->
<g id="edge62" class="edge">
<title>Node32&#45;&gt;Node44</title>
<path fill="none" stroke="midnightblue" d="M1257.76,-253.52C1392.51,-249.44 1741.96,-236.57 1855,-210 1857.67,-209.37 1860.4,-208.56 1863.09,-207.65"/>
<polygon fill="midnightblue" stroke="midnightblue" points="1864.48,-210.87 1872.56,-204.02 1861.97,-204.33 1864.48,-210.87"/>
</g>
<!-- Node38&#45;&gt;Node5 -->
<g id="edge55" class="edge">
<title>Node38&#45;&gt;Node5</title>
<path fill="none" stroke="midnightblue" d="M1237.63,-184.95C1245.91,-182.92 1254.76,-180.82 1263,-179 1347.57,-160.3 1505.75,-174.71 1446,-112 1390.69,-53.95 820.98,-87.06 702.28,-75.24"/>
<polygon fill="midnightblue" stroke="midnightblue" points="702.6,-71.75 692.24,-73.95 701.71,-78.69 702.6,-71.75"/>
</g>
<!-- Node38&#45;&gt;Node6 -->
<g id="edge56" class="edge">
<title>Node38&#45;&gt;Node6</title>
<path fill="none" stroke="midnightblue" d="M1240.06,-184.92C1284.87,-172.55 1352.3,-147.24 1325,-112 1264,-33.26 1206.53,-70.59 1108,-56 726.94,0.44 625.75,-53.68 242,-20 231.13,-19.05 219.31,-17.6 208.67,-16.14"/>
<polygon fill="midnightblue" stroke="midnightblue" points="208.9,-12.64 198.51,-14.7 207.92,-19.57 208.9,-12.64"/>
</g>
<!-- Node38&#45;&gt;Node10 -->
<g id="edge53" class="edge">
<title>Node38&#45;&gt;Node10</title>
<path fill="none" stroke="midnightblue" d="M1236.98,-184.93C1245.43,-182.86 1254.53,-180.74 1263,-179 1361.45,-158.73 1546.07,-186.86 1479,-112 1454.57,-84.73 1206.92,-72.28 1109.28,-68.4"/>
<polygon fill="midnightblue" stroke="midnightblue" points="1109.35,-64.9 1099.22,-68.01 1109.08,-71.89 1109.35,-64.9"/>
</g>
<!-- Node38&#45;&gt;Node31 -->
<g id="edge57" class="edge">
<title>Node38&#45;&gt;Node31</title>
<path fill="none" stroke="midnightblue" d="M1174.1,-184.97C1165.13,-182.69 1155.23,-180.47 1146,-179 921.15,-143.25 858.53,-186.23 635,-143 631.03,-142.23 626.93,-141.22 622.89,-140.1"/>
<polygon fill="midnightblue" stroke="midnightblue" points="623.66,-136.67 613.08,-137.11 621.63,-143.37 623.66,-136.67"/>
</g>
<!-- Node39 -->
<g id="node35" class="node">
<title>Node39</title>
<g id="a_node35"><a xlink:title=" ">
<polygon fill="white" stroke="#bfbfbf" points="1531,-118 1531,-137 1579,-137 1579,-118 1531,-118"/>
<text text-anchor="middle" x="1555" y="-125" font-family="Helvetica,sans-Serif" font-size="10.00">iosfwd</text>
</a>
</g>
</g>
<!-- Node38&#45;&gt;Node39 -->
<g id="edge52" class="edge">
<title>Node38&#45;&gt;Node39</title>
<path fill="none" stroke="midnightblue" d="M1236.33,-184.94C1244.96,-182.82 1254.3,-180.68 1263,-179 1374.95,-157.37 1406.6,-171.5 1517,-143 1519.82,-142.27 1522.72,-141.4 1525.6,-140.45"/>
<polygon fill="midnightblue" stroke="midnightblue" points="1526.92,-143.7 1535.16,-137.03 1524.56,-137.11 1526.92,-143.7"/>
</g>
<!-- Node40 -->
<g id="node36" class="node">
<title>Node40</title>
<g id="a_node36"><a xlink:title=" ">
<polygon fill="white" stroke="#bfbfbf" points="1597,-118 1597,-137 1653,-137 1653,-118 1597,-118"/>
<text text-anchor="middle" x="1625" y="-125" font-family="Helvetica,sans-Serif" font-size="10.00">optional</text>
</a>
</g>
</g>
<!-- Node38&#45;&gt;Node40 -->
<g id="edge54" class="edge">
<title>Node38&#45;&gt;Node40</title>
<path fill="none" stroke="midnightblue" d="M1235.38,-184.98C1244.26,-182.79 1253.96,-180.6 1263,-179 1406.09,-153.6 1446.9,-177.81 1588,-143 1590.83,-142.3 1593.73,-141.44 1596.6,-140.49"/>
<polygon fill="midnightblue" stroke="midnightblue" points="1597.92,-143.73 1606.11,-137.01 1595.51,-137.16 1597.92,-143.73"/>
</g>
<!-- Node41 -->
<g id="node37" class="node">
<title>Node41</title>
<g id="a_node37"><a xlink:href="types_8hpp.html" target="_top" xlink:title=" ">
<polygon fill="white" stroke="black" points="1946.5,-118 1946.5,-137 2049.5,-137 2049.5,-118 1946.5,-118"/>
<text text-anchor="middle" x="1998" y="-125" font-family="Helvetica,sans-Serif" font-size="10.00">precice/types.hpp</text>
</a>
</g>
</g>
<!-- Node38&#45;&gt;Node41 -->
<g id="edge58" class="edge">
<title>Node38&#45;&gt;Node41</title>
<path fill="none" stroke="midnightblue" d="M1234.42,-184.96C1243.54,-182.69 1253.62,-180.46 1263,-179 1392.17,-158.84 1783.74,-138.68 1936.26,-131.37"/>
<polygon fill="midnightblue" stroke="midnightblue" points="1936.57,-134.86 1946.39,-130.89 1936.23,-127.87 1936.57,-134.86"/>
</g>
<!-- Node42 -->
<g id="node38" class="node">
<title>Node42</title>
<g id="a_node38"><a xlink:title=" ">
<polygon fill="white" stroke="#bfbfbf" points="1393,-118 1393,-137 1437,-137 1437,-118 1393,-118"/>
<text text-anchor="middle" x="1415" y="-125" font-family="Helvetica,sans-Serif" font-size="10.00">mpi.h</text>
</a>
</g>
</g>
<!-- Node38&#45;&gt;Node42 -->
<g id="edge59" class="edge">
<title>Node38&#45;&gt;Node42</title>
<path fill="none" stroke="midnightblue" d="M1237.21,-185C1272.65,-175.68 1330.27,-159.8 1379,-143 1380.91,-142.34 1382.87,-141.64 1384.84,-140.91"/>
<polygon fill="midnightblue" stroke="midnightblue" points="1386.51,-144.01 1394.58,-137.15 1383.99,-137.49 1386.51,-144.01"/>
</g>
<!-- Node43&#45;&gt;Node5 -->
<g id="edge61" class="edge">
<title>Node43&#45;&gt;Node5</title>
<path fill="none" stroke="midnightblue" d="M1118.64,-184.98C1183.63,-170.65 1307.81,-143.23 1308,-143 1316.62,-132.26 1317.45,-122.03 1308,-112 1263.46,-64.73 804.51,-85.49 702.41,-75.24"/>
<polygon fill="midnightblue" stroke="midnightblue" points="702.61,-71.74 692.24,-73.91 701.7,-78.68 702.61,-71.74"/>
</g>
<!-- Node46&#45;&gt;Node3 -->
<g id="edge68" class="edge">
<title>Node46&#45;&gt;Node3</title>
<path fill="none" stroke="midnightblue" d="M1264.23,-310.9C1453.33,-309.41 2018.21,-295.27 1942,-179 1901.08,-116.57 1860.26,-130.72 1788,-112 1540.69,-47.94 723.26,-18.66 522.72,-12.34"/>
<polygon fill="midnightblue" stroke="midnightblue" points="522.66,-8.83 512.55,-12.02 522.44,-15.83 522.66,-8.83"/>
</g>
<!-- Node46&#45;&gt;Node32 -->
<g id="edge69" class="edge">
<title>Node46&#45;&gt;Node32</title>
<path fill="none" stroke="midnightblue" d="M1204,-302.08C1204,-295.01 1204,-284.86 1204,-275.99"/>
<polygon fill="midnightblue" stroke="midnightblue" points="1207.5,-275.75 1204,-265.75 1200.5,-275.75 1207.5,-275.75"/>
</g>
<!-- Node47&#45;&gt;Node3 -->
<g id="edge71" class="edge">
<title>Node47&#45;&gt;Node3</title>
<path fill="none" stroke="midnightblue" d="M2150.16,-184.96C2178.7,-170.41 2228.6,-139.69 2206,-112 2127.4,-15.71 2055.46,-70.42 1932,-56 1649.09,-22.96 735.89,-13.21 522.76,-11.36"/>
<polygon fill="midnightblue" stroke="midnightblue" points="522.61,-7.85 512.58,-11.27 522.55,-14.85 522.61,-7.85"/>
</g>
<!-- Node47&#45;&gt;Node31 -->
<g id="edge75" class="edge">
<title>Node47&#45;&gt;Node31</title>
<path fill="none" stroke="midnightblue" d="M2073.6,-188.75C2032.15,-185.54 1975.2,-181.46 1925,-179 1638.56,-164.98 917.65,-191.46 635,-143 630.72,-142.27 626.29,-141.22 621.95,-140.01"/>
<polygon fill="midnightblue" stroke="midnightblue" points="622.7,-136.58 612.12,-137 620.66,-143.28 622.7,-136.58"/>
</g>
<!-- Node47&#45;&gt;Node41 -->
<g id="edge82" class="edge">
<title>Node47&#45;&gt;Node41</title>
<path fill="none" stroke="midnightblue" d="M2114.21,-184.87C2091.38,-173.8 2051.57,-154.49 2025,-141.6"/>
<polygon fill="midnightblue" stroke="midnightblue" points="2026.39,-138.38 2015.87,-137.17 2023.34,-144.68 2026.39,-138.38"/>
</g>
<!-- Node48 -->
<g id="node44" class="node">
<title>Node48</title>
<g id="a_node44"><a xlink:title=" ">
<polygon fill="white" stroke="#bfbfbf" points="2253.5,-118 2253.5,-137 2382.5,-137 2382.5,-118 2253.5,-118"/>
<text text-anchor="middle" x="2318" y="-125" font-family="Helvetica,sans-Serif" font-size="10.00">boost/range/irange.hpp</text>
</a>
</g>
</g>
<!-- Node47&#45;&gt;Node48 -->
<g id="edge72" class="edge">
<title>Node47&#45;&gt;Node48</title>
<path fill="none" stroke="midnightblue" d="M2156.7,-184.87C2189.31,-173.47 2246.88,-153.35 2283.7,-140.49"/>
<polygon fill="midnightblue" stroke="midnightblue" points="2285.21,-143.67 2293.49,-137.06 2282.9,-137.06 2285.21,-143.67"/>
</g>
<!-- Node49 -->
<g id="node45" class="node">
<title>Node49</title>
<g id="a_node45"><a xlink:href="com_2SharedPointer_8hpp.html" target="_top" xlink:title=" ">
<polygon fill="white" stroke="black" points="2067.5,-118 2067.5,-137 2196.5,-137 2196.5,-118 2067.5,-118"/>
<text text-anchor="middle" x="2132" y="-125" font-family="Helvetica,sans-Serif" font-size="10.00">com/SharedPointer.hpp</text>
</a>
</g>
</g>
<!-- Node47&#45;&gt;Node49 -->
<g id="edge73" class="edge">
<title>Node47&#45;&gt;Node49</title>
<path fill="none" stroke="midnightblue" d="M2132,-184.73C2132,-175.18 2132,-159.62 2132,-147.28"/>
<polygon fill="midnightblue" stroke="midnightblue" points="2135.5,-147.13 2132,-137.13 2128.5,-147.13 2135.5,-147.13"/>
</g>
<!-- Node50 -->
<g id="node46" class="node">
<title>Node50</title>
<g id="a_node46"><a xlink:href="span_8hpp.html" target="_top" xlink:title=" ">
<polygon fill="white" stroke="black" points="2400.5,-118 2400.5,-137 2499.5,-137 2499.5,-118 2400.5,-118"/>
<text text-anchor="middle" x="2450" y="-125" font-family="Helvetica,sans-Serif" font-size="10.00">precice/span.hpp</text>
</a>
</g>
</g>
<!-- Node47&#45;&gt;Node50 -->
<g id="edge76" class="edge">
<title>Node47&#45;&gt;Node50</title>
<path fill="none" stroke="midnightblue" d="M2180.08,-184.95C2232.38,-175.47 2318.38,-159.34 2392,-143 2397,-141.89 2402.23,-140.67 2407.41,-139.42"/>
<polygon fill="midnightblue" stroke="midnightblue" points="2408.37,-142.79 2417.25,-137.01 2406.71,-135.99 2408.37,-142.79"/>
</g>
<!-- Node49&#45;&gt;Node10 -->
<g id="edge74" class="edge">
<title>Node49&#45;&gt;Node10</title>
<path fill="none" stroke="midnightblue" d="M2094.66,-117.96C2083.27,-115.66 2070.67,-113.42 2059,-112 1691.86,-67.44 1243.19,-66 1109.43,-66.67"/>
<polygon fill="midnightblue" stroke="midnightblue" points="1109.24,-63.17 1099.26,-66.73 1109.28,-70.17 1109.24,-63.17"/>
</g>
<!-- Node50&#45;&gt;Node21 -->
<g id="edge77" class="edge">
<title>Node50&#45;&gt;Node21</title>
<path fill="none" stroke="midnightblue" d="M2459.54,-117.6C2474.03,-103.05 2498.18,-73.98 2481,-56 2446.81,-20.23 1680.3,-12.47 1514.46,-11.21"/>
<polygon fill="midnightblue" stroke="midnightblue" points="1514.44,-7.71 1504.42,-11.14 1514.39,-14.71 1514.44,-7.71"/>
</g>
<!-- Node51 -->
<g id="node47" class="node">
<title>Node51</title>
<g id="a_node47"><a xlink:title=" ">
<polygon fill="white" stroke="#bfbfbf" points="2528.5,-56.5 2528.5,-75.5 2581.5,-75.5 2581.5,-56.5 2528.5,-56.5"/>
<text text-anchor="middle" x="2555" y="-63.5" font-family="Helvetica,sans-Serif" font-size="10.00">cstddef</text>
</a>
</g>
</g>
<!-- Node50&#45;&gt;Node51 -->
<g id="edge78" class="edge">
<title>Node50&#45;&gt;Node51</title>
<path fill="none" stroke="midnightblue" d="M2465.04,-117.98C2482.28,-108.21 2510.74,-92.08 2531.03,-80.58"/>
<polygon fill="midnightblue" stroke="midnightblue" points="2533.01,-83.48 2539.98,-75.51 2529.56,-77.39 2533.01,-83.48"/>
</g>
<!-- Node52 -->
<g id="node48" class="node">
<title>Node52</title>
<g id="a_node48"><a xlink:title=" ">
<polygon fill="white" stroke="#bfbfbf" points="2266,-56.5 2266,-75.5 2316,-75.5 2316,-56.5 2266,-56.5"/>
<text text-anchor="middle" x="2291" y="-63.5" font-family="Helvetica,sans-Serif" font-size="10.00">cstdint</text>
</a>
</g>
</g>
<!-- Node50&#45;&gt;Node52 -->
<g id="edge79" class="edge">
<title>Node50&#45;&gt;Node52</title>
<path fill="none" stroke="midnightblue" d="M2427.22,-117.98C2399.95,-107.77 2354.09,-90.61 2323.2,-79.05"/>
<polygon fill="midnightblue" stroke="midnightblue" points="2324.33,-75.74 2313.74,-75.51 2321.88,-82.29 2324.33,-75.74"/>
</g>
<!-- Node53 -->
<g id="node49" class="node">
<title>Node53</title>
<g id="a_node49"><a xlink:title=" ">
<polygon fill="white" stroke="#bfbfbf" points="2334,-56.5 2334,-75.5 2384,-75.5 2384,-56.5 2334,-56.5"/>
<text text-anchor="middle" x="2359" y="-63.5" font-family="Helvetica,sans-Serif" font-size="10.00">cstring</text>
</a>
</g>
</g>
<!-- Node50&#45;&gt;Node53 -->
<g id="edge80" class="edge">
<title>Node50&#45;&gt;Node53</title>
<path fill="none" stroke="midnightblue" d="M2436.96,-117.98C2422.23,-108.34 2398.03,-92.52 2380.49,-81.05"/>
<polygon fill="midnightblue" stroke="midnightblue" points="2382.3,-78.05 2372.01,-75.51 2378.47,-83.91 2382.3,-78.05"/>
</g>
<!-- Node54 -->
<g id="node50" class="node">
<title>Node54</title>
<g id="a_node50"><a xlink:title=" ">
<polygon fill="white" stroke="#bfbfbf" points="2402.5,-56.5 2402.5,-75.5 2471.5,-75.5 2471.5,-56.5 2402.5,-56.5"/>
<text text-anchor="middle" x="2437" y="-63.5" font-family="Helvetica,sans-Serif" font-size="10.00">type_traits</text>
</a>
</g>
</g>
<!-- Node50&#45;&gt;Node54 -->
<g id="edge81" class="edge">
<title>Node50&#45;&gt;Node54</title>
<path fill="none" stroke="midnightblue" d="M2448.14,-117.98C2446.28,-109.49 2443.38,-96.2 2441,-85.32"/>
<polygon fill="midnightblue" stroke="midnightblue" points="2444.41,-84.53 2438.86,-75.51 2437.57,-86.03 2444.41,-84.53"/>
</g>
</g>
</svg>
