<?xml version="1.0" encoding="UTF-8" standalone="no"?>
<!DOCTYPE svg PUBLIC "-//W3C//DTD SVG 1.1//EN"
 "http://www.w3.org/Graphics/SVG/1.1/DTD/svg11.dtd">
<!-- Generated by graphviz version 2.43.0 (0)
 -->
<!-- Title: src/com/SocketSendQueue.cpp Pages: 1 -->
<!--zoomable 554 -->
<svg id="main" version="1.1" xmlns="http://www.w3.org/2000/svg" xmlns:xlink="http://www.w3.org/1999/xlink" xml:space="preserve" onload="init(evt)">
<style type="text/css"><![CDATA[
.edge:hover path { stroke: red; }
.edge:hover polygon { stroke: red; fill: red; }
]]></style>
<script type="text/javascript"><![CDATA[
var edges = document.getElementsByTagName('g');
if (edges && edges.length) {
  for (var i=0;i<edges.length;i++) {
    if (edges[i].id.substr(0,4)=='edge') {
      edges[i].setAttribute('class','edge');
    }
  }
}
]]></script>
        <defs>
                <circle id="rim" cx="0" cy="0" r="7"/>
                <circle id="rim2" cx="0" cy="0" r="3.5"/>
                <g id="zoomPlus">
                        <use xlink:href="#rim" fill="#404040">
                                <set attributeName="fill" to="#808080" begin="zoomplus.mouseover" end="zoomplus.mouseout"/>
                        </use>
                        <path d="M-4,0h8M0,-4v8" fill="none" stroke="white" stroke-width="1.5" pointer-events="none"/>
                </g>
                <g id="zoomMin">
                        <use xlink:href="#rim" fill="#404040">
                                <set attributeName="fill" to="#808080" begin="zoomminus.mouseover" end="zoomminus.mouseout"/>
                        </use>
                        <path d="M-4,0h8" fill="none" stroke="white" stroke-width="1.5" pointer-events="none"/>
                </g>
                <g id="dirArrow">
                        <path fill="none" stroke="white" stroke-width="1.5" d="M0,-3.0v7 M-2.5,-0.5L0,-3.0L2.5,-0.5"/>
                </g>
               <g id="resetDef">
                       <use xlink:href="#rim2" fill="#404040">
                               <set attributeName="fill" to="#808080" begin="reset.mouseover" end="reset.mouseout"/>
                       </use>
               </g>
        </defs>

<script type="text/javascript">
var viewWidth = 1539;
var viewHeight = 554;
var sectionId = 'dynsection-0';
</script>
<script xlink:href="svgpan.js"/>
<svg id="graph" class="graph">
<g id="viewport">
<title>src/com/SocketSendQueue.cpp</title>
<polygon fill="white" stroke="transparent" points="-4,4 -4,-550 1535,-550 1535,4 -4,4"/>
<!-- Node1 -->
<g id="node1" class="node">
<title>Node1</title>
<g id="a_node1"><a xlink:title=" ">
<polygon fill="#bfbfbf" stroke="black" points="633,-526.5 633,-545.5 799,-545.5 799,-526.5 633,-526.5"/>
<text text-anchor="middle" x="716" y="-533.5" font-family="Helvetica,sans-Serif" font-size="10.00">src/com/SocketSendQueue.cpp</text>
</a>
</g>
</g>
<!-- Node2 -->
<g id="node2" class="node">
<title>Node2</title>
<g id="a_node2"><a xlink:title=" ">
<polygon fill="white" stroke="#bfbfbf" points="1279,-56.5 1279,-75.5 1343,-75.5 1343,-56.5 1279,-56.5"/>
<text text-anchor="middle" x="1311" y="-63.5" font-family="Helvetica,sans-Serif" font-size="10.00">algorithm</text>
</a>
</g>
</g>
<!-- Node1&#45;&gt;Node2 -->
<g id="edge1" class="edge">
<title>Node1&#45;&gt;Node2</title>
<path fill="none" stroke="midnightblue" d="M799.01,-531.84C1006.47,-522.86 1531,-492.87 1531,-419.5 1531,-419.5 1531,-419.5 1531,-182.5 1531,-103.23 1417.63,-78.25 1353.66,-70.46"/>
<polygon fill="midnightblue" stroke="midnightblue" points="1353.79,-66.96 1343.46,-69.32 1353.01,-73.91 1353.79,-66.96"/>
</g>
<!-- Node3 -->
<g id="node3" class="node">
<title>Node3</title>
<g id="a_node3"><a xlink:title=" ">
<polygon fill="white" stroke="#bfbfbf" points="0,-347.5 0,-366.5 88,-366.5 88,-347.5 0,-347.5"/>
<text text-anchor="middle" x="44" y="-354.5" font-family="Helvetica,sans-Serif" font-size="10.00">boost/asio.hpp</text>
</a>
</g>
</g>
<!-- Node1&#45;&gt;Node3 -->
<g id="edge2" class="edge">
<title>Node1&#45;&gt;Node3</title>
<path fill="none" stroke="midnightblue" d="M632.68,-530.08C556.3,-524.37 440.47,-512.67 342,-490 267.76,-472.91 249.52,-465.15 180,-434 138.45,-415.38 92.74,-388.39 66.31,-372.09"/>
<polygon fill="midnightblue" stroke="midnightblue" points="67.82,-368.91 57.48,-366.6 64.13,-374.85 67.82,-368.91"/>
</g>
<!-- Node4 -->
<g id="node4" class="node">
<title>Node4</title>
<g id="a_node4"><a xlink:title=" ">
<polygon fill="white" stroke="#bfbfbf" points="409,-347.5 409,-366.5 457,-366.5 457,-347.5 409,-347.5"/>
<text text-anchor="middle" x="433" y="-354.5" font-family="Helvetica,sans-Serif" font-size="10.00">iosfwd</text>
</a>
</g>
</g>
<!-- Node1&#45;&gt;Node4 -->
<g id="edge3" class="edge">
<title>Node1&#45;&gt;Node4</title>
<path fill="none" stroke="midnightblue" d="M632.8,-530.91C565.04,-522.67 473.3,-499.23 427,-434 415.19,-417.36 419.78,-393.18 425.31,-376.59"/>
<polygon fill="midnightblue" stroke="midnightblue" points="428.69,-377.54 428.91,-366.94 422.13,-375.09 428.69,-377.54"/>
</g>
<!-- Node5 -->
<g id="node5" class="node">
<title>Node5</title>
<g id="a_node5"><a xlink:title=" ">
<polygon fill="white" stroke="#bfbfbf" points="668.5,-470.5 668.5,-489.5 705.5,-489.5 705.5,-470.5 668.5,-470.5"/>
<text text-anchor="middle" x="687" y="-477.5" font-family="Helvetica,sans-Serif" font-size="10.00">new</text>
</a>
</g>
</g>
<!-- Node1&#45;&gt;Node5 -->
<g id="edge4" class="edge">
<title>Node1&#45;&gt;Node5</title>
<path fill="none" stroke="midnightblue" d="M711.21,-526.08C707.24,-518.69 701.47,-507.95 696.57,-498.81"/>
<polygon fill="midnightblue" stroke="midnightblue" points="699.51,-496.91 691.7,-489.75 693.35,-500.22 699.51,-496.91"/>
</g>
<!-- Node6 -->
<g id="node6" class="node">
<title>Node6</title>
<g id="a_node6"><a xlink:title=" ">
<polygon fill="white" stroke="#bfbfbf" points="723.5,-470.5 723.5,-489.5 768.5,-489.5 768.5,-470.5 723.5,-470.5"/>
<text text-anchor="middle" x="746" y="-477.5" font-family="Helvetica,sans-Serif" font-size="10.00">utility</text>
</a>
</g>
</g>
<!-- Node1&#45;&gt;Node6 -->
<g id="edge5" class="edge">
<title>Node1&#45;&gt;Node6</title>
<path fill="none" stroke="midnightblue" d="M720.95,-526.08C725.1,-518.61 731.15,-507.72 736.27,-498.52"/>
<polygon fill="midnightblue" stroke="midnightblue" points="739.34,-500.19 741.14,-489.75 733.22,-496.79 739.34,-500.19"/>
</g>
<!-- Node7 -->
<g id="node7" class="node">
<title>Node7</title>
<g id="a_node7"><a xlink:href="SocketSendQueue_8hpp.html" target="_top" xlink:title=" ">
<polygon fill="white" stroke="black" points="189.5,-409 189.5,-428 314.5,-428 314.5,-409 189.5,-409"/>
<text text-anchor="middle" x="252" y="-416" font-family="Helvetica,sans-Serif" font-size="10.00">SocketSendQueue.hpp</text>
</a>
</g>
</g>
<!-- Node1&#45;&gt;Node7 -->
<g id="edge6" class="edge">
<title>Node1&#45;&gt;Node7</title>
<path fill="none" stroke="midnightblue" d="M632.69,-530.72C566.72,-525.59 472.87,-514.38 394,-490 349.31,-476.18 301.37,-449.64 274.19,-433.36"/>
<polygon fill="midnightblue" stroke="midnightblue" points="275.85,-430.27 265.49,-428.06 272.21,-436.25 275.85,-430.27"/>
</g>
<!-- Node15 -->
<g id="node15" class="node">
<title>Node15</title>
<g id="a_node15"><a xlink:href="LogMacros_8hpp.html" target="_top" xlink:title=" ">
<polygon fill="white" stroke="black" points="898,-291.5 898,-310.5 988,-310.5 988,-291.5 898,-291.5"/>
<text text-anchor="middle" x="943" y="-298.5" font-family="Helvetica,sans-Serif" font-size="10.00">LogMacros.hpp</text>
</a>
</g>
</g>
<!-- Node1&#45;&gt;Node15 -->
<g id="edge45" class="edge">
<title>Node1&#45;&gt;Node15</title>
<path fill="none" stroke="midnightblue" d="M799.05,-531.26C926.67,-523.46 1161.03,-500.25 1206,-434 1260.34,-353.94 1090.32,-320.09 998.17,-307.9"/>
<polygon fill="midnightblue" stroke="midnightblue" points="998.52,-304.41 988.15,-306.62 997.63,-311.36 998.52,-304.41"/>
</g>
<!-- Node35 -->
<g id="node35" class="node">
<title>Node35</title>
<g id="a_node35"><a xlink:href="assertion_8hpp.html" target="_top" xlink:title=" ">
<polygon fill="white" stroke="black" points="948.5,-470.5 948.5,-489.5 1055.5,-489.5 1055.5,-470.5 948.5,-470.5"/>
<text text-anchor="middle" x="1002" y="-477.5" font-family="Helvetica,sans-Serif" font-size="10.00">utils/assertion.hpp</text>
</a>
</g>
</g>
<!-- Node1&#45;&gt;Node35 -->
<g id="edge46" class="edge">
<title>Node1&#45;&gt;Node35</title>
<path fill="none" stroke="midnightblue" d="M761.32,-526.44C811.63,-516.94 892.84,-501.61 946.81,-491.42"/>
<polygon fill="midnightblue" stroke="midnightblue" points="947.72,-494.81 956.89,-489.52 946.42,-487.93 947.72,-494.81"/>
</g>
<!-- Node7&#45;&gt;Node3 -->
<g id="edge7" class="edge">
<title>Node7&#45;&gt;Node3</title>
<path fill="none" stroke="midnightblue" d="M222.2,-408.98C185.75,-398.55 123.92,-380.86 83.53,-369.31"/>
<polygon fill="midnightblue" stroke="midnightblue" points="84.32,-365.89 73.75,-366.51 82.4,-372.62 84.32,-365.89"/>
</g>
<!-- Node8 -->
<g id="node8" class="node">
<title>Node8</title>
<g id="a_node8"><a xlink:title=" ">
<polygon fill="white" stroke="#bfbfbf" points="264.5,-56.5 264.5,-75.5 311.5,-75.5 311.5,-56.5 264.5,-56.5"/>
<text text-anchor="middle" x="288" y="-63.5" font-family="Helvetica,sans-Serif" font-size="10.00">deque</text>
</a>
</g>
</g>
<!-- Node7&#45;&gt;Node8 -->
<g id="edge8" class="edge">
<title>Node7&#45;&gt;Node8</title>
<path fill="none" stroke="midnightblue" d="M210.42,-409C185.31,-401.82 154.49,-389.05 135,-367 115.07,-344.45 116,-332.1 116,-302 116,-302 116,-302 116,-182.5 116,-116.51 204.33,-85.79 254.39,-73.67"/>
<polygon fill="midnightblue" stroke="midnightblue" points="255.48,-77.01 264.44,-71.36 253.92,-70.19 255.48,-77.01"/>
</g>
<!-- Node9 -->
<g id="node9" class="node">
<title>Node9</title>
<g id="a_node9"><a xlink:title=" ">
<polygon fill="white" stroke="#bfbfbf" points="144.5,-347.5 144.5,-366.5 209.5,-366.5 209.5,-347.5 144.5,-347.5"/>
<text text-anchor="middle" x="177" y="-354.5" font-family="Helvetica,sans-Serif" font-size="10.00">functional</text>
</a>
</g>
</g>
<!-- Node7&#45;&gt;Node9 -->
<g id="edge9" class="edge">
<title>Node7&#45;&gt;Node9</title>
<path fill="none" stroke="midnightblue" d="M241.25,-408.98C229.45,-399.61 210.26,-384.38 195.92,-373.01"/>
<polygon fill="midnightblue" stroke="midnightblue" points="197.74,-369.98 187.73,-366.51 193.38,-375.47 197.74,-369.98"/>
</g>
<!-- Node10 -->
<g id="node10" class="node">
<title>Node10</title>
<g id="a_node10"><a xlink:title=" ">
<polygon fill="white" stroke="#bfbfbf" points="437,-291.5 437,-310.5 495,-310.5 495,-291.5 437,-291.5"/>
<text text-anchor="middle" x="466" y="-298.5" font-family="Helvetica,sans-Serif" font-size="10.00">memory</text>
</a>
</g>
</g>
<!-- Node7&#45;&gt;Node10 -->
<g id="edge10" class="edge">
<title>Node7&#45;&gt;Node10</title>
<path fill="none" stroke="midnightblue" d="M268.08,-408.82C305.12,-388.83 396.65,-339.43 441.05,-315.47"/>
<polygon fill="midnightblue" stroke="midnightblue" points="442.88,-318.45 450.02,-310.62 439.56,-312.29 442.88,-318.45"/>
</g>
<!-- Node11 -->
<g id="node11" class="node">
<title>Node11</title>
<g id="a_node11"><a xlink:title=" ">
<polygon fill="white" stroke="#bfbfbf" points="228,-347.5 228,-366.5 276,-366.5 276,-347.5 228,-347.5"/>
<text text-anchor="middle" x="252" y="-354.5" font-family="Helvetica,sans-Serif" font-size="10.00">mutex</text>
</a>
</g>
</g>
<!-- Node7&#45;&gt;Node11 -->
<g id="edge11" class="edge">
<title>Node7&#45;&gt;Node11</title>
<path fill="none" stroke="midnightblue" d="M252,-408.98C252,-400.58 252,-387.48 252,-376.66"/>
<polygon fill="midnightblue" stroke="midnightblue" points="255.5,-376.51 252,-366.51 248.5,-376.51 255.5,-376.51"/>
</g>
<!-- Node12 -->
<g id="node12" class="node">
<title>Node12</title>
<g id="a_node12"><a xlink:title=" ">
<polygon fill="white" stroke="#bfbfbf" points="445,-112.5 445,-131.5 489,-131.5 489,-112.5 445,-112.5"/>
<text text-anchor="middle" x="467" y="-119.5" font-family="Helvetica,sans-Serif" font-size="10.00">string</text>
</a>
</g>
</g>
<!-- Node7&#45;&gt;Node12 -->
<g id="edge12" class="edge">
<title>Node7&#45;&gt;Node12</title>
<path fill="none" stroke="midnightblue" d="M259.37,-408.85C267.09,-399.27 278.93,-383.07 285,-367 297.06,-335.07 280.65,-321.48 296,-291 331.21,-221.1 406.97,-163.24 444.7,-137.45"/>
<polygon fill="midnightblue" stroke="midnightblue" points="447.07,-140.07 453.43,-131.59 443.17,-134.26 447.07,-140.07"/>
</g>
<!-- Node13 -->
<g id="node13" class="node">
<title>Node13</title>
<g id="a_node13"><a xlink:href="Logger_8hpp.html" target="_top" xlink:title=" ">
<polygon fill="white" stroke="black" points="589.5,-347.5 589.5,-366.5 698.5,-366.5 698.5,-347.5 589.5,-347.5"/>
<text text-anchor="middle" x="644" y="-354.5" font-family="Helvetica,sans-Serif" font-size="10.00">logging/Logger.hpp</text>
</a>
</g>
</g>
<!-- Node7&#45;&gt;Node13 -->
<g id="edge13" class="edge">
<title>Node7&#45;&gt;Node13</title>
<path fill="none" stroke="midnightblue" d="M308.16,-408.98C379.74,-398.11 503.23,-379.37 578.86,-367.89"/>
<polygon fill="midnightblue" stroke="midnightblue" points="579.84,-371.28 589.2,-366.32 578.79,-364.36 579.84,-371.28"/>
</g>
<!-- Node13&#45;&gt;Node10 -->
<g id="edge14" class="edge">
<title>Node13&#45;&gt;Node10</title>
<path fill="none" stroke="midnightblue" d="M615.8,-347.44C585.59,-338.28 537.49,-323.69 503.97,-313.52"/>
<polygon fill="midnightblue" stroke="midnightblue" points="504.66,-310.07 494.07,-310.52 502.63,-316.77 504.66,-310.07"/>
</g>
<!-- Node14 -->
<g id="node14" class="node">
<title>Node14</title>
<g id="a_node14"><a xlink:title=" ">
<polygon fill="white" stroke="#bfbfbf" points="969.5,-112.5 969.5,-131.5 1042.5,-131.5 1042.5,-112.5 969.5,-112.5"/>
<text text-anchor="middle" x="1006" y="-119.5" font-family="Helvetica,sans-Serif" font-size="10.00">string_view</text>
</a>
</g>
</g>
<!-- Node13&#45;&gt;Node14 -->
<g id="edge15" class="edge">
<title>Node13&#45;&gt;Node14</title>
<path fill="none" stroke="midnightblue" d="M650.07,-347.33C673.81,-313.67 761.01,-192.27 801,-168 807.8,-163.88 900.6,-144.46 958.98,-132.52"/>
<polygon fill="midnightblue" stroke="midnightblue" points="960.01,-135.88 969.1,-130.46 958.61,-129.03 960.01,-135.88"/>
</g>
<!-- Node13&#45;&gt;Node15 -->
<g id="edge16" class="edge">
<title>Node13&#45;&gt;Node15</title>
<path fill="none" stroke="midnightblue" d="M691.38,-347.44C744.7,-337.81 831.24,-322.18 887.64,-312"/>
<polygon fill="midnightblue" stroke="midnightblue" points="888.58,-315.38 897.8,-310.16 887.34,-308.5 888.58,-315.38"/>
</g>
<!-- Node16 -->
<g id="node16" class="node">
<title>Node16</title>
<g id="a_node16"><a xlink:href="fmt_8hpp.html" target="_top" xlink:title=" ">
<polygon fill="white" stroke="black" points="673.5,-174 673.5,-193 752.5,-193 752.5,-174 673.5,-174"/>
<text text-anchor="middle" x="713" y="-181" font-family="Helvetica,sans-Serif" font-size="10.00">utils/fmt.hpp</text>
</a>
</g>
</g>
<!-- Node15&#45;&gt;Node16 -->
<g id="edge17" class="edge">
<title>Node15&#45;&gt;Node16</title>
<path fill="none" stroke="midnightblue" d="M943.07,-291.46C942.69,-277.56 939.84,-250.08 924,-235 912.29,-223.85 821.38,-204.94 762.77,-193.7"/>
<polygon fill="midnightblue" stroke="midnightblue" points="763.07,-190.19 752.59,-191.76 761.76,-197.07 763.07,-190.19"/>
</g>
<!-- Node28 -->
<g id="node28" class="node">
<title>Node28</title>
<g id="a_node28"><a xlink:href="ArgumentFormatter_8hpp.html" target="_top" xlink:title=" ">
<polygon fill="white" stroke="black" points="1153.5,-235.5 1153.5,-254.5 1310.5,-254.5 1310.5,-235.5 1153.5,-235.5"/>
<text text-anchor="middle" x="1232" y="-242.5" font-family="Helvetica,sans-Serif" font-size="10.00">utils/ArgumentFormatter.hpp</text>
</a>
</g>
</g>
<!-- Node15&#45;&gt;Node28 -->
<g id="edge36" class="edge">
<title>Node15&#45;&gt;Node28</title>
<path fill="none" stroke="midnightblue" d="M988.16,-291.56C1038.97,-282.07 1121.55,-266.64 1176.32,-256.4"/>
<polygon fill="midnightblue" stroke="midnightblue" points="1177.02,-259.83 1186.21,-254.56 1175.73,-252.95 1177.02,-259.83"/>
</g>
<!-- Node34 -->
<g id="node34" class="node">
<title>Node34</title>
<g id="a_node34"><a xlink:href="Tracer_8hpp.html" target="_top" xlink:title=" ">
<polygon fill="white" stroke="black" points="809.5,-235.5 809.5,-254.5 914.5,-254.5 914.5,-235.5 809.5,-235.5"/>
<text text-anchor="middle" x="862" y="-242.5" font-family="Helvetica,sans-Serif" font-size="10.00">logging/Tracer.hpp</text>
</a>
</g>
</g>
<!-- Node15&#45;&gt;Node34 -->
<g id="edge43" class="edge">
<title>Node15&#45;&gt;Node34</title>
<path fill="none" stroke="midnightblue" d="M929.99,-291.32C917.47,-282.98 898.32,-270.21 883.53,-260.35"/>
<polygon fill="midnightblue" stroke="midnightblue" points="885.24,-257.29 874.98,-254.65 881.36,-263.11 885.24,-257.29"/>
</g>
<!-- Node16&#45;&gt;Node12 -->
<g id="edge18" class="edge">
<title>Node16&#45;&gt;Node12</title>
<path fill="none" stroke="midnightblue" d="M677.75,-173.98C629.83,-162.38 544.82,-141.82 498.77,-130.69"/>
<polygon fill="midnightblue" stroke="midnightblue" points="499.57,-127.28 489.03,-128.33 497.92,-134.08 499.57,-127.28"/>
</g>
<!-- Node16&#45;&gt;Node14 -->
<g id="edge19" class="edge">
<title>Node16&#45;&gt;Node14</title>
<path fill="none" stroke="midnightblue" d="M743.17,-173.95C750.91,-171.88 759.24,-169.76 767,-168 849.01,-149.37 872.61,-148.42 959.32,-132.1"/>
<polygon fill="midnightblue" stroke="midnightblue" points="960.18,-135.5 969.35,-130.2 958.87,-128.63 960.18,-135.5"/>
</g>
<!-- Node17 -->
<g id="node17" class="node">
<title>Node17</title>
<g id="a_node17"><a xlink:title=" ">
<polygon fill="white" stroke="#bfbfbf" points="732.5,-56.5 732.5,-75.5 811.5,-75.5 811.5,-56.5 732.5,-56.5"/>
<text text-anchor="middle" x="772" y="-63.5" font-family="Helvetica,sans-Serif" font-size="10.00">fmt/format.h</text>
</a>
</g>
</g>
<!-- Node16&#45;&gt;Node17 -->
<g id="edge20" class="edge">
<title>Node16&#45;&gt;Node17</title>
<path fill="none" stroke="midnightblue" d="M714.03,-173.78C715.95,-159.97 720.92,-132.53 732,-112 737.81,-101.24 746.66,-90.91 754.57,-82.87"/>
<polygon fill="midnightblue" stroke="midnightblue" points="757.26,-85.14 762,-75.67 752.39,-80.11 757.26,-85.14"/>
</g>
<!-- Node18 -->
<g id="node18" class="node">
<title>Node18</title>
<g id="a_node18"><a xlink:title=" ">
<polygon fill="white" stroke="#bfbfbf" points="741,-112.5 741,-131.5 827,-131.5 827,-112.5 741,-112.5"/>
<text text-anchor="middle" x="784" y="-119.5" font-family="Helvetica,sans-Serif" font-size="10.00">fmt/ostream.h</text>
</a>
</g>
</g>
<!-- Node16&#45;&gt;Node18 -->
<g id="edge21" class="edge">
<title>Node16&#45;&gt;Node18</title>
<path fill="none" stroke="midnightblue" d="M723.17,-173.98C734.35,-164.61 752.52,-149.38 766.09,-138.01"/>
<polygon fill="midnightblue" stroke="midnightblue" points="768.43,-140.61 773.85,-131.51 763.93,-135.25 768.43,-140.61"/>
</g>
<!-- Node19 -->
<g id="node19" class="node">
<title>Node19</title>
<g id="a_node19"><a xlink:href="fmtEigen_8hpp.html" target="_top" xlink:title=" ">
<polygon fill="white" stroke="black" points="845,-112.5 845,-131.5 951,-131.5 951,-112.5 845,-112.5"/>
<text text-anchor="middle" x="898" y="-119.5" font-family="Helvetica,sans-Serif" font-size="10.00">utils/fmtEigen.hpp</text>
</a>
</g>
</g>
<!-- Node16&#45;&gt;Node19 -->
<g id="edge22" class="edge">
<title>Node16&#45;&gt;Node19</title>
<path fill="none" stroke="midnightblue" d="M739.51,-173.98C771.65,-163.64 825.99,-146.16 861.93,-134.6"/>
<polygon fill="midnightblue" stroke="midnightblue" points="863.1,-137.9 871.54,-131.51 860.95,-131.24 863.1,-137.9"/>
</g>
<!-- Node23 -->
<g id="node23" class="node">
<title>Node23</title>
<g id="a_node23"><a xlink:href="fmtSTL_8hpp.html" target="_top" xlink:title=" ">
<polygon fill="white" stroke="black" points="589,-112.5 589,-131.5 685,-131.5 685,-112.5 589,-112.5"/>
<text text-anchor="middle" x="637" y="-119.5" font-family="Helvetica,sans-Serif" font-size="10.00">utils/fmtSTL.hpp</text>
</a>
</g>
</g>
<!-- Node16&#45;&gt;Node23 -->
<g id="edge29" class="edge">
<title>Node16&#45;&gt;Node23</title>
<path fill="none" stroke="midnightblue" d="M702.11,-173.98C690.03,-164.52 670.33,-149.1 655.76,-137.69"/>
<polygon fill="midnightblue" stroke="midnightblue" points="657.9,-134.92 647.87,-131.51 653.59,-140.43 657.9,-134.92"/>
</g>
<!-- Node19&#45;&gt;Node2 -->
<g id="edge24" class="edge">
<title>Node19&#45;&gt;Node2</title>
<path fill="none" stroke="midnightblue" d="M951.27,-113.34C954.56,-112.88 957.83,-112.43 961,-112 1071.93,-96.95 1202.81,-80.46 1268.65,-72.25"/>
<polygon fill="midnightblue" stroke="midnightblue" points="1269.16,-75.71 1278.65,-71.01 1268.29,-68.77 1269.16,-75.71"/>
</g>
<!-- Node19&#45;&gt;Node17 -->
<g id="edge25" class="edge">
<title>Node19&#45;&gt;Node17</title>
<path fill="none" stroke="midnightblue" d="M878.03,-112.44C857.39,-103.6 824.94,-89.69 801.37,-79.59"/>
<polygon fill="midnightblue" stroke="midnightblue" points="802.44,-76.24 791.87,-75.52 799.68,-82.67 802.44,-76.24"/>
</g>
<!-- Node20 -->
<g id="node20" class="node">
<title>Node20</title>
<g id="a_node20"><a xlink:title=" ">
<polygon fill="white" stroke="#bfbfbf" points="957.5,-0.5 957.5,-19.5 1026.5,-19.5 1026.5,-0.5 957.5,-0.5"/>
<text text-anchor="middle" x="992" y="-7.5" font-family="Helvetica,sans-Serif" font-size="10.00">Eigen/Core</text>
</a>
</g>
</g>
<!-- Node19&#45;&gt;Node20 -->
<g id="edge23" class="edge">
<title>Node19&#45;&gt;Node20</title>
<path fill="none" stroke="midnightblue" d="M951.13,-113.5C973.83,-107.37 998.24,-96.23 1012,-76 1021.82,-61.56 1013.62,-42.12 1004.95,-28.27"/>
<polygon fill="midnightblue" stroke="midnightblue" points="1007.62,-25.97 999.08,-19.7 1001.84,-29.93 1007.62,-25.97"/>
</g>
<!-- Node21 -->
<g id="node21" class="node">
<title>Node21</title>
<g id="a_node21"><a xlink:title=" ">
<polygon fill="white" stroke="#bfbfbf" points="829,-56.5 829,-75.5 885,-75.5 885,-56.5 829,-56.5"/>
<text text-anchor="middle" x="857" y="-63.5" font-family="Helvetica,sans-Serif" font-size="10.00">sstream</text>
</a>
</g>
</g>
<!-- Node19&#45;&gt;Node21 -->
<g id="edge26" class="edge">
<title>Node19&#45;&gt;Node21</title>
<path fill="none" stroke="midnightblue" d="M891.23,-112.08C885.44,-104.46 876.94,-93.26 869.86,-83.94"/>
<polygon fill="midnightblue" stroke="midnightblue" points="872.48,-81.6 863.64,-75.75 866.9,-85.83 872.48,-81.6"/>
</g>
<!-- Node22 -->
<g id="node22" class="node">
<title>Node22</title>
<g id="a_node22"><a xlink:href="EigenIO_8hpp.html" target="_top" xlink:title=" ">
<polygon fill="white" stroke="black" points="903.5,-56.5 903.5,-75.5 1002.5,-75.5 1002.5,-56.5 903.5,-56.5"/>
<text text-anchor="middle" x="953" y="-63.5" font-family="Helvetica,sans-Serif" font-size="10.00">utils/EigenIO.hpp</text>
</a>
</g>
</g>
<!-- Node19&#45;&gt;Node22 -->
<g id="edge27" class="edge">
<title>Node19&#45;&gt;Node22</title>
<path fill="none" stroke="midnightblue" d="M907.08,-112.08C915.17,-104.14 927.2,-92.34 936.91,-82.8"/>
<polygon fill="midnightblue" stroke="midnightblue" points="939.4,-85.25 944.09,-75.75 934.5,-80.26 939.4,-85.25"/>
</g>
<!-- Node22&#45;&gt;Node20 -->
<g id="edge28" class="edge">
<title>Node22&#45;&gt;Node20</title>
<path fill="none" stroke="midnightblue" d="M959.44,-56.08C964.95,-48.46 973.03,-37.26 979.76,-27.94"/>
<polygon fill="midnightblue" stroke="midnightblue" points="982.66,-29.91 985.68,-19.75 976.99,-25.81 982.66,-29.91"/>
</g>
<!-- Node23&#45;&gt;Node8 -->
<g id="edge31" class="edge">
<title>Node23&#45;&gt;Node8</title>
<path fill="none" stroke="midnightblue" d="M588.84,-113.55C517.07,-102.44 383.86,-81.83 321.64,-72.21"/>
<polygon fill="midnightblue" stroke="midnightblue" points="322,-68.72 311.58,-70.65 320.93,-75.64 322,-68.72"/>
</g>
<!-- Node23&#45;&gt;Node17 -->
<g id="edge32" class="edge">
<title>Node23&#45;&gt;Node17</title>
<path fill="none" stroke="midnightblue" d="M658.39,-112.44C680.71,-103.52 715.9,-89.44 741.21,-79.32"/>
<polygon fill="midnightblue" stroke="midnightblue" points="742.72,-82.48 750.71,-75.52 740.12,-75.98 742.72,-82.48"/>
</g>
<!-- Node24 -->
<g id="node24" class="node">
<title>Node24</title>
<g id="a_node24"><a xlink:title=" ">
<polygon fill="white" stroke="#bfbfbf" points="616,-56.5 616,-75.5 658,-75.5 658,-56.5 616,-56.5"/>
<text text-anchor="middle" x="637" y="-63.5" font-family="Helvetica,sans-Serif" font-size="10.00">array</text>
</a>
</g>
</g>
<!-- Node23&#45;&gt;Node24 -->
<g id="edge30" class="edge">
<title>Node23&#45;&gt;Node24</title>
<path fill="none" stroke="midnightblue" d="M637,-112.08C637,-105.01 637,-94.86 637,-85.99"/>
<polygon fill="midnightblue" stroke="midnightblue" points="640.5,-85.75 637,-75.75 633.5,-85.75 640.5,-85.75"/>
</g>
<!-- Node25 -->
<g id="node25" class="node">
<title>Node25</title>
<g id="a_node25"><a xlink:title=" ">
<polygon fill="white" stroke="#bfbfbf" points="676,-56.5 676,-75.5 714,-75.5 714,-56.5 676,-56.5"/>
<text text-anchor="middle" x="695" y="-63.5" font-family="Helvetica,sans-Serif" font-size="10.00">map</text>
</a>
</g>
</g>
<!-- Node23&#45;&gt;Node25 -->
<g id="edge33" class="edge">
<title>Node23&#45;&gt;Node25</title>
<path fill="none" stroke="midnightblue" d="M646.32,-112.32C654.89,-104.34 667.81,-92.31 678.19,-82.65"/>
<polygon fill="midnightblue" stroke="midnightblue" points="680.58,-85.21 685.51,-75.83 675.81,-80.09 680.58,-85.21"/>
</g>
<!-- Node26 -->
<g id="node26" class="node">
<title>Node26</title>
<g id="a_node26"><a xlink:title=" ">
<polygon fill="white" stroke="#bfbfbf" points="566,-56.5 566,-75.5 598,-75.5 598,-56.5 566,-56.5"/>
<text text-anchor="middle" x="582" y="-63.5" font-family="Helvetica,sans-Serif" font-size="10.00">set</text>
</a>
</g>
</g>
<!-- Node23&#45;&gt;Node26 -->
<g id="edge34" class="edge">
<title>Node23&#45;&gt;Node26</title>
<path fill="none" stroke="midnightblue" d="M627.92,-112.08C619.83,-104.14 607.8,-92.34 598.09,-82.8"/>
<polygon fill="midnightblue" stroke="midnightblue" points="600.5,-80.26 590.91,-75.75 595.6,-85.25 600.5,-80.26"/>
</g>
<!-- Node27 -->
<g id="node27" class="node">
<title>Node27</title>
<g id="a_node27"><a xlink:title=" ">
<polygon fill="white" stroke="#bfbfbf" points="500.5,-56.5 500.5,-75.5 547.5,-75.5 547.5,-56.5 500.5,-56.5"/>
<text text-anchor="middle" x="524" y="-63.5" font-family="Helvetica,sans-Serif" font-size="10.00">vector</text>
</a>
</g>
</g>
<!-- Node23&#45;&gt;Node27 -->
<g id="edge35" class="edge">
<title>Node23&#45;&gt;Node27</title>
<path fill="none" stroke="midnightblue" d="M619.09,-112.44C600.75,-103.68 571.99,-89.94 550.91,-79.86"/>
<polygon fill="midnightblue" stroke="midnightblue" points="552.35,-76.67 541.82,-75.52 549.33,-82.99 552.35,-76.67"/>
</g>
<!-- Node28&#45;&gt;Node16 -->
<g id="edge42" class="edge">
<title>Node28&#45;&gt;Node16</title>
<path fill="none" stroke="midnightblue" d="M1153.5,-236.37C1048.27,-226.04 867.08,-207.89 801,-199 788.65,-197.34 775.37,-195.29 762.97,-193.26"/>
<polygon fill="midnightblue" stroke="midnightblue" points="763.23,-189.76 752.79,-191.57 762.08,-196.66 763.23,-189.76"/>
</g>
<!-- Node29 -->
<g id="node29" class="node">
<title>Node29</title>
<g id="a_node29"><a xlink:title=" ">
<polygon fill="white" stroke="#bfbfbf" points="1227,-168.5 1227,-198.5 1337,-198.5 1337,-168.5 1227,-168.5"/>
<text text-anchor="start" x="1235" y="-186.5" font-family="Helvetica,sans-Serif" font-size="10.00">boost/preprocessor</text>
<text text-anchor="middle" x="1282" y="-175.5" font-family="Helvetica,sans-Serif" font-size="10.00">/control/if.hpp</text>
</a>
</g>
</g>
<!-- Node28&#45;&gt;Node29 -->
<g id="edge37" class="edge">
<title>Node28&#45;&gt;Node29</title>
<path fill="none" stroke="midnightblue" d="M1239.16,-235.48C1245.56,-227.87 1255.19,-216.4 1263.71,-206.26"/>
<polygon fill="midnightblue" stroke="midnightblue" points="1266.46,-208.43 1270.22,-198.52 1261.1,-203.93 1266.46,-208.43"/>
</g>
<!-- Node30 -->
<g id="node30" class="node">
<title>Node30</title>
<g id="a_node30"><a xlink:title=" ">
<polygon fill="white" stroke="#bfbfbf" points="1097.5,-168.5 1097.5,-198.5 1208.5,-198.5 1208.5,-168.5 1097.5,-168.5"/>
<text text-anchor="start" x="1105.5" y="-186.5" font-family="Helvetica,sans-Serif" font-size="10.00">boost/preprocessor</text>
<text text-anchor="middle" x="1153" y="-175.5" font-family="Helvetica,sans-Serif" font-size="10.00">/seq/for_each_i.hpp</text>
</a>
</g>
</g>
<!-- Node28&#45;&gt;Node30 -->
<g id="edge38" class="edge">
<title>Node28&#45;&gt;Node30</title>
<path fill="none" stroke="midnightblue" d="M1220.68,-235.48C1210.08,-227.49 1193.83,-215.25 1179.91,-204.77"/>
<polygon fill="midnightblue" stroke="midnightblue" points="1181.71,-201.74 1171.62,-198.52 1177.5,-207.33 1181.71,-201.74"/>
</g>
<!-- Node31 -->
<g id="node31" class="node">
<title>Node31</title>
<g id="a_node31"><a xlink:title=" ">
<polygon fill="white" stroke="#bfbfbf" points="1355,-168.5 1355,-198.5 1465,-198.5 1465,-168.5 1355,-168.5"/>
<text text-anchor="start" x="1363" y="-186.5" font-family="Helvetica,sans-Serif" font-size="10.00">boost/preprocessor</text>
<text text-anchor="middle" x="1410" y="-175.5" font-family="Helvetica,sans-Serif" font-size="10.00">/stringize.hpp</text>
</a>
</g>
</g>
<!-- Node28&#45;&gt;Node31 -->
<g id="edge39" class="edge">
<title>Node28&#45;&gt;Node31</title>
<path fill="none" stroke="midnightblue" d="M1257.5,-235.48C1283.75,-226.7 1325.37,-212.79 1358.51,-201.71"/>
<polygon fill="midnightblue" stroke="midnightblue" points="1359.67,-205.01 1368.05,-198.52 1357.46,-198.37 1359.67,-205.01"/>
</g>
<!-- Node32 -->
<g id="node32" class="node">
<title>Node32</title>
<g id="a_node32"><a xlink:title=" ">
<polygon fill="white" stroke="#bfbfbf" points="809.5,-168.5 809.5,-198.5 924.5,-198.5 924.5,-168.5 809.5,-168.5"/>
<text text-anchor="start" x="817.5" y="-186.5" font-family="Helvetica,sans-Serif" font-size="10.00">boost/preprocessor</text>
<text text-anchor="middle" x="867" y="-175.5" font-family="Helvetica,sans-Serif" font-size="10.00">/variadic/to_seq.hpp</text>
</a>
</g>
</g>
<!-- Node28&#45;&gt;Node32 -->
<g id="edge40" class="edge">
<title>Node28&#45;&gt;Node32</title>
<path fill="none" stroke="midnightblue" d="M1167.57,-235.47C1109.33,-227.49 1021.01,-214.7 934.67,-199.05"/>
<polygon fill="midnightblue" stroke="midnightblue" points="935.16,-195.58 924.7,-197.23 933.9,-202.47 935.16,-195.58"/>
</g>
<!-- Node33 -->
<g id="node33" class="node">
<title>Node33</title>
<g id="a_node33"><a xlink:title=" ">
<polygon fill="white" stroke="#bfbfbf" points="943,-174 943,-193 1079,-193 1079,-174 943,-174"/>
<text text-anchor="middle" x="1011" y="-181" font-family="Helvetica,sans-Serif" font-size="10.00">boost/vmd/is_empty.hpp</text>
</a>
</g>
</g>
<!-- Node28&#45;&gt;Node33 -->
<g id="edge41" class="edge">
<title>Node28&#45;&gt;Node33</title>
<path fill="none" stroke="midnightblue" d="M1200.34,-235.48C1161.44,-225 1095.36,-207.21 1052.45,-195.66"/>
<polygon fill="midnightblue" stroke="midnightblue" points="1053.17,-192.23 1042.61,-193.01 1051.35,-198.99 1053.17,-192.23"/>
</g>
<!-- Node34&#45;&gt;Node13 -->
<g id="edge44" class="edge">
<title>Node34&#45;&gt;Node13</title>
<path fill="none" stroke="midnightblue" d="M855.55,-254.5C844.59,-268.35 821.01,-295.76 795,-311 767.02,-327.39 732.59,-338.25 703.67,-345.19"/>
<polygon fill="midnightblue" stroke="midnightblue" points="702.65,-341.83 693.69,-347.48 704.22,-348.65 702.65,-341.83"/>
</g>
<!-- Node35&#45;&gt;Node14 -->
<g id="edge49" class="edge">
<title>Node35&#45;&gt;Node14</title>
<path fill="none" stroke="midnightblue" d="M1055.95,-477.07C1183.5,-471.04 1493,-447.22 1493,-358 1493,-358 1493,-358 1493,-244 1493,-209.18 1500.39,-190.72 1474,-168 1442.51,-140.89 1164.97,-128.43 1052.77,-124.47"/>
<polygon fill="midnightblue" stroke="midnightblue" points="1052.87,-120.98 1042.76,-124.13 1052.63,-127.97 1052.87,-120.98"/>
</g>
<!-- Node35&#45;&gt;Node16 -->
<g id="edge50" class="edge">
<title>Node35&#45;&gt;Node16</title>
<path fill="none" stroke="midnightblue" d="M1055.88,-474.62C1109.84,-468.99 1187.49,-457.04 1206,-434 1214.63,-423.26 1212.61,-415.09 1206,-403 1139.64,-281.63 1071.8,-287.94 944,-235 911.8,-221.66 820.68,-203.8 762.98,-193.28"/>
<polygon fill="midnightblue" stroke="midnightblue" points="763.43,-189.81 752.96,-191.47 762.18,-196.7 763.43,-189.81"/>
</g>
<!-- Node35&#45;&gt;Node28 -->
<g id="edge56" class="edge">
<title>Node35&#45;&gt;Node28</title>
<path fill="none" stroke="midnightblue" d="M1055.76,-476.52C1118.38,-472.36 1216.2,-461.54 1239,-434 1279.76,-384.77 1254.12,-300.96 1239.77,-264.19"/>
<polygon fill="midnightblue" stroke="midnightblue" points="1242.94,-262.7 1235.93,-254.76 1236.46,-265.34 1242.94,-262.7"/>
</g>
<!-- Node35&#45;&gt;Node29 -->
<g id="edge53" class="edge">
<title>Node35&#45;&gt;Node29</title>
<path fill="none" stroke="midnightblue" d="M1055.75,-478.67C1110.03,-476.32 1194.92,-467.01 1260,-434 1303.45,-411.96 1339,-406.72 1339,-358 1339,-358 1339,-358 1339,-300 1339,-269.9 1333.49,-261.91 1320,-235 1314.98,-225 1307.93,-214.95 1301.26,-206.48"/>
<polygon fill="midnightblue" stroke="midnightblue" points="1303.85,-204.12 1294.81,-198.59 1298.44,-208.55 1303.85,-204.12"/>
</g>
<!-- Node35&#45;&gt;Node31 -->
<g id="edge54" class="edge">
<title>Node35&#45;&gt;Node31</title>
<path fill="none" stroke="midnightblue" d="M1055.58,-479.67C1117.77,-478.53 1222.12,-470.59 1303,-434 1350.7,-412.42 1393,-410.35 1393,-358 1393,-358 1393,-358 1393,-300 1393,-268.16 1399.4,-231.89 1404.35,-208.63"/>
<polygon fill="midnightblue" stroke="midnightblue" points="1407.82,-209.15 1406.56,-198.63 1400.99,-207.64 1407.82,-209.15"/>
</g>
<!-- Node36 -->
<g id="node36" class="node">
<title>Node36</title>
<g id="a_node36"><a xlink:title=" ">
<polygon fill="white" stroke="#bfbfbf" points="552.5,-409 552.5,-428 601.5,-428 601.5,-409 552.5,-409"/>
<text text-anchor="middle" x="577" y="-416" font-family="Helvetica,sans-Serif" font-size="10.00">cstdlib</text>
</a>
</g>
</g>
<!-- Node35&#45;&gt;Node36 -->
<g id="edge47" class="edge">
<title>Node35&#45;&gt;Node36</title>
<path fill="none" stroke="midnightblue" d="M948.29,-477.7C872.08,-474.75 728.74,-465.18 611,-434 608.64,-433.38 606.24,-432.62 603.85,-431.78"/>
<polygon fill="midnightblue" stroke="midnightblue" points="604.89,-428.43 594.31,-428.02 602.33,-434.94 604.89,-428.43"/>
</g>
<!-- Node37 -->
<g id="node37" class="node">
<title>Node37</title>
<g id="a_node37"><a xlink:title=" ">
<polygon fill="white" stroke="#bfbfbf" points="620,-409 620,-428 680,-428 680,-409 620,-409"/>
<text text-anchor="middle" x="650" y="-416" font-family="Helvetica,sans-Serif" font-size="10.00">iostream</text>
</a>
</g>
</g>
<!-- Node35&#45;&gt;Node37 -->
<g id="edge48" class="edge">
<title>Node35&#45;&gt;Node37</title>
<path fill="none" stroke="midnightblue" d="M948.36,-474.63C885.68,-468.74 779.18,-456.35 690,-434 687.02,-433.25 683.94,-432.36 680.89,-431.4"/>
<polygon fill="midnightblue" stroke="midnightblue" points="681.93,-428.06 671.34,-428.15 679.68,-434.68 681.93,-428.06"/>
</g>
<!-- Node38 -->
<g id="node38" class="node">
<title>Node38</title>
<g id="a_node38"><a xlink:title=" ">
<polygon fill="white" stroke="#bfbfbf" points="698.5,-409 698.5,-428 845.5,-428 845.5,-409 698.5,-409"/>
<text text-anchor="middle" x="772" y="-416" font-family="Helvetica,sans-Serif" font-size="10.00">boost/current_function.hpp</text>
</a>
</g>
</g>
<!-- Node35&#45;&gt;Node38 -->
<g id="edge51" class="edge">
<title>Node35&#45;&gt;Node38</title>
<path fill="none" stroke="midnightblue" d="M969.05,-470.48C928.4,-459.96 859.21,-442.06 814.58,-430.51"/>
<polygon fill="midnightblue" stroke="midnightblue" points="815.45,-427.13 804.89,-428.01 813.7,-433.9 815.45,-427.13"/>
</g>
<!-- Node39 -->
<g id="node39" class="node">
<title>Node39</title>
<g id="a_node39"><a xlink:title=" ">
<polygon fill="white" stroke="#bfbfbf" points="863.5,-403.5 863.5,-433.5 998.5,-433.5 998.5,-403.5 863.5,-403.5"/>
<text text-anchor="start" x="871.5" y="-421.5" font-family="Helvetica,sans-Serif" font-size="10.00">boost/preprocessor</text>
<text text-anchor="middle" x="931" y="-410.5" font-family="Helvetica,sans-Serif" font-size="10.00">/comparison/greater.hpp</text>
</a>
</g>
</g>
<!-- Node35&#45;&gt;Node39 -->
<g id="edge52" class="edge">
<title>Node35&#45;&gt;Node39</title>
<path fill="none" stroke="midnightblue" d="M991.83,-470.48C982.39,-462.57 967.97,-450.48 955.54,-440.07"/>
<polygon fill="midnightblue" stroke="midnightblue" points="957.65,-437.26 947.73,-433.52 953.15,-442.63 957.65,-437.26"/>
</g>
<!-- Node40 -->
<g id="node40" class="node">
<title>Node40</title>
<g id="a_node40"><a xlink:title=" ">
<polygon fill="white" stroke="#bfbfbf" points="1017,-403.5 1017,-433.5 1127,-433.5 1127,-403.5 1017,-403.5"/>
<text text-anchor="start" x="1025" y="-421.5" font-family="Helvetica,sans-Serif" font-size="10.00">boost/preprocessor</text>
<text text-anchor="middle" x="1072" y="-410.5" font-family="Helvetica,sans-Serif" font-size="10.00">/variadic/size.hpp</text>
</a>
</g>
</g>
<!-- Node35&#45;&gt;Node40 -->
<g id="edge55" class="edge">
<title>Node35&#45;&gt;Node40</title>
<path fill="none" stroke="midnightblue" d="M1012.03,-470.48C1021.33,-462.57 1035.55,-450.48 1047.8,-440.07"/>
<polygon fill="midnightblue" stroke="midnightblue" points="1050.15,-442.67 1055.5,-433.52 1045.62,-437.33 1050.15,-442.67"/>
</g>
<!-- Node41 -->
<g id="node41" class="node">
<title>Node41</title>
<g id="a_node41"><a xlink:href="Parallel_8hpp.html" target="_top" xlink:title=" ">
<polygon fill="white" stroke="black" points="436,-409 436,-428 534,-428 534,-409 436,-409"/>
<text text-anchor="middle" x="485" y="-416" font-family="Helvetica,sans-Serif" font-size="10.00">utils/Parallel.hpp</text>
</a>
</g>
</g>
<!-- Node35&#45;&gt;Node41 -->
<g id="edge57" class="edge">
<title>Node35&#45;&gt;Node41</title>
<path fill="none" stroke="midnightblue" d="M948.43,-476.23C862.58,-471.23 689.1,-458.83 544,-434 538.14,-433 532,-431.73 525.98,-430.37"/>
<polygon fill="midnightblue" stroke="midnightblue" points="526.6,-426.92 516.06,-428.02 524.98,-433.73 526.6,-426.92"/>
</g>
<!-- Node45 -->
<g id="node45" class="node">
<title>Node45</title>
<g id="a_node45"><a xlink:href="stacktrace_8hpp.html" target="_top" xlink:title=" ">
<polygon fill="white" stroke="black" points="305.5,-291.5 305.5,-310.5 418.5,-310.5 418.5,-291.5 305.5,-291.5"/>
<text text-anchor="middle" x="362" y="-298.5" font-family="Helvetica,sans-Serif" font-size="10.00">utils/stacktrace.hpp</text>
</a>
</g>
</g>
<!-- Node35&#45;&gt;Node45 -->
<g id="edge66" class="edge">
<title>Node35&#45;&gt;Node45</title>
<path fill="none" stroke="midnightblue" d="M948.47,-476.24C809.85,-468.91 448.41,-448.51 427,-434 387.81,-407.44 371.3,-350.16 365.17,-320.55"/>
<polygon fill="midnightblue" stroke="midnightblue" points="368.6,-319.86 363.3,-310.69 361.72,-321.16 368.6,-319.86"/>
</g>
<!-- Node46 -->
<g id="node46" class="node">
<title>Node46</title>
<g id="a_node46"><a xlink:title=" ">
<polygon fill="white" stroke="#bfbfbf" points="1145,-409 1145,-428 1197,-428 1197,-409 1145,-409"/>
<text text-anchor="middle" x="1171" y="-416" font-family="Helvetica,sans-Serif" font-size="10.00">cassert</text>
</a>
</g>
</g>
<!-- Node35&#45;&gt;Node46 -->
<g id="edge68" class="edge">
<title>Node35&#45;&gt;Node46</title>
<path fill="none" stroke="midnightblue" d="M1029.14,-470.49C1056.35,-461.82 1099.34,-447.73 1136,-434 1137.85,-433.31 1139.74,-432.58 1141.65,-431.83"/>
<polygon fill="midnightblue" stroke="midnightblue" points="1143.14,-435 1151.1,-428.02 1140.52,-428.51 1143.14,-435"/>
</g>
<!-- Node41&#45;&gt;Node4 -->
<g id="edge58" class="edge">
<title>Node41&#45;&gt;Node4</title>
<path fill="none" stroke="midnightblue" d="M477.55,-408.98C469.67,-399.96 457.06,-385.52 447.26,-374.31"/>
<polygon fill="midnightblue" stroke="midnightblue" points="449.65,-371.74 440.44,-366.51 444.38,-376.34 449.65,-371.74"/>
</g>
<!-- Node41&#45;&gt;Node10 -->
<g id="edge59" class="edge">
<title>Node41&#45;&gt;Node10</title>
<path fill="none" stroke="midnightblue" d="M483.57,-408.82C480.52,-390.26 473.29,-346.34 469.12,-320.97"/>
<polygon fill="midnightblue" stroke="midnightblue" points="472.52,-320.08 467.44,-310.78 465.61,-321.22 472.52,-320.08"/>
</g>
<!-- Node41&#45;&gt;Node12 -->
<g id="edge61" class="edge">
<title>Node41&#45;&gt;Node12</title>
<path fill="none" stroke="midnightblue" d="M489.97,-408.84C500.27,-390.03 523,-343.8 523,-302 523,-302 523,-302 523,-244 523,-203.72 497.12,-162.29 480.55,-139.88"/>
<polygon fill="midnightblue" stroke="midnightblue" points="483.18,-137.57 474.32,-131.76 477.63,-141.83 483.18,-137.57"/>
</g>
<!-- Node41&#45;&gt;Node13 -->
<g id="edge63" class="edge">
<title>Node41&#45;&gt;Node13</title>
<path fill="none" stroke="midnightblue" d="M507.78,-408.98C535.05,-398.77 580.91,-381.61 611.8,-370.05"/>
<polygon fill="midnightblue" stroke="midnightblue" points="613.12,-373.29 621.26,-366.51 610.67,-366.74 613.12,-373.29"/>
</g>
<!-- Node41&#45;&gt;Node27 -->
<g id="edge62" class="edge">
<title>Node41&#45;&gt;Node27</title>
<path fill="none" stroke="midnightblue" d="M495.89,-408.92C516.9,-391.32 561,-348.81 561,-302 561,-302 561,-302 561,-182.5 561,-146.51 544.5,-107.09 533.54,-84.86"/>
<polygon fill="midnightblue" stroke="midnightblue" points="536.51,-82.98 528.84,-75.68 530.28,-86.18 536.51,-82.98"/>
</g>
<!-- Node42 -->
<g id="node42" class="node">
<title>Node42</title>
<g id="a_node42"><a xlink:title=" ">
<polygon fill="white" stroke="#bfbfbf" points="779,-347.5 779,-366.5 835,-366.5 835,-347.5 779,-347.5"/>
<text text-anchor="middle" x="807" y="-354.5" font-family="Helvetica,sans-Serif" font-size="10.00">optional</text>
</a>
</g>
</g>
<!-- Node41&#45;&gt;Node42 -->
<g id="edge60" class="edge">
<title>Node41&#45;&gt;Node42</title>
<path fill="none" stroke="midnightblue" d="M517.66,-408.96C526.2,-406.87 535.42,-404.73 544,-403 640.58,-383.48 668.55,-386.8 768.83,-367.1"/>
<polygon fill="midnightblue" stroke="midnightblue" points="769.65,-370.5 778.77,-365.11 768.28,-363.64 769.65,-370.5"/>
</g>
<!-- Node43 -->
<g id="node43" class="node">
<title>Node43</title>
<g id="a_node43"><a xlink:href="types_8hpp.html" target="_top" xlink:title=" ">
<polygon fill="white" stroke="black" points="853.5,-347.5 853.5,-366.5 956.5,-366.5 956.5,-347.5 853.5,-347.5"/>
<text text-anchor="middle" x="905" y="-354.5" font-family="Helvetica,sans-Serif" font-size="10.00">precice/types.hpp</text>
</a>
</g>
</g>
<!-- Node41&#45;&gt;Node43 -->
<g id="edge64" class="edge">
<title>Node41&#45;&gt;Node43</title>
<path fill="none" stroke="midnightblue" d="M516.69,-408.96C525.49,-406.8 535.08,-404.63 544,-403 672.89,-379.52 709.14,-384.53 843.18,-367.06"/>
<polygon fill="midnightblue" stroke="midnightblue" points="843.97,-370.49 853.43,-365.71 843.06,-363.55 843.97,-370.49"/>
</g>
<!-- Node44 -->
<g id="node44" class="node">
<title>Node44</title>
<g id="a_node44"><a xlink:title=" ">
<polygon fill="white" stroke="#bfbfbf" points="717,-347.5 717,-366.5 761,-366.5 761,-347.5 717,-347.5"/>
<text text-anchor="middle" x="739" y="-354.5" font-family="Helvetica,sans-Serif" font-size="10.00">mpi.h</text>
</a>
</g>
</g>
<!-- Node41&#45;&gt;Node44 -->
<g id="edge65" class="edge">
<title>Node41&#45;&gt;Node44</title>
<path fill="none" stroke="midnightblue" d="M518.97,-409C527.16,-406.99 535.88,-404.89 544,-403 613.56,-386.82 633.95,-385.5 706.59,-367.23"/>
<polygon fill="midnightblue" stroke="midnightblue" points="707.87,-370.52 716.7,-364.67 706.14,-363.74 707.87,-370.52"/>
</g>
<!-- Node45&#45;&gt;Node12 -->
<g id="edge67" class="edge">
<title>Node45&#45;&gt;Node12</title>
<path fill="none" stroke="midnightblue" d="M367.06,-291.46C383.31,-264.08 434.34,-178.05 456.53,-140.65"/>
<polygon fill="midnightblue" stroke="midnightblue" points="459.65,-142.25 461.74,-131.87 453.63,-138.68 459.65,-142.25"/>
</g>
</g>
</svg>
        <g id="navigator" transform="translate(0 0)" fill="#404254">
                <rect fill="#f2f5e9" fill-opacity="0.5" stroke="#606060" stroke-width=".5" x="0" y="0" width="60" height="60"/>
                <use id="zoomplus" xlink:href="#zoomPlus" x="17" y="9" onmousedown="handleZoom(evt,'in')"/>
                <use id="zoomminus" xlink:href="#zoomMin" x="42" y="9" onmousedown="handleZoom(evt,'out')"/>
                <use id="reset" xlink:href="#resetDef" x="30" y="36" onmousedown="handleReset()"/>
                <g id="arrowUp" xlink:href="#dirArrow" transform="translate(30 24)" onmousedown="handlePan(0,-1)">
                  <use xlink:href="#rim" fill="#404040">
                        <set attributeName="fill" to="#808080" begin="arrowUp.mouseover" end="arrowUp.mouseout"/>
                  </use>
                  <path fill="none" stroke="white" stroke-width="1.5" d="M0,-3.0v7 M-2.5,-0.5L0,-3.0L2.5,-0.5"/>
                </g>
                <g id="arrowRight" xlink:href="#dirArrow" transform="rotate(90) translate(36 -43)" onmousedown="handlePan(1,0)">
                  <use xlink:href="#rim" fill="#404040">
                        <set attributeName="fill" to="#808080" begin="arrowRight.mouseover" end="arrowRight.mouseout"/>
                  </use>
                  <path fill="none" stroke="white" stroke-width="1.5" d="M0,-3.0v7 M-2.5,-0.5L0,-3.0L2.5,-0.5"/>
                </g>
                <g id="arrowDown" xlink:href="#dirArrow" transform="rotate(180) translate(-30 -48)" onmousedown="handlePan(0,1)">
                  <use xlink:href="#rim" fill="#404040">
                        <set attributeName="fill" to="#808080" begin="arrowDown.mouseover" end="arrowDown.mouseout"/>
                  </use>
                  <path fill="none" stroke="white" stroke-width="1.5" d="M0,-3.0v7 M-2.5,-0.5L0,-3.0L2.5,-0.5"/>
                </g>
                <g id="arrowLeft" xlink:href="#dirArrow" transform="rotate(270) translate(-36 17)" onmousedown="handlePan(-1,0)">
                  <use xlink:href="#rim" fill="#404040">
                        <set attributeName="fill" to="#808080" begin="arrowLeft.mouseover" end="arrowLeft.mouseout"/>
                  </use>
                  <path fill="none" stroke="white" stroke-width="1.5" d="M0,-3.0v7 M-2.5,-0.5L0,-3.0L2.5,-0.5"/>
                </g>
        </g>
        <svg viewBox="0 0 15 15" width="100%" height="30px" preserveAspectRatio="xMaxYMin meet">
         <g id="arrow_out" transform="scale(0.3 0.3)">
          <a xlink:href="SocketSendQueue_8cpp__incl_org.svg" target="_base">
           <rect id="button" ry="5" rx="5" y="6" x="6" height="38" width="38"
                fill="#f2f5e9" fill-opacity="0.5" stroke="#606060" stroke-width="1.0"/>
           <path id="arrow"
             d="M 11.500037,31.436501 C 11.940474,20.09759 22.043105,11.32322 32.158766,21.979434 L 37.068811,17.246167 C 37.068811,17.246167 37.088388,32 37.088388,32 L 22.160133,31.978069 C 22.160133,31.978069 26.997745,27.140456 26.997745,27.140456 C 18.528582,18.264221 13.291696,25.230495 11.500037,31.436501 z"
             style="fill:#404040;"/>
          </a>
         </g>
        </svg>
</svg>
