<?xml version="1.0" encoding="UTF-8" standalone="no"?>
<!DOCTYPE svg PUBLIC "-//W3C//DTD SVG 1.1//EN"
 "http://www.w3.org/Graphics/SVG/1.1/DTD/svg11.dtd">
<!-- Generated by graphviz version 2.43.0 (0)
 -->
<!-- Title: src/precice/tests/SpanTests.cpp Pages: 1 -->
<svg width="2252pt" height="666pt"
 viewBox="0.00 0.00 2252.00 666.00" xmlns="http://www.w3.org/2000/svg" xmlns:xlink="http://www.w3.org/1999/xlink">
<g id="graph0" class="graph" transform="scale(1 1) rotate(0) translate(4 662)">
<title>src/precice/tests/SpanTests.cpp</title>
<polygon fill="white" stroke="transparent" points="-4,4 -4,-662 2248,-662 2248,4 -4,4"/>
<!-- Node1 -->
<g id="node1" class="node">
<title>Node1</title>
<g id="a_node1"><a xlink:title=" ">
<polygon fill="#bfbfbf" stroke="black" points="353,-638.5 353,-657.5 521,-657.5 521,-638.5 353,-638.5"/>
<text text-anchor="middle" x="437" y="-645.5" font-family="Helvetica,sans-Serif" font-size="10.00">src/precice/tests/SpanTests.cpp</text>
</a>
</g>
</g>
<!-- Node2 -->
<g id="node2" class="node">
<title>Node2</title>
<g id="a_node2"><a xlink:title=" ">
<polygon fill="white" stroke="#bfbfbf" points="1671,-56.5 1671,-75.5 1715,-75.5 1715,-56.5 1671,-56.5"/>
<text text-anchor="middle" x="1693" y="-63.5" font-family="Helvetica,sans-Serif" font-size="10.00">string</text>
</a>
</g>
</g>
<!-- Node1&#45;&gt;Node2 -->
<g id="edge1" class="edge">
<title>Node1&#45;&gt;Node2</title>
<path fill="none" stroke="midnightblue" d="M521.13,-646.34C877.45,-642.99 2244,-624.46 2244,-537 2244,-537 2244,-537 2244,-423 2244,-260.79 2194.33,-191.6 2053,-112 1997.18,-80.56 1802.74,-70.67 1725.24,-67.94"/>
<polygon fill="midnightblue" stroke="midnightblue" points="1725.22,-64.43 1715.11,-67.6 1724.99,-71.43 1725.22,-64.43"/>
</g>
<!-- Node3 -->
<g id="node3" class="node">
<title>Node3</title>
<g id="a_node3"><a xlink:title=" ">
<polygon fill="white" stroke="#bfbfbf" points="942.5,-56.5 942.5,-75.5 1015.5,-75.5 1015.5,-56.5 942.5,-56.5"/>
<text text-anchor="middle" x="979" y="-63.5" font-family="Helvetica,sans-Serif" font-size="10.00">string_view</text>
</a>
</g>
</g>
<!-- Node1&#45;&gt;Node3 -->
<g id="edge2" class="edge">
<title>Node1&#45;&gt;Node3</title>
<path fill="none" stroke="midnightblue" d="M352.74,-642.87C225.75,-634.31 0,-608.98 0,-537 0,-537 0,-537 0,-244 0,-148.07 737.3,-85.34 932.21,-70.43"/>
<polygon fill="midnightblue" stroke="midnightblue" points="932.7,-73.9 942.41,-69.66 932.17,-66.92 932.7,-73.9"/>
</g>
<!-- Node4 -->
<g id="node4" class="node">
<title>Node4</title>
<g id="a_node4"><a xlink:href="span_8hpp.html" target="_top" xlink:title=" ">
<polygon fill="white" stroke="black" points="142.5,-291.5 142.5,-310.5 241.5,-310.5 241.5,-291.5 142.5,-291.5"/>
<text text-anchor="middle" x="192" y="-298.5" font-family="Helvetica,sans-Serif" font-size="10.00">precice/span.hpp</text>
</a>
</g>
</g>
<!-- Node1&#45;&gt;Node4 -->
<g id="edge3" class="edge">
<title>Node1&#45;&gt;Node4</title>
<path fill="none" stroke="midnightblue" d="M392.08,-638.48C314.83,-622.54 165,-585.39 165,-537 165,-537 165,-537 165,-423 165,-385.84 177.28,-343.76 185.28,-320.31"/>
<polygon fill="midnightblue" stroke="midnightblue" points="188.66,-321.25 188.69,-310.66 182.06,-318.92 188.66,-321.25"/>
</g>
<!-- Node10 -->
<g id="node10" class="node">
<title>Node10</title>
<g id="a_node10"><a xlink:href="Testing_8hpp.html" target="_top" xlink:title=" ">
<polygon fill="white" stroke="black" points="874.5,-582.5 874.5,-601.5 983.5,-601.5 983.5,-582.5 874.5,-582.5"/>
<text text-anchor="middle" x="929" y="-589.5" font-family="Helvetica,sans-Serif" font-size="10.00">testing/Testing.hpp</text>
</a>
</g>
</g>
<!-- Node1&#45;&gt;Node10 -->
<g id="edge9" class="edge">
<title>Node1&#45;&gt;Node10</title>
<path fill="none" stroke="midnightblue" d="M514.69,-638.47C611.16,-627.88 773.98,-610.01 864.1,-600.12"/>
<polygon fill="midnightblue" stroke="midnightblue" points="864.63,-603.59 874.19,-599.02 863.87,-596.63 864.63,-603.59"/>
</g>
<!-- Node5 -->
<g id="node5" class="node">
<title>Node5</title>
<g id="a_node5"><a xlink:title=" ">
<polygon fill="white" stroke="#bfbfbf" points="729,-0.5 729,-19.5 771,-19.5 771,-0.5 729,-0.5"/>
<text text-anchor="middle" x="750" y="-7.5" font-family="Helvetica,sans-Serif" font-size="10.00">array</text>
</a>
</g>
</g>
<!-- Node4&#45;&gt;Node5 -->
<g id="edge4" class="edge">
<title>Node4&#45;&gt;Node5</title>
<path fill="none" stroke="midnightblue" d="M191.63,-291.38C191.46,-278.31 192.65,-253.08 203,-235 264.42,-127.68 302.91,-106.02 416,-56 469.95,-32.14 646.14,-17.95 718.52,-13"/>
<polygon fill="midnightblue" stroke="midnightblue" points="719.07,-16.47 728.82,-12.31 718.61,-9.48 719.07,-16.47"/>
</g>
<!-- Node6 -->
<g id="node6" class="node">
<title>Node6</title>
<g id="a_node6"><a xlink:title=" ">
<polygon fill="white" stroke="#bfbfbf" points="280.5,-235.5 280.5,-254.5 333.5,-254.5 333.5,-235.5 280.5,-235.5"/>
<text text-anchor="middle" x="307" y="-242.5" font-family="Helvetica,sans-Serif" font-size="10.00">cstddef</text>
</a>
</g>
</g>
<!-- Node4&#45;&gt;Node6 -->
<g id="edge5" class="edge">
<title>Node4&#45;&gt;Node6</title>
<path fill="none" stroke="midnightblue" d="M210.22,-291.44C228.9,-282.68 258.16,-268.94 279.62,-258.86"/>
<polygon fill="midnightblue" stroke="midnightblue" points="281.3,-261.93 288.86,-254.52 278.32,-255.6 281.3,-261.93"/>
</g>
<!-- Node7 -->
<g id="node7" class="node">
<title>Node7</title>
<g id="a_node7"><a xlink:title=" ">
<polygon fill="white" stroke="#bfbfbf" points="352,-235.5 352,-254.5 402,-254.5 402,-235.5 352,-235.5"/>
<text text-anchor="middle" x="377" y="-242.5" font-family="Helvetica,sans-Serif" font-size="10.00">cstdint</text>
</a>
</g>
</g>
<!-- Node4&#45;&gt;Node7 -->
<g id="edge6" class="edge">
<title>Node4&#45;&gt;Node7</title>
<path fill="none" stroke="midnightblue" d="M221.31,-291.44C254.14,-281.86 307.3,-266.34 342.21,-256.15"/>
<polygon fill="midnightblue" stroke="midnightblue" points="343.36,-259.47 351.98,-253.3 341.4,-252.75 343.36,-259.47"/>
</g>
<!-- Node8 -->
<g id="node8" class="node">
<title>Node8</title>
<g id="a_node8"><a xlink:title=" ">
<polygon fill="white" stroke="#bfbfbf" points="212,-235.5 212,-254.5 262,-254.5 262,-235.5 212,-235.5"/>
<text text-anchor="middle" x="237" y="-242.5" font-family="Helvetica,sans-Serif" font-size="10.00">cstring</text>
</a>
</g>
</g>
<!-- Node4&#45;&gt;Node8 -->
<g id="edge7" class="edge">
<title>Node4&#45;&gt;Node8</title>
<path fill="none" stroke="midnightblue" d="M199.43,-291.08C205.85,-283.38 215.31,-272.03 223.12,-262.65"/>
<polygon fill="midnightblue" stroke="midnightblue" points="225.99,-264.67 229.71,-254.75 220.62,-260.19 225.99,-264.67"/>
</g>
<!-- Node9 -->
<g id="node9" class="node">
<title>Node9</title>
<g id="a_node9"><a xlink:title=" ">
<polygon fill="white" stroke="#bfbfbf" points="79.5,-235.5 79.5,-254.5 148.5,-254.5 148.5,-235.5 79.5,-235.5"/>
<text text-anchor="middle" x="114" y="-242.5" font-family="Helvetica,sans-Serif" font-size="10.00">type_traits</text>
</a>
</g>
</g>
<!-- Node4&#45;&gt;Node9 -->
<g id="edge8" class="edge">
<title>Node4&#45;&gt;Node9</title>
<path fill="none" stroke="midnightblue" d="M179.47,-291.32C167.41,-282.98 148.97,-270.21 134.73,-260.35"/>
<polygon fill="midnightblue" stroke="midnightblue" points="136.72,-257.47 126.5,-254.65 132.73,-263.22 136.72,-257.47"/>
</g>
<!-- Node10&#45;&gt;Node2 -->
<g id="edge12" class="edge">
<title>Node10&#45;&gt;Node2</title>
<path fill="none" stroke="midnightblue" d="M983.84,-589.05C1223.62,-580.16 2168,-541.33 2168,-481 2168,-481 2168,-481 2168,-423 2168,-337.39 2092,-331.61 2092,-246 2092,-246 2092,-246 2092,-188 2092,-137.98 2054.22,-133.37 2009,-112 1959.08,-88.41 1795.41,-74.28 1725.32,-69.17"/>
<polygon fill="midnightblue" stroke="midnightblue" points="1725.52,-65.68 1715.3,-68.46 1725.02,-72.66 1725.52,-65.68"/>
</g>
<!-- Node10&#45;&gt;Node9 -->
<g id="edge13" class="edge">
<title>Node10&#45;&gt;Node9</title>
<path fill="none" stroke="midnightblue" d="M874.27,-590.03C680.42,-585.87 38,-565.7 38,-481 38,-481 38,-481 38,-423 38,-359.66 79.6,-293.16 101.25,-262.84"/>
<polygon fill="midnightblue" stroke="midnightblue" points="104.17,-264.78 107.26,-254.64 98.52,-260.64 104.17,-264.78"/>
</g>
<!-- Node11 -->
<g id="node11" class="node">
<title>Node11</title>
<g id="a_node11"><a xlink:title=" ">
<polygon fill="white" stroke="#bfbfbf" points="1396.5,-0.5 1396.5,-19.5 1465.5,-19.5 1465.5,-0.5 1396.5,-0.5"/>
<text text-anchor="middle" x="1431" y="-7.5" font-family="Helvetica,sans-Serif" font-size="10.00">Eigen/Core</text>
</a>
</g>
</g>
<!-- Node10&#45;&gt;Node11 -->
<g id="edge10" class="edge">
<title>Node10&#45;&gt;Node11</title>
<path fill="none" stroke="midnightblue" d="M983.7,-591.28C1131.33,-591.43 1549.99,-587.82 1895,-546 2035.18,-529.01 2206,-622.21 2206,-481 2206,-481 2206,-481 2206,-126.5 2206,-95.61 2359.35,-127.45 2029,-56 1825.8,-12.05 1575.76,-9.29 1475.59,-10.19"/>
<polygon fill="midnightblue" stroke="midnightblue" points="1475.48,-6.7 1465.52,-10.3 1475.56,-13.7 1475.48,-6.7"/>
</g>
<!-- Node12 -->
<g id="node12" class="node">
<title>Node12</title>
<g id="a_node12"><a xlink:title=" ">
<polygon fill="white" stroke="#bfbfbf" points="731,-526.5 731,-545.5 863,-545.5 863,-526.5 731,-526.5"/>
<text text-anchor="middle" x="797" y="-533.5" font-family="Helvetica,sans-Serif" font-size="10.00">boost/test/unit_test.hpp</text>
</a>
</g>
</g>
<!-- Node10&#45;&gt;Node12 -->
<g id="edge11" class="edge">
<title>Node10&#45;&gt;Node12</title>
<path fill="none" stroke="midnightblue" d="M908.08,-582.44C886.26,-573.52 851.85,-559.44 827.11,-549.32"/>
<polygon fill="midnightblue" stroke="midnightblue" points="828.4,-546.06 817.82,-545.52 825.75,-552.54 828.4,-546.06"/>
</g>
<!-- Node13 -->
<g id="node13" class="node">
<title>Node13</title>
<g id="a_node13"><a xlink:href="differences_8hpp.html" target="_top" xlink:title=" ">
<polygon fill="white" stroke="black" points="1484,-470.5 1484,-489.5 1604,-489.5 1604,-470.5 1484,-470.5"/>
<text text-anchor="middle" x="1544" y="-477.5" font-family="Helvetica,sans-Serif" font-size="10.00">math/differences.hpp</text>
</a>
</g>
</g>
<!-- Node10&#45;&gt;Node13 -->
<g id="edge14" class="edge">
<title>Node10&#45;&gt;Node13</title>
<path fill="none" stroke="midnightblue" d="M983.62,-588.67C1063.52,-584.45 1216.63,-573.3 1344,-546 1405.28,-532.87 1474.31,-508.12 1513.13,-493.24"/>
<polygon fill="midnightblue" stroke="midnightblue" points="1514.73,-496.38 1522.79,-489.5 1512.2,-489.85 1514.73,-496.38"/>
</g>
<!-- Node49 -->
<g id="node41" class="node">
<title>Node49</title>
<g id="a_node41"><a xlink:href="math_8hpp.html" target="_top" xlink:title=" ">
<polygon fill="white" stroke="black" points="1243,-526.5 1243,-545.5 1335,-545.5 1335,-526.5 1243,-526.5"/>
<text text-anchor="middle" x="1289" y="-533.5" font-family="Helvetica,sans-Serif" font-size="10.00">math/math.hpp</text>
</a>
</g>
</g>
<!-- Node10&#45;&gt;Node49 -->
<g id="edge60" class="edge">
<title>Node10&#45;&gt;Node49</title>
<path fill="none" stroke="midnightblue" d="M983.68,-582.8C1051.03,-572.7 1164.86,-555.62 1232.87,-545.42"/>
<polygon fill="midnightblue" stroke="midnightblue" points="1233.6,-548.85 1242.97,-543.9 1232.56,-541.93 1233.6,-548.85"/>
</g>
<!-- Node52 -->
<g id="node44" class="node">
<title>Node52</title>
<g id="a_node44"><a xlink:href="TestContext_8hpp.html" target="_top" xlink:title=" ">
<polygon fill="white" stroke="black" points="284,-414.5 284,-433.5 416,-433.5 416,-414.5 284,-414.5"/>
<text text-anchor="middle" x="350" y="-421.5" font-family="Helvetica,sans-Serif" font-size="10.00">testing/TestContext.hpp</text>
</a>
</g>
</g>
<!-- Node10&#45;&gt;Node52 -->
<g id="edge66" class="edge">
<title>Node10&#45;&gt;Node52</title>
<path fill="none" stroke="midnightblue" d="M923.98,-582.19C915.33,-567.91 896.21,-539.9 872,-526 729.49,-444.21 532.78,-427.33 426.15,-424.64"/>
<polygon fill="midnightblue" stroke="midnightblue" points="426.19,-421.14 416.11,-424.42 426.04,-428.14 426.19,-421.14"/>
</g>
<!-- Node56 -->
<g id="node48" class="node">
<title>Node56</title>
<g id="a_node48"><a xlink:href="IntraComm_8hpp.html" target="_top" xlink:title=" ">
<polygon fill="white" stroke="black" points="638,-353 638,-372 754,-372 754,-353 638,-353"/>
<text text-anchor="middle" x="696" y="-360" font-family="Helvetica,sans-Serif" font-size="10.00">utils/IntraComm.hpp</text>
</a>
</g>
</g>
<!-- Node10&#45;&gt;Node56 -->
<g id="edge76" class="edge">
<title>Node10&#45;&gt;Node56</title>
<path fill="none" stroke="midnightblue" d="M926.11,-582.33C921.44,-569.19 911.29,-543.88 897,-526 843.98,-459.65 759.5,-402.59 719.05,-377.35"/>
<polygon fill="midnightblue" stroke="midnightblue" points="720.79,-374.31 710.44,-372.04 717.11,-380.26 720.79,-374.31"/>
</g>
<!-- Node13&#45;&gt;Node11 -->
<g id="edge15" class="edge">
<title>Node13&#45;&gt;Node11</title>
<path fill="none" stroke="midnightblue" d="M1604.26,-476.06C1734.5,-468.52 2036.53,-444.16 2111,-378 2176.27,-320.01 2168,-277.31 2168,-190 2168,-190 2168,-190 2168,-126.5 2168,-56.08 1635.99,-21.95 1475.99,-13.27"/>
<polygon fill="midnightblue" stroke="midnightblue" points="1475.73,-9.75 1465.56,-12.71 1475.36,-16.74 1475.73,-9.75"/>
</g>
<!-- Node14 -->
<g id="node14" class="node">
<title>Node14</title>
<g id="a_node14"><a xlink:href="assertion_8hpp.html" target="_top" xlink:title=" ">
<polygon fill="white" stroke="black" points="1522.5,-414.5 1522.5,-433.5 1629.5,-433.5 1629.5,-414.5 1522.5,-414.5"/>
<text text-anchor="middle" x="1576" y="-421.5" font-family="Helvetica,sans-Serif" font-size="10.00">utils/assertion.hpp</text>
</a>
</g>
</g>
<!-- Node13&#45;&gt;Node14 -->
<g id="edge16" class="edge">
<title>Node13&#45;&gt;Node14</title>
<path fill="none" stroke="midnightblue" d="M1549.28,-470.08C1553.71,-462.61 1560.16,-451.72 1565.62,-442.52"/>
<polygon fill="midnightblue" stroke="midnightblue" points="1568.73,-444.14 1570.81,-433.75 1562.71,-440.57 1568.73,-444.14"/>
</g>
<!-- Node14&#45;&gt;Node3 -->
<g id="edge19" class="edge">
<title>Node14&#45;&gt;Node3</title>
<path fill="none" stroke="midnightblue" d="M1522.3,-421.75C1452.81,-418.88 1337.5,-409.37 1311,-378 1285.52,-347.83 1349.05,-325.02 1329,-291 1312.23,-262.55 1292.25,-272.1 1264,-255 1162.75,-193.69 1046.05,-113.64 999.61,-81.39"/>
<polygon fill="midnightblue" stroke="midnightblue" points="1001.49,-78.43 991.28,-75.6 997.49,-84.18 1001.49,-78.43"/>
</g>
<!-- Node15 -->
<g id="node15" class="node">
<title>Node15</title>
<g id="a_node15"><a xlink:title=" ">
<polygon fill="white" stroke="#bfbfbf" points="1974.5,-353 1974.5,-372 2023.5,-372 2023.5,-353 1974.5,-353"/>
<text text-anchor="middle" x="1999" y="-360" font-family="Helvetica,sans-Serif" font-size="10.00">cstdlib</text>
</a>
</g>
</g>
<!-- Node14&#45;&gt;Node15 -->
<g id="edge17" class="edge">
<title>Node14&#45;&gt;Node15</title>
<path fill="none" stroke="midnightblue" d="M1629.5,-420.77C1704.36,-416.74 1844.17,-405.89 1960,-378 1962.99,-377.28 1966.07,-376.4 1969.12,-375.43"/>
<polygon fill="midnightblue" stroke="midnightblue" points="1970.35,-378.71 1978.64,-372.12 1968.05,-372.09 1970.35,-378.71"/>
</g>
<!-- Node16 -->
<g id="node16" class="node">
<title>Node16</title>
<g id="a_node16"><a xlink:title=" ">
<polygon fill="white" stroke="#bfbfbf" points="2042,-353 2042,-372 2102,-372 2102,-353 2042,-353"/>
<text text-anchor="middle" x="2072" y="-360" font-family="Helvetica,sans-Serif" font-size="10.00">iostream</text>
</a>
</g>
</g>
<!-- Node14&#45;&gt;Node16 -->
<g id="edge18" class="edge">
<title>Node14&#45;&gt;Node16</title>
<path fill="none" stroke="midnightblue" d="M1629.85,-422.17C1716.04,-419.85 1889.88,-411.07 2033,-378 2036.07,-377.29 2039.22,-376.4 2042.34,-375.42"/>
<polygon fill="midnightblue" stroke="midnightblue" points="2043.77,-378.63 2052.06,-372.04 2041.47,-372.02 2043.77,-378.63"/>
</g>
<!-- Node17 -->
<g id="node17" class="node">
<title>Node17</title>
<g id="a_node17"><a xlink:href="fmt_8hpp.html" target="_top" xlink:title=" ">
<polygon fill="white" stroke="black" points="1277.5,-118 1277.5,-137 1356.5,-137 1356.5,-118 1277.5,-118"/>
<text text-anchor="middle" x="1317" y="-125" font-family="Helvetica,sans-Serif" font-size="10.00">utils/fmt.hpp</text>
</a>
</g>
</g>
<!-- Node14&#45;&gt;Node17 -->
<g id="edge20" class="edge">
<title>Node14&#45;&gt;Node17</title>
<path fill="none" stroke="midnightblue" d="M1522.3,-421.34C1455.22,-418.01 1346.17,-408.01 1321,-378 1312.14,-367.44 1314.97,-359.39 1321,-347 1332.37,-323.66 1354.6,-333.81 1367,-311 1383.17,-281.26 1379.99,-267.89 1372,-235 1363.73,-200.96 1342.55,-165.64 1329.02,-145.44"/>
<polygon fill="midnightblue" stroke="midnightblue" points="1331.8,-143.3 1323.25,-137.04 1326.03,-147.27 1331.8,-143.3"/>
</g>
<!-- Node29 -->
<g id="node23" class="node">
<title>Node29</title>
<g id="a_node23"><a xlink:title=" ">
<polygon fill="white" stroke="#bfbfbf" points="1343.5,-353 1343.5,-372 1490.5,-372 1490.5,-353 1343.5,-353"/>
<text text-anchor="middle" x="1417" y="-360" font-family="Helvetica,sans-Serif" font-size="10.00">boost/current_function.hpp</text>
</a>
</g>
</g>
<!-- Node14&#45;&gt;Node29 -->
<g id="edge32" class="edge">
<title>Node14&#45;&gt;Node29</title>
<path fill="none" stroke="midnightblue" d="M1553.22,-414.48C1525.95,-404.27 1480.09,-387.11 1449.2,-375.55"/>
<polygon fill="midnightblue" stroke="midnightblue" points="1450.33,-372.24 1439.74,-372.01 1447.88,-378.79 1450.33,-372.24"/>
</g>
<!-- Node30 -->
<g id="node24" class="node">
<title>Node30</title>
<g id="a_node24"><a xlink:title=" ">
<polygon fill="white" stroke="#bfbfbf" points="1508.5,-347.5 1508.5,-377.5 1643.5,-377.5 1643.5,-347.5 1508.5,-347.5"/>
<text text-anchor="start" x="1516.5" y="-365.5" font-family="Helvetica,sans-Serif" font-size="10.00">boost/preprocessor</text>
<text text-anchor="middle" x="1576" y="-354.5" font-family="Helvetica,sans-Serif" font-size="10.00">/comparison/greater.hpp</text>
</a>
</g>
</g>
<!-- Node14&#45;&gt;Node30 -->
<g id="edge33" class="edge">
<title>Node14&#45;&gt;Node30</title>
<path fill="none" stroke="midnightblue" d="M1576,-414.48C1576,-407.47 1576,-397.19 1576,-387.7"/>
<polygon fill="midnightblue" stroke="midnightblue" points="1579.5,-387.52 1576,-377.52 1572.5,-387.52 1579.5,-387.52"/>
</g>
<!-- Node31 -->
<g id="node25" class="node">
<title>Node31</title>
<g id="a_node25"><a xlink:title=" ">
<polygon fill="white" stroke="#bfbfbf" points="1890,-112.5 1890,-142.5 2000,-142.5 2000,-112.5 1890,-112.5"/>
<text text-anchor="start" x="1898" y="-130.5" font-family="Helvetica,sans-Serif" font-size="10.00">boost/preprocessor</text>
<text text-anchor="middle" x="1945" y="-119.5" font-family="Helvetica,sans-Serif" font-size="10.00">/control/if.hpp</text>
</a>
</g>
</g>
<!-- Node14&#45;&gt;Node31 -->
<g id="edge34" class="edge">
<title>Node14&#45;&gt;Node31</title>
<path fill="none" stroke="midnightblue" d="M1629.75,-421.87C1712.59,-419.14 1866.48,-409.81 1910,-378 1940.17,-355.94 1946,-339.38 1946,-302 1946,-302 1946,-302 1946,-244 1946,-212.49 1945.62,-176.15 1945.33,-152.78"/>
<polygon fill="midnightblue" stroke="midnightblue" points="1948.83,-152.68 1945.2,-142.72 1941.83,-152.77 1948.83,-152.68"/>
</g>
<!-- Node32 -->
<g id="node26" class="node">
<title>Node32</title>
<g id="a_node26"><a xlink:title=" ">
<polygon fill="white" stroke="#bfbfbf" points="1722,-112.5 1722,-142.5 1832,-142.5 1832,-112.5 1722,-112.5"/>
<text text-anchor="start" x="1730" y="-130.5" font-family="Helvetica,sans-Serif" font-size="10.00">boost/preprocessor</text>
<text text-anchor="middle" x="1777" y="-119.5" font-family="Helvetica,sans-Serif" font-size="10.00">/stringize.hpp</text>
</a>
</g>
</g>
<!-- Node14&#45;&gt;Node32 -->
<g id="edge35" class="edge">
<title>Node14&#45;&gt;Node32</title>
<path fill="none" stroke="midnightblue" d="M1629.64,-418.71C1683.89,-413.13 1762.33,-401.21 1781,-378 1808.43,-343.9 1790.07,-208.23 1781.12,-152.54"/>
<polygon fill="midnightblue" stroke="midnightblue" points="1784.54,-151.82 1779.47,-142.53 1777.64,-152.96 1784.54,-151.82"/>
</g>
<!-- Node33 -->
<g id="node27" class="node">
<title>Node33</title>
<g id="a_node27"><a xlink:title=" ">
<polygon fill="white" stroke="#bfbfbf" points="1662,-347.5 1662,-377.5 1772,-377.5 1772,-347.5 1662,-347.5"/>
<text text-anchor="start" x="1670" y="-365.5" font-family="Helvetica,sans-Serif" font-size="10.00">boost/preprocessor</text>
<text text-anchor="middle" x="1717" y="-354.5" font-family="Helvetica,sans-Serif" font-size="10.00">/variadic/size.hpp</text>
</a>
</g>
</g>
<!-- Node14&#45;&gt;Node33 -->
<g id="edge36" class="edge">
<title>Node14&#45;&gt;Node33</title>
<path fill="none" stroke="midnightblue" d="M1596.2,-414.48C1616.55,-405.89 1648.56,-392.38 1674.51,-381.43"/>
<polygon fill="midnightblue" stroke="midnightblue" points="1675.92,-384.64 1683.77,-377.52 1673.2,-378.19 1675.92,-384.64"/>
</g>
<!-- Node34 -->
<g id="node28" class="node">
<title>Node34</title>
<g id="a_node28"><a xlink:href="ArgumentFormatter_8hpp.html" target="_top" xlink:title=" ">
<polygon fill="white" stroke="red" points="1569.5,-179.5 1569.5,-198.5 1726.5,-198.5 1726.5,-179.5 1569.5,-179.5"/>
<text text-anchor="middle" x="1648" y="-186.5" font-family="Helvetica,sans-Serif" font-size="10.00">utils/ArgumentFormatter.hpp</text>
</a>
</g>
</g>
<!-- Node14&#45;&gt;Node34 -->
<g id="edge37" class="edge">
<title>Node14&#45;&gt;Node34</title>
<path fill="none" stroke="midnightblue" d="M1629.81,-423.37C1710.3,-422.65 1856.1,-415.96 1889,-378 1958.53,-297.76 1772.17,-228.11 1687.43,-201.51"/>
<polygon fill="midnightblue" stroke="midnightblue" points="1688.45,-198.16 1677.86,-198.55 1686.39,-204.85 1688.45,-198.16"/>
</g>
<!-- Node38 -->
<g id="node31" class="node">
<title>Node38</title>
<g id="a_node31"><a xlink:href="Parallel_8hpp.html" target="_top" xlink:title=" ">
<polygon fill="white" stroke="black" points="1059,-353 1059,-372 1157,-372 1157,-353 1059,-353"/>
<text text-anchor="middle" x="1108" y="-360" font-family="Helvetica,sans-Serif" font-size="10.00">utils/Parallel.hpp</text>
</a>
</g>
</g>
<!-- Node14&#45;&gt;Node38 -->
<g id="edge43" class="edge">
<title>Node14&#45;&gt;Node38</title>
<path fill="none" stroke="midnightblue" d="M1522.31,-416.17C1434.03,-404.95 1258.85,-382.68 1167.13,-371.02"/>
<polygon fill="midnightblue" stroke="midnightblue" points="1167.54,-367.54 1157.18,-369.75 1166.65,-374.49 1167.54,-367.54"/>
</g>
<!-- Node47 -->
<g id="node39" class="node">
<title>Node47</title>
<g id="a_node39"><a xlink:href="stacktrace_8hpp.html" target="_top" xlink:title=" ">
<polygon fill="white" stroke="black" points="1804.5,-179.5 1804.5,-198.5 1917.5,-198.5 1917.5,-179.5 1804.5,-179.5"/>
<text text-anchor="middle" x="1861" y="-186.5" font-family="Helvetica,sans-Serif" font-size="10.00">utils/stacktrace.hpp</text>
</a>
</g>
</g>
<!-- Node14&#45;&gt;Node47 -->
<g id="edge57" class="edge">
<title>Node14&#45;&gt;Node47</title>
<path fill="none" stroke="midnightblue" d="M1522.23,-423.75C1437.17,-423.01 1285.98,-412.79 1335,-347 1338.79,-341.91 1700.45,-236.59 1821.81,-201.36"/>
<polygon fill="midnightblue" stroke="midnightblue" points="1822.83,-204.71 1831.46,-198.56 1820.88,-197.99 1822.83,-204.71"/>
</g>
<!-- Node48 -->
<g id="node40" class="node">
<title>Node48</title>
<g id="a_node40"><a xlink:title=" ">
<polygon fill="white" stroke="#bfbfbf" points="1828,-353 1828,-372 1880,-372 1880,-353 1828,-353"/>
<text text-anchor="middle" x="1854" y="-360" font-family="Helvetica,sans-Serif" font-size="10.00">cassert</text>
</a>
</g>
</g>
<!-- Node14&#45;&gt;Node48 -->
<g id="edge59" class="edge">
<title>Node14&#45;&gt;Node48</title>
<path fill="none" stroke="midnightblue" d="M1629.97,-415.33C1678.58,-407.83 1751.74,-395.05 1814,-378 1816.81,-377.23 1819.69,-376.36 1822.57,-375.43"/>
<polygon fill="midnightblue" stroke="midnightblue" points="1823.88,-378.68 1832.2,-372.12 1821.6,-372.06 1823.88,-378.68"/>
</g>
<!-- Node17&#45;&gt;Node2 -->
<g id="edge21" class="edge">
<title>Node17&#45;&gt;Node2</title>
<path fill="none" stroke="midnightblue" d="M1351,-117.98C1360.06,-115.87 1369.87,-113.72 1379,-112 1481.2,-92.76 1603.47,-77.42 1660.6,-70.7"/>
<polygon fill="midnightblue" stroke="midnightblue" points="1661.28,-74.14 1670.81,-69.5 1660.47,-67.19 1661.28,-74.14"/>
</g>
<!-- Node17&#45;&gt;Node3 -->
<g id="edge22" class="edge">
<title>Node17&#45;&gt;Node3</title>
<path fill="none" stroke="midnightblue" d="M1284.9,-117.95C1276.5,-115.86 1267.44,-113.73 1259,-112 1177.5,-95.29 1081.59,-81.04 1025.81,-73.27"/>
<polygon fill="midnightblue" stroke="midnightblue" points="1026.26,-69.8 1015.87,-71.9 1025.3,-76.74 1026.26,-69.8"/>
</g>
<!-- Node18 -->
<g id="node18" class="node">
<title>Node18</title>
<g id="a_node18"><a xlink:title=" ">
<polygon fill="white" stroke="#bfbfbf" points="1206.5,-0.5 1206.5,-19.5 1285.5,-19.5 1285.5,-0.5 1206.5,-0.5"/>
<text text-anchor="middle" x="1246" y="-7.5" font-family="Helvetica,sans-Serif" font-size="10.00">fmt/format.h</text>
</a>
</g>
</g>
<!-- Node17&#45;&gt;Node18 -->
<g id="edge23" class="edge">
<title>Node17&#45;&gt;Node18</title>
<path fill="none" stroke="midnightblue" d="M1304.93,-117.8C1293.11,-108.66 1275.39,-93.25 1265,-76 1256.37,-61.68 1251.47,-43.22 1248.81,-29.63"/>
<polygon fill="midnightblue" stroke="midnightblue" points="1252.22,-28.82 1247.08,-19.56 1245.33,-30.01 1252.22,-28.82"/>
</g>
<!-- Node19 -->
<g id="node19" class="node">
<title>Node19</title>
<g id="a_node19"><a xlink:title=" ">
<polygon fill="white" stroke="#bfbfbf" points="1274,-56.5 1274,-75.5 1360,-75.5 1360,-56.5 1274,-56.5"/>
<text text-anchor="middle" x="1317" y="-63.5" font-family="Helvetica,sans-Serif" font-size="10.00">fmt/ostream.h</text>
</a>
</g>
</g>
<!-- Node17&#45;&gt;Node19 -->
<g id="edge24" class="edge">
<title>Node17&#45;&gt;Node19</title>
<path fill="none" stroke="midnightblue" d="M1317,-117.98C1317,-109.58 1317,-96.48 1317,-85.66"/>
<polygon fill="midnightblue" stroke="midnightblue" points="1320.5,-85.51 1317,-75.51 1313.5,-85.51 1320.5,-85.51"/>
</g>
<!-- Node20 -->
<g id="node20" class="node">
<title>Node20</title>
<g id="a_node20"><a xlink:href="fmtEigen_8hpp.html" target="_top" xlink:title=" ">
<polygon fill="white" stroke="red" points="1378,-56.5 1378,-75.5 1484,-75.5 1484,-56.5 1378,-56.5"/>
<text text-anchor="middle" x="1431" y="-63.5" font-family="Helvetica,sans-Serif" font-size="10.00">utils/fmtEigen.hpp</text>
</a>
</g>
</g>
<!-- Node17&#45;&gt;Node20 -->
<g id="edge25" class="edge">
<title>Node17&#45;&gt;Node20</title>
<path fill="none" stroke="midnightblue" d="M1333.33,-117.98C1352.21,-108.12 1383.51,-91.79 1405.58,-80.27"/>
<polygon fill="midnightblue" stroke="midnightblue" points="1407.45,-83.24 1414.7,-75.51 1404.21,-77.03 1407.45,-83.24"/>
</g>
<!-- Node24 -->
<g id="node21" class="node">
<title>Node24</title>
<g id="a_node21"><a xlink:href="fmtSTL_8hpp.html" target="_top" xlink:title=" ">
<polygon fill="white" stroke="red" points="1059,-56.5 1059,-75.5 1155,-75.5 1155,-56.5 1059,-56.5"/>
<text text-anchor="middle" x="1107" y="-63.5" font-family="Helvetica,sans-Serif" font-size="10.00">utils/fmtSTL.hpp</text>
</a>
</g>
</g>
<!-- Node17&#45;&gt;Node24 -->
<g id="edge28" class="edge">
<title>Node17&#45;&gt;Node24</title>
<path fill="none" stroke="midnightblue" d="M1286.91,-117.98C1250.11,-107.55 1187.69,-89.86 1146.91,-78.31"/>
<polygon fill="midnightblue" stroke="midnightblue" points="1147.61,-74.87 1137.03,-75.51 1145.7,-81.6 1147.61,-74.87"/>
</g>
<!-- Node20&#45;&gt;Node11 -->
<g id="edge26" class="edge">
<title>Node20&#45;&gt;Node11</title>
<path fill="none" stroke="midnightblue" d="M1431,-56.08C1431,-49.01 1431,-38.86 1431,-29.99"/>
<polygon fill="midnightblue" stroke="midnightblue" points="1434.5,-29.75 1431,-19.75 1427.5,-29.75 1434.5,-29.75"/>
</g>
<!-- Node20&#45;&gt;Node18 -->
<g id="edge27" class="edge">
<title>Node20&#45;&gt;Node18</title>
<path fill="none" stroke="midnightblue" d="M1401.69,-56.44C1370.16,-47.24 1319.87,-32.56 1285.01,-22.39"/>
<polygon fill="midnightblue" stroke="midnightblue" points="1285.76,-18.96 1275.18,-19.52 1283.8,-25.68 1285.76,-18.96"/>
</g>
<!-- Node24&#45;&gt;Node5 -->
<g id="edge29" class="edge">
<title>Node24&#45;&gt;Node5</title>
<path fill="none" stroke="midnightblue" d="M1058.85,-57.72C984.55,-46.48 843.98,-25.22 781.41,-15.75"/>
<polygon fill="midnightblue" stroke="midnightblue" points="781.77,-12.27 771.36,-14.23 780.72,-19.19 781.77,-12.27"/>
</g>
<!-- Node24&#45;&gt;Node18 -->
<g id="edge30" class="edge">
<title>Node24&#45;&gt;Node18</title>
<path fill="none" stroke="midnightblue" d="M1129.02,-56.44C1152.1,-47.48 1188.56,-33.31 1214.64,-23.18"/>
<polygon fill="midnightblue" stroke="midnightblue" points="1216.02,-26.4 1224.08,-19.52 1213.49,-19.88 1216.02,-26.4"/>
</g>
<!-- Node28 -->
<g id="node22" class="node">
<title>Node28</title>
<g id="a_node22"><a xlink:title=" ">
<polygon fill="white" stroke="#bfbfbf" points="330.5,-0.5 330.5,-19.5 377.5,-19.5 377.5,-0.5 330.5,-0.5"/>
<text text-anchor="middle" x="354" y="-7.5" font-family="Helvetica,sans-Serif" font-size="10.00">vector</text>
</a>
</g>
</g>
<!-- Node24&#45;&gt;Node28 -->
<g id="edge31" class="edge">
<title>Node24&#45;&gt;Node28</title>
<path fill="none" stroke="midnightblue" d="M1058.9,-59.38C1047.78,-58.17 1035.98,-56.97 1025,-56 780.9,-34.43 486.04,-17.98 387.72,-12.75"/>
<polygon fill="midnightblue" stroke="midnightblue" points="387.67,-9.25 377.5,-12.21 387.3,-16.24 387.67,-9.25"/>
</g>
<!-- Node34&#45;&gt;Node17 -->
<g id="edge42" class="edge">
<title>Node34&#45;&gt;Node17</title>
<path fill="none" stroke="midnightblue" d="M1600.58,-179.48C1538.43,-168.3 1429.94,-148.8 1366.69,-137.43"/>
<polygon fill="midnightblue" stroke="midnightblue" points="1367.03,-133.94 1356.56,-135.61 1365.79,-140.83 1367.03,-133.94"/>
</g>
<!-- Node34&#45;&gt;Node31 -->
<g id="edge38" class="edge">
<title>Node34&#45;&gt;Node31</title>
<path fill="none" stroke="midnightblue" d="M1690.55,-179.48C1740.03,-169.56 1822.25,-153.09 1879.8,-141.56"/>
<polygon fill="midnightblue" stroke="midnightblue" points="1880.77,-144.94 1889.89,-139.54 1879.4,-138.07 1880.77,-144.94"/>
</g>
<!-- Node34&#45;&gt;Node32 -->
<g id="edge40" class="edge">
<title>Node34&#45;&gt;Node32</title>
<path fill="none" stroke="midnightblue" d="M1666.48,-179.48C1684.93,-170.96 1713.87,-157.62 1737.5,-146.72"/>
<polygon fill="midnightblue" stroke="midnightblue" points="1738.98,-149.89 1746.6,-142.52 1736.05,-143.53 1738.98,-149.89"/>
</g>
<!-- Node35 -->
<g id="node29" class="node">
<title>Node35</title>
<g id="a_node29"><a xlink:title=" ">
<polygon fill="white" stroke="#bfbfbf" points="1592.5,-112.5 1592.5,-142.5 1703.5,-142.5 1703.5,-112.5 1592.5,-112.5"/>
<text text-anchor="start" x="1600.5" y="-130.5" font-family="Helvetica,sans-Serif" font-size="10.00">boost/preprocessor</text>
<text text-anchor="middle" x="1648" y="-119.5" font-family="Helvetica,sans-Serif" font-size="10.00">/seq/for_each_i.hpp</text>
</a>
</g>
</g>
<!-- Node34&#45;&gt;Node35 -->
<g id="edge39" class="edge">
<title>Node34&#45;&gt;Node35</title>
<path fill="none" stroke="midnightblue" d="M1648,-179.48C1648,-172.47 1648,-162.19 1648,-152.7"/>
<polygon fill="midnightblue" stroke="midnightblue" points="1651.5,-152.52 1648,-142.52 1644.5,-152.52 1651.5,-152.52"/>
</g>
<!-- Node36 -->
<g id="node30" class="node">
<title>Node36</title>
<g id="a_node30"><a xlink:title=" ">
<polygon fill="white" stroke="#bfbfbf" points="1459.5,-112.5 1459.5,-142.5 1574.5,-142.5 1574.5,-112.5 1459.5,-112.5"/>
<text text-anchor="start" x="1467.5" y="-130.5" font-family="Helvetica,sans-Serif" font-size="10.00">boost/preprocessor</text>
<text text-anchor="middle" x="1517" y="-119.5" font-family="Helvetica,sans-Serif" font-size="10.00">/variadic/to_seq.hpp</text>
</a>
</g>
</g>
<!-- Node34&#45;&gt;Node36 -->
<g id="edge41" class="edge">
<title>Node34&#45;&gt;Node36</title>
<path fill="none" stroke="midnightblue" d="M1629.23,-179.48C1610.49,-170.96 1581.11,-157.62 1557.11,-146.72"/>
<polygon fill="midnightblue" stroke="midnightblue" points="1558.43,-143.47 1547.87,-142.52 1555.53,-149.85 1558.43,-143.47"/>
</g>
<!-- Node38&#45;&gt;Node2 -->
<g id="edge47" class="edge">
<title>Node38&#45;&gt;Node2</title>
<path fill="none" stroke="midnightblue" d="M1157.06,-354.4C1247.41,-339.93 1431,-303.47 1431,-246 1431,-246 1431,-246 1431,-188 1431,-153.07 1425.41,-135.77 1451,-112 1480.99,-84.14 1601.62,-72.78 1660.43,-68.82"/>
<polygon fill="midnightblue" stroke="midnightblue" points="1660.9,-72.3 1670.66,-68.17 1660.46,-65.31 1660.9,-72.3"/>
</g>
<!-- Node38&#45;&gt;Node28 -->
<g id="edge48" class="edge">
<title>Node38&#45;&gt;Node28</title>
<path fill="none" stroke="midnightblue" d="M1098.68,-352.69C1083.02,-338.26 1050.02,-309.37 1018,-291 792.84,-161.86 710.39,-185.38 475,-76 440.25,-59.85 401.46,-38.37 377.39,-24.61"/>
<polygon fill="midnightblue" stroke="midnightblue" points="379.03,-21.52 368.62,-19.57 375.54,-27.59 379.03,-21.52"/>
</g>
<!-- Node39 -->
<g id="node32" class="node">
<title>Node39</title>
<g id="a_node32"><a xlink:title=" ">
<polygon fill="white" stroke="#bfbfbf" points="1239,-291.5 1239,-310.5 1287,-310.5 1287,-291.5 1239,-291.5"/>
<text text-anchor="middle" x="1263" y="-298.5" font-family="Helvetica,sans-Serif" font-size="10.00">iosfwd</text>
</a>
</g>
</g>
<!-- Node38&#45;&gt;Node39 -->
<g id="edge44" class="edge">
<title>Node38&#45;&gt;Node39</title>
<path fill="none" stroke="midnightblue" d="M1130.21,-352.98C1156.68,-342.81 1201.11,-325.76 1231.22,-314.2"/>
<polygon fill="midnightblue" stroke="midnightblue" points="1232.75,-317.36 1240.83,-310.51 1230.24,-310.83 1232.75,-317.36"/>
</g>
<!-- Node40 -->
<g id="node33" class="node">
<title>Node40</title>
<g id="a_node33"><a xlink:title=" ">
<polygon fill="white" stroke="#bfbfbf" points="617,-235.5 617,-254.5 675,-254.5 675,-235.5 617,-235.5"/>
<text text-anchor="middle" x="646" y="-242.5" font-family="Helvetica,sans-Serif" font-size="10.00">memory</text>
</a>
</g>
</g>
<!-- Node38&#45;&gt;Node40 -->
<g id="edge45" class="edge">
<title>Node38&#45;&gt;Node40</title>
<path fill="none" stroke="midnightblue" d="M1132.76,-352.9C1165.1,-340.41 1215.02,-316 1192,-291 1157.8,-253.86 804.68,-247.37 685.24,-246.24"/>
<polygon fill="midnightblue" stroke="midnightblue" points="685.11,-242.74 675.08,-246.15 685.05,-249.74 685.11,-242.74"/>
</g>
<!-- Node41 -->
<g id="node34" class="node">
<title>Node41</title>
<g id="a_node34"><a xlink:title=" ">
<polygon fill="white" stroke="#bfbfbf" points="1065,-291.5 1065,-310.5 1121,-310.5 1121,-291.5 1065,-291.5"/>
<text text-anchor="middle" x="1093" y="-298.5" font-family="Helvetica,sans-Serif" font-size="10.00">optional</text>
</a>
</g>
</g>
<!-- Node38&#45;&gt;Node41 -->
<g id="edge46" class="edge">
<title>Node38&#45;&gt;Node41</title>
<path fill="none" stroke="midnightblue" d="M1105.85,-352.98C1103.71,-344.49 1100.36,-331.2 1097.62,-320.32"/>
<polygon fill="midnightblue" stroke="midnightblue" points="1100.98,-319.35 1095.15,-310.51 1094.2,-321.06 1100.98,-319.35"/>
</g>
<!-- Node42 -->
<g id="node35" class="node">
<title>Node42</title>
<g id="a_node35"><a xlink:href="Logger_8hpp.html" target="_top" xlink:title=" ">
<polygon fill="white" stroke="black" points="778.5,-291.5 778.5,-310.5 887.5,-310.5 887.5,-291.5 778.5,-291.5"/>
<text text-anchor="middle" x="833" y="-298.5" font-family="Helvetica,sans-Serif" font-size="10.00">logging/Logger.hpp</text>
</a>
</g>
</g>
<!-- Node38&#45;&gt;Node42 -->
<g id="edge49" class="edge">
<title>Node38&#45;&gt;Node42</title>
<path fill="none" stroke="midnightblue" d="M1068.6,-352.98C1019.49,-342.35 935.53,-324.18 882.23,-312.65"/>
<polygon fill="midnightblue" stroke="midnightblue" points="882.84,-309.2 872.33,-310.51 881.36,-316.04 882.84,-309.2"/>
</g>
<!-- Node45 -->
<g id="node37" class="node">
<title>Node45</title>
<g id="a_node37"><a xlink:href="types_8hpp.html" target="_top" xlink:title=" ">
<polygon fill="white" stroke="black" points="905.5,-291.5 905.5,-310.5 1008.5,-310.5 1008.5,-291.5 905.5,-291.5"/>
<text text-anchor="middle" x="957" y="-298.5" font-family="Helvetica,sans-Serif" font-size="10.00">precice/types.hpp</text>
</a>
</g>
</g>
<!-- Node38&#45;&gt;Node45 -->
<g id="edge55" class="edge">
<title>Node38&#45;&gt;Node45</title>
<path fill="none" stroke="midnightblue" d="M1086.37,-352.98C1060.58,-342.81 1017.29,-325.76 987.96,-314.2"/>
<polygon fill="midnightblue" stroke="midnightblue" points="989.18,-310.92 978.59,-310.51 986.62,-317.43 989.18,-310.92"/>
</g>
<!-- Node46 -->
<g id="node38" class="node">
<title>Node46</title>
<g id="a_node38"><a xlink:title=" ">
<polygon fill="white" stroke="#bfbfbf" points="1139,-291.5 1139,-310.5 1183,-310.5 1183,-291.5 1139,-291.5"/>
<text text-anchor="middle" x="1161" y="-298.5" font-family="Helvetica,sans-Serif" font-size="10.00">mpi.h</text>
</a>
</g>
</g>
<!-- Node38&#45;&gt;Node46 -->
<g id="edge56" class="edge">
<title>Node38&#45;&gt;Node46</title>
<path fill="none" stroke="midnightblue" d="M1115.59,-352.98C1123.7,-343.87 1136.73,-329.24 1146.76,-317.98"/>
<polygon fill="midnightblue" stroke="midnightblue" points="1149.38,-320.3 1153.42,-310.51 1144.16,-315.65 1149.38,-320.3"/>
</g>
<!-- Node42&#45;&gt;Node3 -->
<g id="edge51" class="edge">
<title>Node42&#45;&gt;Node3</title>
<path fill="none" stroke="midnightblue" d="M838.37,-291.43C859.69,-257.4 938.67,-131.37 967.97,-84.61"/>
<polygon fill="midnightblue" stroke="midnightblue" points="971.08,-86.23 973.43,-75.9 965.15,-82.51 971.08,-86.23"/>
</g>
<!-- Node42&#45;&gt;Node40 -->
<g id="edge50" class="edge">
<title>Node42&#45;&gt;Node40</title>
<path fill="none" stroke="midnightblue" d="M803.37,-291.44C771.41,-282.21 720.37,-267.48 685.13,-257.3"/>
<polygon fill="midnightblue" stroke="midnightblue" points="685.76,-253.84 675.18,-254.43 683.82,-260.56 685.76,-253.84"/>
</g>
<!-- Node43 -->
<g id="node36" class="node">
<title>Node43</title>
<g id="a_node36"><a xlink:href="LogMacros_8hpp.html" target="_top" xlink:title=" ">
<polygon fill="white" stroke="red" points="1273,-235.5 1273,-254.5 1363,-254.5 1363,-235.5 1273,-235.5"/>
<text text-anchor="middle" x="1318" y="-242.5" font-family="Helvetica,sans-Serif" font-size="10.00">LogMacros.hpp</text>
</a>
</g>
</g>
<!-- Node42&#45;&gt;Node43 -->
<g id="edge52" class="edge">
<title>Node42&#45;&gt;Node43</title>
<path fill="none" stroke="midnightblue" d="M887.8,-292.17C890.91,-291.77 893.99,-291.37 897,-291 1027.73,-274.83 1181.73,-259.24 1262.37,-251.35"/>
<polygon fill="midnightblue" stroke="midnightblue" points="1263.16,-254.79 1272.77,-250.34 1262.48,-247.82 1263.16,-254.79"/>
</g>
<!-- Node43&#45;&gt;Node17 -->
<g id="edge53" class="edge">
<title>Node43&#45;&gt;Node17</title>
<path fill="none" stroke="midnightblue" d="M1317.92,-235.32C1317.76,-216.76 1317.38,-172.84 1317.16,-147.47"/>
<polygon fill="midnightblue" stroke="midnightblue" points="1320.66,-147.25 1317.08,-137.28 1313.66,-147.31 1320.66,-147.25"/>
</g>
<!-- Node43&#45;&gt;Node34 -->
<g id="edge54" class="edge">
<title>Node43&#45;&gt;Node34</title>
<path fill="none" stroke="midnightblue" d="M1363.19,-236.6C1420.92,-227.16 1521.08,-210.77 1585.93,-200.16"/>
<polygon fill="midnightblue" stroke="midnightblue" points="1586.72,-203.57 1596.02,-198.51 1585.59,-196.67 1586.72,-203.57"/>
</g>
<!-- Node47&#45;&gt;Node2 -->
<g id="edge58" class="edge">
<title>Node47&#45;&gt;Node2</title>
<path fill="none" stroke="midnightblue" d="M1861.28,-179.42C1861.31,-163.84 1859.07,-130.77 1841,-112 1810.66,-80.49 1759.02,-70.86 1725.46,-68.02"/>
<polygon fill="midnightblue" stroke="midnightblue" points="1725.47,-64.52 1715.25,-67.32 1724.99,-71.5 1725.47,-64.52"/>
</g>
<!-- Node49&#45;&gt;Node13 -->
<g id="edge62" class="edge">
<title>Node49&#45;&gt;Node13</title>
<path fill="none" stroke="midnightblue" d="M1329.41,-526.44C1373.98,-517 1445.77,-501.8 1493.89,-491.61"/>
<polygon fill="midnightblue" stroke="midnightblue" points="1494.73,-495.01 1503.78,-489.52 1493.28,-488.16 1494.73,-495.01"/>
</g>
<!-- Node50 -->
<g id="node42" class="node">
<title>Node50</title>
<g id="a_node42"><a xlink:href="constants_8hpp.html" target="_top" xlink:title=" ">
<polygon fill="white" stroke="black" points="1288.5,-470.5 1288.5,-489.5 1401.5,-489.5 1401.5,-470.5 1288.5,-470.5"/>
<text text-anchor="middle" x="1345" y="-477.5" font-family="Helvetica,sans-Serif" font-size="10.00">math/constants.hpp</text>
</a>
</g>
</g>
<!-- Node49&#45;&gt;Node50 -->
<g id="edge61" class="edge">
<title>Node49&#45;&gt;Node50</title>
<path fill="none" stroke="midnightblue" d="M1298,-526.32C1306.19,-518.42 1318.51,-506.55 1328.47,-496.94"/>
<polygon fill="midnightblue" stroke="midnightblue" points="1331.07,-499.29 1335.84,-489.83 1326.21,-494.26 1331.07,-499.29"/>
</g>
<!-- Node51 -->
<g id="node43" class="node">
<title>Node51</title>
<g id="a_node43"><a xlink:href="la_8hpp.html" target="_top" xlink:title=" ">
<polygon fill="white" stroke="black" points="1195.5,-470.5 1195.5,-489.5 1270.5,-489.5 1270.5,-470.5 1195.5,-470.5"/>
<text text-anchor="middle" x="1233" y="-477.5" font-family="Helvetica,sans-Serif" font-size="10.00">math/la.hpp</text>
</a>
</g>
</g>
<!-- Node49&#45;&gt;Node51 -->
<g id="edge63" class="edge">
<title>Node49&#45;&gt;Node51</title>
<path fill="none" stroke="midnightblue" d="M1280,-526.32C1271.81,-518.42 1259.49,-506.55 1249.53,-496.94"/>
<polygon fill="midnightblue" stroke="midnightblue" points="1251.79,-494.26 1242.16,-489.83 1246.93,-499.29 1251.79,-494.26"/>
</g>
<!-- Node51&#45;&gt;Node11 -->
<g id="edge64" class="edge">
<title>Node51&#45;&gt;Node11</title>
<path fill="none" stroke="midnightblue" d="M1237.78,-470.38C1255.49,-437.94 1315.34,-323.35 1296,-291 1278.65,-261.99 1250.83,-280.81 1229,-255 1209.3,-231.71 1207,-220.5 1207,-190 1207,-190 1207,-190 1207,-126.5 1207,-46.55 1321.12,-21.89 1386.45,-14.32"/>
<polygon fill="midnightblue" stroke="midnightblue" points="1386.92,-17.79 1396.49,-13.25 1386.18,-10.83 1386.92,-17.79"/>
</g>
<!-- Node51&#45;&gt;Node14 -->
<g id="edge65" class="edge">
<title>Node51&#45;&gt;Node14</title>
<path fill="none" stroke="midnightblue" d="M1270.69,-471.65C1273.83,-471.08 1276.97,-470.52 1280,-470 1359.91,-456.28 1452.32,-442.57 1512.34,-433.96"/>
<polygon fill="midnightblue" stroke="midnightblue" points="1513.02,-437.4 1522.43,-432.51 1512.03,-430.47 1513.02,-437.4"/>
</g>
<!-- Node52&#45;&gt;Node2 -->
<g id="edge68" class="edge">
<title>Node52&#45;&gt;Node2</title>
<path fill="none" stroke="midnightblue" d="M347.71,-414.28C340.48,-386.4 319.11,-300.62 327,-291 367.38,-241.77 545.13,-245.07 608,-235 943.09,-181.35 1041.02,-240.76 1366,-143 1395.5,-134.13 1398.72,-121.57 1428,-112 1509.37,-85.4 1610.2,-73.82 1660.82,-69.39"/>
<polygon fill="midnightblue" stroke="midnightblue" points="1661.16,-72.87 1670.83,-68.55 1660.58,-65.89 1661.16,-72.87"/>
</g>
<!-- Node52&#45;&gt;Node9 -->
<g id="edge69" class="edge">
<title>Node52&#45;&gt;Node9</title>
<path fill="none" stroke="midnightblue" d="M283.99,-415.26C251.74,-409.05 213.6,-397.92 184,-378 152.95,-357.1 149.87,-344.41 133,-311 125.55,-296.24 120.55,-278.08 117.56,-264.71"/>
<polygon fill="midnightblue" stroke="midnightblue" points="120.96,-263.87 115.51,-254.79 114.1,-265.29 120.96,-263.87"/>
</g>
<!-- Node52&#45;&gt;Node28 -->
<g id="edge71" class="edge">
<title>Node52&#45;&gt;Node28</title>
<path fill="none" stroke="midnightblue" d="M283.54,-418.92C242.31,-413.88 189.65,-402.69 149,-378 83.49,-338.2 38,-322.65 38,-246 38,-246 38,-246 38,-126.5 38,-66.97 238.36,-29.01 320,-16.01"/>
<polygon fill="midnightblue" stroke="midnightblue" points="320.91,-19.42 330.25,-14.42 319.83,-12.5 320.91,-19.42"/>
</g>
<!-- Node52&#45;&gt;Node38 -->
<g id="edge75" class="edge">
<title>Node52&#45;&gt;Node38</title>
<path fill="none" stroke="midnightblue" d="M416.27,-417.8C562.14,-406.35 909.09,-379.11 1048.5,-368.17"/>
<polygon fill="midnightblue" stroke="midnightblue" points="1048.87,-371.65 1058.57,-367.38 1048.32,-364.67 1048.87,-371.65"/>
</g>
<!-- Node52&#45;&gt;Node45 -->
<g id="edge74" class="edge">
<title>Node52&#45;&gt;Node45</title>
<path fill="none" stroke="midnightblue" d="M416.02,-421.18C498.35,-417.68 642.88,-407.52 763,-378 824.97,-362.77 893.66,-332.44 930.38,-315.05"/>
<polygon fill="midnightblue" stroke="midnightblue" points="932.35,-317.99 939.85,-310.52 929.32,-311.68 932.35,-317.99"/>
</g>
<!-- Node53 -->
<g id="node45" class="node">
<title>Node53</title>
<g id="a_node45"><a xlink:title=" ">
<polygon fill="white" stroke="#bfbfbf" points="193.5,-353 193.5,-372 258.5,-372 258.5,-353 193.5,-353"/>
<text text-anchor="middle" x="226" y="-360" font-family="Helvetica,sans-Serif" font-size="10.00">stdexcept</text>
</a>
</g>
</g>
<!-- Node52&#45;&gt;Node53 -->
<g id="edge67" class="edge">
<title>Node52&#45;&gt;Node53</title>
<path fill="none" stroke="midnightblue" d="M332.23,-414.48C311.52,-404.53 277.05,-387.99 253.01,-376.46"/>
<polygon fill="midnightblue" stroke="midnightblue" points="254.26,-373.18 243.73,-372.01 251.23,-379.49 254.26,-373.18"/>
</g>
<!-- Node54 -->
<g id="node46" class="node">
<title>Node54</title>
<g id="a_node46"><a xlink:title=" ">
<polygon fill="white" stroke="#bfbfbf" points="276.5,-353 276.5,-372 321.5,-372 321.5,-353 276.5,-353"/>
<text text-anchor="middle" x="299" y="-360" font-family="Helvetica,sans-Serif" font-size="10.00">utility</text>
</a>
</g>
</g>
<!-- Node52&#45;&gt;Node54 -->
<g id="edge70" class="edge">
<title>Node52&#45;&gt;Node54</title>
<path fill="none" stroke="midnightblue" d="M342.69,-414.48C334.97,-405.46 322.59,-391.02 312.98,-379.81"/>
<polygon fill="midnightblue" stroke="midnightblue" points="315.46,-377.32 306.29,-372.01 310.14,-381.88 315.46,-377.32"/>
</g>
<!-- Node55 -->
<g id="node47" class="node">
<title>Node55</title>
<g id="a_node47"><a xlink:href="m2n_2SharedPointer_8hpp.html" target="_top" xlink:title=" ">
<polygon fill="white" stroke="black" points="336,-291.5 336,-310.5 466,-310.5 466,-291.5 336,-291.5"/>
<text text-anchor="middle" x="401" y="-298.5" font-family="Helvetica,sans-Serif" font-size="10.00">m2n/SharedPointer.hpp</text>
</a>
</g>
</g>
<!-- Node52&#45;&gt;Node55 -->
<g id="edge72" class="edge">
<title>Node52&#45;&gt;Node55</title>
<path fill="none" stroke="midnightblue" d="M353.67,-414.3C361.97,-394.59 382.37,-346.21 393.48,-319.84"/>
<polygon fill="midnightblue" stroke="midnightblue" points="396.71,-321.2 397.37,-310.62 390.26,-318.48 396.71,-321.2"/>
</g>
<!-- Node55&#45;&gt;Node40 -->
<g id="edge73" class="edge">
<title>Node55&#45;&gt;Node40</title>
<path fill="none" stroke="midnightblue" d="M439.82,-291.44C485.61,-281.35 561.27,-264.68 607.09,-254.58"/>
<polygon fill="midnightblue" stroke="midnightblue" points="607.94,-257.97 616.95,-252.4 606.43,-251.14 607.94,-257.97"/>
</g>
<!-- Node56&#45;&gt;Node4 -->
<g id="edge82" class="edge">
<title>Node56&#45;&gt;Node4</title>
<path fill="none" stroke="midnightblue" d="M637.93,-355.31C553.7,-346.23 392.72,-328.46 256,-311 254.54,-310.81 253.06,-310.62 251.57,-310.43"/>
<polygon fill="midnightblue" stroke="midnightblue" points="251.97,-306.95 241.6,-309.1 251.05,-313.89 251.97,-306.95"/>
</g>
<!-- Node56&#45;&gt;Node11 -->
<g id="edge77" class="edge">
<title>Node56&#45;&gt;Node11</title>
<path fill="none" stroke="midnightblue" d="M637.94,-362.4C544.36,-362.47 366.64,-356.43 327,-311 289.33,-267.82 359.03,-313.65 411,-255 430.96,-232.47 430,-220.1 430,-190 430,-190 430,-190 430,-126.5 430,-13.41 821.65,-68.94 934,-56 1100.45,-36.83 1299.04,-20.95 1386.22,-14.32"/>
<polygon fill="midnightblue" stroke="midnightblue" points="1386.59,-17.8 1396.29,-13.56 1386.06,-10.82 1386.59,-17.8"/>
</g>
<!-- Node56&#45;&gt;Node42 -->
<g id="edge81" class="edge">
<title>Node56&#45;&gt;Node42</title>
<path fill="none" stroke="midnightblue" d="M715.63,-352.98C738.82,-342.9 777.62,-326.05 804.21,-314.5"/>
<polygon fill="midnightblue" stroke="midnightblue" points="805.63,-317.7 813.41,-310.51 802.84,-311.28 805.63,-317.7"/>
</g>
<!-- Node56&#45;&gt;Node45 -->
<g id="edge83" class="edge">
<title>Node56&#45;&gt;Node45</title>
<path fill="none" stroke="midnightblue" d="M733.39,-352.98C779.81,-342.39 859.02,-324.34 909.64,-312.8"/>
<polygon fill="midnightblue" stroke="midnightblue" points="910.7,-316.14 919.67,-310.51 909.15,-309.32 910.7,-316.14"/>
</g>
<!-- Node57 -->
<g id="node49" class="node">
<title>Node57</title>
<g id="a_node49"><a xlink:title=" ">
<polygon fill="white" stroke="#bfbfbf" points="631.5,-291.5 631.5,-310.5 760.5,-310.5 760.5,-291.5 631.5,-291.5"/>
<text text-anchor="middle" x="696" y="-298.5" font-family="Helvetica,sans-Serif" font-size="10.00">boost/range/irange.hpp</text>
</a>
</g>
</g>
<!-- Node56&#45;&gt;Node57 -->
<g id="edge78" class="edge">
<title>Node56&#45;&gt;Node57</title>
<path fill="none" stroke="midnightblue" d="M696,-352.98C696,-344.58 696,-331.48 696,-320.66"/>
<polygon fill="midnightblue" stroke="midnightblue" points="699.5,-320.51 696,-310.51 692.5,-320.51 699.5,-320.51"/>
</g>
<!-- Node58 -->
<g id="node50" class="node">
<title>Node58</title>
<g id="a_node50"><a xlink:href="com_2SharedPointer_8hpp.html" target="_top" xlink:title=" ">
<polygon fill="white" stroke="black" points="484.5,-291.5 484.5,-310.5 613.5,-310.5 613.5,-291.5 484.5,-291.5"/>
<text text-anchor="middle" x="549" y="-298.5" font-family="Helvetica,sans-Serif" font-size="10.00">com/SharedPointer.hpp</text>
</a>
</g>
</g>
<!-- Node56&#45;&gt;Node58 -->
<g id="edge79" class="edge">
<title>Node56&#45;&gt;Node58</title>
<path fill="none" stroke="midnightblue" d="M674.94,-352.98C649.94,-342.86 608.06,-325.9 579.51,-314.35"/>
<polygon fill="midnightblue" stroke="midnightblue" points="580.61,-311.02 570.02,-310.51 577.98,-317.51 580.61,-311.02"/>
</g>
<!-- Node58&#45;&gt;Node40 -->
<g id="edge80" class="edge">
<title>Node58&#45;&gt;Node40</title>
<path fill="none" stroke="midnightblue" d="M564.58,-291.32C580,-282.74 603.81,-269.49 621.71,-259.52"/>
<polygon fill="midnightblue" stroke="midnightblue" points="623.42,-262.58 630.45,-254.65 620.01,-256.46 623.42,-262.58"/>
</g>
</g>
</svg>
