<?xml version="1.0" encoding="UTF-8" standalone="no"?>
<!DOCTYPE svg PUBLIC "-//W3C//DTD SVG 1.1//EN"
 "http://www.w3.org/Graphics/SVG/1.1/DTD/svg11.dtd">
<!-- Generated by graphviz version 2.43.0 (0)
 -->
<!-- Title: src/utils/tests/StatisticsTest.cpp Pages: 1 -->
<svg width="2804pt" height="565pt"
 viewBox="0.00 0.00 2803.78 565.00" xmlns="http://www.w3.org/2000/svg" xmlns:xlink="http://www.w3.org/1999/xlink">
<g id="graph0" class="graph" transform="scale(1 1) rotate(0) translate(4 561)">
<title>src/utils/tests/StatisticsTest.cpp</title>
<polygon fill="white" stroke="transparent" points="-4,4 -4,-561 2799.78,-561 2799.78,4 -4,4"/>
<!-- Node1 -->
<g id="node1" class="node">
<title>Node1</title>
<g id="a_node1"><a xlink:title=" ">
<polygon fill="#bfbfbf" stroke="black" points="1273.28,-526.5 1273.28,-556.5 1403.28,-556.5 1403.28,-526.5 1273.28,-526.5"/>
<text text-anchor="start" x="1281.28" y="-544.5" font-family="Helvetica,sans-Serif" font-size="10.00">src/utils/tests/Statistics</text>
<text text-anchor="middle" x="1338.28" y="-533.5" font-family="Helvetica,sans-Serif" font-size="10.00">Test.cpp</text>
</a>
</g>
</g>
<!-- Node2 -->
<g id="node2" class="node">
<title>Node2</title>
<g id="a_node2"><a xlink:title=" ">
<polygon fill="white" stroke="#bfbfbf" points="700.78,-470.5 700.78,-489.5 747.78,-489.5 747.78,-470.5 700.78,-470.5"/>
<text text-anchor="middle" x="724.28" y="-477.5" font-family="Helvetica,sans-Serif" font-size="10.00">cmath</text>
</a>
</g>
</g>
<!-- Node1&#45;&gt;Node2 -->
<g id="edge1" class="edge">
<title>Node1&#45;&gt;Node2</title>
<path fill="none" stroke="midnightblue" d="M1273.12,-537.87C1165.97,-532.86 946.11,-519.67 762.28,-490 760.82,-489.76 759.33,-489.5 757.82,-489.22"/>
<polygon fill="midnightblue" stroke="midnightblue" points="758.4,-485.77 747.89,-487.15 756.97,-492.62 758.4,-485.77"/>
</g>
<!-- Node3 -->
<g id="node3" class="node">
<title>Node3</title>
<g id="a_node3"><a xlink:href="constants_8hpp.html" target="_top" xlink:title=" ">
<polygon fill="white" stroke="black" points="640.78,-358.5 640.78,-377.5 753.78,-377.5 753.78,-358.5 640.78,-358.5"/>
<text text-anchor="middle" x="697.28" y="-365.5" font-family="Helvetica,sans-Serif" font-size="10.00">math/constants.hpp</text>
</a>
</g>
</g>
<!-- Node1&#45;&gt;Node3 -->
<g id="edge2" class="edge">
<title>Node1&#45;&gt;Node3</title>
<path fill="none" stroke="midnightblue" d="M1273.24,-535.97C1168.91,-526.93 959.24,-501.33 795.28,-434 764.96,-421.55 734.12,-399.14 715.34,-384.17"/>
<polygon fill="midnightblue" stroke="midnightblue" points="717.34,-381.29 707.38,-377.69 712.92,-386.71 717.34,-381.29"/>
</g>
<!-- Node4 -->
<g id="node4" class="node">
<title>Node4</title>
<g id="a_node4"><a xlink:href="TestContext_8hpp.html" target="_top" xlink:title=" ">
<polygon fill="white" stroke="black" points="1260.28,-302.5 1260.28,-321.5 1392.28,-321.5 1392.28,-302.5 1260.28,-302.5"/>
<text text-anchor="middle" x="1326.28" y="-309.5" font-family="Helvetica,sans-Serif" font-size="10.00">testing/TestContext.hpp</text>
</a>
</g>
</g>
<!-- Node1&#45;&gt;Node4 -->
<g id="edge3" class="edge">
<title>Node1&#45;&gt;Node4</title>
<path fill="none" stroke="midnightblue" d="M1337.53,-526.27C1335.45,-486.89 1329.63,-376.49 1327.28,-331.97"/>
<polygon fill="midnightblue" stroke="midnightblue" points="1330.77,-331.73 1326.75,-321.93 1323.78,-332.1 1330.77,-331.73"/>
</g>
<!-- Node40 -->
<g id="node22" class="node">
<title>Node40</title>
<g id="a_node22"><a xlink:href="Testing_8hpp.html" target="_top" xlink:title=" ">
<polygon fill="white" stroke="black" points="1122.78,-470.5 1122.78,-489.5 1231.78,-489.5 1231.78,-470.5 1122.78,-470.5"/>
<text text-anchor="middle" x="1177.28" y="-477.5" font-family="Helvetica,sans-Serif" font-size="10.00">testing/Testing.hpp</text>
</a>
</g>
</g>
<!-- Node1&#45;&gt;Node40 -->
<g id="edge28" class="edge">
<title>Node1&#45;&gt;Node40</title>
<path fill="none" stroke="midnightblue" d="M1300.13,-526.4C1272.75,-516.28 1236.24,-502.79 1210.16,-493.15"/>
<polygon fill="midnightblue" stroke="midnightblue" points="1211.3,-489.84 1200.71,-489.66 1208.88,-496.41 1211.3,-489.84"/>
</g>
<!-- Node60 -->
<g id="node40" class="node">
<title>Node60</title>
<g id="a_node40"><a xlink:href="Statistics_8hpp.html" target="_top" xlink:title=" ">
<polygon fill="white" stroke="black" points="2090.78,-241 2090.78,-260 2197.78,-260 2197.78,-241 2090.78,-241"/>
<text text-anchor="middle" x="2144.28" y="-248" font-family="Helvetica,sans-Serif" font-size="10.00">utils/Statistics.hpp</text>
</a>
</g>
</g>
<!-- Node1&#45;&gt;Node60 -->
<g id="edge62" class="edge">
<title>Node1&#45;&gt;Node60</title>
<path fill="none" stroke="midnightblue" d="M1403.48,-535.86C1569.69,-523.17 1996.28,-484.77 1996.28,-425 1996.28,-425 1996.28,-425 1996.28,-367 1996.28,-311.85 2060.94,-279.15 2104.78,-263.31"/>
<polygon fill="midnightblue" stroke="midnightblue" points="2106.03,-266.58 2114.33,-260 2103.74,-259.97 2106.03,-266.58"/>
</g>
<!-- Node68 -->
<g id="node48" class="node">
<title>Node68</title>
<g id="a_node48"><a xlink:href="String_8hpp.html" target="_top" xlink:title=" ">
<polygon fill="white" stroke="black" points="1664.28,-302.5 1664.28,-321.5 1754.28,-321.5 1754.28,-302.5 1664.28,-302.5"/>
<text text-anchor="middle" x="1709.28" y="-309.5" font-family="Helvetica,sans-Serif" font-size="10.00">utils/String.hpp</text>
</a>
</g>
</g>
<!-- Node1&#45;&gt;Node68 -->
<g id="edge72" class="edge">
<title>Node1&#45;&gt;Node68</title>
<path fill="none" stroke="midnightblue" d="M1403.56,-533.09C1472.31,-522.19 1580.11,-495.92 1650.28,-434 1681.71,-406.26 1698.06,-357.99 1705.04,-331.58"/>
<polygon fill="midnightblue" stroke="midnightblue" points="1708.47,-332.27 1707.47,-321.72 1701.67,-330.59 1708.47,-332.27"/>
</g>
<!-- Node5 -->
<g id="node5" class="node">
<title>Node5</title>
<g id="a_node5"><a xlink:title=" ">
<polygon fill="white" stroke="#bfbfbf" points="1280.78,-241 1280.78,-260 1345.78,-260 1345.78,-241 1280.78,-241"/>
<text text-anchor="middle" x="1313.28" y="-248" font-family="Helvetica,sans-Serif" font-size="10.00">stdexcept</text>
</a>
</g>
</g>
<!-- Node4&#45;&gt;Node5 -->
<g id="edge4" class="edge">
<title>Node4&#45;&gt;Node5</title>
<path fill="none" stroke="midnightblue" d="M1324.42,-302.48C1322.57,-293.99 1319.66,-280.7 1317.28,-269.82"/>
<polygon fill="midnightblue" stroke="midnightblue" points="1320.69,-269.03 1315.14,-260.01 1313.86,-270.53 1320.69,-269.03"/>
</g>
<!-- Node6 -->
<g id="node6" class="node">
<title>Node6</title>
<g id="a_node6"><a xlink:title=" ">
<polygon fill="white" stroke="#bfbfbf" points="1397.28,-0.5 1397.28,-19.5 1441.28,-19.5 1441.28,-0.5 1397.28,-0.5"/>
<text text-anchor="middle" x="1419.28" y="-7.5" font-family="Helvetica,sans-Serif" font-size="10.00">string</text>
</a>
</g>
</g>
<!-- Node4&#45;&gt;Node6 -->
<g id="edge5" class="edge">
<title>Node4&#45;&gt;Node6</title>
<path fill="none" stroke="midnightblue" d="M1337.38,-302.37C1347.56,-293.98 1362.5,-280.42 1372.28,-266 1423.43,-190.61 1423.08,-75.05 1420.69,-29.95"/>
<polygon fill="midnightblue" stroke="midnightblue" points="1424.18,-29.61 1420.05,-19.85 1417.19,-30.05 1424.18,-29.61"/>
</g>
<!-- Node7 -->
<g id="node7" class="node">
<title>Node7</title>
<g id="a_node7"><a xlink:title=" ">
<polygon fill="white" stroke="#bfbfbf" points="1440.78,-241 1440.78,-260 1509.78,-260 1509.78,-241 1440.78,-241"/>
<text text-anchor="middle" x="1475.28" y="-248" font-family="Helvetica,sans-Serif" font-size="10.00">type_traits</text>
</a>
</g>
</g>
<!-- Node4&#45;&gt;Node7 -->
<g id="edge6" class="edge">
<title>Node4&#45;&gt;Node7</title>
<path fill="none" stroke="midnightblue" d="M1347.63,-302.48C1372.97,-292.36 1415.42,-275.4 1444.35,-263.85"/>
<polygon fill="midnightblue" stroke="midnightblue" points="1445.98,-266.97 1453.97,-260.01 1443.39,-260.47 1445.98,-266.97"/>
</g>
<!-- Node8 -->
<g id="node8" class="node">
<title>Node8</title>
<g id="a_node8"><a xlink:title=" ">
<polygon fill="white" stroke="#bfbfbf" points="1178.78,-241 1178.78,-260 1223.78,-260 1223.78,-241 1178.78,-241"/>
<text text-anchor="middle" x="1201.28" y="-248" font-family="Helvetica,sans-Serif" font-size="10.00">utility</text>
</a>
</g>
</g>
<!-- Node4&#45;&gt;Node8 -->
<g id="edge7" class="edge">
<title>Node4&#45;&gt;Node8</title>
<path fill="none" stroke="midnightblue" d="M1308.37,-302.48C1287.39,-292.49 1252.43,-275.85 1228.19,-264.31"/>
<polygon fill="midnightblue" stroke="midnightblue" points="1229.69,-261.15 1219.16,-260.01 1226.68,-267.47 1229.69,-261.15"/>
</g>
<!-- Node9 -->
<g id="node9" class="node">
<title>Node9</title>
<g id="a_node9"><a xlink:title=" ">
<polygon fill="white" stroke="#bfbfbf" points="1343.78,-174 1343.78,-193 1390.78,-193 1390.78,-174 1343.78,-174"/>
<text text-anchor="middle" x="1367.28" y="-181" font-family="Helvetica,sans-Serif" font-size="10.00">vector</text>
</a>
</g>
</g>
<!-- Node4&#45;&gt;Node9 -->
<g id="edge8" class="edge">
<title>Node4&#45;&gt;Node9</title>
<path fill="none" stroke="midnightblue" d="M1333.51,-302.31C1340.28,-293.67 1350.12,-279.75 1355.28,-266 1362.96,-245.55 1365.75,-220.49 1366.75,-203.6"/>
<polygon fill="midnightblue" stroke="midnightblue" points="1370.26,-203.51 1367.19,-193.37 1363.26,-203.21 1370.26,-203.51"/>
</g>
<!-- Node10 -->
<g id="node10" class="node">
<title>Node10</title>
<g id="a_node10"><a xlink:href="m2n_2SharedPointer_8hpp.html" target="_top" xlink:title=" ">
<polygon fill="white" stroke="black" points="1195.28,-174 1195.28,-193 1325.28,-193 1325.28,-174 1195.28,-174"/>
<text text-anchor="middle" x="1260.28" y="-181" font-family="Helvetica,sans-Serif" font-size="10.00">m2n/SharedPointer.hpp</text>
</a>
</g>
</g>
<!-- Node4&#45;&gt;Node10 -->
<g id="edge9" class="edge">
<title>Node4&#45;&gt;Node10</title>
<path fill="none" stroke="midnightblue" d="M1310.78,-302.46C1298.24,-294.67 1281.24,-281.97 1272.28,-266 1261.38,-246.56 1259.3,-220.58 1259.35,-203.23"/>
<polygon fill="midnightblue" stroke="midnightblue" points="1262.85,-203.32 1259.61,-193.23 1255.85,-203.14 1262.85,-203.32"/>
</g>
<!-- Node12 -->
<g id="node12" class="node">
<title>Node12</title>
<g id="a_node12"><a xlink:href="types_8hpp.html" target="_top" xlink:title=" ">
<polygon fill="white" stroke="black" points="1035.78,-174 1035.78,-193 1138.78,-193 1138.78,-174 1035.78,-174"/>
<text text-anchor="middle" x="1087.28" y="-181" font-family="Helvetica,sans-Serif" font-size="10.00">precice/types.hpp</text>
</a>
</g>
</g>
<!-- Node4&#45;&gt;Node12 -->
<g id="edge11" class="edge">
<title>Node4&#45;&gt;Node12</title>
<path fill="none" stroke="midnightblue" d="M1273.11,-302.46C1241.66,-295.79 1201.92,-284.48 1170.28,-266 1141.21,-249.02 1114.8,-219.59 1099.92,-201.13"/>
<polygon fill="midnightblue" stroke="midnightblue" points="1102.5,-198.75 1093.58,-193.05 1097,-203.08 1102.5,-198.75"/>
</g>
<!-- Node13 -->
<g id="node13" class="node">
<title>Node13</title>
<g id="a_node13"><a xlink:href="Parallel_8hpp.html" target="_top" xlink:title=" ">
<polygon fill="white" stroke="black" points="920.28,-241 920.28,-260 1018.28,-260 1018.28,-241 920.28,-241"/>
<text text-anchor="middle" x="969.28" y="-248" font-family="Helvetica,sans-Serif" font-size="10.00">utils/Parallel.hpp</text>
</a>
</g>
</g>
<!-- Node4&#45;&gt;Node13 -->
<g id="edge12" class="edge">
<title>Node4&#45;&gt;Node13</title>
<path fill="none" stroke="midnightblue" d="M1275.13,-302.48C1209.94,-291.61 1097.45,-272.86 1028.58,-261.38"/>
<polygon fill="midnightblue" stroke="midnightblue" points="1028.77,-257.87 1018.33,-259.67 1027.62,-264.77 1028.77,-257.87"/>
</g>
<!-- Node11 -->
<g id="node11" class="node">
<title>Node11</title>
<g id="a_node11"><a xlink:title=" ">
<polygon fill="white" stroke="#bfbfbf" points="1068.28,-112.5 1068.28,-131.5 1126.28,-131.5 1126.28,-112.5 1068.28,-112.5"/>
<text text-anchor="middle" x="1097.28" y="-119.5" font-family="Helvetica,sans-Serif" font-size="10.00">memory</text>
</a>
</g>
</g>
<!-- Node10&#45;&gt;Node11 -->
<g id="edge10" class="edge">
<title>Node10&#45;&gt;Node11</title>
<path fill="none" stroke="midnightblue" d="M1236.93,-173.98C1208.97,-163.77 1161.96,-146.61 1130.29,-135.05"/>
<polygon fill="midnightblue" stroke="midnightblue" points="1131.19,-131.65 1120.59,-131.51 1128.79,-138.23 1131.19,-131.65"/>
</g>
<!-- Node13&#45;&gt;Node6 -->
<g id="edge16" class="edge">
<title>Node13&#45;&gt;Node6</title>
<path fill="none" stroke="midnightblue" d="M970.78,-240.77C973.78,-225.13 981.62,-191.72 997.28,-168 1017.74,-137.01 1026.77,-129.93 1059.28,-112 1170.47,-50.67 1321.92,-24.1 1387.2,-14.97"/>
<polygon fill="midnightblue" stroke="midnightblue" points="1387.83,-18.42 1397.27,-13.61 1386.89,-11.48 1387.83,-18.42"/>
</g>
<!-- Node13&#45;&gt;Node9 -->
<g id="edge17" class="edge">
<title>Node13&#45;&gt;Node9</title>
<path fill="none" stroke="midnightblue" d="M1018.58,-247C1089.55,-242.44 1224.1,-230.18 1334.28,-199 1336.43,-198.39 1338.63,-197.67 1340.81,-196.88"/>
<polygon fill="midnightblue" stroke="midnightblue" points="1342.19,-200.1 1350.14,-193.1 1339.56,-193.61 1342.19,-200.1"/>
</g>
<!-- Node13&#45;&gt;Node11 -->
<g id="edge14" class="edge">
<title>Node13&#45;&gt;Node11</title>
<path fill="none" stroke="midnightblue" d="M973.96,-240.83C982.81,-224.99 1003.28,-190.9 1027.28,-168 1040.28,-155.6 1057.16,-144.64 1071.09,-136.63"/>
<polygon fill="midnightblue" stroke="midnightblue" points="1073.13,-139.5 1080.17,-131.58 1069.73,-133.38 1073.13,-139.5"/>
</g>
<!-- Node13&#45;&gt;Node12 -->
<g id="edge26" class="edge">
<title>Node13&#45;&gt;Node12</title>
<path fill="none" stroke="midnightblue" d="M985.2,-240.73C1005.1,-229.77 1039.39,-210.88 1062.68,-198.05"/>
<polygon fill="midnightblue" stroke="midnightblue" points="1064.55,-201.02 1071.62,-193.13 1061.17,-194.89 1064.55,-201.02"/>
</g>
<!-- Node14 -->
<g id="node14" class="node">
<title>Node14</title>
<g id="a_node14"><a xlink:title=" ">
<polygon fill="white" stroke="#bfbfbf" points="1709.28,-174 1709.28,-193 1757.28,-193 1757.28,-174 1709.28,-174"/>
<text text-anchor="middle" x="1733.28" y="-181" font-family="Helvetica,sans-Serif" font-size="10.00">iosfwd</text>
</a>
</g>
</g>
<!-- Node13&#45;&gt;Node14 -->
<g id="edge13" class="edge">
<title>Node13&#45;&gt;Node14</title>
<path fill="none" stroke="midnightblue" d="M1018.53,-245.31C1161.88,-233.11 1576.47,-197.84 1698.87,-187.43"/>
<polygon fill="midnightblue" stroke="midnightblue" points="1699.47,-190.89 1709.14,-186.55 1698.88,-183.91 1699.47,-190.89"/>
</g>
<!-- Node15 -->
<g id="node15" class="node">
<title>Node15</title>
<g id="a_node15"><a xlink:title=" ">
<polygon fill="white" stroke="#bfbfbf" points="885.28,-174 885.28,-193 941.28,-193 941.28,-174 885.28,-174"/>
<text text-anchor="middle" x="913.28" y="-181" font-family="Helvetica,sans-Serif" font-size="10.00">optional</text>
</a>
</g>
</g>
<!-- Node13&#45;&gt;Node15 -->
<g id="edge15" class="edge">
<title>Node13&#45;&gt;Node15</title>
<path fill="none" stroke="midnightblue" d="M961.73,-240.73C953,-230.6 938.43,-213.69 927.54,-201.06"/>
<polygon fill="midnightblue" stroke="midnightblue" points="929.89,-198.42 920.71,-193.13 924.59,-202.99 929.89,-198.42"/>
</g>
<!-- Node16 -->
<g id="node16" class="node">
<title>Node16</title>
<g id="a_node16"><a xlink:href="Logger_8hpp.html" target="_top" xlink:title=" ">
<polygon fill="white" stroke="black" points="695.78,-174 695.78,-193 804.78,-193 804.78,-174 695.78,-174"/>
<text text-anchor="middle" x="750.28" y="-181" font-family="Helvetica,sans-Serif" font-size="10.00">logging/Logger.hpp</text>
</a>
</g>
</g>
<!-- Node13&#45;&gt;Node16 -->
<g id="edge18" class="edge">
<title>Node13&#45;&gt;Node16</title>
<path fill="none" stroke="midnightblue" d="M940.2,-240.87C901.23,-229.3 831.98,-208.75 788.74,-195.91"/>
<polygon fill="midnightblue" stroke="midnightblue" points="789.72,-192.55 779.13,-193.06 787.73,-199.26 789.72,-192.55"/>
</g>
<!-- Node39 -->
<g id="node21" class="node">
<title>Node39</title>
<g id="a_node21"><a xlink:title=" ">
<polygon fill="white" stroke="#bfbfbf" points="823.28,-174 823.28,-193 867.28,-193 867.28,-174 823.28,-174"/>
<text text-anchor="middle" x="845.28" y="-181" font-family="Helvetica,sans-Serif" font-size="10.00">mpi.h</text>
</a>
</g>
</g>
<!-- Node13&#45;&gt;Node39 -->
<g id="edge27" class="edge">
<title>Node13&#45;&gt;Node39</title>
<path fill="none" stroke="midnightblue" d="M952.82,-240.87C931.88,-229.89 895.5,-210.82 870.92,-197.94"/>
<polygon fill="midnightblue" stroke="midnightblue" points="872.3,-194.71 861.82,-193.17 869.05,-200.91 872.3,-194.71"/>
</g>
<!-- Node16&#45;&gt;Node11 -->
<g id="edge19" class="edge">
<title>Node16&#45;&gt;Node11</title>
<path fill="none" stroke="midnightblue" d="M786.08,-173.96C795.24,-171.89 805.11,-169.77 814.28,-168 901.02,-151.3 1003.58,-136.12 1058.28,-128.38"/>
<polygon fill="midnightblue" stroke="midnightblue" points="1058.83,-131.84 1068.25,-126.98 1057.86,-124.91 1058.83,-131.84"/>
</g>
<!-- Node17 -->
<g id="node17" class="node">
<title>Node17</title>
<g id="a_node17"><a xlink:title=" ">
<polygon fill="white" stroke="#bfbfbf" points="691.78,-0.5 691.78,-19.5 764.78,-19.5 764.78,-0.5 691.78,-0.5"/>
<text text-anchor="middle" x="728.28" y="-7.5" font-family="Helvetica,sans-Serif" font-size="10.00">string_view</text>
</a>
</g>
</g>
<!-- Node16&#45;&gt;Node17 -->
<g id="edge20" class="edge">
<title>Node16&#45;&gt;Node17</title>
<path fill="none" stroke="midnightblue" d="M749.16,-173.76C745.75,-147.15 735.43,-66.71 730.7,-29.84"/>
<polygon fill="midnightblue" stroke="midnightblue" points="734.12,-28.99 729.37,-19.52 727.18,-29.88 734.12,-28.99"/>
</g>
<!-- Node18 -->
<g id="node18" class="node">
<title>Node18</title>
<g id="a_node18"><a xlink:href="LogMacros_8hpp.html" target="_top" xlink:title=" ">
<polygon fill="white" stroke="red" points="756.28,-112.5 756.28,-131.5 846.28,-131.5 846.28,-112.5 756.28,-112.5"/>
<text text-anchor="middle" x="801.28" y="-119.5" font-family="Helvetica,sans-Serif" font-size="10.00">LogMacros.hpp</text>
</a>
</g>
</g>
<!-- Node16&#45;&gt;Node18 -->
<g id="edge21" class="edge">
<title>Node16&#45;&gt;Node18</title>
<path fill="none" stroke="midnightblue" d="M757.59,-173.98C765.31,-164.96 777.69,-150.52 787.3,-139.31"/>
<polygon fill="midnightblue" stroke="midnightblue" points="790.14,-141.38 793.99,-131.51 784.82,-136.82 790.14,-141.38"/>
</g>
<!-- Node19 -->
<g id="node19" class="node">
<title>Node19</title>
<g id="a_node19"><a xlink:href="fmt_8hpp.html" target="_top" xlink:title=" ">
<polygon fill="white" stroke="red" points="761.78,-56.5 761.78,-75.5 840.78,-75.5 840.78,-56.5 761.78,-56.5"/>
<text text-anchor="middle" x="801.28" y="-63.5" font-family="Helvetica,sans-Serif" font-size="10.00">utils/fmt.hpp</text>
</a>
</g>
</g>
<!-- Node18&#45;&gt;Node19 -->
<g id="edge22" class="edge">
<title>Node18&#45;&gt;Node19</title>
<path fill="none" stroke="midnightblue" d="M801.28,-112.08C801.28,-105.01 801.28,-94.86 801.28,-85.99"/>
<polygon fill="midnightblue" stroke="midnightblue" points="804.78,-85.75 801.28,-75.75 797.78,-85.75 804.78,-85.75"/>
</g>
<!-- Node19&#45;&gt;Node6 -->
<g id="edge23" class="edge">
<title>Node19&#45;&gt;Node6</title>
<path fill="none" stroke="midnightblue" d="M840.88,-61.54C954.86,-51.58 1282.26,-22.97 1386.79,-13.84"/>
<polygon fill="midnightblue" stroke="midnightblue" points="1387.37,-17.3 1397.03,-12.94 1386.76,-10.33 1387.37,-17.3"/>
</g>
<!-- Node19&#45;&gt;Node17 -->
<g id="edge24" class="edge">
<title>Node19&#45;&gt;Node17</title>
<path fill="none" stroke="midnightblue" d="M789.55,-56.32C778.44,-48.11 761.54,-35.6 748.3,-25.81"/>
<polygon fill="midnightblue" stroke="midnightblue" points="750.34,-22.97 740.22,-19.83 746.18,-28.59 750.34,-22.97"/>
</g>
<!-- Node21 -->
<g id="node20" class="node">
<title>Node21</title>
<g id="a_node20"><a xlink:title=" ">
<polygon fill="white" stroke="#bfbfbf" points="1593.28,-0.5 1593.28,-19.5 1679.28,-19.5 1679.28,-0.5 1593.28,-0.5"/>
<text text-anchor="middle" x="1636.28" y="-7.5" font-family="Helvetica,sans-Serif" font-size="10.00">fmt/ostream.h</text>
</a>
</g>
</g>
<!-- Node19&#45;&gt;Node21 -->
<g id="edge25" class="edge">
<title>Node19&#45;&gt;Node21</title>
<path fill="none" stroke="midnightblue" d="M840.99,-62.43C977.47,-53.61 1427.37,-24.51 1582.86,-14.45"/>
<polygon fill="midnightblue" stroke="midnightblue" points="1583.35,-17.93 1593.1,-13.79 1582.9,-10.95 1583.35,-17.93"/>
</g>
<!-- Node40&#45;&gt;Node4 -->
<g id="edge51" class="edge">
<title>Node40&#45;&gt;Node4</title>
<path fill="none" stroke="midnightblue" d="M1185.29,-470.08C1209.25,-443.38 1280.63,-363.87 1311.63,-329.32"/>
<polygon fill="midnightblue" stroke="midnightblue" points="1314.52,-331.35 1318.59,-321.57 1309.31,-326.67 1314.52,-331.35"/>
</g>
<!-- Node40&#45;&gt;Node6 -->
<g id="edge31" class="edge">
<title>Node40&#45;&gt;Node6</title>
<path fill="none" stroke="midnightblue" d="M1232.19,-477.33C1354.02,-472.15 1636.28,-451.25 1636.28,-369 1636.28,-369 1636.28,-369 1636.28,-121 1636.28,-39.12 1511.84,-18.17 1451.43,-12.82"/>
<polygon fill="midnightblue" stroke="midnightblue" points="1451.53,-9.32 1441.28,-12.02 1450.98,-16.3 1451.53,-9.32"/>
</g>
<!-- Node40&#45;&gt;Node7 -->
<g id="edge32" class="edge">
<title>Node40&#45;&gt;Node7</title>
<path fill="none" stroke="midnightblue" d="M1232.04,-472.05C1311.31,-458.71 1455.54,-421.41 1519.28,-322 1531.53,-302.9 1512.12,-280.66 1495.33,-266.35"/>
<polygon fill="midnightblue" stroke="midnightblue" points="1497.44,-263.55 1487.45,-260.01 1493.05,-269 1497.44,-263.55"/>
</g>
<!-- Node23 -->
<g id="node23" class="node">
<title>Node23</title>
<g id="a_node23"><a xlink:title=" ">
<polygon fill="white" stroke="#bfbfbf" points="794.78,-302.5 794.78,-321.5 863.78,-321.5 863.78,-302.5 794.78,-302.5"/>
<text text-anchor="middle" x="829.28" y="-309.5" font-family="Helvetica,sans-Serif" font-size="10.00">Eigen/Core</text>
</a>
</g>
</g>
<!-- Node40&#45;&gt;Node23 -->
<g id="edge29" class="edge">
<title>Node40&#45;&gt;Node23</title>
<path fill="none" stroke="midnightblue" d="M1167.3,-470.49C1151.92,-457.56 1121.27,-432.52 1093.28,-414 1050.8,-385.89 1040.41,-377.33 993.28,-358 954.17,-341.96 907.5,-329.79 873.97,-322.17"/>
<polygon fill="midnightblue" stroke="midnightblue" points="874.53,-318.71 864.01,-319.95 873.01,-325.54 874.53,-318.71"/>
</g>
<!-- Node41 -->
<g id="node24" class="node">
<title>Node41</title>
<g id="a_node24"><a xlink:title=" ">
<polygon fill="white" stroke="#bfbfbf" points="952.28,-414.5 952.28,-433.5 1084.28,-433.5 1084.28,-414.5 952.28,-414.5"/>
<text text-anchor="middle" x="1018.28" y="-421.5" font-family="Helvetica,sans-Serif" font-size="10.00">boost/test/unit_test.hpp</text>
</a>
</g>
</g>
<!-- Node40&#45;&gt;Node41 -->
<g id="edge30" class="edge">
<title>Node40&#45;&gt;Node41</title>
<path fill="none" stroke="midnightblue" d="M1152.09,-470.44C1125.34,-461.36 1082.88,-446.94 1052.98,-436.78"/>
<polygon fill="midnightblue" stroke="midnightblue" points="1053.95,-433.42 1043.36,-433.52 1051.7,-440.05 1053.95,-433.42"/>
</g>
<!-- Node42 -->
<g id="node25" class="node">
<title>Node42</title>
<g id="a_node25"><a xlink:href="differences_8hpp.html" target="_top" xlink:title=" ">
<polygon fill="white" stroke="black" points="864.28,-358.5 864.28,-377.5 984.28,-377.5 984.28,-358.5 864.28,-358.5"/>
<text text-anchor="middle" x="924.28" y="-365.5" font-family="Helvetica,sans-Serif" font-size="10.00">math/differences.hpp</text>
</a>
</g>
</g>
<!-- Node40&#45;&gt;Node42 -->
<g id="edge33" class="edge">
<title>Node40&#45;&gt;Node42</title>
<path fill="none" stroke="midnightblue" d="M1122.72,-475.02C1062,-469.49 969.02,-457.42 943.28,-434 930.39,-422.27 926.06,-402.34 924.69,-387.63"/>
<polygon fill="midnightblue" stroke="midnightblue" points="928.19,-387.41 924.14,-377.62 921.2,-387.8 928.19,-387.41"/>
</g>
<!-- Node51 -->
<g id="node33" class="node">
<title>Node51</title>
<g id="a_node33"><a xlink:href="math_8hpp.html" target="_top" xlink:title=" ">
<polygon fill="white" stroke="black" points="804.28,-414.5 804.28,-433.5 896.28,-433.5 896.28,-414.5 804.28,-414.5"/>
<text text-anchor="middle" x="850.28" y="-421.5" font-family="Helvetica,sans-Serif" font-size="10.00">math/math.hpp</text>
</a>
</g>
</g>
<!-- Node40&#45;&gt;Node51 -->
<g id="edge45" class="edge">
<title>Node40&#45;&gt;Node51</title>
<path fill="none" stroke="midnightblue" d="M1125.47,-470.44C1065.68,-460.57 967.71,-444.39 906.22,-434.24"/>
<polygon fill="midnightblue" stroke="midnightblue" points="906.74,-430.78 896.31,-432.6 905.6,-437.68 906.74,-430.78"/>
</g>
<!-- Node53 -->
<g id="node35" class="node">
<title>Node53</title>
<g id="a_node35"><a xlink:href="IntraComm_8hpp.html" target="_top" xlink:title=" ">
<polygon fill="white" stroke="black" points="1119.28,-358.5 1119.28,-377.5 1235.28,-377.5 1235.28,-358.5 1119.28,-358.5"/>
<text text-anchor="middle" x="1177.28" y="-365.5" font-family="Helvetica,sans-Serif" font-size="10.00">utils/IntraComm.hpp</text>
</a>
</g>
</g>
<!-- Node40&#45;&gt;Node53 -->
<g id="edge52" class="edge">
<title>Node40&#45;&gt;Node53</title>
<path fill="none" stroke="midnightblue" d="M1177.28,-470.37C1177.28,-452.62 1177.28,-411.67 1177.28,-387.6"/>
<polygon fill="midnightblue" stroke="midnightblue" points="1180.78,-387.59 1177.28,-377.59 1173.78,-387.59 1180.78,-387.59"/>
</g>
<!-- Node42&#45;&gt;Node23 -->
<g id="edge34" class="edge">
<title>Node42&#45;&gt;Node23</title>
<path fill="none" stroke="midnightblue" d="M909.02,-358.32C894.06,-349.82 871.03,-336.73 853.55,-326.8"/>
<polygon fill="midnightblue" stroke="midnightblue" points="854.93,-323.55 844.51,-321.65 851.47,-329.64 854.93,-323.55"/>
</g>
<!-- Node43 -->
<g id="node26" class="node">
<title>Node43</title>
<g id="a_node26"><a xlink:href="assertion_8hpp.html" target="_top" xlink:title=" ">
<polygon fill="white" stroke="red" points="496.78,-302.5 496.78,-321.5 603.78,-321.5 603.78,-302.5 496.78,-302.5"/>
<text text-anchor="middle" x="550.28" y="-309.5" font-family="Helvetica,sans-Serif" font-size="10.00">utils/assertion.hpp</text>
</a>
</g>
</g>
<!-- Node42&#45;&gt;Node43 -->
<g id="edge35" class="edge">
<title>Node42&#45;&gt;Node43</title>
<path fill="none" stroke="midnightblue" d="M865.02,-358.44C796.51,-348.55 684.17,-332.33 613.87,-322.18"/>
<polygon fill="midnightblue" stroke="midnightblue" points="614.21,-318.69 603.81,-320.73 613.21,-325.62 614.21,-318.69"/>
</g>
<!-- Node43&#45;&gt;Node13 -->
<g id="edge44" class="edge">
<title>Node43&#45;&gt;Node13</title>
<path fill="none" stroke="midnightblue" d="M604.2,-303.34C682.84,-292.18 828.47,-271.5 910.02,-259.91"/>
<polygon fill="midnightblue" stroke="midnightblue" points="910.72,-263.35 920.12,-258.48 909.73,-256.42 910.72,-263.35"/>
</g>
<!-- Node43&#45;&gt;Node17 -->
<g id="edge38" class="edge">
<title>Node43&#45;&gt;Node17</title>
<path fill="none" stroke="midnightblue" d="M496.67,-309.96C369.33,-307 56.7,-296.65 21.28,-266 -6.84,-241.66 2.28,-221.69 2.28,-184.5 2.28,-184.5 2.28,-184.5 2.28,-121 2.28,-52.08 520.34,-21.1 681.21,-13.15"/>
<polygon fill="midnightblue" stroke="midnightblue" points="681.46,-16.64 691.28,-12.66 681.12,-9.65 681.46,-16.64"/>
</g>
<!-- Node43&#45;&gt;Node19 -->
<g id="edge39" class="edge">
<title>Node43&#45;&gt;Node19</title>
<path fill="none" stroke="midnightblue" d="M603.85,-305.82C654.52,-299.68 725.27,-287.46 742.28,-266 750.84,-255.2 748.88,-247.09 742.28,-235 728.1,-209.03 700.46,-224.97 686.28,-199 679.68,-186.91 680.74,-180.61 686.28,-168 704.05,-127.57 747.22,-97.06 775.32,-80.64"/>
<polygon fill="midnightblue" stroke="midnightblue" points="777.23,-83.58 784.21,-75.61 773.79,-77.48 777.23,-83.58"/>
</g>
<!-- Node44 -->
<g id="node27" class="node">
<title>Node44</title>
<g id="a_node27"><a xlink:title=" ">
<polygon fill="white" stroke="#bfbfbf" points="30.78,-241 30.78,-260 79.78,-260 79.78,-241 30.78,-241"/>
<text text-anchor="middle" x="55.28" y="-248" font-family="Helvetica,sans-Serif" font-size="10.00">cstdlib</text>
</a>
</g>
</g>
<!-- Node43&#45;&gt;Node44 -->
<g id="edge36" class="edge">
<title>Node43&#45;&gt;Node44</title>
<path fill="none" stroke="midnightblue" d="M496.48,-311.03C409.5,-309.91 233.22,-302.79 89.28,-266 86.92,-265.4 84.51,-264.65 82.12,-263.82"/>
<polygon fill="midnightblue" stroke="midnightblue" points="83.16,-260.47 72.57,-260.08 80.6,-266.99 83.16,-260.47"/>
</g>
<!-- Node45 -->
<g id="node28" class="node">
<title>Node45</title>
<g id="a_node28"><a xlink:title=" ">
<polygon fill="white" stroke="#bfbfbf" points="98.28,-241 98.28,-260 158.28,-260 158.28,-241 98.28,-241"/>
<text text-anchor="middle" x="128.28" y="-248" font-family="Helvetica,sans-Serif" font-size="10.00">iostream</text>
</a>
</g>
</g>
<!-- Node43&#45;&gt;Node45 -->
<g id="edge37" class="edge">
<title>Node43&#45;&gt;Node45</title>
<path fill="none" stroke="midnightblue" d="M496.6,-308.74C421.87,-304.68 282.65,-293.8 167.28,-266 164.29,-265.28 161.21,-264.4 158.16,-263.42"/>
<polygon fill="midnightblue" stroke="midnightblue" points="159.23,-260.09 148.64,-260.11 156.94,-266.7 159.23,-260.09"/>
</g>
<!-- Node46 -->
<g id="node29" class="node">
<title>Node46</title>
<g id="a_node29"><a xlink:title=" ">
<polygon fill="white" stroke="#bfbfbf" points="176.78,-241 176.78,-260 323.78,-260 323.78,-241 176.78,-241"/>
<text text-anchor="middle" x="250.28" y="-248" font-family="Helvetica,sans-Serif" font-size="10.00">boost/current_function.hpp</text>
</a>
</g>
</g>
<!-- Node43&#45;&gt;Node46 -->
<g id="edge40" class="edge">
<title>Node43&#45;&gt;Node46</title>
<path fill="none" stroke="midnightblue" d="M507.3,-302.48C453.5,-291.8 361.37,-273.53 303.27,-262.01"/>
<polygon fill="midnightblue" stroke="midnightblue" points="303.67,-258.52 293.18,-260.01 302.31,-265.39 303.67,-258.52"/>
</g>
<!-- Node47 -->
<g id="node30" class="node">
<title>Node47</title>
<g id="a_node30"><a xlink:title=" ">
<polygon fill="white" stroke="#bfbfbf" points="341.78,-235.5 341.78,-265.5 476.78,-265.5 476.78,-235.5 341.78,-235.5"/>
<text text-anchor="start" x="349.78" y="-253.5" font-family="Helvetica,sans-Serif" font-size="10.00">boost/preprocessor</text>
<text text-anchor="middle" x="409.28" y="-242.5" font-family="Helvetica,sans-Serif" font-size="10.00">/comparison/greater.hpp</text>
</a>
</g>
</g>
<!-- Node43&#45;&gt;Node47 -->
<g id="edge41" class="edge">
<title>Node43&#45;&gt;Node47</title>
<path fill="none" stroke="midnightblue" d="M530.08,-302.48C509.73,-293.89 477.73,-280.38 451.77,-269.43"/>
<polygon fill="midnightblue" stroke="midnightblue" points="453.09,-266.19 442.51,-265.52 450.36,-272.64 453.09,-266.19"/>
</g>
<!-- Node33 -->
<g id="node31" class="node">
<title>Node33</title>
<g id="a_node31"><a xlink:title=" ">
<polygon fill="white" stroke="#bfbfbf" points="495.28,-235.5 495.28,-265.5 605.28,-265.5 605.28,-235.5 495.28,-235.5"/>
<text text-anchor="start" x="503.28" y="-253.5" font-family="Helvetica,sans-Serif" font-size="10.00">boost/preprocessor</text>
<text text-anchor="middle" x="550.28" y="-242.5" font-family="Helvetica,sans-Serif" font-size="10.00">/control/if.hpp</text>
</a>
</g>
</g>
<!-- Node43&#45;&gt;Node33 -->
<g id="edge42" class="edge">
<title>Node43&#45;&gt;Node33</title>
<path fill="none" stroke="midnightblue" d="M550.28,-302.48C550.28,-295.47 550.28,-285.19 550.28,-275.7"/>
<polygon fill="midnightblue" stroke="midnightblue" points="553.78,-275.52 550.28,-265.52 546.78,-275.52 553.78,-275.52"/>
</g>
<!-- Node35 -->
<g id="node32" class="node">
<title>Node35</title>
<g id="a_node32"><a xlink:title=" ">
<polygon fill="white" stroke="#bfbfbf" points="623.28,-235.5 623.28,-265.5 733.28,-265.5 733.28,-235.5 623.28,-235.5"/>
<text text-anchor="start" x="631.28" y="-253.5" font-family="Helvetica,sans-Serif" font-size="10.00">boost/preprocessor</text>
<text text-anchor="middle" x="678.28" y="-242.5" font-family="Helvetica,sans-Serif" font-size="10.00">/stringize.hpp</text>
</a>
</g>
</g>
<!-- Node43&#45;&gt;Node35 -->
<g id="edge43" class="edge">
<title>Node43&#45;&gt;Node35</title>
<path fill="none" stroke="midnightblue" d="M568.62,-302.48C586.85,-294 615.38,-280.74 638.78,-269.86"/>
<polygon fill="midnightblue" stroke="midnightblue" points="640.52,-272.91 648.11,-265.52 637.57,-266.56 640.52,-272.91"/>
</g>
<!-- Node51&#45;&gt;Node3 -->
<g id="edge46" class="edge">
<title>Node51&#45;&gt;Node3</title>
<path fill="none" stroke="midnightblue" d="M826.04,-414.44C800.41,-405.4 759.8,-391.06 731.04,-380.92"/>
<polygon fill="midnightblue" stroke="midnightblue" points="732.01,-377.54 721.41,-377.52 729.68,-384.15 732.01,-377.54"/>
</g>
<!-- Node51&#45;&gt;Node42 -->
<g id="edge47" class="edge">
<title>Node51&#45;&gt;Node42</title>
<path fill="none" stroke="midnightblue" d="M862.17,-414.32C873.43,-406.11 890.57,-393.6 903.99,-383.81"/>
<polygon fill="midnightblue" stroke="midnightblue" points="906.16,-386.56 912.18,-377.83 902.03,-380.9 906.16,-386.56"/>
</g>
<!-- Node52 -->
<g id="node34" class="node">
<title>Node52</title>
<g id="a_node34"><a xlink:href="la_8hpp.html" target="_top" xlink:title=" ">
<polygon fill="white" stroke="black" points="771.78,-358.5 771.78,-377.5 846.78,-377.5 846.78,-358.5 771.78,-358.5"/>
<text text-anchor="middle" x="809.28" y="-365.5" font-family="Helvetica,sans-Serif" font-size="10.00">math/la.hpp</text>
</a>
</g>
</g>
<!-- Node51&#45;&gt;Node52 -->
<g id="edge48" class="edge">
<title>Node51&#45;&gt;Node52</title>
<path fill="none" stroke="midnightblue" d="M843.51,-414.08C837.72,-406.46 829.22,-395.26 822.14,-385.94"/>
<polygon fill="midnightblue" stroke="midnightblue" points="824.76,-383.6 815.93,-377.75 819.19,-387.83 824.76,-383.6"/>
</g>
<!-- Node52&#45;&gt;Node23 -->
<g id="edge49" class="edge">
<title>Node52&#45;&gt;Node23</title>
<path fill="none" stroke="midnightblue" d="M812.58,-358.08C815.26,-350.85 819.13,-340.41 822.47,-331.4"/>
<polygon fill="midnightblue" stroke="midnightblue" points="825.85,-332.34 826.04,-321.75 819.28,-329.91 825.85,-332.34"/>
</g>
<!-- Node52&#45;&gt;Node43 -->
<g id="edge50" class="edge">
<title>Node52&#45;&gt;Node43</title>
<path fill="none" stroke="midnightblue" d="M771.62,-359.15C726.73,-349.79 651.51,-334.11 601.39,-323.66"/>
<polygon fill="midnightblue" stroke="midnightblue" points="601.92,-320.19 591.41,-321.58 600.49,-327.04 601.92,-320.19"/>
</g>
<!-- Node53&#45;&gt;Node12 -->
<g id="edge61" class="edge">
<title>Node53&#45;&gt;Node12</title>
<path fill="none" stroke="midnightblue" d="M1119.18,-358.96C1057.52,-349.83 967.54,-334.57 957.28,-322 923.42,-280.51 995.25,-293.29 1027.28,-266 1048.95,-247.54 1067.22,-219.81 1077.72,-201.93"/>
<polygon fill="midnightblue" stroke="midnightblue" points="1080.82,-203.56 1082.72,-193.13 1074.73,-200.09 1080.82,-203.56"/>
</g>
<!-- Node53&#45;&gt;Node16 -->
<g id="edge57" class="edge">
<title>Node53&#45;&gt;Node16</title>
<path fill="none" stroke="midnightblue" d="M1119.27,-362.68C1070.87,-357.48 1000.92,-346.19 944.28,-322 871.45,-290.89 798.82,-229.18 767,-200.21"/>
<polygon fill="midnightblue" stroke="midnightblue" points="769.2,-197.48 759.47,-193.28 764.45,-202.63 769.2,-197.48"/>
</g>
<!-- Node53&#45;&gt;Node23 -->
<g id="edge53" class="edge">
<title>Node53&#45;&gt;Node23</title>
<path fill="none" stroke="midnightblue" d="M1119.03,-358.8C1058.71,-350.18 961.77,-335.95 878.28,-322 876.82,-321.76 875.32,-321.5 873.82,-321.24"/>
<polygon fill="midnightblue" stroke="midnightblue" points="874.25,-317.77 863.79,-319.48 873.03,-324.66 874.25,-317.77"/>
</g>
<!-- Node54 -->
<g id="node36" class="node">
<title>Node54</title>
<g id="a_node36"><a xlink:title=" ">
<polygon fill="white" stroke="#bfbfbf" points="965.78,-302.5 965.78,-321.5 1094.78,-321.5 1094.78,-302.5 965.78,-302.5"/>
<text text-anchor="middle" x="1030.28" y="-309.5" font-family="Helvetica,sans-Serif" font-size="10.00">boost/range/irange.hpp</text>
</a>
</g>
</g>
<!-- Node53&#45;&gt;Node54 -->
<g id="edge54" class="edge">
<title>Node53&#45;&gt;Node54</title>
<path fill="none" stroke="midnightblue" d="M1153.99,-358.44C1129.47,-349.44 1090.69,-335.19 1063.08,-325.05"/>
<polygon fill="midnightblue" stroke="midnightblue" points="1064.06,-321.68 1053.47,-321.52 1061.64,-328.25 1064.06,-321.68"/>
</g>
<!-- Node55 -->
<g id="node37" class="node">
<title>Node55</title>
<g id="a_node37"><a xlink:href="com_2SharedPointer_8hpp.html" target="_top" xlink:title=" ">
<polygon fill="white" stroke="black" points="1112.78,-302.5 1112.78,-321.5 1241.78,-321.5 1241.78,-302.5 1112.78,-302.5"/>
<text text-anchor="middle" x="1177.28" y="-309.5" font-family="Helvetica,sans-Serif" font-size="10.00">com/SharedPointer.hpp</text>
</a>
</g>
</g>
<!-- Node53&#45;&gt;Node55 -->
<g id="edge55" class="edge">
<title>Node53&#45;&gt;Node55</title>
<path fill="none" stroke="midnightblue" d="M1177.28,-358.08C1177.28,-351.01 1177.28,-340.86 1177.28,-331.99"/>
<polygon fill="midnightblue" stroke="midnightblue" points="1180.78,-331.75 1177.28,-321.75 1173.78,-331.75 1180.78,-331.75"/>
</g>
<!-- Node56 -->
<g id="node38" class="node">
<title>Node56</title>
<g id="a_node38"><a xlink:href="span_8hpp.html" target="_top" xlink:title=" ">
<polygon fill="white" stroke="red" points="1410.78,-302.5 1410.78,-321.5 1509.78,-321.5 1509.78,-302.5 1410.78,-302.5"/>
<text text-anchor="middle" x="1460.28" y="-309.5" font-family="Helvetica,sans-Serif" font-size="10.00">precice/span.hpp</text>
</a>
</g>
</g>
<!-- Node53&#45;&gt;Node56 -->
<g id="edge58" class="edge">
<title>Node53&#45;&gt;Node56</title>
<path fill="none" stroke="midnightblue" d="M1222.12,-358.44C1271.91,-348.94 1352.26,-333.61 1405.67,-323.42"/>
<polygon fill="midnightblue" stroke="midnightblue" points="1406.48,-326.83 1415.65,-321.52 1405.17,-319.95 1406.48,-326.83"/>
</g>
<!-- Node55&#45;&gt;Node11 -->
<g id="edge56" class="edge">
<title>Node55&#45;&gt;Node11</title>
<path fill="none" stroke="midnightblue" d="M1175.88,-302.48C1171.07,-273.5 1155.13,-179.84 1148.28,-168 1141.27,-155.86 1129.79,-145.3 1119.49,-137.47"/>
<polygon fill="midnightblue" stroke="midnightblue" points="1121.41,-134.54 1111.25,-131.55 1117.33,-140.22 1121.41,-134.54"/>
</g>
<!-- Node56&#45;&gt;Node7 -->
<g id="edge60" class="edge">
<title>Node56&#45;&gt;Node7</title>
<path fill="none" stroke="midnightblue" d="M1462.43,-302.48C1464.57,-293.99 1467.92,-280.7 1470.66,-269.82"/>
<polygon fill="midnightblue" stroke="midnightblue" points="1474.09,-270.56 1473.14,-260.01 1467.3,-268.85 1474.09,-270.56"/>
</g>
<!-- Node28 -->
<g id="node39" class="node">
<title>Node28</title>
<g id="a_node39"><a xlink:title=" ">
<polygon fill="white" stroke="#bfbfbf" points="1528.28,-241 1528.28,-260 1570.28,-260 1570.28,-241 1528.28,-241"/>
<text text-anchor="middle" x="1549.28" y="-248" font-family="Helvetica,sans-Serif" font-size="10.00">array</text>
</a>
</g>
</g>
<!-- Node56&#45;&gt;Node28 -->
<g id="edge59" class="edge">
<title>Node56&#45;&gt;Node28</title>
<path fill="none" stroke="midnightblue" d="M1473.03,-302.48C1487.31,-292.93 1510.68,-277.31 1527.79,-265.87"/>
<polygon fill="midnightblue" stroke="midnightblue" points="1530.19,-268.48 1536.55,-260.01 1526.29,-262.66 1530.19,-268.48"/>
</g>
<!-- Node60&#45;&gt;Node14 -->
<g id="edge71" class="edge">
<title>Node60&#45;&gt;Node14</title>
<path fill="none" stroke="midnightblue" d="M2090.55,-241C2004.87,-227.45 1839.65,-201.32 1767.92,-189.98"/>
<polygon fill="midnightblue" stroke="midnightblue" points="1768.06,-186.46 1757.64,-188.35 1766.97,-193.37 1768.06,-186.46"/>
</g>
<!-- Node60&#45;&gt;Node21 -->
<g id="edge70" class="edge">
<title>Node60&#45;&gt;Node21</title>
<path fill="none" stroke="midnightblue" d="M2090.67,-246.4C2018.95,-241.18 1896.99,-228.19 1864.28,-199 1814.76,-154.81 1869.45,-101.66 1821.28,-56 1802.51,-38.2 1737.54,-25.35 1689.88,-18.04"/>
<polygon fill="midnightblue" stroke="midnightblue" points="1690.1,-14.54 1679.69,-16.53 1689.06,-21.46 1690.1,-14.54"/>
</g>
<!-- Node61 -->
<g id="node41" class="node">
<title>Node61</title>
<g id="a_node41"><a xlink:title=" ">
<polygon fill="white" stroke="#bfbfbf" points="2021.78,-168.5 2021.78,-198.5 2134.78,-198.5 2134.78,-168.5 2021.78,-168.5"/>
<text text-anchor="start" x="2029.78" y="-186.5" font-family="Helvetica,sans-Serif" font-size="10.00">boost/accumulators</text>
<text text-anchor="middle" x="2078.28" y="-175.5" font-family="Helvetica,sans-Serif" font-size="10.00">/accumulators.hpp</text>
</a>
</g>
</g>
<!-- Node60&#45;&gt;Node61 -->
<g id="edge63" class="edge">
<title>Node60&#45;&gt;Node61</title>
<path fill="none" stroke="midnightblue" d="M2135.38,-240.73C2126.29,-231.78 2111.83,-217.54 2099.74,-205.63"/>
<polygon fill="midnightblue" stroke="midnightblue" points="2102.17,-203.11 2092.59,-198.59 2097.26,-208.1 2102.17,-203.11"/>
</g>
<!-- Node62 -->
<g id="node42" class="node">
<title>Node62</title>
<g id="a_node42"><a xlink:title=" ">
<polygon fill="white" stroke="#bfbfbf" points="2152.78,-168.5 2152.78,-198.5 2267.78,-198.5 2267.78,-168.5 2152.78,-168.5"/>
<text text-anchor="start" x="2160.78" y="-186.5" font-family="Helvetica,sans-Serif" font-size="10.00">boost/accumulators</text>
<text text-anchor="middle" x="2210.28" y="-175.5" font-family="Helvetica,sans-Serif" font-size="10.00">/statistics/count.hpp</text>
</a>
</g>
</g>
<!-- Node60&#45;&gt;Node62 -->
<g id="edge64" class="edge">
<title>Node60&#45;&gt;Node62</title>
<path fill="none" stroke="midnightblue" d="M2153.18,-240.73C2162.27,-231.78 2176.73,-217.54 2188.82,-205.63"/>
<polygon fill="midnightblue" stroke="midnightblue" points="2191.31,-208.1 2195.98,-198.59 2186.39,-203.11 2191.31,-208.1"/>
</g>
<!-- Node63 -->
<g id="node43" class="node">
<title>Node63</title>
<g id="a_node43"><a xlink:title=" ">
<polygon fill="white" stroke="#bfbfbf" points="2285.78,-168.5 2285.78,-198.5 2398.78,-198.5 2398.78,-168.5 2285.78,-168.5"/>
<text text-anchor="start" x="2293.78" y="-186.5" font-family="Helvetica,sans-Serif" font-size="10.00">boost/accumulators</text>
<text text-anchor="middle" x="2342.28" y="-175.5" font-family="Helvetica,sans-Serif" font-size="10.00">/statistics/max.hpp</text>
</a>
</g>
</g>
<!-- Node60&#45;&gt;Node63 -->
<g id="edge65" class="edge">
<title>Node60&#45;&gt;Node63</title>
<path fill="none" stroke="midnightblue" d="M2170.57,-240.87C2200.8,-230.95 2251.18,-214.41 2289.57,-201.81"/>
<polygon fill="midnightblue" stroke="midnightblue" points="2291.14,-204.97 2299.55,-198.53 2288.96,-198.32 2291.14,-204.97"/>
</g>
<!-- Node64 -->
<g id="node44" class="node">
<title>Node64</title>
<g id="a_node44"><a xlink:title=" ">
<polygon fill="white" stroke="#bfbfbf" points="2417.28,-168.5 2417.28,-198.5 2533.28,-198.5 2533.28,-168.5 2417.28,-168.5"/>
<text text-anchor="start" x="2425.28" y="-186.5" font-family="Helvetica,sans-Serif" font-size="10.00">boost/accumulators</text>
<text text-anchor="middle" x="2475.28" y="-175.5" font-family="Helvetica,sans-Serif" font-size="10.00">/statistics/mean.hpp</text>
</a>
</g>
</g>
<!-- Node60&#45;&gt;Node64 -->
<g id="edge66" class="edge">
<title>Node60&#45;&gt;Node64</title>
<path fill="none" stroke="midnightblue" d="M2190.61,-240.99C2241.31,-231.59 2325.27,-215.81 2407.21,-199.19"/>
<polygon fill="midnightblue" stroke="midnightblue" points="2408.09,-202.58 2417.19,-197.16 2406.7,-195.72 2408.09,-202.58"/>
</g>
<!-- Node65 -->
<g id="node45" class="node">
<title>Node65</title>
<g id="a_node45"><a xlink:title=" ">
<polygon fill="white" stroke="#bfbfbf" points="2551.78,-168.5 2551.78,-198.5 2664.78,-198.5 2664.78,-168.5 2551.78,-168.5"/>
<text text-anchor="start" x="2559.78" y="-186.5" font-family="Helvetica,sans-Serif" font-size="10.00">boost/accumulators</text>
<text text-anchor="middle" x="2608.28" y="-175.5" font-family="Helvetica,sans-Serif" font-size="10.00">/statistics/min.hpp</text>
</a>
</g>
</g>
<!-- Node60&#45;&gt;Node65 -->
<g id="edge67" class="edge">
<title>Node60&#45;&gt;Node65</title>
<path fill="none" stroke="midnightblue" d="M2197.94,-244.24C2272.66,-236.58 2412.44,-221 2541.41,-199.05"/>
<polygon fill="midnightblue" stroke="midnightblue" points="2542.2,-202.47 2551.46,-197.32 2541.02,-195.57 2542.2,-202.47"/>
</g>
<!-- Node66 -->
<g id="node46" class="node">
<title>Node66</title>
<g id="a_node46"><a xlink:title=" ">
<polygon fill="white" stroke="#bfbfbf" points="2682.78,-168.5 2682.78,-198.5 2795.78,-198.5 2795.78,-168.5 2682.78,-168.5"/>
<text text-anchor="start" x="2690.78" y="-186.5" font-family="Helvetica,sans-Serif" font-size="10.00">boost/accumulators</text>
<text text-anchor="middle" x="2739.28" y="-175.5" font-family="Helvetica,sans-Serif" font-size="10.00">/statistics/stats.hpp</text>
</a>
</g>
</g>
<!-- Node60&#45;&gt;Node66 -->
<g id="edge68" class="edge">
<title>Node60&#45;&gt;Node66</title>
<path fill="none" stroke="midnightblue" d="M2197.97,-246.6C2292.21,-241.03 2493.63,-226.96 2672.52,-199.16"/>
<polygon fill="midnightblue" stroke="midnightblue" points="2673.31,-202.58 2682.64,-197.57 2672.22,-195.67 2673.31,-202.58"/>
</g>
<!-- Node67 -->
<g id="node47" class="node">
<title>Node67</title>
<g id="a_node47"><a xlink:title=" ">
<polygon fill="white" stroke="#bfbfbf" points="1873.28,-168.5 1873.28,-198.5 2003.28,-198.5 2003.28,-168.5 1873.28,-168.5"/>
<text text-anchor="start" x="1881.28" y="-186.5" font-family="Helvetica,sans-Serif" font-size="10.00">boost/accumulators</text>
<text text-anchor="middle" x="1938.28" y="-175.5" font-family="Helvetica,sans-Serif" font-size="10.00">/statistics/variance.hpp</text>
</a>
</g>
</g>
<!-- Node60&#45;&gt;Node67 -->
<g id="edge69" class="edge">
<title>Node60&#45;&gt;Node67</title>
<path fill="none" stroke="midnightblue" d="M2116.93,-240.87C2085.28,-230.88 2032.4,-214.2 1992.36,-201.56"/>
<polygon fill="midnightblue" stroke="midnightblue" points="1993.33,-198.2 1982.74,-198.53 1991.22,-204.88 1993.33,-198.2"/>
</g>
<!-- Node68&#45;&gt;Node6 -->
<g id="edge76" class="edge">
<title>Node68&#45;&gt;Node6</title>
<path fill="none" stroke="midnightblue" d="M1754.32,-302.87C1775.39,-296.56 1798.6,-285.46 1811.28,-266 1837.45,-225.85 1797.05,-204.74 1766.28,-168 1720.27,-113.06 1713.84,-89.1 1650.28,-56 1585.23,-22.12 1497.82,-13.63 1451.4,-11.58"/>
<polygon fill="midnightblue" stroke="midnightblue" points="1451.45,-8.08 1441.33,-11.21 1451.19,-15.07 1451.45,-8.08"/>
</g>
<!-- Node68&#45;&gt;Node9 -->
<g id="edge77" class="edge">
<title>Node68&#45;&gt;Node9</title>
<path fill="none" stroke="midnightblue" d="M1697.36,-302.38C1675.18,-286.75 1625.63,-253.59 1579.28,-235 1518.74,-210.72 1443.6,-196.24 1400.98,-189.37"/>
<polygon fill="midnightblue" stroke="midnightblue" points="1401.29,-185.88 1390.87,-187.79 1400.21,-192.79 1401.29,-185.88"/>
</g>
<!-- Node68&#45;&gt;Node28 -->
<g id="edge74" class="edge">
<title>Node68&#45;&gt;Node28</title>
<path fill="none" stroke="midnightblue" d="M1684.25,-302.38C1658.92,-293.57 1618.7,-279.32 1584.28,-266 1582.64,-265.36 1580.95,-264.7 1579.26,-264.03"/>
<polygon fill="midnightblue" stroke="midnightblue" points="1580.16,-260.61 1569.57,-260.1 1577.52,-267.1 1580.16,-260.61"/>
</g>
<!-- Node24 -->
<g id="node49" class="node">
<title>Node24</title>
<g id="a_node49"><a xlink:title=" ">
<polygon fill="white" stroke="#bfbfbf" points="1664.28,-241 1664.28,-260 1728.28,-260 1728.28,-241 1664.28,-241"/>
<text text-anchor="middle" x="1696.28" y="-248" font-family="Helvetica,sans-Serif" font-size="10.00">algorithm</text>
</a>
</g>
</g>
<!-- Node68&#45;&gt;Node24 -->
<g id="edge73" class="edge">
<title>Node68&#45;&gt;Node24</title>
<path fill="none" stroke="midnightblue" d="M1707.42,-302.48C1705.57,-293.99 1702.66,-280.7 1700.28,-269.82"/>
<polygon fill="midnightblue" stroke="midnightblue" points="1703.69,-269.03 1698.14,-260.01 1696.86,-270.53 1703.69,-269.03"/>
</g>
<!-- Node25 -->
<g id="node50" class="node">
<title>Node25</title>
<g id="a_node50"><a xlink:title=" ">
<polygon fill="white" stroke="#bfbfbf" points="1746.28,-241 1746.28,-260 1802.28,-260 1802.28,-241 1746.28,-241"/>
<text text-anchor="middle" x="1774.28" y="-248" font-family="Helvetica,sans-Serif" font-size="10.00">sstream</text>
</a>
</g>
</g>
<!-- Node68&#45;&gt;Node25 -->
<g id="edge75" class="edge">
<title>Node68&#45;&gt;Node25</title>
<path fill="none" stroke="midnightblue" d="M1718.59,-302.48C1728.73,-293.2 1745.15,-278.17 1757.53,-266.83"/>
<polygon fill="midnightblue" stroke="midnightblue" points="1759.97,-269.34 1764.99,-260.01 1755.25,-264.18 1759.97,-269.34"/>
</g>
</g>
</svg>
