<?xml version="1.0" encoding="UTF-8" standalone="no"?>
<!DOCTYPE svg PUBLIC "-//W3C//DTD SVG 1.1//EN"
 "http://www.w3.org/Graphics/SVG/1.1/DTD/svg11.dtd">
<!-- Generated by graphviz version 2.43.0 (0)
 -->
<!-- Title: src/utils/String.cpp Pages: 1 -->
<!--zoomable 565 -->
<svg id="main" version="1.1" xmlns="http://www.w3.org/2000/svg" xmlns:xlink="http://www.w3.org/1999/xlink" xml:space="preserve" onload="init(evt)">
<style type="text/css"><![CDATA[
.edge:hover path { stroke: red; }
.edge:hover polygon { stroke: red; fill: red; }
]]></style>
<script type="text/javascript"><![CDATA[
var edges = document.getElementsByTagName('g');
if (edges && edges.length) {
  for (var i=0;i<edges.length;i++) {
    if (edges[i].id.substr(0,4)=='edge') {
      edges[i].setAttribute('class','edge');
    }
  }
}
]]></script>
        <defs>
                <circle id="rim" cx="0" cy="0" r="7"/>
                <circle id="rim2" cx="0" cy="0" r="3.5"/>
                <g id="zoomPlus">
                        <use xlink:href="#rim" fill="#404040">
                                <set attributeName="fill" to="#808080" begin="zoomplus.mouseover" end="zoomplus.mouseout"/>
                        </use>
                        <path d="M-4,0h8M0,-4v8" fill="none" stroke="white" stroke-width="1.5" pointer-events="none"/>
                </g>
                <g id="zoomMin">
                        <use xlink:href="#rim" fill="#404040">
                                <set attributeName="fill" to="#808080" begin="zoomminus.mouseover" end="zoomminus.mouseout"/>
                        </use>
                        <path d="M-4,0h8" fill="none" stroke="white" stroke-width="1.5" pointer-events="none"/>
                </g>
                <g id="dirArrow">
                        <path fill="none" stroke="white" stroke-width="1.5" d="M0,-3.0v7 M-2.5,-0.5L0,-3.0L2.5,-0.5"/>
                </g>
               <g id="resetDef">
                       <use xlink:href="#rim2" fill="#404040">
                               <set attributeName="fill" to="#808080" begin="reset.mouseover" end="reset.mouseout"/>
                       </use>
               </g>
        </defs>

<script type="text/javascript">
var viewWidth = 1215;
var viewHeight = 565;
var sectionId = 'dynsection-0';
</script>
<script xlink:href="svgpan.js"/>
<svg id="graph" class="graph">
<g id="viewport">
<title>src/utils/String.cpp</title>
<polygon fill="white" stroke="transparent" points="-4,4 -4,-561 1211,-561 1211,4 -4,4"/>
<!-- Node1 -->
<g id="node1" class="node">
<title>Node1</title>
<g id="a_node1"><a xlink:title=" ">
<polygon fill="#bfbfbf" stroke="black" points="485.5,-537.5 485.5,-556.5 592.5,-556.5 592.5,-537.5 485.5,-537.5"/>
<text text-anchor="middle" x="539" y="-544.5" font-family="Helvetica,sans-Serif" font-size="10.00">src/utils/String.cpp</text>
</a>
</g>
</g>
<!-- Node2 -->
<g id="node2" class="node">
<title>Node2</title>
<g id="a_node2"><a xlink:href="String_8hpp.html" target="_top" xlink:title=" ">
<polygon fill="white" stroke="black" points="69,-174 69,-193 135,-193 135,-174 69,-174"/>
<text text-anchor="middle" x="102" y="-181" font-family="Helvetica,sans-Serif" font-size="10.00">String.hpp</text>
</a>
</g>
</g>
<!-- Node1&#45;&gt;Node2 -->
<g id="edge1" class="edge">
<title>Node1&#45;&gt;Node2</title>
<path fill="none" stroke="midnightblue" d="M485.38,-543.79C356.14,-537 38,-511 38,-419.5 38,-419.5 38,-419.5 38,-300 38,-260.33 67.24,-221.52 86.19,-200.53"/>
<polygon fill="midnightblue" stroke="midnightblue" points="88.82,-202.85 93.1,-193.16 83.71,-198.06 88.82,-202.85"/>
</g>
<!-- Node7 -->
<g id="node7" class="node">
<title>Node7</title>
<g id="a_node7"><a xlink:title=" ">
<polygon fill="white" stroke="#bfbfbf" points="47.5,-56.5 47.5,-75.5 94.5,-75.5 94.5,-56.5 47.5,-56.5"/>
<text text-anchor="middle" x="71" y="-63.5" font-family="Helvetica,sans-Serif" font-size="10.00">vector</text>
</a>
</g>
</g>
<!-- Node1&#45;&gt;Node7 -->
<g id="edge10" class="edge">
<title>Node1&#45;&gt;Node7</title>
<path fill="none" stroke="midnightblue" d="M485.23,-545.45C379.28,-543.6 147.65,-535.61 77,-501 32.25,-479.08 0,-469.33 0,-419.5 0,-419.5 0,-419.5 0,-182.5 0,-141.8 32.39,-103.39 53.42,-82.74"/>
<polygon fill="midnightblue" stroke="midnightblue" points="55.97,-85.15 60.83,-75.73 51.16,-80.06 55.97,-85.15"/>
</g>
<!-- Node8 -->
<g id="node8" class="node">
<title>Node8</title>
<g id="a_node8"><a xlink:title=" ">
<polygon fill="white" stroke="#bfbfbf" points="314.5,-476 314.5,-495 391.5,-495 391.5,-476 314.5,-476"/>
<text text-anchor="middle" x="353" y="-483" font-family="Helvetica,sans-Serif" font-size="10.00">Eigen/Dense</text>
</a>
</g>
</g>
<!-- Node1&#45;&gt;Node8 -->
<g id="edge7" class="edge">
<title>Node1&#45;&gt;Node8</title>
<path fill="none" stroke="midnightblue" d="M512.35,-537.48C480.03,-527.14 425.4,-509.66 389.27,-498.1"/>
<polygon fill="midnightblue" stroke="midnightblue" points="390.19,-494.72 379.6,-495.01 388.06,-501.39 390.19,-494.72"/>
</g>
<!-- Node9 -->
<g id="node9" class="node">
<title>Node9</title>
<g id="a_node9"><a xlink:title=" ">
<polygon fill="white" stroke="#bfbfbf" points="409.5,-470.5 409.5,-500.5 534.5,-500.5 534.5,-470.5 409.5,-470.5"/>
<text text-anchor="start" x="417.5" y="-488.5" font-family="Helvetica,sans-Serif" font-size="10.00">boost/algorithm/string</text>
<text text-anchor="middle" x="472" y="-477.5" font-family="Helvetica,sans-Serif" font-size="10.00">/case_conv.hpp</text>
</a>
</g>
</g>
<!-- Node1&#45;&gt;Node9 -->
<g id="edge8" class="edge">
<title>Node1&#45;&gt;Node9</title>
<path fill="none" stroke="midnightblue" d="M529.4,-537.48C520.58,-529.64 507.15,-517.71 495.5,-507.37"/>
<polygon fill="midnightblue" stroke="midnightblue" points="497.59,-504.55 487.79,-500.52 492.94,-509.78 497.59,-504.55"/>
</g>
<!-- Node10 -->
<g id="node10" class="node">
<title>Node10</title>
<g id="a_node10"><a xlink:title=" ">
<polygon fill="white" stroke="#bfbfbf" points="1083,-291.5 1083,-310.5 1141,-310.5 1141,-291.5 1083,-291.5"/>
<text text-anchor="middle" x="1112" y="-298.5" font-family="Helvetica,sans-Serif" font-size="10.00">memory</text>
</a>
</g>
</g>
<!-- Node1&#45;&gt;Node10 -->
<g id="edge9" class="edge">
<title>Node1&#45;&gt;Node10</title>
<path fill="none" stroke="midnightblue" d="M592.6,-543.74C689.62,-539.07 890.32,-526.58 955,-501 1040.31,-467.27 1076.58,-451.62 1112,-367 1118.13,-352.36 1117.52,-334.19 1115.73,-320.79"/>
<polygon fill="midnightblue" stroke="midnightblue" points="1119.17,-320.12 1114.07,-310.83 1112.27,-321.27 1119.17,-320.12"/>
</g>
<!-- Node11 -->
<g id="node11" class="node">
<title>Node11</title>
<g id="a_node11"><a xlink:title=" ">
<polygon fill="white" stroke="#bfbfbf" points="677.5,-470.5 677.5,-500.5 802.5,-500.5 802.5,-470.5 677.5,-470.5"/>
<text text-anchor="start" x="685.5" y="-488.5" font-family="Helvetica,sans-Serif" font-size="10.00">boost/algorithm/string</text>
<text text-anchor="middle" x="740" y="-477.5" font-family="Helvetica,sans-Serif" font-size="10.00">/classification.hpp</text>
</a>
</g>
</g>
<!-- Node1&#45;&gt;Node11 -->
<g id="edge11" class="edge">
<title>Node1&#45;&gt;Node11</title>
<path fill="none" stroke="midnightblue" d="M567.8,-537.48C597.69,-528.63 645.25,-514.55 682.82,-503.43"/>
<polygon fill="midnightblue" stroke="midnightblue" points="684.03,-506.72 692.63,-500.52 682.05,-500.01 684.03,-506.72"/>
</g>
<!-- Node12 -->
<g id="node12" class="node">
<title>Node12</title>
<g id="a_node12"><a xlink:title=" ">
<polygon fill="white" stroke="#bfbfbf" points="820.5,-470.5 820.5,-500.5 945.5,-500.5 945.5,-470.5 820.5,-470.5"/>
<text text-anchor="start" x="828.5" y="-488.5" font-family="Helvetica,sans-Serif" font-size="10.00">boost/algorithm/string</text>
<text text-anchor="middle" x="883" y="-477.5" font-family="Helvetica,sans-Serif" font-size="10.00">/split.hpp</text>
</a>
</g>
</g>
<!-- Node1&#45;&gt;Node12 -->
<g id="edge12" class="edge">
<title>Node1&#45;&gt;Node12</title>
<path fill="none" stroke="midnightblue" d="M592.72,-537.76C645.7,-529.5 729.22,-516.1 810.42,-501.26"/>
<polygon fill="midnightblue" stroke="midnightblue" points="811.1,-504.69 820.31,-499.44 809.84,-497.8 811.1,-504.69"/>
</g>
<!-- Node13 -->
<g id="node13" class="node">
<title>Node13</title>
<g id="a_node13"><a xlink:href="assertion_8hpp.html" target="_top" xlink:title=" ">
<polygon fill="white" stroke="black" points="552.5,-476 552.5,-495 659.5,-495 659.5,-476 552.5,-476"/>
<text text-anchor="middle" x="606" y="-483" font-family="Helvetica,sans-Serif" font-size="10.00">utils/assertion.hpp</text>
</a>
</g>
</g>
<!-- Node1&#45;&gt;Node13 -->
<g id="edge13" class="edge">
<title>Node1&#45;&gt;Node13</title>
<path fill="none" stroke="midnightblue" d="M548.6,-537.48C559.05,-528.2 575.97,-513.17 588.74,-501.83"/>
<polygon fill="midnightblue" stroke="midnightblue" points="591.27,-504.27 596.42,-495.01 586.62,-499.03 591.27,-504.27"/>
</g>
<!-- Node3 -->
<g id="node3" class="node">
<title>Node3</title>
<g id="a_node3"><a xlink:title=" ">
<polygon fill="white" stroke="#bfbfbf" points="772,-56.5 772,-75.5 836,-75.5 836,-56.5 772,-56.5"/>
<text text-anchor="middle" x="804" y="-63.5" font-family="Helvetica,sans-Serif" font-size="10.00">algorithm</text>
</a>
</g>
</g>
<!-- Node2&#45;&gt;Node3 -->
<g id="edge2" class="edge">
<title>Node2&#45;&gt;Node3</title>
<path fill="none" stroke="midnightblue" d="M127.18,-173.97C134.19,-171.8 141.84,-169.63 149,-168 414.76,-107.46 489.82,-125.59 761.64,-76.14"/>
<polygon fill="midnightblue" stroke="midnightblue" points="762.61,-79.53 771.81,-74.28 761.35,-72.64 762.61,-79.53"/>
</g>
<!-- Node4 -->
<g id="node4" class="node">
<title>Node4</title>
<g id="a_node4"><a xlink:title=" ">
<polygon fill="white" stroke="#bfbfbf" points="119,-56.5 119,-75.5 161,-75.5 161,-56.5 119,-56.5"/>
<text text-anchor="middle" x="140" y="-63.5" font-family="Helvetica,sans-Serif" font-size="10.00">array</text>
</a>
</g>
</g>
<!-- Node2&#45;&gt;Node4 -->
<g id="edge3" class="edge">
<title>Node2&#45;&gt;Node4</title>
<path fill="none" stroke="midnightblue" d="M104.86,-173.82C111.02,-155.09 125.67,-110.55 133.98,-85.29"/>
<polygon fill="midnightblue" stroke="midnightblue" points="137.31,-86.37 137.11,-75.78 130.66,-84.19 137.31,-86.37"/>
</g>
<!-- Node5 -->
<g id="node5" class="node">
<title>Node5</title>
<g id="a_node5"><a xlink:title=" ">
<polygon fill="white" stroke="#bfbfbf" points="854,-56.5 854,-75.5 910,-75.5 910,-56.5 854,-56.5"/>
<text text-anchor="middle" x="882" y="-63.5" font-family="Helvetica,sans-Serif" font-size="10.00">sstream</text>
</a>
</g>
</g>
<!-- Node2&#45;&gt;Node5 -->
<g id="edge4" class="edge">
<title>Node2&#45;&gt;Node5</title>
<path fill="none" stroke="midnightblue" d="M126.66,-173.99C133.8,-171.77 141.65,-169.57 149,-168 277.74,-140.49 312.47,-149.08 443,-132 618.64,-109.02 666.1,-109.77 843.84,-76.07"/>
<polygon fill="midnightblue" stroke="midnightblue" points="844.61,-79.48 853.78,-74.17 843.3,-72.61 844.61,-79.48"/>
</g>
<!-- Node6 -->
<g id="node6" class="node">
<title>Node6</title>
<g id="a_node6"><a xlink:title=" ">
<polygon fill="white" stroke="#bfbfbf" points="662,-112.5 662,-131.5 706,-131.5 706,-112.5 662,-112.5"/>
<text text-anchor="middle" x="684" y="-119.5" font-family="Helvetica,sans-Serif" font-size="10.00">string</text>
</a>
</g>
</g>
<!-- Node2&#45;&gt;Node6 -->
<g id="edge5" class="edge">
<title>Node2&#45;&gt;Node6</title>
<path fill="none" stroke="midnightblue" d="M126.13,-173.93C133.4,-171.66 141.45,-169.44 149,-168 351.31,-129.41 406.08,-152.61 611,-132 624.4,-130.65 639.15,-128.89 651.86,-127.28"/>
<polygon fill="midnightblue" stroke="midnightblue" points="652.52,-130.72 661.99,-125.98 651.62,-123.78 652.52,-130.72"/>
</g>
<!-- Node2&#45;&gt;Node7 -->
<g id="edge6" class="edge">
<title>Node2&#45;&gt;Node7</title>
<path fill="none" stroke="midnightblue" d="M99.67,-173.82C94.67,-155.17 82.79,-110.94 76,-85.63"/>
<polygon fill="midnightblue" stroke="midnightblue" points="79.33,-84.53 73.36,-75.78 72.57,-86.35 79.33,-84.53"/>
</g>
<!-- Node14 -->
<g id="node14" class="node">
<title>Node14</title>
<g id="a_node14"><a xlink:title=" ">
<polygon fill="white" stroke="#bfbfbf" points="907.5,-409 907.5,-428 956.5,-428 956.5,-409 907.5,-409"/>
<text text-anchor="middle" x="932" y="-416" font-family="Helvetica,sans-Serif" font-size="10.00">cstdlib</text>
</a>
</g>
</g>
<!-- Node13&#45;&gt;Node14 -->
<g id="edge14" class="edge">
<title>Node13&#45;&gt;Node14</title>
<path fill="none" stroke="midnightblue" d="M641.23,-475.93C650.25,-473.86 659.96,-471.75 669,-470 770.15,-450.43 798.97,-462.42 898,-434 900.29,-433.34 902.63,-432.57 904.96,-431.73"/>
<polygon fill="midnightblue" stroke="midnightblue" points="906.3,-434.97 914.3,-428.02 903.72,-428.46 906.3,-434.97"/>
</g>
<!-- Node15 -->
<g id="node15" class="node">
<title>Node15</title>
<g id="a_node15"><a xlink:title=" ">
<polygon fill="white" stroke="#bfbfbf" points="975,-409 975,-428 1035,-428 1035,-409 975,-409"/>
<text text-anchor="middle" x="1005" y="-416" font-family="Helvetica,sans-Serif" font-size="10.00">iostream</text>
</a>
</g>
</g>
<!-- Node13&#45;&gt;Node15 -->
<g id="edge15" class="edge">
<title>Node13&#45;&gt;Node15</title>
<path fill="none" stroke="midnightblue" d="M640.2,-475.94C649.5,-473.8 659.6,-471.65 669,-470 799.97,-447.06 836.79,-465.39 966,-434 968.99,-433.27 972.07,-432.39 975.12,-431.41"/>
<polygon fill="midnightblue" stroke="midnightblue" points="976.34,-434.69 984.64,-428.1 974.04,-428.08 976.34,-434.69"/>
</g>
<!-- Node16 -->
<g id="node16" class="node">
<title>Node16</title>
<g id="a_node16"><a xlink:title=" ">
<polygon fill="white" stroke="#bfbfbf" points="1018.5,-112.5 1018.5,-131.5 1091.5,-131.5 1091.5,-112.5 1018.5,-112.5"/>
<text text-anchor="middle" x="1055" y="-119.5" font-family="Helvetica,sans-Serif" font-size="10.00">string_view</text>
</a>
</g>
</g>
<!-- Node13&#45;&gt;Node16 -->
<g id="edge16" class="edge">
<title>Node13&#45;&gt;Node16</title>
<path fill="none" stroke="midnightblue" d="M639.18,-475.96C648.75,-473.74 659.24,-471.54 669,-470 849.24,-441.47 904.22,-489.68 1078,-434 1141.37,-413.69 1207,-424.54 1207,-358 1207,-358 1207,-358 1207,-244 1207,-186.18 1138.85,-151.54 1093.81,-134.96"/>
<polygon fill="midnightblue" stroke="midnightblue" points="1094.9,-131.64 1084.31,-131.6 1092.57,-138.24 1094.9,-131.64"/>
</g>
<!-- Node17 -->
<g id="node17" class="node">
<title>Node17</title>
<g id="a_node17"><a xlink:href="fmt_8hpp.html" target="_top" xlink:title=" ">
<polygon fill="white" stroke="black" points="902.5,-174 902.5,-193 981.5,-193 981.5,-174 902.5,-174"/>
<text text-anchor="middle" x="942" y="-181" font-family="Helvetica,sans-Serif" font-size="10.00">utils/fmt.hpp</text>
</a>
</g>
</g>
<!-- Node13&#45;&gt;Node17 -->
<g id="edge17" class="edge">
<title>Node13&#45;&gt;Node17</title>
<path fill="none" stroke="midnightblue" d="M639.52,-475.93C649,-473.74 659.36,-471.56 669,-470 834.27,-443.17 892.29,-504.84 1044,-434 1082.44,-416.05 1084.85,-399.6 1112,-367 1136.17,-337.98 1169.7,-323.22 1150,-291 1115.75,-234.98 1041.67,-207.23 991.81,-194.39"/>
<polygon fill="midnightblue" stroke="midnightblue" points="992.42,-190.93 981.87,-191.94 990.74,-197.73 992.42,-190.93"/>
</g>
<!-- Node27 -->
<g id="node27" class="node">
<title>Node27</title>
<g id="a_node27"><a xlink:title=" ">
<polygon fill="white" stroke="#bfbfbf" points="198.5,-409 198.5,-428 345.5,-428 345.5,-409 198.5,-409"/>
<text text-anchor="middle" x="272" y="-416" font-family="Helvetica,sans-Serif" font-size="10.00">boost/current_function.hpp</text>
</a>
</g>
</g>
<!-- Node13&#45;&gt;Node27 -->
<g id="edge36" class="edge">
<title>Node13&#45;&gt;Node27</title>
<path fill="none" stroke="midnightblue" d="M570.08,-475.96C561.24,-473.93 551.79,-471.83 543,-470 503.06,-461.69 396.11,-442.05 329.13,-429.85"/>
<polygon fill="midnightblue" stroke="midnightblue" points="329.61,-426.38 319.15,-428.04 328.36,-433.27 329.61,-426.38"/>
</g>
<!-- Node28 -->
<g id="node28" class="node">
<title>Node28</title>
<g id="a_node28"><a xlink:title=" ">
<polygon fill="white" stroke="#bfbfbf" points="363.5,-403.5 363.5,-433.5 498.5,-433.5 498.5,-403.5 363.5,-403.5"/>
<text text-anchor="start" x="371.5" y="-421.5" font-family="Helvetica,sans-Serif" font-size="10.00">boost/preprocessor</text>
<text text-anchor="middle" x="431" y="-410.5" font-family="Helvetica,sans-Serif" font-size="10.00">/comparison/greater.hpp</text>
</a>
</g>
</g>
<!-- Node13&#45;&gt;Node28 -->
<g id="edge37" class="edge">
<title>Node13&#45;&gt;Node28</title>
<path fill="none" stroke="midnightblue" d="M582.76,-475.87C556.27,-466.03 512.28,-449.69 478.46,-437.13"/>
<polygon fill="midnightblue" stroke="midnightblue" points="479.36,-433.73 468.77,-433.53 476.92,-440.29 479.36,-433.73"/>
</g>
<!-- Node29 -->
<g id="node29" class="node">
<title>Node29</title>
<g id="a_node29"><a xlink:title=" ">
<polygon fill="white" stroke="#bfbfbf" points="191,-168.5 191,-198.5 301,-198.5 301,-168.5 191,-168.5"/>
<text text-anchor="start" x="199" y="-186.5" font-family="Helvetica,sans-Serif" font-size="10.00">boost/preprocessor</text>
<text text-anchor="middle" x="246" y="-175.5" font-family="Helvetica,sans-Serif" font-size="10.00">/control/if.hpp</text>
</a>
</g>
</g>
<!-- Node13&#45;&gt;Node29 -->
<g id="edge38" class="edge">
<title>Node13&#45;&gt;Node29</title>
<path fill="none" stroke="midnightblue" d="M572.48,-475.97C563,-473.78 552.63,-471.59 543,-470 464.99,-457.11 242.01,-492.67 189,-434 158.79,-400.56 212.26,-263.43 235.75,-207.96"/>
<polygon fill="midnightblue" stroke="midnightblue" points="239.04,-209.16 239.76,-198.59 232.61,-206.4 239.04,-209.16"/>
</g>
<!-- Node30 -->
<g id="node30" class="node">
<title>Node30</title>
<g id="a_node30"><a xlink:title=" ">
<polygon fill="white" stroke="#bfbfbf" points="319,-168.5 319,-198.5 429,-198.5 429,-168.5 319,-168.5"/>
<text text-anchor="start" x="327" y="-186.5" font-family="Helvetica,sans-Serif" font-size="10.00">boost/preprocessor</text>
<text text-anchor="middle" x="374" y="-175.5" font-family="Helvetica,sans-Serif" font-size="10.00">/stringize.hpp</text>
</a>
</g>
</g>
<!-- Node13&#45;&gt;Node30 -->
<g id="edge39" class="edge">
<title>Node13&#45;&gt;Node30</title>
<path fill="none" stroke="midnightblue" d="M595.67,-475.86C574.26,-456.9 527,-409.27 527,-358 527,-358 527,-358 527,-300 527,-250.39 475.13,-219.39 431.79,-202.15"/>
<polygon fill="midnightblue" stroke="midnightblue" points="433,-198.87 422.41,-198.58 430.51,-205.41 433,-198.87"/>
</g>
<!-- Node31 -->
<g id="node31" class="node">
<title>Node31</title>
<g id="a_node31"><a xlink:title=" ">
<polygon fill="white" stroke="#bfbfbf" points="593,-403.5 593,-433.5 703,-433.5 703,-403.5 593,-403.5"/>
<text text-anchor="start" x="601" y="-421.5" font-family="Helvetica,sans-Serif" font-size="10.00">boost/preprocessor</text>
<text text-anchor="middle" x="648" y="-410.5" font-family="Helvetica,sans-Serif" font-size="10.00">/variadic/size.hpp</text>
</a>
</g>
</g>
<!-- Node13&#45;&gt;Node31 -->
<g id="edge40" class="edge">
<title>Node13&#45;&gt;Node31</title>
<path fill="none" stroke="midnightblue" d="M611.66,-475.73C617.23,-467.12 625.96,-453.61 633.47,-441.99"/>
<polygon fill="midnightblue" stroke="midnightblue" points="636.41,-443.89 638.9,-433.59 630.53,-440.09 636.41,-443.89"/>
</g>
<!-- Node32 -->
<g id="node32" class="node">
<title>Node32</title>
<g id="a_node32"><a xlink:href="ArgumentFormatter_8hpp.html" target="_top" xlink:title=" ">
<polygon fill="white" stroke="black" points="555.5,-235.5 555.5,-254.5 712.5,-254.5 712.5,-235.5 555.5,-235.5"/>
<text text-anchor="middle" x="634" y="-242.5" font-family="Helvetica,sans-Serif" font-size="10.00">utils/ArgumentFormatter.hpp</text>
</a>
</g>
</g>
<!-- Node13&#45;&gt;Node32 -->
<g id="edge41" class="edge">
<title>Node13&#45;&gt;Node32</title>
<path fill="none" stroke="midnightblue" d="M600.96,-475.93C595.53,-466.16 587.24,-449.54 584,-434 581.19,-420.51 583.39,-416.76 584,-403 585.11,-378.04 582.72,-371.19 589,-347 596.97,-316.31 613.39,-283.17 624.04,-263.52"/>
<polygon fill="midnightblue" stroke="midnightblue" points="627.22,-265 629.01,-254.56 621.1,-261.61 627.22,-265"/>
</g>
<!-- Node36 -->
<g id="node36" class="node">
<title>Node36</title>
<g id="a_node36"><a xlink:href="Parallel_8hpp.html" target="_top" xlink:title=" ">
<polygon fill="white" stroke="black" points="721,-409 721,-428 819,-428 819,-409 721,-409"/>
<text text-anchor="middle" x="770" y="-416" font-family="Helvetica,sans-Serif" font-size="10.00">utils/Parallel.hpp</text>
</a>
</g>
</g>
<!-- Node13&#45;&gt;Node36 -->
<g id="edge48" class="edge">
<title>Node13&#45;&gt;Node36</title>
<path fill="none" stroke="midnightblue" d="M627.78,-475.87C656.28,-464.57 706.43,-444.7 738.92,-431.82"/>
<polygon fill="midnightblue" stroke="midnightblue" points="740.39,-435 748.39,-428.06 737.81,-428.49 740.39,-435"/>
</g>
<!-- Node44 -->
<g id="node44" class="node">
<title>Node44</title>
<g id="a_node44"><a xlink:href="stacktrace_8hpp.html" target="_top" xlink:title=" ">
<polygon fill="white" stroke="black" points="66.5,-291.5 66.5,-310.5 179.5,-310.5 179.5,-291.5 66.5,-291.5"/>
<text text-anchor="middle" x="123" y="-298.5" font-family="Helvetica,sans-Serif" font-size="10.00">utils/stacktrace.hpp</text>
</a>
</g>
</g>
<!-- Node13&#45;&gt;Node44 -->
<g id="edge64" class="edge">
<title>Node13&#45;&gt;Node44</title>
<path fill="none" stroke="midnightblue" d="M572.81,-475.99C563.24,-473.77 552.75,-471.57 543,-470 457.72,-456.28 221.54,-490.25 156,-434 123.09,-405.75 120.41,-350.11 121.53,-320.91"/>
<polygon fill="midnightblue" stroke="midnightblue" points="125.03,-320.99 122.11,-310.81 118.04,-320.59 125.03,-320.99"/>
</g>
<!-- Node45 -->
<g id="node45" class="node">
<title>Node45</title>
<g id="a_node45"><a xlink:title=" ">
<polygon fill="white" stroke="#bfbfbf" points="837,-409 837,-428 889,-428 889,-409 837,-409"/>
<text text-anchor="middle" x="863" y="-416" font-family="Helvetica,sans-Serif" font-size="10.00">cassert</text>
</a>
</g>
</g>
<!-- Node13&#45;&gt;Node45 -->
<g id="edge66" class="edge">
<title>Node13&#45;&gt;Node45</title>
<path fill="none" stroke="midnightblue" d="M642.97,-475.97C651.52,-474 660.57,-471.92 669,-470 739.64,-453.87 758.95,-455.95 828,-434 830.14,-433.32 832.33,-432.56 834.52,-431.76"/>
<polygon fill="midnightblue" stroke="midnightblue" points="835.92,-434.97 843.96,-428.07 833.37,-428.45 835.92,-434.97"/>
</g>
<!-- Node17&#45;&gt;Node6 -->
<g id="edge18" class="edge">
<title>Node17&#45;&gt;Node6</title>
<path fill="none" stroke="midnightblue" d="M911.22,-173.98C903.65,-171.95 895.54,-169.84 888,-168 827.52,-153.22 756.43,-138.03 716.14,-129.62"/>
<polygon fill="midnightblue" stroke="midnightblue" points="716.62,-126.14 706.11,-127.54 715.19,-133 716.62,-126.14"/>
</g>
<!-- Node17&#45;&gt;Node16 -->
<g id="edge19" class="edge">
<title>Node17&#45;&gt;Node16</title>
<path fill="none" stroke="midnightblue" d="M958.19,-173.98C976.9,-164.12 1007.92,-147.79 1029.8,-136.27"/>
<polygon fill="midnightblue" stroke="midnightblue" points="1031.62,-139.27 1038.84,-131.51 1028.36,-133.07 1031.62,-139.27"/>
</g>
<!-- Node18 -->
<g id="node18" class="node">
<title>Node18</title>
<g id="a_node18"><a xlink:title=" ">
<polygon fill="white" stroke="#bfbfbf" points="674.5,-56.5 674.5,-75.5 753.5,-75.5 753.5,-56.5 674.5,-56.5"/>
<text text-anchor="middle" x="714" y="-63.5" font-family="Helvetica,sans-Serif" font-size="10.00">fmt/format.h</text>
</a>
</g>
</g>
<!-- Node17&#45;&gt;Node18 -->
<g id="edge20" class="edge">
<title>Node17&#45;&gt;Node18</title>
<path fill="none" stroke="midnightblue" d="M931.33,-173.94C913.08,-159.61 874.33,-130.54 838,-112 810.93,-98.18 778.6,-86.6 753.74,-78.64"/>
<polygon fill="midnightblue" stroke="midnightblue" points="754.51,-75.22 743.92,-75.57 752.42,-81.9 754.51,-75.22"/>
</g>
<!-- Node19 -->
<g id="node19" class="node">
<title>Node19</title>
<g id="a_node19"><a xlink:title=" ">
<polygon fill="white" stroke="#bfbfbf" points="743,-112.5 743,-131.5 829,-131.5 829,-112.5 743,-112.5"/>
<text text-anchor="middle" x="786" y="-119.5" font-family="Helvetica,sans-Serif" font-size="10.00">fmt/ostream.h</text>
</a>
</g>
</g>
<!-- Node17&#45;&gt;Node19 -->
<g id="edge21" class="edge">
<title>Node17&#45;&gt;Node19</title>
<path fill="none" stroke="midnightblue" d="M919.65,-173.98C893.01,-163.81 848.29,-146.76 817.99,-135.2"/>
<polygon fill="midnightblue" stroke="midnightblue" points="818.9,-131.8 808.31,-131.51 816.41,-138.34 818.9,-131.8"/>
</g>
<!-- Node20 -->
<g id="node20" class="node">
<title>Node20</title>
<g id="a_node20"><a xlink:href="fmtEigen_8hpp.html" target="_top" xlink:title=" ">
<polygon fill="white" stroke="black" points="885,-112.5 885,-131.5 991,-131.5 991,-112.5 885,-112.5"/>
<text text-anchor="middle" x="938" y="-119.5" font-family="Helvetica,sans-Serif" font-size="10.00">utils/fmtEigen.hpp</text>
</a>
</g>
</g>
<!-- Node17&#45;&gt;Node20 -->
<g id="edge22" class="edge">
<title>Node17&#45;&gt;Node20</title>
<path fill="none" stroke="midnightblue" d="M941.43,-173.98C940.86,-165.58 939.98,-152.48 939.25,-141.66"/>
<polygon fill="midnightblue" stroke="midnightblue" points="942.74,-141.25 938.57,-131.51 935.75,-141.72 942.74,-141.25"/>
</g>
<!-- Node23 -->
<g id="node23" class="node">
<title>Node23</title>
<g id="a_node23"><a xlink:href="fmtSTL_8hpp.html" target="_top" xlink:title=" ">
<polygon fill="white" stroke="black" points="212,-112.5 212,-131.5 308,-131.5 308,-112.5 212,-112.5"/>
<text text-anchor="middle" x="260" y="-119.5" font-family="Helvetica,sans-Serif" font-size="10.00">utils/fmtSTL.hpp</text>
</a>
</g>
</g>
<!-- Node17&#45;&gt;Node23 -->
<g id="edge29" class="edge">
<title>Node17&#45;&gt;Node23</title>
<path fill="none" stroke="midnightblue" d="M902.26,-175.11C887.47,-172.56 870.51,-169.87 855,-168 659.17,-144.32 425.49,-130.97 318.6,-125.69"/>
<polygon fill="midnightblue" stroke="midnightblue" points="318.51,-122.18 308.35,-125.18 318.16,-129.17 318.51,-122.18"/>
</g>
<!-- Node20&#45;&gt;Node3 -->
<g id="edge24" class="edge">
<title>Node20&#45;&gt;Node3</title>
<path fill="none" stroke="midnightblue" d="M916.77,-112.44C894.62,-103.52 859.68,-89.44 834.56,-79.32"/>
<polygon fill="midnightblue" stroke="midnightblue" points="835.72,-76.01 825.13,-75.52 833.1,-82.5 835.72,-76.01"/>
</g>
<!-- Node20&#45;&gt;Node5 -->
<g id="edge26" class="edge">
<title>Node20&#45;&gt;Node5</title>
<path fill="none" stroke="midnightblue" d="M929,-112.32C920.81,-104.42 908.49,-92.55 898.53,-82.94"/>
<polygon fill="midnightblue" stroke="midnightblue" points="900.79,-80.26 891.16,-75.83 895.93,-85.29 900.79,-80.26"/>
</g>
<!-- Node20&#45;&gt;Node18 -->
<g id="edge25" class="edge">
<title>Node20&#45;&gt;Node18</title>
<path fill="none" stroke="midnightblue" d="M902.51,-112.44C863.68,-103.08 801.34,-88.06 759.08,-77.87"/>
<polygon fill="midnightblue" stroke="midnightblue" points="759.87,-74.46 749.33,-75.52 758.23,-81.26 759.87,-74.46"/>
</g>
<!-- Node21 -->
<g id="node21" class="node">
<title>Node21</title>
<g id="a_node21"><a xlink:title=" ">
<polygon fill="white" stroke="#bfbfbf" points="942.5,-0.5 942.5,-19.5 1011.5,-19.5 1011.5,-0.5 942.5,-0.5"/>
<text text-anchor="middle" x="977" y="-7.5" font-family="Helvetica,sans-Serif" font-size="10.00">Eigen/Core</text>
</a>
</g>
</g>
<!-- Node20&#45;&gt;Node21 -->
<g id="edge23" class="edge">
<title>Node20&#45;&gt;Node21</title>
<path fill="none" stroke="midnightblue" d="M940.32,-112.5C943.8,-99.99 950.73,-75.97 958,-56 961.3,-46.92 965.43,-37.01 968.99,-28.81"/>
<polygon fill="midnightblue" stroke="midnightblue" points="972.25,-30.09 973.1,-19.52 965.85,-27.25 972.25,-30.09"/>
</g>
<!-- Node22 -->
<g id="node22" class="node">
<title>Node22</title>
<g id="a_node22"><a xlink:href="EigenIO_8hpp.html" target="_top" xlink:title=" ">
<polygon fill="white" stroke="black" points="966.5,-56.5 966.5,-75.5 1065.5,-75.5 1065.5,-56.5 966.5,-56.5"/>
<text text-anchor="middle" x="1016" y="-63.5" font-family="Helvetica,sans-Serif" font-size="10.00">utils/EigenIO.hpp</text>
</a>
</g>
</g>
<!-- Node20&#45;&gt;Node22 -->
<g id="edge27" class="edge">
<title>Node20&#45;&gt;Node22</title>
<path fill="none" stroke="midnightblue" d="M950.53,-112.32C962.59,-103.98 981.03,-91.21 995.27,-81.35"/>
<polygon fill="midnightblue" stroke="midnightblue" points="997.27,-84.22 1003.5,-75.65 993.28,-78.47 997.27,-84.22"/>
</g>
<!-- Node22&#45;&gt;Node21 -->
<g id="edge28" class="edge">
<title>Node22&#45;&gt;Node21</title>
<path fill="none" stroke="midnightblue" d="M1009.56,-56.08C1004.05,-48.46 995.97,-37.26 989.24,-27.94"/>
<polygon fill="midnightblue" stroke="midnightblue" points="992.01,-25.81 983.32,-19.75 986.34,-29.91 992.01,-25.81"/>
</g>
<!-- Node23&#45;&gt;Node4 -->
<g id="edge30" class="edge">
<title>Node23&#45;&gt;Node4</title>
<path fill="none" stroke="midnightblue" d="M240.99,-112.44C221.41,-103.64 190.69,-89.81 168.27,-79.72"/>
<polygon fill="midnightblue" stroke="midnightblue" points="169.48,-76.43 158.93,-75.52 166.61,-82.81 169.48,-76.43"/>
</g>
<!-- Node23&#45;&gt;Node7 -->
<g id="edge35" class="edge">
<title>Node23&#45;&gt;Node7</title>
<path fill="none" stroke="midnightblue" d="M230.05,-112.44C195.85,-102.67 140.05,-86.73 104.45,-76.56"/>
<polygon fill="midnightblue" stroke="midnightblue" points="105.11,-73.11 94.54,-73.73 103.19,-79.84 105.11,-73.11"/>
</g>
<!-- Node23&#45;&gt;Node18 -->
<g id="edge32" class="edge">
<title>Node23&#45;&gt;Node18</title>
<path fill="none" stroke="midnightblue" d="M308.16,-115.27C394.87,-104.96 576.38,-83.37 664.24,-72.92"/>
<polygon fill="midnightblue" stroke="midnightblue" points="664.71,-76.39 674.23,-71.73 663.89,-69.44 664.71,-76.39"/>
</g>
<!-- Node24 -->
<g id="node24" class="node">
<title>Node24</title>
<g id="a_node24"><a xlink:title=" ">
<polygon fill="white" stroke="#bfbfbf" points="294.5,-56.5 294.5,-75.5 341.5,-75.5 341.5,-56.5 294.5,-56.5"/>
<text text-anchor="middle" x="318" y="-63.5" font-family="Helvetica,sans-Serif" font-size="10.00">deque</text>
</a>
</g>
</g>
<!-- Node23&#45;&gt;Node24 -->
<g id="edge31" class="edge">
<title>Node23&#45;&gt;Node24</title>
<path fill="none" stroke="midnightblue" d="M269.32,-112.32C277.89,-104.34 290.81,-92.31 301.19,-82.65"/>
<polygon fill="midnightblue" stroke="midnightblue" points="303.58,-85.21 308.51,-75.83 298.81,-80.09 303.58,-85.21"/>
</g>
<!-- Node25 -->
<g id="node25" class="node">
<title>Node25</title>
<g id="a_node25"><a xlink:title=" ">
<polygon fill="white" stroke="#bfbfbf" points="188,-56.5 188,-75.5 226,-75.5 226,-56.5 188,-56.5"/>
<text text-anchor="middle" x="207" y="-63.5" font-family="Helvetica,sans-Serif" font-size="10.00">map</text>
</a>
</g>
</g>
<!-- Node23&#45;&gt;Node25 -->
<g id="edge33" class="edge">
<title>Node23&#45;&gt;Node25</title>
<path fill="none" stroke="midnightblue" d="M251.25,-112.08C243.53,-104.22 232.1,-92.57 222.78,-83.08"/>
<polygon fill="midnightblue" stroke="midnightblue" points="225.09,-80.44 215.59,-75.75 220.1,-85.34 225.09,-80.44"/>
</g>
<!-- Node26 -->
<g id="node26" class="node">
<title>Node26</title>
<g id="a_node26"><a xlink:title=" ">
<polygon fill="white" stroke="#bfbfbf" points="244,-56.5 244,-75.5 276,-75.5 276,-56.5 244,-56.5"/>
<text text-anchor="middle" x="260" y="-63.5" font-family="Helvetica,sans-Serif" font-size="10.00">set</text>
</a>
</g>
</g>
<!-- Node23&#45;&gt;Node26 -->
<g id="edge34" class="edge">
<title>Node23&#45;&gt;Node26</title>
<path fill="none" stroke="midnightblue" d="M260,-112.08C260,-105.01 260,-94.86 260,-85.99"/>
<polygon fill="midnightblue" stroke="midnightblue" points="263.5,-85.75 260,-75.75 256.5,-85.75 263.5,-85.75"/>
</g>
<!-- Node32&#45;&gt;Node17 -->
<g id="edge47" class="edge">
<title>Node32&#45;&gt;Node17</title>
<path fill="none" stroke="midnightblue" d="M678.13,-235.48C734.89,-224.51 833.21,-205.52 892.48,-194.07"/>
<polygon fill="midnightblue" stroke="midnightblue" points="893.2,-197.49 902.35,-192.16 891.87,-190.62 893.2,-197.49"/>
</g>
<!-- Node32&#45;&gt;Node29 -->
<g id="edge42" class="edge">
<title>Node32&#45;&gt;Node29</title>
<path fill="none" stroke="midnightblue" d="M559.4,-235.46C495.86,-227.77 401.94,-215.42 311.02,-199.09"/>
<polygon fill="midnightblue" stroke="midnightblue" points="311.56,-195.64 301.1,-197.29 310.31,-202.52 311.56,-195.64"/>
</g>
<!-- Node32&#45;&gt;Node30 -->
<g id="edge44" class="edge">
<title>Node32&#45;&gt;Node30</title>
<path fill="none" stroke="midnightblue" d="M596.75,-235.48C555.76,-226.1 489.11,-210.84 439.38,-199.46"/>
<polygon fill="midnightblue" stroke="midnightblue" points="439.89,-195.99 429.36,-197.17 438.33,-202.81 439.89,-195.99"/>
</g>
<!-- Node33 -->
<g id="node33" class="node">
<title>Node33</title>
<g id="a_node33"><a xlink:title=" ">
<polygon fill="white" stroke="#bfbfbf" points="447.5,-168.5 447.5,-198.5 558.5,-198.5 558.5,-168.5 447.5,-168.5"/>
<text text-anchor="start" x="455.5" y="-186.5" font-family="Helvetica,sans-Serif" font-size="10.00">boost/preprocessor</text>
<text text-anchor="middle" x="503" y="-175.5" font-family="Helvetica,sans-Serif" font-size="10.00">/seq/for_each_i.hpp</text>
</a>
</g>
</g>
<!-- Node32&#45;&gt;Node33 -->
<g id="edge43" class="edge">
<title>Node32&#45;&gt;Node33</title>
<path fill="none" stroke="midnightblue" d="M615.23,-235.48C596.49,-226.96 567.11,-213.62 543.11,-202.72"/>
<polygon fill="midnightblue" stroke="midnightblue" points="544.43,-199.47 533.87,-198.52 541.53,-205.85 544.43,-199.47"/>
</g>
<!-- Node34 -->
<g id="node34" class="node">
<title>Node34</title>
<g id="a_node34"><a xlink:title=" ">
<polygon fill="white" stroke="#bfbfbf" points="576.5,-168.5 576.5,-198.5 691.5,-198.5 691.5,-168.5 576.5,-168.5"/>
<text text-anchor="start" x="584.5" y="-186.5" font-family="Helvetica,sans-Serif" font-size="10.00">boost/preprocessor</text>
<text text-anchor="middle" x="634" y="-175.5" font-family="Helvetica,sans-Serif" font-size="10.00">/variadic/to_seq.hpp</text>
</a>
</g>
</g>
<!-- Node32&#45;&gt;Node34 -->
<g id="edge45" class="edge">
<title>Node32&#45;&gt;Node34</title>
<path fill="none" stroke="midnightblue" d="M634,-235.48C634,-228.47 634,-218.19 634,-208.7"/>
<polygon fill="midnightblue" stroke="midnightblue" points="637.5,-208.52 634,-198.52 630.5,-208.52 637.5,-208.52"/>
</g>
<!-- Node35 -->
<g id="node35" class="node">
<title>Node35</title>
<g id="a_node35"><a xlink:title=" ">
<polygon fill="white" stroke="#bfbfbf" points="710,-174 710,-193 846,-193 846,-174 710,-174"/>
<text text-anchor="middle" x="778" y="-181" font-family="Helvetica,sans-Serif" font-size="10.00">boost/vmd/is_empty.hpp</text>
</a>
</g>
</g>
<!-- Node32&#45;&gt;Node35 -->
<g id="edge46" class="edge">
<title>Node32&#45;&gt;Node35</title>
<path fill="none" stroke="midnightblue" d="M654.63,-235.48C679.12,-225.36 720.15,-208.4 748.11,-196.85"/>
<polygon fill="midnightblue" stroke="midnightblue" points="749.5,-200.06 757.41,-193.01 746.83,-193.59 749.5,-200.06"/>
</g>
<!-- Node36&#45;&gt;Node6 -->
<g id="edge52" class="edge">
<title>Node36&#45;&gt;Node6</title>
<path fill="none" stroke="midnightblue" d="M738.97,-408.92C697.94,-397.25 629.96,-376.75 623,-367 617.84,-359.77 620.6,-355.56 623,-347 630.85,-318.96 635.77,-310.92 657,-291 666.78,-281.82 751.8,-240.59 764,-235 803.55,-216.89 830.55,-234.97 855,-199 862.75,-187.61 863.41,-178.91 855,-168 846.46,-156.92 763.44,-138.82 716.3,-129.3"/>
<polygon fill="midnightblue" stroke="midnightblue" points="716.76,-125.82 706.26,-127.29 715.38,-132.69 716.76,-125.82"/>
</g>
<!-- Node36&#45;&gt;Node7 -->
<g id="edge53" class="edge">
<title>Node36&#45;&gt;Node7</title>
<path fill="none" stroke="midnightblue" d="M738.71,-408.99C604.26,-372.25 81.36,-227.92 60,-199 35.05,-165.21 51.3,-112.44 62.67,-84.97"/>
<polygon fill="midnightblue" stroke="midnightblue" points="65.89,-86.34 66.68,-75.78 59.47,-83.54 65.89,-86.34"/>
</g>
<!-- Node36&#45;&gt;Node10 -->
<g id="edge50" class="edge">
<title>Node36&#45;&gt;Node10</title>
<path fill="none" stroke="midnightblue" d="M791.89,-408.87C816.12,-399.18 856.2,-382.75 890,-367 907.66,-358.77 910.75,-353.82 929,-347 955.07,-337.26 1027.32,-320.59 1072.85,-310.5"/>
<polygon fill="midnightblue" stroke="midnightblue" points="1073.67,-313.91 1082.69,-308.34 1072.17,-307.07 1073.67,-313.91"/>
</g>
<!-- Node37 -->
<g id="node37" class="node">
<title>Node37</title>
<g id="a_node37"><a xlink:title=" ">
<polygon fill="white" stroke="#bfbfbf" points="759,-347.5 759,-366.5 807,-366.5 807,-347.5 759,-347.5"/>
<text text-anchor="middle" x="783" y="-354.5" font-family="Helvetica,sans-Serif" font-size="10.00">iosfwd</text>
</a>
</g>
</g>
<!-- Node36&#45;&gt;Node37 -->
<g id="edge49" class="edge">
<title>Node36&#45;&gt;Node37</title>
<path fill="none" stroke="midnightblue" d="M771.86,-408.98C773.72,-400.49 776.62,-387.2 779,-376.32"/>
<polygon fill="midnightblue" stroke="midnightblue" points="782.43,-377.03 781.14,-366.51 775.59,-375.53 782.43,-377.03"/>
</g>
<!-- Node38 -->
<g id="node38" class="node">
<title>Node38</title>
<g id="a_node38"><a xlink:title=" ">
<polygon fill="white" stroke="#bfbfbf" points="825,-347.5 825,-366.5 881,-366.5 881,-347.5 825,-347.5"/>
<text text-anchor="middle" x="853" y="-354.5" font-family="Helvetica,sans-Serif" font-size="10.00">optional</text>
</a>
</g>
</g>
<!-- Node36&#45;&gt;Node38 -->
<g id="edge51" class="edge">
<title>Node36&#45;&gt;Node38</title>
<path fill="none" stroke="midnightblue" d="M781.89,-408.98C795.2,-399.43 817,-383.81 832.96,-372.37"/>
<polygon fill="midnightblue" stroke="midnightblue" points="835.04,-375.18 841.13,-366.51 830.96,-369.49 835.04,-375.18"/>
</g>
<!-- Node39 -->
<g id="node39" class="node">
<title>Node39</title>
<g id="a_node39"><a xlink:href="Logger_8hpp.html" target="_top" xlink:title=" ">
<polygon fill="white" stroke="black" points="631.5,-347.5 631.5,-366.5 740.5,-366.5 740.5,-347.5 631.5,-347.5"/>
<text text-anchor="middle" x="686" y="-354.5" font-family="Helvetica,sans-Serif" font-size="10.00">logging/Logger.hpp</text>
</a>
</g>
</g>
<!-- Node36&#45;&gt;Node39 -->
<g id="edge54" class="edge">
<title>Node36&#45;&gt;Node39</title>
<path fill="none" stroke="midnightblue" d="M757.96,-408.98C744.49,-399.43 722.43,-383.81 706.28,-372.37"/>
<polygon fill="midnightblue" stroke="midnightblue" points="708.2,-369.43 698.01,-366.51 704.15,-375.15 708.2,-369.43"/>
</g>
<!-- Node42 -->
<g id="node42" class="node">
<title>Node42</title>
<g id="a_node42"><a xlink:href="types_8hpp.html" target="_top" xlink:title=" ">
<polygon fill="white" stroke="black" points="937.5,-347.5 937.5,-366.5 1040.5,-366.5 1040.5,-347.5 937.5,-347.5"/>
<text text-anchor="middle" x="989" y="-354.5" font-family="Helvetica,sans-Serif" font-size="10.00">precice/types.hpp</text>
</a>
</g>
</g>
<!-- Node36&#45;&gt;Node42 -->
<g id="edge62" class="edge">
<title>Node36&#45;&gt;Node42</title>
<path fill="none" stroke="midnightblue" d="M801.38,-408.98C839.92,-398.5 905.41,-380.71 947.92,-369.16"/>
<polygon fill="midnightblue" stroke="midnightblue" points="948.95,-372.51 957.68,-366.51 947.11,-365.75 948.95,-372.51"/>
</g>
<!-- Node43 -->
<g id="node43" class="node">
<title>Node43</title>
<g id="a_node43"><a xlink:title=" ">
<polygon fill="white" stroke="#bfbfbf" points="1059,-347.5 1059,-366.5 1103,-366.5 1103,-347.5 1059,-347.5"/>
<text text-anchor="middle" x="1081" y="-354.5" font-family="Helvetica,sans-Serif" font-size="10.00">mpi.h</text>
</a>
</g>
</g>
<!-- Node36&#45;&gt;Node43 -->
<g id="edge63" class="edge">
<title>Node36&#45;&gt;Node43</title>
<path fill="none" stroke="midnightblue" d="M802.1,-408.96C810.5,-406.87 819.56,-404.74 828,-403 922.75,-383.51 950.7,-388.61 1048.7,-367.06"/>
<polygon fill="midnightblue" stroke="midnightblue" points="1049.74,-370.41 1058.73,-364.82 1048.21,-363.58 1049.74,-370.41"/>
</g>
<!-- Node39&#45;&gt;Node10 -->
<g id="edge55" class="edge">
<title>Node39&#45;&gt;Node10</title>
<path fill="none" stroke="midnightblue" d="M740.8,-348.19C743.91,-347.78 746.99,-347.38 750,-347 891.55,-329.06 928.13,-333.64 1069,-311 1070.27,-310.8 1071.56,-310.58 1072.86,-310.35"/>
<polygon fill="midnightblue" stroke="midnightblue" points="1073.74,-313.75 1082.92,-308.47 1072.45,-306.87 1073.74,-313.75"/>
</g>
<!-- Node39&#45;&gt;Node16 -->
<g id="edge56" class="edge">
<title>Node39&#45;&gt;Node16</title>
<path fill="none" stroke="midnightblue" d="M706.54,-347.44C728.11,-338.44 762.98,-323.83 793,-311 850.47,-286.44 868.57,-287.44 922,-255 955.76,-234.5 962.82,-226.67 991,-199 1010.14,-180.21 1029.64,-156.21 1042,-140.26"/>
<polygon fill="midnightblue" stroke="midnightblue" points="1045.1,-141.97 1048.4,-131.9 1039.54,-137.71 1045.1,-141.97"/>
</g>
<!-- Node40 -->
<g id="node40" class="node">
<title>Node40</title>
<g id="a_node40"><a xlink:href="LogMacros_8hpp.html" target="_top" xlink:title=" ">
<polygon fill="white" stroke="black" points="666,-291.5 666,-310.5 756,-310.5 756,-291.5 666,-291.5"/>
<text text-anchor="middle" x="711" y="-298.5" font-family="Helvetica,sans-Serif" font-size="10.00">LogMacros.hpp</text>
</a>
</g>
</g>
<!-- Node39&#45;&gt;Node40 -->
<g id="edge57" class="edge">
<title>Node39&#45;&gt;Node40</title>
<path fill="none" stroke="midnightblue" d="M690.13,-347.08C693.51,-339.77 698.42,-329.18 702.62,-320.1"/>
<polygon fill="midnightblue" stroke="midnightblue" points="705.92,-321.3 706.95,-310.75 699.57,-318.36 705.92,-321.3"/>
</g>
<!-- Node40&#45;&gt;Node17 -->
<g id="edge58" class="edge">
<title>Node40&#45;&gt;Node17</title>
<path fill="none" stroke="midnightblue" d="M720.64,-291.35C736.17,-277.79 768.13,-251.38 799,-235 831.14,-217.94 870.26,-204.59 899.45,-195.9"/>
<polygon fill="midnightblue" stroke="midnightblue" points="900.71,-199.18 909.33,-193.03 898.75,-192.46 900.71,-199.18"/>
</g>
<!-- Node40&#45;&gt;Node32 -->
<g id="edge59" class="edge">
<title>Node40&#45;&gt;Node32</title>
<path fill="none" stroke="midnightblue" d="M698.63,-291.32C686.84,-283.06 668.87,-270.45 654.86,-260.63"/>
<polygon fill="midnightblue" stroke="midnightblue" points="656.54,-257.53 646.34,-254.65 652.52,-263.26 656.54,-257.53"/>
</g>
<!-- Node41 -->
<g id="node41" class="node">
<title>Node41</title>
<g id="a_node41"><a xlink:href="Tracer_8hpp.html" target="_top" xlink:title=" ">
<polygon fill="white" stroke="black" points="807.5,-235.5 807.5,-254.5 912.5,-254.5 912.5,-235.5 807.5,-235.5"/>
<text text-anchor="middle" x="860" y="-242.5" font-family="Helvetica,sans-Serif" font-size="10.00">logging/Tracer.hpp</text>
</a>
</g>
</g>
<!-- Node40&#45;&gt;Node41 -->
<g id="edge60" class="edge">
<title>Node40&#45;&gt;Node41</title>
<path fill="none" stroke="midnightblue" d="M734.61,-291.44C759.46,-282.44 798.77,-268.19 826.75,-258.05"/>
<polygon fill="midnightblue" stroke="midnightblue" points="828.29,-261.21 836.5,-254.52 825.91,-254.63 828.29,-261.21"/>
</g>
<!-- Node41&#45;&gt;Node39 -->
<g id="edge61" class="edge">
<title>Node41&#45;&gt;Node39</title>
<path fill="none" stroke="midnightblue" d="M848.21,-254.53C830.46,-267.27 795.67,-291.82 765,-311 747.27,-322.09 726.73,-333.76 711.04,-342.43"/>
<polygon fill="midnightblue" stroke="midnightblue" points="709.04,-339.53 701.96,-347.41 712.41,-345.67 709.04,-339.53"/>
</g>
<!-- Node44&#45;&gt;Node6 -->
<g id="edge65" class="edge">
<title>Node44&#45;&gt;Node6</title>
<path fill="none" stroke="midnightblue" d="M123.92,-291.37C127,-267.17 139.3,-198.48 182,-168 201.17,-154.32 543.33,-131.81 651.5,-125.01"/>
<polygon fill="midnightblue" stroke="midnightblue" points="652.04,-128.48 661.8,-124.36 651.6,-121.5 652.04,-128.48"/>
</g>
</g>
</svg>
        <g id="navigator" transform="translate(0 0)" fill="#404254">
                <rect fill="#f2f5e9" fill-opacity="0.5" stroke="#606060" stroke-width=".5" x="0" y="0" width="60" height="60"/>
                <use id="zoomplus" xlink:href="#zoomPlus" x="17" y="9" onmousedown="handleZoom(evt,'in')"/>
                <use id="zoomminus" xlink:href="#zoomMin" x="42" y="9" onmousedown="handleZoom(evt,'out')"/>
                <use id="reset" xlink:href="#resetDef" x="30" y="36" onmousedown="handleReset()"/>
                <g id="arrowUp" xlink:href="#dirArrow" transform="translate(30 24)" onmousedown="handlePan(0,-1)">
                  <use xlink:href="#rim" fill="#404040">
                        <set attributeName="fill" to="#808080" begin="arrowUp.mouseover" end="arrowUp.mouseout"/>
                  </use>
                  <path fill="none" stroke="white" stroke-width="1.5" d="M0,-3.0v7 M-2.5,-0.5L0,-3.0L2.5,-0.5"/>
                </g>
                <g id="arrowRight" xlink:href="#dirArrow" transform="rotate(90) translate(36 -43)" onmousedown="handlePan(1,0)">
                  <use xlink:href="#rim" fill="#404040">
                        <set attributeName="fill" to="#808080" begin="arrowRight.mouseover" end="arrowRight.mouseout"/>
                  </use>
                  <path fill="none" stroke="white" stroke-width="1.5" d="M0,-3.0v7 M-2.5,-0.5L0,-3.0L2.5,-0.5"/>
                </g>
                <g id="arrowDown" xlink:href="#dirArrow" transform="rotate(180) translate(-30 -48)" onmousedown="handlePan(0,1)">
                  <use xlink:href="#rim" fill="#404040">
                        <set attributeName="fill" to="#808080" begin="arrowDown.mouseover" end="arrowDown.mouseout"/>
                  </use>
                  <path fill="none" stroke="white" stroke-width="1.5" d="M0,-3.0v7 M-2.5,-0.5L0,-3.0L2.5,-0.5"/>
                </g>
                <g id="arrowLeft" xlink:href="#dirArrow" transform="rotate(270) translate(-36 17)" onmousedown="handlePan(-1,0)">
                  <use xlink:href="#rim" fill="#404040">
                        <set attributeName="fill" to="#808080" begin="arrowLeft.mouseover" end="arrowLeft.mouseout"/>
                  </use>
                  <path fill="none" stroke="white" stroke-width="1.5" d="M0,-3.0v7 M-2.5,-0.5L0,-3.0L2.5,-0.5"/>
                </g>
        </g>
        <svg viewBox="0 0 15 15" width="100%" height="30px" preserveAspectRatio="xMaxYMin meet">
         <g id="arrow_out" transform="scale(0.3 0.3)">
          <a xlink:href="String_8cpp__incl_org.svg" target="_base">
           <rect id="button" ry="5" rx="5" y="6" x="6" height="38" width="38"
                fill="#f2f5e9" fill-opacity="0.5" stroke="#606060" stroke-width="1.0"/>
           <path id="arrow"
             d="M 11.500037,31.436501 C 11.940474,20.09759 22.043105,11.32322 32.158766,21.979434 L 37.068811,17.246167 C 37.068811,17.246167 37.088388,32 37.088388,32 L 22.160133,31.978069 C 22.160133,31.978069 26.997745,27.140456 26.997745,27.140456 C 18.528582,18.264221 13.291696,25.230495 11.500037,31.436501 z"
             style="fill:#404040;"/>
          </a>
         </g>
        </svg>
</svg>
