<?xml version="1.0" encoding="UTF-8" standalone="no"?>
<!DOCTYPE svg PUBLIC "-//W3C//DTD SVG 1.1//EN"
 "http://www.w3.org/Graphics/SVG/1.1/DTD/svg11.dtd">
<!-- Generated by graphviz version 2.43.0 (0)
 -->
<!-- Title: src/testing/TestContext.hpp Pages: 1 -->
<!--zoomable 487 -->
<svg id="main" version="1.1" xmlns="http://www.w3.org/2000/svg" xmlns:xlink="http://www.w3.org/1999/xlink" xml:space="preserve" onload="init(evt)">
<style type="text/css"><![CDATA[
.edge:hover path { stroke: red; }
.edge:hover polygon { stroke: red; fill: red; }
]]></style>
<script type="text/javascript"><![CDATA[
var edges = document.getElementsByTagName('g');
if (edges && edges.length) {
  for (var i=0;i<edges.length;i++) {
    if (edges[i].id.substr(0,4)=='edge') {
      edges[i].setAttribute('class','edge');
    }
  }
}
]]></script>
        <defs>
                <circle id="rim" cx="0" cy="0" r="7"/>
                <circle id="rim2" cx="0" cy="0" r="3.5"/>
                <g id="zoomPlus">
                        <use xlink:href="#rim" fill="#404040">
                                <set attributeName="fill" to="#808080" begin="zoomplus.mouseover" end="zoomplus.mouseout"/>
                        </use>
                        <path d="M-4,0h8M0,-4v8" fill="none" stroke="white" stroke-width="1.5" pointer-events="none"/>
                </g>
                <g id="zoomMin">
                        <use xlink:href="#rim" fill="#404040">
                                <set attributeName="fill" to="#808080" begin="zoomminus.mouseover" end="zoomminus.mouseout"/>
                        </use>
                        <path d="M-4,0h8" fill="none" stroke="white" stroke-width="1.5" pointer-events="none"/>
                </g>
                <g id="dirArrow">
                        <path fill="none" stroke="white" stroke-width="1.5" d="M0,-3.0v7 M-2.5,-0.5L0,-3.0L2.5,-0.5"/>
                </g>
               <g id="resetDef">
                       <use xlink:href="#rim2" fill="#404040">
                               <set attributeName="fill" to="#808080" begin="reset.mouseover" end="reset.mouseout"/>
                       </use>
               </g>
        </defs>

<script type="text/javascript">
var viewWidth = 1306;
var viewHeight = 487;
var sectionId = 'dynsection-0';
</script>
<script xlink:href="svgpan.js"/>
<svg id="graph" class="graph">
<g id="viewport">
<title>src/testing/TestContext.hpp</title>
<polygon fill="white" stroke="transparent" points="-4,4 -4,-483 1301.5,-483 1301.5,4 -4,4"/>
<!-- Node1 -->
<g id="node1" class="node">
<title>Node1</title>
<g id="a_node1"><a xlink:title=" ">
<polygon fill="#bfbfbf" stroke="black" points="216,-459.5 216,-478.5 365,-478.5 365,-459.5 216,-459.5"/>
<text text-anchor="middle" x="290.5" y="-466.5" font-family="Helvetica,sans-Serif" font-size="10.00">src/testing/TestContext.hpp</text>
</a>
</g>
</g>
<!-- Node2 -->
<g id="node2" class="node">
<title>Node2</title>
<g id="a_node2"><a xlink:title=" ">
<polygon fill="white" stroke="#bfbfbf" points="0,-403.5 0,-422.5 65,-422.5 65,-403.5 0,-403.5"/>
<text text-anchor="middle" x="32.5" y="-410.5" font-family="Helvetica,sans-Serif" font-size="10.00">stdexcept</text>
</a>
</g>
</g>
<!-- Node1&#45;&gt;Node2 -->
<g id="edge1" class="edge">
<title>Node1&#45;&gt;Node2</title>
<path fill="none" stroke="midnightblue" d="M249.62,-459.44C201.86,-449.45 123.25,-432.99 74.86,-422.87"/>
<polygon fill="midnightblue" stroke="midnightblue" points="75.53,-419.43 65.02,-420.81 74.09,-426.28 75.53,-419.43"/>
</g>
<!-- Node3 -->
<g id="node3" class="node">
<title>Node3</title>
<g id="a_node3"><a xlink:title=" ">
<polygon fill="white" stroke="#bfbfbf" points="398.5,-112.5 398.5,-131.5 442.5,-131.5 442.5,-112.5 398.5,-112.5"/>
<text text-anchor="middle" x="420.5" y="-119.5" font-family="Helvetica,sans-Serif" font-size="10.00">string</text>
</a>
</g>
</g>
<!-- Node1&#45;&gt;Node3 -->
<g id="edge2" class="edge">
<title>Node1&#45;&gt;Node3</title>
<path fill="none" stroke="midnightblue" d="M220.99,-459.46C195.86,-453.12 169.11,-442.11 150.5,-423 129.5,-401.44 131.5,-388.1 131.5,-358 131.5,-358 131.5,-358 131.5,-244 131.5,-133.83 312.4,-122.25 387.95,-122.21"/>
<polygon fill="midnightblue" stroke="midnightblue" points="388.28,-125.72 398.3,-122.28 388.33,-118.72 388.28,-125.72"/>
</g>
<!-- Node4 -->
<g id="node4" class="node">
<title>Node4</title>
<g id="a_node4"><a xlink:title=" ">
<polygon fill="white" stroke="#bfbfbf" points="462,-403.5 462,-422.5 531,-422.5 531,-403.5 462,-403.5"/>
<text text-anchor="middle" x="496.5" y="-410.5" font-family="Helvetica,sans-Serif" font-size="10.00">type_traits</text>
</a>
</g>
</g>
<!-- Node1&#45;&gt;Node4 -->
<g id="edge3" class="edge">
<title>Node1&#45;&gt;Node4</title>
<path fill="none" stroke="midnightblue" d="M323.14,-459.44C358.55,-450.16 415.21,-435.31 454.05,-425.13"/>
<polygon fill="midnightblue" stroke="midnightblue" points="455.23,-428.44 464.01,-422.52 453.45,-421.67 455.23,-428.44"/>
</g>
<!-- Node5 -->
<g id="node5" class="node">
<title>Node5</title>
<g id="a_node5"><a xlink:title=" ">
<polygon fill="white" stroke="#bfbfbf" points="549,-403.5 549,-422.5 594,-422.5 594,-403.5 549,-403.5"/>
<text text-anchor="middle" x="571.5" y="-410.5" font-family="Helvetica,sans-Serif" font-size="10.00">utility</text>
</a>
</g>
</g>
<!-- Node1&#45;&gt;Node5 -->
<g id="edge4" class="edge">
<title>Node1&#45;&gt;Node5</title>
<path fill="none" stroke="midnightblue" d="M347.44,-459.49C396.05,-451.83 467.99,-439.57 538.89,-423.2"/>
<polygon fill="midnightblue" stroke="midnightblue" points="539.94,-426.55 548.89,-420.86 538.35,-419.73 539.94,-426.55"/>
</g>
<!-- Node6 -->
<g id="node6" class="node">
<title>Node6</title>
<g id="a_node6"><a xlink:title=" ">
<polygon fill="white" stroke="#bfbfbf" points="347,-56.5 347,-75.5 394,-75.5 394,-56.5 347,-56.5"/>
<text text-anchor="middle" x="370.5" y="-63.5" font-family="Helvetica,sans-Serif" font-size="10.00">vector</text>
</a>
</g>
</g>
<!-- Node1&#45;&gt;Node6 -->
<g id="edge5" class="edge">
<title>Node1&#45;&gt;Node6</title>
<path fill="none" stroke="midnightblue" d="M227.36,-459.47C169.73,-447.72 93.5,-420.38 93.5,-358 93.5,-358 93.5,-358 93.5,-182.5 93.5,-78.21 262.83,-66.4 336.71,-66.2"/>
<polygon fill="midnightblue" stroke="midnightblue" points="336.87,-69.7 346.88,-66.25 336.9,-62.7 336.87,-69.7"/>
</g>
<!-- Node7 -->
<g id="node7" class="node">
<title>Node7</title>
<g id="a_node7"><a xlink:href="m2n_2SharedPointer_8hpp.html" target="_top" xlink:title=" ">
<polygon fill="white" stroke="black" points="159.5,-403.5 159.5,-422.5 289.5,-422.5 289.5,-403.5 159.5,-403.5"/>
<text text-anchor="middle" x="224.5" y="-410.5" font-family="Helvetica,sans-Serif" font-size="10.00">m2n/SharedPointer.hpp</text>
</a>
</g>
</g>
<!-- Node1&#45;&gt;Node7 -->
<g id="edge6" class="edge">
<title>Node1&#45;&gt;Node7</title>
<path fill="none" stroke="midnightblue" d="M279.9,-459.32C270.04,-451.26 255.15,-439.08 243.28,-429.37"/>
<polygon fill="midnightblue" stroke="midnightblue" points="245.25,-426.46 235.3,-422.83 240.82,-431.88 245.25,-426.46"/>
</g>
<!-- Node9 -->
<g id="node9" class="node">
<title>Node9</title>
<g id="a_node9"><a xlink:href="types_8hpp.html" target="_top" xlink:title=" ">
<polygon fill="white" stroke="black" points="642,-347.5 642,-366.5 745,-366.5 745,-347.5 642,-347.5"/>
<text text-anchor="middle" x="693.5" y="-354.5" font-family="Helvetica,sans-Serif" font-size="10.00">precice/types.hpp</text>
</a>
</g>
</g>
<!-- Node1&#45;&gt;Node9 -->
<g id="edge8" class="edge">
<title>Node1&#45;&gt;Node9</title>
<path fill="none" stroke="midnightblue" d="M317,-459.46C342.37,-451.04 381.54,-437.36 414.5,-423 432.36,-415.22 435.07,-409.3 453.5,-403 485.73,-391.97 572.07,-377.06 631.89,-367.48"/>
<polygon fill="midnightblue" stroke="midnightblue" points="632.66,-370.9 641.99,-365.87 631.56,-363.99 632.66,-370.9"/>
</g>
<!-- Node10 -->
<g id="node10" class="node">
<title>Node10</title>
<g id="a_node10"><a xlink:href="Parallel_8hpp.html" target="_top" xlink:title=" ">
<polygon fill="white" stroke="black" points="307.5,-403.5 307.5,-422.5 405.5,-422.5 405.5,-403.5 307.5,-403.5"/>
<text text-anchor="middle" x="356.5" y="-410.5" font-family="Helvetica,sans-Serif" font-size="10.00">utils/Parallel.hpp</text>
</a>
</g>
</g>
<!-- Node1&#45;&gt;Node10 -->
<g id="edge9" class="edge">
<title>Node1&#45;&gt;Node10</title>
<path fill="none" stroke="midnightblue" d="M301.1,-459.32C310.96,-451.26 325.85,-439.08 337.72,-429.37"/>
<polygon fill="midnightblue" stroke="midnightblue" points="340.18,-431.88 345.7,-422.83 335.75,-426.46 340.18,-431.88"/>
</g>
<!-- Node8 -->
<g id="node8" class="node">
<title>Node8</title>
<g id="a_node8"><a xlink:title=" ">
<polygon fill="white" stroke="#bfbfbf" points="295.5,-291.5 295.5,-310.5 353.5,-310.5 353.5,-291.5 295.5,-291.5"/>
<text text-anchor="middle" x="324.5" y="-298.5" font-family="Helvetica,sans-Serif" font-size="10.00">memory</text>
</a>
</g>
</g>
<!-- Node7&#45;&gt;Node8 -->
<g id="edge7" class="edge">
<title>Node7&#45;&gt;Node8</title>
<path fill="none" stroke="midnightblue" d="M213.27,-403.19C198.22,-390.31 174.9,-365.82 188.5,-347 210.35,-316.75 253.31,-306.5 285.12,-303.2"/>
<polygon fill="midnightblue" stroke="midnightblue" points="285.77,-306.66 295.44,-302.33 285.18,-299.68 285.77,-306.66"/>
</g>
<!-- Node10&#45;&gt;Node3 -->
<g id="edge13" class="edge">
<title>Node10&#45;&gt;Node3</title>
<path fill="none" stroke="midnightblue" d="M365.8,-403.28C383.32,-385.85 419.5,-344.69 419.5,-302 419.5,-302 419.5,-302 419.5,-244 419.5,-207.71 419.96,-165.31 420.25,-141.56"/>
<polygon fill="midnightblue" stroke="midnightblue" points="423.75,-141.55 420.38,-131.51 416.75,-141.46 423.75,-141.55"/>
</g>
<!-- Node10&#45;&gt;Node6 -->
<g id="edge14" class="edge">
<title>Node10&#45;&gt;Node6</title>
<path fill="none" stroke="midnightblue" d="M357.09,-403.36C358.27,-385.91 360.92,-345.22 362.5,-311 366.36,-227.2 369.03,-127.12 370.05,-86.03"/>
<polygon fill="midnightblue" stroke="midnightblue" points="373.55,-85.95 370.29,-75.87 366.55,-85.78 373.55,-85.95"/>
</g>
<!-- Node10&#45;&gt;Node8 -->
<g id="edge11" class="edge">
<title>Node10&#45;&gt;Node8</title>
<path fill="none" stroke="midnightblue" d="M353.99,-403.37C348.8,-385.54 336.8,-344.3 329.82,-320.27"/>
<polygon fill="midnightblue" stroke="midnightblue" points="333.15,-319.22 327,-310.59 326.43,-321.17 333.15,-319.22"/>
</g>
<!-- Node10&#45;&gt;Node9 -->
<g id="edge47" class="edge">
<title>Node10&#45;&gt;Node9</title>
<path fill="none" stroke="midnightblue" d="M405.5,-404.15C465.37,-394.55 566.71,-378.32 631.82,-367.88"/>
<polygon fill="midnightblue" stroke="midnightblue" points="632.63,-371.3 641.95,-366.26 631.52,-364.39 632.63,-371.3"/>
</g>
<!-- Node11 -->
<g id="node11" class="node">
<title>Node11</title>
<g id="a_node11"><a xlink:title=" ">
<polygon fill="white" stroke="#bfbfbf" points="575.5,-347.5 575.5,-366.5 623.5,-366.5 623.5,-347.5 575.5,-347.5"/>
<text text-anchor="middle" x="599.5" y="-354.5" font-family="Helvetica,sans-Serif" font-size="10.00">iosfwd</text>
</a>
</g>
</g>
<!-- Node10&#45;&gt;Node11 -->
<g id="edge10" class="edge">
<title>Node10&#45;&gt;Node11</title>
<path fill="none" stroke="midnightblue" d="M399.69,-403.47C440.1,-395.33 502.35,-382.37 565.29,-367.19"/>
<polygon fill="midnightblue" stroke="midnightblue" points="566.5,-370.5 575.39,-364.74 564.85,-363.7 566.5,-370.5"/>
</g>
<!-- Node12 -->
<g id="node12" class="node">
<title>Node12</title>
<g id="a_node12"><a xlink:title=" ">
<polygon fill="white" stroke="#bfbfbf" points="197.5,-347.5 197.5,-366.5 253.5,-366.5 253.5,-347.5 197.5,-347.5"/>
<text text-anchor="middle" x="225.5" y="-354.5" font-family="Helvetica,sans-Serif" font-size="10.00">optional</text>
</a>
</g>
</g>
<!-- Node10&#45;&gt;Node12 -->
<g id="edge12" class="edge">
<title>Node10&#45;&gt;Node12</title>
<path fill="none" stroke="midnightblue" d="M335.74,-403.44C314.18,-394.56 280.24,-380.56 255.71,-370.45"/>
<polygon fill="midnightblue" stroke="midnightblue" points="256.74,-367.09 246.16,-366.52 254.07,-373.56 256.74,-367.09"/>
</g>
<!-- Node13 -->
<g id="node13" class="node">
<title>Node13</title>
<g id="a_node13"><a xlink:href="Logger_8hpp.html" target="_top" xlink:title=" ">
<polygon fill="white" stroke="black" points="448,-347.5 448,-366.5 557,-366.5 557,-347.5 448,-347.5"/>
<text text-anchor="middle" x="502.5" y="-354.5" font-family="Helvetica,sans-Serif" font-size="10.00">logging/Logger.hpp</text>
</a>
</g>
</g>
<!-- Node10&#45;&gt;Node13 -->
<g id="edge15" class="edge">
<title>Node10&#45;&gt;Node13</title>
<path fill="none" stroke="midnightblue" d="M379.63,-403.44C403.98,-394.44 442.51,-380.19 469.92,-370.05"/>
<polygon fill="midnightblue" stroke="midnightblue" points="471.31,-373.27 479.47,-366.52 468.88,-366.7 471.31,-373.27"/>
</g>
<!-- Node36 -->
<g id="node36" class="node">
<title>Node36</title>
<g id="a_node36"><a xlink:title=" ">
<polygon fill="white" stroke="#bfbfbf" points="271.5,-347.5 271.5,-366.5 315.5,-366.5 315.5,-347.5 271.5,-347.5"/>
<text text-anchor="middle" x="293.5" y="-354.5" font-family="Helvetica,sans-Serif" font-size="10.00">mpi.h</text>
</a>
</g>
</g>
<!-- Node10&#45;&gt;Node36 -->
<g id="edge48" class="edge">
<title>Node10&#45;&gt;Node36</title>
<path fill="none" stroke="midnightblue" d="M346.38,-403.32C336.97,-395.26 322.76,-383.08 311.43,-373.37"/>
<polygon fill="midnightblue" stroke="midnightblue" points="313.68,-370.68 303.81,-366.83 309.12,-376 313.68,-370.68"/>
</g>
<!-- Node13&#45;&gt;Node8 -->
<g id="edge16" class="edge">
<title>Node13&#45;&gt;Node8</title>
<path fill="none" stroke="midnightblue" d="M474.3,-347.44C444.09,-338.28 395.99,-323.69 362.47,-313.52"/>
<polygon fill="midnightblue" stroke="midnightblue" points="363.16,-310.07 352.57,-310.52 361.13,-316.77 363.16,-310.07"/>
</g>
<!-- Node14 -->
<g id="node14" class="node">
<title>Node14</title>
<g id="a_node14"><a xlink:title=" ">
<polygon fill="white" stroke="#bfbfbf" points="461,-112.5 461,-131.5 534,-131.5 534,-112.5 461,-112.5"/>
<text text-anchor="middle" x="497.5" y="-119.5" font-family="Helvetica,sans-Serif" font-size="10.00">string_view</text>
</a>
</g>
</g>
<!-- Node13&#45;&gt;Node14 -->
<g id="edge17" class="edge">
<title>Node13&#45;&gt;Node14</title>
<path fill="none" stroke="midnightblue" d="M502.32,-347.43C501.59,-313.75 498.94,-189.99 497.91,-142.1"/>
<polygon fill="midnightblue" stroke="midnightblue" points="501.4,-141.82 497.69,-131.9 494.41,-141.97 501.4,-141.82"/>
</g>
<!-- Node15 -->
<g id="node15" class="node">
<title>Node15</title>
<g id="a_node15"><a xlink:href="LogMacros_8hpp.html" target="_top" xlink:title=" ">
<polygon fill="white" stroke="black" points="596.5,-291.5 596.5,-310.5 686.5,-310.5 686.5,-291.5 596.5,-291.5"/>
<text text-anchor="middle" x="641.5" y="-298.5" font-family="Helvetica,sans-Serif" font-size="10.00">LogMacros.hpp</text>
</a>
</g>
</g>
<!-- Node13&#45;&gt;Node15 -->
<g id="edge18" class="edge">
<title>Node13&#45;&gt;Node15</title>
<path fill="none" stroke="midnightblue" d="M524.52,-347.44C547.6,-338.48 584.06,-324.31 610.14,-314.18"/>
<polygon fill="midnightblue" stroke="midnightblue" points="611.52,-317.4 619.58,-310.52 608.99,-310.88 611.52,-317.4"/>
</g>
<!-- Node16 -->
<g id="node16" class="node">
<title>Node16</title>
<g id="a_node16"><a xlink:href="fmt_8hpp.html" target="_top" xlink:title=" ">
<polygon fill="white" stroke="black" points="545,-174 545,-193 624,-193 624,-174 545,-174"/>
<text text-anchor="middle" x="584.5" y="-181" font-family="Helvetica,sans-Serif" font-size="10.00">utils/fmt.hpp</text>
</a>
</g>
</g>
<!-- Node15&#45;&gt;Node16 -->
<g id="edge19" class="edge">
<title>Node15&#45;&gt;Node16</title>
<path fill="none" stroke="midnightblue" d="M634.64,-291.45C627.85,-282.68 617.49,-268.48 610.5,-255 601.7,-238.02 594.45,-217.36 589.86,-202.81"/>
<polygon fill="midnightblue" stroke="midnightblue" points="593.15,-201.59 586.89,-193.04 586.45,-203.62 593.15,-201.59"/>
</g>
<!-- Node29 -->
<g id="node29" class="node">
<title>Node29</title>
<g id="a_node29"><a xlink:href="ArgumentFormatter_8hpp.html" target="_top" xlink:title=" ">
<polygon fill="white" stroke="black" points="619,-235.5 619,-254.5 776,-254.5 776,-235.5 619,-235.5"/>
<text text-anchor="middle" x="697.5" y="-242.5" font-family="Helvetica,sans-Serif" font-size="10.00">utils/ArgumentFormatter.hpp</text>
</a>
</g>
</g>
<!-- Node15&#45;&gt;Node29 -->
<g id="edge38" class="edge">
<title>Node15&#45;&gt;Node29</title>
<path fill="none" stroke="midnightblue" d="M650.5,-291.32C658.69,-283.42 671.01,-271.55 680.97,-261.94"/>
<polygon fill="midnightblue" stroke="midnightblue" points="683.57,-264.29 688.34,-254.83 678.71,-259.26 683.57,-264.29"/>
</g>
<!-- Node35 -->
<g id="node35" class="node">
<title>Node35</title>
<g id="a_node35"><a xlink:href="Tracer_8hpp.html" target="_top" xlink:title=" ">
<polygon fill="white" stroke="black" points="794,-235.5 794,-254.5 899,-254.5 899,-235.5 794,-235.5"/>
<text text-anchor="middle" x="846.5" y="-242.5" font-family="Helvetica,sans-Serif" font-size="10.00">logging/Tracer.hpp</text>
</a>
</g>
</g>
<!-- Node15&#45;&gt;Node35 -->
<g id="edge45" class="edge">
<title>Node15&#45;&gt;Node35</title>
<path fill="none" stroke="midnightblue" d="M673.98,-291.44C709.22,-282.16 765.6,-267.31 804.26,-257.13"/>
<polygon fill="midnightblue" stroke="midnightblue" points="805.39,-260.45 814.17,-254.52 803.61,-253.68 805.39,-260.45"/>
</g>
<!-- Node16&#45;&gt;Node3 -->
<g id="edge20" class="edge">
<title>Node16&#45;&gt;Node3</title>
<path fill="none" stroke="midnightblue" d="M561,-173.98C532.47,-163.62 484.22,-146.12 452.36,-134.56"/>
<polygon fill="midnightblue" stroke="midnightblue" points="453.23,-131.15 442.64,-131.03 450.85,-137.73 453.23,-131.15"/>
</g>
<!-- Node16&#45;&gt;Node14 -->
<g id="edge21" class="edge">
<title>Node16&#45;&gt;Node14</title>
<path fill="none" stroke="midnightblue" d="M572.04,-173.98C558.08,-164.43 535.24,-148.81 518.51,-137.37"/>
<polygon fill="midnightblue" stroke="midnightblue" points="520.17,-134.27 509.94,-131.51 516.22,-140.04 520.17,-134.27"/>
</g>
<!-- Node17 -->
<g id="node17" class="node">
<title>Node17</title>
<g id="a_node17"><a xlink:title=" ">
<polygon fill="white" stroke="#bfbfbf" points="676,-56.5 676,-75.5 755,-75.5 755,-56.5 676,-56.5"/>
<text text-anchor="middle" x="715.5" y="-63.5" font-family="Helvetica,sans-Serif" font-size="10.00">fmt/format.h</text>
</a>
</g>
</g>
<!-- Node16&#45;&gt;Node17 -->
<g id="edge22" class="edge">
<title>Node16&#45;&gt;Node17</title>
<path fill="none" stroke="midnightblue" d="M598.95,-173.93C614.23,-164.56 638.68,-148.63 657.5,-132 674.42,-117.05 691.33,-97.43 702.49,-83.67"/>
<polygon fill="midnightblue" stroke="midnightblue" points="705.44,-85.59 708.93,-75.58 699.96,-81.22 705.44,-85.59"/>
</g>
<!-- Node18 -->
<g id="node18" class="node">
<title>Node18</title>
<g id="a_node18"><a xlink:title=" ">
<polygon fill="white" stroke="#bfbfbf" points="704.5,-112.5 704.5,-131.5 790.5,-131.5 790.5,-112.5 704.5,-112.5"/>
<text text-anchor="middle" x="747.5" y="-119.5" font-family="Helvetica,sans-Serif" font-size="10.00">fmt/ostream.h</text>
</a>
</g>
</g>
<!-- Node16&#45;&gt;Node18 -->
<g id="edge23" class="edge">
<title>Node16&#45;&gt;Node18</title>
<path fill="none" stroke="midnightblue" d="M607.85,-173.98C635.81,-163.77 682.83,-146.61 714.49,-135.05"/>
<polygon fill="midnightblue" stroke="midnightblue" points="716,-138.23 724.19,-131.51 713.6,-131.65 716,-138.23"/>
</g>
<!-- Node19 -->
<g id="node19" class="node">
<title>Node19</title>
<g id="a_node19"><a xlink:href="fmtEigen_8hpp.html" target="_top" xlink:title=" ">
<polygon fill="white" stroke="black" points="808.5,-112.5 808.5,-131.5 914.5,-131.5 914.5,-112.5 808.5,-112.5"/>
<text text-anchor="middle" x="861.5" y="-119.5" font-family="Helvetica,sans-Serif" font-size="10.00">utils/fmtEigen.hpp</text>
</a>
</g>
</g>
<!-- Node16&#45;&gt;Node19 -->
<g id="edge24" class="edge">
<title>Node16&#45;&gt;Node19</title>
<path fill="none" stroke="midnightblue" d="M611.59,-173.99C618.69,-171.9 626.35,-169.76 633.5,-168 689.96,-154.11 755.1,-141.6 801.26,-133.31"/>
<polygon fill="midnightblue" stroke="midnightblue" points="802.16,-136.71 811.39,-131.51 800.93,-129.82 802.16,-136.71"/>
</g>
<!-- Node24 -->
<g id="node24" class="node">
<title>Node24</title>
<g id="a_node24"><a xlink:href="fmtSTL_8hpp.html" target="_top" xlink:title=" ">
<polygon fill="white" stroke="black" points="552.5,-112.5 552.5,-131.5 648.5,-131.5 648.5,-112.5 552.5,-112.5"/>
<text text-anchor="middle" x="600.5" y="-119.5" font-family="Helvetica,sans-Serif" font-size="10.00">utils/fmtSTL.hpp</text>
</a>
</g>
</g>
<!-- Node16&#45;&gt;Node24 -->
<g id="edge31" class="edge">
<title>Node16&#45;&gt;Node24</title>
<path fill="none" stroke="midnightblue" d="M586.79,-173.98C589.07,-165.49 592.65,-152.2 595.57,-141.32"/>
<polygon fill="midnightblue" stroke="midnightblue" points="598.99,-142.07 598.21,-131.51 592.24,-140.26 598.99,-142.07"/>
</g>
<!-- Node19&#45;&gt;Node17 -->
<g id="edge27" class="edge">
<title>Node19&#45;&gt;Node17</title>
<path fill="none" stroke="midnightblue" d="M838.37,-112.44C814.02,-103.44 775.49,-89.19 748.08,-79.05"/>
<polygon fill="midnightblue" stroke="midnightblue" points="749.12,-75.7 738.53,-75.52 746.69,-82.27 749.12,-75.7"/>
</g>
<!-- Node20 -->
<g id="node20" class="node">
<title>Node20</title>
<g id="a_node20"><a xlink:title=" ">
<polygon fill="white" stroke="#bfbfbf" points="788,-0.5 788,-19.5 857,-19.5 857,-0.5 788,-0.5"/>
<text text-anchor="middle" x="822.5" y="-7.5" font-family="Helvetica,sans-Serif" font-size="10.00">Eigen/Core</text>
</a>
</g>
</g>
<!-- Node19&#45;&gt;Node20 -->
<g id="edge25" class="edge">
<title>Node19&#45;&gt;Node20</title>
<path fill="none" stroke="midnightblue" d="M843.11,-112.47C829.4,-105 811.69,-92.71 803.5,-76 796.01,-60.71 803.08,-41.91 810.63,-28.47"/>
<polygon fill="midnightblue" stroke="midnightblue" points="813.73,-30.11 816.01,-19.76 807.78,-26.43 813.73,-30.11"/>
</g>
<!-- Node21 -->
<g id="node21" class="node">
<title>Node21</title>
<g id="a_node21"><a xlink:title=" ">
<polygon fill="white" stroke="#bfbfbf" points="929.5,-56.5 929.5,-75.5 993.5,-75.5 993.5,-56.5 929.5,-56.5"/>
<text text-anchor="middle" x="961.5" y="-63.5" font-family="Helvetica,sans-Serif" font-size="10.00">algorithm</text>
</a>
</g>
</g>
<!-- Node19&#45;&gt;Node21 -->
<g id="edge26" class="edge">
<title>Node19&#45;&gt;Node21</title>
<path fill="none" stroke="midnightblue" d="M877.57,-112.32C893.46,-103.74 918.01,-90.49 936.46,-80.52"/>
<polygon fill="midnightblue" stroke="midnightblue" points="938.34,-83.49 945.47,-75.65 935.01,-77.33 938.34,-83.49"/>
</g>
<!-- Node22 -->
<g id="node22" class="node">
<title>Node22</title>
<g id="a_node22"><a xlink:title=" ">
<polygon fill="white" stroke="#bfbfbf" points="1011.5,-56.5 1011.5,-75.5 1067.5,-75.5 1067.5,-56.5 1011.5,-56.5"/>
<text text-anchor="middle" x="1039.5" y="-63.5" font-family="Helvetica,sans-Serif" font-size="10.00">sstream</text>
</a>
</g>
</g>
<!-- Node19&#45;&gt;Node22 -->
<g id="edge28" class="edge">
<title>Node19&#45;&gt;Node22</title>
<path fill="none" stroke="midnightblue" d="M889.7,-112.44C919.91,-103.28 968.01,-88.69 1001.53,-78.52"/>
<polygon fill="midnightblue" stroke="midnightblue" points="1002.87,-81.77 1011.43,-75.52 1000.84,-75.07 1002.87,-81.77"/>
</g>
<!-- Node23 -->
<g id="node23" class="node">
<title>Node23</title>
<g id="a_node23"><a xlink:href="EigenIO_8hpp.html" target="_top" xlink:title=" ">
<polygon fill="white" stroke="black" points="812,-56.5 812,-75.5 911,-75.5 911,-56.5 812,-56.5"/>
<text text-anchor="middle" x="861.5" y="-63.5" font-family="Helvetica,sans-Serif" font-size="10.00">utils/EigenIO.hpp</text>
</a>
</g>
</g>
<!-- Node19&#45;&gt;Node23 -->
<g id="edge29" class="edge">
<title>Node19&#45;&gt;Node23</title>
<path fill="none" stroke="midnightblue" d="M861.5,-112.08C861.5,-105.01 861.5,-94.86 861.5,-85.99"/>
<polygon fill="midnightblue" stroke="midnightblue" points="865,-85.75 861.5,-75.75 858,-85.75 865,-85.75"/>
</g>
<!-- Node23&#45;&gt;Node20 -->
<g id="edge30" class="edge">
<title>Node23&#45;&gt;Node20</title>
<path fill="none" stroke="midnightblue" d="M855.06,-56.08C849.55,-48.46 841.47,-37.26 834.74,-27.94"/>
<polygon fill="midnightblue" stroke="midnightblue" points="837.51,-25.81 828.82,-19.75 831.84,-29.91 837.51,-25.81"/>
</g>
<!-- Node24&#45;&gt;Node6 -->
<g id="edge37" class="edge">
<title>Node24&#45;&gt;Node6</title>
<path fill="none" stroke="midnightblue" d="M564.06,-112.44C520.06,-102.11 446.67,-84.88 404.02,-74.87"/>
<polygon fill="midnightblue" stroke="midnightblue" points="404.67,-71.43 394.13,-72.55 403.07,-78.24 404.67,-71.43"/>
</g>
<!-- Node24&#45;&gt;Node17 -->
<g id="edge34" class="edge">
<title>Node24&#45;&gt;Node17</title>
<path fill="none" stroke="midnightblue" d="M618.72,-112.44C637.4,-103.68 666.66,-89.94 688.12,-79.86"/>
<polygon fill="midnightblue" stroke="midnightblue" points="689.8,-82.93 697.36,-75.52 686.82,-76.6 689.8,-82.93"/>
</g>
<!-- Node25 -->
<g id="node25" class="node">
<title>Node25</title>
<g id="a_node25"><a xlink:title=" ">
<polygon fill="white" stroke="#bfbfbf" points="443.5,-56.5 443.5,-75.5 485.5,-75.5 485.5,-56.5 443.5,-56.5"/>
<text text-anchor="middle" x="464.5" y="-63.5" font-family="Helvetica,sans-Serif" font-size="10.00">array</text>
</a>
</g>
</g>
<!-- Node24&#45;&gt;Node25 -->
<g id="edge32" class="edge">
<title>Node24&#45;&gt;Node25</title>
<path fill="none" stroke="midnightblue" d="M578.95,-112.44C556.34,-103.46 520.59,-89.27 495.07,-79.14"/>
<polygon fill="midnightblue" stroke="midnightblue" points="496.09,-75.78 485.5,-75.34 493.5,-82.28 496.09,-75.78"/>
</g>
<!-- Node26 -->
<g id="node26" class="node">
<title>Node26</title>
<g id="a_node26"><a xlink:title=" ">
<polygon fill="white" stroke="#bfbfbf" points="504,-56.5 504,-75.5 551,-75.5 551,-56.5 504,-56.5"/>
<text text-anchor="middle" x="527.5" y="-63.5" font-family="Helvetica,sans-Serif" font-size="10.00">deque</text>
</a>
</g>
</g>
<!-- Node24&#45;&gt;Node26 -->
<g id="edge33" class="edge">
<title>Node24&#45;&gt;Node26</title>
<path fill="none" stroke="midnightblue" d="M588.77,-112.32C577.66,-104.11 560.76,-91.6 547.52,-81.81"/>
<polygon fill="midnightblue" stroke="midnightblue" points="549.56,-78.97 539.44,-75.83 545.4,-84.59 549.56,-78.97"/>
</g>
<!-- Node27 -->
<g id="node27" class="node">
<title>Node27</title>
<g id="a_node27"><a xlink:title=" ">
<polygon fill="white" stroke="#bfbfbf" points="569.5,-56.5 569.5,-75.5 607.5,-75.5 607.5,-56.5 569.5,-56.5"/>
<text text-anchor="middle" x="588.5" y="-63.5" font-family="Helvetica,sans-Serif" font-size="10.00">map</text>
</a>
</g>
</g>
<!-- Node24&#45;&gt;Node27 -->
<g id="edge35" class="edge">
<title>Node24&#45;&gt;Node27</title>
<path fill="none" stroke="midnightblue" d="M598.52,-112.08C596.93,-104.93 594.64,-94.64 592.65,-85.69"/>
<polygon fill="midnightblue" stroke="midnightblue" points="596.03,-84.75 590.44,-75.75 589.2,-86.27 596.03,-84.75"/>
</g>
<!-- Node28 -->
<g id="node28" class="node">
<title>Node28</title>
<g id="a_node28"><a xlink:title=" ">
<polygon fill="white" stroke="#bfbfbf" points="625.5,-56.5 625.5,-75.5 657.5,-75.5 657.5,-56.5 625.5,-56.5"/>
<text text-anchor="middle" x="641.5" y="-63.5" font-family="Helvetica,sans-Serif" font-size="10.00">set</text>
</a>
</g>
</g>
<!-- Node24&#45;&gt;Node28 -->
<g id="edge36" class="edge">
<title>Node24&#45;&gt;Node28</title>
<path fill="none" stroke="midnightblue" d="M607.27,-112.08C613.06,-104.46 621.56,-93.26 628.64,-83.94"/>
<polygon fill="midnightblue" stroke="midnightblue" points="631.6,-85.83 634.86,-75.75 626.02,-81.6 631.6,-85.83"/>
</g>
<!-- Node29&#45;&gt;Node16 -->
<g id="edge44" class="edge">
<title>Node29&#45;&gt;Node16</title>
<path fill="none" stroke="midnightblue" d="M681.31,-235.48C662.6,-225.62 631.58,-209.29 609.7,-197.77"/>
<polygon fill="midnightblue" stroke="midnightblue" points="611.14,-194.57 600.66,-193.01 607.88,-200.77 611.14,-194.57"/>
</g>
<!-- Node30 -->
<g id="node30" class="node">
<title>Node30</title>
<g id="a_node30"><a xlink:title=" ">
<polygon fill="white" stroke="#bfbfbf" points="1187.5,-168.5 1187.5,-198.5 1297.5,-198.5 1297.5,-168.5 1187.5,-168.5"/>
<text text-anchor="start" x="1195.5" y="-186.5" font-family="Helvetica,sans-Serif" font-size="10.00">boost/preprocessor</text>
<text text-anchor="middle" x="1242.5" y="-175.5" font-family="Helvetica,sans-Serif" font-size="10.00">/control/if.hpp</text>
</a>
</g>
</g>
<!-- Node29&#45;&gt;Node30 -->
<g id="edge39" class="edge">
<title>Node29&#45;&gt;Node30</title>
<path fill="none" stroke="midnightblue" d="M776.18,-235.91C779.33,-235.6 782.44,-235.3 785.5,-235 956.84,-218.39 1003.54,-226.14 1177.43,-199.03"/>
<polygon fill="midnightblue" stroke="midnightblue" points="1178.1,-202.47 1187.43,-197.46 1177.01,-195.56 1178.1,-202.47"/>
</g>
<!-- Node31 -->
<g id="node31" class="node">
<title>Node31</title>
<g id="a_node31"><a xlink:title=" ">
<polygon fill="white" stroke="#bfbfbf" points="642,-168.5 642,-198.5 753,-198.5 753,-168.5 642,-168.5"/>
<text text-anchor="start" x="650" y="-186.5" font-family="Helvetica,sans-Serif" font-size="10.00">boost/preprocessor</text>
<text text-anchor="middle" x="697.5" y="-175.5" font-family="Helvetica,sans-Serif" font-size="10.00">/seq/for_each_i.hpp</text>
</a>
</g>
</g>
<!-- Node29&#45;&gt;Node31 -->
<g id="edge40" class="edge">
<title>Node29&#45;&gt;Node31</title>
<path fill="none" stroke="midnightblue" d="M697.5,-235.48C697.5,-228.47 697.5,-218.19 697.5,-208.7"/>
<polygon fill="midnightblue" stroke="midnightblue" points="701,-208.52 697.5,-198.52 694,-208.52 701,-208.52"/>
</g>
<!-- Node32 -->
<g id="node32" class="node">
<title>Node32</title>
<g id="a_node32"><a xlink:title=" ">
<polygon fill="white" stroke="#bfbfbf" points="771.5,-168.5 771.5,-198.5 881.5,-198.5 881.5,-168.5 771.5,-168.5"/>
<text text-anchor="start" x="779.5" y="-186.5" font-family="Helvetica,sans-Serif" font-size="10.00">boost/preprocessor</text>
<text text-anchor="middle" x="826.5" y="-175.5" font-family="Helvetica,sans-Serif" font-size="10.00">/stringize.hpp</text>
</a>
</g>
</g>
<!-- Node29&#45;&gt;Node32 -->
<g id="edge41" class="edge">
<title>Node29&#45;&gt;Node32</title>
<path fill="none" stroke="midnightblue" d="M715.98,-235.48C734.43,-226.96 763.37,-213.62 787,-202.72"/>
<polygon fill="midnightblue" stroke="midnightblue" points="788.48,-205.89 796.1,-198.52 785.55,-199.53 788.48,-205.89"/>
</g>
<!-- Node33 -->
<g id="node33" class="node">
<title>Node33</title>
<g id="a_node33"><a xlink:title=" ">
<polygon fill="white" stroke="#bfbfbf" points="900,-168.5 900,-198.5 1015,-198.5 1015,-168.5 900,-168.5"/>
<text text-anchor="start" x="908" y="-186.5" font-family="Helvetica,sans-Serif" font-size="10.00">boost/preprocessor</text>
<text text-anchor="middle" x="957.5" y="-175.5" font-family="Helvetica,sans-Serif" font-size="10.00">/variadic/to_seq.hpp</text>
</a>
</g>
</g>
<!-- Node29&#45;&gt;Node33 -->
<g id="edge42" class="edge">
<title>Node29&#45;&gt;Node33</title>
<path fill="none" stroke="midnightblue" d="M734.75,-235.48C775.08,-226.25 840.26,-211.33 889.71,-200.01"/>
<polygon fill="midnightblue" stroke="midnightblue" points="890.73,-203.37 899.7,-197.73 889.17,-196.55 890.73,-203.37"/>
</g>
<!-- Node34 -->
<g id="node34" class="node">
<title>Node34</title>
<g id="a_node34"><a xlink:title=" ">
<polygon fill="white" stroke="#bfbfbf" points="1033.5,-174 1033.5,-193 1169.5,-193 1169.5,-174 1033.5,-174"/>
<text text-anchor="middle" x="1101.5" y="-181" font-family="Helvetica,sans-Serif" font-size="10.00">boost/vmd/is_empty.hpp</text>
</a>
</g>
</g>
<!-- Node29&#45;&gt;Node34 -->
<g id="edge43" class="edge">
<title>Node29&#45;&gt;Node34</title>
<path fill="none" stroke="midnightblue" d="M766.86,-235.46C833.16,-227.07 935.84,-213.44 1024.5,-199 1032.24,-197.74 1040.4,-196.31 1048.4,-194.85"/>
<polygon fill="midnightblue" stroke="midnightblue" points="1049.2,-198.27 1058.4,-193 1047.93,-191.38 1049.2,-198.27"/>
</g>
<!-- Node35&#45;&gt;Node13 -->
<g id="edge46" class="edge">
<title>Node35&#45;&gt;Node13</title>
<path fill="none" stroke="midnightblue" d="M829.22,-254.64C801.57,-268.19 745.39,-294.59 695.5,-311 650.65,-325.75 598.42,-337.62 559.61,-345.46"/>
<polygon fill="midnightblue" stroke="midnightblue" points="558.67,-342.08 549.55,-347.46 560.04,-348.94 558.67,-342.08"/>
</g>
</g>
</svg>
        <g id="navigator" transform="translate(0 0)" fill="#404254">
                <rect fill="#f2f5e9" fill-opacity="0.5" stroke="#606060" stroke-width=".5" x="0" y="0" width="60" height="60"/>
                <use id="zoomplus" xlink:href="#zoomPlus" x="17" y="9" onmousedown="handleZoom(evt,'in')"/>
                <use id="zoomminus" xlink:href="#zoomMin" x="42" y="9" onmousedown="handleZoom(evt,'out')"/>
                <use id="reset" xlink:href="#resetDef" x="30" y="36" onmousedown="handleReset()"/>
                <g id="arrowUp" xlink:href="#dirArrow" transform="translate(30 24)" onmousedown="handlePan(0,-1)">
                  <use xlink:href="#rim" fill="#404040">
                        <set attributeName="fill" to="#808080" begin="arrowUp.mouseover" end="arrowUp.mouseout"/>
                  </use>
                  <path fill="none" stroke="white" stroke-width="1.5" d="M0,-3.0v7 M-2.5,-0.5L0,-3.0L2.5,-0.5"/>
                </g>
                <g id="arrowRight" xlink:href="#dirArrow" transform="rotate(90) translate(36 -43)" onmousedown="handlePan(1,0)">
                  <use xlink:href="#rim" fill="#404040">
                        <set attributeName="fill" to="#808080" begin="arrowRight.mouseover" end="arrowRight.mouseout"/>
                  </use>
                  <path fill="none" stroke="white" stroke-width="1.5" d="M0,-3.0v7 M-2.5,-0.5L0,-3.0L2.5,-0.5"/>
                </g>
                <g id="arrowDown" xlink:href="#dirArrow" transform="rotate(180) translate(-30 -48)" onmousedown="handlePan(0,1)">
                  <use xlink:href="#rim" fill="#404040">
                        <set attributeName="fill" to="#808080" begin="arrowDown.mouseover" end="arrowDown.mouseout"/>
                  </use>
                  <path fill="none" stroke="white" stroke-width="1.5" d="M0,-3.0v7 M-2.5,-0.5L0,-3.0L2.5,-0.5"/>
                </g>
                <g id="arrowLeft" xlink:href="#dirArrow" transform="rotate(270) translate(-36 17)" onmousedown="handlePan(-1,0)">
                  <use xlink:href="#rim" fill="#404040">
                        <set attributeName="fill" to="#808080" begin="arrowLeft.mouseover" end="arrowLeft.mouseout"/>
                  </use>
                  <path fill="none" stroke="white" stroke-width="1.5" d="M0,-3.0v7 M-2.5,-0.5L0,-3.0L2.5,-0.5"/>
                </g>
        </g>
        <svg viewBox="0 0 15 15" width="100%" height="30px" preserveAspectRatio="xMaxYMin meet">
         <g id="arrow_out" transform="scale(0.3 0.3)">
          <a xlink:href="TestContext_8hpp__incl_org.svg" target="_base">
           <rect id="button" ry="5" rx="5" y="6" x="6" height="38" width="38"
                fill="#f2f5e9" fill-opacity="0.5" stroke="#606060" stroke-width="1.0"/>
           <path id="arrow"
             d="M 11.500037,31.436501 C 11.940474,20.09759 22.043105,11.32322 32.158766,21.979434 L 37.068811,17.246167 C 37.068811,17.246167 37.088388,32 37.088388,32 L 22.160133,31.978069 C 22.160133,31.978069 26.997745,27.140456 26.997745,27.140456 C 18.528582,18.264221 13.291696,25.230495 11.500037,31.436501 z"
             style="fill:#404040;"/>
          </a>
         </g>
        </svg>
</svg>
