<?xml version="1.0" encoding="UTF-8" standalone="no"?>
<!DOCTYPE svg PUBLIC "-//W3C//DTD SVG 1.1//EN"
 "http://www.w3.org/Graphics/SVG/1.1/DTD/svg11.dtd">
<!-- Generated by graphviz version 2.43.0 (0)
 -->
<!-- Title: src/mesh/Tetrahedron.cpp Pages: 1 -->
<svg width="1464pt" height="722pt"
 viewBox="0.00 0.00 1463.94 722.00" xmlns="http://www.w3.org/2000/svg" xmlns:xlink="http://www.w3.org/1999/xlink">
<g id="graph0" class="graph" transform="scale(1 1) rotate(0) translate(4 718)">
<title>src/mesh/Tetrahedron.cpp</title>
<polygon fill="white" stroke="transparent" points="-4,4 -4,-718 1459.94,-718 1459.94,4 -4,4"/>
<!-- Node1 -->
<g id="node1" class="node">
<title>Node1</title>
<g id="a_node1"><a xlink:title=" ">
<polygon fill="#bfbfbf" stroke="black" points="1046,-694.5 1046,-713.5 1188,-713.5 1188,-694.5 1046,-694.5"/>
<text text-anchor="middle" x="1117" y="-701.5" font-family="Helvetica,sans-Serif" font-size="10.00">src/mesh/Tetrahedron.cpp</text>
</a>
</g>
</g>
<!-- Node2 -->
<g id="node2" class="node">
<title>Node2</title>
<g id="a_node2"><a xlink:href="Tetrahedron_8hpp.html" target="_top" xlink:title=" ">
<polygon fill="white" stroke="black" points="117.5,-638.5 117.5,-657.5 212.5,-657.5 212.5,-638.5 117.5,-638.5"/>
<text text-anchor="middle" x="165" y="-645.5" font-family="Helvetica,sans-Serif" font-size="10.00">Tetrahedron.hpp</text>
</a>
</g>
</g>
<!-- Node1&#45;&gt;Node2 -->
<g id="edge1" class="edge">
<title>Node1&#45;&gt;Node2</title>
<path fill="none" stroke="midnightblue" d="M1045.83,-698.96C864.73,-688.69 389,-661.71 223.08,-652.29"/>
<polygon fill="midnightblue" stroke="midnightblue" points="222.79,-648.77 212.61,-651.7 222.4,-655.76 222.79,-648.77"/>
</g>
<!-- Node6 -->
<g id="node6" class="node">
<title>Node6</title>
<g id="a_node6"><a xlink:href="Vertex_8hpp.html" target="_top" xlink:title=" ">
<polygon fill="white" stroke="black" points="204.5,-582.5 204.5,-601.5 303.5,-601.5 303.5,-582.5 204.5,-582.5"/>
<text text-anchor="middle" x="254" y="-589.5" font-family="Helvetica,sans-Serif" font-size="10.00">mesh/Vertex.hpp</text>
</a>
</g>
</g>
<!-- Node1&#45;&gt;Node6 -->
<g id="edge79" class="edge">
<title>Node1&#45;&gt;Node6</title>
<path fill="none" stroke="midnightblue" d="M1050,-694.46C886.63,-673.64 469.78,-620.5 313.97,-600.64"/>
<polygon fill="midnightblue" stroke="midnightblue" points="314.01,-597.12 303.65,-599.33 313.13,-604.06 314.01,-597.12"/>
</g>
<!-- Node7 -->
<g id="node7" class="node">
<title>Node7</title>
<g id="a_node7"><a xlink:title=" ">
<polygon fill="white" stroke="#bfbfbf" points="1268.5,-0.5 1268.5,-19.5 1337.5,-19.5 1337.5,-0.5 1268.5,-0.5"/>
<text text-anchor="middle" x="1303" y="-7.5" font-family="Helvetica,sans-Serif" font-size="10.00">Eigen/Core</text>
</a>
</g>
</g>
<!-- Node1&#45;&gt;Node7 -->
<g id="edge70" class="edge">
<title>Node1&#45;&gt;Node7</title>
<path fill="none" stroke="midnightblue" d="M1188.28,-701.72C1270.79,-698.77 1400,-689.15 1436,-658 1458.76,-638.31 1455,-623.1 1455,-593 1455,-593 1455,-593 1455,-121 1455,-67.44 1392.29,-37.3 1347.43,-22.59"/>
<polygon fill="midnightblue" stroke="midnightblue" points="1348.46,-19.25 1337.87,-19.6 1346.37,-25.93 1348.46,-19.25"/>
</g>
<!-- Node9 -->
<g id="node9" class="node">
<title>Node9</title>
<g id="a_node9"><a xlink:href="differences_8hpp.html" target="_top" xlink:title=" ">
<polygon fill="white" stroke="black" points="1074,-526.5 1074,-545.5 1194,-545.5 1194,-526.5 1074,-526.5"/>
<text text-anchor="middle" x="1134" y="-533.5" font-family="Helvetica,sans-Serif" font-size="10.00">math/differences.hpp</text>
</a>
</g>
</g>
<!-- Node1&#45;&gt;Node9 -->
<g id="edge73" class="edge">
<title>Node1&#45;&gt;Node9</title>
<path fill="none" stroke="midnightblue" d="M1117.91,-694.08C1120.59,-667.95 1128.45,-591.21 1132.1,-555.58"/>
<polygon fill="midnightblue" stroke="midnightblue" points="1135.59,-555.87 1133.12,-545.57 1128.62,-555.16 1135.59,-555.87"/>
</g>
<!-- Node18 -->
<g id="node18" class="node">
<title>Node18</title>
<g id="a_node18"><a xlink:title=" ">
<polygon fill="white" stroke="#bfbfbf" points="1132,-56.5 1132,-75.5 1196,-75.5 1196,-56.5 1132,-56.5"/>
<text text-anchor="middle" x="1164" y="-63.5" font-family="Helvetica,sans-Serif" font-size="10.00">algorithm</text>
</a>
</g>
</g>
<!-- Node1&#45;&gt;Node18 -->
<g id="edge71" class="edge">
<title>Node1&#45;&gt;Node18</title>
<path fill="none" stroke="midnightblue" d="M1093.41,-694.46C1049.55,-677.13 962.24,-634.95 989,-582 1060.41,-440.69 1266,-516.33 1266,-358 1266,-358 1266,-358 1266,-182.5 1266,-148.45 1258.13,-137.88 1236,-112 1224.45,-98.49 1207.81,-87.72 1193.43,-80.11"/>
<polygon fill="midnightblue" stroke="midnightblue" points="1194.89,-76.93 1184.39,-75.57 1191.75,-83.18 1194.89,-76.93"/>
</g>
<!-- Node20 -->
<g id="node20" class="node">
<title>Node20</title>
<g id="a_node20"><a xlink:href="EigenIO_8hpp.html" target="_top" xlink:title=" ">
<polygon fill="white" stroke="black" points="1214.5,-56.5 1214.5,-75.5 1313.5,-75.5 1313.5,-56.5 1214.5,-56.5"/>
<text text-anchor="middle" x="1264" y="-63.5" font-family="Helvetica,sans-Serif" font-size="10.00">utils/EigenIO.hpp</text>
</a>
</g>
</g>
<!-- Node1&#45;&gt;Node20 -->
<g id="edge80" class="edge">
<title>Node1&#45;&gt;Node20</title>
<path fill="none" stroke="midnightblue" d="M1144.65,-694.5C1212.17,-671.83 1380,-603.19 1380,-481 1380,-481 1380,-481 1380,-300 1380,-210.06 1309.88,-119.12 1278.67,-83.11"/>
<polygon fill="midnightblue" stroke="midnightblue" points="1281.22,-80.71 1271.97,-75.54 1275.98,-85.35 1281.22,-80.71"/>
</g>
<!-- Node46 -->
<g id="node46" class="node">
<title>Node46</title>
<g id="a_node46"><a xlink:title=" ">
<polygon fill="white" stroke="#bfbfbf" points="1287.5,-638.5 1287.5,-657.5 1426.5,-657.5 1426.5,-638.5 1287.5,-638.5"/>
<text text-anchor="middle" x="1357" y="-645.5" font-family="Helvetica,sans-Serif" font-size="10.00">boost/concept/assert.hpp</text>
</a>
</g>
</g>
<!-- Node1&#45;&gt;Node46 -->
<g id="edge72" class="edge">
<title>Node1&#45;&gt;Node46</title>
<path fill="none" stroke="midnightblue" d="M1155.03,-694.44C1196.81,-685.04 1263.98,-669.93 1309.27,-659.74"/>
<polygon fill="midnightblue" stroke="midnightblue" points="1310.16,-663.13 1319.15,-657.52 1308.62,-656.3 1310.16,-663.13"/>
</g>
<!-- Node47 -->
<g id="node47" class="node">
<title>Node47</title>
<g id="a_node47"><a xlink:href="geometry_8hpp.html" target="_top" xlink:title=" ">
<polygon fill="white" stroke="black" points="998,-582.5 998,-601.5 1110,-601.5 1110,-582.5 998,-582.5"/>
<text text-anchor="middle" x="1054" y="-589.5" font-family="Helvetica,sans-Serif" font-size="10.00">math/geometry.hpp</text>
</a>
</g>
</g>
<!-- Node1&#45;&gt;Node47 -->
<g id="edge74" class="edge">
<title>Node1&#45;&gt;Node47</title>
<path fill="none" stroke="midnightblue" d="M1112.06,-694.37C1101.71,-676.3 1077.58,-634.18 1063.91,-610.31"/>
<polygon fill="midnightblue" stroke="midnightblue" points="1066.93,-608.53 1058.92,-601.59 1060.85,-612.01 1066.93,-608.53"/>
</g>
<!-- Node3 -->
<g id="node3" class="node">
<title>Node3</title>
<g id="a_node3"><a xlink:title=" ">
<polygon fill="white" stroke="#bfbfbf" points="192,-56.5 192,-75.5 234,-75.5 234,-56.5 192,-56.5"/>
<text text-anchor="middle" x="213" y="-63.5" font-family="Helvetica,sans-Serif" font-size="10.00">array</text>
</a>
</g>
</g>
<!-- Node2&#45;&gt;Node3 -->
<g id="edge2" class="edge">
<title>Node2&#45;&gt;Node3</title>
<path fill="none" stroke="midnightblue" d="M123.79,-638.48C74.92,-625.69 0,-596.39 0,-537 0,-537 0,-537 0,-356 0,-228.14 136.76,-119.63 191.11,-81.55"/>
<polygon fill="midnightblue" stroke="midnightblue" points="193.42,-84.21 199.68,-75.66 189.45,-78.45 193.42,-84.21"/>
</g>
<!-- Node4 -->
<g id="node4" class="node">
<title>Node4</title>
<g id="a_node4"><a xlink:title=" ">
<polygon fill="white" stroke="#bfbfbf" points="135,-409 135,-428 195,-428 195,-409 135,-409"/>
<text text-anchor="middle" x="165" y="-416" font-family="Helvetica,sans-Serif" font-size="10.00">iostream</text>
</a>
</g>
</g>
<!-- Node2&#45;&gt;Node4 -->
<g id="edge3" class="edge">
<title>Node2&#45;&gt;Node4</title>
<path fill="none" stroke="midnightblue" d="M157.18,-638.47C149.91,-629.95 139.55,-616.12 135,-602 116.15,-543.54 142.23,-470.54 156.61,-437.38"/>
<polygon fill="midnightblue" stroke="midnightblue" points="159.88,-438.63 160.79,-428.08 153.5,-435.76 159.88,-438.63"/>
</g>
<!-- Node5 -->
<g id="node5" class="node">
<title>Node5</title>
<g id="a_node5"><a xlink:title=" ">
<polygon fill="white" stroke="#bfbfbf" points="144.5,-582.5 144.5,-601.5 185.5,-601.5 185.5,-582.5 144.5,-582.5"/>
<text text-anchor="middle" x="165" y="-589.5" font-family="Helvetica,sans-Serif" font-size="10.00">tuple</text>
</a>
</g>
</g>
<!-- Node2&#45;&gt;Node5 -->
<g id="edge4" class="edge">
<title>Node2&#45;&gt;Node5</title>
<path fill="none" stroke="midnightblue" d="M165,-638.08C165,-631.01 165,-620.86 165,-611.99"/>
<polygon fill="midnightblue" stroke="midnightblue" points="168.5,-611.75 165,-601.75 161.5,-611.75 168.5,-611.75"/>
</g>
<!-- Node2&#45;&gt;Node6 -->
<g id="edge5" class="edge">
<title>Node2&#45;&gt;Node6</title>
<path fill="none" stroke="midnightblue" d="M179.3,-638.32C193.18,-629.9 214.49,-616.97 230.8,-607.07"/>
<polygon fill="midnightblue" stroke="midnightblue" points="233,-609.83 239.74,-601.65 229.37,-603.85 233,-609.83"/>
</g>
<!-- Node10 -->
<g id="node10" class="node">
<title>Node10</title>
<g id="a_node10"><a xlink:href="assertion_8hpp.html" target="_top" xlink:title=" ">
<polygon fill="white" stroke="black" points="794.5,-470.5 794.5,-489.5 901.5,-489.5 901.5,-470.5 794.5,-470.5"/>
<text text-anchor="middle" x="848" y="-477.5" font-family="Helvetica,sans-Serif" font-size="10.00">utils/assertion.hpp</text>
</a>
</g>
</g>
<!-- Node2&#45;&gt;Node10 -->
<g id="edge69" class="edge">
<title>Node2&#45;&gt;Node10</title>
<path fill="none" stroke="midnightblue" d="M200.28,-638.42C314.78,-610.6 675.9,-522.83 803.12,-491.91"/>
<polygon fill="midnightblue" stroke="midnightblue" points="804.04,-495.29 812.93,-489.52 802.38,-488.48 804.04,-495.29"/>
</g>
<!-- Node42 -->
<g id="node42" class="node">
<title>Node42</title>
<g id="a_node42"><a xlink:href="types_8hpp.html" target="_top" xlink:title=" ">
<polygon fill="white" stroke="black" points="114.5,-347.5 114.5,-366.5 217.5,-366.5 217.5,-347.5 114.5,-347.5"/>
<text text-anchor="middle" x="166" y="-354.5" font-family="Helvetica,sans-Serif" font-size="10.00">precice/types.hpp</text>
</a>
</g>
</g>
<!-- Node2&#45;&gt;Node42 -->
<g id="edge68" class="edge">
<title>Node2&#45;&gt;Node42</title>
<path fill="none" stroke="midnightblue" d="M150.7,-638.4C125.54,-622.06 76,-583.92 76,-537 76,-537 76,-537 76,-479 76,-433.13 118.15,-393.37 144.76,-372.85"/>
<polygon fill="midnightblue" stroke="midnightblue" points="147.17,-375.42 153.11,-366.64 142.99,-369.8 147.17,-375.42"/>
</g>
<!-- Node6&#45;&gt;Node3 -->
<g id="edge7" class="edge">
<title>Node6&#45;&gt;Node3</title>
<path fill="none" stroke="midnightblue" d="M256.1,-582.17C258.8,-569.68 262.95,-546.11 261,-526 253.19,-445.32 246.05,-425.54 226,-347 214.35,-301.38 194,-293.09 194,-246 194,-246 194,-246 194,-182.5 194,-147.9 202.4,-108.24 208.03,-85.55"/>
<polygon fill="midnightblue" stroke="midnightblue" points="211.49,-86.17 210.59,-75.61 204.71,-84.42 211.49,-86.17"/>
</g>
<!-- Node6&#45;&gt;Node4 -->
<g id="edge8" class="edge">
<title>Node6&#45;&gt;Node4</title>
<path fill="none" stroke="midnightblue" d="M249.46,-582.26C235.48,-555.31 192.82,-473.12 174.04,-436.92"/>
<polygon fill="midnightblue" stroke="midnightblue" points="177.13,-435.28 169.42,-428.02 170.92,-438.51 177.13,-435.28"/>
</g>
<!-- Node6&#45;&gt;Node7 -->
<g id="edge6" class="edge">
<title>Node6&#45;&gt;Node7</title>
<path fill="none" stroke="midnightblue" d="M223.51,-582.37C163.97,-564.59 38,-522.14 38,-481 38,-481 38,-481 38,-121 38,-50.38 114.25,-72.15 183,-56 288.8,-31.14 1062.79,-15.4 1258.26,-11.79"/>
<polygon fill="midnightblue" stroke="midnightblue" points="1258.52,-15.29 1268.45,-11.61 1258.39,-8.29 1258.52,-15.29"/>
</g>
<!-- Node8 -->
<g id="node8" class="node">
<title>Node8</title>
<g id="a_node8"><a xlink:title=" ">
<polygon fill="white" stroke="#bfbfbf" points="142.5,-526.5 142.5,-545.5 187.5,-545.5 187.5,-526.5 142.5,-526.5"/>
<text text-anchor="middle" x="165" y="-533.5" font-family="Helvetica,sans-Serif" font-size="10.00">utility</text>
</a>
</g>
</g>
<!-- Node6&#45;&gt;Node8 -->
<g id="edge9" class="edge">
<title>Node6&#45;&gt;Node8</title>
<path fill="none" stroke="midnightblue" d="M239.7,-582.32C225.82,-573.9 204.51,-560.97 188.2,-551.07"/>
<polygon fill="midnightblue" stroke="midnightblue" points="189.63,-547.85 179.26,-545.65 186,-553.83 189.63,-547.85"/>
</g>
<!-- Node6&#45;&gt;Node9 -->
<g id="edge10" class="edge">
<title>Node6&#45;&gt;Node9</title>
<path fill="none" stroke="midnightblue" d="M303.52,-587.96C451.59,-578.88 891.36,-551.89 1063.65,-541.32"/>
<polygon fill="midnightblue" stroke="midnightblue" points="1064.1,-544.8 1073.87,-540.69 1063.67,-537.81 1064.1,-544.8"/>
</g>
<!-- Node6&#45;&gt;Node10 -->
<g id="edge67" class="edge">
<title>Node6&#45;&gt;Node10</title>
<path fill="none" stroke="midnightblue" d="M300.12,-582.46C407.67,-562.54 674.86,-513.06 791.75,-491.42"/>
<polygon fill="midnightblue" stroke="midnightblue" points="792.72,-494.8 801.91,-489.53 791.44,-487.91 792.72,-494.8"/>
</g>
<!-- Node6&#45;&gt;Node42 -->
<g id="edge66" class="edge">
<title>Node6&#45;&gt;Node42</title>
<path fill="none" stroke="midnightblue" d="M253.12,-582.23C250.05,-554.44 238.05,-466.37 204,-403 198.34,-392.46 189.91,-382.16 182.44,-374.07"/>
<polygon fill="midnightblue" stroke="midnightblue" points="184.88,-371.56 175.41,-366.8 179.84,-376.43 184.88,-371.56"/>
</g>
<!-- Node9&#45;&gt;Node7 -->
<g id="edge11" class="edge">
<title>Node9&#45;&gt;Node7</title>
<path fill="none" stroke="midnightblue" d="M1173.86,-526.5C1224.1,-513.16 1304,-482.12 1304,-419.5 1304,-419.5 1304,-419.5 1304,-244 1304,-168.86 1318.77,-151.02 1323,-76 1323.5,-67.13 1324.85,-64.7 1323,-56 1321,-46.59 1316.9,-36.76 1312.93,-28.7"/>
<polygon fill="midnightblue" stroke="midnightblue" points="1315.89,-26.81 1308.13,-19.59 1309.69,-30.07 1315.89,-26.81"/>
</g>
<!-- Node9&#45;&gt;Node10 -->
<g id="edge12" class="edge">
<title>Node9&#45;&gt;Node10</title>
<path fill="none" stroke="midnightblue" d="M1088.68,-526.44C1038.37,-516.94 957.16,-501.61 903.19,-491.42"/>
<polygon fill="midnightblue" stroke="midnightblue" points="903.58,-487.93 893.11,-489.52 902.28,-494.81 903.58,-487.93"/>
</g>
<!-- Node10&#45;&gt;Node4 -->
<g id="edge14" class="edge">
<title>Node10&#45;&gt;Node4</title>
<path fill="none" stroke="midnightblue" d="M794.33,-474.51C699.3,-466.53 495.22,-449.28 323,-434 283.06,-430.46 237.47,-426.25 205.55,-423.29"/>
<polygon fill="midnightblue" stroke="midnightblue" points="205.57,-419.78 195.28,-422.33 204.92,-426.75 205.57,-419.78"/>
</g>
<!-- Node11 -->
<g id="node11" class="node">
<title>Node11</title>
<g id="a_node11"><a xlink:title=" ">
<polygon fill="white" stroke="#bfbfbf" points="1150.5,-409 1150.5,-428 1199.5,-428 1199.5,-409 1150.5,-409"/>
<text text-anchor="middle" x="1175" y="-416" font-family="Helvetica,sans-Serif" font-size="10.00">cstdlib</text>
</a>
</g>
</g>
<!-- Node10&#45;&gt;Node11 -->
<g id="edge13" class="edge">
<title>Node10&#45;&gt;Node11</title>
<path fill="none" stroke="midnightblue" d="M901.52,-474.84C960.93,-469.28 1059.21,-457.32 1141,-434 1143.29,-433.35 1145.63,-432.58 1147.96,-431.74"/>
<polygon fill="midnightblue" stroke="midnightblue" points="1149.3,-434.98 1157.31,-428.04 1146.72,-428.47 1149.3,-434.98"/>
</g>
<!-- Node12 -->
<g id="node12" class="node">
<title>Node12</title>
<g id="a_node12"><a xlink:title=" ">
<polygon fill="white" stroke="#bfbfbf" points="1153.5,-112.5 1153.5,-131.5 1226.5,-131.5 1226.5,-112.5 1153.5,-112.5"/>
<text text-anchor="middle" x="1190" y="-119.5" font-family="Helvetica,sans-Serif" font-size="10.00">string_view</text>
</a>
</g>
</g>
<!-- Node10&#45;&gt;Node12 -->
<g id="edge15" class="edge">
<title>Node10&#45;&gt;Node12</title>
<path fill="none" stroke="midnightblue" d="M901.83,-479.49C991.16,-479.17 1164.62,-473.31 1209,-434 1235.06,-410.91 1228,-392.82 1228,-358 1228,-358 1228,-358 1228,-244 1228,-205.81 1210.56,-163.83 1199.31,-140.72"/>
<polygon fill="midnightblue" stroke="midnightblue" points="1202.29,-138.86 1194.66,-131.52 1196.04,-142.02 1202.29,-138.86"/>
</g>
<!-- Node13 -->
<g id="node13" class="node">
<title>Node13</title>
<g id="a_node13"><a xlink:href="fmt_8hpp.html" target="_top" xlink:title=" ">
<polygon fill="white" stroke="black" points="410.5,-174 410.5,-193 489.5,-193 489.5,-174 410.5,-174"/>
<text text-anchor="middle" x="450" y="-181" font-family="Helvetica,sans-Serif" font-size="10.00">utils/fmt.hpp</text>
</a>
</g>
</g>
<!-- Node10&#45;&gt;Node13 -->
<g id="edge16" class="edge">
<title>Node10&#45;&gt;Node13</title>
<path fill="none" stroke="midnightblue" d="M845.94,-470.49C836.49,-433.63 793.48,-287.28 695,-235 616.77,-193.47 585.14,-219.59 499,-199 495.08,-198.06 491.02,-197 486.97,-195.89"/>
<polygon fill="midnightblue" stroke="midnightblue" points="487.65,-192.45 477.08,-193.07 485.73,-199.18 487.65,-192.45"/>
</g>
<!-- Node26 -->
<g id="node26" class="node">
<title>Node26</title>
<g id="a_node26"><a xlink:title=" ">
<polygon fill="white" stroke="#bfbfbf" points="481.5,-409 481.5,-428 628.5,-428 628.5,-409 481.5,-409"/>
<text text-anchor="middle" x="555" y="-416" font-family="Helvetica,sans-Serif" font-size="10.00">boost/current_function.hpp</text>
</a>
</g>
</g>
<!-- Node10&#45;&gt;Node26 -->
<g id="edge35" class="edge">
<title>Node10&#45;&gt;Node26</title>
<path fill="none" stroke="midnightblue" d="M806.02,-470.48C753.48,-459.8 663.5,-441.53 606.75,-430.01"/>
<polygon fill="midnightblue" stroke="midnightblue" points="607.4,-426.57 596.9,-428.01 606.01,-433.43 607.4,-426.57"/>
</g>
<!-- Node27 -->
<g id="node27" class="node">
<title>Node27</title>
<g id="a_node27"><a xlink:title=" ">
<polygon fill="white" stroke="#bfbfbf" points="646.5,-403.5 646.5,-433.5 781.5,-433.5 781.5,-403.5 646.5,-403.5"/>
<text text-anchor="start" x="654.5" y="-421.5" font-family="Helvetica,sans-Serif" font-size="10.00">boost/preprocessor</text>
<text text-anchor="middle" x="714" y="-410.5" font-family="Helvetica,sans-Serif" font-size="10.00">/comparison/greater.hpp</text>
</a>
</g>
</g>
<!-- Node10&#45;&gt;Node27 -->
<g id="edge36" class="edge">
<title>Node10&#45;&gt;Node27</title>
<path fill="none" stroke="midnightblue" d="M828.8,-470.48C809.63,-461.96 779.58,-448.62 755.03,-437.72"/>
<polygon fill="midnightblue" stroke="midnightblue" points="756.14,-434.38 745.58,-433.52 753.3,-440.78 756.14,-434.38"/>
</g>
<!-- Node28 -->
<g id="node28" class="node">
<title>Node28</title>
<g id="a_node28"><a xlink:title=" ">
<polygon fill="white" stroke="#bfbfbf" points="924,-168.5 924,-198.5 1034,-198.5 1034,-168.5 924,-168.5"/>
<text text-anchor="start" x="932" y="-186.5" font-family="Helvetica,sans-Serif" font-size="10.00">boost/preprocessor</text>
<text text-anchor="middle" x="979" y="-175.5" font-family="Helvetica,sans-Serif" font-size="10.00">/control/if.hpp</text>
</a>
</g>
</g>
<!-- Node10&#45;&gt;Node28 -->
<g id="edge37" class="edge">
<title>Node10&#45;&gt;Node28</title>
<path fill="none" stroke="midnightblue" d="M851.92,-470.19C869.5,-430.66 941.41,-269.01 968.56,-207.98"/>
<polygon fill="midnightblue" stroke="midnightblue" points="971.79,-209.32 972.66,-198.76 965.4,-206.47 971.79,-209.32"/>
</g>
<!-- Node29 -->
<g id="node29" class="node">
<title>Node29</title>
<g id="a_node29"><a xlink:title=" ">
<polygon fill="white" stroke="#bfbfbf" points="1052,-168.5 1052,-198.5 1162,-198.5 1162,-168.5 1052,-168.5"/>
<text text-anchor="start" x="1060" y="-186.5" font-family="Helvetica,sans-Serif" font-size="10.00">boost/preprocessor</text>
<text text-anchor="middle" x="1107" y="-175.5" font-family="Helvetica,sans-Serif" font-size="10.00">/stringize.hpp</text>
</a>
</g>
</g>
<!-- Node10&#45;&gt;Node29 -->
<g id="edge38" class="edge">
<title>Node10&#45;&gt;Node29</title>
<path fill="none" stroke="midnightblue" d="M901.8,-472.15C949.6,-464.99 1014.65,-452.23 1033,-434 1057.7,-409.46 1052,-392.82 1052,-358 1052,-358 1052,-358 1052,-300 1052,-264.9 1072.96,-229.13 1089,-206.88"/>
<polygon fill="midnightblue" stroke="midnightblue" points="1091.88,-208.88 1095.07,-198.77 1086.27,-204.68 1091.88,-208.88"/>
</g>
<!-- Node30 -->
<g id="node30" class="node">
<title>Node30</title>
<g id="a_node30"><a xlink:title=" ">
<polygon fill="white" stroke="#bfbfbf" points="914,-403.5 914,-433.5 1024,-433.5 1024,-403.5 914,-403.5"/>
<text text-anchor="start" x="922" y="-421.5" font-family="Helvetica,sans-Serif" font-size="10.00">boost/preprocessor</text>
<text text-anchor="middle" x="969" y="-410.5" font-family="Helvetica,sans-Serif" font-size="10.00">/variadic/size.hpp</text>
</a>
</g>
</g>
<!-- Node10&#45;&gt;Node30 -->
<g id="edge39" class="edge">
<title>Node10&#45;&gt;Node30</title>
<path fill="none" stroke="midnightblue" d="M865.34,-470.48C882.49,-462.04 909.3,-448.86 931.36,-438.01"/>
<polygon fill="midnightblue" stroke="midnightblue" points="933.05,-441.08 940.48,-433.52 929.96,-434.79 933.05,-441.08"/>
</g>
<!-- Node31 -->
<g id="node31" class="node">
<title>Node31</title>
<g id="a_node31"><a xlink:href="ArgumentFormatter_8hpp.html" target="_top" xlink:title=" ">
<polygon fill="white" stroke="black" points="760.5,-235.5 760.5,-254.5 917.5,-254.5 917.5,-235.5 760.5,-235.5"/>
<text text-anchor="middle" x="839" y="-242.5" font-family="Helvetica,sans-Serif" font-size="10.00">utils/ArgumentFormatter.hpp</text>
</a>
</g>
</g>
<!-- Node10&#45;&gt;Node31 -->
<g id="edge40" class="edge">
<title>Node10&#45;&gt;Node31</title>
<path fill="none" stroke="midnightblue" d="M847.67,-470.43C846.37,-436.75 841.59,-312.99 839.74,-265.1"/>
<polygon fill="midnightblue" stroke="midnightblue" points="843.23,-264.75 839.34,-254.9 836.23,-265.02 843.23,-264.75"/>
</g>
<!-- Node35 -->
<g id="node35" class="node">
<title>Node35</title>
<g id="a_node35"><a xlink:href="Parallel_8hpp.html" target="_top" xlink:title=" ">
<polygon fill="white" stroke="black" points="365,-409 365,-428 463,-428 463,-409 365,-409"/>
<text text-anchor="middle" x="414" y="-416" font-family="Helvetica,sans-Serif" font-size="10.00">utils/Parallel.hpp</text>
</a>
</g>
</g>
<!-- Node10&#45;&gt;Node35 -->
<g id="edge47" class="edge">
<title>Node10&#45;&gt;Node35</title>
<path fill="none" stroke="midnightblue" d="M794.44,-474.73C721.23,-468.4 585.96,-454.98 472,-434 466.51,-432.99 460.77,-431.76 455.13,-430.46"/>
<polygon fill="midnightblue" stroke="midnightblue" points="455.69,-426.99 445.15,-428.05 454.05,-433.8 455.69,-426.99"/>
</g>
<!-- Node44 -->
<g id="node44" class="node">
<title>Node44</title>
<g id="a_node44"><a xlink:href="stacktrace_8hpp.html" target="_top" xlink:title=" ">
<polygon fill="white" stroke="black" points="260.5,-291.5 260.5,-310.5 373.5,-310.5 373.5,-291.5 260.5,-291.5"/>
<text text-anchor="middle" x="317" y="-298.5" font-family="Helvetica,sans-Serif" font-size="10.00">utils/stacktrace.hpp</text>
</a>
</g>
</g>
<!-- Node10&#45;&gt;Node44 -->
<g id="edge63" class="edge">
<title>Node10&#45;&gt;Node44</title>
<path fill="none" stroke="midnightblue" d="M794.24,-477.45C673.62,-473.49 389.31,-461.35 356,-434 321.92,-406.02 316.71,-349.81 316.45,-320.59"/>
<polygon fill="midnightblue" stroke="midnightblue" points="319.95,-320.55 316.56,-310.51 312.95,-320.47 319.95,-320.55"/>
</g>
<!-- Node45 -->
<g id="node45" class="node">
<title>Node45</title>
<g id="a_node45"><a xlink:title=" ">
<polygon fill="white" stroke="#bfbfbf" points="1080,-409 1080,-428 1132,-428 1132,-409 1080,-409"/>
<text text-anchor="middle" x="1106" y="-416" font-family="Helvetica,sans-Serif" font-size="10.00">cassert</text>
</a>
</g>
</g>
<!-- Node10&#45;&gt;Node45 -->
<g id="edge65" class="edge">
<title>Node10&#45;&gt;Node45</title>
<path fill="none" stroke="midnightblue" d="M900.04,-470.44C944.53,-462.6 1010.03,-449.83 1066,-434 1068.8,-433.21 1071.68,-432.32 1074.56,-431.38"/>
<polygon fill="midnightblue" stroke="midnightblue" points="1075.87,-434.63 1084.18,-428.05 1073.58,-428.01 1075.87,-434.63"/>
</g>
<!-- Node13&#45;&gt;Node12 -->
<g id="edge18" class="edge">
<title>Node13&#45;&gt;Node12</title>
<path fill="none" stroke="midnightblue" d="M474.92,-173.92C482.56,-171.62 491.05,-169.39 499,-168 770.47,-120.59 843.57,-157.1 1118,-132 1126.21,-131.25 1134.92,-130.29 1143.34,-129.29"/>
<polygon fill="midnightblue" stroke="midnightblue" points="1143.93,-132.74 1153.42,-128.05 1143.07,-125.8 1143.93,-132.74"/>
</g>
<!-- Node14 -->
<g id="node14" class="node">
<title>Node14</title>
<g id="a_node14"><a xlink:title=" ">
<polygon fill="white" stroke="#bfbfbf" points="310,-112.5 310,-131.5 354,-131.5 354,-112.5 310,-112.5"/>
<text text-anchor="middle" x="332" y="-119.5" font-family="Helvetica,sans-Serif" font-size="10.00">string</text>
</a>
</g>
</g>
<!-- Node13&#45;&gt;Node14 -->
<g id="edge17" class="edge">
<title>Node13&#45;&gt;Node14</title>
<path fill="none" stroke="midnightblue" d="M433.09,-173.98C413.47,-164.08 380.87,-147.64 358.01,-136.12"/>
<polygon fill="midnightblue" stroke="midnightblue" points="359.38,-132.89 348.88,-131.51 356.23,-139.14 359.38,-132.89"/>
</g>
<!-- Node15 -->
<g id="node15" class="node">
<title>Node15</title>
<g id="a_node15"><a xlink:title=" ">
<polygon fill="white" stroke="#bfbfbf" points="598.5,-56.5 598.5,-75.5 677.5,-75.5 677.5,-56.5 598.5,-56.5"/>
<text text-anchor="middle" x="638" y="-63.5" font-family="Helvetica,sans-Serif" font-size="10.00">fmt/format.h</text>
</a>
</g>
</g>
<!-- Node13&#45;&gt;Node15 -->
<g id="edge19" class="edge">
<title>Node13&#45;&gt;Node15</title>
<path fill="none" stroke="midnightblue" d="M478.92,-173.95C527.04,-159.72 618.36,-132.64 619,-132 631.03,-119.89 635.53,-100.61 637.17,-86.19"/>
<polygon fill="midnightblue" stroke="midnightblue" points="640.68,-86.13 637.96,-75.89 633.7,-85.59 640.68,-86.13"/>
</g>
<!-- Node16 -->
<g id="node16" class="node">
<title>Node16</title>
<g id="a_node16"><a xlink:title=" ">
<polygon fill="white" stroke="#bfbfbf" points="524,-112.5 524,-131.5 610,-131.5 610,-112.5 524,-112.5"/>
<text text-anchor="middle" x="567" y="-119.5" font-family="Helvetica,sans-Serif" font-size="10.00">fmt/ostream.h</text>
</a>
</g>
</g>
<!-- Node13&#45;&gt;Node16 -->
<g id="edge20" class="edge">
<title>Node13&#45;&gt;Node16</title>
<path fill="none" stroke="midnightblue" d="M466.76,-173.98C486.22,-164.08 518.55,-147.64 541.21,-136.12"/>
<polygon fill="midnightblue" stroke="midnightblue" points="542.94,-139.16 550.27,-131.51 539.77,-132.92 542.94,-139.16"/>
</g>
<!-- Node17 -->
<g id="node17" class="node">
<title>Node17</title>
<g id="a_node17"><a xlink:href="fmtEigen_8hpp.html" target="_top" xlink:title=" ">
<polygon fill="white" stroke="black" points="1003,-112.5 1003,-131.5 1109,-131.5 1109,-112.5 1003,-112.5"/>
<text text-anchor="middle" x="1056" y="-119.5" font-family="Helvetica,sans-Serif" font-size="10.00">utils/fmtEigen.hpp</text>
</a>
</g>
</g>
<!-- Node13&#45;&gt;Node17 -->
<g id="edge21" class="edge">
<title>Node13&#45;&gt;Node17</title>
<path fill="none" stroke="midnightblue" d="M475.19,-173.96C482.76,-171.69 491.15,-169.46 499,-168 675.99,-135.03 889.07,-126.21 992.91,-123.86"/>
<polygon fill="midnightblue" stroke="midnightblue" points="992.99,-127.36 1002.92,-123.64 992.84,-120.36 992.99,-127.36"/>
</g>
<!-- Node21 -->
<g id="node21" class="node">
<title>Node21</title>
<g id="a_node21"><a xlink:href="fmtSTL_8hpp.html" target="_top" xlink:title=" ">
<polygon fill="white" stroke="black" points="410,-112.5 410,-131.5 506,-131.5 506,-112.5 410,-112.5"/>
<text text-anchor="middle" x="458" y="-119.5" font-family="Helvetica,sans-Serif" font-size="10.00">utils/fmtSTL.hpp</text>
</a>
</g>
</g>
<!-- Node13&#45;&gt;Node21 -->
<g id="edge28" class="edge">
<title>Node13&#45;&gt;Node21</title>
<path fill="none" stroke="midnightblue" d="M451.15,-173.98C452.27,-165.58 454.04,-152.48 455.49,-141.66"/>
<polygon fill="midnightblue" stroke="midnightblue" points="458.99,-141.89 456.86,-131.51 452.05,-140.95 458.99,-141.89"/>
</g>
<!-- Node17&#45;&gt;Node7 -->
<g id="edge22" class="edge">
<title>Node17&#45;&gt;Node7</title>
<path fill="none" stroke="midnightblue" d="M1051.47,-112.27C1045.07,-98.58 1035.58,-72 1049,-56 1075.22,-24.73 1192.84,-15.17 1258.43,-12.27"/>
<polygon fill="midnightblue" stroke="midnightblue" points="1258.64,-15.76 1268.49,-11.85 1258.36,-8.77 1258.64,-15.76"/>
</g>
<!-- Node17&#45;&gt;Node15 -->
<g id="edge24" class="edge">
<title>Node17&#45;&gt;Node15</title>
<path fill="none" stroke="midnightblue" d="M1002.64,-114.11C921.22,-103.59 767.13,-83.68 687.86,-73.44"/>
<polygon fill="midnightblue" stroke="midnightblue" points="688.02,-69.93 677.65,-72.12 687.12,-76.87 688.02,-69.93"/>
</g>
<!-- Node17&#45;&gt;Node18 -->
<g id="edge23" class="edge">
<title>Node17&#45;&gt;Node18</title>
<path fill="none" stroke="midnightblue" d="M1073.35,-112.32C1090.67,-103.66 1117.52,-90.24 1137.5,-80.25"/>
<polygon fill="midnightblue" stroke="midnightblue" points="1139.31,-83.26 1146.69,-75.65 1136.18,-77 1139.31,-83.26"/>
</g>
<!-- Node19 -->
<g id="node19" class="node">
<title>Node19</title>
<g id="a_node19"><a xlink:title=" ">
<polygon fill="white" stroke="#bfbfbf" points="1058,-56.5 1058,-75.5 1114,-75.5 1114,-56.5 1058,-56.5"/>
<text text-anchor="middle" x="1086" y="-63.5" font-family="Helvetica,sans-Serif" font-size="10.00">sstream</text>
</a>
</g>
</g>
<!-- Node17&#45;&gt;Node19 -->
<g id="edge25" class="edge">
<title>Node17&#45;&gt;Node19</title>
<path fill="none" stroke="midnightblue" d="M1060.95,-112.08C1065.1,-104.61 1071.15,-93.72 1076.27,-84.52"/>
<polygon fill="midnightblue" stroke="midnightblue" points="1079.34,-86.19 1081.14,-75.75 1073.22,-82.79 1079.34,-86.19"/>
</g>
<!-- Node17&#45;&gt;Node20 -->
<g id="edge26" class="edge">
<title>Node17&#45;&gt;Node20</title>
<path fill="none" stroke="midnightblue" d="M1088.96,-112.44C1124.79,-103.14 1182.16,-88.25 1221.39,-78.06"/>
<polygon fill="midnightblue" stroke="midnightblue" points="1222.4,-81.42 1231.2,-75.52 1220.64,-74.64 1222.4,-81.42"/>
</g>
<!-- Node20&#45;&gt;Node7 -->
<g id="edge27" class="edge">
<title>Node20&#45;&gt;Node7</title>
<path fill="none" stroke="midnightblue" d="M1270.44,-56.08C1275.95,-48.46 1284.03,-37.26 1290.76,-27.94"/>
<polygon fill="midnightblue" stroke="midnightblue" points="1293.66,-29.91 1296.68,-19.75 1287.99,-25.81 1293.66,-29.91"/>
</g>
<!-- Node21&#45;&gt;Node3 -->
<g id="edge29" class="edge">
<title>Node21&#45;&gt;Node3</title>
<path fill="none" stroke="midnightblue" d="M419.18,-112.44C370.71,-101.76 288.77,-83.7 244.18,-73.87"/>
<polygon fill="midnightblue" stroke="midnightblue" points="244.73,-70.41 234.21,-71.67 243.22,-77.25 244.73,-70.41"/>
</g>
<!-- Node21&#45;&gt;Node15 -->
<g id="edge31" class="edge">
<title>Node21&#45;&gt;Node15</title>
<path fill="none" stroke="midnightblue" d="M486.52,-112.44C517.07,-103.28 565.71,-88.69 599.6,-78.52"/>
<polygon fill="midnightblue" stroke="midnightblue" points="601.04,-81.74 609.61,-75.52 599.03,-75.04 601.04,-81.74"/>
</g>
<!-- Node22 -->
<g id="node22" class="node">
<title>Node22</title>
<g id="a_node22"><a xlink:title=" ">
<polygon fill="white" stroke="#bfbfbf" points="530.5,-56.5 530.5,-75.5 577.5,-75.5 577.5,-56.5 530.5,-56.5"/>
<text text-anchor="middle" x="554" y="-63.5" font-family="Helvetica,sans-Serif" font-size="10.00">deque</text>
</a>
</g>
</g>
<!-- Node21&#45;&gt;Node22 -->
<g id="edge30" class="edge">
<title>Node21&#45;&gt;Node22</title>
<path fill="none" stroke="midnightblue" d="M473.42,-112.32C488.54,-103.82 511.82,-90.73 529.47,-80.8"/>
<polygon fill="midnightblue" stroke="midnightblue" points="531.61,-83.61 538.61,-75.65 528.18,-77.51 531.61,-83.61"/>
</g>
<!-- Node23 -->
<g id="node23" class="node">
<title>Node23</title>
<g id="a_node23"><a xlink:title=" ">
<polygon fill="white" stroke="#bfbfbf" points="424,-56.5 424,-75.5 462,-75.5 462,-56.5 424,-56.5"/>
<text text-anchor="middle" x="443" y="-63.5" font-family="Helvetica,sans-Serif" font-size="10.00">map</text>
</a>
</g>
</g>
<!-- Node21&#45;&gt;Node23 -->
<g id="edge32" class="edge">
<title>Node21&#45;&gt;Node23</title>
<path fill="none" stroke="midnightblue" d="M455.52,-112.08C453.51,-104.85 450.61,-94.41 448.11,-85.4"/>
<polygon fill="midnightblue" stroke="midnightblue" points="451.48,-84.45 445.43,-75.75 444.74,-86.32 451.48,-84.45"/>
</g>
<!-- Node24 -->
<g id="node24" class="node">
<title>Node24</title>
<g id="a_node24"><a xlink:title=" ">
<polygon fill="white" stroke="#bfbfbf" points="480,-56.5 480,-75.5 512,-75.5 512,-56.5 480,-56.5"/>
<text text-anchor="middle" x="496" y="-63.5" font-family="Helvetica,sans-Serif" font-size="10.00">set</text>
</a>
</g>
</g>
<!-- Node21&#45;&gt;Node24 -->
<g id="edge33" class="edge">
<title>Node21&#45;&gt;Node24</title>
<path fill="none" stroke="midnightblue" d="M464.27,-112.08C469.64,-104.46 477.52,-93.26 484.08,-83.94"/>
<polygon fill="midnightblue" stroke="midnightblue" points="486.95,-85.94 489.84,-75.75 481.22,-81.91 486.95,-85.94"/>
</g>
<!-- Node25 -->
<g id="node25" class="node">
<title>Node25</title>
<g id="a_node25"><a xlink:title=" ">
<polygon fill="white" stroke="#bfbfbf" points="358.5,-56.5 358.5,-75.5 405.5,-75.5 405.5,-56.5 358.5,-56.5"/>
<text text-anchor="middle" x="382" y="-63.5" font-family="Helvetica,sans-Serif" font-size="10.00">vector</text>
</a>
</g>
</g>
<!-- Node21&#45;&gt;Node25 -->
<g id="edge34" class="edge">
<title>Node21&#45;&gt;Node25</title>
<path fill="none" stroke="midnightblue" d="M445.79,-112.32C434.22,-104.11 416.62,-91.6 402.84,-81.81"/>
<polygon fill="midnightblue" stroke="midnightblue" points="404.61,-78.77 394.43,-75.83 400.56,-84.48 404.61,-78.77"/>
</g>
<!-- Node31&#45;&gt;Node13 -->
<g id="edge46" class="edge">
<title>Node31&#45;&gt;Node13</title>
<path fill="none" stroke="midnightblue" d="M764.19,-235.48C679.84,-225.63 548.07,-209.44 499,-199 494.75,-198.1 490.34,-197.01 485.98,-195.84"/>
<polygon fill="midnightblue" stroke="midnightblue" points="486.57,-192.37 476,-193.01 484.67,-199.11 486.57,-192.37"/>
</g>
<!-- Node31&#45;&gt;Node28 -->
<g id="edge41" class="edge">
<title>Node31&#45;&gt;Node28</title>
<path fill="none" stroke="midnightblue" d="M859.06,-235.48C879.17,-226.93 910.76,-213.5 936.47,-202.57"/>
<polygon fill="midnightblue" stroke="midnightblue" points="938.17,-205.66 946,-198.52 935.43,-199.21 938.17,-205.66"/>
</g>
<!-- Node31&#45;&gt;Node29 -->
<g id="edge43" class="edge">
<title>Node31&#45;&gt;Node29</title>
<path fill="none" stroke="midnightblue" d="M878.12,-235.44C917.11,-226.89 978.98,-213.29 1041.76,-199.27"/>
<polygon fill="midnightblue" stroke="midnightblue" points="1042.85,-202.61 1051.85,-197.02 1041.32,-195.78 1042.85,-202.61"/>
</g>
<!-- Node32 -->
<g id="node32" class="node">
<title>Node32</title>
<g id="a_node32"><a xlink:title=" ">
<polygon fill="white" stroke="#bfbfbf" points="507.5,-168.5 507.5,-198.5 618.5,-198.5 618.5,-168.5 507.5,-168.5"/>
<text text-anchor="start" x="515.5" y="-186.5" font-family="Helvetica,sans-Serif" font-size="10.00">boost/preprocessor</text>
<text text-anchor="middle" x="563" y="-175.5" font-family="Helvetica,sans-Serif" font-size="10.00">/seq/for_each_i.hpp</text>
</a>
</g>
</g>
<!-- Node31&#45;&gt;Node32 -->
<g id="edge42" class="edge">
<title>Node31&#45;&gt;Node32</title>
<path fill="none" stroke="midnightblue" d="M798.53,-235.49C758.11,-226.96 693.93,-213.34 628.71,-199.14"/>
<polygon fill="midnightblue" stroke="midnightblue" points="629.18,-195.66 618.66,-196.95 627.69,-202.5 629.18,-195.66"/>
</g>
<!-- Node33 -->
<g id="node33" class="node">
<title>Node33</title>
<g id="a_node33"><a xlink:title=" ">
<polygon fill="white" stroke="#bfbfbf" points="636.5,-168.5 636.5,-198.5 751.5,-198.5 751.5,-168.5 636.5,-168.5"/>
<text text-anchor="start" x="644.5" y="-186.5" font-family="Helvetica,sans-Serif" font-size="10.00">boost/preprocessor</text>
<text text-anchor="middle" x="694" y="-175.5" font-family="Helvetica,sans-Serif" font-size="10.00">/variadic/to_seq.hpp</text>
</a>
</g>
</g>
<!-- Node31&#45;&gt;Node33 -->
<g id="edge44" class="edge">
<title>Node31&#45;&gt;Node33</title>
<path fill="none" stroke="midnightblue" d="M818.23,-235.48C797.3,-226.89 764.39,-213.38 737.69,-202.43"/>
<polygon fill="midnightblue" stroke="midnightblue" points="738.75,-199.08 728.17,-198.52 736.1,-205.56 738.75,-199.08"/>
</g>
<!-- Node34 -->
<g id="node34" class="node">
<title>Node34</title>
<g id="a_node34"><a xlink:title=" ">
<polygon fill="white" stroke="#bfbfbf" points="770,-174 770,-193 906,-193 906,-174 770,-174"/>
<text text-anchor="middle" x="838" y="-181" font-family="Helvetica,sans-Serif" font-size="10.00">boost/vmd/is_empty.hpp</text>
</a>
</g>
</g>
<!-- Node31&#45;&gt;Node34 -->
<g id="edge45" class="edge">
<title>Node31&#45;&gt;Node34</title>
<path fill="none" stroke="midnightblue" d="M838.86,-235.48C838.72,-227.08 838.5,-213.98 838.31,-203.16"/>
<polygon fill="midnightblue" stroke="midnightblue" points="841.81,-202.95 838.14,-193.01 834.81,-203.07 841.81,-202.95"/>
</g>
<!-- Node35&#45;&gt;Node14 -->
<g id="edge51" class="edge">
<title>Node35&#45;&gt;Node14</title>
<path fill="none" stroke="midnightblue" d="M411.95,-408.88C407.05,-388.37 394.14,-335.12 382,-291 366.97,-236.39 347.36,-172.37 337.78,-141.5"/>
<polygon fill="midnightblue" stroke="midnightblue" points="341.05,-140.22 334.73,-131.71 334.36,-142.3 341.05,-140.22"/>
</g>
<!-- Node35&#45;&gt;Node25 -->
<g id="edge52" class="edge">
<title>Node35&#45;&gt;Node25</title>
<path fill="none" stroke="midnightblue" d="M448.04,-408.96C455.9,-407 464.24,-404.92 472,-403 539.87,-386.21 651.73,-408.78 619,-347 564.18,-243.52 463.07,-298.3 401,-199 378.88,-163.61 378.49,-112.62 380.2,-85.54"/>
<polygon fill="midnightblue" stroke="midnightblue" points="383.69,-85.76 381,-75.51 376.71,-85.2 383.69,-85.76"/>
</g>
<!-- Node36 -->
<g id="node36" class="node">
<title>Node36</title>
<g id="a_node36"><a xlink:title=" ">
<polygon fill="white" stroke="#bfbfbf" points="426,-347.5 426,-366.5 474,-366.5 474,-347.5 426,-347.5"/>
<text text-anchor="middle" x="450" y="-354.5" font-family="Helvetica,sans-Serif" font-size="10.00">iosfwd</text>
</a>
</g>
</g>
<!-- Node35&#45;&gt;Node36 -->
<g id="edge48" class="edge">
<title>Node35&#45;&gt;Node36</title>
<path fill="none" stroke="midnightblue" d="M419.16,-408.98C424.45,-400.23 432.84,-386.37 439.53,-375.31"/>
<polygon fill="midnightblue" stroke="midnightblue" points="442.67,-376.88 444.85,-366.51 436.68,-373.25 442.67,-376.88"/>
</g>
<!-- Node37 -->
<g id="node37" class="node">
<title>Node37</title>
<g id="a_node37"><a xlink:title=" ">
<polygon fill="white" stroke="#bfbfbf" points="438,-291.5 438,-310.5 496,-310.5 496,-291.5 438,-291.5"/>
<text text-anchor="middle" x="467" y="-298.5" font-family="Helvetica,sans-Serif" font-size="10.00">memory</text>
</a>
</g>
</g>
<!-- Node35&#45;&gt;Node37 -->
<g id="edge49" class="edge">
<title>Node35&#45;&gt;Node37</title>
<path fill="none" stroke="midnightblue" d="M412.3,-408.75C410.05,-394.89 407.39,-367.39 417,-347 422.83,-334.62 433.8,-324.14 443.98,-316.42"/>
<polygon fill="midnightblue" stroke="midnightblue" points="446.07,-319.23 452.22,-310.61 442.03,-313.52 446.07,-319.23"/>
</g>
<!-- Node38 -->
<g id="node38" class="node">
<title>Node38</title>
<g id="a_node38"><a xlink:title=" ">
<polygon fill="white" stroke="#bfbfbf" points="492,-347.5 492,-366.5 548,-366.5 548,-347.5 492,-347.5"/>
<text text-anchor="middle" x="520" y="-354.5" font-family="Helvetica,sans-Serif" font-size="10.00">optional</text>
</a>
</g>
</g>
<!-- Node35&#45;&gt;Node38 -->
<g id="edge50" class="edge">
<title>Node35&#45;&gt;Node38</title>
<path fill="none" stroke="midnightblue" d="M429.19,-408.98C446.66,-399.17 475.58,-382.93 496.08,-371.42"/>
<polygon fill="midnightblue" stroke="midnightblue" points="497.83,-374.46 504.84,-366.51 494.41,-368.35 497.83,-374.46"/>
</g>
<!-- Node39 -->
<g id="node39" class="node">
<title>Node39</title>
<g id="a_node39"><a xlink:href="Logger_8hpp.html" target="_top" xlink:title=" ">
<polygon fill="white" stroke="black" points="666.5,-347.5 666.5,-366.5 775.5,-366.5 775.5,-347.5 666.5,-347.5"/>
<text text-anchor="middle" x="721" y="-354.5" font-family="Helvetica,sans-Serif" font-size="10.00">logging/Logger.hpp</text>
</a>
</g>
</g>
<!-- Node35&#45;&gt;Node39 -->
<g id="edge53" class="edge">
<title>Node35&#45;&gt;Node39</title>
<path fill="none" stroke="midnightblue" d="M446.43,-408.99C454.74,-406.92 463.68,-404.79 472,-403 534.88,-389.47 607.28,-376.7 657.75,-368.24"/>
<polygon fill="midnightblue" stroke="midnightblue" points="658.57,-371.65 667.85,-366.56 657.41,-364.75 658.57,-371.65"/>
</g>
<!-- Node35&#45;&gt;Node42 -->
<g id="edge61" class="edge">
<title>Node35&#45;&gt;Node42</title>
<path fill="none" stroke="midnightblue" d="M378.47,-408.98C334.45,-398.42 259.41,-380.41 211.3,-368.87"/>
<polygon fill="midnightblue" stroke="midnightblue" points="212.01,-365.44 201.47,-366.51 210.37,-372.25 212.01,-365.44"/>
</g>
<!-- Node43 -->
<g id="node43" class="node">
<title>Node43</title>
<g id="a_node43"><a xlink:title=" ">
<polygon fill="white" stroke="#bfbfbf" points="566,-347.5 566,-366.5 610,-366.5 610,-347.5 566,-347.5"/>
<text text-anchor="middle" x="588" y="-354.5" font-family="Helvetica,sans-Serif" font-size="10.00">mpi.h</text>
</a>
</g>
</g>
<!-- Node35&#45;&gt;Node43 -->
<g id="edge62" class="edge">
<title>Node35&#45;&gt;Node43</title>
<path fill="none" stroke="midnightblue" d="M438.93,-408.98C469.76,-398.43 522.28,-380.47 556.04,-368.93"/>
<polygon fill="midnightblue" stroke="midnightblue" points="557.54,-372.11 565.87,-365.57 555.28,-365.49 557.54,-372.11"/>
</g>
<!-- Node39&#45;&gt;Node12 -->
<g id="edge55" class="edge">
<title>Node39&#45;&gt;Node12</title>
<path fill="none" stroke="midnightblue" d="M775.67,-353.1C870.52,-345.02 1065.55,-314.48 1171,-199 1185.16,-183.5 1189.15,-159.05 1190.09,-142.09"/>
<polygon fill="midnightblue" stroke="midnightblue" points="1193.6,-141.83 1190.34,-131.74 1186.6,-141.66 1193.6,-141.83"/>
</g>
<!-- Node39&#45;&gt;Node37 -->
<g id="edge54" class="edge">
<title>Node39&#45;&gt;Node37</title>
<path fill="none" stroke="midnightblue" d="M680.75,-347.44C632.92,-337.28 553.65,-320.42 506.26,-310.35"/>
<polygon fill="midnightblue" stroke="midnightblue" points="506.88,-306.9 496.37,-308.24 505.42,-313.75 506.88,-306.9"/>
</g>
<!-- Node40 -->
<g id="node40" class="node">
<title>Node40</title>
<g id="a_node40"><a xlink:href="LogMacros_8hpp.html" target="_top" xlink:title=" ">
<polygon fill="white" stroke="black" points="651,-291.5 651,-310.5 741,-310.5 741,-291.5 651,-291.5"/>
<text text-anchor="middle" x="696" y="-298.5" font-family="Helvetica,sans-Serif" font-size="10.00">LogMacros.hpp</text>
</a>
</g>
</g>
<!-- Node39&#45;&gt;Node40 -->
<g id="edge56" class="edge">
<title>Node39&#45;&gt;Node40</title>
<path fill="none" stroke="midnightblue" d="M716.87,-347.08C713.49,-339.77 708.58,-329.18 704.38,-320.1"/>
<polygon fill="midnightblue" stroke="midnightblue" points="707.43,-318.36 700.05,-310.75 701.08,-321.3 707.43,-318.36"/>
</g>
<!-- Node40&#45;&gt;Node13 -->
<g id="edge57" class="edge">
<title>Node40&#45;&gt;Node13</title>
<path fill="none" stroke="midnightblue" d="M695.84,-291.38C695.07,-277.36 691.44,-249.71 675,-235 615.51,-181.75 576.46,-218.35 499,-199 495.14,-198.04 491.13,-196.96 487.14,-195.85"/>
<polygon fill="midnightblue" stroke="midnightblue" points="487.93,-192.44 477.36,-193.05 486,-199.17 487.93,-192.44"/>
</g>
<!-- Node40&#45;&gt;Node31 -->
<g id="edge58" class="edge">
<title>Node40&#45;&gt;Node31</title>
<path fill="none" stroke="midnightblue" d="M718.66,-291.44C742.4,-282.48 779.91,-268.31 806.74,-258.18"/>
<polygon fill="midnightblue" stroke="midnightblue" points="808.33,-261.32 816.45,-254.52 805.86,-254.77 808.33,-261.32"/>
</g>
<!-- Node41 -->
<g id="node41" class="node">
<title>Node41</title>
<g id="a_node41"><a xlink:href="Tracer_8hpp.html" target="_top" xlink:title=" ">
<polygon fill="white" stroke="black" points="560.5,-235.5 560.5,-254.5 665.5,-254.5 665.5,-235.5 560.5,-235.5"/>
<text text-anchor="middle" x="613" y="-242.5" font-family="Helvetica,sans-Serif" font-size="10.00">logging/Tracer.hpp</text>
</a>
</g>
</g>
<!-- Node40&#45;&gt;Node41 -->
<g id="edge59" class="edge">
<title>Node40&#45;&gt;Node41</title>
<path fill="none" stroke="midnightblue" d="M682.66,-291.32C669.84,-282.98 650.22,-270.21 635.06,-260.35"/>
<polygon fill="midnightblue" stroke="midnightblue" points="636.59,-257.17 626.3,-254.65 632.78,-263.04 636.59,-257.17"/>
</g>
<!-- Node41&#45;&gt;Node39 -->
<g id="edge60" class="edge">
<title>Node41&#45;&gt;Node39</title>
<path fill="none" stroke="midnightblue" d="M614.97,-254.53C618.43,-267.94 626.73,-294.15 642,-311 654.64,-324.95 672.65,-335.66 688.28,-343.14"/>
<polygon fill="midnightblue" stroke="midnightblue" points="687.08,-346.43 697.63,-347.37 689.96,-340.06 687.08,-346.43"/>
</g>
<!-- Node44&#45;&gt;Node14 -->
<g id="edge64" class="edge">
<title>Node44&#45;&gt;Node14</title>
<path fill="none" stroke="midnightblue" d="M317.72,-291.46C320.01,-264.43 327.15,-180.24 330.38,-142.11"/>
<polygon fill="midnightblue" stroke="midnightblue" points="333.89,-142.13 331.25,-131.87 326.92,-141.54 333.89,-142.13"/>
</g>
<!-- Node47&#45;&gt;Node3 -->
<g id="edge76" class="edge">
<title>Node47&#45;&gt;Node3</title>
<path fill="none" stroke="midnightblue" d="M997.86,-584.5C847.32,-566.19 438.63,-510.53 329,-434 251.91,-380.18 232,-340.02 232,-246 232,-246 232,-246 232,-182.5 232,-147.9 223.6,-108.24 217.97,-85.55"/>
<polygon fill="midnightblue" stroke="midnightblue" points="221.29,-84.42 215.41,-75.61 214.51,-86.17 221.29,-84.42"/>
</g>
<!-- Node47&#45;&gt;Node7 -->
<g id="edge75" class="edge">
<title>Node47&#45;&gt;Node7</title>
<path fill="none" stroke="midnightblue" d="M1104.17,-582.49C1186.68,-567.05 1342,-531.31 1342,-481 1342,-481 1342,-481 1342,-300 1342,-191.53 1372.53,-158.48 1337,-56 1333.29,-45.29 1325.98,-35.06 1319.08,-27.07"/>
<polygon fill="midnightblue" stroke="midnightblue" points="1321.57,-24.61 1312.22,-19.63 1316.43,-29.35 1321.57,-24.61"/>
</g>
<!-- Node47&#45;&gt;Node9 -->
<g id="edge77" class="edge">
<title>Node47&#45;&gt;Node9</title>
<path fill="none" stroke="midnightblue" d="M1066.85,-582.32C1079.22,-573.98 1098.13,-561.21 1112.74,-551.35"/>
<polygon fill="midnightblue" stroke="midnightblue" points="1114.85,-554.15 1121.18,-545.65 1110.93,-548.35 1114.85,-554.15"/>
</g>
<!-- Node47&#45;&gt;Node10 -->
<g id="edge78" class="edge">
<title>Node47&#45;&gt;Node10</title>
<path fill="none" stroke="midnightblue" d="M1052.2,-582.39C1048.82,-568.39 1040.14,-540.77 1022,-526 991.05,-500.81 947.61,-489.56 911.87,-484.6"/>
<polygon fill="midnightblue" stroke="midnightblue" points="911.89,-481.08 901.53,-483.31 911.02,-488.03 911.89,-481.08"/>
</g>
</g>
</svg>
