<?xml version="1.0" encoding="UTF-8" standalone="no"?>
<!DOCTYPE svg PUBLIC "-//W3C//DTD SVG 1.1//EN"
 "http://www.w3.org/Graphics/SVG/1.1/DTD/svg11.dtd">
<!-- Generated by graphviz version 2.43.0 (0)
 -->
<!-- Title: src/mesh/Tetrahedron.hpp Pages: 1 -->
<!--zoomable 666 -->
<svg id="main" version="1.1" xmlns="http://www.w3.org/2000/svg" xmlns:xlink="http://www.w3.org/1999/xlink" xml:space="preserve" onload="init(evt)">
<style type="text/css"><![CDATA[
.edge:hover path { stroke: red; }
.edge:hover polygon { stroke: red; fill: red; }
]]></style>
<script type="text/javascript"><![CDATA[
var edges = document.getElementsByTagName('g');
if (edges && edges.length) {
  for (var i=0;i<edges.length;i++) {
    if (edges[i].id.substr(0,4)=='edge') {
      edges[i].setAttribute('class','edge');
    }
  }
}
]]></script>
        <defs>
                <circle id="rim" cx="0" cy="0" r="7"/>
                <circle id="rim2" cx="0" cy="0" r="3.5"/>
                <g id="zoomPlus">
                        <use xlink:href="#rim" fill="#404040">
                                <set attributeName="fill" to="#808080" begin="zoomplus.mouseover" end="zoomplus.mouseout"/>
                        </use>
                        <path d="M-4,0h8M0,-4v8" fill="none" stroke="white" stroke-width="1.5" pointer-events="none"/>
                </g>
                <g id="zoomMin">
                        <use xlink:href="#rim" fill="#404040">
                                <set attributeName="fill" to="#808080" begin="zoomminus.mouseover" end="zoomminus.mouseout"/>
                        </use>
                        <path d="M-4,0h8" fill="none" stroke="white" stroke-width="1.5" pointer-events="none"/>
                </g>
                <g id="dirArrow">
                        <path fill="none" stroke="white" stroke-width="1.5" d="M0,-3.0v7 M-2.5,-0.5L0,-3.0L2.5,-0.5"/>
                </g>
               <g id="resetDef">
                       <use xlink:href="#rim2" fill="#404040">
                               <set attributeName="fill" to="#808080" begin="reset.mouseover" end="reset.mouseout"/>
                       </use>
               </g>
        </defs>

<script type="text/javascript">
var viewWidth = 1496;
var viewHeight = 666;
var sectionId = 'dynsection-0';
</script>
<script xlink:href="svgpan.js"/>
<svg id="graph" class="graph">
<g id="viewport">
<title>src/mesh/Tetrahedron.hpp</title>
<polygon fill="white" stroke="transparent" points="-4,4 -4,-662 1491.5,-662 1491.5,4 -4,4"/>
<!-- Node1 -->
<g id="node1" class="node">
<title>Node1</title>
<g id="a_node1"><a xlink:title=" ">
<polygon fill="#bfbfbf" stroke="black" points="61.5,-638.5 61.5,-657.5 204.5,-657.5 204.5,-638.5 61.5,-638.5"/>
<text text-anchor="middle" x="133" y="-645.5" font-family="Helvetica,sans-Serif" font-size="10.00">src/mesh/Tetrahedron.hpp</text>
</a>
</g>
</g>
<!-- Node2 -->
<g id="node2" class="node">
<title>Node2</title>
<g id="a_node2"><a xlink:title=" ">
<polygon fill="white" stroke="#bfbfbf" points="55,-56.5 55,-75.5 97,-75.5 97,-56.5 55,-56.5"/>
<text text-anchor="middle" x="76" y="-63.5" font-family="Helvetica,sans-Serif" font-size="10.00">array</text>
</a>
</g>
</g>
<!-- Node1&#45;&gt;Node2 -->
<g id="edge1" class="edge">
<title>Node1&#45;&gt;Node2</title>
<path fill="none" stroke="midnightblue" d="M106.09,-638.41C67.22,-624.13 0,-591.54 0,-537 0,-537 0,-537 0,-417.5 0,-339.43 38,-324.07 38,-246 38,-246 38,-246 38,-182.5 38,-146.25 55.09,-106.67 66.35,-84.53"/>
<polygon fill="midnightblue" stroke="midnightblue" points="69.46,-86.14 71.03,-75.66 63.27,-82.87 69.46,-86.14"/>
</g>
<!-- Node3 -->
<g id="node3" class="node">
<title>Node3</title>
<g id="a_node3"><a xlink:title=" ">
<polygon fill="white" stroke="#bfbfbf" points="104,-409 104,-428 164,-428 164,-409 104,-409"/>
<text text-anchor="middle" x="134" y="-416" font-family="Helvetica,sans-Serif" font-size="10.00">iostream</text>
</a>
</g>
</g>
<!-- Node1&#45;&gt;Node3 -->
<g id="edge2" class="edge">
<title>Node1&#45;&gt;Node3</title>
<path fill="none" stroke="midnightblue" d="M133.04,-638.36C133.18,-605.14 133.71,-485.16 133.92,-438.37"/>
<polygon fill="midnightblue" stroke="midnightblue" points="137.42,-438.16 133.96,-428.15 130.42,-438.13 137.42,-438.16"/>
</g>
<!-- Node4 -->
<g id="node4" class="node">
<title>Node4</title>
<g id="a_node4"><a xlink:title=" ">
<polygon fill="white" stroke="#bfbfbf" points="1446.5,-582.5 1446.5,-601.5 1487.5,-601.5 1487.5,-582.5 1446.5,-582.5"/>
<text text-anchor="middle" x="1467" y="-589.5" font-family="Helvetica,sans-Serif" font-size="10.00">tuple</text>
</a>
</g>
</g>
<!-- Node1&#45;&gt;Node4 -->
<g id="edge3" class="edge">
<title>Node1&#45;&gt;Node4</title>
<path fill="none" stroke="midnightblue" d="M204.63,-646.56C440.61,-644.81 1192.18,-636.57 1432,-602 1433.47,-601.79 1434.98,-601.54 1436.49,-601.26"/>
<polygon fill="midnightblue" stroke="midnightblue" points="1437.4,-604.64 1446.42,-599.08 1435.91,-597.8 1437.4,-604.64"/>
</g>
<!-- Node5 -->
<g id="node5" class="node">
<title>Node5</title>
<g id="a_node5"><a xlink:href="Vertex_8hpp.html" target="_top" xlink:title=" ">
<polygon fill="white" stroke="black" points="165.5,-582.5 165.5,-601.5 264.5,-601.5 264.5,-582.5 165.5,-582.5"/>
<text text-anchor="middle" x="215" y="-589.5" font-family="Helvetica,sans-Serif" font-size="10.00">mesh/Vertex.hpp</text>
</a>
</g>
</g>
<!-- Node1&#45;&gt;Node5 -->
<g id="edge4" class="edge">
<title>Node1&#45;&gt;Node5</title>
<path fill="none" stroke="midnightblue" d="M146.17,-638.32C158.85,-629.98 178.23,-617.21 193.21,-607.35"/>
<polygon fill="midnightblue" stroke="midnightblue" points="195.43,-610.08 201.86,-601.65 191.58,-604.23 195.43,-610.08"/>
</g>
<!-- Node9 -->
<g id="node9" class="node">
<title>Node9</title>
<g id="a_node9"><a xlink:href="assertion_8hpp.html" target="_top" xlink:title=" ">
<polygon fill="white" stroke="black" points="475.5,-470.5 475.5,-489.5 582.5,-489.5 582.5,-470.5 475.5,-470.5"/>
<text text-anchor="middle" x="529" y="-477.5" font-family="Helvetica,sans-Serif" font-size="10.00">utils/assertion.hpp</text>
</a>
</g>
</g>
<!-- Node1&#45;&gt;Node9 -->
<g id="edge68" class="edge">
<title>Node1&#45;&gt;Node9</title>
<path fill="none" stroke="midnightblue" d="M134.78,-638.49C137.75,-625.57 144.54,-600.53 156,-582 174.18,-552.59 179.2,-541.72 210,-526 253.33,-503.89 385.05,-491.05 465.04,-485.09"/>
<polygon fill="midnightblue" stroke="midnightblue" points="465.77,-488.55 475.49,-484.33 465.26,-481.57 465.77,-488.55"/>
</g>
<!-- Node41 -->
<g id="node41" class="node">
<title>Node41</title>
<g id="a_node41"><a xlink:href="types_8hpp.html" target="_top" xlink:title=" ">
<polygon fill="white" stroke="black" points="1370.5,-347.5 1370.5,-366.5 1473.5,-366.5 1473.5,-347.5 1370.5,-347.5"/>
<text text-anchor="middle" x="1422" y="-354.5" font-family="Helvetica,sans-Serif" font-size="10.00">precice/types.hpp</text>
</a>
</g>
</g>
<!-- Node1&#45;&gt;Node41 -->
<g id="edge67" class="edge">
<title>Node1&#45;&gt;Node41</title>
<path fill="none" stroke="midnightblue" d="M204.84,-644.64C475.45,-635.3 1418,-598.36 1418,-537 1418,-537 1418,-537 1418,-479 1418,-442.69 1419.82,-400.29 1421.01,-376.55"/>
<polygon fill="midnightblue" stroke="midnightblue" points="1424.5,-376.67 1421.53,-366.51 1417.51,-376.31 1424.5,-376.67"/>
</g>
<!-- Node5&#45;&gt;Node2 -->
<g id="edge6" class="edge">
<title>Node5&#45;&gt;Node2</title>
<path fill="none" stroke="midnightblue" d="M205,-582.38C173.13,-553.89 76,-458.8 76,-358 76,-358 76,-358 76,-182.5 76,-148.36 76,-108.55 76,-85.71"/>
<polygon fill="midnightblue" stroke="midnightblue" points="79.5,-85.69 76,-75.69 72.5,-85.69 79.5,-85.69"/>
</g>
<!-- Node5&#45;&gt;Node3 -->
<g id="edge7" class="edge">
<title>Node5&#45;&gt;Node3</title>
<path fill="none" stroke="midnightblue" d="M212.07,-582.25C205.16,-562 186.83,-510.52 166,-470 160.09,-458.51 152.36,-446.25 145.98,-436.69"/>
<polygon fill="midnightblue" stroke="midnightblue" points="148.69,-434.45 140.16,-428.15 142.9,-438.39 148.69,-434.45"/>
</g>
<!-- Node6 -->
<g id="node6" class="node">
<title>Node6</title>
<g id="a_node6"><a xlink:title=" ">
<polygon fill="white" stroke="#bfbfbf" points="1095.5,-0.5 1095.5,-19.5 1164.5,-19.5 1164.5,-0.5 1095.5,-0.5"/>
<text text-anchor="middle" x="1130" y="-7.5" font-family="Helvetica,sans-Serif" font-size="10.00">Eigen/Core</text>
</a>
</g>
</g>
<!-- Node5&#45;&gt;Node6 -->
<g id="edge5" class="edge">
<title>Node5&#45;&gt;Node6</title>
<path fill="none" stroke="midnightblue" d="M199.19,-582.37C185.05,-574.19 164.27,-560.94 149,-546 42.59,-441.89 0,-394.87 0,-246 0,-246 0,-246 0,-121 0,-85.61 14.91,-72.91 46,-56 92.3,-30.81 886.59,-15.26 1085.25,-11.76"/>
<polygon fill="midnightblue" stroke="midnightblue" points="1085.39,-15.26 1095.33,-11.58 1085.27,-8.26 1085.39,-15.26"/>
</g>
<!-- Node7 -->
<g id="node7" class="node">
<title>Node7</title>
<g id="a_node7"><a xlink:title=" ">
<polygon fill="white" stroke="#bfbfbf" points="218.5,-526.5 218.5,-545.5 263.5,-545.5 263.5,-526.5 218.5,-526.5"/>
<text text-anchor="middle" x="241" y="-533.5" font-family="Helvetica,sans-Serif" font-size="10.00">utility</text>
</a>
</g>
</g>
<!-- Node5&#45;&gt;Node7 -->
<g id="edge8" class="edge">
<title>Node5&#45;&gt;Node7</title>
<path fill="none" stroke="midnightblue" d="M219.29,-582.08C222.85,-574.69 228.02,-563.95 232.42,-554.81"/>
<polygon fill="midnightblue" stroke="midnightblue" points="235.6,-556.28 236.79,-545.75 229.29,-553.24 235.6,-556.28"/>
</g>
<!-- Node8 -->
<g id="node8" class="node">
<title>Node8</title>
<g id="a_node8"><a xlink:href="differences_8hpp.html" target="_top" xlink:title=" ">
<polygon fill="white" stroke="black" points="469,-526.5 469,-545.5 589,-545.5 589,-526.5 469,-526.5"/>
<text text-anchor="middle" x="529" y="-533.5" font-family="Helvetica,sans-Serif" font-size="10.00">math/differences.hpp</text>
</a>
</g>
</g>
<!-- Node5&#45;&gt;Node8 -->
<g id="edge9" class="edge">
<title>Node5&#45;&gt;Node8</title>
<path fill="none" stroke="midnightblue" d="M264.75,-582.44C320.33,-572.89 410.26,-557.42 469.52,-547.23"/>
<polygon fill="midnightblue" stroke="midnightblue" points="470.22,-550.66 479.48,-545.52 469.03,-543.76 470.22,-550.66"/>
</g>
<!-- Node5&#45;&gt;Node9 -->
<g id="edge66" class="edge">
<title>Node5&#45;&gt;Node9</title>
<path fill="none" stroke="midnightblue" d="M239.38,-582.46C294.91,-563.01 430.93,-515.36 494.81,-492.98"/>
<polygon fill="midnightblue" stroke="midnightblue" points="496.14,-496.22 504.42,-489.61 493.83,-489.61 496.14,-496.22"/>
</g>
<!-- Node5&#45;&gt;Node41 -->
<g id="edge65" class="edge">
<title>Node5&#45;&gt;Node41</title>
<path fill="none" stroke="midnightblue" d="M264.5,-589.44C471.94,-582.52 1264.66,-552.18 1356,-490 1366.27,-483.01 1398.86,-410.85 1414.05,-376.28"/>
<polygon fill="midnightblue" stroke="midnightblue" points="1417.37,-377.43 1418.17,-366.87 1410.96,-374.63 1417.37,-377.43"/>
</g>
<!-- Node8&#45;&gt;Node6 -->
<g id="edge10" class="edge">
<title>Node8&#45;&gt;Node6</title>
<path fill="none" stroke="midnightblue" d="M589.21,-535.54C712.31,-534.65 999.74,-522.38 1220,-434 1263.78,-416.43 1365.65,-349.43 1393,-311 1410.45,-286.48 1412,-276.1 1412,-246 1412,-246 1412,-246 1412,-121 1412,-70.71 1254.35,-34.13 1174.8,-18.87"/>
<polygon fill="midnightblue" stroke="midnightblue" points="1175.05,-15.36 1164.58,-16.94 1173.76,-22.23 1175.05,-15.36"/>
</g>
<!-- Node8&#45;&gt;Node9 -->
<g id="edge11" class="edge">
<title>Node8&#45;&gt;Node9</title>
<path fill="none" stroke="midnightblue" d="M529,-526.08C529,-519.01 529,-508.86 529,-499.99"/>
<polygon fill="midnightblue" stroke="midnightblue" points="532.5,-499.75 529,-489.75 525.5,-499.75 532.5,-499.75"/>
</g>
<!-- Node9&#45;&gt;Node3 -->
<g id="edge13" class="edge">
<title>Node9&#45;&gt;Node3</title>
<path fill="none" stroke="midnightblue" d="M475.22,-475.31C405.87,-469.82 281.8,-457.53 178,-434 174.33,-433.17 170.54,-432.16 166.78,-431.06"/>
<polygon fill="midnightblue" stroke="midnightblue" points="167.65,-427.66 157.06,-428.02 165.56,-434.34 167.65,-427.66"/>
</g>
<!-- Node10 -->
<g id="node10" class="node">
<title>Node10</title>
<g id="a_node10"><a xlink:title=" ">
<polygon fill="white" stroke="#bfbfbf" points="813.5,-409 813.5,-428 862.5,-428 862.5,-409 813.5,-409"/>
<text text-anchor="middle" x="838" y="-416" font-family="Helvetica,sans-Serif" font-size="10.00">cstdlib</text>
</a>
</g>
</g>
<!-- Node9&#45;&gt;Node10 -->
<g id="edge12" class="edge">
<title>Node9&#45;&gt;Node10</title>
<path fill="none" stroke="midnightblue" d="M582.56,-474.1C638.6,-468.07 728.74,-455.86 804,-434 806.29,-433.34 808.63,-432.56 810.95,-431.72"/>
<polygon fill="midnightblue" stroke="midnightblue" points="812.3,-434.95 820.3,-428 809.71,-428.44 812.3,-434.95"/>
</g>
<!-- Node11 -->
<g id="node11" class="node">
<title>Node11</title>
<g id="a_node11"><a xlink:title=" ">
<polygon fill="white" stroke="#bfbfbf" points="1014.5,-112.5 1014.5,-131.5 1087.5,-131.5 1087.5,-112.5 1014.5,-112.5"/>
<text text-anchor="middle" x="1051" y="-119.5" font-family="Helvetica,sans-Serif" font-size="10.00">string_view</text>
</a>
</g>
</g>
<!-- Node9&#45;&gt;Node11 -->
<g id="edge14" class="edge">
<title>Node9&#45;&gt;Node11</title>
<path fill="none" stroke="midnightblue" d="M582.62,-476.15C678,-470.54 869.07,-456.58 889,-434 898.12,-423.67 895.16,-415.32 889,-403 877.07,-379.15 852.93,-390.85 841,-367 837.02,-359.05 838.04,-355.38 841,-347 847.83,-327.62 858.81,-328.23 870,-311 890.68,-279.16 884.88,-264.32 909,-235 943.9,-192.59 997.39,-155.85 1027.79,-136.83"/>
<polygon fill="midnightblue" stroke="midnightblue" points="1029.75,-139.73 1036.43,-131.51 1026.08,-133.77 1029.75,-139.73"/>
</g>
<!-- Node12 -->
<g id="node12" class="node">
<title>Node12</title>
<g id="a_node12"><a xlink:href="fmt_8hpp.html" target="_top" xlink:title=" ">
<polygon fill="white" stroke="black" points="776.5,-174 776.5,-193 855.5,-193 855.5,-174 776.5,-174"/>
<text text-anchor="middle" x="816" y="-181" font-family="Helvetica,sans-Serif" font-size="10.00">utils/fmt.hpp</text>
</a>
</g>
</g>
<!-- Node9&#45;&gt;Node12 -->
<g id="edge15" class="edge">
<title>Node9&#45;&gt;Node12</title>
<path fill="none" stroke="midnightblue" d="M582.61,-475.8C674.31,-469.77 853.23,-455.39 872,-434 881.09,-423.64 878.96,-414.89 872,-403 855.52,-374.83 833.01,-387.97 808,-367 783.32,-346.31 772.86,-341.32 762,-311 747.53,-270.58 780.02,-224.54 800.65,-200.71"/>
<polygon fill="midnightblue" stroke="midnightblue" points="803.27,-203.03 807.35,-193.25 798.06,-198.35 803.27,-203.03"/>
</g>
<!-- Node25 -->
<g id="node25" class="node">
<title>Node25</title>
<g id="a_node25"><a xlink:title=" ">
<polygon fill="white" stroke="#bfbfbf" points="296.5,-409 296.5,-428 443.5,-428 443.5,-409 296.5,-409"/>
<text text-anchor="middle" x="370" y="-416" font-family="Helvetica,sans-Serif" font-size="10.00">boost/current_function.hpp</text>
</a>
</g>
</g>
<!-- Node9&#45;&gt;Node25 -->
<g id="edge34" class="edge">
<title>Node9&#45;&gt;Node25</title>
<path fill="none" stroke="midnightblue" d="M506.22,-470.48C478.95,-460.27 433.09,-443.11 402.2,-431.55"/>
<polygon fill="midnightblue" stroke="midnightblue" points="403.33,-428.24 392.74,-428.01 400.88,-434.79 403.33,-428.24"/>
</g>
<!-- Node26 -->
<g id="node26" class="node">
<title>Node26</title>
<g id="a_node26"><a xlink:title=" ">
<polygon fill="white" stroke="#bfbfbf" points="461.5,-403.5 461.5,-433.5 596.5,-433.5 596.5,-403.5 461.5,-403.5"/>
<text text-anchor="start" x="469.5" y="-421.5" font-family="Helvetica,sans-Serif" font-size="10.00">boost/preprocessor</text>
<text text-anchor="middle" x="529" y="-410.5" font-family="Helvetica,sans-Serif" font-size="10.00">/comparison/greater.hpp</text>
</a>
</g>
</g>
<!-- Node9&#45;&gt;Node26 -->
<g id="edge35" class="edge">
<title>Node9&#45;&gt;Node26</title>
<path fill="none" stroke="midnightblue" d="M529,-470.48C529,-463.47 529,-453.19 529,-443.7"/>
<polygon fill="midnightblue" stroke="midnightblue" points="532.5,-443.52 529,-433.52 525.5,-443.52 532.5,-443.52"/>
</g>
<!-- Node27 -->
<g id="node27" class="node">
<title>Node27</title>
<g id="a_node27"><a xlink:title=" ">
<polygon fill="white" stroke="#bfbfbf" points="104,-168.5 104,-198.5 214,-198.5 214,-168.5 104,-168.5"/>
<text text-anchor="start" x="112" y="-186.5" font-family="Helvetica,sans-Serif" font-size="10.00">boost/preprocessor</text>
<text text-anchor="middle" x="159" y="-175.5" font-family="Helvetica,sans-Serif" font-size="10.00">/control/if.hpp</text>
</a>
</g>
</g>
<!-- Node9&#45;&gt;Node27 -->
<g id="edge36" class="edge">
<title>Node9&#45;&gt;Node27</title>
<path fill="none" stroke="midnightblue" d="M475.22,-476.34C401.26,-471.76 272.99,-460.21 235,-434 203.05,-411.96 192,-396.81 192,-358 192,-358 192,-358 192,-300 192,-267.12 179.48,-230.93 169.87,-207.98"/>
<polygon fill="midnightblue" stroke="midnightblue" points="173.03,-206.49 165.84,-198.71 166.62,-209.28 173.03,-206.49"/>
</g>
<!-- Node28 -->
<g id="node28" class="node">
<title>Node28</title>
<g id="a_node28"><a xlink:title=" ">
<polygon fill="white" stroke="#bfbfbf" points="232,-168.5 232,-198.5 342,-198.5 342,-168.5 232,-168.5"/>
<text text-anchor="start" x="240" y="-186.5" font-family="Helvetica,sans-Serif" font-size="10.00">boost/preprocessor</text>
<text text-anchor="middle" x="287" y="-175.5" font-family="Helvetica,sans-Serif" font-size="10.00">/stringize.hpp</text>
</a>
</g>
</g>
<!-- Node9&#45;&gt;Node28 -->
<g id="edge37" class="edge">
<title>Node9&#45;&gt;Node28</title>
<path fill="none" stroke="midnightblue" d="M475.33,-475.23C409.29,-469.65 301.96,-457.27 270,-434 239.14,-411.54 230,-396.17 230,-358 230,-358 230,-358 230,-300 230,-264.66 251.72,-228.94 268.34,-206.78"/>
<polygon fill="midnightblue" stroke="midnightblue" points="271.25,-208.74 274.63,-198.7 265.73,-204.44 271.25,-208.74"/>
</g>
<!-- Node29 -->
<g id="node29" class="node">
<title>Node29</title>
<g id="a_node29"><a xlink:title=" ">
<polygon fill="white" stroke="#bfbfbf" points="615,-403.5 615,-433.5 725,-433.5 725,-403.5 615,-403.5"/>
<text text-anchor="start" x="623" y="-421.5" font-family="Helvetica,sans-Serif" font-size="10.00">boost/preprocessor</text>
<text text-anchor="middle" x="670" y="-410.5" font-family="Helvetica,sans-Serif" font-size="10.00">/variadic/size.hpp</text>
</a>
</g>
</g>
<!-- Node9&#45;&gt;Node29 -->
<g id="edge38" class="edge">
<title>Node9&#45;&gt;Node29</title>
<path fill="none" stroke="midnightblue" d="M549.2,-470.48C569.55,-461.89 601.56,-448.38 627.51,-437.43"/>
<polygon fill="midnightblue" stroke="midnightblue" points="628.92,-440.64 636.77,-433.52 626.2,-434.19 628.92,-440.64"/>
</g>
<!-- Node30 -->
<g id="node30" class="node">
<title>Node30</title>
<g id="a_node30"><a xlink:href="ArgumentFormatter_8hpp.html" target="_top" xlink:title=" ">
<polygon fill="white" stroke="black" points="420.5,-235.5 420.5,-254.5 577.5,-254.5 577.5,-235.5 420.5,-235.5"/>
<text text-anchor="middle" x="499" y="-242.5" font-family="Helvetica,sans-Serif" font-size="10.00">utils/ArgumentFormatter.hpp</text>
</a>
</g>
</g>
<!-- Node9&#45;&gt;Node30 -->
<g id="edge39" class="edge">
<title>Node9&#45;&gt;Node30</title>
<path fill="none" stroke="midnightblue" d="M475.46,-476.72C411.85,-472.76 311.35,-462.12 288,-434 225.15,-358.33 390.17,-285.87 464.68,-258.01"/>
<polygon fill="midnightblue" stroke="midnightblue" points="465.97,-261.27 474.14,-254.53 463.55,-254.7 465.97,-261.27"/>
</g>
<!-- Node34 -->
<g id="node34" class="node">
<title>Node34</title>
<g id="a_node34"><a xlink:href="Parallel_8hpp.html" target="_top" xlink:title=" ">
<polygon fill="white" stroke="black" points="1067,-409 1067,-428 1165,-428 1165,-409 1067,-409"/>
<text text-anchor="middle" x="1116" y="-416" font-family="Helvetica,sans-Serif" font-size="10.00">utils/Parallel.hpp</text>
</a>
</g>
</g>
<!-- Node9&#45;&gt;Node34 -->
<g id="edge46" class="edge">
<title>Node9&#45;&gt;Node34</title>
<path fill="none" stroke="midnightblue" d="M582.65,-473.56C692.54,-462.42 942.49,-437.09 1056.87,-425.49"/>
<polygon fill="midnightblue" stroke="midnightblue" points="1057.26,-428.97 1066.85,-424.48 1056.55,-422.01 1057.26,-428.97"/>
</g>
<!-- Node43 -->
<g id="node43" class="node">
<title>Node43</title>
<g id="a_node43"><a xlink:href="stacktrace_8hpp.html" target="_top" xlink:title=" ">
<polygon fill="white" stroke="black" points="1270.5,-291.5 1270.5,-310.5 1383.5,-310.5 1383.5,-291.5 1270.5,-291.5"/>
<text text-anchor="middle" x="1327" y="-298.5" font-family="Helvetica,sans-Serif" font-size="10.00">utils/stacktrace.hpp</text>
</a>
</g>
</g>
<!-- Node9&#45;&gt;Node43 -->
<g id="edge62" class="edge">
<title>Node9&#45;&gt;Node43</title>
<path fill="none" stroke="midnightblue" d="M582.58,-478.62C716.83,-477.13 1064.66,-469.83 1174,-434 1226.96,-416.64 1239.38,-405.16 1280,-367 1295.01,-352.9 1308.36,-333.4 1316.96,-319.45"/>
<polygon fill="midnightblue" stroke="midnightblue" points="1320,-321.18 1322.12,-310.8 1313.99,-317.6 1320,-321.18"/>
</g>
<!-- Node44 -->
<g id="node44" class="node">
<title>Node44</title>
<g id="a_node44"><a xlink:title=" ">
<polygon fill="white" stroke="#bfbfbf" points="743,-409 743,-428 795,-428 795,-409 743,-409"/>
<text text-anchor="middle" x="769" y="-416" font-family="Helvetica,sans-Serif" font-size="10.00">cassert</text>
</a>
</g>
</g>
<!-- Node9&#45;&gt;Node44 -->
<g id="edge64" class="edge">
<title>Node9&#45;&gt;Node44</title>
<path fill="none" stroke="midnightblue" d="M579.78,-470.44C621.67,-462.76 682.38,-450.22 734,-434 736.14,-433.33 738.33,-432.58 740.53,-431.78"/>
<polygon fill="midnightblue" stroke="midnightblue" points="741.92,-434.99 749.97,-428.1 739.38,-428.47 741.92,-434.99"/>
</g>
<!-- Node12&#45;&gt;Node11 -->
<g id="edge17" class="edge">
<title>Node12&#45;&gt;Node11</title>
<path fill="none" stroke="midnightblue" d="M849.67,-173.98C891.2,-163.46 961.89,-145.56 1007.5,-134.01"/>
<polygon fill="midnightblue" stroke="midnightblue" points="1008.56,-137.36 1017.39,-131.51 1006.84,-130.57 1008.56,-137.36"/>
</g>
<!-- Node13 -->
<g id="node13" class="node">
<title>Node13</title>
<g id="a_node13"><a xlink:title=" ">
<polygon fill="white" stroke="#bfbfbf" points="1232,-112.5 1232,-131.5 1276,-131.5 1276,-112.5 1232,-112.5"/>
<text text-anchor="middle" x="1254" y="-119.5" font-family="Helvetica,sans-Serif" font-size="10.00">string</text>
</a>
</g>
</g>
<!-- Node12&#45;&gt;Node13 -->
<g id="edge16" class="edge">
<title>Node12&#45;&gt;Node13</title>
<path fill="none" stroke="midnightblue" d="M855.64,-177.11C941.32,-165.48 1142.38,-138.16 1221.34,-127.44"/>
<polygon fill="midnightblue" stroke="midnightblue" points="1222.21,-130.85 1231.65,-126.04 1221.27,-123.91 1222.21,-130.85"/>
</g>
<!-- Node14 -->
<g id="node14" class="node">
<title>Node14</title>
<g id="a_node14"><a xlink:title=" ">
<polygon fill="white" stroke="#bfbfbf" points="762.5,-56.5 762.5,-75.5 841.5,-75.5 841.5,-56.5 762.5,-56.5"/>
<text text-anchor="middle" x="802" y="-63.5" font-family="Helvetica,sans-Serif" font-size="10.00">fmt/format.h</text>
</a>
</g>
</g>
<!-- Node12&#45;&gt;Node14 -->
<g id="edge18" class="edge">
<title>Node12&#45;&gt;Node14</title>
<path fill="none" stroke="midnightblue" d="M814.95,-173.82C812.7,-155.26 807.37,-111.34 804.3,-85.97"/>
<polygon fill="midnightblue" stroke="midnightblue" points="807.74,-85.29 803.06,-75.78 800.79,-86.13 807.74,-85.29"/>
</g>
<!-- Node15 -->
<g id="node15" class="node">
<title>Node15</title>
<g id="a_node15"><a xlink:title=" ">
<polygon fill="white" stroke="#bfbfbf" points="574,-112.5 574,-131.5 660,-131.5 660,-112.5 574,-112.5"/>
<text text-anchor="middle" x="617" y="-119.5" font-family="Helvetica,sans-Serif" font-size="10.00">fmt/ostream.h</text>
</a>
</g>
</g>
<!-- Node12&#45;&gt;Node15 -->
<g id="edge19" class="edge">
<title>Node12&#45;&gt;Node15</title>
<path fill="none" stroke="midnightblue" d="M787.83,-173.97C781.32,-172.01 774.42,-169.93 768,-168 729.75,-156.52 686.02,-143.5 655.49,-134.43"/>
<polygon fill="midnightblue" stroke="midnightblue" points="656.26,-131 645.68,-131.51 654.27,-137.71 656.26,-131"/>
</g>
<!-- Node16 -->
<g id="node16" class="node">
<title>Node16</title>
<g id="a_node16"><a xlink:href="fmtEigen_8hpp.html" target="_top" xlink:title=" ">
<polygon fill="white" stroke="black" points="890,-112.5 890,-131.5 996,-131.5 996,-112.5 890,-112.5"/>
<text text-anchor="middle" x="943" y="-119.5" font-family="Helvetica,sans-Serif" font-size="10.00">utils/fmtEigen.hpp</text>
</a>
</g>
</g>
<!-- Node12&#45;&gt;Node16 -->
<g id="edge20" class="edge">
<title>Node12&#45;&gt;Node16</title>
<path fill="none" stroke="midnightblue" d="M834.2,-173.98C855.51,-163.99 891.03,-147.35 915.66,-135.81"/>
<polygon fill="midnightblue" stroke="midnightblue" points="917.27,-138.92 924.84,-131.51 914.3,-132.58 917.27,-138.92"/>
</g>
<!-- Node20 -->
<g id="node20" class="node">
<title>Node20</title>
<g id="a_node20"><a xlink:href="fmtSTL_8hpp.html" target="_top" xlink:title=" ">
<polygon fill="white" stroke="black" points="678,-112.5 678,-131.5 774,-131.5 774,-112.5 678,-112.5"/>
<text text-anchor="middle" x="726" y="-119.5" font-family="Helvetica,sans-Serif" font-size="10.00">utils/fmtSTL.hpp</text>
</a>
</g>
</g>
<!-- Node12&#45;&gt;Node20 -->
<g id="edge27" class="edge">
<title>Node12&#45;&gt;Node20</title>
<path fill="none" stroke="midnightblue" d="M803.11,-173.98C788.54,-164.34 764.6,-148.52 747.25,-137.05"/>
<polygon fill="midnightblue" stroke="midnightblue" points="749.14,-134.1 738.87,-131.51 745.28,-139.94 749.14,-134.1"/>
</g>
<!-- Node16&#45;&gt;Node6 -->
<g id="edge21" class="edge">
<title>Node16&#45;&gt;Node6</title>
<path fill="none" stroke="midnightblue" d="M983.49,-112.49C1010.19,-105.58 1045.08,-93.98 1072,-76 1090.98,-63.32 1107.74,-43 1118.3,-28.45"/>
<polygon fill="midnightblue" stroke="midnightblue" points="1121.44,-30.06 1124.31,-19.86 1115.71,-26.05 1121.44,-30.06"/>
</g>
<!-- Node16&#45;&gt;Node14 -->
<g id="edge23" class="edge">
<title>Node16&#45;&gt;Node14</title>
<path fill="none" stroke="midnightblue" d="M920.66,-112.44C897.25,-103.48 860.26,-89.31 833.81,-79.18"/>
<polygon fill="midnightblue" stroke="midnightblue" points="834.83,-75.82 824.24,-75.52 832.32,-82.36 834.83,-75.82"/>
</g>
<!-- Node17 -->
<g id="node17" class="node">
<title>Node17</title>
<g id="a_node17"><a xlink:title=" ">
<polygon fill="white" stroke="#bfbfbf" points="925,-56.5 925,-75.5 989,-75.5 989,-56.5 925,-56.5"/>
<text text-anchor="middle" x="957" y="-63.5" font-family="Helvetica,sans-Serif" font-size="10.00">algorithm</text>
</a>
</g>
</g>
<!-- Node16&#45;&gt;Node17 -->
<g id="edge22" class="edge">
<title>Node16&#45;&gt;Node17</title>
<path fill="none" stroke="midnightblue" d="M945.31,-112.08C947.17,-104.93 949.84,-94.64 952.15,-85.69"/>
<polygon fill="midnightblue" stroke="midnightblue" points="955.61,-86.31 954.73,-75.75 948.83,-84.55 955.61,-86.31"/>
</g>
<!-- Node18 -->
<g id="node18" class="node">
<title>Node18</title>
<g id="a_node18"><a xlink:title=" ">
<polygon fill="white" stroke="#bfbfbf" points="1007,-56.5 1007,-75.5 1063,-75.5 1063,-56.5 1007,-56.5"/>
<text text-anchor="middle" x="1035" y="-63.5" font-family="Helvetica,sans-Serif" font-size="10.00">sstream</text>
</a>
</g>
</g>
<!-- Node16&#45;&gt;Node18 -->
<g id="edge24" class="edge">
<title>Node16&#45;&gt;Node18</title>
<path fill="none" stroke="midnightblue" d="M957.78,-112.32C972.27,-103.82 994.57,-90.73 1011.49,-80.8"/>
<polygon fill="midnightblue" stroke="midnightblue" points="1013.4,-83.74 1020.26,-75.65 1009.86,-77.7 1013.4,-83.74"/>
</g>
<!-- Node19 -->
<g id="node19" class="node">
<title>Node19</title>
<g id="a_node19"><a xlink:href="EigenIO_8hpp.html" target="_top" xlink:title=" ">
<polygon fill="white" stroke="black" points="1119.5,-56.5 1119.5,-75.5 1218.5,-75.5 1218.5,-56.5 1119.5,-56.5"/>
<text text-anchor="middle" x="1169" y="-63.5" font-family="Helvetica,sans-Serif" font-size="10.00">utils/EigenIO.hpp</text>
</a>
</g>
</g>
<!-- Node16&#45;&gt;Node19 -->
<g id="edge25" class="edge">
<title>Node16&#45;&gt;Node19</title>
<path fill="none" stroke="midnightblue" d="M978.81,-112.44C1017.99,-103.08 1080.88,-88.06 1123.52,-77.87"/>
<polygon fill="midnightblue" stroke="midnightblue" points="1124.44,-81.24 1133.36,-75.52 1122.82,-74.44 1124.44,-81.24"/>
</g>
<!-- Node19&#45;&gt;Node6 -->
<g id="edge26" class="edge">
<title>Node19&#45;&gt;Node6</title>
<path fill="none" stroke="midnightblue" d="M1162.56,-56.08C1157.05,-48.46 1148.97,-37.26 1142.24,-27.94"/>
<polygon fill="midnightblue" stroke="midnightblue" points="1145.01,-25.81 1136.32,-19.75 1139.34,-29.91 1145.01,-25.81"/>
</g>
<!-- Node20&#45;&gt;Node2 -->
<g id="edge28" class="edge">
<title>Node20&#45;&gt;Node2</title>
<path fill="none" stroke="midnightblue" d="M677.84,-113.11C674.85,-112.71 671.89,-112.34 669,-112 454.88,-87.01 195.57,-72.85 107.22,-68.48"/>
<polygon fill="midnightblue" stroke="midnightblue" points="107.23,-64.97 97.07,-67.98 106.88,-71.97 107.23,-64.97"/>
</g>
<!-- Node20&#45;&gt;Node14 -->
<g id="edge30" class="edge">
<title>Node20&#45;&gt;Node14</title>
<path fill="none" stroke="midnightblue" d="M738.21,-112.32C749.78,-104.11 767.38,-91.6 781.16,-81.81"/>
<polygon fill="midnightblue" stroke="midnightblue" points="783.44,-84.48 789.57,-75.83 779.39,-78.77 783.44,-84.48"/>
</g>
<!-- Node21 -->
<g id="node21" class="node">
<title>Node21</title>
<g id="a_node21"><a xlink:title=" ">
<polygon fill="white" stroke="#bfbfbf" points="697.5,-56.5 697.5,-75.5 744.5,-75.5 744.5,-56.5 697.5,-56.5"/>
<text text-anchor="middle" x="721" y="-63.5" font-family="Helvetica,sans-Serif" font-size="10.00">deque</text>
</a>
</g>
</g>
<!-- Node20&#45;&gt;Node21 -->
<g id="edge29" class="edge">
<title>Node20&#45;&gt;Node21</title>
<path fill="none" stroke="midnightblue" d="M725.17,-112.08C724.52,-105.01 723.58,-94.86 722.76,-85.99"/>
<polygon fill="midnightblue" stroke="midnightblue" points="726.22,-85.39 721.81,-75.75 719.25,-86.03 726.22,-85.39"/>
</g>
<!-- Node22 -->
<g id="node22" class="node">
<title>Node22</title>
<g id="a_node22"><a xlink:title=" ">
<polygon fill="white" stroke="#bfbfbf" points="591,-56.5 591,-75.5 629,-75.5 629,-56.5 591,-56.5"/>
<text text-anchor="middle" x="610" y="-63.5" font-family="Helvetica,sans-Serif" font-size="10.00">map</text>
</a>
</g>
</g>
<!-- Node20&#45;&gt;Node22 -->
<g id="edge31" class="edge">
<title>Node20&#45;&gt;Node22</title>
<path fill="none" stroke="midnightblue" d="M707.62,-112.44C688.78,-103.68 659.27,-89.94 637.62,-79.86"/>
<polygon fill="midnightblue" stroke="midnightblue" points="638.84,-76.56 628.29,-75.52 635.88,-82.91 638.84,-76.56"/>
</g>
<!-- Node23 -->
<g id="node23" class="node">
<title>Node23</title>
<g id="a_node23"><a xlink:title=" ">
<polygon fill="white" stroke="#bfbfbf" points="647,-56.5 647,-75.5 679,-75.5 679,-56.5 647,-56.5"/>
<text text-anchor="middle" x="663" y="-63.5" font-family="Helvetica,sans-Serif" font-size="10.00">set</text>
</a>
</g>
</g>
<!-- Node20&#45;&gt;Node23 -->
<g id="edge32" class="edge">
<title>Node20&#45;&gt;Node23</title>
<path fill="none" stroke="midnightblue" d="M715.88,-112.32C706.47,-104.26 692.26,-92.08 680.93,-82.37"/>
<polygon fill="midnightblue" stroke="midnightblue" points="683.18,-79.68 673.31,-75.83 678.62,-85 683.18,-79.68"/>
</g>
<!-- Node24 -->
<g id="node24" class="node">
<title>Node24</title>
<g id="a_node24"><a xlink:title=" ">
<polygon fill="white" stroke="#bfbfbf" points="859.5,-56.5 859.5,-75.5 906.5,-75.5 906.5,-56.5 859.5,-56.5"/>
<text text-anchor="middle" x="883" y="-63.5" font-family="Helvetica,sans-Serif" font-size="10.00">vector</text>
</a>
</g>
</g>
<!-- Node20&#45;&gt;Node24 -->
<g id="edge33" class="edge">
<title>Node20&#45;&gt;Node24</title>
<path fill="none" stroke="midnightblue" d="M750.88,-112.44C777.6,-103.25 820.2,-88.6 849.78,-78.43"/>
<polygon fill="midnightblue" stroke="midnightblue" points="850.95,-81.73 859.27,-75.16 848.67,-75.11 850.95,-81.73"/>
</g>
<!-- Node30&#45;&gt;Node12 -->
<g id="edge45" class="edge">
<title>Node30&#45;&gt;Node12</title>
<path fill="none" stroke="midnightblue" d="M564.14,-235.48C618.91,-227.75 699.07,-215.11 768,-199 771.94,-198.08 776.03,-197.01 780.09,-195.89"/>
<polygon fill="midnightblue" stroke="midnightblue" points="781.38,-199.16 790.01,-193.01 779.43,-192.44 781.38,-199.16"/>
</g>
<!-- Node30&#45;&gt;Node27 -->
<g id="edge40" class="edge">
<title>Node30&#45;&gt;Node27</title>
<path fill="none" stroke="midnightblue" d="M440.13,-235.47C386.42,-227.44 304.63,-214.62 224.4,-199.2"/>
<polygon fill="midnightblue" stroke="midnightblue" points="224.6,-195.68 214.11,-197.21 223.26,-202.55 224.6,-195.68"/>
</g>
<!-- Node30&#45;&gt;Node28 -->
<g id="edge42" class="edge">
<title>Node30&#45;&gt;Node28</title>
<path fill="none" stroke="midnightblue" d="M468.63,-235.48C436.96,-226.59 386.51,-212.43 346.81,-201.29"/>
<polygon fill="midnightblue" stroke="midnightblue" points="347.54,-197.86 336.96,-198.52 345.65,-204.6 347.54,-197.86"/>
</g>
<!-- Node31 -->
<g id="node31" class="node">
<title>Node31</title>
<g id="a_node31"><a xlink:title=" ">
<polygon fill="white" stroke="#bfbfbf" points="514.5,-168.5 514.5,-198.5 625.5,-198.5 625.5,-168.5 514.5,-168.5"/>
<text text-anchor="start" x="522.5" y="-186.5" font-family="Helvetica,sans-Serif" font-size="10.00">boost/preprocessor</text>
<text text-anchor="middle" x="570" y="-175.5" font-family="Helvetica,sans-Serif" font-size="10.00">/seq/for_each_i.hpp</text>
</a>
</g>
</g>
<!-- Node30&#45;&gt;Node31 -->
<g id="edge41" class="edge">
<title>Node30&#45;&gt;Node31</title>
<path fill="none" stroke="midnightblue" d="M509.17,-235.48C518.61,-227.57 533.03,-215.48 545.46,-205.07"/>
<polygon fill="midnightblue" stroke="midnightblue" points="547.85,-207.63 553.27,-198.52 543.35,-202.26 547.85,-207.63"/>
</g>
<!-- Node32 -->
<g id="node32" class="node">
<title>Node32</title>
<g id="a_node32"><a xlink:title=" ">
<polygon fill="white" stroke="#bfbfbf" points="643.5,-168.5 643.5,-198.5 758.5,-198.5 758.5,-168.5 643.5,-168.5"/>
<text text-anchor="start" x="651.5" y="-186.5" font-family="Helvetica,sans-Serif" font-size="10.00">boost/preprocessor</text>
<text text-anchor="middle" x="701" y="-175.5" font-family="Helvetica,sans-Serif" font-size="10.00">/variadic/to_seq.hpp</text>
</a>
</g>
</g>
<!-- Node30&#45;&gt;Node32 -->
<g id="edge43" class="edge">
<title>Node30&#45;&gt;Node32</title>
<path fill="none" stroke="midnightblue" d="M527.94,-235.48C557.98,-226.63 605.78,-212.55 643.53,-201.43"/>
<polygon fill="midnightblue" stroke="midnightblue" points="644.79,-204.71 653.39,-198.52 642.81,-197.99 644.79,-204.71"/>
</g>
<!-- Node33 -->
<g id="node33" class="node">
<title>Node33</title>
<g id="a_node33"><a xlink:title=" ">
<polygon fill="white" stroke="#bfbfbf" points="360,-174 360,-193 496,-193 496,-174 360,-174"/>
<text text-anchor="middle" x="428" y="-181" font-family="Helvetica,sans-Serif" font-size="10.00">boost/vmd/is_empty.hpp</text>
</a>
</g>
</g>
<!-- Node30&#45;&gt;Node33 -->
<g id="edge44" class="edge">
<title>Node30&#45;&gt;Node33</title>
<path fill="none" stroke="midnightblue" d="M488.83,-235.48C477.65,-226.11 459.48,-210.88 445.91,-199.51"/>
<polygon fill="midnightblue" stroke="midnightblue" points="448.07,-196.75 438.15,-193.01 443.57,-202.11 448.07,-196.75"/>
</g>
<!-- Node34&#45;&gt;Node13 -->
<g id="edge50" class="edge">
<title>Node34&#45;&gt;Node13</title>
<path fill="none" stroke="midnightblue" d="M1147.86,-408.98C1181.33,-399.33 1230.68,-382.88 1242,-367 1267.58,-331.12 1259.54,-192.7 1255.6,-141.87"/>
<polygon fill="midnightblue" stroke="midnightblue" points="1259.07,-141.36 1254.78,-131.67 1252.1,-141.92 1259.07,-141.36"/>
</g>
<!-- Node34&#45;&gt;Node24 -->
<g id="edge51" class="edge">
<title>Node34&#45;&gt;Node24</title>
<path fill="none" stroke="midnightblue" d="M1149.26,-408.93C1170.4,-401.57 1196.13,-388.63 1209,-367 1213.54,-359.36 1209.22,-355.89 1209,-347 1207.89,-302.07 1204,-290.94 1204,-246 1204,-246 1204,-246 1204,-182.5 1204,-94.07 970.16,-79.71 916.78,-74.88"/>
<polygon fill="midnightblue" stroke="midnightblue" points="917.08,-71.39 906.74,-73.69 916.26,-78.34 917.08,-71.39"/>
</g>
<!-- Node35 -->
<g id="node35" class="node">
<title>Node35</title>
<g id="a_node35"><a xlink:title=" ">
<polygon fill="white" stroke="#bfbfbf" points="1040,-347.5 1040,-366.5 1088,-366.5 1088,-347.5 1040,-347.5"/>
<text text-anchor="middle" x="1064" y="-354.5" font-family="Helvetica,sans-Serif" font-size="10.00">iosfwd</text>
</a>
</g>
</g>
<!-- Node34&#45;&gt;Node35 -->
<g id="edge47" class="edge">
<title>Node34&#45;&gt;Node35</title>
<path fill="none" stroke="midnightblue" d="M1108.55,-408.98C1100.67,-399.96 1088.06,-385.52 1078.26,-374.31"/>
<polygon fill="midnightblue" stroke="midnightblue" points="1080.65,-371.74 1071.44,-366.51 1075.38,-376.34 1080.65,-371.74"/>
</g>
<!-- Node36 -->
<g id="node36" class="node">
<title>Node36</title>
<g id="a_node36"><a xlink:title=" ">
<polygon fill="white" stroke="#bfbfbf" points="1084,-291.5 1084,-310.5 1142,-310.5 1142,-291.5 1084,-291.5"/>
<text text-anchor="middle" x="1113" y="-298.5" font-family="Helvetica,sans-Serif" font-size="10.00">memory</text>
</a>
</g>
</g>
<!-- Node34&#45;&gt;Node36 -->
<g id="edge48" class="edge">
<title>Node34&#45;&gt;Node36</title>
<path fill="none" stroke="midnightblue" d="M1115.77,-408.82C1115.29,-390.26 1114.15,-346.34 1113.49,-320.97"/>
<polygon fill="midnightblue" stroke="midnightblue" points="1116.99,-320.69 1113.23,-310.78 1109.99,-320.87 1116.99,-320.69"/>
</g>
<!-- Node37 -->
<g id="node37" class="node">
<title>Node37</title>
<g id="a_node37"><a xlink:title=" ">
<polygon fill="white" stroke="#bfbfbf" points="1144,-347.5 1144,-366.5 1200,-366.5 1200,-347.5 1144,-347.5"/>
<text text-anchor="middle" x="1172" y="-354.5" font-family="Helvetica,sans-Serif" font-size="10.00">optional</text>
</a>
</g>
</g>
<!-- Node34&#45;&gt;Node37 -->
<g id="edge49" class="edge">
<title>Node34&#45;&gt;Node37</title>
<path fill="none" stroke="midnightblue" d="M1124.02,-408.98C1132.59,-399.87 1146.36,-385.24 1156.96,-373.98"/>
<polygon fill="midnightblue" stroke="midnightblue" points="1159.69,-376.19 1163.99,-366.51 1154.59,-371.39 1159.69,-376.19"/>
</g>
<!-- Node38 -->
<g id="node38" class="node">
<title>Node38</title>
<g id="a_node38"><a xlink:href="Logger_8hpp.html" target="_top" xlink:title=" ">
<polygon fill="white" stroke="black" points="912.5,-347.5 912.5,-366.5 1021.5,-366.5 1021.5,-347.5 912.5,-347.5"/>
<text text-anchor="middle" x="967" y="-354.5" font-family="Helvetica,sans-Serif" font-size="10.00">logging/Logger.hpp</text>
</a>
</g>
</g>
<!-- Node34&#45;&gt;Node38 -->
<g id="edge52" class="edge">
<title>Node34&#45;&gt;Node38</title>
<path fill="none" stroke="midnightblue" d="M1094.65,-408.98C1069.31,-398.86 1026.86,-381.9 997.93,-370.35"/>
<polygon fill="midnightblue" stroke="midnightblue" points="998.89,-366.97 988.31,-366.51 996.3,-373.47 998.89,-366.97"/>
</g>
<!-- Node34&#45;&gt;Node41 -->
<g id="edge60" class="edge">
<title>Node34&#45;&gt;Node41</title>
<path fill="none" stroke="midnightblue" d="M1159.84,-408.98C1214.83,-398.28 1309.07,-379.96 1368.32,-368.44"/>
<polygon fill="midnightblue" stroke="midnightblue" points="1369.09,-371.85 1378.24,-366.51 1367.75,-364.98 1369.09,-371.85"/>
</g>
<!-- Node42 -->
<g id="node42" class="node">
<title>Node42</title>
<g id="a_node42"><a xlink:title=" ">
<polygon fill="white" stroke="#bfbfbf" points="850,-347.5 850,-366.5 894,-366.5 894,-347.5 850,-347.5"/>
<text text-anchor="middle" x="872" y="-354.5" font-family="Helvetica,sans-Serif" font-size="10.00">mpi.h</text>
</a>
</g>
</g>
<!-- Node34&#45;&gt;Node42 -->
<g id="edge61" class="edge">
<title>Node34&#45;&gt;Node42</title>
<path fill="none" stroke="midnightblue" d="M1077.97,-408.93C1035.46,-399.23 964.61,-382.73 904,-367 903.9,-366.97 903.8,-366.95 903.7,-366.92"/>
<polygon fill="midnightblue" stroke="midnightblue" points="904.57,-363.53 894,-364.31 902.75,-370.29 904.57,-363.53"/>
</g>
<!-- Node38&#45;&gt;Node11 -->
<g id="edge54" class="edge">
<title>Node38&#45;&gt;Node11</title>
<path fill="none" stroke="midnightblue" d="M974.53,-347.25C988.43,-330.57 1017.99,-292.51 1032,-255 1046.39,-216.46 1049.96,-167.82 1050.79,-141.67"/>
<polygon fill="midnightblue" stroke="midnightblue" points="1054.29,-141.72 1051.01,-131.65 1047.3,-141.57 1054.29,-141.72"/>
</g>
<!-- Node38&#45;&gt;Node36 -->
<g id="edge53" class="edge">
<title>Node38&#45;&gt;Node36</title>
<path fill="none" stroke="midnightblue" d="M990.13,-347.44C1014.48,-338.44 1053.01,-324.19 1080.42,-314.05"/>
<polygon fill="midnightblue" stroke="midnightblue" points="1081.81,-317.27 1089.97,-310.52 1079.38,-310.7 1081.81,-317.27"/>
</g>
<!-- Node39 -->
<g id="node39" class="node">
<title>Node39</title>
<g id="a_node39"><a xlink:href="LogMacros_8hpp.html" target="_top" xlink:title=" ">
<polygon fill="white" stroke="black" points="771,-291.5 771,-310.5 861,-310.5 861,-291.5 771,-291.5"/>
<text text-anchor="middle" x="816" y="-298.5" font-family="Helvetica,sans-Serif" font-size="10.00">LogMacros.hpp</text>
</a>
</g>
</g>
<!-- Node38&#45;&gt;Node39 -->
<g id="edge55" class="edge">
<title>Node38&#45;&gt;Node39</title>
<path fill="none" stroke="midnightblue" d="M943.07,-347.44C917.78,-338.4 877.7,-324.06 849.32,-313.92"/>
<polygon fill="midnightblue" stroke="midnightblue" points="850.41,-310.59 839.81,-310.52 848.05,-317.18 850.41,-310.59"/>
</g>
<!-- Node39&#45;&gt;Node12 -->
<g id="edge56" class="edge">
<title>Node39&#45;&gt;Node12</title>
<path fill="none" stroke="midnightblue" d="M816,-291.32C816,-272.76 816,-228.84 816,-203.47"/>
<polygon fill="midnightblue" stroke="midnightblue" points="819.5,-203.28 816,-193.28 812.5,-203.28 819.5,-203.28"/>
</g>
<!-- Node39&#45;&gt;Node30 -->
<g id="edge57" class="edge">
<title>Node39&#45;&gt;Node30</title>
<path fill="none" stroke="midnightblue" d="M770.92,-292.32C715.38,-282.86 620.83,-266.75 559.14,-256.24"/>
<polygon fill="midnightblue" stroke="midnightblue" points="559.6,-252.77 549.16,-254.54 558.43,-259.67 559.6,-252.77"/>
</g>
<!-- Node40 -->
<g id="node40" class="node">
<title>Node40</title>
<g id="a_node40"><a xlink:href="Tracer_8hpp.html" target="_top" xlink:title=" ">
<polygon fill="white" stroke="black" points="917.5,-235.5 917.5,-254.5 1022.5,-254.5 1022.5,-235.5 917.5,-235.5"/>
<text text-anchor="middle" x="970" y="-242.5" font-family="Helvetica,sans-Serif" font-size="10.00">logging/Tracer.hpp</text>
</a>
</g>
</g>
<!-- Node39&#45;&gt;Node40 -->
<g id="edge58" class="edge">
<title>Node39&#45;&gt;Node40</title>
<path fill="none" stroke="midnightblue" d="M840.4,-291.44C866.2,-282.4 907.08,-268.06 936.02,-257.92"/>
<polygon fill="midnightblue" stroke="midnightblue" points="937.43,-261.13 945.71,-254.52 935.12,-254.52 937.43,-261.13"/>
</g>
<!-- Node40&#45;&gt;Node38 -->
<g id="edge59" class="edge">
<title>Node40&#45;&gt;Node38</title>
<path fill="none" stroke="midnightblue" d="M969.77,-254.59C969.28,-272.31 968.17,-313.25 967.51,-337.35"/>
<polygon fill="midnightblue" stroke="midnightblue" points="964.01,-337.28 967.24,-347.37 971.01,-337.47 964.01,-337.28"/>
</g>
<!-- Node43&#45;&gt;Node13 -->
<g id="edge63" class="edge">
<title>Node43&#45;&gt;Node13</title>
<path fill="none" stroke="midnightblue" d="M1323.48,-291.46C1312.23,-264.19 1277.01,-178.78 1261.48,-141.13"/>
<polygon fill="midnightblue" stroke="midnightblue" points="1264.71,-139.78 1257.66,-131.87 1258.23,-142.45 1264.71,-139.78"/>
</g>
</g>
</svg>
        <g id="navigator" transform="translate(0 0)" fill="#404254">
                <rect fill="#f2f5e9" fill-opacity="0.5" stroke="#606060" stroke-width=".5" x="0" y="0" width="60" height="60"/>
                <use id="zoomplus" xlink:href="#zoomPlus" x="17" y="9" onmousedown="handleZoom(evt,'in')"/>
                <use id="zoomminus" xlink:href="#zoomMin" x="42" y="9" onmousedown="handleZoom(evt,'out')"/>
                <use id="reset" xlink:href="#resetDef" x="30" y="36" onmousedown="handleReset()"/>
                <g id="arrowUp" xlink:href="#dirArrow" transform="translate(30 24)" onmousedown="handlePan(0,-1)">
                  <use xlink:href="#rim" fill="#404040">
                        <set attributeName="fill" to="#808080" begin="arrowUp.mouseover" end="arrowUp.mouseout"/>
                  </use>
                  <path fill="none" stroke="white" stroke-width="1.5" d="M0,-3.0v7 M-2.5,-0.5L0,-3.0L2.5,-0.5"/>
                </g>
                <g id="arrowRight" xlink:href="#dirArrow" transform="rotate(90) translate(36 -43)" onmousedown="handlePan(1,0)">
                  <use xlink:href="#rim" fill="#404040">
                        <set attributeName="fill" to="#808080" begin="arrowRight.mouseover" end="arrowRight.mouseout"/>
                  </use>
                  <path fill="none" stroke="white" stroke-width="1.5" d="M0,-3.0v7 M-2.5,-0.5L0,-3.0L2.5,-0.5"/>
                </g>
                <g id="arrowDown" xlink:href="#dirArrow" transform="rotate(180) translate(-30 -48)" onmousedown="handlePan(0,1)">
                  <use xlink:href="#rim" fill="#404040">
                        <set attributeName="fill" to="#808080" begin="arrowDown.mouseover" end="arrowDown.mouseout"/>
                  </use>
                  <path fill="none" stroke="white" stroke-width="1.5" d="M0,-3.0v7 M-2.5,-0.5L0,-3.0L2.5,-0.5"/>
                </g>
                <g id="arrowLeft" xlink:href="#dirArrow" transform="rotate(270) translate(-36 17)" onmousedown="handlePan(-1,0)">
                  <use xlink:href="#rim" fill="#404040">
                        <set attributeName="fill" to="#808080" begin="arrowLeft.mouseover" end="arrowLeft.mouseout"/>
                  </use>
                  <path fill="none" stroke="white" stroke-width="1.5" d="M0,-3.0v7 M-2.5,-0.5L0,-3.0L2.5,-0.5"/>
                </g>
        </g>
        <svg viewBox="0 0 15 15" width="100%" height="30px" preserveAspectRatio="xMaxYMin meet">
         <g id="arrow_out" transform="scale(0.3 0.3)">
          <a xlink:href="Tetrahedron_8hpp__incl_org.svg" target="_base">
           <rect id="button" ry="5" rx="5" y="6" x="6" height="38" width="38"
                fill="#f2f5e9" fill-opacity="0.5" stroke="#606060" stroke-width="1.0"/>
           <path id="arrow"
             d="M 11.500037,31.436501 C 11.940474,20.09759 22.043105,11.32322 32.158766,21.979434 L 37.068811,17.246167 C 37.068811,17.246167 37.088388,32 37.088388,32 L 22.160133,31.978069 C 22.160133,31.978069 26.997745,27.140456 26.997745,27.140456 C 18.528582,18.264221 13.291696,25.230495 11.500037,31.436501 z"
             style="fill:#404040;"/>
          </a>
         </g>
        </svg>
</svg>
