<?xml version="1.0" encoding="UTF-8" standalone="no"?>
<!DOCTYPE svg PUBLIC "-//W3C//DTD SVG 1.1//EN"
 "http://www.w3.org/Graphics/SVG/1.1/DTD/svg11.dtd">
<!-- Generated by graphviz version 2.43.0 (0)
 -->
<!-- Title: src/io/tests/TXTTableWriterTest.cpp Pages: 1 -->
<svg width="2608pt" height="677pt"
 viewBox="0.00 0.00 2608.00 677.00" xmlns="http://www.w3.org/2000/svg" xmlns:xlink="http://www.w3.org/1999/xlink">
<g id="graph0" class="graph" transform="scale(1 1) rotate(0) translate(4 673)">
<title>src/io/tests/TXTTableWriterTest.cpp</title>
<polygon fill="white" stroke="transparent" points="-4,4 -4,-673 2604,-673 2604,4 -4,4"/>
<!-- Node1 -->
<g id="node1" class="node">
<title>Node1</title>
<g id="a_node1"><a xlink:title=" ">
<polygon fill="#bfbfbf" stroke="black" points="1127.5,-638.5 1127.5,-668.5 1274.5,-668.5 1274.5,-638.5 1127.5,-638.5"/>
<text text-anchor="start" x="1135.5" y="-656.5" font-family="Helvetica,sans-Serif" font-size="10.00">src/io/tests/TXTTableWriter</text>
<text text-anchor="middle" x="1201" y="-645.5" font-family="Helvetica,sans-Serif" font-size="10.00">Test.cpp</text>
</a>
</g>
</g>
<!-- Node2 -->
<g id="node2" class="node">
<title>Node2</title>
<g id="a_node2"><a xlink:title=" ">
<polygon fill="white" stroke="#bfbfbf" points="79.5,-0.5 79.5,-19.5 148.5,-19.5 148.5,-0.5 79.5,-0.5"/>
<text text-anchor="middle" x="114" y="-7.5" font-family="Helvetica,sans-Serif" font-size="10.00">Eigen/Core</text>
</a>
</g>
</g>
<!-- Node1&#45;&gt;Node2 -->
<g id="edge1" class="edge">
<title>Node1&#45;&gt;Node2</title>
<path fill="none" stroke="midnightblue" d="M1127.23,-653.18C865.93,-654.63 0,-650.83 0,-537 0,-537 0,-537 0,-126.5 0,-77.7 52.19,-42.06 85.95,-24.11"/>
<polygon fill="midnightblue" stroke="midnightblue" points="87.61,-27.19 94.92,-19.52 84.42,-20.96 87.61,-27.19"/>
</g>
<!-- Node3 -->
<g id="node3" class="node">
<title>Node3</title>
<g id="a_node3"><a xlink:href="TXTTableWriter_8hpp.html" target="_top" xlink:title=" ">
<polygon fill="white" stroke="black" points="1000.5,-353 1000.5,-372 1123.5,-372 1123.5,-353 1000.5,-353"/>
<text text-anchor="middle" x="1062" y="-360" font-family="Helvetica,sans-Serif" font-size="10.00">io/TXTTableWriter.hpp</text>
</a>
</g>
</g>
<!-- Node1&#45;&gt;Node3 -->
<g id="edge2" class="edge">
<title>Node1&#45;&gt;Node3</title>
<path fill="none" stroke="midnightblue" d="M1186.35,-638.32C1166.91,-617.89 1135,-578.11 1135,-537 1135,-537 1135,-537 1135,-479 1135,-437.98 1101.7,-399.68 1080.08,-379.14"/>
<polygon fill="midnightblue" stroke="midnightblue" points="1082.2,-376.34 1072.46,-372.17 1077.47,-381.5 1082.2,-376.34"/>
</g>
<!-- Node30 -->
<g id="node19" class="node">
<title>Node30</title>
<g id="a_node19"><a xlink:href="TestContext_8hpp.html" target="_top" xlink:title=" ">
<polygon fill="white" stroke="black" points="1783,-414.5 1783,-433.5 1915,-433.5 1915,-414.5 1783,-414.5"/>
<text text-anchor="middle" x="1849" y="-421.5" font-family="Helvetica,sans-Serif" font-size="10.00">testing/TestContext.hpp</text>
</a>
</g>
</g>
<!-- Node1&#45;&gt;Node30 -->
<g id="edge25" class="edge">
<title>Node1&#45;&gt;Node30</title>
<path fill="none" stroke="midnightblue" d="M1274.77,-648.56C1356.33,-642.99 1491.11,-630.14 1604,-602 1671.84,-585.09 1690.95,-581.8 1751,-546 1783.75,-526.47 1792.48,-520.01 1816,-490 1827.32,-475.55 1836.41,-456.61 1842.16,-442.91"/>
<polygon fill="midnightblue" stroke="midnightblue" points="1845.41,-444.19 1845.88,-433.61 1838.91,-441.59 1845.41,-444.19"/>
</g>
<!-- Node40 -->
<g id="node29" class="node">
<title>Node40</title>
<g id="a_node29"><a xlink:href="Testing_8hpp.html" target="_top" xlink:title=" ">
<polygon fill="white" stroke="black" points="1485.5,-582.5 1485.5,-601.5 1594.5,-601.5 1594.5,-582.5 1485.5,-582.5"/>
<text text-anchor="middle" x="1540" y="-589.5" font-family="Helvetica,sans-Serif" font-size="10.00">testing/Testing.hpp</text>
</a>
</g>
</g>
<!-- Node1&#45;&gt;Node40 -->
<g id="edge43" class="edge">
<title>Node1&#45;&gt;Node40</title>
<path fill="none" stroke="midnightblue" d="M1274.56,-639.59C1336.56,-628.71 1424.09,-613.34 1481.43,-603.28"/>
<polygon fill="midnightblue" stroke="midnightblue" points="1482.18,-606.7 1491.42,-601.53 1480.97,-599.81 1482.18,-606.7"/>
</g>
<!-- Node3&#45;&gt;Node2 -->
<g id="edge3" class="edge">
<title>Node3&#45;&gt;Node2</title>
<path fill="none" stroke="midnightblue" d="M1038.19,-352.99C1010.32,-343.01 962.76,-325.92 922,-311 619.83,-200.41 255.19,-63.93 146.23,-23.09"/>
<polygon fill="midnightblue" stroke="midnightblue" points="147.38,-19.78 136.79,-19.55 144.92,-26.34 147.38,-19.78"/>
</g>
<!-- Node4 -->
<g id="node4" class="node">
<title>Node4</title>
<g id="a_node4"><a xlink:title=" ">
<polygon fill="white" stroke="#bfbfbf" points="931.5,-291.5 931.5,-310.5 986.5,-310.5 986.5,-291.5 931.5,-291.5"/>
<text text-anchor="middle" x="959" y="-298.5" font-family="Helvetica,sans-Serif" font-size="10.00">fstream</text>
</a>
</g>
</g>
<!-- Node3&#45;&gt;Node4 -->
<g id="edge4" class="edge">
<title>Node3&#45;&gt;Node4</title>
<path fill="none" stroke="midnightblue" d="M1047.24,-352.98C1030.34,-343.21 1002.42,-327.08 982.51,-315.58"/>
<polygon fill="midnightblue" stroke="midnightblue" points="984.14,-312.48 973.73,-310.51 980.64,-318.54 984.14,-312.48"/>
</g>
<!-- Node5 -->
<g id="node5" class="node">
<title>Node5</title>
<g id="a_node5"><a xlink:title=" ">
<polygon fill="white" stroke="#bfbfbf" points="1362,-56.5 1362,-75.5 1406,-75.5 1406,-56.5 1362,-56.5"/>
<text text-anchor="middle" x="1384" y="-63.5" font-family="Helvetica,sans-Serif" font-size="10.00">string</text>
</a>
</g>
</g>
<!-- Node3&#45;&gt;Node5 -->
<g id="edge5" class="edge">
<title>Node3&#45;&gt;Node5</title>
<path fill="none" stroke="midnightblue" d="M1055.35,-352.79C1048.45,-343.17 1038.12,-326.92 1034,-311 1029.97,-295.42 1027.69,-252.3 1036,-235 1094.54,-113.09 1276.67,-79 1351.45,-70.02"/>
<polygon fill="midnightblue" stroke="midnightblue" points="1352.13,-73.47 1361.68,-68.87 1351.35,-66.51 1352.13,-73.47"/>
</g>
<!-- Node6 -->
<g id="node6" class="node">
<title>Node6</title>
<g id="a_node6"><a xlink:title=" ">
<polygon fill="white" stroke="#bfbfbf" points="1043.5,-291.5 1043.5,-310.5 1090.5,-310.5 1090.5,-291.5 1043.5,-291.5"/>
<text text-anchor="middle" x="1067" y="-298.5" font-family="Helvetica,sans-Serif" font-size="10.00">vector</text>
</a>
</g>
</g>
<!-- Node3&#45;&gt;Node6 -->
<g id="edge6" class="edge">
<title>Node3&#45;&gt;Node6</title>
<path fill="none" stroke="midnightblue" d="M1062.72,-352.98C1063.42,-344.58 1064.52,-331.48 1065.43,-320.66"/>
<polygon fill="midnightblue" stroke="midnightblue" points="1068.94,-320.77 1066.28,-310.51 1061.96,-320.18 1068.94,-320.77"/>
</g>
<!-- Node7 -->
<g id="node7" class="node">
<title>Node7</title>
<g id="a_node7"><a xlink:href="Logger_8hpp.html" target="_top" xlink:title=" ">
<polygon fill="white" stroke="black" points="1108.5,-291.5 1108.5,-310.5 1217.5,-310.5 1217.5,-291.5 1108.5,-291.5"/>
<text text-anchor="middle" x="1163" y="-298.5" font-family="Helvetica,sans-Serif" font-size="10.00">logging/Logger.hpp</text>
</a>
</g>
</g>
<!-- Node3&#45;&gt;Node7 -->
<g id="edge7" class="edge">
<title>Node3&#45;&gt;Node7</title>
<path fill="none" stroke="midnightblue" d="M1076.47,-352.98C1092.97,-343.25 1120.18,-327.23 1139.68,-315.74"/>
<polygon fill="midnightblue" stroke="midnightblue" points="1141.72,-318.6 1148.56,-310.51 1138.16,-312.57 1141.72,-318.6"/>
</g>
<!-- Node8 -->
<g id="node8" class="node">
<title>Node8</title>
<g id="a_node8"><a xlink:title=" ">
<polygon fill="white" stroke="#bfbfbf" points="1542,-235.5 1542,-254.5 1600,-254.5 1600,-235.5 1542,-235.5"/>
<text text-anchor="middle" x="1571" y="-242.5" font-family="Helvetica,sans-Serif" font-size="10.00">memory</text>
</a>
</g>
</g>
<!-- Node7&#45;&gt;Node8 -->
<g id="edge8" class="edge">
<title>Node7&#45;&gt;Node8</title>
<path fill="none" stroke="midnightblue" d="M1217.6,-292.77C1301.11,-281.72 1458.56,-260.88 1531.75,-251.19"/>
<polygon fill="midnightblue" stroke="midnightblue" points="1532.47,-254.63 1541.92,-249.85 1531.55,-247.69 1532.47,-254.63"/>
</g>
<!-- Node9 -->
<g id="node9" class="node">
<title>Node9</title>
<g id="a_node9"><a xlink:title=" ">
<polygon fill="white" stroke="#bfbfbf" points="771.5,-56.5 771.5,-75.5 844.5,-75.5 844.5,-56.5 771.5,-56.5"/>
<text text-anchor="middle" x="808" y="-63.5" font-family="Helvetica,sans-Serif" font-size="10.00">string_view</text>
</a>
</g>
</g>
<!-- Node7&#45;&gt;Node9 -->
<g id="edge9" class="edge">
<title>Node7&#45;&gt;Node9</title>
<path fill="none" stroke="midnightblue" d="M1119.27,-291.44C1093.19,-284.74 1060.51,-273.39 1036,-255 973.34,-208 995.54,-159.16 933,-112 910.02,-94.67 879.73,-83.54 854.73,-76.69"/>
<polygon fill="midnightblue" stroke="midnightblue" points="855.29,-73.22 844.73,-74.09 853.53,-79.99 855.29,-73.22"/>
</g>
<!-- Node10 -->
<g id="node10" class="node">
<title>Node10</title>
<g id="a_node10"><a xlink:href="LogMacros_8hpp.html" target="_top" xlink:title=" ">
<polygon fill="white" stroke="black" points="1045,-235.5 1045,-254.5 1135,-254.5 1135,-235.5 1045,-235.5"/>
<text text-anchor="middle" x="1090" y="-242.5" font-family="Helvetica,sans-Serif" font-size="10.00">LogMacros.hpp</text>
</a>
</g>
</g>
<!-- Node7&#45;&gt;Node10 -->
<g id="edge10" class="edge">
<title>Node7&#45;&gt;Node10</title>
<path fill="none" stroke="midnightblue" d="M1151.27,-291.32C1140.16,-283.11 1123.26,-270.6 1110.02,-260.81"/>
<polygon fill="midnightblue" stroke="midnightblue" points="1112.06,-257.97 1101.94,-254.83 1107.9,-263.59 1112.06,-257.97"/>
</g>
<!-- Node11 -->
<g id="node11" class="node">
<title>Node11</title>
<g id="a_node11"><a xlink:href="fmt_8hpp.html" target="_top" xlink:title=" ">
<polygon fill="white" stroke="red" points="980.5,-118 980.5,-137 1059.5,-137 1059.5,-118 980.5,-118"/>
<text text-anchor="middle" x="1020" y="-125" font-family="Helvetica,sans-Serif" font-size="10.00">utils/fmt.hpp</text>
</a>
</g>
</g>
<!-- Node10&#45;&gt;Node11 -->
<g id="edge11" class="edge">
<title>Node10&#45;&gt;Node11</title>
<path fill="none" stroke="midnightblue" d="M1084.74,-235.32C1073.29,-216.42 1045.91,-171.25 1030.68,-146.12"/>
<polygon fill="midnightblue" stroke="midnightblue" points="1033.5,-144.02 1025.32,-137.28 1027.51,-147.65 1033.5,-144.02"/>
</g>
<!-- Node23 -->
<g id="node15" class="node">
<title>Node23</title>
<g id="a_node15"><a xlink:href="ArgumentFormatter_8hpp.html" target="_top" xlink:title=" ">
<polygon fill="white" stroke="red" points="782.5,-179.5 782.5,-198.5 939.5,-198.5 939.5,-179.5 782.5,-179.5"/>
<text text-anchor="middle" x="861" y="-186.5" font-family="Helvetica,sans-Serif" font-size="10.00">utils/ArgumentFormatter.hpp</text>
</a>
</g>
</g>
<!-- Node10&#45;&gt;Node23 -->
<g id="edge19" class="edge">
<title>Node10&#45;&gt;Node23</title>
<path fill="none" stroke="midnightblue" d="M1053.71,-235.44C1014.02,-226.08 950.29,-211.06 907.09,-200.87"/>
<polygon fill="midnightblue" stroke="midnightblue" points="907.65,-197.41 897.12,-198.52 906.05,-204.22 907.65,-197.41"/>
</g>
<!-- Node29 -->
<g id="node18" class="node">
<title>Node29</title>
<g id="a_node18"><a xlink:href="Tracer_8hpp.html" target="_top" xlink:title=" ">
<polygon fill="white" stroke="black" points="1110.5,-179.5 1110.5,-198.5 1215.5,-198.5 1215.5,-179.5 1110.5,-179.5"/>
<text text-anchor="middle" x="1163" y="-186.5" font-family="Helvetica,sans-Serif" font-size="10.00">logging/Tracer.hpp</text>
</a>
</g>
</g>
<!-- Node10&#45;&gt;Node29 -->
<g id="edge23" class="edge">
<title>Node10&#45;&gt;Node29</title>
<path fill="none" stroke="midnightblue" d="M1101.73,-235.32C1112.84,-227.11 1129.74,-214.6 1142.98,-204.81"/>
<polygon fill="midnightblue" stroke="midnightblue" points="1145.1,-207.59 1151.06,-198.83 1140.94,-201.97 1145.1,-207.59"/>
</g>
<!-- Node11&#45;&gt;Node5 -->
<g id="edge12" class="edge">
<title>Node11&#45;&gt;Node5</title>
<path fill="none" stroke="midnightblue" d="M1049.28,-117.96C1057.25,-115.82 1065.92,-113.67 1074,-112 1174.33,-91.32 1294.84,-76.71 1351.52,-70.43"/>
<polygon fill="midnightblue" stroke="midnightblue" points="1352.11,-73.89 1361.67,-69.32 1351.34,-66.93 1352.11,-73.89"/>
</g>
<!-- Node11&#45;&gt;Node9 -->
<g id="edge13" class="edge">
<title>Node11&#45;&gt;Node9</title>
<path fill="none" stroke="midnightblue" d="M989.63,-117.98C952.39,-107.53 889.19,-89.79 848.02,-78.23"/>
<polygon fill="midnightblue" stroke="midnightblue" points="848.89,-74.84 838.32,-75.51 847,-81.58 848.89,-74.84"/>
</g>
<!-- Node12 -->
<g id="node12" class="node">
<title>Node12</title>
<g id="a_node12"><a xlink:title=" ">
<polygon fill="white" stroke="#bfbfbf" points="1020.5,-0.5 1020.5,-19.5 1099.5,-19.5 1099.5,-0.5 1020.5,-0.5"/>
<text text-anchor="middle" x="1060" y="-7.5" font-family="Helvetica,sans-Serif" font-size="10.00">fmt/format.h</text>
</a>
</g>
</g>
<!-- Node11&#45;&gt;Node12 -->
<g id="edge14" class="edge">
<title>Node11&#45;&gt;Node12</title>
<path fill="none" stroke="midnightblue" d="M1037.61,-117.87C1052.52,-109.48 1072.88,-95.18 1082,-76 1089.48,-60.26 1081.23,-41.29 1072.79,-27.92"/>
<polygon fill="midnightblue" stroke="midnightblue" points="1075.65,-25.91 1067.1,-19.66 1069.89,-29.88 1075.65,-25.91"/>
</g>
<!-- Node13 -->
<g id="node13" class="node">
<title>Node13</title>
<g id="a_node13"><a xlink:title=" ">
<polygon fill="white" stroke="#bfbfbf" points="863,-56.5 863,-75.5 949,-75.5 949,-56.5 863,-56.5"/>
<text text-anchor="middle" x="906" y="-63.5" font-family="Helvetica,sans-Serif" font-size="10.00">fmt/ostream.h</text>
</a>
</g>
</g>
<!-- Node11&#45;&gt;Node13 -->
<g id="edge15" class="edge">
<title>Node11&#45;&gt;Node13</title>
<path fill="none" stroke="midnightblue" d="M1003.67,-117.98C984.79,-108.12 953.49,-91.79 931.42,-80.27"/>
<polygon fill="midnightblue" stroke="midnightblue" points="932.79,-77.03 922.3,-75.51 929.55,-83.24 932.79,-77.03"/>
</g>
<!-- Node14 -->
<g id="node14" class="node">
<title>Node14</title>
<g id="a_node14"><a xlink:href="fmtEigen_8hpp.html" target="_top" xlink:title=" ">
<polygon fill="white" stroke="red" points="967,-56.5 967,-75.5 1073,-75.5 1073,-56.5 967,-56.5"/>
<text text-anchor="middle" x="1020" y="-63.5" font-family="Helvetica,sans-Serif" font-size="10.00">utils/fmtEigen.hpp</text>
</a>
</g>
</g>
<!-- Node11&#45;&gt;Node14 -->
<g id="edge16" class="edge">
<title>Node11&#45;&gt;Node14</title>
<path fill="none" stroke="midnightblue" d="M1020,-117.98C1020,-109.58 1020,-96.48 1020,-85.66"/>
<polygon fill="midnightblue" stroke="midnightblue" points="1023.5,-85.51 1020,-75.51 1016.5,-85.51 1023.5,-85.51"/>
</g>
<!-- Node14&#45;&gt;Node2 -->
<g id="edge17" class="edge">
<title>Node14&#45;&gt;Node2</title>
<path fill="none" stroke="midnightblue" d="M966.94,-56.97C963.92,-56.62 960.92,-56.29 958,-56 653.35,-25.83 284.69,-14.95 158.7,-11.95"/>
<polygon fill="midnightblue" stroke="midnightblue" points="158.73,-8.45 148.65,-11.72 158.57,-15.45 158.73,-8.45"/>
</g>
<!-- Node14&#45;&gt;Node12 -->
<g id="edge18" class="edge">
<title>Node14&#45;&gt;Node12</title>
<path fill="none" stroke="midnightblue" d="M1026.61,-56.08C1032.26,-48.46 1040.54,-37.26 1047.45,-27.94"/>
<polygon fill="midnightblue" stroke="midnightblue" points="1050.38,-29.87 1053.52,-19.75 1044.75,-25.7 1050.38,-29.87"/>
</g>
<!-- Node23&#45;&gt;Node11 -->
<g id="edge22" class="edge">
<title>Node23&#45;&gt;Node11</title>
<path fill="none" stroke="midnightblue" d="M883.78,-179.48C911.05,-169.27 956.91,-152.11 987.8,-140.55"/>
<polygon fill="midnightblue" stroke="midnightblue" points="989.12,-143.79 997.26,-137.01 986.67,-137.24 989.12,-143.79"/>
</g>
<!-- Node24 -->
<g id="node16" class="node">
<title>Node24</title>
<g id="a_node16"><a xlink:title=" ">
<polygon fill="white" stroke="#bfbfbf" points="686,-112.5 686,-142.5 796,-142.5 796,-112.5 686,-112.5"/>
<text text-anchor="start" x="694" y="-130.5" font-family="Helvetica,sans-Serif" font-size="10.00">boost/preprocessor</text>
<text text-anchor="middle" x="741" y="-119.5" font-family="Helvetica,sans-Serif" font-size="10.00">/control/if.hpp</text>
</a>
</g>
</g>
<!-- Node23&#45;&gt;Node24 -->
<g id="edge20" class="edge">
<title>Node23&#45;&gt;Node24</title>
<path fill="none" stroke="midnightblue" d="M843.81,-179.48C826.8,-171.04 800.2,-157.86 778.33,-147.01"/>
<polygon fill="midnightblue" stroke="midnightblue" points="779.8,-143.83 769.28,-142.52 776.69,-150.1 779.8,-143.83"/>
</g>
<!-- Node26 -->
<g id="node17" class="node">
<title>Node26</title>
<g id="a_node17"><a xlink:title=" ">
<polygon fill="white" stroke="#bfbfbf" points="814,-112.5 814,-142.5 924,-142.5 924,-112.5 814,-112.5"/>
<text text-anchor="start" x="822" y="-130.5" font-family="Helvetica,sans-Serif" font-size="10.00">boost/preprocessor</text>
<text text-anchor="middle" x="869" y="-119.5" font-family="Helvetica,sans-Serif" font-size="10.00">/stringize.hpp</text>
</a>
</g>
</g>
<!-- Node23&#45;&gt;Node26 -->
<g id="edge21" class="edge">
<title>Node23&#45;&gt;Node26</title>
<path fill="none" stroke="midnightblue" d="M862.15,-179.48C863.09,-172.47 864.47,-162.19 865.75,-152.7"/>
<polygon fill="midnightblue" stroke="midnightblue" points="869.25,-152.9 867.11,-142.52 862.31,-151.97 869.25,-152.9"/>
</g>
<!-- Node29&#45;&gt;Node7 -->
<g id="edge24" class="edge">
<title>Node29&#45;&gt;Node7</title>
<path fill="none" stroke="midnightblue" d="M1163,-198.59C1163,-216.31 1163,-257.25 1163,-281.35"/>
<polygon fill="midnightblue" stroke="midnightblue" points="1159.5,-281.37 1163,-291.37 1166.5,-281.37 1159.5,-281.37"/>
</g>
<!-- Node30&#45;&gt;Node5 -->
<g id="edge27" class="edge">
<title>Node30&#45;&gt;Node5</title>
<path fill="none" stroke="midnightblue" d="M1915.03,-417.9C2020.6,-407.14 2209.39,-375.71 2146,-291 2054.4,-168.6 1549.77,-90.18 1416.36,-71.38"/>
<polygon fill="midnightblue" stroke="midnightblue" points="1416.74,-67.9 1406.35,-69.99 1415.77,-74.84 1416.74,-67.9"/>
</g>
<!-- Node30&#45;&gt;Node6 -->
<g id="edge30" class="edge">
<title>Node30&#45;&gt;Node6</title>
<path fill="none" stroke="midnightblue" d="M1782.73,-420.74C1686.22,-416.62 1501.62,-405.6 1347,-378 1256.35,-361.82 1152.38,-329.99 1100.34,-313.12"/>
<polygon fill="midnightblue" stroke="midnightblue" points="1101.24,-309.73 1090.65,-309.95 1099.07,-316.38 1101.24,-309.73"/>
</g>
<!-- Node31 -->
<g id="node20" class="node">
<title>Node31</title>
<g id="a_node20"><a xlink:title=" ">
<polygon fill="white" stroke="#bfbfbf" points="1914.5,-353 1914.5,-372 1979.5,-372 1979.5,-353 1914.5,-353"/>
<text text-anchor="middle" x="1947" y="-360" font-family="Helvetica,sans-Serif" font-size="10.00">stdexcept</text>
</a>
</g>
</g>
<!-- Node30&#45;&gt;Node31 -->
<g id="edge26" class="edge">
<title>Node30&#45;&gt;Node31</title>
<path fill="none" stroke="midnightblue" d="M1863.04,-414.48C1879.05,-404.75 1905.45,-388.73 1924.37,-377.24"/>
<polygon fill="midnightblue" stroke="midnightblue" points="1926.25,-380.19 1932.99,-372.01 1922.62,-374.21 1926.25,-380.19"/>
</g>
<!-- Node32 -->
<g id="node21" class="node">
<title>Node32</title>
<g id="a_node21"><a xlink:title=" ">
<polygon fill="white" stroke="#bfbfbf" points="2262.5,-235.5 2262.5,-254.5 2331.5,-254.5 2331.5,-235.5 2262.5,-235.5"/>
<text text-anchor="middle" x="2297" y="-242.5" font-family="Helvetica,sans-Serif" font-size="10.00">type_traits</text>
</a>
</g>
</g>
<!-- Node30&#45;&gt;Node32 -->
<g id="edge28" class="edge">
<title>Node30&#45;&gt;Node32</title>
<path fill="none" stroke="midnightblue" d="M1915.21,-419.37C1998.09,-413.91 2134.58,-401.61 2179,-378 2229.97,-350.92 2269.65,-292.55 2287.18,-263.36"/>
<polygon fill="midnightblue" stroke="midnightblue" points="2290.24,-265.07 2292.26,-254.67 2284.2,-261.53 2290.24,-265.07"/>
</g>
<!-- Node33 -->
<g id="node22" class="node">
<title>Node33</title>
<g id="a_node22"><a xlink:title=" ">
<polygon fill="white" stroke="#bfbfbf" points="1997.5,-353 1997.5,-372 2042.5,-372 2042.5,-353 1997.5,-353"/>
<text text-anchor="middle" x="2020" y="-360" font-family="Helvetica,sans-Serif" font-size="10.00">utility</text>
</a>
</g>
</g>
<!-- Node30&#45;&gt;Node33 -->
<g id="edge29" class="edge">
<title>Node30&#45;&gt;Node33</title>
<path fill="none" stroke="midnightblue" d="M1879.43,-414.43C1908.05,-406.09 1951.93,-392.56 1989,-378 1990.42,-377.44 1991.86,-376.85 1993.31,-376.24"/>
<polygon fill="midnightblue" stroke="midnightblue" points="1995.08,-379.29 2002.79,-372.02 1992.23,-372.89 1995.08,-379.29"/>
</g>
<!-- Node34 -->
<g id="node23" class="node">
<title>Node34</title>
<g id="a_node23"><a xlink:href="m2n_2SharedPointer_8hpp.html" target="_top" xlink:title=" ">
<polygon fill="white" stroke="black" points="1552,-291.5 1552,-310.5 1682,-310.5 1682,-291.5 1552,-291.5"/>
<text text-anchor="middle" x="1617" y="-298.5" font-family="Helvetica,sans-Serif" font-size="10.00">m2n/SharedPointer.hpp</text>
</a>
</g>
</g>
<!-- Node30&#45;&gt;Node34 -->
<g id="edge31" class="edge">
<title>Node30&#45;&gt;Node34</title>
<path fill="none" stroke="midnightblue" d="M1829.68,-414.43C1810.15,-405.66 1779.2,-391.44 1753,-378 1712.74,-357.35 1667.03,-331.24 1640.18,-315.62"/>
<polygon fill="midnightblue" stroke="midnightblue" points="1641.91,-312.57 1631.51,-310.56 1638.38,-318.62 1641.91,-312.57"/>
</g>
<!-- Node35 -->
<g id="node24" class="node">
<title>Node35</title>
<g id="a_node24"><a xlink:href="types_8hpp.html" target="_top" xlink:title=" ">
<polygon fill="white" stroke="black" points="1700.5,-291.5 1700.5,-310.5 1803.5,-310.5 1803.5,-291.5 1700.5,-291.5"/>
<text text-anchor="middle" x="1752" y="-298.5" font-family="Helvetica,sans-Serif" font-size="10.00">precice/types.hpp</text>
</a>
</g>
</g>
<!-- Node30&#45;&gt;Node35 -->
<g id="edge33" class="edge">
<title>Node30&#45;&gt;Node35</title>
<path fill="none" stroke="midnightblue" d="M1823.59,-414.42C1806.27,-407.29 1784.18,-395.47 1771,-378 1758.49,-361.41 1754.14,-337.56 1752.67,-321.02"/>
<polygon fill="midnightblue" stroke="midnightblue" points="1756.16,-320.68 1752.05,-310.92 1749.17,-321.11 1756.16,-320.68"/>
</g>
<!-- Node36 -->
<g id="node25" class="node">
<title>Node36</title>
<g id="a_node25"><a xlink:href="Parallel_8hpp.html" target="_top" xlink:title=" ">
<polygon fill="white" stroke="black" points="1356,-353 1356,-372 1454,-372 1454,-353 1356,-353"/>
<text text-anchor="middle" x="1405" y="-360" font-family="Helvetica,sans-Serif" font-size="10.00">utils/Parallel.hpp</text>
</a>
</g>
</g>
<!-- Node30&#45;&gt;Node36 -->
<g id="edge34" class="edge">
<title>Node30&#45;&gt;Node36</title>
<path fill="none" stroke="midnightblue" d="M1785.39,-414.48C1699.53,-402.97 1547.72,-382.63 1464.19,-371.43"/>
<polygon fill="midnightblue" stroke="midnightblue" points="1464.49,-367.94 1454.11,-370.08 1463.56,-374.88 1464.49,-367.94"/>
</g>
<!-- Node34&#45;&gt;Node8 -->
<g id="edge32" class="edge">
<title>Node34&#45;&gt;Node8</title>
<path fill="none" stroke="midnightblue" d="M1609.4,-291.08C1602.77,-283.3 1592.98,-271.8 1584.94,-262.37"/>
<polygon fill="midnightblue" stroke="midnightblue" points="1587.6,-260.09 1578.45,-254.75 1582.27,-264.63 1587.6,-260.09"/>
</g>
<!-- Node36&#45;&gt;Node5 -->
<g id="edge38" class="edge">
<title>Node36&#45;&gt;Node5</title>
<path fill="none" stroke="midnightblue" d="M1406.9,-352.86C1410.94,-333.71 1420,-286.24 1420,-246 1420,-246 1420,-246 1420,-188 1420,-149.99 1403.48,-107.94 1392.82,-84.78"/>
<polygon fill="midnightblue" stroke="midnightblue" points="1395.88,-83.06 1388.41,-75.54 1389.56,-86.08 1395.88,-83.06"/>
</g>
<!-- Node36&#45;&gt;Node6 -->
<g id="edge39" class="edge">
<title>Node36&#45;&gt;Node6</title>
<path fill="none" stroke="midnightblue" d="M1355.97,-353.71C1282.18,-341.95 1146.96,-320.23 1100.5,-311.03"/>
<polygon fill="midnightblue" stroke="midnightblue" points="1101.2,-307.6 1090.69,-308.98 1099.76,-314.45 1101.2,-307.6"/>
</g>
<!-- Node36&#45;&gt;Node7 -->
<g id="edge40" class="edge">
<title>Node36&#45;&gt;Node7</title>
<path fill="none" stroke="midnightblue" d="M1370.33,-352.98C1327.47,-342.44 1254.46,-324.49 1207.5,-312.94"/>
<polygon fill="midnightblue" stroke="midnightblue" points="1208.15,-309.5 1197.61,-310.51 1206.48,-316.3 1208.15,-309.5"/>
</g>
<!-- Node36&#45;&gt;Node8 -->
<g id="edge36" class="edge">
<title>Node36&#45;&gt;Node8</title>
<path fill="none" stroke="midnightblue" d="M1426.77,-352.84C1447.8,-343.96 1480.04,-328.92 1505,-311 1524.69,-296.86 1544.07,-276.84 1556.68,-262.77"/>
<polygon fill="midnightblue" stroke="midnightblue" points="1559.64,-264.7 1563.6,-254.87 1554.38,-260.09 1559.64,-264.7"/>
</g>
<!-- Node36&#45;&gt;Node35 -->
<g id="edge41" class="edge">
<title>Node36&#45;&gt;Node35</title>
<path fill="none" stroke="midnightblue" d="M1454.35,-353.04C1517,-342.3 1624.99,-323.78 1692.24,-312.25"/>
<polygon fill="midnightblue" stroke="midnightblue" points="1693,-315.67 1702.26,-310.53 1691.81,-308.77 1693,-315.67"/>
</g>
<!-- Node37 -->
<g id="node26" class="node">
<title>Node37</title>
<g id="a_node26"><a xlink:title=" ">
<polygon fill="white" stroke="#bfbfbf" points="1448,-291.5 1448,-310.5 1496,-310.5 1496,-291.5 1448,-291.5"/>
<text text-anchor="middle" x="1472" y="-298.5" font-family="Helvetica,sans-Serif" font-size="10.00">iosfwd</text>
</a>
</g>
</g>
<!-- Node36&#45;&gt;Node37 -->
<g id="edge35" class="edge">
<title>Node36&#45;&gt;Node37</title>
<path fill="none" stroke="midnightblue" d="M1414.6,-352.98C1425.05,-343.7 1441.97,-328.67 1454.74,-317.33"/>
<polygon fill="midnightblue" stroke="midnightblue" points="1457.27,-319.77 1462.42,-310.51 1452.62,-314.53 1457.27,-319.77"/>
</g>
<!-- Node38 -->
<g id="node27" class="node">
<title>Node38</title>
<g id="a_node27"><a xlink:title=" ">
<polygon fill="white" stroke="#bfbfbf" points="1274,-291.5 1274,-310.5 1330,-310.5 1330,-291.5 1274,-291.5"/>
<text text-anchor="middle" x="1302" y="-298.5" font-family="Helvetica,sans-Serif" font-size="10.00">optional</text>
</a>
</g>
</g>
<!-- Node36&#45;&gt;Node38 -->
<g id="edge37" class="edge">
<title>Node36&#45;&gt;Node38</title>
<path fill="none" stroke="midnightblue" d="M1390.24,-352.98C1373.34,-343.21 1345.42,-327.08 1325.51,-315.58"/>
<polygon fill="midnightblue" stroke="midnightblue" points="1327.14,-312.48 1316.73,-310.51 1323.64,-318.54 1327.14,-312.48"/>
</g>
<!-- Node39 -->
<g id="node28" class="node">
<title>Node39</title>
<g id="a_node28"><a xlink:title=" ">
<polygon fill="white" stroke="#bfbfbf" points="1348,-291.5 1348,-310.5 1392,-310.5 1392,-291.5 1348,-291.5"/>
<text text-anchor="middle" x="1370" y="-298.5" font-family="Helvetica,sans-Serif" font-size="10.00">mpi.h</text>
</a>
</g>
</g>
<!-- Node36&#45;&gt;Node39 -->
<g id="edge42" class="edge">
<title>Node36&#45;&gt;Node39</title>
<path fill="none" stroke="midnightblue" d="M1399.99,-352.98C1394.84,-344.23 1386.69,-330.37 1380.18,-319.31"/>
<polygon fill="midnightblue" stroke="midnightblue" points="1383.09,-317.35 1375.01,-310.51 1377.06,-320.9 1383.09,-317.35"/>
</g>
<!-- Node40&#45;&gt;Node2 -->
<g id="edge44" class="edge">
<title>Node40&#45;&gt;Node2</title>
<path fill="none" stroke="midnightblue" d="M1485.21,-589.91C1215.08,-584.2 38,-555.07 38,-481 38,-481 38,-481 38,-126.5 38,-84.81 72.98,-46.53 95.48,-26.22"/>
<polygon fill="midnightblue" stroke="midnightblue" points="97.86,-28.78 103.11,-19.58 93.27,-23.5 97.86,-28.78"/>
</g>
<!-- Node40&#45;&gt;Node5 -->
<g id="edge46" class="edge">
<title>Node40&#45;&gt;Node5</title>
<path fill="none" stroke="midnightblue" d="M1594.71,-589.73C1759.69,-584.44 2241,-557.65 2241,-425 2241,-425 2241,-425 2241,-361.5 2241,-114.34 1986.04,-162.05 1744,-112 1624.47,-87.28 1479.61,-74.2 1416.27,-69.3"/>
<polygon fill="midnightblue" stroke="midnightblue" points="1416.35,-65.8 1406.12,-68.53 1415.82,-72.78 1416.35,-65.8"/>
</g>
<!-- Node40&#45;&gt;Node30 -->
<g id="edge71" class="edge">
<title>Node40&#45;&gt;Node30</title>
<path fill="none" stroke="midnightblue" d="M1594.77,-585.13C1632.63,-579.31 1683.16,-567.93 1723,-546 1771.96,-519.05 1815.72,-468.2 1836.4,-441.83"/>
<polygon fill="midnightblue" stroke="midnightblue" points="1839.41,-443.66 1842.72,-433.6 1833.85,-439.4 1839.41,-443.66"/>
</g>
<!-- Node40&#45;&gt;Node32 -->
<g id="edge47" class="edge">
<title>Node40&#45;&gt;Node32</title>
<path fill="none" stroke="midnightblue" d="M1594.96,-590.31C1729.18,-588.11 2070.57,-579.31 2179,-546 2234.02,-529.1 2291,-538.55 2291,-481 2291,-481 2291,-481 2291,-361.5 2291,-327.32 2293.65,-287.52 2295.43,-264.69"/>
<polygon fill="midnightblue" stroke="midnightblue" points="2298.92,-264.93 2296.24,-254.69 2291.95,-264.37 2298.92,-264.93"/>
</g>
<!-- Node41 -->
<g id="node30" class="node">
<title>Node41</title>
<g id="a_node30"><a xlink:title=" ">
<polygon fill="white" stroke="#bfbfbf" points="1474,-526.5 1474,-545.5 1606,-545.5 1606,-526.5 1474,-526.5"/>
<text text-anchor="middle" x="1540" y="-533.5" font-family="Helvetica,sans-Serif" font-size="10.00">boost/test/unit_test.hpp</text>
</a>
</g>
</g>
<!-- Node40&#45;&gt;Node41 -->
<g id="edge45" class="edge">
<title>Node40&#45;&gt;Node41</title>
<path fill="none" stroke="midnightblue" d="M1540,-582.08C1540,-575.01 1540,-564.86 1540,-555.99"/>
<polygon fill="midnightblue" stroke="midnightblue" points="1543.5,-555.75 1540,-545.75 1536.5,-555.75 1543.5,-555.75"/>
</g>
<!-- Node42 -->
<g id="node31" class="node">
<title>Node42</title>
<g id="a_node31"><a xlink:href="differences_8hpp.html" target="_top" xlink:title=" ">
<polygon fill="white" stroke="black" points="882,-470.5 882,-489.5 1002,-489.5 1002,-470.5 882,-470.5"/>
<text text-anchor="middle" x="942" y="-477.5" font-family="Helvetica,sans-Serif" font-size="10.00">math/differences.hpp</text>
</a>
</g>
</g>
<!-- Node40&#45;&gt;Node42 -->
<g id="edge48" class="edge">
<title>Node40&#45;&gt;Node42</title>
<path fill="none" stroke="midnightblue" d="M1493.57,-582.46C1385.18,-562.52 1115.76,-512.96 998.27,-491.35"/>
<polygon fill="midnightblue" stroke="midnightblue" points="998.87,-487.9 988.4,-489.53 997.6,-494.79 998.87,-487.9"/>
</g>
<!-- Node51 -->
<g id="node40" class="node">
<title>Node51</title>
<g id="a_node40"><a xlink:href="math_8hpp.html" target="_top" xlink:title=" ">
<polygon fill="white" stroke="black" points="829,-526.5 829,-545.5 921,-545.5 921,-526.5 829,-526.5"/>
<text text-anchor="middle" x="875" y="-533.5" font-family="Helvetica,sans-Serif" font-size="10.00">math/math.hpp</text>
</a>
</g>
</g>
<!-- Node40&#45;&gt;Node51 -->
<g id="edge65" class="edge">
<title>Node40&#45;&gt;Node51</title>
<path fill="none" stroke="midnightblue" d="M1485.3,-586.56C1360.79,-576.45 1057.32,-551.8 931.3,-541.57"/>
<polygon fill="midnightblue" stroke="midnightblue" points="931.35,-538.06 921.1,-540.74 930.78,-545.04 931.35,-538.06"/>
</g>
<!-- Node54 -->
<g id="node43" class="node">
<title>Node54</title>
<g id="a_node43"><a xlink:href="IntraComm_8hpp.html" target="_top" xlink:title=" ">
<polygon fill="white" stroke="black" points="1780,-353 1780,-372 1896,-372 1896,-353 1780,-353"/>
<text text-anchor="middle" x="1838" y="-360" font-family="Helvetica,sans-Serif" font-size="10.00">utils/IntraComm.hpp</text>
</a>
</g>
</g>
<!-- Node40&#45;&gt;Node54 -->
<g id="edge72" class="edge">
<title>Node40&#45;&gt;Node54</title>
<path fill="none" stroke="midnightblue" d="M1555.95,-582.37C1571.45,-573.76 1595.43,-559.87 1615,-546 1689.93,-492.89 1702.61,-471.78 1774,-414 1788.84,-401.99 1805.81,-388.62 1818.54,-378.65"/>
<polygon fill="midnightblue" stroke="midnightblue" points="1820.88,-381.27 1826.6,-372.36 1816.57,-375.75 1820.88,-381.27"/>
</g>
<!-- Node42&#45;&gt;Node2 -->
<g id="edge49" class="edge">
<title>Node42&#45;&gt;Node2</title>
<path fill="none" stroke="midnightblue" d="M881.67,-471.24C878.4,-470.82 875.16,-470.4 872,-470 787.64,-459.22 114,-448.55 114,-363.5 114,-363.5 114,-363.5 114,-126.5 114,-92.36 114,-52.55 114,-29.71"/>
<polygon fill="midnightblue" stroke="midnightblue" points="117.5,-29.69 114,-19.69 110.5,-29.69 117.5,-29.69"/>
</g>
<!-- Node43 -->
<g id="node32" class="node">
<title>Node43</title>
<g id="a_node32"><a xlink:href="assertion_8hpp.html" target="_top" xlink:title=" ">
<polygon fill="white" stroke="black" points="715.5,-414.5 715.5,-433.5 822.5,-433.5 822.5,-414.5 715.5,-414.5"/>
<text text-anchor="middle" x="769" y="-421.5" font-family="Helvetica,sans-Serif" font-size="10.00">utils/assertion.hpp</text>
</a>
</g>
</g>
<!-- Node42&#45;&gt;Node43 -->
<g id="edge50" class="edge">
<title>Node42&#45;&gt;Node43</title>
<path fill="none" stroke="midnightblue" d="M914.59,-470.44C885.23,-461.28 838.48,-446.69 805.9,-436.52"/>
<polygon fill="midnightblue" stroke="midnightblue" points="806.87,-433.16 796.28,-433.52 804.79,-439.84 806.87,-433.16"/>
</g>
<!-- Node43&#45;&gt;Node9 -->
<g id="edge53" class="edge">
<title>Node43&#45;&gt;Node9</title>
<path fill="none" stroke="midnightblue" d="M715.43,-422.49C576.43,-420.69 212.12,-412.67 171,-378 144.38,-355.56 152,-336.82 152,-302 152,-302 152,-302 152,-188 152,-126.01 610.88,-83.07 761.06,-70.68"/>
<polygon fill="midnightblue" stroke="midnightblue" points="761.64,-74.14 771.32,-69.84 761.07,-67.17 761.64,-74.14"/>
</g>
<!-- Node43&#45;&gt;Node11 -->
<g id="edge54" class="edge">
<title>Node43&#45;&gt;Node11</title>
<path fill="none" stroke="midnightblue" d="M822.72,-416.68C869.37,-409.96 931.77,-397.55 947,-378 955.46,-367.13 951.12,-360.15 947,-347 941.18,-328.41 927.82,-329.59 922,-311 919.34,-302.52 919.62,-299.56 922,-291 938.41,-232 982.66,-173.01 1005.67,-145.12"/>
<polygon fill="midnightblue" stroke="midnightblue" points="1008.57,-147.1 1012.33,-137.19 1003.21,-142.59 1008.57,-147.1"/>
</g>
<!-- Node43&#45;&gt;Node23 -->
<g id="edge60" class="edge">
<title>Node43&#45;&gt;Node23</title>
<path fill="none" stroke="midnightblue" d="M790.8,-414.48C806.34,-407.22 826.31,-395.19 837,-378 870.57,-324.05 867.15,-244.52 863.44,-208.7"/>
<polygon fill="midnightblue" stroke="midnightblue" points="866.91,-208.22 862.28,-198.69 859.96,-209.03 866.91,-208.22"/>
</g>
<!-- Node43&#45;&gt;Node24 -->
<g id="edge57" class="edge">
<title>Node43&#45;&gt;Node24</title>
<path fill="none" stroke="midnightblue" d="M760.55,-414.45C752.57,-405.91 740.84,-392.06 734,-378 718.76,-346.69 715,-336.82 715,-302 715,-302 715,-302 715,-244 715,-211.74 724.77,-175.62 732.34,-152.5"/>
<polygon fill="midnightblue" stroke="midnightblue" points="735.71,-153.45 735.61,-142.85 729.08,-151.2 735.71,-153.45"/>
</g>
<!-- Node43&#45;&gt;Node26 -->
<g id="edge58" class="edge">
<title>Node43&#45;&gt;Node26</title>
<path fill="none" stroke="midnightblue" d="M778.56,-414.45C787.09,-406.12 798.99,-392.6 804,-378 808.47,-364.97 805.42,-360.7 804,-347 796.18,-271.48 733.75,-244 773,-179 781.55,-164.85 795.52,-154.47 810.19,-146.93"/>
<polygon fill="midnightblue" stroke="midnightblue" points="811.82,-150.03 819.38,-142.6 808.84,-143.7 811.82,-150.03"/>
</g>
<!-- Node43&#45;&gt;Node36 -->
<g id="edge61" class="edge">
<title>Node43&#45;&gt;Node36</title>
<path fill="none" stroke="midnightblue" d="M822.78,-418.22C913.12,-410.15 1101.08,-393.23 1260,-378 1288.12,-375.31 1319.3,-372.2 1345.52,-369.56"/>
<polygon fill="midnightblue" stroke="midnightblue" points="1346.08,-373.02 1355.68,-368.53 1345.38,-366.06 1346.08,-373.02"/>
</g>
<!-- Node44 -->
<g id="node33" class="node">
<title>Node44</title>
<g id="a_node33"><a xlink:title=" ">
<polygon fill="white" stroke="#bfbfbf" points="889.5,-353 889.5,-372 938.5,-372 938.5,-353 889.5,-353"/>
<text text-anchor="middle" x="914" y="-360" font-family="Helvetica,sans-Serif" font-size="10.00">cstdlib</text>
</a>
</g>
</g>
<!-- Node43&#45;&gt;Node44 -->
<g id="edge51" class="edge">
<title>Node43&#45;&gt;Node44</title>
<path fill="none" stroke="midnightblue" d="M789.77,-414.48C814.43,-404.36 855.75,-387.4 883.9,-375.85"/>
<polygon fill="midnightblue" stroke="midnightblue" points="885.34,-379.04 893.26,-372.01 882.68,-372.57 885.34,-379.04"/>
</g>
<!-- Node45 -->
<g id="node34" class="node">
<title>Node45</title>
<g id="a_node34"><a xlink:title=" ">
<polygon fill="white" stroke="#bfbfbf" points="180,-353 180,-372 240,-372 240,-353 180,-353"/>
<text text-anchor="middle" x="210" y="-360" font-family="Helvetica,sans-Serif" font-size="10.00">iostream</text>
</a>
</g>
</g>
<!-- Node43&#45;&gt;Node45 -->
<g id="edge52" class="edge">
<title>Node43&#45;&gt;Node45</title>
<path fill="none" stroke="midnightblue" d="M715.12,-423.09C619.89,-422.19 416.09,-415.57 249,-378 245.93,-377.31 242.77,-376.43 239.65,-375.46"/>
<polygon fill="midnightblue" stroke="midnightblue" points="240.52,-372.05 229.93,-372.08 238.23,-378.67 240.52,-372.05"/>
</g>
<!-- Node46 -->
<g id="node35" class="node">
<title>Node46</title>
<g id="a_node35"><a xlink:title=" ">
<polygon fill="white" stroke="#bfbfbf" points="258.5,-353 258.5,-372 405.5,-372 405.5,-353 258.5,-353"/>
<text text-anchor="middle" x="332" y="-360" font-family="Helvetica,sans-Serif" font-size="10.00">boost/current_function.hpp</text>
</a>
</g>
</g>
<!-- Node43&#45;&gt;Node46 -->
<g id="edge55" class="edge">
<title>Node43&#45;&gt;Node46</title>
<path fill="none" stroke="midnightblue" d="M715.36,-417.03C645.75,-409.09 520.57,-394.17 414,-378 405.58,-376.72 396.68,-375.26 387.99,-373.78"/>
<polygon fill="midnightblue" stroke="midnightblue" points="388.36,-370.29 377.91,-372.03 387.16,-377.19 388.36,-370.29"/>
</g>
<!-- Node47 -->
<g id="node36" class="node">
<title>Node47</title>
<g id="a_node36"><a xlink:title=" ">
<polygon fill="white" stroke="#bfbfbf" points="423.5,-347.5 423.5,-377.5 558.5,-377.5 558.5,-347.5 423.5,-347.5"/>
<text text-anchor="start" x="431.5" y="-365.5" font-family="Helvetica,sans-Serif" font-size="10.00">boost/preprocessor</text>
<text text-anchor="middle" x="491" y="-354.5" font-family="Helvetica,sans-Serif" font-size="10.00">/comparison/greater.hpp</text>
</a>
</g>
</g>
<!-- Node43&#45;&gt;Node47 -->
<g id="edge56" class="edge">
<title>Node43&#45;&gt;Node47</title>
<path fill="none" stroke="midnightblue" d="M729.17,-414.48C686.86,-405.42 618.96,-390.89 566.47,-379.65"/>
<polygon fill="midnightblue" stroke="midnightblue" points="567.03,-376.19 556.52,-377.52 565.57,-383.04 567.03,-376.19"/>
</g>
<!-- Node48 -->
<g id="node37" class="node">
<title>Node48</title>
<g id="a_node37"><a xlink:title=" ">
<polygon fill="white" stroke="#bfbfbf" points="577,-347.5 577,-377.5 687,-377.5 687,-347.5 577,-347.5"/>
<text text-anchor="start" x="585" y="-365.5" font-family="Helvetica,sans-Serif" font-size="10.00">boost/preprocessor</text>
<text text-anchor="middle" x="632" y="-354.5" font-family="Helvetica,sans-Serif" font-size="10.00">/variadic/size.hpp</text>
</a>
</g>
</g>
<!-- Node43&#45;&gt;Node48 -->
<g id="edge59" class="edge">
<title>Node43&#45;&gt;Node48</title>
<path fill="none" stroke="midnightblue" d="M749.37,-414.48C729.69,-405.93 698.78,-392.5 673.61,-381.57"/>
<polygon fill="midnightblue" stroke="midnightblue" points="674.85,-378.3 664.29,-377.52 672.07,-384.72 674.85,-378.3"/>
</g>
<!-- Node49 -->
<g id="node38" class="node">
<title>Node49</title>
<g id="a_node38"><a xlink:href="stacktrace_8hpp.html" target="_top" xlink:title=" ">
<polygon fill="white" stroke="black" points="1256.5,-179.5 1256.5,-198.5 1369.5,-198.5 1369.5,-179.5 1256.5,-179.5"/>
<text text-anchor="middle" x="1313" y="-186.5" font-family="Helvetica,sans-Serif" font-size="10.00">utils/stacktrace.hpp</text>
</a>
</g>
</g>
<!-- Node43&#45;&gt;Node49 -->
<g id="edge62" class="edge">
<title>Node43&#45;&gt;Node49</title>
<path fill="none" stroke="midnightblue" d="M822.54,-419.6C909.38,-413.55 1076.82,-399.48 1132,-378 1216.85,-344.96 1280.03,-247.94 1303.27,-207.75"/>
<polygon fill="midnightblue" stroke="midnightblue" points="1306.43,-209.26 1308.3,-198.83 1300.34,-205.81 1306.43,-209.26"/>
</g>
<!-- Node50 -->
<g id="node39" class="node">
<title>Node50</title>
<g id="a_node39"><a xlink:title=" ">
<polygon fill="white" stroke="#bfbfbf" points="743,-353 743,-372 795,-372 795,-353 743,-353"/>
<text text-anchor="middle" x="769" y="-360" font-family="Helvetica,sans-Serif" font-size="10.00">cassert</text>
</a>
</g>
</g>
<!-- Node43&#45;&gt;Node50 -->
<g id="edge64" class="edge">
<title>Node43&#45;&gt;Node50</title>
<path fill="none" stroke="midnightblue" d="M769,-414.48C769,-406.08 769,-392.98 769,-382.16"/>
<polygon fill="midnightblue" stroke="midnightblue" points="772.5,-382.01 769,-372.01 765.5,-382.01 772.5,-382.01"/>
</g>
<!-- Node49&#45;&gt;Node5 -->
<g id="edge63" class="edge">
<title>Node49&#45;&gt;Node5</title>
<path fill="none" stroke="midnightblue" d="M1318.11,-179.3C1329.72,-159.5 1358.31,-110.78 1373.74,-84.49"/>
<polygon fill="midnightblue" stroke="midnightblue" points="1376.9,-86.02 1378.94,-75.62 1370.86,-82.48 1376.9,-86.02"/>
</g>
<!-- Node51&#45;&gt;Node42 -->
<g id="edge67" class="edge">
<title>Node51&#45;&gt;Node42</title>
<path fill="none" stroke="midnightblue" d="M885.76,-526.32C895.77,-518.26 910.89,-506.08 922.93,-496.37"/>
<polygon fill="midnightblue" stroke="midnightblue" points="925.45,-498.83 931.04,-489.83 921.06,-493.38 925.45,-498.83"/>
</g>
<!-- Node52 -->
<g id="node41" class="node">
<title>Node52</title>
<g id="a_node41"><a xlink:href="constants_8hpp.html" target="_top" xlink:title=" ">
<polygon fill="white" stroke="black" points="750.5,-470.5 750.5,-489.5 863.5,-489.5 863.5,-470.5 750.5,-470.5"/>
<text text-anchor="middle" x="807" y="-477.5" font-family="Helvetica,sans-Serif" font-size="10.00">math/constants.hpp</text>
</a>
</g>
</g>
<!-- Node51&#45;&gt;Node52 -->
<g id="edge66" class="edge">
<title>Node51&#45;&gt;Node52</title>
<path fill="none" stroke="midnightblue" d="M864.07,-526.32C853.83,-518.18 838.28,-505.84 826,-496.09"/>
<polygon fill="midnightblue" stroke="midnightblue" points="828.13,-493.31 818.12,-489.83 823.78,-498.79 828.13,-493.31"/>
</g>
<!-- Node53 -->
<g id="node42" class="node">
<title>Node53</title>
<g id="a_node42"><a xlink:href="la_8hpp.html" target="_top" xlink:title=" ">
<polygon fill="white" stroke="black" points="657.5,-470.5 657.5,-489.5 732.5,-489.5 732.5,-470.5 657.5,-470.5"/>
<text text-anchor="middle" x="695" y="-477.5" font-family="Helvetica,sans-Serif" font-size="10.00">math/la.hpp</text>
</a>
</g>
</g>
<!-- Node51&#45;&gt;Node53 -->
<g id="edge68" class="edge">
<title>Node51&#45;&gt;Node53</title>
<path fill="none" stroke="midnightblue" d="M846.48,-526.44C815.93,-517.28 767.29,-502.69 733.4,-492.52"/>
<polygon fill="midnightblue" stroke="midnightblue" points="733.97,-489.04 723.39,-489.52 731.96,-495.74 733.97,-489.04"/>
</g>
<!-- Node53&#45;&gt;Node2 -->
<g id="edge69" class="edge">
<title>Node53&#45;&gt;Node2</title>
<path fill="none" stroke="midnightblue" d="M657.49,-478.53C533.78,-476.66 144.02,-468.1 100,-434 73.83,-413.73 76,-396.6 76,-363.5 76,-363.5 76,-363.5 76,-126.5 76,-90.25 93.09,-50.67 104.35,-28.53"/>
<polygon fill="midnightblue" stroke="midnightblue" points="107.46,-30.14 109.03,-19.66 101.27,-26.87 107.46,-30.14"/>
</g>
<!-- Node53&#45;&gt;Node43 -->
<g id="edge70" class="edge">
<title>Node53&#45;&gt;Node43</title>
<path fill="none" stroke="midnightblue" d="M706.89,-470.32C718.15,-462.11 735.29,-449.6 748.71,-439.81"/>
<polygon fill="midnightblue" stroke="midnightblue" points="750.88,-442.56 756.89,-433.83 746.75,-436.9 750.88,-442.56"/>
</g>
<!-- Node54&#45;&gt;Node2 -->
<g id="edge73" class="edge">
<title>Node54&#45;&gt;Node2</title>
<path fill="none" stroke="midnightblue" d="M1883.11,-352.96C1908.95,-345.86 1940.1,-333.18 1960,-311 1980.1,-288.6 1979,-276.1 1979,-246 1979,-246 1979,-246 1979,-126.5 1979,-32.32 443.82,-13.96 159.13,-11.37"/>
<polygon fill="midnightblue" stroke="midnightblue" points="158.8,-7.86 148.77,-11.27 158.74,-14.86 158.8,-7.86"/>
</g>
<!-- Node54&#45;&gt;Node7 -->
<g id="edge77" class="edge">
<title>Node54&#45;&gt;Node7</title>
<path fill="none" stroke="midnightblue" d="M1779.84,-356.38C1676.32,-347.26 1453.26,-327.6 1265,-311 1252.96,-309.94 1240.13,-308.81 1227.77,-307.72"/>
<polygon fill="midnightblue" stroke="midnightblue" points="1227.79,-304.2 1217.52,-306.81 1227.18,-311.18 1227.79,-304.2"/>
</g>
<!-- Node54&#45;&gt;Node35 -->
<g id="edge84" class="edge">
<title>Node54&#45;&gt;Node35</title>
<path fill="none" stroke="midnightblue" d="M1825.68,-352.98C1811.88,-343.43 1789.3,-327.81 1772.77,-316.37"/>
<polygon fill="midnightblue" stroke="midnightblue" points="1774.51,-313.32 1764.3,-310.51 1770.53,-319.08 1774.51,-313.32"/>
</g>
<!-- Node55 -->
<g id="node44" class="node">
<title>Node55</title>
<g id="a_node44"><a xlink:title=" ">
<polygon fill="white" stroke="#bfbfbf" points="2007.5,-291.5 2007.5,-310.5 2136.5,-310.5 2136.5,-291.5 2007.5,-291.5"/>
<text text-anchor="middle" x="2072" y="-298.5" font-family="Helvetica,sans-Serif" font-size="10.00">boost/range/irange.hpp</text>
</a>
</g>
</g>
<!-- Node54&#45;&gt;Node55 -->
<g id="edge74" class="edge">
<title>Node54&#45;&gt;Node55</title>
<path fill="none" stroke="midnightblue" d="M1871.53,-352.98C1912.88,-342.46 1983.27,-324.56 2028.68,-313.01"/>
<polygon fill="midnightblue" stroke="midnightblue" points="2029.71,-316.37 2038.54,-310.51 2027.98,-309.58 2029.71,-316.37"/>
</g>
<!-- Node56 -->
<g id="node45" class="node">
<title>Node56</title>
<g id="a_node45"><a xlink:href="com_2SharedPointer_8hpp.html" target="_top" xlink:title=" ">
<polygon fill="white" stroke="black" points="1821.5,-291.5 1821.5,-310.5 1950.5,-310.5 1950.5,-291.5 1821.5,-291.5"/>
<text text-anchor="middle" x="1886" y="-298.5" font-family="Helvetica,sans-Serif" font-size="10.00">com/SharedPointer.hpp</text>
</a>
</g>
</g>
<!-- Node54&#45;&gt;Node56 -->
<g id="edge75" class="edge">
<title>Node54&#45;&gt;Node56</title>
<path fill="none" stroke="midnightblue" d="M1844.88,-352.98C1852.15,-343.96 1863.8,-329.52 1872.84,-318.31"/>
<polygon fill="midnightblue" stroke="midnightblue" points="1875.58,-320.49 1879.14,-310.51 1870.13,-316.09 1875.58,-320.49"/>
</g>
<!-- Node57 -->
<g id="node46" class="node">
<title>Node57</title>
<g id="a_node46"><a xlink:href="span_8hpp.html" target="_top" xlink:title=" ">
<polygon fill="white" stroke="black" points="2351.5,-291.5 2351.5,-310.5 2450.5,-310.5 2450.5,-291.5 2351.5,-291.5"/>
<text text-anchor="middle" x="2401" y="-298.5" font-family="Helvetica,sans-Serif" font-size="10.00">precice/span.hpp</text>
</a>
</g>
</g>
<!-- Node54&#45;&gt;Node57 -->
<g id="edge78" class="edge">
<title>Node54&#45;&gt;Node57</title>
<path fill="none" stroke="midnightblue" d="M1874.2,-352.94C1884.44,-350.75 1895.62,-348.57 1906,-347 2062.04,-323.36 2247.77,-310.53 2341.13,-305.13"/>
<polygon fill="midnightblue" stroke="midnightblue" points="2341.45,-308.62 2351.23,-304.55 2341.05,-301.63 2341.45,-308.62"/>
</g>
<!-- Node56&#45;&gt;Node8 -->
<g id="edge76" class="edge">
<title>Node56&#45;&gt;Node8</title>
<path fill="none" stroke="midnightblue" d="M1836.09,-291.44C1773.54,-280.72 1667.62,-262.56 1610.44,-252.76"/>
<polygon fill="midnightblue" stroke="midnightblue" points="1610.8,-249.27 1600.35,-251.03 1609.62,-256.17 1610.8,-249.27"/>
</g>
<!-- Node57&#45;&gt;Node32 -->
<g id="edge83" class="edge">
<title>Node57&#45;&gt;Node32</title>
<path fill="none" stroke="midnightblue" d="M2384.29,-291.32C2367.69,-282.7 2342,-269.36 2322.78,-259.39"/>
<polygon fill="midnightblue" stroke="midnightblue" points="2324.16,-256.16 2313.67,-254.65 2320.93,-262.37 2324.16,-256.16"/>
</g>
<!-- Node19 -->
<g id="node47" class="node">
<title>Node19</title>
<g id="a_node47"><a xlink:title=" ">
<polygon fill="white" stroke="#bfbfbf" points="2418,-235.5 2418,-254.5 2460,-254.5 2460,-235.5 2418,-235.5"/>
<text text-anchor="middle" x="2439" y="-242.5" font-family="Helvetica,sans-Serif" font-size="10.00">array</text>
</a>
</g>
</g>
<!-- Node57&#45;&gt;Node19 -->
<g id="edge79" class="edge">
<title>Node57&#45;&gt;Node19</title>
<path fill="none" stroke="midnightblue" d="M2407.27,-291.08C2412.64,-283.46 2420.52,-272.26 2427.08,-262.94"/>
<polygon fill="midnightblue" stroke="midnightblue" points="2429.95,-264.94 2432.84,-254.75 2424.22,-260.91 2429.95,-264.94"/>
</g>
<!-- Node58 -->
<g id="node48" class="node">
<title>Node58</title>
<g id="a_node48"><a xlink:title=" ">
<polygon fill="white" stroke="#bfbfbf" points="2478.5,-235.5 2478.5,-254.5 2531.5,-254.5 2531.5,-235.5 2478.5,-235.5"/>
<text text-anchor="middle" x="2505" y="-242.5" font-family="Helvetica,sans-Serif" font-size="10.00">cstddef</text>
</a>
</g>
</g>
<!-- Node57&#45;&gt;Node58 -->
<g id="edge80" class="edge">
<title>Node57&#45;&gt;Node58</title>
<path fill="none" stroke="midnightblue" d="M2417.71,-291.32C2434.31,-282.7 2460,-269.36 2479.22,-259.39"/>
<polygon fill="midnightblue" stroke="midnightblue" points="2481.07,-262.37 2488.33,-254.65 2477.84,-256.16 2481.07,-262.37"/>
</g>
<!-- Node59 -->
<g id="node49" class="node">
<title>Node59</title>
<g id="a_node49"><a xlink:title=" ">
<polygon fill="white" stroke="#bfbfbf" points="2550,-235.5 2550,-254.5 2600,-254.5 2600,-235.5 2550,-235.5"/>
<text text-anchor="middle" x="2575" y="-242.5" font-family="Helvetica,sans-Serif" font-size="10.00">cstdint</text>
</a>
</g>
</g>
<!-- Node57&#45;&gt;Node59 -->
<g id="edge81" class="edge">
<title>Node57&#45;&gt;Node59</title>
<path fill="none" stroke="midnightblue" d="M2428.57,-291.44C2458.79,-282.06 2507.34,-267 2540.17,-256.81"/>
<polygon fill="midnightblue" stroke="midnightblue" points="2541.3,-260.12 2549.82,-253.82 2539.23,-253.44 2541.3,-260.12"/>
</g>
<!-- Node60 -->
<g id="node50" class="node">
<title>Node60</title>
<g id="a_node50"><a xlink:title=" ">
<polygon fill="white" stroke="#bfbfbf" points="2350,-235.5 2350,-254.5 2400,-254.5 2400,-235.5 2350,-235.5"/>
<text text-anchor="middle" x="2375" y="-242.5" font-family="Helvetica,sans-Serif" font-size="10.00">cstring</text>
</a>
</g>
</g>
<!-- Node57&#45;&gt;Node60 -->
<g id="edge82" class="edge">
<title>Node57&#45;&gt;Node60</title>
<path fill="none" stroke="midnightblue" d="M2396.71,-291.08C2393.15,-283.69 2387.98,-272.95 2383.58,-263.81"/>
<polygon fill="midnightblue" stroke="midnightblue" points="2386.71,-262.24 2379.21,-254.75 2380.4,-265.28 2386.71,-262.24"/>
</g>
</g>
</svg>
