<?xml version="1.0" encoding="UTF-8" standalone="no"?>
<!DOCTYPE svg PUBLIC "-//W3C//DTD SVG 1.1//EN"
 "http://www.w3.org/Graphics/SVG/1.1/DTD/svg11.dtd">
<!-- Generated by graphviz version 2.43.0 (0)
 -->
<!-- Title: src/io/TXTTableWriter.cpp Pages: 1 -->
<svg width="1454pt" height="554pt"
 viewBox="0.00 0.00 1454.00 554.00" xmlns="http://www.w3.org/2000/svg" xmlns:xlink="http://www.w3.org/1999/xlink">
<g id="graph0" class="graph" transform="scale(1 1) rotate(0) translate(4 550)">
<title>src/io/TXTTableWriter.cpp</title>
<polygon fill="white" stroke="transparent" points="-4,4 -4,-550 1450,-550 1450,4 -4,4"/>
<!-- Node1 -->
<g id="node1" class="node">
<title>Node1</title>
<g id="a_node1"><a xlink:title=" ">
<polygon fill="#bfbfbf" stroke="black" points="816,-526.5 816,-545.5 956,-545.5 956,-526.5 816,-526.5"/>
<text text-anchor="middle" x="886" y="-533.5" font-family="Helvetica,sans-Serif" font-size="10.00">src/io/TXTTableWriter.cpp</text>
</a>
</g>
</g>
<!-- Node2 -->
<g id="node2" class="node">
<title>Node2</title>
<g id="a_node2"><a xlink:href="TXTTableWriter_8hpp.html" target="_top" xlink:title=" ">
<polygon fill="white" stroke="black" points="10.5,-409 10.5,-428 121.5,-428 121.5,-409 10.5,-409"/>
<text text-anchor="middle" x="66" y="-416" font-family="Helvetica,sans-Serif" font-size="10.00">TXTTableWriter.hpp</text>
</a>
</g>
</g>
<!-- Node1&#45;&gt;Node2 -->
<g id="edge1" class="edge">
<title>Node1&#45;&gt;Node2</title>
<path fill="none" stroke="midnightblue" d="M815.82,-533.63C641.21,-529.83 196.92,-517.53 136,-490 110.67,-478.55 89.49,-453.58 77.27,-436.65"/>
<polygon fill="midnightblue" stroke="midnightblue" points="80,-434.44 71.44,-428.2 74.25,-438.42 80,-434.44"/>
</g>
<!-- Node10 -->
<g id="node10" class="node">
<title>Node10</title>
<g id="a_node10"><a xlink:href="LogMacros_8hpp.html" target="_top" xlink:title=" ">
<polygon fill="white" stroke="black" points="398,-291.5 398,-310.5 488,-310.5 488,-291.5 398,-291.5"/>
<text text-anchor="middle" x="443" y="-298.5" font-family="Helvetica,sans-Serif" font-size="10.00">LogMacros.hpp</text>
</a>
</g>
</g>
<!-- Node1&#45;&gt;Node10 -->
<g id="edge40" class="edge">
<title>Node1&#45;&gt;Node10</title>
<path fill="none" stroke="midnightblue" d="M891.06,-526.33C903.84,-503.18 934.22,-439.23 903,-403 867.65,-361.98 714.86,-378.73 662,-367 595.69,-352.28 520.08,-328.16 477.3,-313.81"/>
<polygon fill="midnightblue" stroke="midnightblue" points="478.26,-310.44 467.66,-310.56 476.02,-317.07 478.26,-310.44"/>
</g>
<!-- Node15 -->
<g id="node15" class="node">
<title>Node15</title>
<g id="a_node15"><a xlink:title=" ">
<polygon fill="white" stroke="#bfbfbf" points="848,-56.5 848,-75.5 912,-75.5 912,-56.5 848,-56.5"/>
<text text-anchor="middle" x="880" y="-63.5" font-family="Helvetica,sans-Serif" font-size="10.00">algorithm</text>
</a>
</g>
</g>
<!-- Node1&#45;&gt;Node15 -->
<g id="edge38" class="edge">
<title>Node1&#45;&gt;Node15</title>
<path fill="none" stroke="midnightblue" d="M956.24,-532.47C1088.64,-525.78 1362,-501.99 1362,-419.5 1362,-419.5 1362,-419.5 1362,-182.5 1362,-92.5 1040.16,-72.46 922.46,-68.15"/>
<polygon fill="midnightblue" stroke="midnightblue" points="922.49,-64.64 912.37,-67.8 922.25,-71.64 922.49,-64.64"/>
</g>
<!-- Node30 -->
<g id="node30" class="node">
<title>Node30</title>
<g id="a_node30"><a xlink:title=" ">
<polygon fill="white" stroke="#bfbfbf" points="1390,-470.5 1390,-489.5 1446,-489.5 1446,-470.5 1390,-470.5"/>
<text text-anchor="middle" x="1418" y="-477.5" font-family="Helvetica,sans-Serif" font-size="10.00">iomanip</text>
</a>
</g>
</g>
<!-- Node1&#45;&gt;Node30 -->
<g id="edge39" class="edge">
<title>Node1&#45;&gt;Node30</title>
<path fill="none" stroke="midnightblue" d="M956.1,-531.2C1051.5,-525.44 1227.37,-512.67 1376,-490 1377.24,-489.81 1378.51,-489.61 1379.78,-489.39"/>
<polygon fill="midnightblue" stroke="midnightblue" points="1380.43,-492.83 1389.62,-487.56 1379.15,-485.95 1380.43,-492.83"/>
</g>
<!-- Node31 -->
<g id="node31" class="node">
<title>Node31</title>
<g id="a_node31"><a xlink:href="Helpers_8hpp.html" target="_top" xlink:title=" ">
<polygon fill="white" stroke="black" points="140.5,-112.5 140.5,-131.5 239.5,-131.5 239.5,-112.5 140.5,-112.5"/>
<text text-anchor="middle" x="190" y="-119.5" font-family="Helvetica,sans-Serif" font-size="10.00">utils/Helpers.hpp</text>
</a>
</g>
</g>
<!-- Node1&#45;&gt;Node31 -->
<g id="edge41" class="edge">
<title>Node1&#45;&gt;Node31</title>
<path fill="none" stroke="midnightblue" d="M815.76,-531.3C631.8,-520.68 150,-486.47 150,-419.5 150,-419.5 150,-419.5 150,-244 150,-205.65 168.34,-163.75 180.18,-140.7"/>
<polygon fill="midnightblue" stroke="midnightblue" points="183.32,-142.25 184.93,-131.78 177.15,-138.96 183.32,-142.25"/>
</g>
<!-- Node33 -->
<g id="node33" class="node">
<title>Node33</title>
<g id="a_node33"><a xlink:href="assertion_8hpp.html" target="_top" xlink:title=" ">
<polygon fill="white" stroke="black" points="786.5,-470.5 786.5,-489.5 893.5,-489.5 893.5,-470.5 786.5,-470.5"/>
<text text-anchor="middle" x="840" y="-477.5" font-family="Helvetica,sans-Serif" font-size="10.00">utils/assertion.hpp</text>
</a>
</g>
</g>
<!-- Node1&#45;&gt;Node33 -->
<g id="edge47" class="edge">
<title>Node1&#45;&gt;Node33</title>
<path fill="none" stroke="midnightblue" d="M878.4,-526.08C871.77,-518.3 861.98,-506.8 853.94,-497.37"/>
<polygon fill="midnightblue" stroke="midnightblue" points="856.6,-495.09 847.45,-489.75 851.27,-499.63 856.6,-495.09"/>
</g>
<!-- Node3 -->
<g id="node3" class="node">
<title>Node3</title>
<g id="a_node3"><a xlink:title=" ">
<polygon fill="white" stroke="#bfbfbf" points="593.5,-0.5 593.5,-19.5 662.5,-19.5 662.5,-0.5 593.5,-0.5"/>
<text text-anchor="middle" x="628" y="-7.5" font-family="Helvetica,sans-Serif" font-size="10.00">Eigen/Core</text>
</a>
</g>
</g>
<!-- Node2&#45;&gt;Node3 -->
<g id="edge2" class="edge">
<title>Node2&#45;&gt;Node3</title>
<path fill="none" stroke="midnightblue" d="M56.82,-408.9C38.69,-390.92 0,-347.27 0,-302 0,-302 0,-302 0,-121 0,-73.09 41.25,-73.1 86,-56 176.55,-21.39 470.55,-13.35 583.36,-11.52"/>
<polygon fill="midnightblue" stroke="midnightblue" points="583.44,-15.02 593.39,-11.37 583.33,-8.02 583.44,-15.02"/>
</g>
<!-- Node4 -->
<g id="node4" class="node">
<title>Node4</title>
<g id="a_node4"><a xlink:title=" ">
<polygon fill="white" stroke="#bfbfbf" points="66.5,-347.5 66.5,-366.5 121.5,-366.5 121.5,-347.5 66.5,-347.5"/>
<text text-anchor="middle" x="94" y="-354.5" font-family="Helvetica,sans-Serif" font-size="10.00">fstream</text>
</a>
</g>
</g>
<!-- Node2&#45;&gt;Node4 -->
<g id="edge3" class="edge">
<title>Node2&#45;&gt;Node4</title>
<path fill="none" stroke="midnightblue" d="M70.01,-408.98C74.09,-400.32 80.52,-386.65 85.7,-375.65"/>
<polygon fill="midnightblue" stroke="midnightblue" points="88.9,-377.05 90,-366.51 82.57,-374.07 88.9,-377.05"/>
</g>
<!-- Node5 -->
<g id="node5" class="node">
<title>Node5</title>
<g id="a_node5"><a xlink:title=" ">
<polygon fill="white" stroke="#bfbfbf" points="947,-112.5 947,-131.5 991,-131.5 991,-112.5 947,-112.5"/>
<text text-anchor="middle" x="969" y="-119.5" font-family="Helvetica,sans-Serif" font-size="10.00">string</text>
</a>
</g>
</g>
<!-- Node2&#45;&gt;Node5 -->
<g id="edge4" class="edge">
<title>Node2&#45;&gt;Node5</title>
<path fill="none" stroke="midnightblue" d="M121.57,-411.63C233.06,-399.76 474.89,-373.47 492,-367 532.94,-351.52 550.55,-348.57 573,-311 605.81,-256.1 543.93,-213.37 589,-168 613.38,-143.46 849.7,-129.06 936.89,-124.55"/>
<polygon fill="midnightblue" stroke="midnightblue" points="937.19,-128.04 947,-124.03 936.83,-121.05 937.19,-128.04"/>
</g>
<!-- Node6 -->
<g id="node6" class="node">
<title>Node6</title>
<g id="a_node6"><a xlink:title=" ">
<polygon fill="white" stroke="#bfbfbf" points="95.5,-56.5 95.5,-75.5 142.5,-75.5 142.5,-56.5 95.5,-56.5"/>
<text text-anchor="middle" x="119" y="-63.5" font-family="Helvetica,sans-Serif" font-size="10.00">vector</text>
</a>
</g>
</g>
<!-- Node2&#45;&gt;Node6 -->
<g id="edge5" class="edge">
<title>Node2&#45;&gt;Node6</title>
<path fill="none" stroke="midnightblue" d="M62.45,-408.98C54.92,-390.08 38,-343.06 38,-302 38,-302 38,-302 38,-182.5 38,-140 75.22,-102.04 99.2,-82"/>
<polygon fill="midnightblue" stroke="midnightblue" points="101.46,-84.68 107.05,-75.68 97.06,-79.23 101.46,-84.68"/>
</g>
<!-- Node7 -->
<g id="node7" class="node">
<title>Node7</title>
<g id="a_node7"><a xlink:href="Logger_8hpp.html" target="_top" xlink:title=" ">
<polygon fill="white" stroke="black" points="374.5,-347.5 374.5,-366.5 483.5,-366.5 483.5,-347.5 374.5,-347.5"/>
<text text-anchor="middle" x="429" y="-354.5" font-family="Helvetica,sans-Serif" font-size="10.00">logging/Logger.hpp</text>
</a>
</g>
</g>
<!-- Node2&#45;&gt;Node7 -->
<g id="edge6" class="edge">
<title>Node2&#45;&gt;Node7</title>
<path fill="none" stroke="midnightblue" d="M118.01,-408.98C183.78,-398.19 296.89,-379.65 367.06,-368.15"/>
<polygon fill="midnightblue" stroke="midnightblue" points="367.79,-371.58 377.09,-366.51 366.65,-364.67 367.79,-371.58"/>
</g>
<!-- Node8 -->
<g id="node8" class="node">
<title>Node8</title>
<g id="a_node8"><a xlink:title=" ">
<polygon fill="white" stroke="#bfbfbf" points="506,-291.5 506,-310.5 564,-310.5 564,-291.5 506,-291.5"/>
<text text-anchor="middle" x="535" y="-298.5" font-family="Helvetica,sans-Serif" font-size="10.00">memory</text>
</a>
</g>
</g>
<!-- Node7&#45;&gt;Node8 -->
<g id="edge7" class="edge">
<title>Node7&#45;&gt;Node8</title>
<path fill="none" stroke="midnightblue" d="M446.03,-347.32C463.03,-338.66 489.38,-325.24 508.99,-315.25"/>
<polygon fill="midnightblue" stroke="midnightblue" points="510.69,-318.31 518.01,-310.65 507.51,-312.08 510.69,-318.31"/>
</g>
<!-- Node9 -->
<g id="node9" class="node">
<title>Node9</title>
<g id="a_node9"><a xlink:title=" ">
<polygon fill="white" stroke="#bfbfbf" points="257.5,-112.5 257.5,-131.5 330.5,-131.5 330.5,-112.5 257.5,-112.5"/>
<text text-anchor="middle" x="294" y="-119.5" font-family="Helvetica,sans-Serif" font-size="10.00">string_view</text>
</a>
</g>
</g>
<!-- Node7&#45;&gt;Node9 -->
<g id="edge8" class="edge">
<title>Node7&#45;&gt;Node9</title>
<path fill="none" stroke="midnightblue" d="M418.13,-347.21C408.1,-338.71 393.27,-325.08 383,-311 342.11,-254.92 312.45,-177.08 300.21,-141.76"/>
<polygon fill="midnightblue" stroke="midnightblue" points="303.38,-140.22 296.85,-131.87 296.75,-142.46 303.38,-140.22"/>
</g>
<!-- Node7&#45;&gt;Node10 -->
<g id="edge9" class="edge">
<title>Node7&#45;&gt;Node10</title>
<path fill="none" stroke="midnightblue" d="M431.31,-347.08C433.17,-339.93 435.84,-329.64 438.15,-320.69"/>
<polygon fill="midnightblue" stroke="midnightblue" points="441.61,-321.31 440.73,-310.75 434.83,-319.55 441.61,-321.31"/>
</g>
<!-- Node11 -->
<g id="node11" class="node">
<title>Node11</title>
<g id="a_node11"><a xlink:href="fmt_8hpp.html" target="_top" xlink:title=" ">
<polygon fill="white" stroke="black" points="461.5,-174 461.5,-193 540.5,-193 540.5,-174 461.5,-174"/>
<text text-anchor="middle" x="501" y="-181" font-family="Helvetica,sans-Serif" font-size="10.00">utils/fmt.hpp</text>
</a>
</g>
</g>
<!-- Node10&#45;&gt;Node11 -->
<g id="edge10" class="edge">
<title>Node10&#45;&gt;Node11</title>
<path fill="none" stroke="midnightblue" d="M451.24,-291.34C459.05,-282.72 470.67,-268.81 478,-255 486.85,-238.33 493.11,-217.63 496.84,-202.98"/>
<polygon fill="midnightblue" stroke="midnightblue" points="500.28,-203.67 499.2,-193.13 493.47,-202.04 500.28,-203.67"/>
</g>
<!-- Node23 -->
<g id="node23" class="node">
<title>Node23</title>
<g id="a_node23"><a xlink:href="ArgumentFormatter_8hpp.html" target="_top" xlink:title=" ">
<polygon fill="white" stroke="black" points="792.5,-235.5 792.5,-254.5 949.5,-254.5 949.5,-235.5 792.5,-235.5"/>
<text text-anchor="middle" x="871" y="-242.5" font-family="Helvetica,sans-Serif" font-size="10.00">utils/ArgumentFormatter.hpp</text>
</a>
</g>
</g>
<!-- Node10&#45;&gt;Node23 -->
<g id="edge29" class="edge">
<title>Node10&#45;&gt;Node23</title>
<path fill="none" stroke="midnightblue" d="M488.06,-292.33C491.08,-291.87 494.08,-291.42 497,-291 594.42,-277.03 706.55,-263.93 782.43,-255.51"/>
<polygon fill="midnightblue" stroke="midnightblue" points="782.87,-258.98 792.42,-254.4 782.1,-252.03 782.87,-258.98"/>
</g>
<!-- Node29 -->
<g id="node29" class="node">
<title>Node29</title>
<g id="a_node29"><a xlink:href="Tracer_8hpp.html" target="_top" xlink:title=" ">
<polygon fill="white" stroke="black" points="364.5,-235.5 364.5,-254.5 469.5,-254.5 469.5,-235.5 364.5,-235.5"/>
<text text-anchor="middle" x="417" y="-242.5" font-family="Helvetica,sans-Serif" font-size="10.00">logging/Tracer.hpp</text>
</a>
</g>
</g>
<!-- Node10&#45;&gt;Node29 -->
<g id="edge36" class="edge">
<title>Node10&#45;&gt;Node29</title>
<path fill="none" stroke="midnightblue" d="M438.71,-291.08C435.15,-283.69 429.98,-272.95 425.58,-263.81"/>
<polygon fill="midnightblue" stroke="midnightblue" points="428.71,-262.24 421.21,-254.75 422.4,-265.28 428.71,-262.24"/>
</g>
<!-- Node11&#45;&gt;Node5 -->
<g id="edge11" class="edge">
<title>Node11&#45;&gt;Node5</title>
<path fill="none" stroke="midnightblue" d="M530.22,-173.93C538.49,-171.74 547.55,-169.56 556,-168 696.36,-142 866.54,-129.31 936.54,-124.88"/>
<polygon fill="midnightblue" stroke="midnightblue" points="937.13,-128.35 946.89,-124.24 936.7,-121.37 937.13,-128.35"/>
</g>
<!-- Node11&#45;&gt;Node9 -->
<g id="edge12" class="edge">
<title>Node11&#45;&gt;Node9</title>
<path fill="none" stroke="midnightblue" d="M471.34,-173.98C435.07,-163.55 373.54,-145.86 333.34,-134.31"/>
<polygon fill="midnightblue" stroke="midnightblue" points="334.18,-130.91 323.6,-131.51 332.25,-137.64 334.18,-130.91"/>
</g>
<!-- Node12 -->
<g id="node12" class="node">
<title>Node12</title>
<g id="a_node12"><a xlink:title=" ">
<polygon fill="white" stroke="#bfbfbf" points="520.5,-56.5 520.5,-75.5 599.5,-75.5 599.5,-56.5 520.5,-56.5"/>
<text text-anchor="middle" x="560" y="-63.5" font-family="Helvetica,sans-Serif" font-size="10.00">fmt/format.h</text>
</a>
</g>
</g>
<!-- Node11&#45;&gt;Node12 -->
<g id="edge13" class="edge">
<title>Node11&#45;&gt;Node12</title>
<path fill="none" stroke="midnightblue" d="M516.29,-173.95C530,-165.34 549.25,-150.68 558,-132 564.74,-117.62 564.68,-99.43 563.25,-85.95"/>
<polygon fill="midnightblue" stroke="midnightblue" points="566.7,-85.34 561.86,-75.92 559.77,-86.31 566.7,-85.34"/>
</g>
<!-- Node13 -->
<g id="node13" class="node">
<title>Node13</title>
<g id="a_node13"><a xlink:title=" ">
<polygon fill="white" stroke="#bfbfbf" points="349,-112.5 349,-131.5 435,-131.5 435,-112.5 349,-112.5"/>
<text text-anchor="middle" x="392" y="-119.5" font-family="Helvetica,sans-Serif" font-size="10.00">fmt/ostream.h</text>
</a>
</g>
</g>
<!-- Node11&#45;&gt;Node13 -->
<g id="edge14" class="edge">
<title>Node11&#45;&gt;Node13</title>
<path fill="none" stroke="midnightblue" d="M485.38,-173.98C467.41,-164.17 437.68,-147.93 416.59,-136.42"/>
<polygon fill="midnightblue" stroke="midnightblue" points="418.04,-133.23 407.59,-131.51 414.69,-139.37 418.04,-133.23"/>
</g>
<!-- Node14 -->
<g id="node14" class="node">
<title>Node14</title>
<g id="a_node14"><a xlink:href="fmtEigen_8hpp.html" target="_top" xlink:title=" ">
<polygon fill="white" stroke="black" points="637,-112.5 637,-131.5 743,-131.5 743,-112.5 637,-112.5"/>
<text text-anchor="middle" x="690" y="-119.5" font-family="Helvetica,sans-Serif" font-size="10.00">utils/fmtEigen.hpp</text>
</a>
</g>
</g>
<!-- Node11&#45;&gt;Node14 -->
<g id="edge15" class="edge">
<title>Node11&#45;&gt;Node14</title>
<path fill="none" stroke="midnightblue" d="M528.08,-173.98C560.92,-163.64 616.43,-146.16 653.15,-134.6"/>
<polygon fill="midnightblue" stroke="midnightblue" points="654.48,-137.85 662.97,-131.51 652.38,-131.17 654.48,-137.85"/>
</g>
<!-- Node18 -->
<g id="node18" class="node">
<title>Node18</title>
<g id="a_node18"><a xlink:href="fmtSTL_8hpp.html" target="_top" xlink:title=" ">
<polygon fill="white" stroke="black" points="453,-112.5 453,-131.5 549,-131.5 549,-112.5 453,-112.5"/>
<text text-anchor="middle" x="501" y="-119.5" font-family="Helvetica,sans-Serif" font-size="10.00">utils/fmtSTL.hpp</text>
</a>
</g>
</g>
<!-- Node11&#45;&gt;Node18 -->
<g id="edge22" class="edge">
<title>Node11&#45;&gt;Node18</title>
<path fill="none" stroke="midnightblue" d="M501,-173.98C501,-165.58 501,-152.48 501,-141.66"/>
<polygon fill="midnightblue" stroke="midnightblue" points="504.5,-141.51 501,-131.51 497.5,-141.51 504.5,-141.51"/>
</g>
<!-- Node14&#45;&gt;Node3 -->
<g id="edge16" class="edge">
<title>Node14&#45;&gt;Node3</title>
<path fill="none" stroke="midnightblue" d="M679.3,-112.45C669.55,-104.12 655.43,-90.6 647,-76 638.64,-61.52 633.71,-43.07 630.97,-29.53"/>
<polygon fill="midnightblue" stroke="midnightblue" points="634.38,-28.73 629.16,-19.51 627.49,-29.97 634.38,-28.73"/>
</g>
<!-- Node14&#45;&gt;Node12 -->
<g id="edge18" class="edge">
<title>Node14&#45;&gt;Node12</title>
<path fill="none" stroke="midnightblue" d="M669.4,-112.44C648.01,-103.56 614.32,-89.56 589.98,-79.45"/>
<polygon fill="midnightblue" stroke="midnightblue" points="591.08,-76.12 580.5,-75.52 588.39,-82.58 591.08,-76.12"/>
</g>
<!-- Node14&#45;&gt;Node15 -->
<g id="edge17" class="edge">
<title>Node14&#45;&gt;Node15</title>
<path fill="none" stroke="midnightblue" d="M720.11,-112.44C752.63,-103.2 804.58,-88.44 840.39,-78.26"/>
<polygon fill="midnightblue" stroke="midnightblue" points="841.37,-81.62 850.03,-75.52 839.46,-74.88 841.37,-81.62"/>
</g>
<!-- Node16 -->
<g id="node16" class="node">
<title>Node16</title>
<g id="a_node16"><a xlink:title=" ">
<polygon fill="white" stroke="#bfbfbf" points="774,-56.5 774,-75.5 830,-75.5 830,-56.5 774,-56.5"/>
<text text-anchor="middle" x="802" y="-63.5" font-family="Helvetica,sans-Serif" font-size="10.00">sstream</text>
</a>
</g>
</g>
<!-- Node14&#45;&gt;Node16 -->
<g id="edge19" class="edge">
<title>Node14&#45;&gt;Node16</title>
<path fill="none" stroke="midnightblue" d="M707.99,-112.32C726.04,-103.62 754.05,-90.12 774.8,-80.11"/>
<polygon fill="midnightblue" stroke="midnightblue" points="776.56,-83.15 784.05,-75.65 773.52,-76.84 776.56,-83.15"/>
</g>
<!-- Node17 -->
<g id="node17" class="node">
<title>Node17</title>
<g id="a_node17"><a xlink:href="EigenIO_8hpp.html" target="_top" xlink:title=" ">
<polygon fill="white" stroke="black" points="656.5,-56.5 656.5,-75.5 755.5,-75.5 755.5,-56.5 656.5,-56.5"/>
<text text-anchor="middle" x="706" y="-63.5" font-family="Helvetica,sans-Serif" font-size="10.00">utils/EigenIO.hpp</text>
</a>
</g>
</g>
<!-- Node14&#45;&gt;Node17 -->
<g id="edge20" class="edge">
<title>Node14&#45;&gt;Node17</title>
<path fill="none" stroke="midnightblue" d="M692.64,-112.08C694.79,-104.85 697.88,-94.41 700.55,-85.4"/>
<polygon fill="midnightblue" stroke="midnightblue" points="703.92,-86.33 703.41,-75.75 697.21,-84.34 703.92,-86.33"/>
</g>
<!-- Node17&#45;&gt;Node3 -->
<g id="edge21" class="edge">
<title>Node17&#45;&gt;Node3</title>
<path fill="none" stroke="midnightblue" d="M693.47,-56.32C681.41,-47.98 662.97,-35.21 648.73,-25.35"/>
<polygon fill="midnightblue" stroke="midnightblue" points="650.72,-22.47 640.5,-19.65 646.73,-28.22 650.72,-22.47"/>
</g>
<!-- Node18&#45;&gt;Node6 -->
<g id="edge28" class="edge">
<title>Node18&#45;&gt;Node6</title>
<path fill="none" stroke="midnightblue" d="M452.81,-113.28C449.83,-112.84 446.88,-112.41 444,-112 317.6,-94.04 284.76,-98.04 159,-76 156.92,-75.64 154.78,-75.23 152.63,-74.81"/>
<polygon fill="midnightblue" stroke="midnightblue" points="153.12,-71.34 142.61,-72.71 151.68,-78.19 153.12,-71.34"/>
</g>
<!-- Node18&#45;&gt;Node12 -->
<g id="edge25" class="edge">
<title>Node18&#45;&gt;Node12</title>
<path fill="none" stroke="midnightblue" d="M510.48,-112.32C519.2,-104.34 532.34,-92.31 542.9,-82.65"/>
<polygon fill="midnightblue" stroke="midnightblue" points="545.33,-85.17 550.35,-75.83 540.61,-80 545.33,-85.17"/>
</g>
<!-- Node19 -->
<g id="node19" class="node">
<title>Node19</title>
<g id="a_node19"><a xlink:title=" ">
<polygon fill="white" stroke="#bfbfbf" points="395,-56.5 395,-75.5 437,-75.5 437,-56.5 395,-56.5"/>
<text text-anchor="middle" x="416" y="-63.5" font-family="Helvetica,sans-Serif" font-size="10.00">array</text>
</a>
</g>
</g>
<!-- Node18&#45;&gt;Node19 -->
<g id="edge23" class="edge">
<title>Node18&#45;&gt;Node19</title>
<path fill="none" stroke="midnightblue" d="M487.34,-112.32C474.08,-103.9 453.73,-90.97 438.15,-81.07"/>
<polygon fill="midnightblue" stroke="midnightblue" points="439.94,-78.06 429.62,-75.65 436.19,-83.97 439.94,-78.06"/>
</g>
<!-- Node20 -->
<g id="node20" class="node">
<title>Node20</title>
<g id="a_node20"><a xlink:title=" ">
<polygon fill="white" stroke="#bfbfbf" points="455.5,-56.5 455.5,-75.5 502.5,-75.5 502.5,-56.5 455.5,-56.5"/>
<text text-anchor="middle" x="479" y="-63.5" font-family="Helvetica,sans-Serif" font-size="10.00">deque</text>
</a>
</g>
</g>
<!-- Node18&#45;&gt;Node20 -->
<g id="edge24" class="edge">
<title>Node18&#45;&gt;Node20</title>
<path fill="none" stroke="midnightblue" d="M497.37,-112.08C494.39,-104.77 490.07,-94.18 486.38,-85.1"/>
<polygon fill="midnightblue" stroke="midnightblue" points="489.58,-83.69 482.57,-75.75 483.1,-86.33 489.58,-83.69"/>
</g>
<!-- Node21 -->
<g id="node21" class="node">
<title>Node21</title>
<g id="a_node21"><a xlink:title=" ">
<polygon fill="white" stroke="#bfbfbf" points="328,-56.5 328,-75.5 366,-75.5 366,-56.5 328,-56.5"/>
<text text-anchor="middle" x="347" y="-63.5" font-family="Helvetica,sans-Serif" font-size="10.00">map</text>
</a>
</g>
</g>
<!-- Node18&#45;&gt;Node21 -->
<g id="edge26" class="edge">
<title>Node18&#45;&gt;Node21</title>
<path fill="none" stroke="midnightblue" d="M476.6,-112.44C449.29,-102.87 405.06,-87.36 376,-77.17"/>
<polygon fill="midnightblue" stroke="midnightblue" points="377.01,-73.81 366.41,-73.81 374.69,-80.42 377.01,-73.81"/>
</g>
<!-- Node22 -->
<g id="node22" class="node">
<title>Node22</title>
<g id="a_node22"><a xlink:title=" ">
<polygon fill="white" stroke="#bfbfbf" points="257,-56.5 257,-75.5 289,-75.5 289,-56.5 257,-56.5"/>
<text text-anchor="middle" x="273" y="-63.5" font-family="Helvetica,sans-Serif" font-size="10.00">set</text>
</a>
</g>
</g>
<!-- Node18&#45;&gt;Node22 -->
<g id="edge27" class="edge">
<title>Node18&#45;&gt;Node22</title>
<path fill="none" stroke="midnightblue" d="M464.87,-112.44C418.65,-101.5 339.71,-82.8 298.99,-73.16"/>
<polygon fill="midnightblue" stroke="midnightblue" points="299.58,-69.7 289.04,-70.8 297.97,-76.51 299.58,-69.7"/>
</g>
<!-- Node23&#45;&gt;Node11 -->
<g id="edge35" class="edge">
<title>Node23&#45;&gt;Node11</title>
<path fill="none" stroke="midnightblue" d="M817.19,-235.5C760.43,-226.51 668.4,-211.88 589,-199 576.7,-197.01 563.44,-194.83 551.04,-192.79"/>
<polygon fill="midnightblue" stroke="midnightblue" points="551.29,-189.28 540.86,-191.11 550.15,-196.19 551.29,-189.28"/>
</g>
<!-- Node24 -->
<g id="node24" class="node">
<title>Node24</title>
<g id="a_node24"><a xlink:title=" ">
<polygon fill="white" stroke="#bfbfbf" points="1016,-168.5 1016,-198.5 1126,-198.5 1126,-168.5 1016,-168.5"/>
<text text-anchor="start" x="1024" y="-186.5" font-family="Helvetica,sans-Serif" font-size="10.00">boost/preprocessor</text>
<text text-anchor="middle" x="1071" y="-175.5" font-family="Helvetica,sans-Serif" font-size="10.00">/control/if.hpp</text>
</a>
</g>
</g>
<!-- Node23&#45;&gt;Node24 -->
<g id="edge30" class="edge">
<title>Node23&#45;&gt;Node24</title>
<path fill="none" stroke="midnightblue" d="M899.66,-235.48C929.4,-226.63 976.72,-212.55 1014.1,-201.43"/>
<polygon fill="midnightblue" stroke="midnightblue" points="1015.28,-204.73 1023.86,-198.52 1013.28,-198.02 1015.28,-204.73"/>
</g>
<!-- Node25 -->
<g id="node25" class="node">
<title>Node25</title>
<g id="a_node25"><a xlink:title=" ">
<polygon fill="white" stroke="#bfbfbf" points="886.5,-168.5 886.5,-198.5 997.5,-198.5 997.5,-168.5 886.5,-168.5"/>
<text text-anchor="start" x="894.5" y="-186.5" font-family="Helvetica,sans-Serif" font-size="10.00">boost/preprocessor</text>
<text text-anchor="middle" x="942" y="-175.5" font-family="Helvetica,sans-Serif" font-size="10.00">/seq/for_each_i.hpp</text>
</a>
</g>
</g>
<!-- Node23&#45;&gt;Node25 -->
<g id="edge31" class="edge">
<title>Node23&#45;&gt;Node25</title>
<path fill="none" stroke="midnightblue" d="M881.17,-235.48C890.61,-227.57 905.03,-215.48 917.46,-205.07"/>
<polygon fill="midnightblue" stroke="midnightblue" points="919.85,-207.63 925.27,-198.52 915.35,-202.26 919.85,-207.63"/>
</g>
<!-- Node26 -->
<g id="node26" class="node">
<title>Node26</title>
<g id="a_node26"><a xlink:title=" ">
<polygon fill="white" stroke="#bfbfbf" points="1182,-168.5 1182,-198.5 1292,-198.5 1292,-168.5 1182,-168.5"/>
<text text-anchor="start" x="1190" y="-186.5" font-family="Helvetica,sans-Serif" font-size="10.00">boost/preprocessor</text>
<text text-anchor="middle" x="1237" y="-175.5" font-family="Helvetica,sans-Serif" font-size="10.00">/stringize.hpp</text>
</a>
</g>
</g>
<!-- Node23&#45;&gt;Node26 -->
<g id="edge32" class="edge">
<title>Node23&#45;&gt;Node26</title>
<path fill="none" stroke="midnightblue" d="M923.44,-235.48C988.91,-224.83 1100.89,-206.63 1171.81,-195.1"/>
<polygon fill="midnightblue" stroke="midnightblue" points="1172.66,-198.51 1181.97,-193.45 1171.53,-191.6 1172.66,-198.51"/>
</g>
<!-- Node27 -->
<g id="node27" class="node">
<title>Node27</title>
<g id="a_node27"><a xlink:title=" ">
<polygon fill="white" stroke="#bfbfbf" points="598.5,-168.5 598.5,-198.5 713.5,-198.5 713.5,-168.5 598.5,-168.5"/>
<text text-anchor="start" x="606.5" y="-186.5" font-family="Helvetica,sans-Serif" font-size="10.00">boost/preprocessor</text>
<text text-anchor="middle" x="656" y="-175.5" font-family="Helvetica,sans-Serif" font-size="10.00">/variadic/to_seq.hpp</text>
</a>
</g>
</g>
<!-- Node23&#45;&gt;Node27 -->
<g id="edge33" class="edge">
<title>Node23&#45;&gt;Node27</title>
<path fill="none" stroke="midnightblue" d="M840.2,-235.48C808.02,-226.57 756.7,-212.37 716.4,-201.22"/>
<polygon fill="midnightblue" stroke="midnightblue" points="717.24,-197.82 706.67,-198.52 715.38,-204.56 717.24,-197.82"/>
</g>
<!-- Node28 -->
<g id="node28" class="node">
<title>Node28</title>
<g id="a_node28"><a xlink:title=" ">
<polygon fill="white" stroke="#bfbfbf" points="732,-174 732,-193 868,-193 868,-174 732,-174"/>
<text text-anchor="middle" x="800" y="-181" font-family="Helvetica,sans-Serif" font-size="10.00">boost/vmd/is_empty.hpp</text>
</a>
</g>
</g>
<!-- Node23&#45;&gt;Node28 -->
<g id="edge34" class="edge">
<title>Node23&#45;&gt;Node28</title>
<path fill="none" stroke="midnightblue" d="M860.83,-235.48C849.65,-226.11 831.48,-210.88 817.91,-199.51"/>
<polygon fill="midnightblue" stroke="midnightblue" points="820.07,-196.75 810.15,-193.01 815.57,-202.11 820.07,-196.75"/>
</g>
<!-- Node29&#45;&gt;Node7 -->
<g id="edge37" class="edge">
<title>Node29&#45;&gt;Node7</title>
<path fill="none" stroke="midnightblue" d="M408.62,-254.73C397.8,-267.12 381.23,-290.56 389,-311 393.34,-322.4 402.03,-332.76 410.21,-340.66"/>
<polygon fill="midnightblue" stroke="midnightblue" points="407.96,-343.34 417.73,-347.43 412.64,-338.14 407.96,-343.34"/>
</g>
<!-- Node31&#45;&gt;Node6 -->
<g id="edge46" class="edge">
<title>Node31&#45;&gt;Node6</title>
<path fill="none" stroke="midnightblue" d="M178.59,-112.32C167.89,-104.18 151.66,-91.84 138.84,-82.09"/>
<polygon fill="midnightblue" stroke="midnightblue" points="140.69,-79.1 130.61,-75.83 136.46,-84.67 140.69,-79.1"/>
</g>
<!-- Node31&#45;&gt;Node15 -->
<g id="edge42" class="edge">
<title>Node31&#45;&gt;Node15</title>
<path fill="none" stroke="midnightblue" d="M239.63,-112.99C242.46,-112.63 245.26,-112.29 248,-112 506.32,-84.15 576.59,-111.61 837.69,-75.96"/>
<polygon fill="midnightblue" stroke="midnightblue" points="838.43,-79.39 847.86,-74.55 837.47,-72.45 838.43,-79.39"/>
</g>
<!-- Node31&#45;&gt;Node21 -->
<g id="edge44" class="edge">
<title>Node31&#45;&gt;Node21</title>
<path fill="none" stroke="midnightblue" d="M214.88,-112.44C242.88,-102.81 288.31,-87.19 317.92,-77"/>
<polygon fill="midnightblue" stroke="midnightblue" points="319.37,-80.21 327.68,-73.64 317.09,-73.59 319.37,-80.21"/>
</g>
<!-- Node31&#45;&gt;Node22 -->
<g id="edge45" class="edge">
<title>Node31&#45;&gt;Node22</title>
<path fill="none" stroke="midnightblue" d="M203.34,-112.32C216.16,-103.98 235.78,-91.21 250.94,-81.35"/>
<polygon fill="midnightblue" stroke="midnightblue" points="253.22,-84.04 259.7,-75.65 249.41,-78.17 253.22,-84.04"/>
</g>
<!-- Node32 -->
<g id="node32" class="node">
<title>Node32</title>
<g id="a_node32"><a xlink:title=" ">
<polygon fill="white" stroke="#bfbfbf" points="168,-56.5 168,-75.5 212,-75.5 212,-56.5 168,-56.5"/>
<text text-anchor="middle" x="190" y="-63.5" font-family="Helvetica,sans-Serif" font-size="10.00">limits</text>
</a>
</g>
</g>
<!-- Node31&#45;&gt;Node32 -->
<g id="edge43" class="edge">
<title>Node31&#45;&gt;Node32</title>
<path fill="none" stroke="midnightblue" d="M190,-112.08C190,-105.01 190,-94.86 190,-85.99"/>
<polygon fill="midnightblue" stroke="midnightblue" points="193.5,-85.75 190,-75.75 186.5,-85.75 193.5,-85.75"/>
</g>
<!-- Node33&#45;&gt;Node9 -->
<g id="edge50" class="edge">
<title>Node33&#45;&gt;Node9</title>
<path fill="none" stroke="midnightblue" d="M786.49,-479.27C640.94,-479.44 246.12,-476 207,-434 125.89,-346.92 239.09,-190.44 280.14,-139.51"/>
<polygon fill="midnightblue" stroke="midnightblue" points="283.06,-141.47 286.7,-131.52 277.65,-137.03 283.06,-141.47"/>
</g>
<!-- Node33&#45;&gt;Node11 -->
<g id="edge51" class="edge">
<title>Node33&#45;&gt;Node11</title>
<path fill="none" stroke="midnightblue" d="M848.62,-470.38C862.95,-455.03 888.37,-422.72 870,-403 793.33,-320.67 445.26,-445.84 365,-367 323.03,-325.77 320.87,-282.92 355,-235 376.72,-204.51 418.15,-192.26 451.34,-187.42"/>
<polygon fill="midnightblue" stroke="midnightblue" points="451.87,-190.88 461.35,-186.14 450.99,-183.93 451.87,-190.88"/>
</g>
<!-- Node33&#45;&gt;Node23 -->
<g id="edge57" class="edge">
<title>Node33&#45;&gt;Node23</title>
<path fill="none" stroke="midnightblue" d="M893.51,-475.75C952.28,-470.93 1041.12,-459.54 1062,-434 1121.09,-361.73 970.24,-287.27 902.23,-258.44"/>
<polygon fill="midnightblue" stroke="midnightblue" points="903.41,-255.14 892.83,-254.52 900.72,-261.6 903.41,-255.14"/>
</g>
<!-- Node33&#45;&gt;Node24 -->
<g id="edge54" class="edge">
<title>Node33&#45;&gt;Node24</title>
<path fill="none" stroke="midnightblue" d="M893.7,-476.81C957.82,-472.93 1059.4,-462.37 1083,-434 1137.5,-368.48 1101.25,-256.52 1081.47,-208.04"/>
<polygon fill="midnightblue" stroke="midnightblue" points="1084.64,-206.55 1077.53,-198.69 1078.19,-209.27 1084.64,-206.55"/>
</g>
<!-- Node33&#45;&gt;Node26 -->
<g id="edge55" class="edge">
<title>Node33&#45;&gt;Node26</title>
<path fill="none" stroke="midnightblue" d="M893.54,-478.61C949.41,-476.29 1038.27,-467.06 1107,-434 1152.67,-412.04 1192,-408.68 1192,-358 1192,-358 1192,-358 1192,-300 1192,-266.11 1209.03,-230.2 1222.14,-207.59"/>
<polygon fill="midnightblue" stroke="midnightblue" points="1225.3,-209.13 1227.46,-198.75 1219.3,-205.52 1225.3,-209.13"/>
</g>
<!-- Node34 -->
<g id="node34" class="node">
<title>Node34</title>
<g id="a_node34"><a xlink:title=" ">
<polygon fill="white" stroke="#bfbfbf" points="216.5,-409 216.5,-428 265.5,-428 265.5,-409 216.5,-409"/>
<text text-anchor="middle" x="241" y="-416" font-family="Helvetica,sans-Serif" font-size="10.00">cstdlib</text>
</a>
</g>
</g>
<!-- Node33&#45;&gt;Node34 -->
<g id="edge48" class="edge">
<title>Node33&#45;&gt;Node34</title>
<path fill="none" stroke="midnightblue" d="M786.27,-476.93C664.57,-471.9 371.03,-457.63 275,-434 272.63,-433.42 270.22,-432.69 267.83,-431.87"/>
<polygon fill="midnightblue" stroke="midnightblue" points="268.86,-428.52 258.27,-428.14 266.32,-435.04 268.86,-428.52"/>
</g>
<!-- Node35 -->
<g id="node35" class="node">
<title>Node35</title>
<g id="a_node35"><a xlink:title=" ">
<polygon fill="white" stroke="#bfbfbf" points="284,-409 284,-428 344,-428 344,-409 284,-409"/>
<text text-anchor="middle" x="314" y="-416" font-family="Helvetica,sans-Serif" font-size="10.00">iostream</text>
</a>
</g>
</g>
<!-- Node33&#45;&gt;Node35 -->
<g id="edge49" class="edge">
<title>Node33&#45;&gt;Node35</title>
<path fill="none" stroke="midnightblue" d="M786.31,-478.64C695.8,-477.01 507.6,-469.23 353,-434 349.93,-433.3 346.77,-432.42 343.65,-431.44"/>
<polygon fill="midnightblue" stroke="midnightblue" points="344.53,-428.04 333.93,-428.06 342.23,-434.65 344.53,-428.04"/>
</g>
<!-- Node36 -->
<g id="node36" class="node">
<title>Node36</title>
<g id="a_node36"><a xlink:title=" ">
<polygon fill="white" stroke="#bfbfbf" points="362.5,-409 362.5,-428 509.5,-428 509.5,-409 362.5,-409"/>
<text text-anchor="middle" x="436" y="-416" font-family="Helvetica,sans-Serif" font-size="10.00">boost/current_function.hpp</text>
</a>
</g>
</g>
<!-- Node33&#45;&gt;Node36 -->
<g id="edge52" class="edge">
<title>Node33&#45;&gt;Node36</title>
<path fill="none" stroke="midnightblue" d="M786.36,-472.11C722.37,-463.74 612.22,-448.91 518,-434 509.79,-432.7 501.13,-431.25 492.64,-429.79"/>
<polygon fill="midnightblue" stroke="midnightblue" points="493.24,-426.34 482.78,-428.07 492.03,-433.24 493.24,-426.34"/>
</g>
<!-- Node37 -->
<g id="node37" class="node">
<title>Node37</title>
<g id="a_node37"><a xlink:title=" ">
<polygon fill="white" stroke="#bfbfbf" points="527.5,-403.5 527.5,-433.5 662.5,-433.5 662.5,-403.5 527.5,-403.5"/>
<text text-anchor="start" x="535.5" y="-421.5" font-family="Helvetica,sans-Serif" font-size="10.00">boost/preprocessor</text>
<text text-anchor="middle" x="595" y="-410.5" font-family="Helvetica,sans-Serif" font-size="10.00">/comparison/greater.hpp</text>
</a>
</g>
</g>
<!-- Node33&#45;&gt;Node37 -->
<g id="edge53" class="edge">
<title>Node33&#45;&gt;Node37</title>
<path fill="none" stroke="midnightblue" d="M804.9,-470.48C767.92,-461.49 708.76,-447.13 662.66,-435.93"/>
<polygon fill="midnightblue" stroke="midnightblue" points="663.29,-432.48 652.74,-433.52 661.63,-439.28 663.29,-432.48"/>
</g>
<!-- Node38 -->
<g id="node38" class="node">
<title>Node38</title>
<g id="a_node38"><a xlink:title=" ">
<polygon fill="white" stroke="#bfbfbf" points="681,-403.5 681,-433.5 791,-433.5 791,-403.5 681,-403.5"/>
<text text-anchor="start" x="689" y="-421.5" font-family="Helvetica,sans-Serif" font-size="10.00">boost/preprocessor</text>
<text text-anchor="middle" x="736" y="-410.5" font-family="Helvetica,sans-Serif" font-size="10.00">/variadic/size.hpp</text>
</a>
</g>
</g>
<!-- Node33&#45;&gt;Node38 -->
<g id="edge56" class="edge">
<title>Node33&#45;&gt;Node38</title>
<path fill="none" stroke="midnightblue" d="M825.1,-470.48C810.62,-462.19 788.13,-449.32 769.37,-438.59"/>
<polygon fill="midnightblue" stroke="midnightblue" points="770.93,-435.45 760.51,-433.52 767.45,-441.53 770.93,-435.45"/>
</g>
<!-- Node39 -->
<g id="node39" class="node">
<title>Node39</title>
<g id="a_node39"><a xlink:href="Parallel_8hpp.html" target="_top" xlink:title=" ">
<polygon fill="white" stroke="black" points="955,-409 955,-428 1053,-428 1053,-409 955,-409"/>
<text text-anchor="middle" x="1004" y="-416" font-family="Helvetica,sans-Serif" font-size="10.00">utils/Parallel.hpp</text>
</a>
</g>
</g>
<!-- Node33&#45;&gt;Node39 -->
<g id="edge58" class="edge">
<title>Node33&#45;&gt;Node39</title>
<path fill="none" stroke="midnightblue" d="M863.5,-470.48C891.63,-460.27 938.93,-443.11 970.79,-431.55"/>
<polygon fill="midnightblue" stroke="midnightblue" points="972.34,-434.71 980.55,-428.01 969.95,-428.13 972.34,-434.71"/>
</g>
<!-- Node44 -->
<g id="node44" class="node">
<title>Node44</title>
<g id="a_node44"><a xlink:href="stacktrace_8hpp.html" target="_top" xlink:title=" ">
<polygon fill="white" stroke="black" points="1220.5,-291.5 1220.5,-310.5 1333.5,-310.5 1333.5,-291.5 1220.5,-291.5"/>
<text text-anchor="middle" x="1277" y="-298.5" font-family="Helvetica,sans-Serif" font-size="10.00">utils/stacktrace.hpp</text>
</a>
</g>
</g>
<!-- Node33&#45;&gt;Node44 -->
<g id="edge67" class="edge">
<title>Node33&#45;&gt;Node44</title>
<path fill="none" stroke="midnightblue" d="M893.59,-478.34C982.69,-476.29 1156.39,-467.93 1206,-434 1245.81,-406.78 1265.19,-349.79 1272.86,-320.4"/>
<polygon fill="midnightblue" stroke="midnightblue" points="1276.27,-321.15 1275.24,-310.61 1269.47,-319.5 1276.27,-321.15"/>
</g>
<!-- Node45 -->
<g id="node45" class="node">
<title>Node45</title>
<g id="a_node45"><a xlink:title=" ">
<polygon fill="white" stroke="#bfbfbf" points="809,-409 809,-428 861,-428 861,-409 809,-409"/>
<text text-anchor="middle" x="835" y="-416" font-family="Helvetica,sans-Serif" font-size="10.00">cassert</text>
</a>
</g>
</g>
<!-- Node33&#45;&gt;Node45 -->
<g id="edge69" class="edge">
<title>Node33&#45;&gt;Node45</title>
<path fill="none" stroke="midnightblue" d="M839.28,-470.48C838.58,-462.08 837.48,-448.98 836.57,-438.16"/>
<polygon fill="midnightblue" stroke="midnightblue" points="840.04,-437.68 835.72,-428.01 833.06,-438.27 840.04,-437.68"/>
</g>
<!-- Node39&#45;&gt;Node5 -->
<g id="edge62" class="edge">
<title>Node39&#45;&gt;Node5</title>
<path fill="none" stroke="midnightblue" d="M1015.21,-408.93C1057.3,-375.75 1200.25,-253.29 1135,-168 1118.83,-146.86 1044.66,-133.34 1001.12,-127.08"/>
<polygon fill="midnightblue" stroke="midnightblue" points="1001.42,-123.58 991.03,-125.68 1000.45,-130.52 1001.42,-123.58"/>
</g>
<!-- Node39&#45;&gt;Node6 -->
<g id="edge63" class="edge">
<title>Node39&#45;&gt;Node6</title>
<path fill="none" stroke="midnightblue" d="M954.72,-411.73C929.42,-408.88 898.08,-405.52 870,-403 757.94,-392.95 467.3,-413.83 365,-367 230.98,-305.64 199.44,-262.54 131,-132 123.42,-117.55 120.56,-99.1 119.51,-85.55"/>
<polygon fill="midnightblue" stroke="midnightblue" points="123.01,-85.32 119,-75.52 116.02,-85.68 123.01,-85.32"/>
</g>
<!-- Node39&#45;&gt;Node7 -->
<g id="edge64" class="edge">
<title>Node39&#45;&gt;Node7</title>
<path fill="none" stroke="midnightblue" d="M954.75,-409.95C938.31,-407.55 919.89,-405.01 903,-403 757.18,-385.62 585.48,-370.69 494.04,-363.18"/>
<polygon fill="midnightblue" stroke="midnightblue" points="494.08,-359.67 483.83,-362.35 493.51,-366.65 494.08,-359.67"/>
</g>
<!-- Node39&#45;&gt;Node8 -->
<g id="edge60" class="edge">
<title>Node39&#45;&gt;Node8</title>
<path fill="none" stroke="midnightblue" d="M1004.66,-408.98C1005.3,-393.9 1004.2,-362.65 986,-347 955.07,-320.4 678.3,-307.37 574.28,-303.38"/>
<polygon fill="midnightblue" stroke="midnightblue" points="574.32,-299.87 564.19,-303 574.05,-306.87 574.32,-299.87"/>
</g>
<!-- Node40 -->
<g id="node40" class="node">
<title>Node40</title>
<g id="a_node40"><a xlink:title=" ">
<polygon fill="white" stroke="#bfbfbf" points="671,-347.5 671,-366.5 719,-366.5 719,-347.5 671,-347.5"/>
<text text-anchor="middle" x="695" y="-354.5" font-family="Helvetica,sans-Serif" font-size="10.00">iosfwd</text>
</a>
</g>
</g>
<!-- Node39&#45;&gt;Node40 -->
<g id="edge59" class="edge">
<title>Node39&#45;&gt;Node40</title>
<path fill="none" stroke="midnightblue" d="M968.43,-408.93C959.5,-406.88 949.92,-404.78 941,-403 849.97,-384.85 823.5,-387.45 729.06,-367.05"/>
<polygon fill="midnightblue" stroke="midnightblue" points="729.6,-363.58 719.08,-364.86 728.1,-370.42 729.6,-363.58"/>
</g>
<!-- Node41 -->
<g id="node41" class="node">
<title>Node41</title>
<g id="a_node41"><a xlink:title=" ">
<polygon fill="white" stroke="#bfbfbf" points="737,-347.5 737,-366.5 793,-366.5 793,-347.5 737,-347.5"/>
<text text-anchor="middle" x="765" y="-354.5" font-family="Helvetica,sans-Serif" font-size="10.00">optional</text>
</a>
</g>
</g>
<!-- Node39&#45;&gt;Node41 -->
<g id="edge61" class="edge">
<title>Node39&#45;&gt;Node41</title>
<path fill="none" stroke="midnightblue" d="M969.76,-408.98C925.6,-397.98 849.03,-378.92 803.08,-367.48"/>
<polygon fill="midnightblue" stroke="midnightblue" points="803.76,-364.04 793.21,-365.02 802.07,-370.83 803.76,-364.04"/>
</g>
<!-- Node42 -->
<g id="node42" class="node">
<title>Node42</title>
<g id="a_node42"><a xlink:href="types_8hpp.html" target="_top" xlink:title=" ">
<polygon fill="white" stroke="black" points="811.5,-347.5 811.5,-366.5 914.5,-366.5 914.5,-347.5 811.5,-347.5"/>
<text text-anchor="middle" x="863" y="-354.5" font-family="Helvetica,sans-Serif" font-size="10.00">precice/types.hpp</text>
</a>
</g>
</g>
<!-- Node39&#45;&gt;Node42 -->
<g id="edge65" class="edge">
<title>Node39&#45;&gt;Node42</title>
<path fill="none" stroke="midnightblue" d="M983.8,-408.98C959.93,-398.9 920,-382.05 892.63,-370.5"/>
<polygon fill="midnightblue" stroke="midnightblue" points="893.74,-367.17 883.16,-366.51 891.02,-373.62 893.74,-367.17"/>
</g>
<!-- Node43 -->
<g id="node43" class="node">
<title>Node43</title>
<g id="a_node43"><a xlink:title=" ">
<polygon fill="white" stroke="#bfbfbf" points="933,-347.5 933,-366.5 977,-366.5 977,-347.5 933,-347.5"/>
<text text-anchor="middle" x="955" y="-354.5" font-family="Helvetica,sans-Serif" font-size="10.00">mpi.h</text>
</a>
</g>
</g>
<!-- Node39&#45;&gt;Node43 -->
<g id="edge66" class="edge">
<title>Node39&#45;&gt;Node43</title>
<path fill="none" stroke="midnightblue" d="M996.98,-408.98C989.56,-399.96 977.67,-385.52 968.43,-374.31"/>
<polygon fill="midnightblue" stroke="midnightblue" points="971.07,-372 962.01,-366.51 965.66,-376.45 971.07,-372"/>
</g>
<!-- Node44&#45;&gt;Node5 -->
<g id="edge68" class="edge">
<title>Node44&#45;&gt;Node5</title>
<path fill="none" stroke="midnightblue" d="M1282.79,-291.33C1297.45,-268.2 1332.72,-204.31 1301,-168 1262.34,-123.74 1077.87,-121.32 1001.85,-122.26"/>
<polygon fill="midnightblue" stroke="midnightblue" points="1001.4,-118.76 991.46,-122.42 1001.51,-125.76 1001.4,-118.76"/>
</g>
</g>
</svg>
