<?xml version="1.0" encoding="UTF-8" standalone="no"?>
<!DOCTYPE svg PUBLIC "-//W3C//DTD SVG 1.1//EN"
 "http://www.w3.org/Graphics/SVG/1.1/DTD/svg11.dtd">
<!-- Generated by graphviz version 2.43.0 (0)
 -->
<!-- Title: src/acceleration/impl/ValuePreconditioner.hpp Pages: 1 -->
<svg width="1860pt" height="453pt"
 viewBox="0.00 0.00 1860.00 453.00" xmlns="http://www.w3.org/2000/svg" xmlns:xlink="http://www.w3.org/1999/xlink">
<g id="graph0" class="graph" transform="scale(1 1) rotate(0) translate(4 449)">
<title>src/acceleration/impl/ValuePreconditioner.hpp</title>
<polygon fill="white" stroke="transparent" points="-4,4 -4,-449 1856,-449 1856,4 -4,4"/>
<!-- Node1 -->
<g id="node1" class="node">
<title>Node1</title>
<g id="a_node1"><a xlink:title=" ">
<polygon fill="#bfbfbf" stroke="black" points="1290.5,-414.5 1290.5,-444.5 1427.5,-444.5 1427.5,-414.5 1290.5,-414.5"/>
<text text-anchor="start" x="1298.5" y="-432.5" font-family="Helvetica,sans-Serif" font-size="10.00">src/acceleration/impl</text>
<text text-anchor="middle" x="1359" y="-421.5" font-family="Helvetica,sans-Serif" font-size="10.00">/ValuePreconditioner.hpp</text>
</a>
</g>
</g>
<!-- Node2 -->
<g id="node2" class="node">
<title>Node2</title>
<g id="a_node2"><a xlink:title=" ">
<polygon fill="white" stroke="#bfbfbf" points="120.5,-0.5 120.5,-19.5 189.5,-19.5 189.5,-0.5 120.5,-0.5"/>
<text text-anchor="middle" x="155" y="-7.5" font-family="Helvetica,sans-Serif" font-size="10.00">Eigen/Core</text>
</a>
</g>
</g>
<!-- Node1&#45;&gt;Node2 -->
<g id="edge1" class="edge">
<title>Node1&#45;&gt;Node2</title>
<path fill="none" stroke="midnightblue" d="M1290.21,-426.3C1013.95,-417.01 0,-378.45 0,-313 0,-313 0,-313 0,-121 0,-66.43 64.68,-36.46 110.47,-22.08"/>
<polygon fill="midnightblue" stroke="midnightblue" points="111.64,-25.39 120.21,-19.16 109.63,-18.68 111.64,-25.39"/>
</g>
<!-- Node3 -->
<g id="node3" class="node">
<title>Node3</title>
<g id="a_node3"><a xlink:title=" ">
<polygon fill="white" stroke="#bfbfbf" points="1555,-112.5 1555,-131.5 1599,-131.5 1599,-112.5 1555,-112.5"/>
<text text-anchor="middle" x="1577" y="-119.5" font-family="Helvetica,sans-Serif" font-size="10.00">string</text>
</a>
</g>
</g>
<!-- Node1&#45;&gt;Node3 -->
<g id="edge2" class="edge">
<title>Node1&#45;&gt;Node3</title>
<path fill="none" stroke="midnightblue" d="M1427.55,-426.64C1563.01,-421.09 1852,-399.15 1852,-313 1852,-313 1852,-313 1852,-249.5 1852,-143.78 1682.18,-126.1 1609.44,-123.37"/>
<polygon fill="midnightblue" stroke="midnightblue" points="1609.14,-119.86 1599.04,-123.06 1608.93,-126.86 1609.14,-119.86"/>
</g>
<!-- Node4 -->
<g id="node4" class="node">
<title>Node4</title>
<g id="a_node4"><a xlink:href="Preconditioner_8hpp.html" target="_top" xlink:title=" ">
<polygon fill="white" stroke="black" points="1199.5,-358.5 1199.5,-377.5 1394.5,-377.5 1394.5,-358.5 1199.5,-358.5"/>
<text text-anchor="middle" x="1297" y="-365.5" font-family="Helvetica,sans-Serif" font-size="10.00">acceleration/impl/Preconditioner.hpp</text>
</a>
</g>
</g>
<!-- Node1&#45;&gt;Node4 -->
<g id="edge3" class="edge">
<title>Node1&#45;&gt;Node4</title>
<path fill="none" stroke="midnightblue" d="M1344.31,-414.4C1335.02,-405.49 1323,-393.95 1313.4,-384.74"/>
<polygon fill="midnightblue" stroke="midnightblue" points="1315.66,-382.06 1306.02,-377.66 1310.81,-387.11 1315.66,-382.06"/>
</g>
<!-- Node29 -->
<g id="node29" class="node">
<title>Node29</title>
<g id="a_node29"><a xlink:href="Logger_8hpp.html" target="_top" xlink:title=" ">
<polygon fill="white" stroke="black" points="1060,-174 1060,-193 1130,-193 1130,-174 1060,-174"/>
<text text-anchor="middle" x="1095" y="-181" font-family="Helvetica,sans-Serif" font-size="10.00">Logger.hpp</text>
</a>
</g>
</g>
<!-- Node1&#45;&gt;Node29 -->
<g id="edge65" class="edge">
<title>Node1&#45;&gt;Node29</title>
<path fill="none" stroke="midnightblue" d="M1376.63,-414.13C1386.43,-404.96 1397.7,-392.16 1403,-378 1418.96,-335.37 1456.66,-307.12 1384,-235 1344.95,-196.23 1192.55,-211.66 1139,-199 1135.53,-198.18 1131.94,-197.21 1128.38,-196.16"/>
<polygon fill="midnightblue" stroke="midnightblue" points="1129.12,-192.73 1118.53,-193.09 1127.03,-199.41 1129.12,-192.73"/>
</g>
<!-- Node4&#45;&gt;Node2 -->
<g id="edge4" class="edge">
<title>Node4&#45;&gt;Node2</title>
<path fill="none" stroke="midnightblue" d="M1199.26,-363.14C903.45,-350.8 38,-309.73 38,-251.5 38,-251.5 38,-251.5 38,-121 38,-90.9 37.33,-78.78 57,-56 70.86,-39.95 91.64,-29.3 110.5,-22.4"/>
<polygon fill="midnightblue" stroke="midnightblue" points="111.8,-25.66 120.14,-19.13 109.55,-19.03 111.8,-25.66"/>
</g>
<!-- Node5 -->
<g id="node5" class="node">
<title>Node5</title>
<g id="a_node5"><a xlink:title=" ">
<polygon fill="white" stroke="#bfbfbf" points="1356.5,-56.5 1356.5,-75.5 1403.5,-75.5 1403.5,-56.5 1356.5,-56.5"/>
<text text-anchor="middle" x="1380" y="-63.5" font-family="Helvetica,sans-Serif" font-size="10.00">vector</text>
</a>
</g>
</g>
<!-- Node4&#45;&gt;Node5 -->
<g id="edge5" class="edge">
<title>Node4&#45;&gt;Node5</title>
<path fill="none" stroke="midnightblue" d="M1394.55,-364.89C1544.37,-358.98 1814,-336.51 1814,-251.5 1814,-251.5 1814,-251.5 1814,-182.5 1814,-99.76 1515.7,-74.82 1413.71,-68.72"/>
<polygon fill="midnightblue" stroke="midnightblue" points="1413.83,-65.22 1403.64,-68.14 1413.42,-72.21 1413.83,-65.22"/>
</g>
<!-- Node6 -->
<g id="node6" class="node">
<title>Node6</title>
<g id="a_node6"><a xlink:href="cplscheme_2SharedPointer_8hpp.html" target="_top" xlink:title=" ">
<polygon fill="white" stroke="black" points="1624.5,-174 1624.5,-193 1785.5,-193 1785.5,-174 1624.5,-174"/>
<text text-anchor="middle" x="1705" y="-181" font-family="Helvetica,sans-Serif" font-size="10.00">cplscheme/SharedPointer.hpp</text>
</a>
</g>
</g>
<!-- Node4&#45;&gt;Node6 -->
<g id="edge6" class="edge">
<title>Node4&#45;&gt;Node6</title>
<path fill="none" stroke="midnightblue" d="M1362.63,-358.49C1461.96,-344.26 1643.6,-312.54 1688,-266 1703.95,-249.28 1706.61,-221.67 1706.36,-203.29"/>
<polygon fill="midnightblue" stroke="midnightblue" points="1709.85,-203.05 1705.92,-193.21 1702.86,-203.35 1709.85,-203.05"/>
</g>
<!-- Node9 -->
<g id="node9" class="node">
<title>Node9</title>
<g id="a_node9"><a xlink:href="LogMacros_8hpp.html" target="_top" xlink:title=" ">
<polygon fill="white" stroke="black" points="499.5,-302.5 499.5,-321.5 628.5,-321.5 628.5,-302.5 499.5,-302.5"/>
<text text-anchor="middle" x="564" y="-309.5" font-family="Helvetica,sans-Serif" font-size="10.00">logging/LogMacros.hpp</text>
</a>
</g>
</g>
<!-- Node4&#45;&gt;Node9 -->
<g id="edge9" class="edge">
<title>Node4&#45;&gt;Node9</title>
<path fill="none" stroke="midnightblue" d="M1199.28,-359.8C1050.94,-348.87 772.12,-328.33 638.75,-318.51"/>
<polygon fill="midnightblue" stroke="midnightblue" points="638.86,-315.01 628.63,-317.76 638.35,-321.99 638.86,-315.01"/>
</g>
<!-- Node4&#45;&gt;Node29 -->
<g id="edge41" class="edge">
<title>Node4&#45;&gt;Node29</title>
<path fill="none" stroke="midnightblue" d="M1307.71,-358.48C1334.43,-336.25 1399.47,-275.4 1365,-235 1331.99,-196.31 1188.42,-211 1139,-199 1135.53,-198.16 1131.95,-197.17 1128.39,-196.12"/>
<polygon fill="midnightblue" stroke="midnightblue" points="1129.14,-192.69 1118.55,-193.03 1127.04,-199.37 1129.14,-192.69"/>
</g>
<!-- Node30 -->
<g id="node30" class="node">
<title>Node30</title>
<g id="a_node30"><a xlink:href="assertion_8hpp.html" target="_top" xlink:title=" ">
<polygon fill="white" stroke="black" points="960.5,-302.5 960.5,-321.5 1067.5,-321.5 1067.5,-302.5 960.5,-302.5"/>
<text text-anchor="middle" x="1014" y="-309.5" font-family="Helvetica,sans-Serif" font-size="10.00">utils/assertion.hpp</text>
</a>
</g>
</g>
<!-- Node4&#45;&gt;Node30 -->
<g id="edge42" class="edge">
<title>Node4&#45;&gt;Node30</title>
<path fill="none" stroke="midnightblue" d="M1252.16,-358.44C1202.38,-348.94 1122.02,-333.61 1068.61,-323.42"/>
<polygon fill="midnightblue" stroke="midnightblue" points="1069.11,-319.95 1058.63,-321.52 1067.8,-326.83 1069.11,-319.95"/>
</g>
<!-- Node7 -->
<g id="node7" class="node">
<title>Node7</title>
<g id="a_node7"><a xlink:title=" ">
<polygon fill="white" stroke="#bfbfbf" points="1030,-56.5 1030,-75.5 1068,-75.5 1068,-56.5 1030,-56.5"/>
<text text-anchor="middle" x="1049" y="-63.5" font-family="Helvetica,sans-Serif" font-size="10.00">map</text>
</a>
</g>
</g>
<!-- Node6&#45;&gt;Node7 -->
<g id="edge7" class="edge">
<title>Node6&#45;&gt;Node7</title>
<path fill="none" stroke="midnightblue" d="M1696.63,-173.84C1680.93,-158.25 1645.29,-125.8 1608,-112 1509.33,-75.49 1178.84,-68.55 1078.28,-67.28"/>
<polygon fill="midnightblue" stroke="midnightblue" points="1078.27,-63.78 1068.23,-67.16 1078.18,-70.78 1078.27,-63.78"/>
</g>
<!-- Node8 -->
<g id="node8" class="node">
<title>Node8</title>
<g id="a_node8"><a xlink:title=" ">
<polygon fill="white" stroke="#bfbfbf" points="1294,-112.5 1294,-131.5 1352,-131.5 1352,-112.5 1294,-112.5"/>
<text text-anchor="middle" x="1323" y="-119.5" font-family="Helvetica,sans-Serif" font-size="10.00">memory</text>
</a>
</g>
</g>
<!-- Node6&#45;&gt;Node8 -->
<g id="edge8" class="edge">
<title>Node6&#45;&gt;Node8</title>
<path fill="none" stroke="midnightblue" d="M1650.27,-173.98C1572.17,-161.81 1430.65,-139.77 1362.18,-129.1"/>
<polygon fill="midnightblue" stroke="midnightblue" points="1362.66,-125.63 1352.24,-127.55 1361.58,-132.55 1362.66,-125.63"/>
</g>
<!-- Node10 -->
<g id="node10" class="node">
<title>Node10</title>
<g id="a_node10"><a xlink:href="fmt_8hpp.html" target="_top" xlink:title=" ">
<polygon fill="white" stroke="black" points="67.5,-174 67.5,-193 146.5,-193 146.5,-174 67.5,-174"/>
<text text-anchor="middle" x="107" y="-181" font-family="Helvetica,sans-Serif" font-size="10.00">utils/fmt.hpp</text>
</a>
</g>
</g>
<!-- Node9&#45;&gt;Node10 -->
<g id="edge10" class="edge">
<title>Node9&#45;&gt;Node10</title>
<path fill="none" stroke="midnightblue" d="M499.48,-308.1C407.78,-303.16 244.99,-291.1 192,-266 160.74,-251.19 133.67,-220.35 118.91,-201.15"/>
<polygon fill="midnightblue" stroke="midnightblue" points="121.63,-198.94 112.85,-193.01 116.01,-203.12 121.63,-198.94"/>
</g>
<!-- Node22 -->
<g id="node22" class="node">
<title>Node22</title>
<g id="a_node22"><a xlink:href="ArgumentFormatter_8hpp.html" target="_top" xlink:title=" ">
<polygon fill="white" stroke="black" points="259.5,-241 259.5,-260 416.5,-260 416.5,-241 259.5,-241"/>
<text text-anchor="middle" x="338" y="-248" font-family="Helvetica,sans-Serif" font-size="10.00">utils/ArgumentFormatter.hpp</text>
</a>
</g>
</g>
<!-- Node9&#45;&gt;Node22 -->
<g id="edge29" class="edge">
<title>Node9&#45;&gt;Node22</title>
<path fill="none" stroke="midnightblue" d="M531.62,-302.48C491.76,-291.98 423.98,-274.14 380.11,-262.59"/>
<polygon fill="midnightblue" stroke="midnightblue" points="380.88,-259.17 370.32,-260.01 379.1,-265.94 380.88,-259.17"/>
</g>
<!-- Node28 -->
<g id="node28" class="node">
<title>Node28</title>
<g id="a_node28"><a xlink:href="Tracer_8hpp.html" target="_top" xlink:title=" ">
<polygon fill="white" stroke="black" points="511.5,-241 511.5,-260 616.5,-260 616.5,-241 511.5,-241"/>
<text text-anchor="middle" x="564" y="-248" font-family="Helvetica,sans-Serif" font-size="10.00">logging/Tracer.hpp</text>
</a>
</g>
</g>
<!-- Node9&#45;&gt;Node28 -->
<g id="edge36" class="edge">
<title>Node9&#45;&gt;Node28</title>
<path fill="none" stroke="midnightblue" d="M564,-302.48C564,-294.08 564,-280.98 564,-270.16"/>
<polygon fill="midnightblue" stroke="midnightblue" points="567.5,-270.01 564,-260.01 560.5,-270.01 567.5,-270.01"/>
</g>
<!-- Node10&#45;&gt;Node3 -->
<g id="edge11" class="edge">
<title>Node10&#45;&gt;Node3</title>
<path fill="none" stroke="midnightblue" d="M131.13,-173.86C138.67,-171.52 147.1,-169.29 155,-168 419.63,-124.86 1093.05,-141.58 1361,-132 1426.21,-129.67 1502.48,-126.35 1544.7,-124.46"/>
<polygon fill="midnightblue" stroke="midnightblue" points="1545.09,-127.95 1554.93,-124.01 1544.78,-120.96 1545.09,-127.95"/>
</g>
<!-- Node11 -->
<g id="node11" class="node">
<title>Node11</title>
<g id="a_node11"><a xlink:title=" ">
<polygon fill="white" stroke="#bfbfbf" points="810.5,-112.5 810.5,-131.5 883.5,-131.5 883.5,-112.5 810.5,-112.5"/>
<text text-anchor="middle" x="847" y="-119.5" font-family="Helvetica,sans-Serif" font-size="10.00">string_view</text>
</a>
</g>
</g>
<!-- Node10&#45;&gt;Node11 -->
<g id="edge12" class="edge">
<title>Node10&#45;&gt;Node11</title>
<path fill="none" stroke="midnightblue" d="M131.65,-173.88C139.07,-171.6 147.29,-169.4 155,-168 156,-167.82 644.79,-136.11 800.17,-126.04"/>
<polygon fill="midnightblue" stroke="midnightblue" points="800.59,-129.52 810.34,-125.38 800.14,-122.53 800.59,-129.52"/>
</g>
<!-- Node12 -->
<g id="node12" class="node">
<title>Node12</title>
<g id="a_node12"><a xlink:title=" ">
<polygon fill="white" stroke="#bfbfbf" points="378.5,-56.5 378.5,-75.5 457.5,-75.5 457.5,-56.5 378.5,-56.5"/>
<text text-anchor="middle" x="418" y="-63.5" font-family="Helvetica,sans-Serif" font-size="10.00">fmt/format.h</text>
</a>
</g>
</g>
<!-- Node10&#45;&gt;Node12 -->
<g id="edge13" class="edge">
<title>Node10&#45;&gt;Node12</title>
<path fill="none" stroke="midnightblue" d="M134.07,-173.99C140.88,-171.94 148.19,-169.82 155,-168 223.33,-149.76 244.45,-158.56 310,-132 342.68,-118.76 377.02,-96.43 397.97,-81.7"/>
<polygon fill="midnightblue" stroke="midnightblue" points="400.24,-84.38 406.34,-75.72 396.17,-78.68 400.24,-84.38"/>
</g>
<!-- Node13 -->
<g id="node13" class="node">
<title>Node13</title>
<g id="a_node13"><a xlink:title=" ">
<polygon fill="white" stroke="#bfbfbf" points="66,-112.5 66,-131.5 152,-131.5 152,-112.5 66,-112.5"/>
<text text-anchor="middle" x="109" y="-119.5" font-family="Helvetica,sans-Serif" font-size="10.00">fmt/ostream.h</text>
</a>
</g>
</g>
<!-- Node10&#45;&gt;Node13 -->
<g id="edge14" class="edge">
<title>Node10&#45;&gt;Node13</title>
<path fill="none" stroke="midnightblue" d="M107.29,-173.98C107.57,-165.58 108.01,-152.48 108.37,-141.66"/>
<polygon fill="midnightblue" stroke="midnightblue" points="111.88,-141.62 108.71,-131.51 104.88,-141.39 111.88,-141.62"/>
</g>
<!-- Node14 -->
<g id="node14" class="node">
<title>Node14</title>
<g id="a_node14"><a xlink:href="fmtEigen_8hpp.html" target="_top" xlink:title=" ">
<polygon fill="white" stroke="black" points="195,-112.5 195,-131.5 301,-131.5 301,-112.5 195,-112.5"/>
<text text-anchor="middle" x="248" y="-119.5" font-family="Helvetica,sans-Serif" font-size="10.00">utils/fmtEigen.hpp</text>
</a>
</g>
</g>
<!-- Node10&#45;&gt;Node14 -->
<g id="edge15" class="edge">
<title>Node10&#45;&gt;Node14</title>
<path fill="none" stroke="midnightblue" d="M127.2,-173.98C151.07,-163.9 191,-147.05 218.37,-135.5"/>
<polygon fill="midnightblue" stroke="midnightblue" points="219.98,-138.62 227.84,-131.51 217.26,-132.17 219.98,-138.62"/>
</g>
<!-- Node18 -->
<g id="node18" class="node">
<title>Node18</title>
<g id="a_node18"><a xlink:href="fmtSTL_8hpp.html" target="_top" xlink:title=" ">
<polygon fill="white" stroke="black" points="603,-112.5 603,-131.5 699,-131.5 699,-112.5 603,-112.5"/>
<text text-anchor="middle" x="651" y="-119.5" font-family="Helvetica,sans-Serif" font-size="10.00">utils/fmtSTL.hpp</text>
</a>
</g>
</g>
<!-- Node10&#45;&gt;Node18 -->
<g id="edge22" class="edge">
<title>Node10&#45;&gt;Node18</title>
<path fill="none" stroke="midnightblue" d="M132.17,-173.85C139.46,-171.63 147.48,-169.46 155,-168 311.26,-137.64 499.28,-127.67 592.58,-124.47"/>
<polygon fill="midnightblue" stroke="midnightblue" points="592.78,-127.97 602.66,-124.14 592.55,-120.97 592.78,-127.97"/>
</g>
<!-- Node14&#45;&gt;Node2 -->
<g id="edge16" class="edge">
<title>Node14&#45;&gt;Node2</title>
<path fill="none" stroke="midnightblue" d="M275.14,-112.48C305.8,-101.43 349.09,-80.62 330,-56 314.18,-35.6 246.39,-22.83 199.98,-16.32"/>
<polygon fill="midnightblue" stroke="midnightblue" points="200.23,-12.82 189.85,-14.94 199.29,-19.75 200.23,-12.82"/>
</g>
<!-- Node14&#45;&gt;Node12 -->
<g id="edge18" class="edge">
<title>Node14&#45;&gt;Node12</title>
<path fill="none" stroke="midnightblue" d="M274.94,-112.44C303.66,-103.32 349.33,-88.81 381.32,-78.65"/>
<polygon fill="midnightblue" stroke="midnightblue" points="382.72,-81.88 391.19,-75.52 380.6,-75.21 382.72,-81.88"/>
</g>
<!-- Node15 -->
<g id="node15" class="node">
<title>Node15</title>
<g id="a_node15"><a xlink:title=" ">
<polygon fill="white" stroke="#bfbfbf" points="66,-56.5 66,-75.5 130,-75.5 130,-56.5 66,-56.5"/>
<text text-anchor="middle" x="98" y="-63.5" font-family="Helvetica,sans-Serif" font-size="10.00">algorithm</text>
</a>
</g>
</g>
<!-- Node14&#45;&gt;Node15 -->
<g id="edge17" class="edge">
<title>Node14&#45;&gt;Node15</title>
<path fill="none" stroke="midnightblue" d="M224.23,-112.44C199.11,-103.4 159.29,-89.06 131.1,-78.92"/>
<polygon fill="midnightblue" stroke="midnightblue" points="132.25,-75.61 121.66,-75.52 129.88,-82.2 132.25,-75.61"/>
</g>
<!-- Node16 -->
<g id="node16" class="node">
<title>Node16</title>
<g id="a_node16"><a xlink:title=" ">
<polygon fill="white" stroke="#bfbfbf" points="148,-56.5 148,-75.5 204,-75.5 204,-56.5 148,-56.5"/>
<text text-anchor="middle" x="176" y="-63.5" font-family="Helvetica,sans-Serif" font-size="10.00">sstream</text>
</a>
</g>
</g>
<!-- Node14&#45;&gt;Node16 -->
<g id="edge19" class="edge">
<title>Node14&#45;&gt;Node16</title>
<path fill="none" stroke="midnightblue" d="M236.43,-112.32C225.58,-104.18 209.12,-91.84 196.12,-82.09"/>
<polygon fill="midnightblue" stroke="midnightblue" points="197.88,-79.03 187.78,-75.83 193.68,-84.63 197.88,-79.03"/>
</g>
<!-- Node17 -->
<g id="node17" class="node">
<title>Node17</title>
<g id="a_node17"><a xlink:href="EigenIO_8hpp.html" target="_top" xlink:title=" ">
<polygon fill="white" stroke="black" points="222.5,-56.5 222.5,-75.5 321.5,-75.5 321.5,-56.5 222.5,-56.5"/>
<text text-anchor="middle" x="272" y="-63.5" font-family="Helvetica,sans-Serif" font-size="10.00">utils/EigenIO.hpp</text>
</a>
</g>
</g>
<!-- Node14&#45;&gt;Node17 -->
<g id="edge20" class="edge">
<title>Node14&#45;&gt;Node17</title>
<path fill="none" stroke="midnightblue" d="M251.96,-112.08C255.21,-104.77 259.92,-94.18 263.95,-85.1"/>
<polygon fill="midnightblue" stroke="midnightblue" points="267.25,-86.31 268.11,-75.75 260.85,-83.47 267.25,-86.31"/>
</g>
<!-- Node17&#45;&gt;Node2 -->
<g id="edge21" class="edge">
<title>Node17&#45;&gt;Node2</title>
<path fill="none" stroke="midnightblue" d="M253.46,-56.44C234.38,-47.64 204.43,-33.81 182.56,-23.72"/>
<polygon fill="midnightblue" stroke="midnightblue" points="184,-20.53 173.45,-19.52 181.07,-26.88 184,-20.53"/>
</g>
<!-- Node18&#45;&gt;Node5 -->
<g id="edge28" class="edge">
<title>Node18&#45;&gt;Node5</title>
<path fill="none" stroke="midnightblue" d="M699.11,-117.44C836.54,-107.26 1228.47,-78.22 1346.17,-69.51"/>
<polygon fill="midnightblue" stroke="midnightblue" points="1346.66,-72.98 1356.38,-68.75 1346.15,-66 1346.66,-72.98"/>
</g>
<!-- Node18&#45;&gt;Node7 -->
<g id="edge26" class="edge">
<title>Node18&#45;&gt;Node7</title>
<path fill="none" stroke="midnightblue" d="M699.01,-114.49C782.41,-103.17 951.67,-80.21 1019.71,-70.97"/>
<polygon fill="midnightblue" stroke="midnightblue" points="1020.29,-74.43 1029.73,-69.61 1019.35,-67.49 1020.29,-74.43"/>
</g>
<!-- Node18&#45;&gt;Node12 -->
<g id="edge25" class="edge">
<title>Node18&#45;&gt;Node12</title>
<path fill="none" stroke="midnightblue" d="M614.08,-112.44C573.6,-103.06 508.58,-87.99 464.62,-77.8"/>
<polygon fill="midnightblue" stroke="midnightblue" points="465.28,-74.36 454.75,-75.52 463.7,-81.18 465.28,-74.36"/>
</g>
<!-- Node19 -->
<g id="node19" class="node">
<title>Node19</title>
<g id="a_node19"><a xlink:title=" ">
<polygon fill="white" stroke="#bfbfbf" points="685,-56.5 685,-75.5 727,-75.5 727,-56.5 685,-56.5"/>
<text text-anchor="middle" x="706" y="-63.5" font-family="Helvetica,sans-Serif" font-size="10.00">array</text>
</a>
</g>
</g>
<!-- Node18&#45;&gt;Node19 -->
<g id="edge23" class="edge">
<title>Node18&#45;&gt;Node19</title>
<path fill="none" stroke="midnightblue" d="M660.08,-112.08C668.17,-104.14 680.2,-92.34 689.91,-82.8"/>
<polygon fill="midnightblue" stroke="midnightblue" points="692.4,-85.25 697.09,-75.75 687.5,-80.26 692.4,-85.25"/>
</g>
<!-- Node20 -->
<g id="node20" class="node">
<title>Node20</title>
<g id="a_node20"><a xlink:title=" ">
<polygon fill="white" stroke="#bfbfbf" points="569.5,-56.5 569.5,-75.5 616.5,-75.5 616.5,-56.5 569.5,-56.5"/>
<text text-anchor="middle" x="593" y="-63.5" font-family="Helvetica,sans-Serif" font-size="10.00">deque</text>
</a>
</g>
</g>
<!-- Node18&#45;&gt;Node20 -->
<g id="edge24" class="edge">
<title>Node18&#45;&gt;Node20</title>
<path fill="none" stroke="midnightblue" d="M641.68,-112.32C633.11,-104.34 620.19,-92.31 609.81,-82.65"/>
<polygon fill="midnightblue" stroke="midnightblue" points="612.19,-80.09 602.49,-75.83 607.42,-85.21 612.19,-80.09"/>
</g>
<!-- Node21 -->
<g id="node21" class="node">
<title>Node21</title>
<g id="a_node21"><a xlink:title=" ">
<polygon fill="white" stroke="#bfbfbf" points="635,-56.5 635,-75.5 667,-75.5 667,-56.5 635,-56.5"/>
<text text-anchor="middle" x="651" y="-63.5" font-family="Helvetica,sans-Serif" font-size="10.00">set</text>
</a>
</g>
</g>
<!-- Node18&#45;&gt;Node21 -->
<g id="edge27" class="edge">
<title>Node18&#45;&gt;Node21</title>
<path fill="none" stroke="midnightblue" d="M651,-112.08C651,-105.01 651,-94.86 651,-85.99"/>
<polygon fill="midnightblue" stroke="midnightblue" points="654.5,-85.75 651,-75.75 647.5,-85.75 654.5,-85.75"/>
</g>
<!-- Node22&#45;&gt;Node10 -->
<g id="edge35" class="edge">
<title>Node22&#45;&gt;Node10</title>
<path fill="none" stroke="midnightblue" d="M306.2,-240.97C269.64,-231.11 207.88,-214.28 155,-199 151.64,-198.03 148.15,-197 144.65,-195.97"/>
<polygon fill="midnightblue" stroke="midnightblue" points="145.47,-192.56 134.89,-193.05 143.46,-199.27 145.47,-192.56"/>
</g>
<!-- Node23 -->
<g id="node23" class="node">
<title>Node23</title>
<g id="a_node23"><a xlink:title=" ">
<polygon fill="white" stroke="#bfbfbf" points="581,-168.5 581,-198.5 691,-198.5 691,-168.5 581,-168.5"/>
<text text-anchor="start" x="589" y="-186.5" font-family="Helvetica,sans-Serif" font-size="10.00">boost/preprocessor</text>
<text text-anchor="middle" x="636" y="-175.5" font-family="Helvetica,sans-Serif" font-size="10.00">/control/if.hpp</text>
</a>
</g>
</g>
<!-- Node22&#45;&gt;Node23 -->
<g id="edge30" class="edge">
<title>Node22&#45;&gt;Node23</title>
<path fill="none" stroke="midnightblue" d="M378.19,-240.96C422.82,-231.44 497.28,-215.48 570.94,-199.22"/>
<polygon fill="midnightblue" stroke="midnightblue" points="571.84,-202.61 580.85,-197.03 570.33,-195.77 571.84,-202.61"/>
</g>
<!-- Node24 -->
<g id="node24" class="node">
<title>Node24</title>
<g id="a_node24"><a xlink:title=" ">
<polygon fill="white" stroke="#bfbfbf" points="164.5,-168.5 164.5,-198.5 275.5,-198.5 275.5,-168.5 164.5,-168.5"/>
<text text-anchor="start" x="172.5" y="-186.5" font-family="Helvetica,sans-Serif" font-size="10.00">boost/preprocessor</text>
<text text-anchor="middle" x="220" y="-175.5" font-family="Helvetica,sans-Serif" font-size="10.00">/seq/for_each_i.hpp</text>
</a>
</g>
</g>
<!-- Node22&#45;&gt;Node24 -->
<g id="edge31" class="edge">
<title>Node22&#45;&gt;Node24</title>
<path fill="none" stroke="midnightblue" d="M322.09,-240.73C304.84,-231.23 276.78,-215.78 254.44,-203.47"/>
<polygon fill="midnightblue" stroke="midnightblue" points="256.02,-200.35 245.58,-198.59 252.65,-206.48 256.02,-200.35"/>
</g>
<!-- Node25 -->
<g id="node25" class="node">
<title>Node25</title>
<g id="a_node25"><a xlink:title=" ">
<polygon fill="white" stroke="#bfbfbf" points="709,-168.5 709,-198.5 819,-198.5 819,-168.5 709,-168.5"/>
<text text-anchor="start" x="717" y="-186.5" font-family="Helvetica,sans-Serif" font-size="10.00">boost/preprocessor</text>
<text text-anchor="middle" x="764" y="-175.5" font-family="Helvetica,sans-Serif" font-size="10.00">/stringize.hpp</text>
</a>
</g>
</g>
<!-- Node22&#45;&gt;Node25 -->
<g id="edge32" class="edge">
<title>Node22&#45;&gt;Node25</title>
<path fill="none" stroke="midnightblue" d="M412.48,-240.97C483.57,-232.4 593.9,-218.01 698.77,-199.13"/>
<polygon fill="midnightblue" stroke="midnightblue" points="699.69,-202.52 708.9,-197.29 698.44,-195.64 699.69,-202.52"/>
</g>
<!-- Node26 -->
<g id="node26" class="node">
<title>Node26</title>
<g id="a_node26"><a xlink:title=" ">
<polygon fill="white" stroke="#bfbfbf" points="293.5,-168.5 293.5,-198.5 408.5,-198.5 408.5,-168.5 293.5,-168.5"/>
<text text-anchor="start" x="301.5" y="-186.5" font-family="Helvetica,sans-Serif" font-size="10.00">boost/preprocessor</text>
<text text-anchor="middle" x="351" y="-175.5" font-family="Helvetica,sans-Serif" font-size="10.00">/variadic/to_seq.hpp</text>
</a>
</g>
</g>
<!-- Node22&#45;&gt;Node26 -->
<g id="edge33" class="edge">
<title>Node22&#45;&gt;Node26</title>
<path fill="none" stroke="midnightblue" d="M339.75,-240.73C341.39,-232.54 343.92,-219.92 346.16,-208.71"/>
<polygon fill="midnightblue" stroke="midnightblue" points="349.65,-209.08 348.18,-198.59 342.79,-207.71 349.65,-209.08"/>
</g>
<!-- Node27 -->
<g id="node27" class="node">
<title>Node27</title>
<g id="a_node27"><a xlink:title=" ">
<polygon fill="white" stroke="#bfbfbf" points="427,-174 427,-193 563,-193 563,-174 427,-174"/>
<text text-anchor="middle" x="495" y="-181" font-family="Helvetica,sans-Serif" font-size="10.00">boost/vmd/is_empty.hpp</text>
</a>
</g>
</g>
<!-- Node22&#45;&gt;Node27 -->
<g id="edge34" class="edge">
<title>Node22&#45;&gt;Node27</title>
<path fill="none" stroke="midnightblue" d="M358.85,-240.87C385.94,-229.65 433.46,-209.98 464.58,-197.09"/>
<polygon fill="midnightblue" stroke="midnightblue" points="466.16,-200.23 474.07,-193.17 463.49,-193.76 466.16,-200.23"/>
</g>
<!-- Node28&#45;&gt;Node29 -->
<g id="edge37" class="edge">
<title>Node28&#45;&gt;Node29</title>
<path fill="none" stroke="midnightblue" d="M600.03,-240.98C610.02,-238.81 620.9,-236.64 631,-235 783.64,-210.25 966.56,-194.33 1049.79,-187.84"/>
<polygon fill="midnightblue" stroke="midnightblue" points="1050.21,-191.32 1059.91,-187.06 1049.67,-184.34 1050.21,-191.32"/>
</g>
<!-- Node29&#45;&gt;Node8 -->
<g id="edge38" class="edge">
<title>Node29&#45;&gt;Node8</title>
<path fill="none" stroke="midnightblue" d="M1120.02,-173.88C1126.2,-171.85 1132.81,-169.77 1139,-168 1188.56,-153.8 1246.42,-140.12 1283.83,-131.64"/>
<polygon fill="midnightblue" stroke="midnightblue" points="1284.83,-135 1293.81,-129.39 1283.29,-128.18 1284.83,-135"/>
</g>
<!-- Node29&#45;&gt;Node9 -->
<g id="edge40" class="edge">
<title>Node29&#45;&gt;Node9</title>
<path fill="none" stroke="midnightblue" d="M1059.88,-184.65C989.97,-185.9 829.19,-193.47 702,-235 657.11,-249.66 610,-279.11 584.09,-296.74"/>
<polygon fill="midnightblue" stroke="midnightblue" points="582.08,-293.87 575.84,-302.43 586.06,-299.63 582.08,-293.87"/>
</g>
<!-- Node29&#45;&gt;Node11 -->
<g id="edge39" class="edge">
<title>Node29&#45;&gt;Node11</title>
<path fill="none" stroke="midnightblue" d="M1059.99,-174.1C1016.12,-163.57 940.82,-145.51 892.51,-133.92"/>
<polygon fill="midnightblue" stroke="midnightblue" points="893.17,-130.48 882.63,-131.55 891.54,-137.29 893.17,-130.48"/>
</g>
<!-- Node30&#45;&gt;Node10 -->
<g id="edge46" class="edge">
<title>Node30&#45;&gt;Node10</title>
<path fill="none" stroke="midnightblue" d="M960.32,-309.25C797.72,-303.77 317.55,-286.04 250,-266 224.83,-258.53 162.14,-219.81 128.74,-198.53"/>
<polygon fill="midnightblue" stroke="midnightblue" points="130.46,-195.48 120.15,-193.04 126.69,-201.38 130.46,-195.48"/>
</g>
<!-- Node30&#45;&gt;Node11 -->
<g id="edge45" class="edge">
<title>Node30&#45;&gt;Node11</title>
<path fill="none" stroke="midnightblue" d="M960.36,-311.34C880.13,-310.58 734.78,-303.85 702,-266 692.98,-255.59 693.7,-246 702,-235 737.07,-188.5 787.51,-240.86 828,-199 842.67,-183.83 846.54,-159.12 847.31,-142.02"/>
<polygon fill="midnightblue" stroke="midnightblue" points="850.81,-141.64 847.44,-131.6 843.81,-141.55 850.81,-141.64"/>
</g>
<!-- Node30&#45;&gt;Node22 -->
<g id="edge52" class="edge">
<title>Node30&#45;&gt;Node22</title>
<path fill="none" stroke="midnightblue" d="M960.41,-308.26C857.55,-302.69 625.36,-288.62 431,-266 420.31,-264.76 408.97,-263.19 398.02,-261.56"/>
<polygon fill="midnightblue" stroke="midnightblue" points="398.51,-258.09 388.1,-260.04 397.45,-265.01 398.51,-258.09"/>
</g>
<!-- Node30&#45;&gt;Node23 -->
<g id="edge49" class="edge">
<title>Node30&#45;&gt;Node23</title>
<path fill="none" stroke="midnightblue" d="M960.11,-310.65C827.99,-309.23 496.25,-302.08 463,-266 453.66,-255.87 454.73,-246.02 463,-235 469.82,-225.9 524.65,-210.86 570.79,-199.55"/>
<polygon fill="midnightblue" stroke="midnightblue" points="571.89,-202.89 580.78,-197.13 570.24,-196.09 571.89,-202.89"/>
</g>
<!-- Node30&#45;&gt;Node25 -->
<g id="edge50" class="edge">
<title>Node30&#45;&gt;Node25</title>
<path fill="none" stroke="midnightblue" d="M960.26,-310.29C835.11,-308.08 532.51,-299.31 502,-266 401.21,-155.97 319.05,-274.97 698.95,-199.15"/>
<polygon fill="midnightblue" stroke="midnightblue" points="699.76,-202.56 708.87,-197.15 698.38,-195.7 699.76,-202.56"/>
</g>
<!-- Node31 -->
<g id="node31" class="node">
<title>Node31</title>
<g id="a_node31"><a xlink:title=" ">
<polygon fill="white" stroke="#bfbfbf" points="1228.5,-241 1228.5,-260 1277.5,-260 1277.5,-241 1228.5,-241"/>
<text text-anchor="middle" x="1253" y="-248" font-family="Helvetica,sans-Serif" font-size="10.00">cstdlib</text>
</a>
</g>
</g>
<!-- Node30&#45;&gt;Node31 -->
<g id="edge43" class="edge">
<title>Node30&#45;&gt;Node31</title>
<path fill="none" stroke="midnightblue" d="M1065.67,-302.43C1107.55,-294.82 1167.81,-282.38 1219,-266 1220.93,-265.38 1222.89,-264.7 1224.86,-263.97"/>
<polygon fill="midnightblue" stroke="midnightblue" points="1226.54,-267.07 1234.53,-260.12 1223.95,-260.57 1226.54,-267.07"/>
</g>
<!-- Node32 -->
<g id="node32" class="node">
<title>Node32</title>
<g id="a_node32"><a xlink:title=" ">
<polygon fill="white" stroke="#bfbfbf" points="1296,-241 1296,-260 1356,-260 1356,-241 1296,-241"/>
<text text-anchor="middle" x="1326" y="-248" font-family="Helvetica,sans-Serif" font-size="10.00">iostream</text>
</a>
</g>
</g>
<!-- Node30&#45;&gt;Node32 -->
<g id="edge44" class="edge">
<title>Node30&#45;&gt;Node32</title>
<path fill="none" stroke="midnightblue" d="M1067.51,-305.1C1122.81,-298.31 1211.33,-285.53 1286,-266 1288.98,-265.22 1292.04,-264.31 1295.09,-263.34"/>
<polygon fill="midnightblue" stroke="midnightblue" points="1296.31,-266.62 1304.64,-260.06 1294.05,-259.99 1296.31,-266.62"/>
</g>
<!-- Node33 -->
<g id="node33" class="node">
<title>Node33</title>
<g id="a_node33"><a xlink:title=" ">
<polygon fill="white" stroke="#bfbfbf" points="711.5,-241 711.5,-260 858.5,-260 858.5,-241 711.5,-241"/>
<text text-anchor="middle" x="785" y="-248" font-family="Helvetica,sans-Serif" font-size="10.00">boost/current_function.hpp</text>
</a>
</g>
</g>
<!-- Node30&#45;&gt;Node33 -->
<g id="edge47" class="edge">
<title>Node30&#45;&gt;Node33</title>
<path fill="none" stroke="midnightblue" d="M981.19,-302.48C940.8,-291.98 872.12,-274.14 827.67,-262.59"/>
<polygon fill="midnightblue" stroke="midnightblue" points="828.31,-259.14 817.75,-260.01 826.55,-265.91 828.31,-259.14"/>
</g>
<!-- Node34 -->
<g id="node34" class="node">
<title>Node34</title>
<g id="a_node34"><a xlink:title=" ">
<polygon fill="white" stroke="#bfbfbf" points="876.5,-235.5 876.5,-265.5 1011.5,-265.5 1011.5,-235.5 876.5,-235.5"/>
<text text-anchor="start" x="884.5" y="-253.5" font-family="Helvetica,sans-Serif" font-size="10.00">boost/preprocessor</text>
<text text-anchor="middle" x="944" y="-242.5" font-family="Helvetica,sans-Serif" font-size="10.00">/comparison/greater.hpp</text>
</a>
</g>
</g>
<!-- Node30&#45;&gt;Node34 -->
<g id="edge48" class="edge">
<title>Node30&#45;&gt;Node34</title>
<path fill="none" stroke="midnightblue" d="M1003.97,-302.48C994.67,-294.57 980.45,-282.48 968.2,-272.07"/>
<polygon fill="midnightblue" stroke="midnightblue" points="970.38,-269.33 960.5,-265.52 965.85,-274.67 970.38,-269.33"/>
</g>
<!-- Node35 -->
<g id="node35" class="node">
<title>Node35</title>
<g id="a_node35"><a xlink:title=" ">
<polygon fill="white" stroke="#bfbfbf" points="1030,-235.5 1030,-265.5 1140,-265.5 1140,-235.5 1030,-235.5"/>
<text text-anchor="start" x="1038" y="-253.5" font-family="Helvetica,sans-Serif" font-size="10.00">boost/preprocessor</text>
<text text-anchor="middle" x="1085" y="-242.5" font-family="Helvetica,sans-Serif" font-size="10.00">/variadic/size.hpp</text>
</a>
</g>
</g>
<!-- Node30&#45;&gt;Node35 -->
<g id="edge51" class="edge">
<title>Node30&#45;&gt;Node35</title>
<path fill="none" stroke="midnightblue" d="M1024.17,-302.48C1033.61,-294.57 1048.03,-282.48 1060.46,-272.07"/>
<polygon fill="midnightblue" stroke="midnightblue" points="1062.85,-274.63 1068.27,-265.52 1058.35,-269.26 1062.85,-274.63"/>
</g>
<!-- Node36 -->
<g id="node36" class="node">
<title>Node36</title>
<g id="a_node36"><a xlink:href="Parallel_8hpp.html" target="_top" xlink:title=" ">
<polygon fill="white" stroke="black" points="1450,-241 1450,-260 1548,-260 1548,-241 1450,-241"/>
<text text-anchor="middle" x="1499" y="-248" font-family="Helvetica,sans-Serif" font-size="10.00">utils/Parallel.hpp</text>
</a>
</g>
</g>
<!-- Node30&#45;&gt;Node36 -->
<g id="edge53" class="edge">
<title>Node30&#45;&gt;Node36</title>
<path fill="none" stroke="midnightblue" d="M1067.76,-304.41C1159.25,-293.18 1344.56,-270.45 1439.7,-258.77"/>
<polygon fill="midnightblue" stroke="midnightblue" points="1440.23,-262.24 1449.73,-257.54 1439.38,-255.29 1440.23,-262.24"/>
</g>
<!-- Node41 -->
<g id="node41" class="node">
<title>Node41</title>
<g id="a_node41"><a xlink:href="stacktrace_8hpp.html" target="_top" xlink:title=" ">
<polygon fill="white" stroke="black" points="1566.5,-241 1566.5,-260 1679.5,-260 1679.5,-241 1566.5,-241"/>
<text text-anchor="middle" x="1623" y="-248" font-family="Helvetica,sans-Serif" font-size="10.00">utils/stacktrace.hpp</text>
</a>
</g>
</g>
<!-- Node30&#45;&gt;Node41 -->
<g id="edge62" class="edge">
<title>Node30&#45;&gt;Node41</title>
<path fill="none" stroke="midnightblue" d="M1067.84,-308.92C1165.69,-304.62 1379.04,-292.8 1557,-266 1563.86,-264.97 1571.07,-263.64 1578.11,-262.2"/>
<polygon fill="midnightblue" stroke="midnightblue" points="1579.17,-265.56 1588.22,-260.05 1577.71,-258.71 1579.17,-265.56"/>
</g>
<!-- Node42 -->
<g id="node42" class="node">
<title>Node42</title>
<g id="a_node42"><a xlink:title=" ">
<polygon fill="white" stroke="#bfbfbf" points="1158,-241 1158,-260 1210,-260 1210,-241 1158,-241"/>
<text text-anchor="middle" x="1184" y="-248" font-family="Helvetica,sans-Serif" font-size="10.00">cassert</text>
</a>
</g>
</g>
<!-- Node30&#45;&gt;Node42 -->
<g id="edge64" class="edge">
<title>Node30&#45;&gt;Node42</title>
<path fill="none" stroke="midnightblue" d="M1041.61,-302.43C1069.03,-293.77 1112.2,-279.74 1149,-266 1150.85,-265.31 1152.74,-264.58 1154.65,-263.84"/>
<polygon fill="midnightblue" stroke="midnightblue" points="1156.14,-267.01 1164.11,-260.03 1153.52,-260.52 1156.14,-267.01"/>
</g>
<!-- Node36&#45;&gt;Node3 -->
<g id="edge57" class="edge">
<title>Node36&#45;&gt;Node3</title>
<path fill="none" stroke="midnightblue" d="M1506.66,-240.97C1515.17,-231.25 1529.03,-214.66 1539,-199 1550.97,-180.19 1562.05,-157.1 1569.12,-141.34"/>
<polygon fill="midnightblue" stroke="midnightblue" points="1572.52,-142.31 1573.33,-131.75 1566.11,-139.5 1572.52,-142.31"/>
</g>
<!-- Node36&#45;&gt;Node5 -->
<g id="edge58" class="edge">
<title>Node36&#45;&gt;Node5</title>
<path fill="none" stroke="midnightblue" d="M1464.34,-240.94C1442.09,-233.58 1414.55,-220.64 1399,-199 1374.65,-165.11 1375.17,-113.5 1377.61,-85.93"/>
<polygon fill="midnightblue" stroke="midnightblue" points="1381.12,-86.02 1378.71,-75.71 1374.16,-85.28 1381.12,-86.02"/>
</g>
<!-- Node36&#45;&gt;Node8 -->
<g id="edge55" class="edge">
<title>Node36&#45;&gt;Node8</title>
<path fill="none" stroke="midnightblue" d="M1469.75,-240.95C1435.67,-230.56 1381.98,-212.72 1366,-199 1347.9,-183.46 1335.81,-158.31 1329.17,-141.24"/>
<polygon fill="midnightblue" stroke="midnightblue" points="1332.45,-140.01 1325.74,-131.81 1325.87,-142.4 1332.45,-140.01"/>
</g>
<!-- Node36&#45;&gt;Node29 -->
<g id="edge59" class="edge">
<title>Node36&#45;&gt;Node29</title>
<path fill="none" stroke="midnightblue" d="M1464.8,-240.94C1455.5,-238.8 1445.4,-236.65 1436,-235 1305.03,-212.06 1268.78,-227.95 1139,-199 1135.33,-198.18 1131.53,-197.18 1127.78,-196.09"/>
<polygon fill="midnightblue" stroke="midnightblue" points="1128.64,-192.69 1118.05,-193.05 1126.55,-199.37 1128.64,-192.69"/>
</g>
<!-- Node37 -->
<g id="node37" class="node">
<title>Node37</title>
<g id="a_node37"><a xlink:title=" ">
<polygon fill="white" stroke="#bfbfbf" points="1408,-174 1408,-193 1456,-193 1456,-174 1408,-174"/>
<text text-anchor="middle" x="1432" y="-181" font-family="Helvetica,sans-Serif" font-size="10.00">iosfwd</text>
</a>
</g>
</g>
<!-- Node36&#45;&gt;Node37 -->
<g id="edge54" class="edge">
<title>Node36&#45;&gt;Node37</title>
<path fill="none" stroke="midnightblue" d="M1489.96,-240.73C1479.32,-230.4 1461.42,-213.04 1448.32,-200.33"/>
<polygon fill="midnightblue" stroke="midnightblue" points="1450.51,-197.58 1440.89,-193.13 1445.63,-202.6 1450.51,-197.58"/>
</g>
<!-- Node38 -->
<g id="node38" class="node">
<title>Node38</title>
<g id="a_node38"><a xlink:title=" ">
<polygon fill="white" stroke="#bfbfbf" points="1474,-174 1474,-193 1530,-193 1530,-174 1474,-174"/>
<text text-anchor="middle" x="1502" y="-181" font-family="Helvetica,sans-Serif" font-size="10.00">optional</text>
</a>
</g>
</g>
<!-- Node36&#45;&gt;Node38 -->
<g id="edge56" class="edge">
<title>Node36&#45;&gt;Node38</title>
<path fill="none" stroke="midnightblue" d="M1499.4,-240.73C1499.85,-231.18 1500.56,-215.62 1501.13,-203.28"/>
<polygon fill="midnightblue" stroke="midnightblue" points="1504.64,-203.28 1501.6,-193.13 1497.64,-202.96 1504.64,-203.28"/>
</g>
<!-- Node39 -->
<g id="node39" class="node">
<title>Node39</title>
<g id="a_node39"><a xlink:href="types_8hpp.html" target="_top" xlink:title=" ">
<polygon fill="white" stroke="black" points="1148.5,-174 1148.5,-193 1251.5,-193 1251.5,-174 1148.5,-174"/>
<text text-anchor="middle" x="1200" y="-181" font-family="Helvetica,sans-Serif" font-size="10.00">precice/types.hpp</text>
</a>
</g>
</g>
<!-- Node36&#45;&gt;Node39 -->
<g id="edge60" class="edge">
<title>Node36&#45;&gt;Node39</title>
<path fill="none" stroke="midnightblue" d="M1462.72,-241C1453.98,-238.99 1444.66,-236.89 1436,-235 1358.41,-218.09 1338.52,-216.18 1261,-199 1255.88,-197.87 1250.53,-196.65 1245.22,-195.41"/>
<polygon fill="midnightblue" stroke="midnightblue" points="1245.65,-191.92 1235.12,-193.04 1244.05,-198.73 1245.65,-191.92"/>
</g>
<!-- Node40 -->
<g id="node40" class="node">
<title>Node40</title>
<g id="a_node40"><a xlink:title=" ">
<polygon fill="white" stroke="#bfbfbf" points="1270,-174 1270,-193 1314,-193 1314,-174 1270,-174"/>
<text text-anchor="middle" x="1292" y="-181" font-family="Helvetica,sans-Serif" font-size="10.00">mpi.h</text>
</a>
</g>
</g>
<!-- Node36&#45;&gt;Node40 -->
<g id="edge61" class="edge">
<title>Node36&#45;&gt;Node40</title>
<path fill="none" stroke="midnightblue" d="M1466.56,-240.92C1431.95,-231.53 1375.65,-215.59 1328,-199 1326.09,-198.34 1324.14,-197.63 1322.17,-196.9"/>
<polygon fill="midnightblue" stroke="midnightblue" points="1323.02,-193.47 1312.43,-193.12 1320.49,-200 1323.02,-193.47"/>
</g>
<!-- Node41&#45;&gt;Node3 -->
<g id="edge63" class="edge">
<title>Node41&#45;&gt;Node3</title>
<path fill="none" stroke="midnightblue" d="M1619.84,-240.81C1612.42,-220.4 1593.76,-169.1 1583.69,-141.41"/>
<polygon fill="midnightblue" stroke="midnightblue" points="1586.89,-139.96 1580.18,-131.76 1580.31,-142.35 1586.89,-139.96"/>
</g>
</g>
</svg>
