<?xml version="1.0" encoding="UTF-8" standalone="no"?>
<!DOCTYPE svg PUBLIC "-//W3C//DTD SVG 1.1//EN"
 "http://www.w3.org/Graphics/SVG/1.1/DTD/svg11.dtd">
<!-- Generated by graphviz version 2.43.0 (0)
 -->
<!-- Title: src/mesh/Vertex.cpp Pages: 1 -->
<!--zoomable 666 -->
<svg id="main" version="1.1" xmlns="http://www.w3.org/2000/svg" xmlns:xlink="http://www.w3.org/1999/xlink" xml:space="preserve" onload="init(evt)">
<style type="text/css"><![CDATA[
.edge:hover path { stroke: red; }
.edge:hover polygon { stroke: red; fill: red; }
]]></style>
<script type="text/javascript"><![CDATA[
var edges = document.getElementsByTagName('g');
if (edges && edges.length) {
  for (var i=0;i<edges.length;i++) {
    if (edges[i].id.substr(0,4)=='edge') {
      edges[i].setAttribute('class','edge');
    }
  }
}
]]></script>
        <defs>
                <circle id="rim" cx="0" cy="0" r="7"/>
                <circle id="rim2" cx="0" cy="0" r="3.5"/>
                <g id="zoomPlus">
                        <use xlink:href="#rim" fill="#404040">
                                <set attributeName="fill" to="#808080" begin="zoomplus.mouseover" end="zoomplus.mouseout"/>
                        </use>
                        <path d="M-4,0h8M0,-4v8" fill="none" stroke="white" stroke-width="1.5" pointer-events="none"/>
                </g>
                <g id="zoomMin">
                        <use xlink:href="#rim" fill="#404040">
                                <set attributeName="fill" to="#808080" begin="zoomminus.mouseover" end="zoomminus.mouseout"/>
                        </use>
                        <path d="M-4,0h8" fill="none" stroke="white" stroke-width="1.5" pointer-events="none"/>
                </g>
                <g id="dirArrow">
                        <path fill="none" stroke="white" stroke-width="1.5" d="M0,-3.0v7 M-2.5,-0.5L0,-3.0L2.5,-0.5"/>
                </g>
               <g id="resetDef">
                       <use xlink:href="#rim2" fill="#404040">
                               <set attributeName="fill" to="#808080" begin="reset.mouseover" end="reset.mouseout"/>
                       </use>
               </g>
        </defs>

<script type="text/javascript">
var viewWidth = 1750;
var viewHeight = 666;
var sectionId = 'dynsection-0';
</script>
<script xlink:href="svgpan.js"/>
<svg id="graph" class="graph">
<g id="viewport">
<title>src/mesh/Vertex.cpp</title>
<polygon fill="white" stroke="transparent" points="-4,4 -4,-662 1746,-662 1746,4 -4,4"/>
<!-- Node1 -->
<g id="node1" class="node">
<title>Node1</title>
<g id="a_node1"><a xlink:title=" ">
<polygon fill="#bfbfbf" stroke="black" points="1626,-638.5 1626,-657.5 1742,-657.5 1742,-638.5 1626,-638.5"/>
<text text-anchor="middle" x="1684" y="-645.5" font-family="Helvetica,sans-Serif" font-size="10.00">src/mesh/Vertex.cpp</text>
</a>
</g>
</g>
<!-- Node2 -->
<g id="node2" class="node">
<title>Node2</title>
<g id="a_node2"><a xlink:href="Vertex_8hpp.html" target="_top" xlink:title=" ">
<polygon fill="white" stroke="black" points="906.5,-582.5 906.5,-601.5 975.5,-601.5 975.5,-582.5 906.5,-582.5"/>
<text text-anchor="middle" x="941" y="-589.5" font-family="Helvetica,sans-Serif" font-size="10.00">Vertex.hpp</text>
</a>
</g>
</g>
<!-- Node1&#45;&gt;Node2 -->
<g id="edge1" class="edge">
<title>Node1&#45;&gt;Node2</title>
<path fill="none" stroke="midnightblue" d="M1625.7,-642.76C1482.12,-632.33 1113.84,-605.56 985.73,-596.25"/>
<polygon fill="midnightblue" stroke="midnightblue" points="985.74,-592.74 975.51,-595.51 985.23,-599.72 985.74,-592.74"/>
</g>
<!-- Node3 -->
<g id="node3" class="node">
<title>Node3</title>
<g id="a_node3"><a xlink:title=" ">
<polygon fill="white" stroke="#bfbfbf" points="1552.5,-0.5 1552.5,-19.5 1621.5,-19.5 1621.5,-0.5 1552.5,-0.5"/>
<text text-anchor="middle" x="1587" y="-7.5" font-family="Helvetica,sans-Serif" font-size="10.00">Eigen/Core</text>
</a>
</g>
</g>
<!-- Node1&#45;&gt;Node3 -->
<g id="edge64" class="edge">
<title>Node1&#45;&gt;Node3</title>
<path fill="none" stroke="midnightblue" d="M1689.28,-638.23C1699.73,-620.04 1722,-576.6 1722,-537 1722,-537 1722,-537 1722,-121 1722,-70.31 1664.09,-38.83 1624.12,-23.14"/>
<polygon fill="midnightblue" stroke="midnightblue" points="1625.24,-19.82 1614.65,-19.58 1622.78,-26.38 1625.24,-19.82"/>
</g>
<!-- Node18 -->
<g id="node18" class="node">
<title>Node18</title>
<g id="a_node18"><a xlink:href="EigenIO_8hpp.html" target="_top" xlink:title=" ">
<polygon fill="white" stroke="black" points="1537.5,-56.5 1537.5,-75.5 1636.5,-75.5 1636.5,-56.5 1537.5,-56.5"/>
<text text-anchor="middle" x="1587" y="-63.5" font-family="Helvetica,sans-Serif" font-size="10.00">utils/EigenIO.hpp</text>
</a>
</g>
</g>
<!-- Node1&#45;&gt;Node18 -->
<g id="edge65" class="edge">
<title>Node1&#45;&gt;Node18</title>
<path fill="none" stroke="midnightblue" d="M1684,-638.44C1684,-619.94 1684,-574.81 1684,-537 1684,-537 1684,-537 1684,-182.5 1684,-137.13 1639.57,-100.27 1610.85,-81.18"/>
<polygon fill="midnightblue" stroke="midnightblue" points="1612.47,-78.06 1602.16,-75.62 1608.7,-83.96 1612.47,-78.06"/>
</g>
<!-- Node2&#45;&gt;Node3 -->
<g id="edge2" class="edge">
<title>Node2&#45;&gt;Node3</title>
<path fill="none" stroke="midnightblue" d="M975.96,-589.28C1118.22,-581.84 1646,-549.6 1646,-481 1646,-481 1646,-481 1646,-182.5 1646,-126.28 1670.94,-106.39 1646,-56 1639.4,-42.66 1626.74,-32.19 1614.83,-24.73"/>
<polygon fill="midnightblue" stroke="midnightblue" points="1616.39,-21.59 1605.98,-19.6 1612.88,-27.64 1616.39,-21.59"/>
</g>
<!-- Node4 -->
<g id="node4" class="node">
<title>Node4</title>
<g id="a_node4"><a xlink:title=" ">
<polygon fill="white" stroke="#bfbfbf" points="433,-56.5 433,-75.5 475,-75.5 475,-56.5 433,-56.5"/>
<text text-anchor="middle" x="454" y="-63.5" font-family="Helvetica,sans-Serif" font-size="10.00">array</text>
</a>
</g>
</g>
<!-- Node2&#45;&gt;Node4 -->
<g id="edge3" class="edge">
<title>Node2&#45;&gt;Node4</title>
<path fill="none" stroke="midnightblue" d="M906.39,-590.66C736.62,-588.57 0,-574.14 0,-481 0,-481 0,-481 0,-182.5 0,-95.11 319.91,-73.05 422.64,-68.22"/>
<polygon fill="midnightblue" stroke="midnightblue" points="422.88,-71.71 432.71,-67.77 422.57,-64.72 422.88,-71.71"/>
</g>
<!-- Node5 -->
<g id="node5" class="node">
<title>Node5</title>
<g id="a_node5"><a xlink:title=" ">
<polygon fill="white" stroke="#bfbfbf" points="28,-409 28,-428 88,-428 88,-409 28,-409"/>
<text text-anchor="middle" x="58" y="-416" font-family="Helvetica,sans-Serif" font-size="10.00">iostream</text>
</a>
</g>
</g>
<!-- Node2&#45;&gt;Node5 -->
<g id="edge4" class="edge">
<title>Node2&#45;&gt;Node5</title>
<path fill="none" stroke="midnightblue" d="M906.27,-586.2C790.84,-569.89 409.85,-513.15 102,-434 98.63,-433.13 95.13,-432.14 91.66,-431.1"/>
<polygon fill="midnightblue" stroke="midnightblue" points="92.63,-427.73 82.04,-428.06 90.52,-434.41 92.63,-427.73"/>
</g>
<!-- Node6 -->
<g id="node6" class="node">
<title>Node6</title>
<g id="a_node6"><a xlink:title=" ">
<polygon fill="white" stroke="#bfbfbf" points="1063.5,-526.5 1063.5,-545.5 1108.5,-545.5 1108.5,-526.5 1063.5,-526.5"/>
<text text-anchor="middle" x="1086" y="-533.5" font-family="Helvetica,sans-Serif" font-size="10.00">utility</text>
</a>
</g>
</g>
<!-- Node2&#45;&gt;Node6 -->
<g id="edge5" class="edge">
<title>Node2&#45;&gt;Node6</title>
<path fill="none" stroke="midnightblue" d="M963.98,-582.44C988.16,-573.44 1026.42,-559.19 1053.65,-549.05"/>
<polygon fill="midnightblue" stroke="midnightblue" points="1054.98,-552.29 1063.13,-545.52 1052.54,-545.73 1054.98,-552.29"/>
</g>
<!-- Node7 -->
<g id="node7" class="node">
<title>Node7</title>
<g id="a_node7"><a xlink:href="differences_8hpp.html" target="_top" xlink:title=" ">
<polygon fill="white" stroke="black" points="925,-526.5 925,-545.5 1045,-545.5 1045,-526.5 925,-526.5"/>
<text text-anchor="middle" x="985" y="-533.5" font-family="Helvetica,sans-Serif" font-size="10.00">math/differences.hpp</text>
</a>
</g>
</g>
<!-- Node2&#45;&gt;Node7 -->
<g id="edge6" class="edge">
<title>Node2&#45;&gt;Node7</title>
<path fill="none" stroke="midnightblue" d="M948.27,-582.08C954.54,-574.38 963.79,-563.03 971.43,-553.65"/>
<polygon fill="midnightblue" stroke="midnightblue" points="974.27,-555.71 977.87,-545.75 968.84,-551.29 974.27,-555.71"/>
</g>
<!-- Node8 -->
<g id="node8" class="node">
<title>Node8</title>
<g id="a_node8"><a xlink:href="assertion_8hpp.html" target="_top" xlink:title=" ">
<polygon fill="white" stroke="black" points="594.5,-470.5 594.5,-489.5 701.5,-489.5 701.5,-470.5 594.5,-470.5"/>
<text text-anchor="middle" x="648" y="-477.5" font-family="Helvetica,sans-Serif" font-size="10.00">utils/assertion.hpp</text>
</a>
</g>
</g>
<!-- Node2&#45;&gt;Node8 -->
<g id="edge63" class="edge">
<title>Node2&#45;&gt;Node8</title>
<path fill="none" stroke="midnightblue" d="M918.01,-582.37C866.23,-562.93 740.36,-515.67 680.57,-493.23"/>
<polygon fill="midnightblue" stroke="midnightblue" points="681.48,-489.83 670.88,-489.59 679.02,-496.38 681.48,-489.83"/>
</g>
<!-- Node40 -->
<g id="node40" class="node">
<title>Node40</title>
<g id="a_node40"><a xlink:href="types_8hpp.html" target="_top" xlink:title=" ">
<polygon fill="white" stroke="black" points="852.5,-347.5 852.5,-366.5 955.5,-366.5 955.5,-347.5 852.5,-347.5"/>
<text text-anchor="middle" x="904" y="-354.5" font-family="Helvetica,sans-Serif" font-size="10.00">precice/types.hpp</text>
</a>
</g>
</g>
<!-- Node2&#45;&gt;Node40 -->
<g id="edge62" class="edge">
<title>Node2&#45;&gt;Node40</title>
<path fill="none" stroke="midnightblue" d="M934.56,-582.22C928.57,-573.52 919.98,-559.55 916,-546 898.46,-486.23 900.38,-411.33 902.51,-376.9"/>
<polygon fill="midnightblue" stroke="midnightblue" points="906,-377.08 903.21,-366.86 899.02,-376.59 906,-377.08"/>
</g>
<!-- Node7&#45;&gt;Node3 -->
<g id="edge7" class="edge">
<title>Node7&#45;&gt;Node3</title>
<path fill="none" stroke="midnightblue" d="M1036.39,-526.42C1168.75,-503.99 1511,-443.63 1511,-419.5 1511,-419.5 1511,-419.5 1511,-182.5 1511,-125.71 1500.48,-105.11 1529,-56 1536.55,-43 1549.45,-32.43 1561.17,-24.81"/>
<polygon fill="midnightblue" stroke="midnightblue" points="1563.07,-27.75 1569.8,-19.56 1559.44,-21.77 1563.07,-27.75"/>
</g>
<!-- Node7&#45;&gt;Node8 -->
<g id="edge8" class="edge">
<title>Node7&#45;&gt;Node8</title>
<path fill="none" stroke="midnightblue" d="M931.6,-526.44C871.7,-516.85 774.63,-501.29 711.05,-491.1"/>
<polygon fill="midnightblue" stroke="midnightblue" points="711.58,-487.64 701.15,-489.52 710.47,-494.55 711.58,-487.64"/>
</g>
<!-- Node8&#45;&gt;Node5 -->
<g id="edge10" class="edge">
<title>Node8&#45;&gt;Node5</title>
<path fill="none" stroke="midnightblue" d="M594.32,-478.75C495.78,-477.38 279.8,-470.09 102,-434 98.12,-433.21 94.11,-432.19 90.15,-431.06"/>
<polygon fill="midnightblue" stroke="midnightblue" points="91.15,-427.7 80.56,-428.07 89.07,-434.38 91.15,-427.7"/>
</g>
<!-- Node9 -->
<g id="node9" class="node">
<title>Node9</title>
<g id="a_node9"><a xlink:title=" ">
<polygon fill="white" stroke="#bfbfbf" points="252.5,-409 252.5,-428 301.5,-428 301.5,-409 252.5,-409"/>
<text text-anchor="middle" x="277" y="-416" font-family="Helvetica,sans-Serif" font-size="10.00">cstdlib</text>
</a>
</g>
</g>
<!-- Node8&#45;&gt;Node9 -->
<g id="edge9" class="edge">
<title>Node8&#45;&gt;Node9</title>
<path fill="none" stroke="midnightblue" d="M594.38,-476.52C526.92,-472.34 408.05,-461.47 310,-434 307.85,-433.4 305.65,-432.68 303.47,-431.89"/>
<polygon fill="midnightblue" stroke="midnightblue" points="304.71,-428.62 294.13,-428.12 302.09,-435.11 304.71,-428.62"/>
</g>
<!-- Node10 -->
<g id="node10" class="node">
<title>Node10</title>
<g id="a_node10"><a xlink:title=" ">
<polygon fill="white" stroke="#bfbfbf" points="366.5,-112.5 366.5,-131.5 439.5,-131.5 439.5,-112.5 366.5,-112.5"/>
<text text-anchor="middle" x="403" y="-119.5" font-family="Helvetica,sans-Serif" font-size="10.00">string_view</text>
</a>
</g>
</g>
<!-- Node8&#45;&gt;Node10 -->
<g id="edge11" class="edge">
<title>Node8&#45;&gt;Node10</title>
<path fill="none" stroke="midnightblue" d="M594.41,-477.16C473.38,-472.56 186.61,-459.14 151,-434 120.62,-412.55 116,-395.19 116,-358 116,-358 116,-358 116,-244 116,-141.15 274.44,-124.34 355.88,-122.49"/>
<polygon fill="midnightblue" stroke="midnightblue" points="356.42,-125.98 366.36,-122.32 356.31,-118.98 356.42,-125.98"/>
</g>
<!-- Node11 -->
<g id="node11" class="node">
<title>Node11</title>
<g id="a_node11"><a xlink:href="fmt_8hpp.html" target="_top" xlink:title=" ">
<polygon fill="white" stroke="black" points="1103.5,-174 1103.5,-193 1182.5,-193 1182.5,-174 1103.5,-174"/>
<text text-anchor="middle" x="1143" y="-181" font-family="Helvetica,sans-Serif" font-size="10.00">utils/fmt.hpp</text>
</a>
</g>
</g>
<!-- Node8&#45;&gt;Node11 -->
<g id="edge12" class="edge">
<title>Node8&#45;&gt;Node11</title>
<path fill="none" stroke="midnightblue" d="M701.85,-472.7C750.05,-465.89 815.72,-453.35 833,-434 858.96,-404.93 825.83,-381.48 844,-347 878.93,-280.71 904.37,-271.15 970,-235 1020.64,-207.1 1039.55,-215.36 1095,-199 1098.31,-198.02 1101.76,-197 1105.2,-195.97"/>
<polygon fill="midnightblue" stroke="midnightblue" points="1106.27,-199.3 1114.84,-193.07 1104.26,-192.6 1106.27,-199.3"/>
</g>
<!-- Node24 -->
<g id="node24" class="node">
<title>Node24</title>
<g id="a_node24"><a xlink:title=" ">
<polygon fill="white" stroke="#bfbfbf" points="319.5,-409 319.5,-428 466.5,-428 466.5,-409 319.5,-409"/>
<text text-anchor="middle" x="393" y="-416" font-family="Helvetica,sans-Serif" font-size="10.00">boost/current_function.hpp</text>
</a>
</g>
</g>
<!-- Node8&#45;&gt;Node24 -->
<g id="edge31" class="edge">
<title>Node8&#45;&gt;Node24</title>
<path fill="none" stroke="midnightblue" d="M611.46,-470.48C566.11,-459.89 488.72,-441.84 439.27,-430.3"/>
<polygon fill="midnightblue" stroke="midnightblue" points="440,-426.87 429.47,-428.01 438.41,-433.69 440,-426.87"/>
</g>
<!-- Node25 -->
<g id="node25" class="node">
<title>Node25</title>
<g id="a_node25"><a xlink:title=" ">
<polygon fill="white" stroke="#bfbfbf" points="484.5,-403.5 484.5,-433.5 619.5,-433.5 619.5,-403.5 484.5,-403.5"/>
<text text-anchor="start" x="492.5" y="-421.5" font-family="Helvetica,sans-Serif" font-size="10.00">boost/preprocessor</text>
<text text-anchor="middle" x="552" y="-410.5" font-family="Helvetica,sans-Serif" font-size="10.00">/comparison/greater.hpp</text>
</a>
</g>
</g>
<!-- Node8&#45;&gt;Node25 -->
<g id="edge32" class="edge">
<title>Node8&#45;&gt;Node25</title>
<path fill="none" stroke="midnightblue" d="M634.25,-470.48C621,-462.27 600.5,-449.56 583.28,-438.88"/>
<polygon fill="midnightblue" stroke="midnightblue" points="584.97,-435.82 574.63,-433.52 581.28,-441.77 584.97,-435.82"/>
</g>
<!-- Node26 -->
<g id="node26" class="node">
<title>Node26</title>
<g id="a_node26"><a xlink:title=" ">
<polygon fill="white" stroke="#bfbfbf" points="431,-168.5 431,-198.5 541,-198.5 541,-168.5 431,-168.5"/>
<text text-anchor="start" x="439" y="-186.5" font-family="Helvetica,sans-Serif" font-size="10.00">boost/preprocessor</text>
<text text-anchor="middle" x="486" y="-175.5" font-family="Helvetica,sans-Serif" font-size="10.00">/control/if.hpp</text>
</a>
</g>
</g>
<!-- Node8&#45;&gt;Node26 -->
<g id="edge33" class="edge">
<title>Node8&#45;&gt;Node26</title>
<path fill="none" stroke="midnightblue" d="M594.26,-477.36C476.66,-473.28 204.41,-461 173,-434 146.6,-411.3 154,-392.82 154,-358 154,-358 154,-358 154,-300 154,-244.08 324.14,-209.03 420.83,-193.63"/>
<polygon fill="midnightblue" stroke="midnightblue" points="421.47,-197.07 430.8,-192.07 420.38,-190.16 421.47,-197.07"/>
</g>
<!-- Node27 -->
<g id="node27" class="node">
<title>Node27</title>
<g id="a_node27"><a xlink:title=" ">
<polygon fill="white" stroke="#bfbfbf" points="559,-168.5 559,-198.5 669,-198.5 669,-168.5 559,-168.5"/>
<text text-anchor="start" x="567" y="-186.5" font-family="Helvetica,sans-Serif" font-size="10.00">boost/preprocessor</text>
<text text-anchor="middle" x="614" y="-175.5" font-family="Helvetica,sans-Serif" font-size="10.00">/stringize.hpp</text>
</a>
</g>
</g>
<!-- Node8&#45;&gt;Node27 -->
<g id="edge34" class="edge">
<title>Node8&#45;&gt;Node27</title>
<path fill="none" stroke="midnightblue" d="M648,-470.49C648,-450.74 648,-400.22 648,-358 648,-358 648,-358 648,-300 648,-267.04 635.1,-230.87 625.2,-207.94"/>
<polygon fill="midnightblue" stroke="midnightblue" points="628.33,-206.38 621.04,-198.69 621.94,-209.25 628.33,-206.38"/>
</g>
<!-- Node28 -->
<g id="node28" class="node">
<title>Node28</title>
<g id="a_node28"><a xlink:title=" ">
<polygon fill="white" stroke="#bfbfbf" points="714,-403.5 714,-433.5 824,-433.5 824,-403.5 714,-403.5"/>
<text text-anchor="start" x="722" y="-421.5" font-family="Helvetica,sans-Serif" font-size="10.00">boost/preprocessor</text>
<text text-anchor="middle" x="769" y="-410.5" font-family="Helvetica,sans-Serif" font-size="10.00">/variadic/size.hpp</text>
</a>
</g>
</g>
<!-- Node8&#45;&gt;Node28 -->
<g id="edge35" class="edge">
<title>Node8&#45;&gt;Node28</title>
<path fill="none" stroke="midnightblue" d="M665.34,-470.48C682.49,-462.04 709.3,-448.86 731.36,-438.01"/>
<polygon fill="midnightblue" stroke="midnightblue" points="733.05,-441.08 740.48,-433.52 729.96,-434.79 733.05,-441.08"/>
</g>
<!-- Node29 -->
<g id="node29" class="node">
<title>Node29</title>
<g id="a_node29"><a xlink:href="ArgumentFormatter_8hpp.html" target="_top" xlink:title=" ">
<polygon fill="white" stroke="black" points="676.5,-235.5 676.5,-254.5 833.5,-254.5 833.5,-235.5 676.5,-235.5"/>
<text text-anchor="middle" x="755" y="-242.5" font-family="Helvetica,sans-Serif" font-size="10.00">utils/ArgumentFormatter.hpp</text>
</a>
</g>
</g>
<!-- Node8&#45;&gt;Node29 -->
<g id="edge36" class="edge">
<title>Node8&#45;&gt;Node29</title>
<path fill="none" stroke="midnightblue" d="M651.94,-470.43C667.5,-436.54 724.96,-311.42 746.64,-264.2"/>
<polygon fill="midnightblue" stroke="midnightblue" points="749.92,-265.44 750.91,-254.9 743.56,-262.52 749.92,-265.44"/>
</g>
<!-- Node33 -->
<g id="node33" class="node">
<title>Node33</title>
<g id="a_node33"><a xlink:href="Parallel_8hpp.html" target="_top" xlink:title=" ">
<polygon fill="white" stroke="black" points="1124,-409 1124,-428 1222,-428 1222,-409 1124,-409"/>
<text text-anchor="middle" x="1173" y="-416" font-family="Helvetica,sans-Serif" font-size="10.00">utils/Parallel.hpp</text>
</a>
</g>
</g>
<!-- Node8&#45;&gt;Node33 -->
<g id="edge43" class="edge">
<title>Node8&#45;&gt;Node33</title>
<path fill="none" stroke="midnightblue" d="M701.72,-472.91C800.63,-461.7 1010.86,-437.88 1113.76,-426.21"/>
<polygon fill="midnightblue" stroke="midnightblue" points="1114.43,-429.66 1123.98,-425.06 1113.64,-422.7 1114.43,-429.66"/>
</g>
<!-- Node42 -->
<g id="node42" class="node">
<title>Node42</title>
<g id="a_node42"><a xlink:href="stacktrace_8hpp.html" target="_top" xlink:title=" ">
<polygon fill="white" stroke="black" points="1369.5,-291.5 1369.5,-310.5 1482.5,-310.5 1482.5,-291.5 1369.5,-291.5"/>
<text text-anchor="middle" x="1426" y="-298.5" font-family="Helvetica,sans-Serif" font-size="10.00">utils/stacktrace.hpp</text>
</a>
</g>
</g>
<!-- Node8&#45;&gt;Node42 -->
<g id="edge59" class="edge">
<title>Node8&#45;&gt;Node42</title>
<path fill="none" stroke="midnightblue" d="M701.53,-476.88C825.84,-471.64 1131.04,-456.8 1231,-434 1310.99,-415.76 1345.91,-425.91 1403,-367 1415.09,-354.52 1420.87,-335.29 1423.6,-320.98"/>
<polygon fill="midnightblue" stroke="midnightblue" points="1427.11,-321.2 1425.2,-310.78 1420.19,-320.12 1427.11,-321.2"/>
</g>
<!-- Node43 -->
<g id="node43" class="node">
<title>Node43</title>
<g id="a_node43"><a xlink:title=" ">
<polygon fill="white" stroke="#bfbfbf" points="182,-409 182,-428 234,-428 234,-409 182,-409"/>
<text text-anchor="middle" x="208" y="-416" font-family="Helvetica,sans-Serif" font-size="10.00">cassert</text>
</a>
</g>
</g>
<!-- Node8&#45;&gt;Node43 -->
<g id="edge61" class="edge">
<title>Node8&#45;&gt;Node43</title>
<path fill="none" stroke="midnightblue" d="M594.39,-477.83C516.04,-475.05 366.16,-465.67 243,-434 240.49,-433.35 237.93,-432.57 235.38,-431.69"/>
<polygon fill="midnightblue" stroke="midnightblue" points="236.42,-428.34 225.83,-428.02 233.91,-434.88 236.42,-428.34"/>
</g>
<!-- Node11&#45;&gt;Node10 -->
<g id="edge14" class="edge">
<title>Node11&#45;&gt;Node10</title>
<path fill="none" stroke="midnightblue" d="M1118.35,-173.88C1110.93,-171.6 1102.71,-169.4 1095,-168 855.43,-124.62 562.54,-121.69 450.06,-122.38"/>
<polygon fill="midnightblue" stroke="midnightblue" points="449.72,-118.88 439.75,-122.46 449.77,-125.88 449.72,-118.88"/>
</g>
<!-- Node12 -->
<g id="node12" class="node">
<title>Node12</title>
<g id="a_node12"><a xlink:title=" ">
<polygon fill="white" stroke="#bfbfbf" points="1403,-112.5 1403,-131.5 1447,-131.5 1447,-112.5 1403,-112.5"/>
<text text-anchor="middle" x="1425" y="-119.5" font-family="Helvetica,sans-Serif" font-size="10.00">string</text>
</a>
</g>
</g>
<!-- Node11&#45;&gt;Node12 -->
<g id="edge13" class="edge">
<title>Node11&#45;&gt;Node12</title>
<path fill="none" stroke="midnightblue" d="M1182.79,-175.56C1230.54,-167 1313.19,-151.44 1392.99,-132.09"/>
<polygon fill="midnightblue" stroke="midnightblue" points="1393.83,-135.49 1402.71,-129.71 1392.16,-128.69 1393.83,-135.49"/>
</g>
<!-- Node13 -->
<g id="node13" class="node">
<title>Node13</title>
<g id="a_node13"><a xlink:title=" ">
<polygon fill="white" stroke="#bfbfbf" points="1207.5,-56.5 1207.5,-75.5 1286.5,-75.5 1286.5,-56.5 1207.5,-56.5"/>
<text text-anchor="middle" x="1247" y="-63.5" font-family="Helvetica,sans-Serif" font-size="10.00">fmt/format.h</text>
</a>
</g>
</g>
<!-- Node11&#45;&gt;Node13 -->
<g id="edge15" class="edge">
<title>Node11&#45;&gt;Node13</title>
<path fill="none" stroke="midnightblue" d="M1151.86,-173.74C1161.82,-163.8 1178.38,-147.03 1192,-132 1206.66,-115.83 1222.7,-96.69 1233.66,-83.38"/>
<polygon fill="midnightblue" stroke="midnightblue" points="1236.43,-85.53 1240.06,-75.57 1231.02,-81.09 1236.43,-85.53"/>
</g>
<!-- Node14 -->
<g id="node14" class="node">
<title>Node14</title>
<g id="a_node14"><a xlink:title=" ">
<polygon fill="white" stroke="#bfbfbf" points="1097,-112.5 1097,-131.5 1183,-131.5 1183,-112.5 1097,-112.5"/>
<text text-anchor="middle" x="1140" y="-119.5" font-family="Helvetica,sans-Serif" font-size="10.00">fmt/ostream.h</text>
</a>
</g>
</g>
<!-- Node11&#45;&gt;Node14 -->
<g id="edge16" class="edge">
<title>Node11&#45;&gt;Node14</title>
<path fill="none" stroke="midnightblue" d="M1142.57,-173.98C1142.15,-165.58 1141.49,-152.48 1140.94,-141.66"/>
<polygon fill="midnightblue" stroke="midnightblue" points="1144.43,-141.32 1140.43,-131.51 1137.44,-141.67 1144.43,-141.32"/>
</g>
<!-- Node15 -->
<g id="node15" class="node">
<title>Node15</title>
<g id="a_node15"><a xlink:href="fmtEigen_8hpp.html" target="_top" xlink:title=" ">
<polygon fill="white" stroke="black" points="1279,-112.5 1279,-131.5 1385,-131.5 1385,-112.5 1279,-112.5"/>
<text text-anchor="middle" x="1332" y="-119.5" font-family="Helvetica,sans-Serif" font-size="10.00">utils/fmtEigen.hpp</text>
</a>
</g>
</g>
<!-- Node11&#45;&gt;Node15 -->
<g id="edge17" class="edge">
<title>Node11&#45;&gt;Node15</title>
<path fill="none" stroke="midnightblue" d="M1170.08,-173.98C1202.92,-163.64 1258.43,-146.16 1295.15,-134.6"/>
<polygon fill="midnightblue" stroke="midnightblue" points="1296.48,-137.85 1304.97,-131.51 1294.38,-131.17 1296.48,-137.85"/>
</g>
<!-- Node19 -->
<g id="node19" class="node">
<title>Node19</title>
<g id="a_node19"><a xlink:href="fmtSTL_8hpp.html" target="_top" xlink:title=" ">
<polygon fill="white" stroke="black" points="983,-112.5 983,-131.5 1079,-131.5 1079,-112.5 983,-112.5"/>
<text text-anchor="middle" x="1031" y="-119.5" font-family="Helvetica,sans-Serif" font-size="10.00">utils/fmtSTL.hpp</text>
</a>
</g>
</g>
<!-- Node11&#45;&gt;Node19 -->
<g id="edge24" class="edge">
<title>Node11&#45;&gt;Node19</title>
<path fill="none" stroke="midnightblue" d="M1126.95,-173.98C1108.41,-164.12 1077.66,-147.79 1055.98,-136.27"/>
<polygon fill="midnightblue" stroke="midnightblue" points="1057.49,-133.11 1047.02,-131.51 1054.21,-139.29 1057.49,-133.11"/>
</g>
<!-- Node15&#45;&gt;Node3 -->
<g id="edge18" class="edge">
<title>Node15&#45;&gt;Node3</title>
<path fill="none" stroke="midnightblue" d="M1356.4,-112.46C1380.62,-103.81 1418.7,-89.8 1451,-76 1471.92,-67.06 1527.14,-40.29 1560.43,-24.03"/>
<polygon fill="midnightblue" stroke="midnightblue" points="1562.15,-27.08 1569.59,-19.54 1559.07,-20.79 1562.15,-27.08"/>
</g>
<!-- Node15&#45;&gt;Node13 -->
<g id="edge20" class="edge">
<title>Node15&#45;&gt;Node13</title>
<path fill="none" stroke="midnightblue" d="M1318.34,-112.32C1305.08,-103.9 1284.73,-90.97 1269.15,-81.07"/>
<polygon fill="midnightblue" stroke="midnightblue" points="1270.94,-78.06 1260.62,-75.65 1267.19,-83.97 1270.94,-78.06"/>
</g>
<!-- Node16 -->
<g id="node16" class="node">
<title>Node16</title>
<g id="a_node16"><a xlink:title=" ">
<polygon fill="white" stroke="#bfbfbf" points="1378,-56.5 1378,-75.5 1442,-75.5 1442,-56.5 1378,-56.5"/>
<text text-anchor="middle" x="1410" y="-63.5" font-family="Helvetica,sans-Serif" font-size="10.00">algorithm</text>
</a>
</g>
</g>
<!-- Node15&#45;&gt;Node16 -->
<g id="edge19" class="edge">
<title>Node15&#45;&gt;Node16</title>
<path fill="none" stroke="midnightblue" d="M1344.53,-112.32C1356.59,-103.98 1375.03,-91.21 1389.27,-81.35"/>
<polygon fill="midnightblue" stroke="midnightblue" points="1391.27,-84.22 1397.5,-75.65 1387.28,-78.47 1391.27,-84.22"/>
</g>
<!-- Node17 -->
<g id="node17" class="node">
<title>Node17</title>
<g id="a_node17"><a xlink:title=" ">
<polygon fill="white" stroke="#bfbfbf" points="1304,-56.5 1304,-75.5 1360,-75.5 1360,-56.5 1304,-56.5"/>
<text text-anchor="middle" x="1332" y="-63.5" font-family="Helvetica,sans-Serif" font-size="10.00">sstream</text>
</a>
</g>
</g>
<!-- Node15&#45;&gt;Node17 -->
<g id="edge21" class="edge">
<title>Node15&#45;&gt;Node17</title>
<path fill="none" stroke="midnightblue" d="M1332,-112.08C1332,-105.01 1332,-94.86 1332,-85.99"/>
<polygon fill="midnightblue" stroke="midnightblue" points="1335.5,-85.75 1332,-75.75 1328.5,-85.75 1335.5,-85.75"/>
</g>
<!-- Node15&#45;&gt;Node18 -->
<g id="edge22" class="edge">
<title>Node15&#45;&gt;Node18</title>
<path fill="none" stroke="midnightblue" d="M1372.41,-112.44C1416.98,-103 1488.77,-87.8 1536.89,-77.61"/>
<polygon fill="midnightblue" stroke="midnightblue" points="1537.73,-81.01 1546.78,-75.52 1536.28,-74.16 1537.73,-81.01"/>
</g>
<!-- Node18&#45;&gt;Node3 -->
<g id="edge23" class="edge">
<title>Node18&#45;&gt;Node3</title>
<path fill="none" stroke="midnightblue" d="M1587,-56.08C1587,-49.01 1587,-38.86 1587,-29.99"/>
<polygon fill="midnightblue" stroke="midnightblue" points="1590.5,-29.75 1587,-19.75 1583.5,-29.75 1590.5,-29.75"/>
</g>
<!-- Node19&#45;&gt;Node4 -->
<g id="edge25" class="edge">
<title>Node19&#45;&gt;Node4</title>
<path fill="none" stroke="midnightblue" d="M982.8,-116.49C867.92,-105.74 580.47,-78.84 485.21,-69.92"/>
<polygon fill="midnightblue" stroke="midnightblue" points="485.36,-66.42 475.08,-68.97 484.71,-73.39 485.36,-66.42"/>
</g>
<!-- Node19&#45;&gt;Node13 -->
<g id="edge27" class="edge">
<title>Node19&#45;&gt;Node13</title>
<path fill="none" stroke="midnightblue" d="M1065.23,-112.44C1102.51,-103.12 1162.27,-88.18 1203.01,-78"/>
<polygon fill="midnightblue" stroke="midnightblue" points="1204.08,-81.34 1212.93,-75.52 1202.38,-74.55 1204.08,-81.34"/>
</g>
<!-- Node20 -->
<g id="node20" class="node">
<title>Node20</title>
<g id="a_node20"><a xlink:title=" ">
<polygon fill="white" stroke="#bfbfbf" points="946.5,-56.5 946.5,-75.5 993.5,-75.5 993.5,-56.5 946.5,-56.5"/>
<text text-anchor="middle" x="970" y="-63.5" font-family="Helvetica,sans-Serif" font-size="10.00">deque</text>
</a>
</g>
</g>
<!-- Node19&#45;&gt;Node20 -->
<g id="edge26" class="edge">
<title>Node19&#45;&gt;Node20</title>
<path fill="none" stroke="midnightblue" d="M1021.2,-112.32C1012.18,-104.34 998.59,-92.31 987.68,-82.65"/>
<polygon fill="midnightblue" stroke="midnightblue" points="989.79,-79.84 979.98,-75.83 985.15,-85.08 989.79,-79.84"/>
</g>
<!-- Node21 -->
<g id="node21" class="node">
<title>Node21</title>
<g id="a_node21"><a xlink:title=" ">
<polygon fill="white" stroke="#bfbfbf" points="1012,-56.5 1012,-75.5 1050,-75.5 1050,-56.5 1012,-56.5"/>
<text text-anchor="middle" x="1031" y="-63.5" font-family="Helvetica,sans-Serif" font-size="10.00">map</text>
</a>
</g>
</g>
<!-- Node19&#45;&gt;Node21 -->
<g id="edge28" class="edge">
<title>Node19&#45;&gt;Node21</title>
<path fill="none" stroke="midnightblue" d="M1031,-112.08C1031,-105.01 1031,-94.86 1031,-85.99"/>
<polygon fill="midnightblue" stroke="midnightblue" points="1034.5,-85.75 1031,-75.75 1027.5,-85.75 1034.5,-85.75"/>
</g>
<!-- Node22 -->
<g id="node22" class="node">
<title>Node22</title>
<g id="a_node22"><a xlink:title=" ">
<polygon fill="white" stroke="#bfbfbf" points="1068,-56.5 1068,-75.5 1100,-75.5 1100,-56.5 1068,-56.5"/>
<text text-anchor="middle" x="1084" y="-63.5" font-family="Helvetica,sans-Serif" font-size="10.00">set</text>
</a>
</g>
</g>
<!-- Node19&#45;&gt;Node22 -->
<g id="edge29" class="edge">
<title>Node19&#45;&gt;Node22</title>
<path fill="none" stroke="midnightblue" d="M1039.75,-112.08C1047.47,-104.22 1058.9,-92.57 1068.22,-83.08"/>
<polygon fill="midnightblue" stroke="midnightblue" points="1070.9,-85.34 1075.41,-75.75 1065.91,-80.44 1070.9,-85.34"/>
</g>
<!-- Node23 -->
<g id="node23" class="node">
<title>Node23</title>
<g id="a_node23"><a xlink:title=" ">
<polygon fill="white" stroke="#bfbfbf" points="1131.5,-56.5 1131.5,-75.5 1178.5,-75.5 1178.5,-56.5 1131.5,-56.5"/>
<text text-anchor="middle" x="1155" y="-63.5" font-family="Helvetica,sans-Serif" font-size="10.00">vector</text>
</a>
</g>
</g>
<!-- Node19&#45;&gt;Node23 -->
<g id="edge30" class="edge">
<title>Node19&#45;&gt;Node23</title>
<path fill="none" stroke="midnightblue" d="M1050.65,-112.44C1070.96,-103.6 1102.9,-89.69 1126.1,-79.59"/>
<polygon fill="midnightblue" stroke="midnightblue" points="1127.67,-82.72 1135.44,-75.52 1124.88,-76.3 1127.67,-82.72"/>
</g>
<!-- Node29&#45;&gt;Node11 -->
<g id="edge42" class="edge">
<title>Node29&#45;&gt;Node11</title>
<path fill="none" stroke="midnightblue" d="M830.2,-235.49C914.57,-225.68 1046.04,-209.56 1095,-199 1099.16,-198.1 1103.49,-197.02 1107.76,-195.85"/>
<polygon fill="midnightblue" stroke="midnightblue" points="1108.91,-199.16 1117.54,-193.03 1106.96,-192.44 1108.91,-199.16"/>
</g>
<!-- Node29&#45;&gt;Node26 -->
<g id="edge37" class="edge">
<title>Node29&#45;&gt;Node26</title>
<path fill="none" stroke="midnightblue" d="M715.68,-235.45C676.5,-226.91 614.33,-213.32 551.28,-199.28"/>
<polygon fill="midnightblue" stroke="midnightblue" points="551.67,-195.78 541.15,-197.02 550.15,-202.61 551.67,-195.78"/>
</g>
<!-- Node29&#45;&gt;Node27 -->
<g id="edge39" class="edge">
<title>Node29&#45;&gt;Node27</title>
<path fill="none" stroke="midnightblue" d="M734.8,-235.48C714.45,-226.89 682.44,-213.38 656.49,-202.43"/>
<polygon fill="midnightblue" stroke="midnightblue" points="657.8,-199.19 647.23,-198.52 655.08,-205.64 657.8,-199.19"/>
</g>
<!-- Node30 -->
<g id="node30" class="node">
<title>Node30</title>
<g id="a_node30"><a xlink:title=" ">
<polygon fill="white" stroke="#bfbfbf" points="841.5,-168.5 841.5,-198.5 952.5,-198.5 952.5,-168.5 841.5,-168.5"/>
<text text-anchor="start" x="849.5" y="-186.5" font-family="Helvetica,sans-Serif" font-size="10.00">boost/preprocessor</text>
<text text-anchor="middle" x="897" y="-175.5" font-family="Helvetica,sans-Serif" font-size="10.00">/seq/for_each_i.hpp</text>
</a>
</g>
</g>
<!-- Node29&#45;&gt;Node30 -->
<g id="edge38" class="edge">
<title>Node29&#45;&gt;Node30</title>
<path fill="none" stroke="midnightblue" d="M775.35,-235.48C795.84,-226.89 828.07,-213.38 854.21,-202.43"/>
<polygon fill="midnightblue" stroke="midnightblue" points="855.66,-205.62 863.53,-198.52 852.96,-199.16 855.66,-205.62"/>
</g>
<!-- Node31 -->
<g id="node31" class="node">
<title>Node31</title>
<g id="a_node31"><a xlink:title=" ">
<polygon fill="white" stroke="#bfbfbf" points="970.5,-168.5 970.5,-198.5 1085.5,-198.5 1085.5,-168.5 970.5,-168.5"/>
<text text-anchor="start" x="978.5" y="-186.5" font-family="Helvetica,sans-Serif" font-size="10.00">boost/preprocessor</text>
<text text-anchor="middle" x="1028" y="-175.5" font-family="Helvetica,sans-Serif" font-size="10.00">/variadic/to_seq.hpp</text>
</a>
</g>
</g>
<!-- Node29&#45;&gt;Node31 -->
<g id="edge40" class="edge">
<title>Node29&#45;&gt;Node31</title>
<path fill="none" stroke="midnightblue" d="M794.3,-235.48C833.91,-226.89 897.07,-213.18 960.62,-199.3"/>
<polygon fill="midnightblue" stroke="midnightblue" points="961.39,-202.71 970.41,-197.16 959.89,-195.88 961.39,-202.71"/>
</g>
<!-- Node32 -->
<g id="node32" class="node">
<title>Node32</title>
<g id="a_node32"><a xlink:title=" ">
<polygon fill="white" stroke="#bfbfbf" points="687,-174 687,-193 823,-193 823,-174 687,-174"/>
<text text-anchor="middle" x="755" y="-181" font-family="Helvetica,sans-Serif" font-size="10.00">boost/vmd/is_empty.hpp</text>
</a>
</g>
</g>
<!-- Node29&#45;&gt;Node32 -->
<g id="edge41" class="edge">
<title>Node29&#45;&gt;Node32</title>
<path fill="none" stroke="midnightblue" d="M755,-235.48C755,-227.08 755,-213.98 755,-203.16"/>
<polygon fill="midnightblue" stroke="midnightblue" points="758.5,-203.01 755,-193.01 751.5,-203.01 758.5,-203.01"/>
</g>
<!-- Node33&#45;&gt;Node12 -->
<g id="edge47" class="edge">
<title>Node33&#45;&gt;Node12</title>
<path fill="none" stroke="midnightblue" d="M1204.39,-408.98C1211.8,-407 1219.67,-404.91 1227,-403 1290.43,-386.5 1329.71,-418.69 1370,-367 1375.46,-359.99 1371.09,-355.82 1370,-347 1366.92,-321.98 1356.44,-315.79 1361,-291 1371.51,-233.89 1400.55,-171.05 1415.63,-140.98"/>
<polygon fill="midnightblue" stroke="midnightblue" points="1418.9,-142.27 1420.33,-131.77 1412.67,-139.09 1418.9,-142.27"/>
</g>
<!-- Node33&#45;&gt;Node23 -->
<g id="edge48" class="edge">
<title>Node33&#45;&gt;Node23</title>
<path fill="none" stroke="midnightblue" d="M1177.97,-408.84C1188.27,-390.03 1211,-343.8 1211,-302 1211,-302 1211,-302 1211,-182.5 1211,-150.05 1206.86,-140.85 1192,-112 1186.58,-101.48 1178.39,-91.18 1171.09,-83.09"/>
<polygon fill="midnightblue" stroke="midnightblue" points="1173.63,-80.68 1164.22,-75.81 1168.54,-85.49 1173.63,-80.68"/>
</g>
<!-- Node34 -->
<g id="node34" class="node">
<title>Node34</title>
<g id="a_node34"><a xlink:title=" ">
<polygon fill="white" stroke="#bfbfbf" points="1239,-347.5 1239,-366.5 1287,-366.5 1287,-347.5 1239,-347.5"/>
<text text-anchor="middle" x="1263" y="-354.5" font-family="Helvetica,sans-Serif" font-size="10.00">iosfwd</text>
</a>
</g>
</g>
<!-- Node33&#45;&gt;Node34 -->
<g id="edge44" class="edge">
<title>Node33&#45;&gt;Node34</title>
<path fill="none" stroke="midnightblue" d="M1185.89,-408.98C1200.46,-399.34 1224.4,-383.52 1241.75,-372.05"/>
<polygon fill="midnightblue" stroke="midnightblue" points="1243.72,-374.94 1250.13,-366.51 1239.86,-369.1 1243.72,-374.94"/>
</g>
<!-- Node35 -->
<g id="node35" class="node">
<title>Node35</title>
<g id="a_node35"><a xlink:title=" ">
<polygon fill="white" stroke="#bfbfbf" points="1091,-291.5 1091,-310.5 1149,-310.5 1149,-291.5 1091,-291.5"/>
<text text-anchor="middle" x="1120" y="-298.5" font-family="Helvetica,sans-Serif" font-size="10.00">memory</text>
</a>
</g>
</g>
<!-- Node33&#45;&gt;Node35 -->
<g id="edge45" class="edge">
<title>Node33&#45;&gt;Node35</title>
<path fill="none" stroke="midnightblue" d="M1171.77,-408.88C1169.58,-395.2 1164.25,-367.95 1154,-347 1148.95,-336.69 1141.39,-326.38 1134.69,-318.24"/>
<polygon fill="midnightblue" stroke="midnightblue" points="1137.32,-315.93 1128.14,-310.63 1132.01,-320.49 1137.32,-315.93"/>
</g>
<!-- Node36 -->
<g id="node36" class="node">
<title>Node36</title>
<g id="a_node36"><a xlink:title=" ">
<polygon fill="white" stroke="#bfbfbf" points="1305,-347.5 1305,-366.5 1361,-366.5 1361,-347.5 1305,-347.5"/>
<text text-anchor="middle" x="1333" y="-354.5" font-family="Helvetica,sans-Serif" font-size="10.00">optional</text>
</a>
</g>
</g>
<!-- Node33&#45;&gt;Node36 -->
<g id="edge46" class="edge">
<title>Node33&#45;&gt;Node36</title>
<path fill="none" stroke="midnightblue" d="M1195.92,-408.98C1223.37,-398.77 1269.52,-381.61 1300.6,-370.05"/>
<polygon fill="midnightblue" stroke="midnightblue" points="1301.97,-373.28 1310.12,-366.51 1299.53,-366.71 1301.97,-373.28"/>
</g>
<!-- Node37 -->
<g id="node37" class="node">
<title>Node37</title>
<g id="a_node37"><a xlink:href="Logger_8hpp.html" target="_top" xlink:title=" ">
<polygon fill="white" stroke="black" points="973.5,-347.5 973.5,-366.5 1082.5,-366.5 1082.5,-347.5 973.5,-347.5"/>
<text text-anchor="middle" x="1028" y="-354.5" font-family="Helvetica,sans-Serif" font-size="10.00">logging/Logger.hpp</text>
</a>
</g>
</g>
<!-- Node33&#45;&gt;Node37 -->
<g id="edge49" class="edge">
<title>Node33&#45;&gt;Node37</title>
<path fill="none" stroke="midnightblue" d="M1152.23,-408.98C1127.57,-398.86 1086.25,-381.9 1058.1,-370.35"/>
<polygon fill="midnightblue" stroke="midnightblue" points="1059.32,-367.07 1048.74,-366.51 1056.66,-373.54 1059.32,-367.07"/>
</g>
<!-- Node33&#45;&gt;Node40 -->
<g id="edge57" class="edge">
<title>Node33&#45;&gt;Node40</title>
<path fill="none" stroke="midnightblue" d="M1134.46,-408.98C1086.52,-398.37 1004.64,-380.26 952.49,-368.72"/>
<polygon fill="midnightblue" stroke="midnightblue" points="952.99,-365.25 942.47,-366.51 951.48,-372.09 952.99,-365.25"/>
</g>
<!-- Node41 -->
<g id="node41" class="node">
<title>Node41</title>
<g id="a_node41"><a xlink:title=" ">
<polygon fill="white" stroke="#bfbfbf" points="1101,-347.5 1101,-366.5 1145,-366.5 1145,-347.5 1101,-347.5"/>
<text text-anchor="middle" x="1123" y="-354.5" font-family="Helvetica,sans-Serif" font-size="10.00">mpi.h</text>
</a>
</g>
</g>
<!-- Node33&#45;&gt;Node41 -->
<g id="edge58" class="edge">
<title>Node33&#45;&gt;Node41</title>
<path fill="none" stroke="midnightblue" d="M1165.84,-408.98C1158.26,-399.96 1146.13,-385.52 1136.71,-374.31"/>
<polygon fill="midnightblue" stroke="midnightblue" points="1139.26,-371.91 1130.15,-366.51 1133.9,-376.42 1139.26,-371.91"/>
</g>
<!-- Node37&#45;&gt;Node10 -->
<g id="edge51" class="edge">
<title>Node37&#45;&gt;Node10</title>
<path fill="none" stroke="midnightblue" d="M984.98,-347.49C853.37,-321.11 462.65,-240 422,-199 407.14,-184.01 403.31,-159.27 402.61,-142.1"/>
<polygon fill="midnightblue" stroke="midnightblue" points="406.1,-141.61 402.52,-131.64 399.1,-141.67 406.1,-141.61"/>
</g>
<!-- Node37&#45;&gt;Node35 -->
<g id="edge50" class="edge">
<title>Node37&#45;&gt;Node35</title>
<path fill="none" stroke="midnightblue" d="M1042.78,-347.32C1057.27,-338.82 1079.57,-325.73 1096.49,-315.8"/>
<polygon fill="midnightblue" stroke="midnightblue" points="1098.4,-318.74 1105.26,-310.65 1094.86,-312.7 1098.4,-318.74"/>
</g>
<!-- Node38 -->
<g id="node38" class="node">
<title>Node38</title>
<g id="a_node38"><a xlink:href="LogMacros_8hpp.html" target="_top" xlink:title=" ">
<polygon fill="white" stroke="black" points="923,-291.5 923,-310.5 1013,-310.5 1013,-291.5 923,-291.5"/>
<text text-anchor="middle" x="968" y="-298.5" font-family="Helvetica,sans-Serif" font-size="10.00">LogMacros.hpp</text>
</a>
</g>
</g>
<!-- Node37&#45;&gt;Node38 -->
<g id="edge52" class="edge">
<title>Node37&#45;&gt;Node38</title>
<path fill="none" stroke="midnightblue" d="M1018.36,-347.32C1009.49,-339.34 996.13,-327.31 985.39,-317.65"/>
<polygon fill="midnightblue" stroke="midnightblue" points="987.59,-314.92 977.82,-310.83 982.91,-320.13 987.59,-314.92"/>
</g>
<!-- Node38&#45;&gt;Node11 -->
<g id="edge53" class="edge">
<title>Node38&#45;&gt;Node11</title>
<path fill="none" stroke="midnightblue" d="M967.93,-291.16C968.31,-277.32 971.08,-250.54 986,-235 988.16,-232.75 1060.09,-210.17 1105.83,-195.98"/>
<polygon fill="midnightblue" stroke="midnightblue" points="1106.92,-199.31 1115.44,-193 1104.85,-192.62 1106.92,-199.31"/>
</g>
<!-- Node38&#45;&gt;Node29 -->
<g id="edge54" class="edge">
<title>Node38&#45;&gt;Node29</title>
<path fill="none" stroke="midnightblue" d="M934.25,-291.44C897.48,-282.12 838.55,-267.18 798.38,-257"/>
<polygon fill="midnightblue" stroke="midnightblue" points="799.15,-253.58 788.59,-254.52 797.43,-260.37 799.15,-253.58"/>
</g>
<!-- Node39 -->
<g id="node39" class="node">
<title>Node39</title>
<g id="a_node39"><a xlink:href="Tracer_8hpp.html" target="_top" xlink:title=" ">
<polygon fill="white" stroke="black" points="994.5,-235.5 994.5,-254.5 1099.5,-254.5 1099.5,-235.5 994.5,-235.5"/>
<text text-anchor="middle" x="1047" y="-242.5" font-family="Helvetica,sans-Serif" font-size="10.00">logging/Tracer.hpp</text>
</a>
</g>
</g>
<!-- Node38&#45;&gt;Node39 -->
<g id="edge55" class="edge">
<title>Node38&#45;&gt;Node39</title>
<path fill="none" stroke="midnightblue" d="M980.69,-291.32C992.9,-282.98 1011.58,-270.21 1026,-260.35"/>
<polygon fill="midnightblue" stroke="midnightblue" points="1028.06,-263.19 1034.34,-254.65 1024.11,-257.41 1028.06,-263.19"/>
</g>
<!-- Node39&#45;&gt;Node37 -->
<g id="edge56" class="edge">
<title>Node39&#45;&gt;Node37</title>
<path fill="none" stroke="midnightblue" d="M1045.52,-254.59C1042.46,-272.31 1035.38,-313.25 1031.22,-337.35"/>
<polygon fill="midnightblue" stroke="midnightblue" points="1027.74,-336.92 1029.49,-347.37 1034.64,-338.11 1027.74,-336.92"/>
</g>
<!-- Node42&#45;&gt;Node12 -->
<g id="edge60" class="edge">
<title>Node42&#45;&gt;Node12</title>
<path fill="none" stroke="midnightblue" d="M1425.95,-291.46C1425.8,-264.43 1425.32,-180.24 1425.11,-142.11"/>
<polygon fill="midnightblue" stroke="midnightblue" points="1428.61,-141.85 1425.05,-131.87 1421.61,-141.89 1428.61,-141.85"/>
</g>
</g>
</svg>
        <g id="navigator" transform="translate(0 0)" fill="#404254">
                <rect fill="#f2f5e9" fill-opacity="0.5" stroke="#606060" stroke-width=".5" x="0" y="0" width="60" height="60"/>
                <use id="zoomplus" xlink:href="#zoomPlus" x="17" y="9" onmousedown="handleZoom(evt,'in')"/>
                <use id="zoomminus" xlink:href="#zoomMin" x="42" y="9" onmousedown="handleZoom(evt,'out')"/>
                <use id="reset" xlink:href="#resetDef" x="30" y="36" onmousedown="handleReset()"/>
                <g id="arrowUp" xlink:href="#dirArrow" transform="translate(30 24)" onmousedown="handlePan(0,-1)">
                  <use xlink:href="#rim" fill="#404040">
                        <set attributeName="fill" to="#808080" begin="arrowUp.mouseover" end="arrowUp.mouseout"/>
                  </use>
                  <path fill="none" stroke="white" stroke-width="1.5" d="M0,-3.0v7 M-2.5,-0.5L0,-3.0L2.5,-0.5"/>
                </g>
                <g id="arrowRight" xlink:href="#dirArrow" transform="rotate(90) translate(36 -43)" onmousedown="handlePan(1,0)">
                  <use xlink:href="#rim" fill="#404040">
                        <set attributeName="fill" to="#808080" begin="arrowRight.mouseover" end="arrowRight.mouseout"/>
                  </use>
                  <path fill="none" stroke="white" stroke-width="1.5" d="M0,-3.0v7 M-2.5,-0.5L0,-3.0L2.5,-0.5"/>
                </g>
                <g id="arrowDown" xlink:href="#dirArrow" transform="rotate(180) translate(-30 -48)" onmousedown="handlePan(0,1)">
                  <use xlink:href="#rim" fill="#404040">
                        <set attributeName="fill" to="#808080" begin="arrowDown.mouseover" end="arrowDown.mouseout"/>
                  </use>
                  <path fill="none" stroke="white" stroke-width="1.5" d="M0,-3.0v7 M-2.5,-0.5L0,-3.0L2.5,-0.5"/>
                </g>
                <g id="arrowLeft" xlink:href="#dirArrow" transform="rotate(270) translate(-36 17)" onmousedown="handlePan(-1,0)">
                  <use xlink:href="#rim" fill="#404040">
                        <set attributeName="fill" to="#808080" begin="arrowLeft.mouseover" end="arrowLeft.mouseout"/>
                  </use>
                  <path fill="none" stroke="white" stroke-width="1.5" d="M0,-3.0v7 M-2.5,-0.5L0,-3.0L2.5,-0.5"/>
                </g>
        </g>
        <svg viewBox="0 0 15 15" width="100%" height="30px" preserveAspectRatio="xMaxYMin meet">
         <g id="arrow_out" transform="scale(0.3 0.3)">
          <a xlink:href="Vertex_8cpp__incl_org.svg" target="_base">
           <rect id="button" ry="5" rx="5" y="6" x="6" height="38" width="38"
                fill="#f2f5e9" fill-opacity="0.5" stroke="#606060" stroke-width="1.0"/>
           <path id="arrow"
             d="M 11.500037,31.436501 C 11.940474,20.09759 22.043105,11.32322 32.158766,21.979434 L 37.068811,17.246167 C 37.068811,17.246167 37.088388,32 37.088388,32 L 22.160133,31.978069 C 22.160133,31.978069 26.997745,27.140456 26.997745,27.140456 C 18.528582,18.264221 13.291696,25.230495 11.500037,31.436501 z"
             style="fill:#404040;"/>
          </a>
         </g>
        </svg>
</svg>
