<?xml version="1.0" encoding="UTF-8" standalone="no"?>
<!DOCTYPE svg PUBLIC "-//W3C//DTD SVG 1.1//EN"
 "http://www.w3.org/Graphics/SVG/1.1/DTD/svg11.dtd">
<!-- Generated by graphviz version 2.43.0 (0)
 -->
<!-- Title: src/mesh/Vertex.hpp Pages: 1 -->
<!--zoomable 610 -->
<svg id="main" version="1.1" xmlns="http://www.w3.org/2000/svg" xmlns:xlink="http://www.w3.org/1999/xlink" xml:space="preserve" onload="init(evt)">
<style type="text/css"><![CDATA[
.edge:hover path { stroke: red; }
.edge:hover polygon { stroke: red; fill: red; }
]]></style>
<script type="text/javascript"><![CDATA[
var edges = document.getElementsByTagName('g');
if (edges && edges.length) {
  for (var i=0;i<edges.length;i++) {
    if (edges[i].id.substr(0,4)=='edge') {
      edges[i].setAttribute('class','edge');
    }
  }
}
]]></script>
        <defs>
                <circle id="rim" cx="0" cy="0" r="7"/>
                <circle id="rim2" cx="0" cy="0" r="3.5"/>
                <g id="zoomPlus">
                        <use xlink:href="#rim" fill="#404040">
                                <set attributeName="fill" to="#808080" begin="zoomplus.mouseover" end="zoomplus.mouseout"/>
                        </use>
                        <path d="M-4,0h8M0,-4v8" fill="none" stroke="white" stroke-width="1.5" pointer-events="none"/>
                </g>
                <g id="zoomMin">
                        <use xlink:href="#rim" fill="#404040">
                                <set attributeName="fill" to="#808080" begin="zoomminus.mouseover" end="zoomminus.mouseout"/>
                        </use>
                        <path d="M-4,0h8" fill="none" stroke="white" stroke-width="1.5" pointer-events="none"/>
                </g>
                <g id="dirArrow">
                        <path fill="none" stroke="white" stroke-width="1.5" d="M0,-3.0v7 M-2.5,-0.5L0,-3.0L2.5,-0.5"/>
                </g>
               <g id="resetDef">
                       <use xlink:href="#rim2" fill="#404040">
                               <set attributeName="fill" to="#808080" begin="reset.mouseover" end="reset.mouseout"/>
                       </use>
               </g>
        </defs>

<script type="text/javascript">
var viewWidth = 1364;
var viewHeight = 610;
var sectionId = 'dynsection-0';
</script>
<script xlink:href="svgpan.js"/>
<svg id="graph" class="graph">
<g id="viewport">
<title>src/mesh/Vertex.hpp</title>
<polygon fill="white" stroke="transparent" points="-4,4 -4,-606 1359.5,-606 1359.5,4 -4,4"/>
<!-- Node1 -->
<g id="node1" class="node">
<title>Node1</title>
<g id="a_node1"><a xlink:title=" ">
<polygon fill="#bfbfbf" stroke="black" points="531,-582.5 531,-601.5 647,-601.5 647,-582.5 531,-582.5"/>
<text text-anchor="middle" x="589" y="-589.5" font-family="Helvetica,sans-Serif" font-size="10.00">src/mesh/Vertex.hpp</text>
</a>
</g>
</g>
<!-- Node2 -->
<g id="node2" class="node">
<title>Node2</title>
<g id="a_node2"><a xlink:title=" ">
<polygon fill="white" stroke="#bfbfbf" points="145.5,-0.5 145.5,-19.5 214.5,-19.5 214.5,-0.5 145.5,-0.5"/>
<text text-anchor="middle" x="180" y="-7.5" font-family="Helvetica,sans-Serif" font-size="10.00">Eigen/Core</text>
</a>
</g>
</g>
<!-- Node1&#45;&gt;Node2 -->
<g id="edge1" class="edge">
<title>Node1&#45;&gt;Node2</title>
<path fill="none" stroke="midnightblue" d="M530.91,-586.23C382.32,-573.25 0,-534.64 0,-481 0,-481 0,-481 0,-121 0,-57.69 82.07,-29.73 135.38,-18.24"/>
<polygon fill="midnightblue" stroke="midnightblue" points="136.19,-21.64 145.29,-16.22 134.8,-14.78 136.19,-21.64"/>
</g>
<!-- Node3 -->
<g id="node3" class="node">
<title>Node3</title>
<g id="a_node3"><a xlink:title=" ">
<polygon fill="white" stroke="#bfbfbf" points="1153,-56.5 1153,-75.5 1195,-75.5 1195,-56.5 1153,-56.5"/>
<text text-anchor="middle" x="1174" y="-63.5" font-family="Helvetica,sans-Serif" font-size="10.00">array</text>
</a>
</g>
</g>
<!-- Node1&#45;&gt;Node3 -->
<g id="edge2" class="edge">
<title>Node1&#45;&gt;Node3</title>
<path fill="none" stroke="midnightblue" d="M647.19,-587.87C814,-578.12 1282,-545.07 1282,-481 1282,-481 1282,-481 1282,-182.5 1282,-135.03 1232.72,-98.99 1200.74,-80.6"/>
<polygon fill="midnightblue" stroke="midnightblue" points="1202.28,-77.45 1191.83,-75.67 1198.89,-83.57 1202.28,-77.45"/>
</g>
<!-- Node4 -->
<g id="node4" class="node">
<title>Node4</title>
<g id="a_node4"><a xlink:title=" ">
<polygon fill="white" stroke="#bfbfbf" points="77,-409 77,-428 137,-428 137,-409 77,-409"/>
<text text-anchor="middle" x="107" y="-416" font-family="Helvetica,sans-Serif" font-size="10.00">iostream</text>
</a>
</g>
</g>
<!-- Node1&#45;&gt;Node4 -->
<g id="edge3" class="edge">
<title>Node1&#45;&gt;Node4</title>
<path fill="none" stroke="midnightblue" d="M555.95,-582.48C523.99,-574.01 474.32,-560.27 432,-546 321.59,-508.78 193.52,-456.03 136.73,-432.14"/>
<polygon fill="midnightblue" stroke="midnightblue" points="137.87,-428.82 127.29,-428.15 135.15,-435.27 137.87,-428.82"/>
</g>
<!-- Node5 -->
<g id="node5" class="node">
<title>Node5</title>
<g id="a_node5"><a xlink:title=" ">
<polygon fill="white" stroke="#bfbfbf" points="1310.5,-526.5 1310.5,-545.5 1355.5,-545.5 1355.5,-526.5 1310.5,-526.5"/>
<text text-anchor="middle" x="1333" y="-533.5" font-family="Helvetica,sans-Serif" font-size="10.00">utility</text>
</a>
</g>
</g>
<!-- Node1&#45;&gt;Node5 -->
<g id="edge4" class="edge">
<title>Node1&#45;&gt;Node5</title>
<path fill="none" stroke="midnightblue" d="M647.1,-590.73C768.39,-589.42 1057.07,-582.38 1296,-546 1297.47,-545.78 1298.97,-545.52 1300.48,-545.24"/>
<polygon fill="midnightblue" stroke="midnightblue" points="1301.36,-548.64 1310.43,-543.15 1299.92,-541.79 1301.36,-548.64"/>
</g>
<!-- Node6 -->
<g id="node6" class="node">
<title>Node6</title>
<g id="a_node6"><a xlink:href="differences_8hpp.html" target="_top" xlink:title=" ">
<polygon fill="white" stroke="black" points="441,-526.5 441,-545.5 561,-545.5 561,-526.5 441,-526.5"/>
<text text-anchor="middle" x="501" y="-533.5" font-family="Helvetica,sans-Serif" font-size="10.00">math/differences.hpp</text>
</a>
</g>
</g>
<!-- Node1&#45;&gt;Node6 -->
<g id="edge5" class="edge">
<title>Node1&#45;&gt;Node6</title>
<path fill="none" stroke="midnightblue" d="M574.86,-582.32C561.13,-573.9 540.06,-560.97 523.94,-551.07"/>
<polygon fill="midnightblue" stroke="midnightblue" points="525.46,-547.9 515.1,-545.65 521.8,-553.87 525.46,-547.9"/>
</g>
<!-- Node7 -->
<g id="node7" class="node">
<title>Node7</title>
<g id="a_node7"><a xlink:href="assertion_8hpp.html" target="_top" xlink:title=" ">
<polygon fill="white" stroke="black" points="491.5,-470.5 491.5,-489.5 598.5,-489.5 598.5,-470.5 491.5,-470.5"/>
<text text-anchor="middle" x="545" y="-477.5" font-family="Helvetica,sans-Serif" font-size="10.00">utils/assertion.hpp</text>
</a>
</g>
</g>
<!-- Node1&#45;&gt;Node7 -->
<g id="edge62" class="edge">
<title>Node1&#45;&gt;Node7</title>
<path fill="none" stroke="midnightblue" d="M587.13,-582.38C584.24,-569.73 578.16,-545.53 570,-526 566.04,-516.52 560.59,-506.47 555.79,-498.29"/>
<polygon fill="midnightblue" stroke="midnightblue" points="558.75,-496.42 550.58,-489.67 552.76,-500.04 558.75,-496.42"/>
</g>
<!-- Node39 -->
<g id="node39" class="node">
<title>Node39</title>
<g id="a_node39"><a xlink:href="types_8hpp.html" target="_top" xlink:title=" ">
<polygon fill="white" stroke="black" points="1112.5,-347.5 1112.5,-366.5 1215.5,-366.5 1215.5,-347.5 1112.5,-347.5"/>
<text text-anchor="middle" x="1164" y="-354.5" font-family="Helvetica,sans-Serif" font-size="10.00">precice/types.hpp</text>
</a>
</g>
</g>
<!-- Node1&#45;&gt;Node39 -->
<g id="edge61" class="edge">
<title>Node1&#45;&gt;Node39</title>
<path fill="none" stroke="midnightblue" d="M621.55,-582.43C697.38,-561.89 890.83,-506.16 1042,-434 1079.57,-416.06 1119.99,-389.22 1143.59,-372.7"/>
<polygon fill="midnightblue" stroke="midnightblue" points="1145.91,-375.35 1152.05,-366.72 1141.87,-369.64 1145.91,-375.35"/>
</g>
<!-- Node6&#45;&gt;Node2 -->
<g id="edge6" class="edge">
<title>Node6&#45;&gt;Node2</title>
<path fill="none" stroke="midnightblue" d="M440.73,-529.16C333.98,-517.54 118.18,-487.87 68,-434 10.33,-372.09 38,-330.61 38,-246 38,-246 38,-246 38,-121 38,-69.07 98.09,-38.15 140.09,-22.89"/>
<polygon fill="midnightblue" stroke="midnightblue" points="141.24,-26.19 149.54,-19.6 138.94,-19.58 141.24,-26.19"/>
</g>
<!-- Node6&#45;&gt;Node7 -->
<g id="edge7" class="edge">
<title>Node6&#45;&gt;Node7</title>
<path fill="none" stroke="midnightblue" d="M508.27,-526.08C514.54,-518.38 523.79,-507.03 531.43,-497.65"/>
<polygon fill="midnightblue" stroke="midnightblue" points="534.27,-499.71 537.87,-489.75 528.84,-495.29 534.27,-499.71"/>
</g>
<!-- Node7&#45;&gt;Node4 -->
<g id="edge9" class="edge">
<title>Node7&#45;&gt;Node4</title>
<path fill="none" stroke="midnightblue" d="M491.21,-475.84C415.54,-470.71 273.63,-458.56 155,-434 150.78,-433.13 146.4,-432.05 142.07,-430.88"/>
<polygon fill="midnightblue" stroke="midnightblue" points="142.77,-427.44 132.19,-428.03 140.83,-434.16 142.77,-427.44"/>
</g>
<!-- Node8 -->
<g id="node8" class="node">
<title>Node8</title>
<g id="a_node8"><a xlink:title=" ">
<polygon fill="white" stroke="#bfbfbf" points="983.5,-409 983.5,-428 1032.5,-428 1032.5,-409 983.5,-409"/>
<text text-anchor="middle" x="1008" y="-416" font-family="Helvetica,sans-Serif" font-size="10.00">cstdlib</text>
</a>
</g>
</g>
<!-- Node7&#45;&gt;Node8 -->
<g id="edge8" class="edge">
<title>Node7&#45;&gt;Node8</title>
<path fill="none" stroke="midnightblue" d="M598.74,-478.47C680.9,-476.53 842.07,-468.22 974,-434 976.36,-433.39 978.77,-432.64 981.15,-431.81"/>
<polygon fill="midnightblue" stroke="midnightblue" points="982.68,-434.97 990.7,-428.05 980.12,-428.45 982.68,-434.97"/>
</g>
<!-- Node9 -->
<g id="node9" class="node">
<title>Node9</title>
<g id="a_node9"><a xlink:title=" ">
<polygon fill="white" stroke="#bfbfbf" points="1072.5,-112.5 1072.5,-131.5 1145.5,-131.5 1145.5,-112.5 1072.5,-112.5"/>
<text text-anchor="middle" x="1109" y="-119.5" font-family="Helvetica,sans-Serif" font-size="10.00">string_view</text>
</a>
</g>
</g>
<!-- Node7&#45;&gt;Node9 -->
<g id="edge10" class="edge">
<title>Node7&#45;&gt;Node9</title>
<path fill="none" stroke="midnightblue" d="M598.66,-478.69C690.56,-477.16 883.49,-469.55 1042,-434 1135.6,-413.01 1244,-453.92 1244,-358 1244,-358 1244,-358 1244,-244 1244,-189.34 1181.86,-153.15 1141.9,-135.53"/>
<polygon fill="midnightblue" stroke="midnightblue" points="1143.09,-132.23 1132.52,-131.55 1140.36,-138.68 1143.09,-132.23"/>
</g>
<!-- Node10 -->
<g id="node10" class="node">
<title>Node10</title>
<g id="a_node10"><a xlink:href="fmt_8hpp.html" target="_top" xlink:title=" ">
<polygon fill="white" stroke="black" points="854.5,-174 854.5,-193 933.5,-193 933.5,-174 854.5,-174"/>
<text text-anchor="middle" x="894" y="-181" font-family="Helvetica,sans-Serif" font-size="10.00">utils/fmt.hpp</text>
</a>
</g>
</g>
<!-- Node7&#45;&gt;Node10 -->
<g id="edge11" class="edge">
<title>Node7&#45;&gt;Node10</title>
<path fill="none" stroke="midnightblue" d="M598.57,-478.14C670.4,-475.73 792.16,-466.77 820,-434 828.92,-423.5 827.61,-414.49 820,-403 797.34,-368.8 757.66,-401.2 735,-367 730.09,-359.59 732.6,-355.56 735,-347 754.84,-276.09 830.19,-222.24 869.62,-198.24"/>
<polygon fill="midnightblue" stroke="midnightblue" points="871.55,-201.16 878.36,-193.05 867.98,-195.14 871.55,-201.16"/>
</g>
<!-- Node23 -->
<g id="node23" class="node">
<title>Node23</title>
<g id="a_node23"><a xlink:title=" ">
<polygon fill="white" stroke="#bfbfbf" points="312.5,-409 312.5,-428 459.5,-428 459.5,-409 312.5,-409"/>
<text text-anchor="middle" x="386" y="-416" font-family="Helvetica,sans-Serif" font-size="10.00">boost/current_function.hpp</text>
</a>
</g>
</g>
<!-- Node7&#45;&gt;Node23 -->
<g id="edge30" class="edge">
<title>Node7&#45;&gt;Node23</title>
<path fill="none" stroke="midnightblue" d="M522.22,-470.48C494.95,-460.27 449.09,-443.11 418.2,-431.55"/>
<polygon fill="midnightblue" stroke="midnightblue" points="419.33,-428.24 408.74,-428.01 416.88,-434.79 419.33,-428.24"/>
</g>
<!-- Node24 -->
<g id="node24" class="node">
<title>Node24</title>
<g id="a_node24"><a xlink:title=" ">
<polygon fill="white" stroke="#bfbfbf" points="477.5,-403.5 477.5,-433.5 612.5,-433.5 612.5,-403.5 477.5,-403.5"/>
<text text-anchor="start" x="485.5" y="-421.5" font-family="Helvetica,sans-Serif" font-size="10.00">boost/preprocessor</text>
<text text-anchor="middle" x="545" y="-410.5" font-family="Helvetica,sans-Serif" font-size="10.00">/comparison/greater.hpp</text>
</a>
</g>
</g>
<!-- Node7&#45;&gt;Node24 -->
<g id="edge31" class="edge">
<title>Node7&#45;&gt;Node24</title>
<path fill="none" stroke="midnightblue" d="M545,-470.48C545,-463.47 545,-453.19 545,-443.7"/>
<polygon fill="midnightblue" stroke="midnightblue" points="548.5,-443.52 545,-433.52 541.5,-443.52 548.5,-443.52"/>
</g>
<!-- Node25 -->
<g id="node25" class="node">
<title>Node25</title>
<g id="a_node25"><a xlink:title=" ">
<polygon fill="white" stroke="#bfbfbf" points="104,-168.5 104,-198.5 214,-198.5 214,-168.5 104,-168.5"/>
<text text-anchor="start" x="112" y="-186.5" font-family="Helvetica,sans-Serif" font-size="10.00">boost/preprocessor</text>
<text text-anchor="middle" x="159" y="-175.5" font-family="Helvetica,sans-Serif" font-size="10.00">/control/if.hpp</text>
</a>
</g>
</g>
<!-- Node7&#45;&gt;Node25 -->
<g id="edge32" class="edge">
<title>Node7&#45;&gt;Node25</title>
<path fill="none" stroke="midnightblue" d="M491.44,-476.27C417.77,-471.6 289.98,-459.94 252,-434 219.77,-411.99 208,-397.03 208,-358 208,-358 208,-358 208,-300 208,-265.54 189.29,-229.56 174.99,-207.1"/>
<polygon fill="midnightblue" stroke="midnightblue" points="177.82,-205.04 169.39,-198.63 171.98,-208.9 177.82,-205.04"/>
</g>
<!-- Node26 -->
<g id="node26" class="node">
<title>Node26</title>
<g id="a_node26"><a xlink:title=" ">
<polygon fill="white" stroke="#bfbfbf" points="270,-168.5 270,-198.5 380,-198.5 380,-168.5 270,-168.5"/>
<text text-anchor="start" x="278" y="-186.5" font-family="Helvetica,sans-Serif" font-size="10.00">boost/preprocessor</text>
<text text-anchor="middle" x="325" y="-175.5" font-family="Helvetica,sans-Serif" font-size="10.00">/stringize.hpp</text>
</a>
</g>
</g>
<!-- Node7&#45;&gt;Node26 -->
<g id="edge33" class="edge">
<title>Node7&#45;&gt;Node26</title>
<path fill="none" stroke="midnightblue" d="M491.33,-475.23C425.29,-469.65 317.96,-457.27 286,-434 255.14,-411.54 246,-396.17 246,-358 246,-358 246,-358 246,-300 246,-261.59 276.14,-226.56 299.19,-205.39"/>
<polygon fill="midnightblue" stroke="midnightblue" points="301.51,-208.01 306.68,-198.76 296.87,-202.77 301.51,-208.01"/>
</g>
<!-- Node27 -->
<g id="node27" class="node">
<title>Node27</title>
<g id="a_node27"><a xlink:title=" ">
<polygon fill="white" stroke="#bfbfbf" points="631,-403.5 631,-433.5 741,-433.5 741,-403.5 631,-403.5"/>
<text text-anchor="start" x="639" y="-421.5" font-family="Helvetica,sans-Serif" font-size="10.00">boost/preprocessor</text>
<text text-anchor="middle" x="686" y="-410.5" font-family="Helvetica,sans-Serif" font-size="10.00">/variadic/size.hpp</text>
</a>
</g>
</g>
<!-- Node7&#45;&gt;Node27 -->
<g id="edge34" class="edge">
<title>Node7&#45;&gt;Node27</title>
<path fill="none" stroke="midnightblue" d="M565.2,-470.48C585.55,-461.89 617.56,-448.38 643.51,-437.43"/>
<polygon fill="midnightblue" stroke="midnightblue" points="644.92,-440.64 652.77,-433.52 642.2,-434.19 644.92,-440.64"/>
</g>
<!-- Node28 -->
<g id="node28" class="node">
<title>Node28</title>
<g id="a_node28"><a xlink:href="ArgumentFormatter_8hpp.html" target="_top" xlink:title=" ">
<polygon fill="white" stroke="black" points="449.5,-235.5 449.5,-254.5 606.5,-254.5 606.5,-235.5 449.5,-235.5"/>
<text text-anchor="middle" x="528" y="-242.5" font-family="Helvetica,sans-Serif" font-size="10.00">utils/ArgumentFormatter.hpp</text>
</a>
</g>
</g>
<!-- Node7&#45;&gt;Node28 -->
<g id="edge35" class="edge">
<title>Node7&#45;&gt;Node28</title>
<path fill="none" stroke="midnightblue" d="M491.24,-476.76C427.37,-472.83 326.46,-462.22 303,-434 237.94,-355.73 411.77,-285.04 491.01,-257.83"/>
<polygon fill="midnightblue" stroke="midnightblue" points="492.27,-261.1 500.63,-254.59 490.03,-254.47 492.27,-261.1"/>
</g>
<!-- Node32 -->
<g id="node32" class="node">
<title>Node32</title>
<g id="a_node32"><a xlink:href="Parallel_8hpp.html" target="_top" xlink:title=" ">
<polygon fill="white" stroke="black" points="867,-409 867,-428 965,-428 965,-409 867,-409"/>
<text text-anchor="middle" x="916" y="-416" font-family="Helvetica,sans-Serif" font-size="10.00">utils/Parallel.hpp</text>
</a>
</g>
</g>
<!-- Node7&#45;&gt;Node32 -->
<g id="edge42" class="edge">
<title>Node7&#45;&gt;Node32</title>
<path fill="none" stroke="midnightblue" d="M598.63,-472.51C660.26,-464.73 764.3,-450.66 853,-434 858.87,-432.9 865.01,-431.63 871.07,-430.31"/>
<polygon fill="midnightblue" stroke="midnightblue" points="872.12,-433.66 881.12,-428.06 870.59,-426.83 872.12,-433.66"/>
</g>
<!-- Node41 -->
<g id="node41" class="node">
<title>Node41</title>
<g id="a_node41"><a xlink:href="stacktrace_8hpp.html" target="_top" xlink:title=" ">
<polygon fill="white" stroke="black" points="66.5,-291.5 66.5,-310.5 179.5,-310.5 179.5,-291.5 66.5,-291.5"/>
<text text-anchor="middle" x="123" y="-298.5" font-family="Helvetica,sans-Serif" font-size="10.00">utils/stacktrace.hpp</text>
</a>
</g>
</g>
<!-- Node7&#45;&gt;Node41 -->
<g id="edge58" class="edge">
<title>Node7&#45;&gt;Node41</title>
<path fill="none" stroke="midnightblue" d="M491.18,-478.01C405.04,-475.46 241.08,-466.37 194,-434 154.26,-406.67 134.85,-349.74 127.16,-320.38"/>
<polygon fill="midnightblue" stroke="midnightblue" points="130.54,-319.48 124.77,-310.6 123.74,-321.14 130.54,-319.48"/>
</g>
<!-- Node42 -->
<g id="node42" class="node">
<title>Node42</title>
<g id="a_node42"><a xlink:title=" ">
<polygon fill="white" stroke="#bfbfbf" points="759,-409 759,-428 811,-428 811,-409 759,-409"/>
<text text-anchor="middle" x="785" y="-416" font-family="Helvetica,sans-Serif" font-size="10.00">cassert</text>
</a>
</g>
</g>
<!-- Node7&#45;&gt;Node42 -->
<g id="edge60" class="edge">
<title>Node7&#45;&gt;Node42</title>
<path fill="none" stroke="midnightblue" d="M595.78,-470.44C637.67,-462.76 698.38,-450.22 750,-434 752.14,-433.33 754.33,-432.58 756.53,-431.78"/>
<polygon fill="midnightblue" stroke="midnightblue" points="757.92,-434.99 765.97,-428.1 755.38,-428.47 757.92,-434.99"/>
</g>
<!-- Node10&#45;&gt;Node9 -->
<g id="edge13" class="edge">
<title>Node10&#45;&gt;Node9</title>
<path fill="none" stroke="midnightblue" d="M924.8,-173.98C962.56,-163.53 1026.66,-145.79 1068.41,-134.23"/>
<polygon fill="midnightblue" stroke="midnightblue" points="1069.55,-137.55 1078.25,-131.51 1067.68,-130.8 1069.55,-137.55"/>
</g>
<!-- Node11 -->
<g id="node11" class="node">
<title>Node11</title>
<g id="a_node11"><a xlink:title=" ">
<polygon fill="white" stroke="#bfbfbf" points="220,-112.5 220,-131.5 264,-131.5 264,-112.5 220,-112.5"/>
<text text-anchor="middle" x="242" y="-119.5" font-family="Helvetica,sans-Serif" font-size="10.00">string</text>
</a>
</g>
</g>
<!-- Node10&#45;&gt;Node11 -->
<g id="edge12" class="edge">
<title>Node10&#45;&gt;Node11</title>
<path fill="none" stroke="midnightblue" d="M854.26,-175.14C839.46,-172.59 822.5,-169.91 807,-168 605.16,-143.19 361,-129.11 274.38,-124.61"/>
<polygon fill="midnightblue" stroke="midnightblue" points="274.31,-121.1 264.15,-124.08 273.95,-128.09 274.31,-121.1"/>
</g>
<!-- Node12 -->
<g id="node12" class="node">
<title>Node12</title>
<g id="a_node12"><a xlink:title=" ">
<polygon fill="white" stroke="#bfbfbf" points="711.5,-56.5 711.5,-75.5 790.5,-75.5 790.5,-56.5 711.5,-56.5"/>
<text text-anchor="middle" x="751" y="-63.5" font-family="Helvetica,sans-Serif" font-size="10.00">fmt/format.h</text>
</a>
</g>
</g>
<!-- Node10&#45;&gt;Node12 -->
<g id="edge14" class="edge">
<title>Node10&#45;&gt;Node12</title>
<path fill="none" stroke="midnightblue" d="M883.25,-173.82C859.13,-154.34 800.43,-106.92 770,-82.34"/>
<polygon fill="midnightblue" stroke="midnightblue" points="771.85,-79.34 761.87,-75.78 767.45,-84.79 771.85,-79.34"/>
</g>
<!-- Node13 -->
<g id="node13" class="node">
<title>Node13</title>
<g id="a_node13"><a xlink:title=" ">
<polygon fill="white" stroke="#bfbfbf" points="968,-112.5 968,-131.5 1054,-131.5 1054,-112.5 968,-112.5"/>
<text text-anchor="middle" x="1011" y="-119.5" font-family="Helvetica,sans-Serif" font-size="10.00">fmt/ostream.h</text>
</a>
</g>
</g>
<!-- Node10&#45;&gt;Node13 -->
<g id="edge15" class="edge">
<title>Node10&#45;&gt;Node13</title>
<path fill="none" stroke="midnightblue" d="M910.76,-173.98C930.22,-164.08 962.55,-147.64 985.21,-136.12"/>
<polygon fill="midnightblue" stroke="midnightblue" points="986.94,-139.16 994.27,-131.51 983.77,-132.92 986.94,-139.16"/>
</g>
<!-- Node14 -->
<g id="node14" class="node">
<title>Node14</title>
<g id="a_node14"><a xlink:href="fmtEigen_8hpp.html" target="_top" xlink:title=" ">
<polygon fill="white" stroke="black" points="447,-112.5 447,-131.5 553,-131.5 553,-112.5 447,-112.5"/>
<text text-anchor="middle" x="500" y="-119.5" font-family="Helvetica,sans-Serif" font-size="10.00">utils/fmtEigen.hpp</text>
</a>
</g>
</g>
<!-- Node10&#45;&gt;Node14 -->
<g id="edge16" class="edge">
<title>Node10&#45;&gt;Node14</title>
<path fill="none" stroke="midnightblue" d="M854.18,-175.69C839.38,-173.21 822.43,-170.42 807,-168 722.68,-154.8 625.15,-140.7 563.05,-131.87"/>
<polygon fill="midnightblue" stroke="midnightblue" points="563.41,-128.39 553.02,-130.45 562.42,-135.32 563.41,-128.39"/>
</g>
<!-- Node18 -->
<g id="node18" class="node">
<title>Node18</title>
<g id="a_node18"><a xlink:href="fmtSTL_8hpp.html" target="_top" xlink:title=" ">
<polygon fill="white" stroke="black" points="854,-112.5 854,-131.5 950,-131.5 950,-112.5 854,-112.5"/>
<text text-anchor="middle" x="902" y="-119.5" font-family="Helvetica,sans-Serif" font-size="10.00">utils/fmtSTL.hpp</text>
</a>
</g>
</g>
<!-- Node10&#45;&gt;Node18 -->
<g id="edge23" class="edge">
<title>Node10&#45;&gt;Node18</title>
<path fill="none" stroke="midnightblue" d="M895.15,-173.98C896.27,-165.58 898.04,-152.48 899.49,-141.66"/>
<polygon fill="midnightblue" stroke="midnightblue" points="902.99,-141.89 900.86,-131.51 896.05,-140.95 902.99,-141.89"/>
</g>
<!-- Node14&#45;&gt;Node2 -->
<g id="edge17" class="edge">
<title>Node14&#45;&gt;Node2</title>
<path fill="none" stroke="midnightblue" d="M477.61,-112.46C455.39,-103.82 420.48,-89.81 391,-76 373.72,-67.91 370.8,-62.89 353,-56 310.59,-39.58 260.05,-27.21 224.58,-19.64"/>
<polygon fill="midnightblue" stroke="midnightblue" points="225.05,-16.16 214.54,-17.54 223.61,-23.01 225.05,-16.16"/>
</g>
<!-- Node14&#45;&gt;Node12 -->
<g id="edge19" class="edge">
<title>Node14&#45;&gt;Node12</title>
<path fill="none" stroke="midnightblue" d="M539.77,-112.44C583.56,-103.02 654.01,-87.87 701.38,-77.68"/>
<polygon fill="midnightblue" stroke="midnightblue" points="702.37,-81.04 711.41,-75.52 700.9,-74.2 702.37,-81.04"/>
</g>
<!-- Node15 -->
<g id="node15" class="node">
<title>Node15</title>
<g id="a_node15"><a xlink:title=" ">
<polygon fill="white" stroke="#bfbfbf" points="518,-56.5 518,-75.5 582,-75.5 582,-56.5 518,-56.5"/>
<text text-anchor="middle" x="550" y="-63.5" font-family="Helvetica,sans-Serif" font-size="10.00">algorithm</text>
</a>
</g>
</g>
<!-- Node14&#45;&gt;Node15 -->
<g id="edge18" class="edge">
<title>Node14&#45;&gt;Node15</title>
<path fill="none" stroke="midnightblue" d="M508.26,-112.08C515.46,-104.3 526.11,-92.8 534.85,-83.37"/>
<polygon fill="midnightblue" stroke="midnightblue" points="537.67,-85.47 541.9,-75.75 532.53,-80.71 537.67,-85.47"/>
</g>
<!-- Node16 -->
<g id="node16" class="node">
<title>Node16</title>
<g id="a_node16"><a xlink:title=" ">
<polygon fill="white" stroke="#bfbfbf" points="288,-56.5 288,-75.5 344,-75.5 344,-56.5 288,-56.5"/>
<text text-anchor="middle" x="316" y="-63.5" font-family="Helvetica,sans-Serif" font-size="10.00">sstream</text>
</a>
</g>
</g>
<!-- Node14&#45;&gt;Node16 -->
<g id="edge20" class="edge">
<title>Node14&#45;&gt;Node16</title>
<path fill="none" stroke="midnightblue" d="M470.84,-112.44C439.21,-103.16 388.59,-88.3 353.89,-78.12"/>
<polygon fill="midnightblue" stroke="midnightblue" points="354.69,-74.71 344.11,-75.25 352.72,-81.43 354.69,-74.71"/>
</g>
<!-- Node17 -->
<g id="node17" class="node">
<title>Node17</title>
<g id="a_node17"><a xlink:href="EigenIO_8hpp.html" target="_top" xlink:title=" ">
<polygon fill="white" stroke="black" points="400.5,-56.5 400.5,-75.5 499.5,-75.5 499.5,-56.5 400.5,-56.5"/>
<text text-anchor="middle" x="450" y="-63.5" font-family="Helvetica,sans-Serif" font-size="10.00">utils/EigenIO.hpp</text>
</a>
</g>
</g>
<!-- Node14&#45;&gt;Node17 -->
<g id="edge21" class="edge">
<title>Node14&#45;&gt;Node17</title>
<path fill="none" stroke="midnightblue" d="M491.74,-112.08C484.54,-104.3 473.89,-92.8 465.15,-83.37"/>
<polygon fill="midnightblue" stroke="midnightblue" points="467.47,-80.71 458.1,-75.75 462.33,-85.47 467.47,-80.71"/>
</g>
<!-- Node17&#45;&gt;Node2 -->
<g id="edge22" class="edge">
<title>Node17&#45;&gt;Node2</title>
<path fill="none" stroke="midnightblue" d="M407.22,-56.44C357.42,-46.48 275.54,-30.11 224.86,-19.97"/>
<polygon fill="midnightblue" stroke="midnightblue" points="225.35,-16.5 214.85,-17.97 223.97,-23.36 225.35,-16.5"/>
</g>
<!-- Node18&#45;&gt;Node3 -->
<g id="edge24" class="edge">
<title>Node18&#45;&gt;Node3</title>
<path fill="none" stroke="midnightblue" d="M945.1,-112.44C1000.22,-101.5 1094.36,-82.81 1142.95,-73.17"/>
<polygon fill="midnightblue" stroke="midnightblue" points="1143.75,-76.57 1152.87,-71.19 1142.38,-69.71 1143.75,-76.57"/>
</g>
<!-- Node18&#45;&gt;Node12 -->
<g id="edge26" class="edge">
<title>Node18&#45;&gt;Node12</title>
<path fill="none" stroke="midnightblue" d="M878.07,-112.44C852.78,-103.4 812.7,-89.06 784.32,-78.92"/>
<polygon fill="midnightblue" stroke="midnightblue" points="785.41,-75.59 774.81,-75.52 783.05,-82.18 785.41,-75.59"/>
</g>
<!-- Node19 -->
<g id="node19" class="node">
<title>Node19</title>
<g id="a_node19"><a xlink:title=" ">
<polygon fill="white" stroke="#bfbfbf" points="873.5,-56.5 873.5,-75.5 920.5,-75.5 920.5,-56.5 873.5,-56.5"/>
<text text-anchor="middle" x="897" y="-63.5" font-family="Helvetica,sans-Serif" font-size="10.00">deque</text>
</a>
</g>
</g>
<!-- Node18&#45;&gt;Node19 -->
<g id="edge25" class="edge">
<title>Node18&#45;&gt;Node19</title>
<path fill="none" stroke="midnightblue" d="M901.17,-112.08C900.52,-105.01 899.58,-94.86 898.76,-85.99"/>
<polygon fill="midnightblue" stroke="midnightblue" points="902.22,-85.39 897.81,-75.75 895.25,-86.03 902.22,-85.39"/>
</g>
<!-- Node20 -->
<g id="node20" class="node">
<title>Node20</title>
<g id="a_node20"><a xlink:title=" ">
<polygon fill="white" stroke="#bfbfbf" points="939,-56.5 939,-75.5 977,-75.5 977,-56.5 939,-56.5"/>
<text text-anchor="middle" x="958" y="-63.5" font-family="Helvetica,sans-Serif" font-size="10.00">map</text>
</a>
</g>
</g>
<!-- Node18&#45;&gt;Node20 -->
<g id="edge27" class="edge">
<title>Node18&#45;&gt;Node20</title>
<path fill="none" stroke="midnightblue" d="M911,-112.32C919.19,-104.42 931.51,-92.55 941.47,-82.94"/>
<polygon fill="midnightblue" stroke="midnightblue" points="944.07,-85.29 948.84,-75.83 939.21,-80.26 944.07,-85.29"/>
</g>
<!-- Node21 -->
<g id="node21" class="node">
<title>Node21</title>
<g id="a_node21"><a xlink:title=" ">
<polygon fill="white" stroke="#bfbfbf" points="995,-56.5 995,-75.5 1027,-75.5 1027,-56.5 995,-56.5"/>
<text text-anchor="middle" x="1011" y="-63.5" font-family="Helvetica,sans-Serif" font-size="10.00">set</text>
</a>
</g>
</g>
<!-- Node18&#45;&gt;Node21 -->
<g id="edge28" class="edge">
<title>Node18&#45;&gt;Node21</title>
<path fill="none" stroke="midnightblue" d="M919.51,-112.32C937.49,-103.42 965.63,-89.48 985.95,-79.41"/>
<polygon fill="midnightblue" stroke="midnightblue" points="987.54,-82.53 994.95,-74.95 984.44,-76.25 987.54,-82.53"/>
</g>
<!-- Node22 -->
<g id="node22" class="node">
<title>Node22</title>
<g id="a_node22"><a xlink:title=" ">
<polygon fill="white" stroke="#bfbfbf" points="808.5,-56.5 808.5,-75.5 855.5,-75.5 855.5,-56.5 808.5,-56.5"/>
<text text-anchor="middle" x="832" y="-63.5" font-family="Helvetica,sans-Serif" font-size="10.00">vector</text>
</a>
</g>
</g>
<!-- Node18&#45;&gt;Node22 -->
<g id="edge29" class="edge">
<title>Node18&#45;&gt;Node22</title>
<path fill="none" stroke="midnightblue" d="M890.75,-112.32C880.2,-104.18 864.2,-91.84 851.56,-82.09"/>
<polygon fill="midnightblue" stroke="midnightblue" points="853.51,-79.17 843.45,-75.83 849.23,-84.71 853.51,-79.17"/>
</g>
<!-- Node28&#45;&gt;Node10 -->
<g id="edge41" class="edge">
<title>Node28&#45;&gt;Node10</title>
<path fill="none" stroke="midnightblue" d="M581.24,-235.5C637.39,-226.51 728.44,-211.88 807,-199 819.04,-197.03 832.02,-194.88 844.18,-192.85"/>
<polygon fill="midnightblue" stroke="midnightblue" points="844.87,-196.28 854.16,-191.18 843.72,-189.38 844.87,-196.28"/>
</g>
<!-- Node28&#45;&gt;Node25 -->
<g id="edge36" class="edge">
<title>Node28&#45;&gt;Node25</title>
<path fill="none" stroke="midnightblue" d="M475.13,-235.48C409.03,-224.82 295.9,-206.57 224.42,-195.05"/>
<polygon fill="midnightblue" stroke="midnightblue" points="224.61,-191.53 214.18,-193.4 223.5,-198.45 224.61,-191.53"/>
</g>
<!-- Node28&#45;&gt;Node26 -->
<g id="edge38" class="edge">
<title>Node28&#45;&gt;Node26</title>
<path fill="none" stroke="midnightblue" d="M498.92,-235.48C468.72,-226.63 420.7,-212.55 382.75,-201.43"/>
<polygon fill="midnightblue" stroke="midnightblue" points="383.42,-197.98 372.84,-198.52 381.45,-204.69 383.42,-197.98"/>
</g>
<!-- Node29 -->
<g id="node29" class="node">
<title>Node29</title>
<g id="a_node29"><a xlink:title=" ">
<polygon fill="white" stroke="#bfbfbf" points="686.5,-168.5 686.5,-198.5 797.5,-198.5 797.5,-168.5 686.5,-168.5"/>
<text text-anchor="start" x="694.5" y="-186.5" font-family="Helvetica,sans-Serif" font-size="10.00">boost/preprocessor</text>
<text text-anchor="middle" x="742" y="-175.5" font-family="Helvetica,sans-Serif" font-size="10.00">/seq/for_each_i.hpp</text>
</a>
</g>
</g>
<!-- Node28&#45;&gt;Node29 -->
<g id="edge37" class="edge">
<title>Node28&#45;&gt;Node29</title>
<path fill="none" stroke="midnightblue" d="M558.66,-235.48C590.69,-226.57 641.77,-212.37 681.88,-201.22"/>
<polygon fill="midnightblue" stroke="midnightblue" points="682.87,-204.57 691.56,-198.52 680.99,-197.83 682.87,-204.57"/>
</g>
<!-- Node30 -->
<g id="node30" class="node">
<title>Node30</title>
<g id="a_node30"><a xlink:title=" ">
<polygon fill="white" stroke="#bfbfbf" points="398.5,-168.5 398.5,-198.5 513.5,-198.5 513.5,-168.5 398.5,-168.5"/>
<text text-anchor="start" x="406.5" y="-186.5" font-family="Helvetica,sans-Serif" font-size="10.00">boost/preprocessor</text>
<text text-anchor="middle" x="456" y="-175.5" font-family="Helvetica,sans-Serif" font-size="10.00">/variadic/to_seq.hpp</text>
</a>
</g>
</g>
<!-- Node28&#45;&gt;Node30 -->
<g id="edge39" class="edge">
<title>Node28&#45;&gt;Node30</title>
<path fill="none" stroke="midnightblue" d="M517.68,-235.48C508.12,-227.57 493.49,-215.48 480.89,-205.07"/>
<polygon fill="midnightblue" stroke="midnightblue" points="482.91,-202.2 472.97,-198.52 478.45,-207.59 482.91,-202.2"/>
</g>
<!-- Node31 -->
<g id="node31" class="node">
<title>Node31</title>
<g id="a_node31"><a xlink:title=" ">
<polygon fill="white" stroke="#bfbfbf" points="532,-174 532,-193 668,-193 668,-174 532,-174"/>
<text text-anchor="middle" x="600" y="-181" font-family="Helvetica,sans-Serif" font-size="10.00">boost/vmd/is_empty.hpp</text>
</a>
</g>
</g>
<!-- Node28&#45;&gt;Node31 -->
<g id="edge40" class="edge">
<title>Node28&#45;&gt;Node31</title>
<path fill="none" stroke="midnightblue" d="M538.32,-235.48C549.65,-226.11 568.07,-210.88 581.84,-199.51"/>
<polygon fill="midnightblue" stroke="midnightblue" points="584.22,-202.08 589.7,-193.01 579.77,-196.68 584.22,-202.08"/>
</g>
<!-- Node32&#45;&gt;Node11 -->
<g id="edge46" class="edge">
<title>Node32&#45;&gt;Node11</title>
<path fill="none" stroke="midnightblue" d="M872.51,-409C828.95,-400.07 760.21,-384.87 702,-367 501.5,-305.45 400.23,-355.87 261,-199 247.06,-183.3 243.03,-158.9 242.02,-142"/>
<polygon fill="midnightblue" stroke="midnightblue" points="245.51,-141.59 241.72,-131.7 238.51,-141.79 245.51,-141.59"/>
</g>
<!-- Node32&#45;&gt;Node22 -->
<g id="edge47" class="edge">
<title>Node32&#45;&gt;Node22</title>
<path fill="none" stroke="midnightblue" d="M875.7,-408.95C825.04,-397.79 743.63,-378.37 735,-367 729.63,-359.92 733,-355.66 735,-347 751.42,-275.72 783.99,-268.44 807,-199 819.98,-159.83 826.96,-111.76 830.03,-85.8"/>
<polygon fill="midnightblue" stroke="midnightblue" points="833.55,-85.86 831.18,-75.54 826.59,-85.09 833.55,-85.86"/>
</g>
<!-- Node33 -->
<g id="node33" class="node">
<title>Node33</title>
<g id="a_node33"><a xlink:title=" ">
<polygon fill="white" stroke="#bfbfbf" points="744,-347.5 744,-366.5 792,-366.5 792,-347.5 744,-347.5"/>
<text text-anchor="middle" x="768" y="-354.5" font-family="Helvetica,sans-Serif" font-size="10.00">iosfwd</text>
</a>
</g>
</g>
<!-- Node32&#45;&gt;Node33 -->
<g id="edge43" class="edge">
<title>Node32&#45;&gt;Node33</title>
<path fill="none" stroke="midnightblue" d="M894.8,-408.98C869.63,-398.86 827.46,-381.9 798.72,-370.35"/>
<polygon fill="midnightblue" stroke="midnightblue" points="799.75,-366.99 789.17,-366.51 797.14,-373.49 799.75,-366.99"/>
</g>
<!-- Node34 -->
<g id="node34" class="node">
<title>Node34</title>
<g id="a_node34"><a xlink:title=" ">
<polygon fill="white" stroke="#bfbfbf" points="1051,-291.5 1051,-310.5 1109,-310.5 1109,-291.5 1051,-291.5"/>
<text text-anchor="middle" x="1080" y="-298.5" font-family="Helvetica,sans-Serif" font-size="10.00">memory</text>
</a>
</g>
</g>
<!-- Node32&#45;&gt;Node34 -->
<g id="edge44" class="edge">
<title>Node32&#45;&gt;Node34</title>
<path fill="none" stroke="midnightblue" d="M946.45,-408.9C987.61,-397.02 1056.82,-376.04 1065,-367 1076.28,-354.53 1079.59,-335.3 1080.34,-320.98"/>
<polygon fill="midnightblue" stroke="midnightblue" points="1083.85,-320.84 1080.5,-310.78 1076.85,-320.73 1083.85,-320.84"/>
</g>
<!-- Node35 -->
<g id="node35" class="node">
<title>Node35</title>
<g id="a_node35"><a xlink:title=" ">
<polygon fill="white" stroke="#bfbfbf" points="938,-347.5 938,-366.5 994,-366.5 994,-347.5 938,-347.5"/>
<text text-anchor="middle" x="966" y="-354.5" font-family="Helvetica,sans-Serif" font-size="10.00">optional</text>
</a>
</g>
</g>
<!-- Node32&#45;&gt;Node35 -->
<g id="edge45" class="edge">
<title>Node32&#45;&gt;Node35</title>
<path fill="none" stroke="midnightblue" d="M923.16,-408.98C930.74,-399.96 942.87,-385.52 952.29,-374.31"/>
<polygon fill="midnightblue" stroke="midnightblue" points="955.1,-376.42 958.85,-366.51 949.74,-371.91 955.1,-376.42"/>
</g>
<!-- Node36 -->
<g id="node36" class="node">
<title>Node36</title>
<g id="a_node36"><a xlink:href="Logger_8hpp.html" target="_top" xlink:title=" ">
<polygon fill="white" stroke="black" points="810.5,-347.5 810.5,-366.5 919.5,-366.5 919.5,-347.5 810.5,-347.5"/>
<text text-anchor="middle" x="865" y="-354.5" font-family="Helvetica,sans-Serif" font-size="10.00">logging/Logger.hpp</text>
</a>
</g>
</g>
<!-- Node32&#45;&gt;Node36 -->
<g id="edge48" class="edge">
<title>Node32&#45;&gt;Node36</title>
<path fill="none" stroke="midnightblue" d="M908.69,-408.98C900.97,-399.96 888.59,-385.52 878.98,-374.31"/>
<polygon fill="midnightblue" stroke="midnightblue" points="881.46,-371.82 872.29,-366.51 876.14,-376.38 881.46,-371.82"/>
</g>
<!-- Node32&#45;&gt;Node39 -->
<g id="edge56" class="edge">
<title>Node32&#45;&gt;Node39</title>
<path fill="none" stroke="midnightblue" d="M950.62,-408.95C958.62,-406.98 967.11,-404.91 975,-403 1023.75,-391.21 1079.64,-377.93 1117.93,-368.87"/>
<polygon fill="midnightblue" stroke="midnightblue" points="1118.82,-372.26 1127.75,-366.55 1117.21,-365.44 1118.82,-372.26"/>
</g>
<!-- Node40 -->
<g id="node40" class="node">
<title>Node40</title>
<g id="a_node40"><a xlink:title=" ">
<polygon fill="white" stroke="#bfbfbf" points="1012,-347.5 1012,-366.5 1056,-366.5 1056,-347.5 1012,-347.5"/>
<text text-anchor="middle" x="1034" y="-354.5" font-family="Helvetica,sans-Serif" font-size="10.00">mpi.h</text>
</a>
</g>
</g>
<!-- Node32&#45;&gt;Node40 -->
<g id="edge57" class="edge">
<title>Node32&#45;&gt;Node40</title>
<path fill="none" stroke="midnightblue" d="M932.91,-408.98C952.53,-399.08 985.13,-382.64 1007.99,-371.12"/>
<polygon fill="midnightblue" stroke="midnightblue" points="1009.77,-374.14 1017.12,-366.51 1006.62,-367.89 1009.77,-374.14"/>
</g>
<!-- Node36&#45;&gt;Node9 -->
<g id="edge50" class="edge">
<title>Node36&#45;&gt;Node9</title>
<path fill="none" stroke="midnightblue" d="M873.97,-347.43C910.14,-312.89 1045.53,-183.61 1092.68,-138.58"/>
<polygon fill="midnightblue" stroke="midnightblue" points="1095.13,-141.08 1099.94,-131.65 1090.3,-136.02 1095.13,-141.08"/>
</g>
<!-- Node36&#45;&gt;Node34 -->
<g id="edge49" class="edge">
<title>Node36&#45;&gt;Node34</title>
<path fill="none" stroke="midnightblue" d="M899.07,-347.44C937.71,-337.74 1000.6,-321.94 1041.13,-311.76"/>
<polygon fill="midnightblue" stroke="midnightblue" points="1042.07,-315.13 1050.92,-309.3 1040.37,-308.35 1042.07,-315.13"/>
</g>
<!-- Node37 -->
<g id="node37" class="node">
<title>Node37</title>
<g id="a_node37"><a xlink:href="LogMacros_8hpp.html" target="_top" xlink:title=" ">
<polygon fill="white" stroke="black" points="778,-291.5 778,-310.5 868,-310.5 868,-291.5 778,-291.5"/>
<text text-anchor="middle" x="823" y="-298.5" font-family="Helvetica,sans-Serif" font-size="10.00">LogMacros.hpp</text>
</a>
</g>
</g>
<!-- Node36&#45;&gt;Node37 -->
<g id="edge51" class="edge">
<title>Node36&#45;&gt;Node37</title>
<path fill="none" stroke="midnightblue" d="M858.06,-347.08C852.07,-339.38 843.25,-328.03 835.95,-318.65"/>
<polygon fill="midnightblue" stroke="midnightblue" points="838.71,-316.5 829.81,-310.75 833.18,-320.79 838.71,-316.5"/>
</g>
<!-- Node37&#45;&gt;Node10 -->
<g id="edge52" class="edge">
<title>Node37&#45;&gt;Node10</title>
<path fill="none" stroke="midnightblue" d="M823.9,-291.43C825.57,-278.42 830.05,-253.28 841,-235 849.33,-221.1 862.51,-208.52 873.64,-199.39"/>
<polygon fill="midnightblue" stroke="midnightblue" points="875.93,-202.04 881.64,-193.12 871.61,-196.54 875.93,-202.04"/>
</g>
<!-- Node37&#45;&gt;Node28 -->
<g id="edge53" class="edge">
<title>Node37&#45;&gt;Node28</title>
<path fill="none" stroke="midnightblue" d="M777.87,-291.74C726.06,-282.26 640.99,-266.68 584.74,-256.39"/>
<polygon fill="midnightblue" stroke="midnightblue" points="585.05,-252.88 574.58,-254.53 583.79,-259.77 585.05,-252.88"/>
</g>
<!-- Node38 -->
<g id="node38" class="node">
<title>Node38</title>
<g id="a_node38"><a xlink:href="Tracer_8hpp.html" target="_top" xlink:title=" ">
<polygon fill="white" stroke="black" points="849.5,-235.5 849.5,-254.5 954.5,-254.5 954.5,-235.5 849.5,-235.5"/>
<text text-anchor="middle" x="902" y="-242.5" font-family="Helvetica,sans-Serif" font-size="10.00">logging/Tracer.hpp</text>
</a>
</g>
</g>
<!-- Node37&#45;&gt;Node38 -->
<g id="edge54" class="edge">
<title>Node37&#45;&gt;Node38</title>
<path fill="none" stroke="midnightblue" d="M835.69,-291.32C847.9,-282.98 866.58,-270.21 881,-260.35"/>
<polygon fill="midnightblue" stroke="midnightblue" points="883.06,-263.19 889.34,-254.65 879.11,-257.41 883.06,-263.19"/>
</g>
<!-- Node38&#45;&gt;Node36 -->
<g id="edge55" class="edge">
<title>Node38&#45;&gt;Node36</title>
<path fill="none" stroke="midnightblue" d="M899.11,-254.59C893.12,-272.39 879.25,-313.62 871.16,-337.67"/>
<polygon fill="midnightblue" stroke="midnightblue" points="867.77,-336.77 867.9,-347.37 874.41,-339.01 867.77,-336.77"/>
</g>
<!-- Node41&#45;&gt;Node11 -->
<g id="edge59" class="edge">
<title>Node41&#45;&gt;Node11</title>
<path fill="none" stroke="midnightblue" d="M116.93,-291.3C101.92,-268.63 66.3,-206.8 95,-168 121.25,-132.51 174.94,-124.1 209.66,-122.58"/>
<polygon fill="midnightblue" stroke="midnightblue" points="209.87,-126.08 219.77,-122.31 209.68,-119.08 209.87,-126.08"/>
</g>
</g>
</svg>
        <g id="navigator" transform="translate(0 0)" fill="#404254">
                <rect fill="#f2f5e9" fill-opacity="0.5" stroke="#606060" stroke-width=".5" x="0" y="0" width="60" height="60"/>
                <use id="zoomplus" xlink:href="#zoomPlus" x="17" y="9" onmousedown="handleZoom(evt,'in')"/>
                <use id="zoomminus" xlink:href="#zoomMin" x="42" y="9" onmousedown="handleZoom(evt,'out')"/>
                <use id="reset" xlink:href="#resetDef" x="30" y="36" onmousedown="handleReset()"/>
                <g id="arrowUp" xlink:href="#dirArrow" transform="translate(30 24)" onmousedown="handlePan(0,-1)">
                  <use xlink:href="#rim" fill="#404040">
                        <set attributeName="fill" to="#808080" begin="arrowUp.mouseover" end="arrowUp.mouseout"/>
                  </use>
                  <path fill="none" stroke="white" stroke-width="1.5" d="M0,-3.0v7 M-2.5,-0.5L0,-3.0L2.5,-0.5"/>
                </g>
                <g id="arrowRight" xlink:href="#dirArrow" transform="rotate(90) translate(36 -43)" onmousedown="handlePan(1,0)">
                  <use xlink:href="#rim" fill="#404040">
                        <set attributeName="fill" to="#808080" begin="arrowRight.mouseover" end="arrowRight.mouseout"/>
                  </use>
                  <path fill="none" stroke="white" stroke-width="1.5" d="M0,-3.0v7 M-2.5,-0.5L0,-3.0L2.5,-0.5"/>
                </g>
                <g id="arrowDown" xlink:href="#dirArrow" transform="rotate(180) translate(-30 -48)" onmousedown="handlePan(0,1)">
                  <use xlink:href="#rim" fill="#404040">
                        <set attributeName="fill" to="#808080" begin="arrowDown.mouseover" end="arrowDown.mouseout"/>
                  </use>
                  <path fill="none" stroke="white" stroke-width="1.5" d="M0,-3.0v7 M-2.5,-0.5L0,-3.0L2.5,-0.5"/>
                </g>
                <g id="arrowLeft" xlink:href="#dirArrow" transform="rotate(270) translate(-36 17)" onmousedown="handlePan(-1,0)">
                  <use xlink:href="#rim" fill="#404040">
                        <set attributeName="fill" to="#808080" begin="arrowLeft.mouseover" end="arrowLeft.mouseout"/>
                  </use>
                  <path fill="none" stroke="white" stroke-width="1.5" d="M0,-3.0v7 M-2.5,-0.5L0,-3.0L2.5,-0.5"/>
                </g>
        </g>
        <svg viewBox="0 0 15 15" width="100%" height="30px" preserveAspectRatio="xMaxYMin meet">
         <g id="arrow_out" transform="scale(0.3 0.3)">
          <a xlink:href="Vertex_8hpp__incl_org.svg" target="_base">
           <rect id="button" ry="5" rx="5" y="6" x="6" height="38" width="38"
                fill="#f2f5e9" fill-opacity="0.5" stroke="#606060" stroke-width="1.0"/>
           <path id="arrow"
             d="M 11.500037,31.436501 C 11.940474,20.09759 22.043105,11.32322 32.158766,21.979434 L 37.068811,17.246167 C 37.068811,17.246167 37.088388,32 37.088388,32 L 22.160133,31.978069 C 22.160133,31.978069 26.997745,27.140456 26.997745,27.140456 C 18.528582,18.264221 13.291696,25.230495 11.500037,31.436501 z"
             style="fill:#404040;"/>
          </a>
         </g>
        </svg>
</svg>
