<?xml version="1.0" encoding="UTF-8" standalone="no"?>
<!DOCTYPE svg PUBLIC "-//W3C//DTD SVG 1.1//EN"
 "http://www.w3.org/Graphics/SVG/1.1/DTD/svg11.dtd">
<!-- Generated by graphviz version 2.43.0 (0)
 -->
<!-- Title: src/xml/XMLAttribute.hpp Pages: 1 -->
<!--zoomable 554 -->
<svg id="main" version="1.1" xmlns="http://www.w3.org/2000/svg" xmlns:xlink="http://www.w3.org/1999/xlink" xml:space="preserve" onload="init(evt)">
<style type="text/css"><![CDATA[
.edge:hover path { stroke: red; }
.edge:hover polygon { stroke: red; fill: red; }
]]></style>
<script type="text/javascript"><![CDATA[
var edges = document.getElementsByTagName('g');
if (edges && edges.length) {
  for (var i=0;i<edges.length;i++) {
    if (edges[i].id.substr(0,4)=='edge') {
      edges[i].setAttribute('class','edge');
    }
  }
}
]]></script>
        <defs>
                <circle id="rim" cx="0" cy="0" r="7"/>
                <circle id="rim2" cx="0" cy="0" r="3.5"/>
                <g id="zoomPlus">
                        <use xlink:href="#rim" fill="#404040">
                                <set attributeName="fill" to="#808080" begin="zoomplus.mouseover" end="zoomplus.mouseout"/>
                        </use>
                        <path d="M-4,0h8M0,-4v8" fill="none" stroke="white" stroke-width="1.5" pointer-events="none"/>
                </g>
                <g id="zoomMin">
                        <use xlink:href="#rim" fill="#404040">
                                <set attributeName="fill" to="#808080" begin="zoomminus.mouseover" end="zoomminus.mouseout"/>
                        </use>
                        <path d="M-4,0h8" fill="none" stroke="white" stroke-width="1.5" pointer-events="none"/>
                </g>
                <g id="dirArrow">
                        <path fill="none" stroke="white" stroke-width="1.5" d="M0,-3.0v7 M-2.5,-0.5L0,-3.0L2.5,-0.5"/>
                </g>
               <g id="resetDef">
                       <use xlink:href="#rim2" fill="#404040">
                               <set attributeName="fill" to="#808080" begin="reset.mouseover" end="reset.mouseout"/>
                       </use>
               </g>
        </defs>

<script type="text/javascript">
var viewWidth = 1845;
var viewHeight = 554;
var sectionId = 'dynsection-0';
</script>
<script xlink:href="svgpan.js"/>
<svg id="graph" class="graph">
<g id="viewport">
<title>src/xml/XMLAttribute.hpp</title>
<polygon fill="white" stroke="transparent" points="-4,4 -4,-550 1840.5,-550 1840.5,4 -4,4"/>
<!-- Node1 -->
<g id="node1" class="node">
<title>Node1</title>
<g id="a_node1"><a xlink:title=" ">
<polygon fill="#bfbfbf" stroke="black" points="1241.5,-526.5 1241.5,-545.5 1382.5,-545.5 1382.5,-526.5 1241.5,-526.5"/>
<text text-anchor="middle" x="1312" y="-533.5" font-family="Helvetica,sans-Serif" font-size="10.00">src/xml/XMLAttribute.hpp</text>
</a>
</g>
</g>
<!-- Node2 -->
<g id="node2" class="node">
<title>Node2</title>
<g id="a_node2"><a xlink:title=" ">
<polygon fill="white" stroke="#bfbfbf" points="23,-56.5 23,-75.5 87,-75.5 87,-56.5 23,-56.5"/>
<text text-anchor="middle" x="55" y="-63.5" font-family="Helvetica,sans-Serif" font-size="10.00">algorithm</text>
</a>
</g>
</g>
<!-- Node1&#45;&gt;Node2 -->
<g id="edge1" class="edge">
<title>Node1&#45;&gt;Node2</title>
<path fill="none" stroke="midnightblue" d="M1241.08,-534C984.32,-530.16 115.47,-515.35 62,-490 24.3,-472.12 0,-461.23 0,-419.5 0,-419.5 0,-419.5 0,-244 0,-183.29 29.87,-115.92 45.59,-84.69"/>
<polygon fill="midnightblue" stroke="midnightblue" points="48.83,-86.04 50.31,-75.55 42.61,-82.82 48.83,-86.04"/>
</g>
<!-- Node3 -->
<g id="node3" class="node">
<title>Node3</title>
<g id="a_node3"><a xlink:title=" ">
<polygon fill="white" stroke="#bfbfbf" points="1520.5,-470.5 1520.5,-489.5 1585.5,-489.5 1585.5,-470.5 1520.5,-470.5"/>
<text text-anchor="middle" x="1553" y="-477.5" font-family="Helvetica,sans-Serif" font-size="10.00">exception</text>
</a>
</g>
</g>
<!-- Node1&#45;&gt;Node3 -->
<g id="edge2" class="edge">
<title>Node1&#45;&gt;Node3</title>
<path fill="none" stroke="midnightblue" d="M1350.19,-526.44C1393.87,-516.66 1465.19,-500.67 1510.57,-490.51"/>
<polygon fill="midnightblue" stroke="midnightblue" points="1511.41,-493.91 1520.4,-488.3 1509.88,-487.08 1511.41,-493.91"/>
</g>
<!-- Node4 -->
<g id="node4" class="node">
<title>Node4</title>
<g id="a_node4"><a xlink:title=" ">
<polygon fill="white" stroke="#bfbfbf" points="1603.5,-470.5 1603.5,-489.5 1686.5,-489.5 1686.5,-470.5 1603.5,-470.5"/>
<text text-anchor="middle" x="1645" y="-477.5" font-family="Helvetica,sans-Serif" font-size="10.00">initializer_list</text>
</a>
</g>
</g>
<!-- Node1&#45;&gt;Node4 -->
<g id="edge3" class="edge">
<title>Node1&#45;&gt;Node4</title>
<path fill="none" stroke="midnightblue" d="M1367.63,-526.5C1422.57,-518.02 1509.24,-504.45 1593.3,-490.26"/>
<polygon fill="midnightblue" stroke="midnightblue" points="1593.99,-493.7 1603.27,-488.58 1592.83,-486.79 1593.99,-493.7"/>
</g>
<!-- Node5 -->
<g id="node5" class="node">
<title>Node5</title>
<g id="a_node5"><a xlink:title=" ">
<polygon fill="white" stroke="#bfbfbf" points="1337,-56.5 1337,-75.5 1375,-75.5 1375,-56.5 1337,-56.5"/>
<text text-anchor="middle" x="1356" y="-63.5" font-family="Helvetica,sans-Serif" font-size="10.00">map</text>
</a>
</g>
</g>
<!-- Node1&#45;&gt;Node5 -->
<g id="edge4" class="edge">
<title>Node1&#45;&gt;Node5</title>
<path fill="none" stroke="midnightblue" d="M1382.86,-528.99C1412.44,-523.13 1445.16,-511.79 1468,-490 1491.95,-467.16 1492,-452.6 1492,-419.5 1492,-419.5 1492,-419.5 1492,-182.5 1492,-149.4 1490.77,-136.03 1468,-112 1446.06,-88.84 1410.6,-77.31 1385.46,-71.77"/>
<polygon fill="midnightblue" stroke="midnightblue" points="1385.89,-68.29 1375.39,-69.75 1384.51,-75.15 1385.89,-68.29"/>
</g>
<!-- Node6 -->
<g id="node6" class="node">
<title>Node6</title>
<g id="a_node6"><a xlink:title=" ">
<polygon fill="white" stroke="#bfbfbf" points="121,-56.5 121,-75.5 177,-75.5 177,-56.5 121,-56.5"/>
<text text-anchor="middle" x="149" y="-63.5" font-family="Helvetica,sans-Serif" font-size="10.00">sstream</text>
</a>
</g>
</g>
<!-- Node1&#45;&gt;Node6 -->
<g id="edge5" class="edge">
<title>Node1&#45;&gt;Node6</title>
<path fill="none" stroke="midnightblue" d="M1241.24,-535.31C1030.22,-535.72 407.71,-533.16 210,-490 129.28,-472.38 38,-502.12 38,-419.5 38,-419.5 38,-419.5 38,-244 38,-175.08 99.16,-110.95 130.68,-82.48"/>
<polygon fill="midnightblue" stroke="midnightblue" points="133.16,-84.95 138.36,-75.72 128.54,-79.7 133.16,-84.95"/>
</g>
<!-- Node7 -->
<g id="node7" class="node">
<title>Node7</title>
<g id="a_node7"><a xlink:title=" ">
<polygon fill="white" stroke="#bfbfbf" points="238,-112.5 238,-131.5 282,-131.5 282,-112.5 238,-112.5"/>
<text text-anchor="middle" x="260" y="-119.5" font-family="Helvetica,sans-Serif" font-size="10.00">string</text>
</a>
</g>
</g>
<!-- Node1&#45;&gt;Node7 -->
<g id="edge6" class="edge">
<title>Node1&#45;&gt;Node7</title>
<path fill="none" stroke="midnightblue" d="M1241.34,-534.67C1005.47,-532.67 260,-518.49 260,-419.5 260,-419.5 260,-419.5 260,-244 260,-207.71 260,-165.31 260,-141.56"/>
<polygon fill="midnightblue" stroke="midnightblue" points="263.5,-141.51 260,-131.51 256.5,-141.51 263.5,-141.51"/>
</g>
<!-- Node8 -->
<g id="node8" class="node">
<title>Node8</title>
<g id="a_node8"><a xlink:title=" ">
<polygon fill="white" stroke="#bfbfbf" points="1704.5,-470.5 1704.5,-489.5 1773.5,-489.5 1773.5,-470.5 1704.5,-470.5"/>
<text text-anchor="middle" x="1739" y="-477.5" font-family="Helvetica,sans-Serif" font-size="10.00">type_traits</text>
</a>
</g>
</g>
<!-- Node1&#45;&gt;Node8 -->
<g id="edge7" class="edge">
<title>Node1&#45;&gt;Node8</title>
<path fill="none" stroke="midnightblue" d="M1382.69,-528.63C1457.74,-521.44 1580.02,-508.49 1694.34,-490.15"/>
<polygon fill="midnightblue" stroke="midnightblue" points="1695,-493.59 1704.32,-488.54 1693.88,-486.68 1695,-493.59"/>
</g>
<!-- Node9 -->
<g id="node9" class="node">
<title>Node9</title>
<g id="a_node9"><a xlink:title=" ">
<polygon fill="white" stroke="#bfbfbf" points="1791.5,-470.5 1791.5,-489.5 1836.5,-489.5 1836.5,-470.5 1791.5,-470.5"/>
<text text-anchor="middle" x="1814" y="-477.5" font-family="Helvetica,sans-Serif" font-size="10.00">utility</text>
</a>
</g>
</g>
<!-- Node1&#45;&gt;Node9 -->
<g id="edge8" class="edge">
<title>Node1&#45;&gt;Node9</title>
<path fill="none" stroke="midnightblue" d="M1382.8,-532.37C1473.39,-528.08 1635.14,-517.34 1781.38,-489.99"/>
<polygon fill="midnightblue" stroke="midnightblue" points="1782.26,-493.39 1791.43,-488.08 1780.95,-486.51 1782.26,-493.39"/>
</g>
<!-- Node10 -->
<g id="node10" class="node">
<title>Node10</title>
<g id="a_node10"><a xlink:title=" ">
<polygon fill="white" stroke="#bfbfbf" points="1210.5,-56.5 1210.5,-75.5 1257.5,-75.5 1257.5,-56.5 1210.5,-56.5"/>
<text text-anchor="middle" x="1234" y="-63.5" font-family="Helvetica,sans-Serif" font-size="10.00">vector</text>
</a>
</g>
</g>
<!-- Node1&#45;&gt;Node10 -->
<g id="edge9" class="edge">
<title>Node1&#45;&gt;Node10</title>
<path fill="none" stroke="midnightblue" d="M1339.72,-526.49C1381.04,-511.87 1454,-477.81 1454,-419.5 1454,-419.5 1454,-419.5 1454,-182.5 1454,-99.31 1329.16,-75.91 1267.56,-69.43"/>
<polygon fill="midnightblue" stroke="midnightblue" points="1267.83,-65.94 1257.54,-68.47 1267.16,-72.91 1267.83,-65.94"/>
</g>
<!-- Node11 -->
<g id="node11" class="node">
<title>Node11</title>
<g id="a_node11"><a xlink:href="Logger_8hpp.html" target="_top" xlink:title=" ">
<polygon fill="white" stroke="black" points="802.5,-347.5 802.5,-366.5 911.5,-366.5 911.5,-347.5 802.5,-347.5"/>
<text text-anchor="middle" x="857" y="-354.5" font-family="Helvetica,sans-Serif" font-size="10.00">logging/Logger.hpp</text>
</a>
</g>
</g>
<!-- Node1&#45;&gt;Node11 -->
<g id="edge10" class="edge">
<title>Node1&#45;&gt;Node11</title>
<path fill="none" stroke="midnightblue" d="M1303.75,-526.39C1277.88,-499.59 1198.08,-418.51 1165,-403 1143.43,-392.89 1005.45,-375.36 921.65,-365.42"/>
<polygon fill="midnightblue" stroke="midnightblue" points="922.06,-361.95 911.72,-364.25 921.24,-368.9 922.06,-361.95"/>
</g>
<!-- Node32 -->
<g id="node32" class="node">
<title>Node32</title>
<g id="a_node32"><a xlink:href="assertion_8hpp.html" target="_top" xlink:title=" ">
<polygon fill="white" stroke="black" points="874.5,-470.5 874.5,-489.5 981.5,-489.5 981.5,-470.5 874.5,-470.5"/>
<text text-anchor="middle" x="928" y="-477.5" font-family="Helvetica,sans-Serif" font-size="10.00">utils/assertion.hpp</text>
</a>
</g>
</g>
<!-- Node1&#45;&gt;Node32 -->
<g id="edge42" class="edge">
<title>Node1&#45;&gt;Node32</title>
<path fill="none" stroke="midnightblue" d="M1251.15,-526.44C1180.4,-516.49 1064.14,-500.15 992.05,-490.01"/>
<polygon fill="midnightblue" stroke="midnightblue" points="992.14,-486.48 981.75,-488.56 991.16,-493.42 992.14,-486.48"/>
</g>
<!-- Node45 -->
<g id="node45" class="node">
<title>Node45</title>
<g id="a_node45"><a xlink:href="ValueParser_8hpp.html" target="_top" xlink:title=" ">
<polygon fill="white" stroke="black" points="103,-235.5 103,-254.5 219,-254.5 219,-235.5 103,-235.5"/>
<text text-anchor="middle" x="161" y="-242.5" font-family="Helvetica,sans-Serif" font-size="10.00">xml/ValueParser.hpp</text>
</a>
</g>
</g>
<!-- Node1&#45;&gt;Node45 -->
<g id="edge65" class="edge">
<title>Node1&#45;&gt;Node45</title>
<path fill="none" stroke="midnightblue" d="M1241.28,-535.43C1017.42,-536.32 333.96,-535.26 246,-490 210.66,-471.82 191,-459.24 191,-419.5 191,-419.5 191,-419.5 191,-356 191,-322.64 178,-285.53 169.11,-264.07"/>
<polygon fill="midnightblue" stroke="midnightblue" points="172.22,-262.42 165.05,-254.62 165.79,-265.19 172.22,-262.42"/>
</g>
<!-- Node12 -->
<g id="node12" class="node">
<title>Node12</title>
<g id="a_node12"><a xlink:title=" ">
<polygon fill="white" stroke="#bfbfbf" points="923,-291.5 923,-310.5 981,-310.5 981,-291.5 923,-291.5"/>
<text text-anchor="middle" x="952" y="-298.5" font-family="Helvetica,sans-Serif" font-size="10.00">memory</text>
</a>
</g>
</g>
<!-- Node11&#45;&gt;Node12 -->
<g id="edge11" class="edge">
<title>Node11&#45;&gt;Node12</title>
<path fill="none" stroke="midnightblue" d="M872.26,-347.32C887.22,-338.82 910.25,-325.73 927.73,-315.8"/>
<polygon fill="midnightblue" stroke="midnightblue" points="929.81,-318.64 936.77,-310.65 926.35,-312.55 929.81,-318.64"/>
</g>
<!-- Node13 -->
<g id="node13" class="node">
<title>Node13</title>
<g id="a_node13"><a xlink:title=" ">
<polygon fill="white" stroke="#bfbfbf" points="1212.5,-112.5 1212.5,-131.5 1285.5,-131.5 1285.5,-112.5 1212.5,-112.5"/>
<text text-anchor="middle" x="1249" y="-119.5" font-family="Helvetica,sans-Serif" font-size="10.00">string_view</text>
</a>
</g>
</g>
<!-- Node11&#45;&gt;Node13 -->
<g id="edge12" class="edge">
<title>Node11&#45;&gt;Node13</title>
<path fill="none" stroke="midnightblue" d="M862.7,-347.33C872,-333.73 891.69,-307.27 914,-291 996.98,-230.47 1034.96,-246.56 1126,-199 1163.09,-179.62 1204.03,-153.25 1228.08,-137.22"/>
<polygon fill="midnightblue" stroke="midnightblue" points="1230.08,-140.09 1236.43,-131.61 1226.18,-134.28 1230.08,-140.09"/>
</g>
<!-- Node14 -->
<g id="node14" class="node">
<title>Node14</title>
<g id="a_node14"><a xlink:href="LogMacros_8hpp.html" target="_top" xlink:title=" ">
<polygon fill="white" stroke="black" points="739,-291.5 739,-310.5 829,-310.5 829,-291.5 739,-291.5"/>
<text text-anchor="middle" x="784" y="-298.5" font-family="Helvetica,sans-Serif" font-size="10.00">LogMacros.hpp</text>
</a>
</g>
</g>
<!-- Node11&#45;&gt;Node14 -->
<g id="edge13" class="edge">
<title>Node11&#45;&gt;Node14</title>
<path fill="none" stroke="midnightblue" d="M845.27,-347.32C834.16,-339.11 817.26,-326.6 804.02,-316.81"/>
<polygon fill="midnightblue" stroke="midnightblue" points="806.06,-313.97 795.94,-310.83 801.9,-319.59 806.06,-313.97"/>
</g>
<!-- Node15 -->
<g id="node15" class="node">
<title>Node15</title>
<g id="a_node15"><a xlink:href="fmt_8hpp.html" target="_top" xlink:title=" ">
<polygon fill="white" stroke="black" points="1037.5,-174 1037.5,-193 1116.5,-193 1116.5,-174 1037.5,-174"/>
<text text-anchor="middle" x="1077" y="-181" font-family="Helvetica,sans-Serif" font-size="10.00">utils/fmt.hpp</text>
</a>
</g>
</g>
<!-- Node14&#45;&gt;Node15 -->
<g id="edge14" class="edge">
<title>Node14&#45;&gt;Node15</title>
<path fill="none" stroke="midnightblue" d="M783.4,-291.4C782.94,-277.41 784.26,-249.81 800,-235 804.14,-231.1 948.71,-206.17 1027.3,-192.86"/>
<polygon fill="midnightblue" stroke="midnightblue" points="1028.2,-196.26 1037.47,-191.14 1027.03,-189.36 1028.2,-196.26"/>
</g>
<!-- Node25 -->
<g id="node25" class="node">
<title>Node25</title>
<g id="a_node25"><a xlink:href="ArgumentFormatter_8hpp.html" target="_top" xlink:title=" ">
<polygon fill="white" stroke="black" points="457.5,-235.5 457.5,-254.5 614.5,-254.5 614.5,-235.5 457.5,-235.5"/>
<text text-anchor="middle" x="536" y="-242.5" font-family="Helvetica,sans-Serif" font-size="10.00">utils/ArgumentFormatter.hpp</text>
</a>
</g>
</g>
<!-- Node14&#45;&gt;Node25 -->
<g id="edge33" class="edge">
<title>Node14&#45;&gt;Node25</title>
<path fill="none" stroke="midnightblue" d="M744.7,-291.44C701.44,-282.02 631.83,-266.87 585.03,-256.68"/>
<polygon fill="midnightblue" stroke="midnightblue" points="585.63,-253.22 575.11,-254.52 584.14,-260.06 585.63,-253.22"/>
</g>
<!-- Node31 -->
<g id="node31" class="node">
<title>Node31</title>
<g id="a_node31"><a xlink:href="Tracer_8hpp.html" target="_top" xlink:title=" ">
<polygon fill="white" stroke="black" points="808.5,-235.5 808.5,-254.5 913.5,-254.5 913.5,-235.5 808.5,-235.5"/>
<text text-anchor="middle" x="861" y="-242.5" font-family="Helvetica,sans-Serif" font-size="10.00">logging/Tracer.hpp</text>
</a>
</g>
</g>
<!-- Node14&#45;&gt;Node31 -->
<g id="edge40" class="edge">
<title>Node14&#45;&gt;Node31</title>
<path fill="none" stroke="midnightblue" d="M796.37,-291.32C808.16,-283.06 826.13,-270.45 840.14,-260.63"/>
<polygon fill="midnightblue" stroke="midnightblue" points="842.48,-263.26 848.66,-254.65 838.46,-257.53 842.48,-263.26"/>
</g>
<!-- Node15&#45;&gt;Node7 -->
<g id="edge15" class="edge">
<title>Node15&#45;&gt;Node7</title>
<path fill="none" stroke="midnightblue" d="M1049.77,-173.98C1041.28,-171.65 1031.82,-169.39 1023,-168 704.52,-118 614.11,-184.39 292.28,-131.79"/>
<polygon fill="midnightblue" stroke="midnightblue" points="292.65,-128.31 282.21,-130.12 291.5,-135.21 292.65,-128.31"/>
</g>
<!-- Node15&#45;&gt;Node13 -->
<g id="edge16" class="edge">
<title>Node15&#45;&gt;Node13</title>
<path fill="none" stroke="midnightblue" d="M1101.64,-173.98C1131.28,-163.72 1181.18,-146.46 1214.6,-134.9"/>
<polygon fill="midnightblue" stroke="midnightblue" points="1216.1,-138.09 1224.4,-131.51 1213.81,-131.47 1216.1,-138.09"/>
</g>
<!-- Node16 -->
<g id="node16" class="node">
<title>Node16</title>
<g id="a_node16"><a xlink:title=" ">
<polygon fill="white" stroke="#bfbfbf" points="888.5,-56.5 888.5,-75.5 967.5,-75.5 967.5,-56.5 888.5,-56.5"/>
<text text-anchor="middle" x="928" y="-63.5" font-family="Helvetica,sans-Serif" font-size="10.00">fmt/format.h</text>
</a>
</g>
</g>
<!-- Node15&#45;&gt;Node16 -->
<g id="edge17" class="edge">
<title>Node15&#45;&gt;Node16</title>
<path fill="none" stroke="midnightblue" d="M1046.05,-173.92C1012.13,-163.95 960.71,-146.94 947,-132 935.46,-119.42 930.9,-100.2 929.11,-85.92"/>
<polygon fill="midnightblue" stroke="midnightblue" points="932.58,-85.39 928.19,-75.75 925.61,-86.02 932.58,-85.39"/>
</g>
<!-- Node17 -->
<g id="node17" class="node">
<title>Node17</title>
<g id="a_node17"><a xlink:title=" ">
<polygon fill="white" stroke="#bfbfbf" points="1108,-112.5 1108,-131.5 1194,-131.5 1194,-112.5 1108,-112.5"/>
<text text-anchor="middle" x="1151" y="-119.5" font-family="Helvetica,sans-Serif" font-size="10.00">fmt/ostream.h</text>
</a>
</g>
</g>
<!-- Node15&#45;&gt;Node17 -->
<g id="edge18" class="edge">
<title>Node15&#45;&gt;Node17</title>
<path fill="none" stroke="midnightblue" d="M1087.6,-173.98C1099.25,-164.61 1118.19,-149.38 1132.33,-138.01"/>
<polygon fill="midnightblue" stroke="midnightblue" points="1134.82,-140.5 1140.42,-131.51 1130.43,-135.05 1134.82,-140.5"/>
</g>
<!-- Node18 -->
<g id="node18" class="node">
<title>Node18</title>
<g id="a_node18"><a xlink:href="fmtEigen_8hpp.html" target="_top" xlink:title=" ">
<polygon fill="white" stroke="black" points="300,-112.5 300,-131.5 406,-131.5 406,-112.5 300,-112.5"/>
<text text-anchor="middle" x="353" y="-119.5" font-family="Helvetica,sans-Serif" font-size="10.00">utils/fmtEigen.hpp</text>
</a>
</g>
</g>
<!-- Node15&#45;&gt;Node18 -->
<g id="edge19" class="edge">
<title>Node15&#45;&gt;Node18</title>
<path fill="none" stroke="midnightblue" d="M1049.48,-174C1041.06,-171.7 1031.71,-169.45 1023,-168 802.3,-131.32 535.98,-124.34 416.46,-123.15"/>
<polygon fill="midnightblue" stroke="midnightblue" points="416.42,-119.65 406.39,-123.06 416.36,-126.65 416.42,-119.65"/>
</g>
<!-- Node21 -->
<g id="node21" class="node">
<title>Node21</title>
<g id="a_node21"><a xlink:href="fmtSTL_8hpp.html" target="_top" xlink:title=" ">
<polygon fill="white" stroke="black" points="956,-112.5 956,-131.5 1052,-131.5 1052,-112.5 956,-112.5"/>
<text text-anchor="middle" x="1004" y="-119.5" font-family="Helvetica,sans-Serif" font-size="10.00">utils/fmtSTL.hpp</text>
</a>
</g>
</g>
<!-- Node15&#45;&gt;Node21 -->
<g id="edge26" class="edge">
<title>Node15&#45;&gt;Node21</title>
<path fill="none" stroke="midnightblue" d="M1066.54,-173.98C1055.05,-164.61 1036.37,-149.38 1022.41,-138.01"/>
<polygon fill="midnightblue" stroke="midnightblue" points="1024.4,-135.11 1014.44,-131.51 1019.98,-140.54 1024.4,-135.11"/>
</g>
<!-- Node18&#45;&gt;Node2 -->
<g id="edge21" class="edge">
<title>Node18&#45;&gt;Node2</title>
<path fill="none" stroke="midnightblue" d="M305.78,-112.44C248.43,-102.05 152.53,-84.67 97.43,-74.69"/>
<polygon fill="midnightblue" stroke="midnightblue" points="97.77,-71.19 87.3,-72.85 96.52,-78.08 97.77,-71.19"/>
</g>
<!-- Node18&#45;&gt;Node6 -->
<g id="edge23" class="edge">
<title>Node18&#45;&gt;Node6</title>
<path fill="none" stroke="midnightblue" d="M320.68,-112.44C284.37,-102.83 225.51,-87.25 187.03,-77.07"/>
<polygon fill="midnightblue" stroke="midnightblue" points="187.79,-73.65 177.23,-74.47 186,-80.42 187.79,-73.65"/>
</g>
<!-- Node18&#45;&gt;Node16 -->
<g id="edge22" class="edge">
<title>Node18&#45;&gt;Node16</title>
<path fill="none" stroke="midnightblue" d="M406.06,-116.02C516.65,-105.63 770.41,-81.8 878.15,-71.68"/>
<polygon fill="midnightblue" stroke="midnightblue" points="878.79,-75.14 888.42,-70.72 878.14,-68.17 878.79,-75.14"/>
</g>
<!-- Node19 -->
<g id="node19" class="node">
<title>Node19</title>
<g id="a_node19"><a xlink:title=" ">
<polygon fill="white" stroke="#bfbfbf" points="240.5,-0.5 240.5,-19.5 309.5,-19.5 309.5,-0.5 240.5,-0.5"/>
<text text-anchor="middle" x="275" y="-7.5" font-family="Helvetica,sans-Serif" font-size="10.00">Eigen/Core</text>
</a>
</g>
</g>
<!-- Node18&#45;&gt;Node19 -->
<g id="edge20" class="edge">
<title>Node18&#45;&gt;Node19</title>
<path fill="none" stroke="midnightblue" d="M352.19,-112.27C350.61,-99.05 346.11,-73.64 334,-56 325.28,-43.31 311.84,-32.66 299.99,-24.91"/>
<polygon fill="midnightblue" stroke="midnightblue" points="301.69,-21.84 291.34,-19.56 298.01,-27.8 301.69,-21.84"/>
</g>
<!-- Node20 -->
<g id="node20" class="node">
<title>Node20</title>
<g id="a_node20"><a xlink:href="EigenIO_8hpp.html" target="_top" xlink:title=" ">
<polygon fill="white" stroke="black" points="225.5,-56.5 225.5,-75.5 324.5,-75.5 324.5,-56.5 225.5,-56.5"/>
<text text-anchor="middle" x="275" y="-63.5" font-family="Helvetica,sans-Serif" font-size="10.00">utils/EigenIO.hpp</text>
</a>
</g>
</g>
<!-- Node18&#45;&gt;Node20 -->
<g id="edge24" class="edge">
<title>Node18&#45;&gt;Node20</title>
<path fill="none" stroke="midnightblue" d="M340.47,-112.32C328.41,-103.98 309.97,-91.21 295.73,-81.35"/>
<polygon fill="midnightblue" stroke="midnightblue" points="297.72,-78.47 287.5,-75.65 293.73,-84.22 297.72,-78.47"/>
</g>
<!-- Node20&#45;&gt;Node19 -->
<g id="edge25" class="edge">
<title>Node20&#45;&gt;Node19</title>
<path fill="none" stroke="midnightblue" d="M275,-56.08C275,-49.01 275,-38.86 275,-29.99"/>
<polygon fill="midnightblue" stroke="midnightblue" points="278.5,-29.75 275,-19.75 271.5,-29.75 278.5,-29.75"/>
</g>
<!-- Node21&#45;&gt;Node5 -->
<g id="edge30" class="edge">
<title>Node21&#45;&gt;Node5</title>
<path fill="none" stroke="midnightblue" d="M1052.21,-113.6C1126.45,-102.21 1266.53,-80.73 1327,-71.45"/>
<polygon fill="midnightblue" stroke="midnightblue" points="1327.65,-74.89 1337,-69.91 1326.58,-67.97 1327.65,-74.89"/>
</g>
<!-- Node21&#45;&gt;Node10 -->
<g id="edge32" class="edge">
<title>Node21&#45;&gt;Node10</title>
<path fill="none" stroke="midnightblue" d="M1040.44,-112.44C1084.44,-102.11 1157.83,-84.88 1200.48,-74.87"/>
<polygon fill="midnightblue" stroke="midnightblue" points="1201.43,-78.24 1210.37,-72.55 1199.83,-71.43 1201.43,-78.24"/>
</g>
<!-- Node21&#45;&gt;Node16 -->
<g id="edge29" class="edge">
<title>Node21&#45;&gt;Node16</title>
<path fill="none" stroke="midnightblue" d="M991.79,-112.32C980.22,-104.11 962.62,-91.6 948.84,-81.81"/>
<polygon fill="midnightblue" stroke="midnightblue" points="950.61,-78.77 940.43,-75.83 946.56,-84.48 950.61,-78.77"/>
</g>
<!-- Node22 -->
<g id="node22" class="node">
<title>Node22</title>
<g id="a_node22"><a xlink:title=" ">
<polygon fill="white" stroke="#bfbfbf" points="568,-56.5 568,-75.5 610,-75.5 610,-56.5 568,-56.5"/>
<text text-anchor="middle" x="589" y="-63.5" font-family="Helvetica,sans-Serif" font-size="10.00">array</text>
</a>
</g>
</g>
<!-- Node21&#45;&gt;Node22 -->
<g id="edge27" class="edge">
<title>Node21&#45;&gt;Node22</title>
<path fill="none" stroke="midnightblue" d="M955.99,-114.75C870.14,-103.58 692.59,-80.48 620.48,-71.1"/>
<polygon fill="midnightblue" stroke="midnightblue" points="620.6,-67.58 610.23,-69.76 619.7,-74.52 620.6,-67.58"/>
</g>
<!-- Node23 -->
<g id="node23" class="node">
<title>Node23</title>
<g id="a_node23"><a xlink:title=" ">
<polygon fill="white" stroke="#bfbfbf" points="1037.5,-56.5 1037.5,-75.5 1084.5,-75.5 1084.5,-56.5 1037.5,-56.5"/>
<text text-anchor="middle" x="1061" y="-63.5" font-family="Helvetica,sans-Serif" font-size="10.00">deque</text>
</a>
</g>
</g>
<!-- Node21&#45;&gt;Node23 -->
<g id="edge28" class="edge">
<title>Node21&#45;&gt;Node23</title>
<path fill="none" stroke="midnightblue" d="M1013.16,-112.32C1021.5,-104.42 1034.03,-92.55 1044.18,-82.94"/>
<polygon fill="midnightblue" stroke="midnightblue" points="1046.82,-85.25 1051.68,-75.83 1042.01,-80.17 1046.82,-85.25"/>
</g>
<!-- Node24 -->
<g id="node24" class="node">
<title>Node24</title>
<g id="a_node24"><a xlink:title=" ">
<polygon fill="white" stroke="#bfbfbf" points="987,-56.5 987,-75.5 1019,-75.5 1019,-56.5 987,-56.5"/>
<text text-anchor="middle" x="1003" y="-63.5" font-family="Helvetica,sans-Serif" font-size="10.00">set</text>
</a>
</g>
</g>
<!-- Node21&#45;&gt;Node24 -->
<g id="edge31" class="edge">
<title>Node21&#45;&gt;Node24</title>
<path fill="none" stroke="midnightblue" d="M1003.83,-112.08C1003.7,-105.01 1003.52,-94.86 1003.35,-85.99"/>
<polygon fill="midnightblue" stroke="midnightblue" points="1006.85,-85.68 1003.16,-75.75 999.85,-85.81 1006.85,-85.68"/>
</g>
<!-- Node25&#45;&gt;Node15 -->
<g id="edge39" class="edge">
<title>Node25&#45;&gt;Node15</title>
<path fill="none" stroke="midnightblue" d="M614.51,-237.81C705.17,-230.29 858.68,-216.43 990,-199 1002.1,-197.39 1015.09,-195.38 1027.25,-193.37"/>
<polygon fill="midnightblue" stroke="midnightblue" points="1027.96,-196.81 1037.24,-191.7 1026.8,-189.9 1027.96,-196.81"/>
</g>
<!-- Node26 -->
<g id="node26" class="node">
<title>Node26</title>
<g id="a_node26"><a xlink:title=" ">
<polygon fill="white" stroke="#bfbfbf" points="743,-168.5 743,-198.5 853,-198.5 853,-168.5 743,-168.5"/>
<text text-anchor="start" x="751" y="-186.5" font-family="Helvetica,sans-Serif" font-size="10.00">boost/preprocessor</text>
<text text-anchor="middle" x="798" y="-175.5" font-family="Helvetica,sans-Serif" font-size="10.00">/control/if.hpp</text>
</a>
</g>
</g>
<!-- Node25&#45;&gt;Node26 -->
<g id="edge34" class="edge">
<title>Node25&#45;&gt;Node26</title>
<path fill="none" stroke="midnightblue" d="M573.54,-235.48C615.06,-226.05 682.71,-210.68 732.91,-199.28"/>
<polygon fill="midnightblue" stroke="midnightblue" points="733.73,-202.69 742.7,-197.06 732.18,-195.86 733.73,-202.69"/>
</g>
<!-- Node27 -->
<g id="node27" class="node">
<title>Node27</title>
<g id="a_node27"><a xlink:title=" ">
<polygon fill="white" stroke="#bfbfbf" points="480.5,-168.5 480.5,-198.5 591.5,-198.5 591.5,-168.5 480.5,-168.5"/>
<text text-anchor="start" x="488.5" y="-186.5" font-family="Helvetica,sans-Serif" font-size="10.00">boost/preprocessor</text>
<text text-anchor="middle" x="536" y="-175.5" font-family="Helvetica,sans-Serif" font-size="10.00">/seq/for_each_i.hpp</text>
</a>
</g>
</g>
<!-- Node25&#45;&gt;Node27 -->
<g id="edge35" class="edge">
<title>Node25&#45;&gt;Node27</title>
<path fill="none" stroke="midnightblue" d="M536,-235.48C536,-228.47 536,-218.19 536,-208.7"/>
<polygon fill="midnightblue" stroke="midnightblue" points="539.5,-208.52 536,-198.52 532.5,-208.52 539.5,-208.52"/>
</g>
<!-- Node28 -->
<g id="node28" class="node">
<title>Node28</title>
<g id="a_node28"><a xlink:title=" ">
<polygon fill="white" stroke="#bfbfbf" points="871,-168.5 871,-198.5 981,-198.5 981,-168.5 871,-168.5"/>
<text text-anchor="start" x="879" y="-186.5" font-family="Helvetica,sans-Serif" font-size="10.00">boost/preprocessor</text>
<text text-anchor="middle" x="926" y="-175.5" font-family="Helvetica,sans-Serif" font-size="10.00">/stringize.hpp</text>
</a>
</g>
</g>
<!-- Node25&#45;&gt;Node28 -->
<g id="edge36" class="edge">
<title>Node25&#45;&gt;Node28</title>
<path fill="none" stroke="midnightblue" d="M611.06,-235.49C675,-227.82 769.49,-215.48 860.92,-199.1"/>
<polygon fill="midnightblue" stroke="midnightblue" points="861.69,-202.52 870.9,-197.3 860.44,-195.63 861.69,-202.52"/>
</g>
<!-- Node29 -->
<g id="node29" class="node">
<title>Node29</title>
<g id="a_node29"><a xlink:title=" ">
<polygon fill="white" stroke="#bfbfbf" points="609.5,-168.5 609.5,-198.5 724.5,-198.5 724.5,-168.5 609.5,-168.5"/>
<text text-anchor="start" x="617.5" y="-186.5" font-family="Helvetica,sans-Serif" font-size="10.00">boost/preprocessor</text>
<text text-anchor="middle" x="667" y="-175.5" font-family="Helvetica,sans-Serif" font-size="10.00">/variadic/to_seq.hpp</text>
</a>
</g>
</g>
<!-- Node25&#45;&gt;Node29 -->
<g id="edge37" class="edge">
<title>Node25&#45;&gt;Node29</title>
<path fill="none" stroke="midnightblue" d="M554.77,-235.48C573.51,-226.96 602.89,-213.62 626.89,-202.72"/>
<polygon fill="midnightblue" stroke="midnightblue" points="628.47,-205.85 636.13,-198.52 625.57,-199.47 628.47,-205.85"/>
</g>
<!-- Node30 -->
<g id="node30" class="node">
<title>Node30</title>
<g id="a_node30"><a xlink:title=" ">
<polygon fill="white" stroke="#bfbfbf" points="326,-174 326,-193 462,-193 462,-174 326,-174"/>
<text text-anchor="middle" x="394" y="-181" font-family="Helvetica,sans-Serif" font-size="10.00">boost/vmd/is_empty.hpp</text>
</a>
</g>
</g>
<!-- Node25&#45;&gt;Node30 -->
<g id="edge38" class="edge">
<title>Node25&#45;&gt;Node30</title>
<path fill="none" stroke="midnightblue" d="M515.65,-235.48C491.61,-225.4 451.4,-208.55 423.84,-197"/>
<polygon fill="midnightblue" stroke="midnightblue" points="424.88,-193.65 414.31,-193.01 422.18,-200.1 424.88,-193.65"/>
</g>
<!-- Node31&#45;&gt;Node11 -->
<g id="edge41" class="edge">
<title>Node31&#45;&gt;Node11</title>
<path fill="none" stroke="midnightblue" d="M860.69,-254.59C860.04,-272.31 858.55,-313.25 857.68,-337.35"/>
<polygon fill="midnightblue" stroke="midnightblue" points="854.18,-337.25 857.31,-347.37 861.18,-337.5 854.18,-337.25"/>
</g>
<!-- Node32&#45;&gt;Node13 -->
<g id="edge45" class="edge">
<title>Node32&#45;&gt;Node13</title>
<path fill="none" stroke="midnightblue" d="M981.71,-477.09C1089,-472.71 1321.68,-460.28 1346,-434 1427.53,-345.91 1307.22,-190.14 1263.69,-139.44"/>
<polygon fill="midnightblue" stroke="midnightblue" points="1266.17,-136.97 1256.96,-131.73 1260.9,-141.57 1266.17,-136.97"/>
</g>
<!-- Node32&#45;&gt;Node15 -->
<g id="edge46" class="edge">
<title>Node32&#45;&gt;Node15</title>
<path fill="none" stroke="midnightblue" d="M981.7,-476.8C1084.65,-472.03 1301.59,-459.1 1324,-434 1408.84,-338.97 1190.51,-232.81 1107.49,-197.03"/>
<polygon fill="midnightblue" stroke="midnightblue" points="1108.64,-193.72 1098.07,-193.02 1105.9,-200.16 1108.64,-193.72"/>
</g>
<!-- Node32&#45;&gt;Node25 -->
<g id="edge52" class="edge">
<title>Node32&#45;&gt;Node25</title>
<path fill="none" stroke="midnightblue" d="M874.11,-478.08C752.5,-475.44 465.09,-465.87 436,-434 386.09,-379.32 475.46,-295.15 516.74,-261.08"/>
<polygon fill="midnightblue" stroke="midnightblue" points="519.18,-263.61 524.75,-254.6 514.78,-258.17 519.18,-263.61"/>
</g>
<!-- Node32&#45;&gt;Node26 -->
<g id="edge49" class="edge">
<title>Node32&#45;&gt;Node26</title>
<path fill="none" stroke="midnightblue" d="M874.4,-477.69C759.3,-474.33 496.73,-463.49 470,-434 420.53,-379.43 662.8,-251.25 759.54,-203.16"/>
<polygon fill="midnightblue" stroke="midnightblue" points="761.29,-206.2 768.7,-198.63 758.19,-199.93 761.29,-206.2"/>
</g>
<!-- Node32&#45;&gt;Node28 -->
<g id="edge50" class="edge">
<title>Node32&#45;&gt;Node28</title>
<path fill="none" stroke="midnightblue" d="M981.74,-476.37C1056.49,-470.84 1177.8,-453.94 1132,-403 1081.5,-346.83 863.2,-397.28 794,-367 759.37,-351.85 745.62,-345.42 730,-311 712.88,-273.27 749.17,-257.45 784,-235 807.3,-219.98 835.63,-208.74 860.84,-200.73"/>
<polygon fill="midnightblue" stroke="midnightblue" points="862.16,-203.99 870.7,-197.71 860.11,-197.29 862.16,-203.99"/>
</g>
<!-- Node33 -->
<g id="node33" class="node">
<title>Node33</title>
<g id="a_node33"><a xlink:title=" ">
<polygon fill="white" stroke="#bfbfbf" points="478.5,-409 478.5,-428 527.5,-428 527.5,-409 478.5,-409"/>
<text text-anchor="middle" x="503" y="-416" font-family="Helvetica,sans-Serif" font-size="10.00">cstdlib</text>
</a>
</g>
</g>
<!-- Node32&#45;&gt;Node33 -->
<g id="edge43" class="edge">
<title>Node32&#45;&gt;Node33</title>
<path fill="none" stroke="midnightblue" d="M874.29,-477.7C798.08,-474.75 654.74,-465.18 537,-434 534.64,-433.38 532.24,-432.62 529.85,-431.78"/>
<polygon fill="midnightblue" stroke="midnightblue" points="530.89,-428.43 520.31,-428.02 528.33,-434.94 530.89,-428.43"/>
</g>
<!-- Node34 -->
<g id="node34" class="node">
<title>Node34</title>
<g id="a_node34"><a xlink:title=" ">
<polygon fill="white" stroke="#bfbfbf" points="546,-409 546,-428 606,-428 606,-409 546,-409"/>
<text text-anchor="middle" x="576" y="-416" font-family="Helvetica,sans-Serif" font-size="10.00">iostream</text>
</a>
</g>
</g>
<!-- Node32&#45;&gt;Node34 -->
<g id="edge44" class="edge">
<title>Node32&#45;&gt;Node34</title>
<path fill="none" stroke="midnightblue" d="M874.36,-474.63C811.68,-468.74 705.18,-456.35 616,-434 613.02,-433.25 609.94,-432.36 606.89,-431.4"/>
<polygon fill="midnightblue" stroke="midnightblue" points="607.93,-428.06 597.34,-428.15 605.68,-434.68 607.93,-428.06"/>
</g>
<!-- Node35 -->
<g id="node35" class="node">
<title>Node35</title>
<g id="a_node35"><a xlink:title=" ">
<polygon fill="white" stroke="#bfbfbf" points="624.5,-409 624.5,-428 771.5,-428 771.5,-409 624.5,-409"/>
<text text-anchor="middle" x="698" y="-416" font-family="Helvetica,sans-Serif" font-size="10.00">boost/current_function.hpp</text>
</a>
</g>
</g>
<!-- Node32&#45;&gt;Node35 -->
<g id="edge47" class="edge">
<title>Node32&#45;&gt;Node35</title>
<path fill="none" stroke="midnightblue" d="M895.05,-470.48C854.4,-459.96 785.21,-442.06 740.58,-430.51"/>
<polygon fill="midnightblue" stroke="midnightblue" points="741.45,-427.13 730.89,-428.01 739.7,-433.9 741.45,-427.13"/>
</g>
<!-- Node36 -->
<g id="node36" class="node">
<title>Node36</title>
<g id="a_node36"><a xlink:title=" ">
<polygon fill="white" stroke="#bfbfbf" points="789.5,-403.5 789.5,-433.5 924.5,-433.5 924.5,-403.5 789.5,-403.5"/>
<text text-anchor="start" x="797.5" y="-421.5" font-family="Helvetica,sans-Serif" font-size="10.00">boost/preprocessor</text>
<text text-anchor="middle" x="857" y="-410.5" font-family="Helvetica,sans-Serif" font-size="10.00">/comparison/greater.hpp</text>
</a>
</g>
</g>
<!-- Node32&#45;&gt;Node36 -->
<g id="edge48" class="edge">
<title>Node32&#45;&gt;Node36</title>
<path fill="none" stroke="midnightblue" d="M917.83,-470.48C908.39,-462.57 893.97,-450.48 881.54,-440.07"/>
<polygon fill="midnightblue" stroke="midnightblue" points="883.65,-437.26 873.73,-433.52 879.15,-442.63 883.65,-437.26"/>
</g>
<!-- Node37 -->
<g id="node37" class="node">
<title>Node37</title>
<g id="a_node37"><a xlink:title=" ">
<polygon fill="white" stroke="#bfbfbf" points="943,-403.5 943,-433.5 1053,-433.5 1053,-403.5 943,-403.5"/>
<text text-anchor="start" x="951" y="-421.5" font-family="Helvetica,sans-Serif" font-size="10.00">boost/preprocessor</text>
<text text-anchor="middle" x="998" y="-410.5" font-family="Helvetica,sans-Serif" font-size="10.00">/variadic/size.hpp</text>
</a>
</g>
</g>
<!-- Node32&#45;&gt;Node37 -->
<g id="edge51" class="edge">
<title>Node32&#45;&gt;Node37</title>
<path fill="none" stroke="midnightblue" d="M938.03,-470.48C947.33,-462.57 961.55,-450.48 973.8,-440.07"/>
<polygon fill="midnightblue" stroke="midnightblue" points="976.15,-442.67 981.5,-433.52 971.62,-437.33 976.15,-442.67"/>
</g>
<!-- Node38 -->
<g id="node38" class="node">
<title>Node38</title>
<g id="a_node38"><a xlink:href="Parallel_8hpp.html" target="_top" xlink:title=" ">
<polygon fill="white" stroke="black" points="1217,-409 1217,-428 1315,-428 1315,-409 1217,-409"/>
<text text-anchor="middle" x="1266" y="-416" font-family="Helvetica,sans-Serif" font-size="10.00">utils/Parallel.hpp</text>
</a>
</g>
</g>
<!-- Node32&#45;&gt;Node38 -->
<g id="edge53" class="edge">
<title>Node32&#45;&gt;Node38</title>
<path fill="none" stroke="midnightblue" d="M976.43,-470.48C1037.42,-459.74 1142.13,-441.31 1207.52,-429.79"/>
<polygon fill="midnightblue" stroke="midnightblue" points="1208.42,-433.19 1217.66,-428.01 1207.21,-426.3 1208.42,-433.19"/>
</g>
<!-- Node43 -->
<g id="node43" class="node">
<title>Node43</title>
<g id="a_node43"><a xlink:href="stacktrace_8hpp.html" target="_top" xlink:title=" ">
<polygon fill="white" stroke="black" points="288.5,-291.5 288.5,-310.5 401.5,-310.5 401.5,-291.5 288.5,-291.5"/>
<text text-anchor="middle" x="345" y="-298.5" font-family="Helvetica,sans-Serif" font-size="10.00">utils/stacktrace.hpp</text>
</a>
</g>
</g>
<!-- Node32&#45;&gt;Node43 -->
<g id="edge62" class="edge">
<title>Node32&#45;&gt;Node43</title>
<path fill="none" stroke="midnightblue" d="M874.1,-477.6C746.86,-473.84 435.68,-461.87 398,-434 361.37,-406.9 350.01,-350.3 346.52,-320.79"/>
<polygon fill="midnightblue" stroke="midnightblue" points="349.98,-320.21 345.51,-310.61 343.01,-320.91 349.98,-320.21"/>
</g>
<!-- Node44 -->
<g id="node44" class="node">
<title>Node44</title>
<g id="a_node44"><a xlink:title=" ">
<polygon fill="white" stroke="#bfbfbf" points="1071,-409 1071,-428 1123,-428 1123,-409 1071,-409"/>
<text text-anchor="middle" x="1097" y="-416" font-family="Helvetica,sans-Serif" font-size="10.00">cassert</text>
</a>
</g>
</g>
<!-- Node32&#45;&gt;Node44 -->
<g id="edge64" class="edge">
<title>Node32&#45;&gt;Node44</title>
<path fill="none" stroke="midnightblue" d="M955.14,-470.49C982.35,-461.82 1025.34,-447.73 1062,-434 1063.85,-433.31 1065.74,-432.58 1067.65,-431.83"/>
<polygon fill="midnightblue" stroke="midnightblue" points="1069.14,-435 1077.1,-428.02 1066.52,-428.51 1069.14,-435"/>
</g>
<!-- Node38&#45;&gt;Node7 -->
<g id="edge57" class="edge">
<title>Node38&#45;&gt;Node7</title>
<path fill="none" stroke="midnightblue" d="M1227.78,-408.98C1218.39,-406.95 1208.34,-404.84 1199,-403 1154.27,-394.18 1026.89,-401.44 997,-367 982.5,-350.29 1005.52,-183.77 990,-168 937.27,-114.4 404.83,-142.88 292.28,-131.44"/>
<polygon fill="midnightblue" stroke="midnightblue" points="292.58,-127.95 282.21,-130.11 291.67,-134.89 292.58,-127.95"/>
</g>
<!-- Node38&#45;&gt;Node10 -->
<g id="edge58" class="edge">
<title>Node38&#45;&gt;Node10</title>
<path fill="none" stroke="midnightblue" d="M1282.34,-408.98C1321.21,-387.39 1416,-326.5 1416,-246 1416,-246 1416,-246 1416,-182.5 1416,-113.03 1320.31,-83.58 1267.7,-72.64"/>
<polygon fill="midnightblue" stroke="midnightblue" points="1268.28,-69.18 1257.79,-70.69 1266.93,-76.05 1268.28,-69.18"/>
</g>
<!-- Node38&#45;&gt;Node11 -->
<g id="edge59" class="edge">
<title>Node38&#45;&gt;Node11</title>
<path fill="none" stroke="midnightblue" d="M1231.79,-408.99C1222.49,-406.85 1212.39,-404.69 1203,-403 1080.81,-381.05 1049.11,-383.03 926,-367 924.54,-366.81 923.06,-366.62 921.57,-366.42"/>
<polygon fill="midnightblue" stroke="midnightblue" points="921.98,-362.95 911.61,-365.13 921.08,-369.89 921.98,-362.95"/>
</g>
<!-- Node38&#45;&gt;Node12 -->
<g id="edge55" class="edge">
<title>Node38&#45;&gt;Node12</title>
<path fill="none" stroke="midnightblue" d="M1231.11,-408.97C1221.99,-406.88 1212.15,-404.74 1203,-403 1150.23,-392.97 1002.6,-404.35 964,-367 951.78,-355.17 949.68,-335.25 950.09,-320.57"/>
<polygon fill="midnightblue" stroke="midnightblue" points="953.58,-320.81 950.76,-310.59 946.6,-320.34 953.58,-320.81"/>
</g>
<!-- Node39 -->
<g id="node39" class="node">
<title>Node39</title>
<g id="a_node39"><a xlink:title=" ">
<polygon fill="white" stroke="#bfbfbf" points="1068,-347.5 1068,-366.5 1116,-366.5 1116,-347.5 1068,-347.5"/>
<text text-anchor="middle" x="1092" y="-354.5" font-family="Helvetica,sans-Serif" font-size="10.00">iosfwd</text>
</a>
</g>
</g>
<!-- Node38&#45;&gt;Node39 -->
<g id="edge54" class="edge">
<title>Node38&#45;&gt;Node39</title>
<path fill="none" stroke="midnightblue" d="M1241.07,-408.98C1210.84,-398.64 1159.74,-381.16 1125.94,-369.61"/>
<polygon fill="midnightblue" stroke="midnightblue" points="1126.64,-366.15 1116.04,-366.22 1124.37,-372.77 1126.64,-366.15"/>
</g>
<!-- Node40 -->
<g id="node40" class="node">
<title>Node40</title>
<g id="a_node40"><a xlink:title=" ">
<polygon fill="white" stroke="#bfbfbf" points="1134,-347.5 1134,-366.5 1190,-366.5 1190,-347.5 1134,-347.5"/>
<text text-anchor="middle" x="1162" y="-354.5" font-family="Helvetica,sans-Serif" font-size="10.00">optional</text>
</a>
</g>
</g>
<!-- Node38&#45;&gt;Node40 -->
<g id="edge56" class="edge">
<title>Node38&#45;&gt;Node40</title>
<path fill="none" stroke="midnightblue" d="M1251.1,-408.98C1234.03,-399.21 1205.84,-383.08 1185.74,-371.58"/>
<polygon fill="midnightblue" stroke="midnightblue" points="1187.29,-368.44 1176.87,-366.51 1183.81,-374.51 1187.29,-368.44"/>
</g>
<!-- Node41 -->
<g id="node41" class="node">
<title>Node41</title>
<g id="a_node41"><a xlink:href="types_8hpp.html" target="_top" xlink:title=" ">
<polygon fill="white" stroke="black" points="1208.5,-347.5 1208.5,-366.5 1311.5,-366.5 1311.5,-347.5 1208.5,-347.5"/>
<text text-anchor="middle" x="1260" y="-354.5" font-family="Helvetica,sans-Serif" font-size="10.00">precice/types.hpp</text>
</a>
</g>
</g>
<!-- Node38&#45;&gt;Node41 -->
<g id="edge60" class="edge">
<title>Node38&#45;&gt;Node41</title>
<path fill="none" stroke="midnightblue" d="M1265.14,-408.98C1264.29,-400.58 1262.97,-387.48 1261.88,-376.66"/>
<polygon fill="midnightblue" stroke="midnightblue" points="1265.34,-376.11 1260.86,-366.51 1258.38,-376.81 1265.34,-376.11"/>
</g>
<!-- Node42 -->
<g id="node42" class="node">
<title>Node42</title>
<g id="a_node42"><a xlink:title=" ">
<polygon fill="white" stroke="#bfbfbf" points="1006,-347.5 1006,-366.5 1050,-366.5 1050,-347.5 1006,-347.5"/>
<text text-anchor="middle" x="1028" y="-354.5" font-family="Helvetica,sans-Serif" font-size="10.00">mpi.h</text>
</a>
</g>
</g>
<!-- Node38&#45;&gt;Node42 -->
<g id="edge61" class="edge">
<title>Node38&#45;&gt;Node42</title>
<path fill="none" stroke="midnightblue" d="M1228.86,-408.95C1189.36,-399.74 1124.84,-384.39 1060.26,-367.26"/>
<polygon fill="midnightblue" stroke="midnightblue" points="1060.88,-363.8 1050.32,-364.6 1059.08,-370.56 1060.88,-363.8"/>
</g>
<!-- Node43&#45;&gt;Node7 -->
<g id="edge63" class="edge">
<title>Node43&#45;&gt;Node7</title>
<path fill="none" stroke="midnightblue" d="M340.9,-291.46C327.81,-264.19 286.79,-178.78 268.71,-141.13"/>
<polygon fill="midnightblue" stroke="midnightblue" points="271.74,-139.37 264.26,-131.87 265.43,-142.4 271.74,-139.37"/>
</g>
<!-- Node45&#45;&gt;Node7 -->
<g id="edge67" class="edge">
<title>Node45&#45;&gt;Node7</title>
<path fill="none" stroke="midnightblue" d="M169.66,-235.29C178.36,-226.41 192.02,-212.11 203,-199 219.47,-179.34 236.96,-155.53 248.15,-139.86"/>
<polygon fill="midnightblue" stroke="midnightblue" points="251.03,-141.85 253.96,-131.66 245.32,-137.8 251.03,-141.85"/>
</g>
<!-- Node45&#45;&gt;Node19 -->
<g id="edge66" class="edge">
<title>Node45&#45;&gt;Node19</title>
<path fill="none" stroke="midnightblue" d="M144.8,-235.39C96.01,-208.42 -42.72,-123.34 14,-56 41.06,-23.87 162.46,-14.68 229.74,-12.05"/>
<polygon fill="midnightblue" stroke="midnightblue" points="230.18,-15.54 240.05,-11.68 229.94,-8.54 230.18,-15.54"/>
</g>
<!-- Node46 -->
<g id="node46" class="node">
<title>Node46</title>
<g id="a_node46"><a xlink:href="String_8hpp.html" target="_top" xlink:title=" ">
<polygon fill="white" stroke="black" points="104,-174 104,-193 194,-193 194,-174 104,-174"/>
<text text-anchor="middle" x="149" y="-181" font-family="Helvetica,sans-Serif" font-size="10.00">utils/String.hpp</text>
</a>
</g>
</g>
<!-- Node45&#45;&gt;Node46 -->
<g id="edge68" class="edge">
<title>Node45&#45;&gt;Node46</title>
<path fill="none" stroke="midnightblue" d="M159.28,-235.48C157.57,-226.99 154.89,-213.7 152.7,-202.82"/>
<polygon fill="midnightblue" stroke="midnightblue" points="156.12,-202.12 150.72,-193.01 149.26,-203.5 156.12,-202.12"/>
</g>
<!-- Node46&#45;&gt;Node2 -->
<g id="edge69" class="edge">
<title>Node46&#45;&gt;Node2</title>
<path fill="none" stroke="midnightblue" d="M141.93,-173.82C126.35,-154.67 88.81,-108.54 68.53,-83.63"/>
<polygon fill="midnightblue" stroke="midnightblue" points="71.17,-81.33 62.15,-75.78 65.74,-85.75 71.17,-81.33"/>
</g>
<!-- Node46&#45;&gt;Node6 -->
<g id="edge71" class="edge">
<title>Node46&#45;&gt;Node6</title>
<path fill="none" stroke="midnightblue" d="M149,-173.82C149,-155.26 149,-111.34 149,-85.97"/>
<polygon fill="midnightblue" stroke="midnightblue" points="152.5,-85.78 149,-75.78 145.5,-85.78 152.5,-85.78"/>
</g>
<!-- Node46&#45;&gt;Node7 -->
<g id="edge72" class="edge">
<title>Node46&#45;&gt;Node7</title>
<path fill="none" stroke="midnightblue" d="M164.9,-173.98C183.28,-164.12 213.76,-147.79 235.24,-136.27"/>
<polygon fill="midnightblue" stroke="midnightblue" points="236.97,-139.32 244.13,-131.51 233.66,-133.15 236.97,-139.32"/>
</g>
<!-- Node46&#45;&gt;Node10 -->
<g id="edge73" class="edge">
<title>Node46&#45;&gt;Node10</title>
<path fill="none" stroke="midnightblue" d="M194.24,-178.13C228.04,-174.98 275.38,-170.8 317,-168 482.15,-156.88 901.31,-175.58 1061,-132 1079.41,-126.98 1081.44,-119.49 1099,-112 1132.8,-97.59 1172.89,-84.73 1200.56,-76.49"/>
<polygon fill="midnightblue" stroke="midnightblue" points="1201.55,-79.85 1210.16,-73.67 1199.57,-73.13 1201.55,-79.85"/>
</g>
<!-- Node46&#45;&gt;Node22 -->
<g id="edge70" class="edge">
<title>Node46&#45;&gt;Node22</title>
<path fill="none" stroke="midnightblue" d="M155.82,-173.74C168.4,-158.29 196.93,-126.45 229,-112 287.43,-85.67 480.44,-72.77 557.15,-68.58"/>
<polygon fill="midnightblue" stroke="midnightblue" points="557.8,-72.05 567.6,-68.02 557.43,-65.06 557.8,-72.05"/>
</g>
</g>
</svg>
        <g id="navigator" transform="translate(0 0)" fill="#404254">
                <rect fill="#f2f5e9" fill-opacity="0.5" stroke="#606060" stroke-width=".5" x="0" y="0" width="60" height="60"/>
                <use id="zoomplus" xlink:href="#zoomPlus" x="17" y="9" onmousedown="handleZoom(evt,'in')"/>
                <use id="zoomminus" xlink:href="#zoomMin" x="42" y="9" onmousedown="handleZoom(evt,'out')"/>
                <use id="reset" xlink:href="#resetDef" x="30" y="36" onmousedown="handleReset()"/>
                <g id="arrowUp" xlink:href="#dirArrow" transform="translate(30 24)" onmousedown="handlePan(0,-1)">
                  <use xlink:href="#rim" fill="#404040">
                        <set attributeName="fill" to="#808080" begin="arrowUp.mouseover" end="arrowUp.mouseout"/>
                  </use>
                  <path fill="none" stroke="white" stroke-width="1.5" d="M0,-3.0v7 M-2.5,-0.5L0,-3.0L2.5,-0.5"/>
                </g>
                <g id="arrowRight" xlink:href="#dirArrow" transform="rotate(90) translate(36 -43)" onmousedown="handlePan(1,0)">
                  <use xlink:href="#rim" fill="#404040">
                        <set attributeName="fill" to="#808080" begin="arrowRight.mouseover" end="arrowRight.mouseout"/>
                  </use>
                  <path fill="none" stroke="white" stroke-width="1.5" d="M0,-3.0v7 M-2.5,-0.5L0,-3.0L2.5,-0.5"/>
                </g>
                <g id="arrowDown" xlink:href="#dirArrow" transform="rotate(180) translate(-30 -48)" onmousedown="handlePan(0,1)">
                  <use xlink:href="#rim" fill="#404040">
                        <set attributeName="fill" to="#808080" begin="arrowDown.mouseover" end="arrowDown.mouseout"/>
                  </use>
                  <path fill="none" stroke="white" stroke-width="1.5" d="M0,-3.0v7 M-2.5,-0.5L0,-3.0L2.5,-0.5"/>
                </g>
                <g id="arrowLeft" xlink:href="#dirArrow" transform="rotate(270) translate(-36 17)" onmousedown="handlePan(-1,0)">
                  <use xlink:href="#rim" fill="#404040">
                        <set attributeName="fill" to="#808080" begin="arrowLeft.mouseover" end="arrowLeft.mouseout"/>
                  </use>
                  <path fill="none" stroke="white" stroke-width="1.5" d="M0,-3.0v7 M-2.5,-0.5L0,-3.0L2.5,-0.5"/>
                </g>
        </g>
        <svg viewBox="0 0 15 15" width="100%" height="30px" preserveAspectRatio="xMaxYMin meet">
         <g id="arrow_out" transform="scale(0.3 0.3)">
          <a xlink:href="XMLAttribute_8hpp__incl_org.svg" target="_base">
           <rect id="button" ry="5" rx="5" y="6" x="6" height="38" width="38"
                fill="#f2f5e9" fill-opacity="0.5" stroke="#606060" stroke-width="1.0"/>
           <path id="arrow"
             d="M 11.500037,31.436501 C 11.940474,20.09759 22.043105,11.32322 32.158766,21.979434 L 37.068811,17.246167 C 37.068811,17.246167 37.088388,32 37.088388,32 L 22.160133,31.978069 C 22.160133,31.978069 26.997745,27.140456 26.997745,27.140456 C 18.528582,18.264221 13.291696,25.230495 11.500037,31.436501 z"
             style="fill:#404040;"/>
          </a>
         </g>
        </svg>
</svg>
